<svg xmlns="http://www.w3.org/2000/svg" width="400" height="250" viewBox="0 0 400 250">
  <g id="Group_1076203" data-name="Group 1076203" transform="translate(-180 -483)">
    <ellipse id="Ellipse_5997" data-name="Ellipse 5997" cx="128.5" cy="14.5" rx="128.5" ry="14.5" transform="translate(238 700)" fill="#727997"/>
    <g id="Group_1074419" data-name="Group 1074419">
      <path id="Path_822158" data-name="Path 822158" d="M400,0H0V250H400Z" transform="translate(180 483)" fill="none"/>
      <g id="escribir" transform="translate(244 486)">
        <g id="OBJECTS" transform="translate(0 0)">
          <path id="Path_822104" data-name="Path 822104" d="M71.482,54.035c20.157,11.936,17.438,45.929,6.349,62.682a20.074,20.074,0,0,0,2.14-9.761c-5.989,15.107-17.092,28.364-31.556,35.794s-32.284,8.638-47.179,2.069A23.9,23.9,0,0,0,23.6,140.1C16.569,144.509,7.359,141.253,0,137.4a27.737,27.737,0,0,0,29.946-9.874c1.059-1.462,2.013-3.214,1.7-4.993-.494-2.776-3.588-4.075-5.961-5.594-5.092-3.249-7.938-9.09-9.556-14.9C13,90.818,13.673,78.409,18.942,68.041s15.34-18.42,26.831-20.3c5.636-.918,12.141-.064,15.785,4.337a14.353,14.353,0,0,1,9.923,1.956Z" transform="translate(0 -13.931)" fill="#c1260b"/>
          <path id="Path_822105" data-name="Path 822105" d="M79.16,53.96c12.105,7.169,13.617,19.119,11.887,31.973a68.226,68.226,0,0,1-5.283,18.624c-2.5,5.608-6.816,9.987-9.506,15.3,3.7-7.3,7.508-15.107,6.773-23.265a78.635,78.635,0,0,1-18.97,33.477c7.2-12.727,14.648-26.831,12.028-41.218A102.7,102.7,0,0,1,51.17,140.492a59.856,59.856,0,0,0,16.781-38.16c.572-10.354-1.575-20.863.459-31.034-5.495,11.519-3.687,25.059-5.947,37.623a58.236,58.236,0,0,1-6.681,18.434c-5.65,9.937-15.376,18.6-26.8,18.907a43.067,43.067,0,0,0,27.6-37.4c-2.839,4.894-4.336,10.439-6.7,15.573s-5.933,10.135-11.209,12.169a44.148,44.148,0,0,0,10.516-31.775c-.869-11.7-6.392-23.611-2.571-34.692a54.114,54.114,0,0,0-4.153,26.295c.777,8.327,3.475,16.739,1.582,24.882a22.905,22.905,0,0,1-9.761,13.892c5.65-3.913,7.232-11.724,6.314-18.533s-3.814-13.193-5.255-19.917a48.01,48.01,0,0,1,9.648-39.827,44.737,44.737,0,0,0-6.7,59.362c-8.631-7.155-12.861-18.872-12.049-30.059s6.3-21.732,14.069-29.812c3.962-4.118,9.386-8.581,15.312-9.2a20.331,20.331,0,0,1,7.395.862c1.088.332,5.876,3.969,6.208,3.92a14.353,14.353,0,0,1,9.923,1.956Z" transform="translate(-7.678 -13.856)" fill="#e24b40"/>
          <g id="Group_1073522" data-name="Group 1073522" transform="translate(54.914)">
            <path id="Path_822106" data-name="Path 822106" d="M148.745,80.833c3-6.222,1.886-12.967,1.123-19.62-1.745-15.213,2.684-34.72-13.921-43.252a34.126,34.126,0,0,0-11.83-3.263c-9.634-1.095-20.03.523-27.5,6.717s-10.9,17.678-6.032,26.061c-.593-2.013-2.634-3.2-4.668-3.708a6.174,6.174,0,0,0-5.791,1.617,9.235,9.235,0,0,0-2.267,5.149c-.953,6.017,4.259,23.229,13.49,18.194-1.547.84,3.044,11,3.7,12.183A22.173,22.173,0,0,0,109.7,92.3c12.31,3.143,31.45,1.956,38.471-10.354.212-.367.4-.735.579-1.1Z" transform="translate(-77.752 -4.229)" fill="#ffb5a6"/>
            <path id="Path_822107" data-name="Path 822107" d="M145.4,79.228a30.285,30.285,0,0,0,1.448-11.251c-.29-6.187-1.857-12.211-2.281-18.335-.445-6.462-3.178-13.419-5.8-19.267-3.206-7.133-8.475-14.7-16.788-15.955-8.5-1.278-18.759,1.434-25.355,6.907-7.458,6.194-10.9,17.678-6.032,26.061-.593-2.013-2.634-3.2-4.668-3.708A6.174,6.174,0,0,0,80.131,45.3a9.235,9.235,0,0,0-2.267,5.149c-.953,6.017,4.259,23.229,13.49,18.194-1.547.84,3.044,11,3.7,12.183A22.173,22.173,0,0,0,109.7,92.209c11.35,2.9,26.768,2.472,33.668-8.666A21.884,21.884,0,0,0,145.4,79.228Z" transform="translate(-77.752 -4.149)" fill="#ffb5a6" opacity="0.22"/>
            <path id="Path_822108" data-name="Path 822108" d="M123.859,94.3c-1.356-.085-2.712-.233-4.054-.431a22.034,22.034,0,0,1-7.126-2.521c-6.272-3.44-10.481-9.853-12.748-16.64-4-11.971-5.113-27.022-2.281-39.318,1.342-5.813,3.771-11.71,8.532-15.3C92.274,17.253,84.739,39,90.6,49.078c-.593-2.013-2.634-3.2-4.668-3.708a6.174,6.174,0,0,0-5.791,1.617,9.235,9.235,0,0,0-2.267,5.149c-.953,6.017,4.259,23.229,13.49,18.194-1.547.84,3.044,11,3.7,12.183a23.351,23.351,0,0,0,16.774,11.943c5.3.791,10.778,1.335,15.955-.057a13.789,13.789,0,0,1-3.92-.085Z" transform="translate(-77.755 -5.831)" fill="#ffb5a6" opacity="0.49"/>
            <g id="Group_1073521" data-name="Group 1073521" transform="translate(2.28 35.399)">
              <g id="Group_1073518" data-name="Group 1073518" transform="translate(47.05 14.438)">
                <path id="Path_822109" data-name="Path 822109" d="M147.818,70.57a29.533,29.533,0,0,0,5.438,12.607,9.593,9.593,0,0,0,3.228,2.726l2.338,1.1a28.094,28.094,0,0,1-4.372,1.045,10.811,10.811,0,0,1-5.784-.89,22.085,22.085,0,0,0,3.729-.3,16.938,16.938,0,0,0,3.44-.975l-.049,1.773c-5.94-2.373-9.076-11.159-7.967-17.085h0Z" transform="translate(-147.598 -70.57)" fill="#f2785f"/>
              </g>
              <g id="Group_1073519" data-name="Group 1073519" transform="translate(38.308 38.105)">
                <path id="Path_822110" data-name="Path 822110" d="M135.227,104.85a47.518,47.518,0,0,1,9.718,4.111,1.2,1.2,0,0,0-.692.056c1.653-1.229,4.04-3.9,6.674-4.937-.833,3.355-3.538,11.11-8.122,8.525a16.207,16.207,0,0,1-7.585-7.755h0Z" transform="translate(-135.22 -104.08)" fill="#e24b40"/>
              </g>
              <path id="Path_822111" data-name="Path 822111" d="M124.2,54.689c-4.012-3.694-5.565-3.072-9.379.388-1,.9-1.956,1.879-3,2.9,1.229-6.469,9.612-12.014,12.388-3.291h0Z" transform="translate(-90.039 -50.146)" fill="#e24b40"/>
              <path id="Path_822112" data-name="Path 822112" d="M157.47,54.4c.946-8,9.386-3.256,10.389,2.076a39.058,39.058,0,0,0-5.53-3.9c-2.048-1.328-3.334.261-4.859,1.822Z" transform="translate(-103.447 -50.128)" fill="#e24b40"/>
              <path id="Path_822113" data-name="Path 822113" d="M125.345,71.139c0,2.394-.671,4.329-1.5,4.329s-1.5-1.942-1.5-4.329.671-4.329,1.5-4.329S125.345,68.752,125.345,71.139Z" transform="translate(-93.132 -55.028)" fill="#222221"/>
              <path id="Path_822114" data-name="Path 822114" d="M165.554,69.956c0,2.2-.614,3.976-1.377,3.976s-1.377-1.78-1.377-3.976.614-3.976,1.377-3.976S165.554,67.76,165.554,69.956Z" transform="translate(-105.013 -54.784)" fill="#222221"/>
              <path id="Path_822115" data-name="Path 822115" d="M125.825,86.5c0,2.175-4.012,3.934-8.963,3.934S107.9,88.672,107.9,86.5s4.012-3.934,8.963-3.934S125.825,84.336,125.825,86.5Z" transform="translate(-88.887 -59.657)" fill="#ffb5a6"/>
              <path id="Path_822116" data-name="Path 822116" d="M173.179,82.088c.388,2.338-2.345,4.739-6.109,5.368s-7.126-.763-7.515-3.1,2.345-4.739,6.109-5.368S172.79,79.75,173.179,82.088Z" transform="translate(-104.049 -58.56)" fill="#ffb5a6"/>
              <g id="Group_1073520" data-name="Group 1073520" transform="translate(0 8.362)">
                <path id="Path_822117" data-name="Path 822117" d="M80.987,62.923c1.787-2.832,5.544,1.377,6.752,3a15.515,15.515,0,0,1,2.924,7.818L91.27,80.7l-2.564-6.434c-.431-1.144-1.271-2.783-2.387-1.8-1.123,1.13-.812,3.143-.685,4.7-.9-1.688-1.653-3.75-.459-5.608a2.538,2.538,0,0,1,3.461-.643,5.425,5.425,0,0,1,1.942,2.528l-1.956.523a19.514,19.514,0,0,0-2.415-7.034c-.918-1.405-3.206-5.735-5.226-4h0Z" transform="translate(-80.98 -61.967)" fill="#ffb5a6"/>
              </g>
            </g>
            <path id="Path_822118" data-name="Path 822118" d="M92.04,43.3l.064.106c2.112,3.574,2.754,8.348,3.136,12.445a69.99,69.99,0,0,0-.233-11.018,1.586,1.586,0,0,0,1.857,1.243,2.163,2.163,0,0,0,1.6-1.737,3.419,3.419,0,0,0-.537-2.387c1.081.275,1.561-.516,2.592-.932a84.4,84.4,0,0,0,33.244-24.479c-2.232,6.71-7.628,11.752-12.734,16.35,3.143-2.832,7.536-4.174,10.693-7.366,2.514-2.543,6.971-6.964,7.741-10.58.685-3.214-2.394-7.2-4.64-9.182a22.664,22.664,0,0,0-9.16-4.654C111.434-2.744,95.02,3.838,87.428,16.48A31.576,31.576,0,0,0,83.8,39.646c-.17-.727,4.322.071,4.683.226A7.811,7.811,0,0,1,92.04,43.3Z" transform="translate(-79.293 -0.008)" fill="#e24b40"/>
            <path id="Path_822119" data-name="Path 822119" d="M96.28,40.789a108.539,108.539,0,0,0,20.588-10.114,107.364,107.364,0,0,0,9.379-6.625c2.31-1.822,5.693-6.152,8.355-6.844a12.092,12.092,0,0,1-1.858,5.325,54.287,54.287,0,0,1-4.831,5.926c1.292-.918,2.6-1.829,3.807-2.86a23.974,23.974,0,0,0,7.034-10.46c1.441-4.266,1.215-6.349-2.218-9.393a22.663,22.663,0,0,0-9.16-4.654c-10.961-2.966-20.15.275-27.869,8.348C92.3,16.981,90.46,25.1,88.85,34.956A37.248,37.248,0,0,1,115.5,5.666c-7.656,5.813-15.6,11.978-19.634,20.7A43.1,43.1,0,0,1,117.779,9.057,51.5,51.5,0,0,0,93.561,36.94c6.272-14.288,20.15-24.275,35.123-28.646-2.154.629-5.622,5.961-7.282,7.635A82.2,82.2,0,0,1,113.993,22c-6.272,5.057-12.268,10.5-18.391,15.743,2.154-1.843,5.883-2.867,8.369-4.344a84.111,84.111,0,0,0,8.27-5.6c4.753-3.658,10.8-6.9,14.295-11.837A68.344,68.344,0,0,1,96.28,40.789Z" transform="translate(-81.012 -0.007)" fill="#e24b40" opacity="0.33"/>
            <path id="Path_822120" data-name="Path 822120" d="M167.333,39.13l-.36-4.45a42.861,42.861,0,0,1,5.255,15.192c.318,1.992.516,3.277,2.79,3.948a3.7,3.7,0,0,0,3.256-.325,7.632,7.632,0,0,0,1.2-1.879c-1.928.353-4.315.516-5.424-1.095-.855-1.243-.445-2.966.3-4.273a26.069,26.069,0,0,0,2.324-3.863c1.137-3.15-.77-6.561-2.931-9.118,1.208.614,2.408,1.229,3.616,1.836.184-9.132-7.155-17.812-16.188-19.154-.078,2.98-2.465,5.156-3.5,7.84-.918,2.38.678,2.86,2.479,4.294a19.851,19.851,0,0,1,7.169,11.053Z" transform="translate(-101.15 -4.69)" fill="#e24b40"/>
            <path id="Path_822121" data-name="Path 822121" d="M170.259,38.8a31.084,31.084,0,0,1,1.25,4.216,108.577,108.577,0,0,0-4.675-15.277,22.988,22.988,0,0,1,4.1,8.461,24.89,24.89,0,0,0-6.717-15.051,9.007,9.007,0,0,1,5.029,5.664c-1.229-4.181-3.122-7.939-8.242-8.249.3.021-3.15,5.615-3.3,6-.961,2.458.911,2.754,2.592,3.609a10.784,10.784,0,0,1,4.781,5.149,12.66,12.66,0,0,0-2.26-4.9c-.565-.876-1.137-1.744-1.7-2.62a31.675,31.675,0,0,1,9.153,13.01Z" transform="translate(-101.158 -5.46)" fill="#e24b40" opacity="0.44"/>
          </g>
          <path id="Path_822122" data-name="Path 822122" d="M234.17,246.321c.975-.494,1.949-1.01,2.917-1.533a155.877,155.877,0,0,0,38.322-29.8c3.185-3.334,6.328-6.914,7.811-11.279-.3.883-7.5,3.433-8.5,3.849a37.814,37.814,0,0,1-11.1,3.1,22.743,22.743,0,0,0-3.793.487,17.99,17.99,0,0,0-4.04,1.935,83.338,83.338,0,0,1-20.058,7.663c-3.355,1-6.957,2.437-10.467,2.691-3.786.275-6.766-1.5-10.135-3.016a2.785,2.785,0,0,0-1.448-.353c-1.243.163-1.617,1.759-1.688,3.009-1.13-1.123-1.476-2.8-1.815-4.358-2.38-10.94-8.016-19.867-12.014-30.2-4.661-12.063-9.478-24.07-14.846-35.836-1.271-2.79-2.641-5.657-4.972-7.642a21.544,21.544,0,0,0-6.335-3.319q-12.49-4.863-24.988-9.732c4.69,5,11.124,9.478,13.151,16.23,1.427,4.746-.791,9.436-1.54,14.1-.445,2.776.318,5.587,1.1,8.285,4.986,17.092,12.579,32.87,18.568,49.538,2.543,7.07,6.731,13.334,10.636,19.7,3.63,5.919,5.911,12.473,13.525,13.892,11.555,2.154,21.577-2.253,31.7-7.416Z" transform="translate(-43.187 -38.774)" fill="#144d66"/>
          <path id="Path_822123" data-name="Path 822123" d="M233.893,242.7c4.923-2.493,9.74-5.191,14.45-7.762a125.573,125.573,0,0,0,28.915-21.725c1.335-1.349,2.571-2.776,2.536-4.739-3.906-1.109-10.269,3.291-14.549,3.7a22.746,22.746,0,0,0-3.793.487,17.993,17.993,0,0,0-4.04,1.935,83.34,83.34,0,0,1-20.058,7.663c-6.618,1.985-15.2,2.712-19.373,8.892a23.571,23.571,0,0,0-3.489,10.658,16.857,16.857,0,0,1-.417-10.191q-2.119,4.121-4.238,8.235a4.535,4.535,0,0,1-1.42,1.857,12.491,12.491,0,0,1,.742-8.68c.9-1.886,2.267-3.531,3.03-5.474,3.856-9.8-7.381-24.762-11.569-32.828-2.867-5.523-6.363-10.983-8.906-16.633-2.161-4.8-5.445-11.456-5.926-16.71-.092-.975-.113-2.076-.848-2.726a3.6,3.6,0,0,1-2.02,2.995,14.931,14.931,0,0,0-4.951-12.176c-3.609-3.164-8.694-5.594-12.755-8.129-3.757-2.345-9.076-1.441-12.635-4.238,4.174,3.284,7.684,7.465,9.231,12.614,1.427,4.746-.791,9.436-1.54,14.1-.445,2.776.318,5.587,1.1,8.285,6.2,21.259,16.866,39.424,28.533,58.091a116.735,116.735,0,0,0,12.522,16.986,13.41,13.41,0,0,0,4.2,3.447c2.889,1.3,6.251.551,9.273-.381a115.735,115.735,0,0,0,18-7.564Z" transform="translate(-44.817 -40.278)" fill="#474746" opacity="0.3"/>
          <path id="Path_822124" data-name="Path 822124" d="M313.295,247.87a2.265,2.265,0,0,0,1.384.579c3.779.4,6.074.141,9.09-2.366A37.157,37.157,0,0,0,334.808,231.4a20.349,20.349,0,0,1-13.857,5.078,1.732,1.732,0,0,0-1.307.311,1.862,1.862,0,0,0-.374.89c-.77,3.185-3.489,6.667-5.728,8.977a1.281,1.281,0,0,0-.41.614.667.667,0,0,0,.17.614Z" transform="translate(-91.97 -67.974)" fill="#fff"/>
          <path id="Path_822125" data-name="Path 822125" d="M87.7,258.373c-1.278,3.659-1.886,7.7-3.616,11.1-1.307,2.571-3.56,4.393-4.591,7.169.191-.516,20.877.734,22.947.706,8.073-.106,16.138-.523,24.19-1.066,15.5-1.052,30.984.791,46.586-.692q-.456-2.341-.9-4.69-2.087-10.8-4.174-21.6c-1.6-8.285-3.383-17.226-1.222-25.581,1.469-5.657,3.835-11.131,5.467-16.823,1.172-4.1,2.359-8.263,2.423-12.536.113-7.776-3.531-15.157-8.122-21.428-5.558-7.6-12.769-13.942-17.353-22.226-2.317-4.188-5.248-12.374-10.827-12.854a7.345,7.345,0,0,1-1.759-.2,8.453,8.453,0,0,1-1.78-1.158c-2.394-1.6-5.784-1.646-8.4-2.966A50.388,50.388,0,0,1,117.71,128a3.211,3.211,0,0,0-1.879-.925,3.015,3.015,0,0,0-1.5.572c-5.693,3.4-11.6,6-17.261,9.295q-6.3,3.666-12.607,7.324c-7.268,4.224-14.359,6.844-18.314,14.26-2.945,5.523-3.108,12.091-2.663,18.335a71.655,71.655,0,0,0,3.171,17.4c2.225,6.759,5.77,12.988,9.295,19.168q7.744,13.592,15.5,27.191a9.336,9.336,0,0,0-4.732,2.8c2.408.939,3.637,3.757,3.567,6.342-.212,8.278-3.842,17.007-10.227,22.354,16,5.728,33.167,7.091,50.1,8.412a15.526,15.526,0,0,0,5.572-.24,10.521,10.521,0,0,0,6.208-5.834,31.017,31.017,0,0,0,2.182-8.468" transform="translate(-18.592 -37.329)" fill="#144d66"/>
          <path id="Path_822126" data-name="Path 822126" d="M87.033,259.9c-2.288,5.537-5.325,13.045-5.29,17.946a389.828,389.828,0,0,0,78.763-.141,6.371,6.371,0,0,0,2.43-.593c1.13-.614,5.113-5.452,5.5-6.745a6.044,6.044,0,0,0-.219-3.178,130.878,130.878,0,0,1-3.63-38.718,269.484,269.484,0,0,0,.636-27.545c-.311-6.752-.29-13.836-2.705-20.213s-6.046-12.169-9.076-18.243c-4.054-8.129-4.435-19.571-13.073-24.649a34.692,34.692,0,0,0-7.635-2.98c-5.7-1.716-10.255-3.065-15.015-6.865a3.211,3.211,0,0,0-1.879-.925,3.015,3.015,0,0,0-1.5.572c-5.693,3.4-11.6,6-17.261,9.295q-6.3,3.666-12.607,7.324c-7.268,4.223-14.359,6.844-18.314,14.26-2.945,5.523-3.108,12.091-2.663,18.335a71.657,71.657,0,0,0,3.171,17.4c2.225,6.759,5.77,12.988,9.295,19.168Q83.7,227,91.454,240.6a9.336,9.336,0,0,0-4.732,2.8c2.408.939,3.637,3.757,3.567,6.342s-1.144,5.015-2.119,7.409c-2.246,5.53-3.983,11.152-5.721,16.908A120.833,120.833,0,0,0,139.1,278.4c3.305-.537,6.943-1.441,8.793-4.231" transform="translate(-18.595 -37.323)" fill="#474746" opacity="0.11"/>
          <path id="Path_822127" data-name="Path 822127" d="M144.342,138.848c-1.215,3.425-1.194,6.879-3.468,9.944a10.5,10.5,0,0,1-7.677,4.372,15.01,15.01,0,0,1-4.224-.544,22.167,22.167,0,0,1-9.125-4.061,84.788,84.788,0,0,1-7.169-6.335,1.287,1.287,0,0,1-.367-.565c-.106-.466.3-.883.643-1.208a15.559,15.559,0,0,0,4.767-11.053c-.064-2.006,0-4.1-.855-5.968a99.355,99.355,0,0,0,10.375,1.646,27.248,27.248,0,0,0,10.177.035c-.374,3.206-.332,7.077,1.059,10.05,1.1,2.352,3.439,4.584,6.229,4.259" transform="translate(-32.984 -36.26)" fill="#f49f90"/>
          <path id="Path_822128" data-name="Path 822128" d="M133.187,153.164a15.01,15.01,0,0,1-4.223-.544,22.168,22.168,0,0,1-9.125-4.061,84.788,84.788,0,0,1-7.169-6.335,1.288,1.288,0,0,1-.367-.565c-.106-.466.3-.883.643-1.208a15.559,15.559,0,0,0,4.767-11.053c-.064-2.006,0-4.1-.855-5.968.254.558,3.948.784,4.591.876,1.631.233,3.27.41,4.909.636a53.048,53.048,0,0,0,9.4.65,15.73,15.73,0,0,0,2.232,10.432c1.095,1.744,2.564,3.341,3.009,5.354a8.341,8.341,0,0,1-.621,4.789,34.466,34.466,0,0,0-.9,3.5c-.727,2.613-3.941,3.383-6.286,3.5Z" transform="translate(-32.981 -36.26)" fill="#f49f90" opacity="0.27"/>
          <path id="Path_822129" data-name="Path 822129" d="M150.236,226.831a2.865,2.865,0,0,1-1.646.12,3.474,3.474,0,0,1-1.822-1.794c-2.818-4.916-3.588-10.933-5.113-16.364-1.667-5.926-2.168-12.459-4.033-18.229-2.1-6.5-6.5-12.953-9.563-19.062a5.257,5.257,0,0,1-.819-3.432c.388-1.667,2.211-2.507,3.828-3.079q8.03-2.882,16.28-5.142a3.785,3.785,0,0,1,2.875-.007c.975.565,1.243,1.822,1.42,2.931q4.142,26.708,8.278,53.422c.339,2.2.812,4.817-.805,6.54-1.773,1.886-5.933,2.995-8.306,3.9-.184.071-.374.141-.565.2Z" transform="translate(-37.353 -46.87)" fill="#c7c8c9"/>
          <path id="Path_822130" data-name="Path 822130" d="M157.313,224.409a2.865,2.865,0,0,1-1.646.12,3.474,3.474,0,0,1-1.822-1.794c-2.818-4.916-3.588-10.933-5.113-16.364a155.335,155.335,0,0,1-5.184-31.161,1.208,1.208,0,0,0-.3-.869,1.4,1.4,0,0,0-.593-.219,7.849,7.849,0,0,1-4.464-2.973,5.158,5.158,0,0,1-1.01-1.85c-1.236-4.937,11.413-9.669,13.25-3.637.9,2.973-.042,5.735-1.787,8.228-.275.4,5.834,9.174,6.413,10.191q3.252,5.71,5.954,11.71,2.585,5.742,4.64,11.7c.883,2.557,3.68,8.242,2.995,10.947a2.049,2.049,0,0,1-1.088,1.116,64.751,64.751,0,0,1-9.7,4.647c-.184.071-.374.141-.565.2Z" transform="translate(-40.27 -47.832)" fill="#222221"/>
          <path id="Path_822131" data-name="Path 822131" d="M143.892,235.173a77.591,77.591,0,0,1,1.646,9.323c1,8.913,1.518,17.7,1.667,26.662.12,7.352-5.255,8.92-12.091,8.92a219.046,219.046,0,0,1-30.412-2.126c-5.643-.791-14.351-.756-19.38-3.461a1.678,1.678,0,0,1-.9-.883,1.848,1.848,0,0,1,.155-1.172c1.42-3.814,3.256-7.472,4.4-11.371,5.77-19.67-9.513-36.712-17.607-53.246-5.431-11.1-9.725-22.912-10.538-35.335-.4-6.152.226-12.791,4.1-17.593,2.225-2.762,5.318-4.654,8.341-6.491,9.683-5.876,20.623-11,29.423-18.01-1.646,1.307.141,10,.551,11.781a102.426,102.426,0,0,0,4.315,13.575,243.223,243.223,0,0,0,12.162,26.061c8.821,16.887,19.7,34.579,24.169,53.359Z" transform="translate(-17.837 -38.304)" fill="#144d66"/>
          <path id="Path_822132" data-name="Path 822132" d="M144.724,235.243a26.676,26.676,0,0,1-3.927,17.8,8.846,8.846,0,0,0,4.174-3.708c-.925,1.617-1,4.061-1.956,5.834.268-.035.77-.085,1.172-.155,1.737-.311,2.274,17.367-.8,19.246a11.578,11.578,0,0,1-4.88,1.342c-12.084,1.314-24.26-.706-36.246-2.719q-8.931-1.494-17.869-2.995c3.906-5.46,6.1-12.19,9.944-17.5,3.461-4.781,6.286-.452,10.276,1.5,3.828,1.872,8,3.129,12.3,2.543,2.041-.276,4.132-.953,6.123-.4-10.262.226-21.2-2.246-28.3-9.655a45.361,45.361,0,0,0,22.3,2.048,96.565,96.565,0,0,1-17.325-4.153q4.269-.593,8.546-1.179c-3.814-1.406-7.931-1.921-11.668-3.524-9.626-4.125-14.775-19.952-18.865-28.752-5.544-11.922-10.128-24.472-11.47-37.63-.939-9.174-.593-21.336,8.758-25.511a137.752,137.752,0,0,0,29.2-17.275c-1.646,1.307.141,10,.551,11.781a102.427,102.427,0,0,0,4.315,13.575,243.225,243.225,0,0,0,12.162,26.061c6.145,11.759,12.889,23.229,18.095,35.448,2.5,5.869,4.725,11.929,5.382,17.982Z" transform="translate(-19.36 -38.304)" fill="#474746" opacity="0.11"/>
          <path id="Path_822133" data-name="Path 822133" d="M167.542,229.493c-.367-10.919-3.122-22.318-5.551-32.919a113.441,113.441,0,0,0-12.663-31.966,4.009,4.009,0,0,1-.749-2.112,4.518,4.518,0,0,1,.7-1.815c3.68-6.865,1.307-15.2.388-22.933-.537-4.506,5.735,1.215,6.865,2.048l8.793,6.462a4.382,4.382,0,0,1,1.533,1.6c.643,1.469-.473,3.065-1.518,4.28q-3.221,3.75-6.441,7.494c4.231,2.613,7.176,4.619,11.4,7.239a6.606,6.606,0,0,1,2.995,2.91,6.527,6.527,0,0,1,.24,2.67,531,531,0,0,1-6,57.046Z" transform="translate(-43.641 -39.963)" fill="#474746" opacity="0.3"/>
          <path id="Path_822134" data-name="Path 822134" d="M134.61,188.122a40.72,40.72,0,0,0-1.942-4.951c.65.17,1.3.346,1.949.516-2.514-7.338-7.705-13.391-12.784-19.253,4.231,2.084,7.3,6.95,12.021,7.02-8.758-9.316-16.167-20.058-19.924-32.277-.918-2.995-.953-8.4-4.019-4.054-4.555,6.455-7.409,15.291-10.142,22.65q8.73,2.966,17.452,5.926a1.69,1.69,0,0,1,1.194,2.762q-2.871,6.886-5.742,13.765a4.238,4.238,0,0,0-.48,2.465,4.094,4.094,0,0,0,.869,1.568,137.236,137.236,0,0,0,16.025,17.494c1.314,1.208,7.43,7.691,8.814,4.866a4.268,4.268,0,0,0,.219-2.274,71.57,71.57,0,0,0-3.517-16.23Z" transform="translate(-29.305 -39.217)" fill="#474746" opacity="0.3"/>
          <g id="Group_1073523" data-name="Group 1073523" transform="translate(39.968 88.323)">
            <path id="Path_822135" data-name="Path 822135" d="M282.162,171.218c-1.575,3.418-.876,11.5-6.731,9.16a12.312,12.312,0,0,1-3.581-2.543q-1.79-1.621-3.581-3.235c4.16-2.528,10.269-6.5,10.552-11.908a5.288,5.288,0,0,1,.473-2.832,2.031,2.031,0,0,1,.89-.706c1.413-.579,3.058.53,3.623,1.949a8.767,8.767,0,0,1,.113,4.527,16.972,16.972,0,0,1-.791,3.51c-.268.713-.636,1.384-.953,2.069Z" transform="translate(-118.766 -135.03)" fill="#e5a398"/>
            <rect id="Rectangle_377737" data-name="Rectangle 377737" width="4.372" height="45.837" rx="2.05" transform="translate(143.691 2.186) rotate(-30)" fill="#394700"/>
            <path id="Path_822136" data-name="Path 822136" d="M264.666,185.062c1.229-.523,1.236-2.239,1.031-3.56-.3-1.928-.586-3.863-.883-5.791a2.274,2.274,0,0,0-2.26-2.288q-5.318-1.292-10.651-2.521c.2-.614.318-.268.862-.622,5.036-3.27,11.442-5.912,17.53-5.919a5.4,5.4,0,0,0,2.26-.29c2.048-.953.749-3.312-.784-3.913a7.432,7.432,0,0,0-2.818-.36,43.843,43.843,0,0,0-24.352,7.9c-1.292.925-3.291,1.7-4.167,3-1.095,1.617-.763,5.106-.939,6.985-.4,4.4-1,9.2-1.1,13.518a73.844,73.844,0,0,1-10,5.283c-2.585,1.123-6.314,1.271-6.477,4.591a31.388,31.388,0,0,0,4.866,18.292c6.441-6.547,12.791-13.278,19.557-19.43,5.876-5.346,10.792-11.689,18.321-14.874Z" transform="translate(-105.14 -135.265)" fill="#ffb5a6"/>
            <path id="Path_822137" data-name="Path 822137" d="M264.031,184.591a2.133,2.133,0,0,0,.8-2.776,3.061,3.061,0,0,0-1.561-1.01,37.39,37.39,0,0,0-16.611-2.218c5.332-1.893,11.3-.932,16.59,1.066a1.589,1.589,0,0,0,1.285.106,1.246,1.246,0,0,0,.487-.572,3.66,3.66,0,0,0-.417-3.39c-1.172-1.787-3.545-1.978-5.452-2.437q-3.538-.848-7.091-1.66c-.134-.028,1.116-.819,1.172-.855.89-.537,1.829-1.024,2.747-1.511a48.066,48.066,0,0,1,5.82-2.67,24.772,24.772,0,0,1,9.634-1.7,2.664,2.664,0,0,0,.918-.056c.819-.254.7-1.25.233-1.787a2.741,2.741,0,0,0-2.154-.629c-6.434.184-12.416,2.027-18.356,4.322-3.623,1.4-9.761,3.658-10.756,7.946-1.328,5.707-.982,12.374-1.568,18.236a3.57,3.57,0,0,1-.4,1.6,3.533,3.533,0,0,1-1.067.975,105.364,105.364,0,0,1-12.331,7.275c-3.369,1.7-4.04,3.242-3.277,6.766a32.085,32.085,0,0,0,4.259,10.523c6.441-6.547,12.791-13.278,19.557-19.43,4.541-4.132,8.814-8.539,13.454-12.536a1.561,1.561,0,0,0,.509-.65c.24-.777-.7-1.377-1.483-1.6a15.635,15.635,0,0,0-10.3.664,8.332,8.332,0,0,1,5.594-2.1,38.315,38.315,0,0,1,6.081.551,5.842,5.842,0,0,0,3.432-.318,1.688,1.688,0,0,0,.24-.148Z" transform="translate(-105.289 -136.057)" fill="#ffb5a6" opacity="0.64"/>
            <path id="Path_822138" data-name="Path 822138" d="M237.336,203.764q3.517,6.653,7.034,13.3-7.066,6.886-14.57,13.3c-.487-.148-.664-.727-.77-1.229-.876-4.2-4.577-12.946-3.581-17.071.41-1.688,11.738-8.581,11.88-8.306Z" transform="translate(-106.139 -148.175)" fill="#fff"/>
            <path id="Path_822139" data-name="Path 822139" d="M175.736,191.381a15.6,15.6,0,0,1,2.988-1.808,4.82,4.82,0,0,1,5.064.473c-.629.212-.72,1.059-.664,1.723.622,6.858,5.015,12.713,9.238,18.151-8.419,8.228-19.055,14.7-28.83,21.216-9.817,6.519-20.927,11.491-31.415,16.972-2.331,1.215-4.838,2.465-7.451,2.182-3.129-.339-4.824-2.415-6.957-4.329-2.5-2.239-5.382-4.1-8.037-6.173A184.553,184.553,0,0,1,94.084,226.15a97.22,97.22,0,0,1-9.5-11.47c-1.836-2.437-3.983-4.7-5.954-7.02-.72-.848-4.082-5.94-5.036-5.94a62.9,62.9,0,0,0-5.714-6.159c-2.387-2.154-5.509-4.294-7.169-7.056a30.321,30.321,0,0,1-3.722-11.251,22.406,22.406,0,0,1-.092-7.07c1.2-6.851,8.292-15.241,15.46-16.237a1.047,1.047,0,0,0,.7-.268,1.436,1.436,0,0,0,.2-.516A2.291,2.291,0,0,1,75.3,151.7a5,5,0,0,1,2.564.629c1.8.869,3.44,2.126,5.163,3.122a24.328,24.328,0,0,1,5.53,4.6c3.729,4.012,6.484,8.807,9.436,13.426a166.643,166.643,0,0,0,15.587,20.644c5.685,6.434,12.572,11.759,17.247,18.935,1.5-1.123,4.252-.89,4.739,1.264a8.093,8.093,0,0,1,5.474-3.108,9.856,9.856,0,0,0,3.129-.473,6.612,6.612,0,0,0,1.483-1.059c4-3.376,8.8-4.972,13.144-7.621,3.623-2.2,7.338-4.252,11.046-6.307a55.893,55.893,0,0,0,5.9-4.358Z" transform="translate(-56.609 -132.882)" fill="#144d66"/>
            <path id="Path_822140" data-name="Path 822140" d="M181.106,202.877c1.73-.9,3.355-1.278,4.64-.614.9.466,6.823,10.29,6.978,10.163-9.393,7.479-19.211,14.422-29.211,21.061-9.817,6.519-20.927,11.491-31.415,16.972-2.331,1.215-4.838,2.465-7.451,2.182-3.129-.339-4.824-2.415-6.957-4.329-2.5-2.239-5.382-4.1-8.037-6.173A184.559,184.559,0,0,1,94.065,228.5a97.223,97.223,0,0,1-9.5-11.47c-1.836-2.437-3.983-4.7-5.954-7.02-.72-.848-4.075-5.94-5.036-5.94-1.893,0-4.789-4.972-5.693-6.335-2.069-3.129-5.092-4.711-7.338-7.614a13.123,13.123,0,0,1-1.907-4.1c-1.5-4.633-2.91-9.987-1.405-14.8a24.02,24.02,0,0,1,7.818-11.512c-.53.424,1.144,4.838,1.4,5.516a39.946,39.946,0,0,0,3.856,7.338c2.853,4.464,6.258,8.525,9.45,12.748a266.925,266.925,0,0,0,21,24.352c5.382,5.629,10.862,11.322,17.53,15.34.678.41,1.427.883,1.582,1.66a3,3,0,0,1-.417,1.744,18.709,18.709,0,0,0-.911,12.663,66.752,66.752,0,0,1,4.012-12.946,22.433,22.433,0,0,1,8.687-10.163,37.037,37.037,0,0,0-6.667,23.109,67.171,67.171,0,0,1,6.088-16.915c-.763,3.468-1.526,7.056-.876,10.552-1.674-9.069,12.324-9.464,17.388-11.194,8.617-2.938,16.5-7.684,23.914-12.9,2.281-1.6,6.385-5.841,10.036-7.748Z" transform="translate(-56.59 -135.239)" fill="#474746" opacity="0.3"/>
          </g>
          <g id="Group_1073524" data-name="Group 1073524" transform="translate(150.987 114.478)">
            <path id="Path_822141" data-name="Path 822141" d="M213.78,238.32l59.037-72.16,59.828,2.189-62.032,69.97Z" transform="translate(-213.78 -163.289)" fill="#cc8c2f"/>
            <path id="Path_822142" data-name="Path 822142" d="M213.78,268.33l1.6,3.892h56.841l-1.61-3.892Z" transform="translate(-213.78 -193.299)" fill="#ffb22d"/>
            <path id="Path_822143" data-name="Path 822143" d="M216.05,243.83l59.044-72.16,59.821,2.189-62.025,69.97Z" transform="translate(-214.447 -164.908)" fill="#ffca41"/>
            <path id="Path_822144" data-name="Path 822144" d="M267.31,243.032c.141-2.564,1.886-4.132,3.807-5.82,6.371-5.58,12.1-12.5,13.815-20.8,1.646-7.953-.48-16.725,3.129-24a25.391,25.391,0,0,1,6.081-7.444c16.64-14.832,35.243-11.322,55.831-10.573l-62.025,69.97c-7.07,0-13.73-.742-20.637-1.335Z" transform="translate(-229.503 -165.445)" fill="#ffba57" opacity="0.37"/>
            <path id="Path_822145" data-name="Path 822145" d="M297.37,166.16l1.61,3.892,59.821,2.189-1.6-3.892Z" transform="translate(-238.333 -163.289)" fill="#fff"/>
            <path id="Path_822146" data-name="Path 822146" d="M302.619,165.164a2.613,2.613,0,0,1,2.133-3.058c3.475-.24,5.813,3.75,5.226,6.872-.233,2.175-2.747,4.979-4.937,3.206A1.506,1.506,0,0,1,304.5,171c.7,1.66,2.726,1.158,3.454-.17a5.518,5.518,0,0,0-2.14-7.564,2.239,2.239,0,0,0-3.192,1.886h0Z" transform="translate(-239.852 -162.095)" fill="#222221"/>
            <path id="Path_822147" data-name="Path 822147" d="M313.669,165.174a2.613,2.613,0,0,1,2.133-3.058c3.475-.24,5.813,3.75,5.226,6.872-.233,2.175-2.747,4.979-4.937,3.206a1.506,1.506,0,0,1-.537-1.179c.7,1.66,2.726,1.158,3.454-.169a5.518,5.518,0,0,0-2.14-7.564,2.239,2.239,0,0,0-3.192,1.886h0Z" transform="translate(-243.098 -162.098)" fill="#222221"/>
            <path id="Path_822148" data-name="Path 822148" d="M325.359,165.914a2.613,2.613,0,0,1,2.133-3.058c3.475-.24,5.813,3.75,5.226,6.872-.233,2.175-2.747,4.979-4.937,3.206a1.506,1.506,0,0,1-.537-1.179c.7,1.66,2.726,1.158,3.454-.17a5.518,5.518,0,0,0-2.14-7.564,2.239,2.239,0,0,0-3.192,1.886h0Z" transform="translate(-246.532 -162.316)" fill="#222221"/>
            <path id="Path_822149" data-name="Path 822149" d="M336.769,166.2a2.613,2.613,0,0,1,2.133-3.058c3.475-.24,5.813,3.75,5.226,6.872-.233,2.175-2.747,4.979-4.937,3.206a1.506,1.506,0,0,1-.537-1.179c.7,1.66,2.726,1.158,3.454-.169a5.518,5.518,0,0,0-2.14-7.564,2.239,2.239,0,0,0-3.192,1.886h0Z" transform="translate(-249.883 -162.401)" fill="#222221"/>
            <path id="Path_822150" data-name="Path 822150" d="M348.489,166.234a2.613,2.613,0,0,1,2.133-3.058c3.475-.24,5.813,3.75,5.226,6.872-.233,2.175-2.747,4.979-4.937,3.206a1.506,1.506,0,0,1-.537-1.179c.7,1.66,2.726,1.158,3.454-.169a5.518,5.518,0,0,0-2.14-7.564,2.239,2.239,0,0,0-3.192,1.886h0Z" transform="translate(-253.326 -162.41)" fill="#222221"/>
            <path id="Path_822151" data-name="Path 822151" d="M359.609,165.634a2.613,2.613,0,0,1,2.133-3.058c3.475-.24,5.813,3.75,5.226,6.872-.233,2.175-2.747,4.979-4.937,3.206a1.506,1.506,0,0,1-.537-1.179c.7,1.66,2.726,1.158,3.454-.17a5.518,5.518,0,0,0-2.14-7.564,2.239,2.239,0,0,0-3.192,1.886h0Z" transform="translate(-256.592 -162.233)" fill="#222221"/>
            <path id="Path_822152" data-name="Path 822152" d="M371.629,166.664a2.613,2.613,0,0,1,2.133-3.058c3.475-.24,5.813,3.75,5.226,6.872-.233,2.175-2.747,4.979-4.937,3.206a1.506,1.506,0,0,1-.537-1.179c.7,1.66,2.726,1.158,3.454-.17a5.518,5.518,0,0,0-2.14-7.564,2.239,2.239,0,0,0-3.192,1.886h0Z" transform="translate(-260.122 -162.536)" fill="#222221"/>
            <path id="Path_822153" data-name="Path 822153" d="M272.817,166.16l1.61,3.892-59.044,72.16-1.6-3.892Z" transform="translate(-213.78 -163.289)" fill="#ffe8c0"/>
          </g>
          <path id="Path_822154" data-name="Path 822154" d="M330.557,222.386A7.568,7.568,0,0,0,332.916,218a2.391,2.391,0,0,0,2.543-.607,3.716,3.716,0,0,0,.946-2.536,1.405,1.405,0,0,1,.12-.727c.233-.374.756-.4,1.194-.466a3.122,3.122,0,0,0,2.154-4.315c2.182.134,3.793-2.352,3.56-4.527-.212-1.949-1.391-3.221-2.451-4.753-.819-1.187-1.328-2.507-2.076-3.771-.911-1.547-1.518-3.743-2.938-4.909a7.234,7.234,0,0,0-2.14-1.066c-1.229-.445-2.451-.89-3.68-1.328a14.5,14.5,0,0,0-3.249-.9,13.948,13.948,0,0,0-4.047.29c-1.5.261-5.121.127-5.283,2.175a1.878,1.878,0,0,0,.629,1.469,3.625,3.625,0,0,0,1.441.777,7.078,7.078,0,0,0,2.069.325,12.16,12.16,0,0,1,3.164.127c2.189.579,5.806,1,7.381,2.733a9.226,9.226,0,0,1,1.632,2.882c.353.883.671,1.78.961,2.691-1.427-1.914-3.475-2.818-5.4-4.125a10.684,10.684,0,0,0-2.076-1.194,9.112,9.112,0,0,0-2.083-.48,28.856,28.856,0,0,0-6.568-.438c-2.317.2-3.807,1.434-5.869,2.112a2.08,2.08,0,0,0-1.024.494,1.4,1.4,0,0,0-.049,1.384,2.963,2.963,0,0,0,.869,1.222,3.515,3.515,0,0,0,2.677.551c.925-.127,1.822-.445,2.747-.593a13.422,13.422,0,0,1,4.435.353c1.963.346,3.242.332,4.887,1.723a19.217,19.217,0,0,1,4.81,6.116,54.577,54.577,0,0,0-10.975-6.123,4.514,4.514,0,0,0-2.147-.473,4.622,4.622,0,0,0-1.561.572c-1.745.89-3.461,1.5-5.156,2.514a2.18,2.18,0,0,0-.968.883,1.579,1.579,0,0,0-.014,1.066c1.1,3.87,5.94.177,8.186.4,3.468.353,4.951,2.613,6.116,5.587-.388-.989-5.339-2.2-6.272-2.465-3.284-.932-6.759,1.865-9.464,3.383a.612.612,0,0,0-.276.24,1.3,1.3,0,0,0-.042.41c-.007.134-.1.3-.24.283.261.113.226.48.268.763a1.318,1.318,0,0,0,.826.961,3.117,3.117,0,0,0,1.3.17A9.789,9.789,0,0,0,317,215.1c.177-.127.4-.261.593-.148a.743.743,0,0,1,.2.24c.4.622,1.328.77,1.921,1.194.791.565,1.413,1.4,2.161,2.02a1.528,1.528,0,0,1,.629.855,1.492,1.492,0,0,1-.085.607c-.339,1.215-.756,2.38-1.179,3.574a11.19,11.19,0,0,0-.784,2.2c-.24,1.61,7.974-1.667,8.5-2.006a10.454,10.454,0,0,0,1.589-1.257Z" transform="translate(-90.877 -55.238)" fill="#f99585"/>
          <path id="Path_822155" data-name="Path 822155" d="M330.264,221.876a7.125,7.125,0,0,0,1.045-1.469c.459-.876.445-2.062,1.208-2.719.819-.7,1.759-.318,2.528-1.328a5.732,5.732,0,0,0,.819-2.79,4.083,4.083,0,0,0,3.567-4.654,4.525,4.525,0,0,0,3.009-3.051c.777-2.769-2.119-7.239-3.482-9.549-.911-1.547-1.518-3.743-2.938-4.909a7.234,7.234,0,0,0-2.14-1.066c-1.229-.445-2.451-.89-3.68-1.328a14.5,14.5,0,0,0-3.249-.9,13.949,13.949,0,0,0-4.047.29c-1.187.2-4.019-.057-4.746,1.151-1.307,2.168,5.558,2.684,6.851,2.818,2.3.24,4.732.65,6.42,2.218a9.281,9.281,0,0,1,1.321,1.6,14.37,14.37,0,0,1,1.914,3.27c.219.657,0,1.978.3,2.479-1.292-2.133-3.461-3.122-5.467-4.485a10.684,10.684,0,0,0-2.076-1.194,9.113,9.113,0,0,0-2.084-.48,28.856,28.856,0,0,0-6.568-.438c-2.317.2-3.807,1.434-5.869,2.112a2.08,2.08,0,0,0-1.024.494c-1.307,1.561,1.2,2.769,2.415,2.649a13.923,13.923,0,0,0,2.74-.784,12.039,12.039,0,0,1,9.57,1.066c2.733,1.6,5.248,4.676,5.615,7.9-3.044-2.705-7.2-4.633-10.933-6.18a4.514,4.514,0,0,0-2.147-.473,4.622,4.622,0,0,0-1.561.572c-1.745.89-3.461,1.5-5.156,2.514-1.186.706-1.6,2.528.162,2.91a4.255,4.255,0,0,0,2.253-.367,10.6,10.6,0,0,1,5.989-.763c2.451.614,4.824,3.256,4.859,5.806-2.048-.749-4.089-1.5-6.215-2.1-2.592-.735-5.12.8-7.268,2.055-.614.36-2.486,1.1-2.627,1.858-.29,1.6,1.5,1.624,2.472,1.194,1.78-.805,4.372-2.634,6.378-2.592,3.644.085,5.106,3.037,7.105,5.629a1.818,1.818,0,0,1,.374.65,1.861,1.861,0,0,1-.17,1.116,17.03,17.03,0,0,1-2.5,5,20.653,20.653,0,0,0,5.594-2.458,8.679,8.679,0,0,0,1.441-1.257Z" transform="translate(-90.922 -55.244)" fill="#f99585" opacity="0.31"/>
          <path id="Path_822156" data-name="Path 822156" d="M135.778,151.71c.2.318.4.636.579.968a7.178,7.178,0,0,1,1.151,3.87.622.622,0,0,1-.1.353c-.226.3-.685.071-.989-.148a4.5,4.5,0,0,0-3.736-.77c-4.7,1.3-2.875,10.587-1.54,13.688a8.475,8.475,0,0,1-2.091-3.115c-3.178-6.441-7.9-11.957-11.074-18.427-1.737-3.545-3.425-7.557-3.39-11.569.014-1.639.247-4.308,1.575-5.5,2.189-1.971,2.034.953,2.641,3.136a16.771,16.771,0,0,0,1.42,3.863c1.787,3.164,5.29,4.8,8.242,6.66a22.923,22.923,0,0,1,7.324,7.006Z" transform="translate(-33.658 -38.309)" fill="#fff"/>
          <path id="Path_822157" data-name="Path 822157" d="M156.97,160.59a31.929,31.929,0,0,0-.932-9.464c-1.448-5.693-1.462-14.005-6.773-17.664-1.045-.72-2.4-1.568-2.239-2.832-.5,1.963.162,4.012.332,6.032.283,3.27-.84,6.2-1.511,9.323a15.838,15.838,0,0,0-.085,6.618c.3,1.405.607,2.818.911,4.223-.092-.431,3.616-.508,3.962-.445,1.547.29,1.992.968,2.733,2.352.848,1.575,1.7,3.157,2.543,4.732.141.268.473.565.685.353a.454.454,0,0,0,.106-.29q.2-1.473.275-2.945Z" transform="translate(-42.723 -38.375)" fill="#fff"/>
        </g>
      </g>
    </g>
  </g>
</svg>
