<svg xmlns="http://www.w3.org/2000/svg" xmlns:xlink="http://www.w3.org/1999/xlink" width="190" height="190" viewBox="0 0 190 190">
  <defs>
    <clipPath id="clip-path">
      <rect id="Rectangle_377597" data-name="Rectangle 377597" width="190" height="190" fill="#fff" stroke="#707070" stroke-width="1"/>
    </clipPath>
    <clipPath id="clip-path-2">
      <rect id="Rectangle_377595" data-name="Rectangle 377595" width="171.352" height="164.139" fill="none"/>
    </clipPath>
  </defs>
  <g id="Mask_Group_350" data-name="Mask Group 350" clip-path="url(#clip-path)">
    <g id="Group_1073322" data-name="Group 1073322" transform="translate(9.824 13)">
      <g id="Group_1073321" data-name="Group 1073321" clip-path="url(#clip-path-2)">
        <path id="Path_820877" data-name="Path 820877" d="M62.3,4.945c-.893.151-1.771.324-2.656.507a70.094,70.094,0,0,0-50.647,103.6,72.75,72.75,0,0,0,18.036,23.233q-.742,10.6-1.435,21.2c-.085,1.28-.1,2.564-.151,4.128.627-.416.973-.612,1.282-.855,5.786-4.512,11.6-9,17.336-13.566A72.959,72.959,0,1,0,62.3,4.945" transform="translate(0.003 0.964)" fill="#ffd500"/>
        <path id="Path_820878" data-name="Path 820878" d="M90.364,156.011a81.541,81.541,0,0,1-30.943-6.7,4.784,4.784,0,0,0-4.777.213c-8.382,4.66-16.867,9.136-25.291,13.722-1.737.946-3.42,1.362-5.127.121-1.753-1.277-1.717-3.131-1.312-4.977.749-3.4,1.592-6.8,2.4-10.2,1.549-6.5,3.132-13,4.6-19.518a2.967,2.967,0,0,0-.544-2.178A76.434,76.434,0,0,1,13.7,91.75c-3.894-22.761,1.12-43.5,15.258-61.764A74.748,74.748,0,0,1,80.072.742c24.276-3.155,45.651,3.77,63.633,20.412A74.137,74.137,0,0,1,167.45,66.518c3.375,24.587-3.358,46.284-20.235,64.555A75.427,75.427,0,0,1,103.073,154.7c-4.193.7-8.47.891-12.709,1.316m-57.6-3.826c.689-.305,1.06-.441,1.407-.627,6.611-3.565,13.241-7.095,19.813-10.73a5.621,5.621,0,0,1,5.737-.184,68.348,68.348,0,0,0,25.213,6.913,70.037,70.037,0,0,0,33.45-5.516c28.46-12.087,46.1-42.835,41.426-73.344-4.273-27.9-19.94-47.072-46.57-56.88A65.676,65.676,0,0,0,80.544,8.65,69.87,69.87,0,0,0,37.105,123.033a4.762,4.762,0,0,1,1.457,4.416q-2.5,10.339-4.963,20.69c-.3,1.247-.523,2.512-.839,4.044" transform="translate(3.056 0)" fill="#264100"/>
        <path id="Path_820879" data-name="Path 820879" d="M78.141,25.859A11.849,11.849,0,0,1,85.3,28.595a6.232,6.232,0,0,1,2.442,5.325q-.882,19.243-1.793,38.485c-.273,5.78-.556,11.559-.8,17.339-.186,4.534-2.587,7.5-6.786,8.286A7.862,7.862,0,0,1,69.3,91.594a7.758,7.758,0,0,1-.106-1.033c-.459-9.379-.83-18.761-1.273-28.141q-.669-14.145-1.415-28.287a6.679,6.679,0,0,1,3.139-6.056,13.708,13.708,0,0,1,8.5-2.219" transform="translate(16.358 6.353)" fill="#264100"/>
        <path id="Path_820880" data-name="Path 820880" d="M76.743,86.476a8.493,8.493,0,1,1-8.555,8.463,8.494,8.494,0,0,1,8.555-8.463" transform="translate(16.774 21.273)" fill="#264100"/>
      </g>
    </g>
  </g>
</svg>
