<svg xmlns="http://www.w3.org/2000/svg" width="1200.512" height="602.02" viewBox="0 0 1200.512 602.02">
  <g id="Grupo_1076203" data-name="Grupo 1076203" transform="translate(-202.488 -494.226)">
    <text id="Es" transform="translate(226.488 738.632)" fill="#12263f" font-size="16" font-family="Roboto-Regular, Roboto"><tspan x="37.856" y="15">Es</tspan></text>
    <text id="Puede_ser" data-name="Puede ser" transform="translate(493.488 738.632)" fill="#12263f" font-size="16" font-family="Roboto-Regular, Roboto"><tspan x="0" y="15">Puede ser</tspan></text>
    <text id="Es-2" data-name="Es" transform="translate(752.002 737.492)" fill="#12263f" font-size="16" font-family="Roboto-Regular, Roboto"><tspan x="18.856" y="15">Es</tspan></text>
    <text id="Para" transform="translate(985.488 737.171)" fill="#12263f" font-size="16" font-family="Roboto-Regular, Roboto"><tspan x="11.271" y="15">Para</tspan></text>
    <text id="Son" transform="translate(1242 737.171)" fill="#12263f" font-size="16" font-family="Roboto-Regular, Roboto"><tspan x="13.806" y="15">Son</tspan></text>
    <text id="Teniendo_en_cuenta" data-name="Teniendo en cuenta" transform="translate(458.488 856.42)" fill="#12263f" font-size="16" font-family="Roboto-Regular, Roboto"><tspan x="-69.535" y="15">Teniendo en cuenta</tspan></text>
    <text id="Teniendo_en_cuenta_" data-name="Teniendo en cuenta                  " transform="translate(730.488 589.226)" fill="#12263f" font-size="16" font-family="Roboto-Regular, Roboto"><tspan x="0.465" y="15" xml:space="preserve">Teniendo en cuenta                  </tspan></text>
    <path id="Línea_1110" data-name="Línea 1110" d="M0,91.5A1.5,1.5,0,0,1-1.5,90V0A1.5,1.5,0,0,1,0-1.5,1.5,1.5,0,0,1,1.5,0V90A1.5,1.5,0,0,1,0,91.5Z" transform="translate(273.988 649.132)" fill="#615504"/>
    <path id="Línea_1200" data-name="Línea 1200" d="M0,91.5A1.5,1.5,0,0,1-1.5,90V0A1.5,1.5,0,0,1,0-1.5,1.5,1.5,0,0,1,1.5,0V90A1.5,1.5,0,0,1,0,91.5Z" transform="translate(537.988 649.132)" fill="#615504"/>
    <path id="Línea_1201" data-name="Línea 1201" d="M0,89.5A1.5,1.5,0,0,1-1.5,88V0A1.5,1.5,0,0,1,0-1.5,1.5,1.5,0,0,1,1.5,0V88A1.5,1.5,0,0,1,0,89.5Z" transform="translate(779.5 649.453)" fill="#615504"/>
    <path id="Línea_1227" data-name="Línea 1227" d="M0,89.5A1.5,1.5,0,0,1-1.5,88V0A1.5,1.5,0,0,1,0-1.5,1.5,1.5,0,0,1,1.5,0V88A1.5,1.5,0,0,1,0,89.5Z" transform="translate(1012.988 649.132)" fill="#615504"/>
    <path id="Línea_1228" data-name="Línea 1228" d="M0,89.5A1.5,1.5,0,0,1-1.5,88V0A1.5,1.5,0,0,1,0-1.5,1.5,1.5,0,0,1,1.5,0V88A1.5,1.5,0,0,1,0,89.5Z" transform="translate(1269.5 649.132)" fill="#615504"/>
    <path id="Unión_23" data-name="Unión 23" d="M12592.489,10104.868h0Zm-.422-141.572v0Zm.391,83.152h0Z" transform="translate(-12318.472 -9119.582)" fill="rgba(0,0,0,0)"/>
    <path id="Unión_23_-_Contorno" data-name="Unión 23 - Contorno" d="M12612.5,10106.368h-20.012a2.14,2.14,0,0,1-1.922-1.656V9963.3a1.5,1.5,0,0,1,3,0v81.652h18.934a1.5,1.5,0,0,1,0,3h-18.934v55.42h18.934a1.5,1.5,0,0,1,0,3Z" transform="translate(-12318.472 -9119.582)" fill="#615504"/>
    <path id="Unión_35" data-name="Unión 35" d="M12592.489,10104.867h0Zm-.424-141.572v0Zm.4,83.156h0Z" transform="translate(-11813.425 -9119.262)" fill="rgba(0,0,0,0)"/>
    <path id="Unión_35_-_Contorno" data-name="Unión 35 - Contorno" d="M12612.5,10106.367h-20.012a2.139,2.139,0,0,1-1.924-1.655V9963.295a1.5,1.5,0,0,1,3,0v81.656h18.936a1.5,1.5,0,0,1,0,3h-18.936v55.416h18.936a1.5,1.5,0,0,1,0,3Z" transform="translate(-11813.425 -9119.262)" fill="#615504"/>
    <path id="Unión_37" data-name="Unión 37" d="M12592.489,10165.565h0Zm-.424-202.271v0Zm.4,140.81h0Zm0-61h0Z" transform="translate(-11579.937 -9119.582)" fill="rgba(0,0,0,0)"/>
    <path id="Unión_37_-_Contorno" data-name="Unión 37 - Contorno" d="M12612.5,10167.065h-20.012a2.2,2.2,0,0,1-1.924-1.719V9963.295a1.5,1.5,0,0,1,3,0v78.307h18.936a1.5,1.5,0,0,1,0,3h-18.936v58h18.936a1.5,1.5,0,0,1,0,3h-18.936v58.461h18.936a1.5,1.5,0,0,1,0,3Z" transform="translate(-11579.937 -9119.582)" fill="#615504"/>
    <path id="Unión_39" data-name="Unión 39" d="M12592.489,10104.867h0Zm-.424-141.572v0Zm.4,83.156h0Z" transform="translate(-11323.425 -9115.973)" fill="rgba(0,0,0,0)"/>
    <path id="Unión_39_-_Contorno" data-name="Unión 39 - Contorno" d="M12612.5,10106.367h-20.012a2.139,2.139,0,0,1-1.924-1.655V9963.295a1.5,1.5,0,0,1,3,0v81.656h18.936a1.5,1.5,0,0,1,0,3h-18.936v55.416h18.936a1.5,1.5,0,0,1,0,3Z" transform="translate(-11323.425 -9115.973)" fill="#615504"/>
    <path id="Unión_31" data-name="Unión 31" d="M12592.489,10104.867h0Zm-.427-101.151v0Zm.4,42.735h0Z" transform="translate(-12055.05 -9119.582)" fill="rgba(0,0,0,0)"/>
    <path id="Unión_31_-_Contorno" data-name="Unión 31 - Contorno" d="M12612.5,10106.367h-20.012a2.142,2.142,0,0,1-1.927-1.655v-101a1.5,1.5,0,0,1,3,0v41.235h18.938a1.5,1.5,0,0,1,0,3h-18.938v55.416h18.938a1.5,1.5,0,0,1,0,3Z" transform="translate(-12055.05 -9119.582)" fill="#615504"/>
    <path id="Unión_33" data-name="Unión 33" d="M12592.489,10072.869h0Zm-.427-69.153v0Zm.4,29.735h0Z" transform="translate(-11990.12 -8990.223)" fill="rgba(0,0,0,0)"/>
    <path id="Unión_33_-_Contorno" data-name="Unión 33 - Contorno" d="M12612.5,10074.369h-20.012a2.1,2.1,0,0,1-1.927-1.608v-69.045a1.5,1.5,0,0,1,3,0v28.235h18.938a1.5,1.5,0,0,1,0,3h-18.938v36.418h18.938a1.5,1.5,0,0,1,0,3Z" transform="translate(-11990.12 -8990.223)" fill="#615504"/>
    <path id="Trazado_816891" data-name="Trazado 816891" d="M128.589,22.3h-.009a1.5,1.5,0,0,1-1.491-1.509L127.2,1.5H1.5V20.8A1.5,1.5,0,0,1,0,22.3a1.5,1.5,0,0,1-1.5-1.5V-1.5H130.221l-.132,22.306A1.5,1.5,0,0,1,128.589,22.3Z" transform="translate(472.988 776.011)" fill="#615504"/>
    <path id="Trazado_826650" data-name="Trazado 826650" d="M128.589,22.3h-.009a1.5,1.5,0,0,1-1.491-1.509L127.2,1.5H1.5V20.8A1.5,1.5,0,0,1,0,22.3a1.5,1.5,0,0,1-1.5-1.5V-1.5H130.221l-.132,22.306A1.5,1.5,0,0,1,128.589,22.3Z" transform="translate(601.699 838.403) rotate(180)" fill="#615504"/>
    <path id="Línea_925" data-name="Línea 925" d="M0,19.34a1.5,1.5,0,0,1-1.5-1.5V0A1.5,1.5,0,0,1,0-1.5,1.5,1.5,0,0,1,1.5,0V17.84A1.5,1.5,0,0,1,0,19.34Z" transform="translate(537.988 758.171)" fill="#615504"/>
    <path id="Línea_1212" data-name="Línea 1212" d="M0,19.34a1.5,1.5,0,0,1-1.5-1.5V0A1.5,1.5,0,0,1,0-1.5,1.5,1.5,0,0,1,1.5,0V17.84A1.5,1.5,0,0,1,0,19.34Z" transform="translate(273.988 758.171)" fill="#615504"/>
    <path id="Línea_1219" data-name="Línea 1219" d="M0,19.34a1.5,1.5,0,0,1-1.5-1.5V0A1.5,1.5,0,0,1,0-1.5,1.5,1.5,0,0,1,1.5,0V17.84A1.5,1.5,0,0,1,0,19.34Z" transform="translate(779.035 758.492)" fill="#615504"/>
    <path id="Línea_1226" data-name="Línea 1226" d="M0,19.34a1.5,1.5,0,0,1-1.5-1.5V0A1.5,1.5,0,0,1,0-1.5,1.5,1.5,0,0,1,1.5,0V17.84A1.5,1.5,0,0,1,0,19.34Z" transform="translate(1012.522 758.171)" fill="#615504"/>
    <path id="Línea_1229" data-name="Línea 1229" d="M0,19.34a1.5,1.5,0,0,1-1.5-1.5V0A1.5,1.5,0,0,1,0-1.5,1.5,1.5,0,0,1,1.5,0V17.84A1.5,1.5,0,0,1,0,19.34Z" transform="translate(1269.034 758.171)" fill="#615504"/>
    <path id="Línea_1211" data-name="Línea 1211" d="M0,19.34a1.5,1.5,0,0,1-1.5-1.5V0A1.5,1.5,0,0,1,0-1.5,1.5,1.5,0,0,1,1.5,0V17.84A1.5,1.5,0,0,1,0,19.34Z" transform="translate(536.7 856.241) rotate(180)" fill="#615504"/>
    <path id="Línea_1047" data-name="Línea 1047" d="M1.5,35.04h-3V0h3Z" transform="translate(799.988 612.913)" fill="#615504"/>
    <path id="Línea_1101" data-name="Línea 1101" d="M1.5,30.4h-3V0h3Z" transform="translate(799.988 550.326)" fill="#615504"/>
    <path id="Trazado_819206" data-name="Trazado 819206" d="M133.381,275.918H12.621c-5.865,0-10.62-3.63-10.62-8.107V238.025c0-4.477,4.755-8.107,10.62-8.107H133.381c5.865,0,10.62,3.63,10.62,8.107v29.787c0,4.477-4.755,8.107-10.62,8.107" transform="translate(200.487 453.714)" fill="#c1e29a"/>
    <path id="Trazado_826301" data-name="Trazado 826301" d="M150.509,275.918H14c-6.629,0-12-3.63-12-8.107V238.025c0-4.477,5.375-8.107,12-8.107h136.5c6.629,0,12,3.63,12,8.107v29.787c0,4.477-5.375,8.107-12,8.107" transform="translate(455.487 453.714)" fill="#c1e29a"/>
    <path id="Trazado_826307" data-name="Trazado 826307" d="M137.083,275.918H12.92C6.89,275.918,2,272.288,2,267.811V238.025c0-4.477,4.889-8.107,10.919-8.107H137.083c6.03,0,10.919,3.63,10.919,8.107v29.787c0,4.477-4.889,8.107-10.919,8.107" transform="translate(705 454.035)" fill="#c1e29a"/>
    <path id="Trazado_826655" data-name="Trazado 826655" d="M137.083,275.918H12.92C6.89,275.918,2,272.288,2,267.811V238.025c0-4.477,4.889-8.107,10.919-8.107H137.083c6.03,0,10.919,3.63,10.919,8.107v29.787c0,4.477-4.889,8.107-10.919,8.107" transform="translate(938.486 453.714)" fill="#c1e29a"/>
    <path id="Trazado_826656" data-name="Trazado 826656" d="M137.083,275.918H12.92C6.89,275.918,2,272.288,2,267.811V238.025c0-4.477,4.889-8.107,10.919-8.107H137.083c6.03,0,10.919,3.63,10.919,8.107v29.787c0,4.477-4.889,8.107-10.919,8.107" transform="translate(1194.998 453.714)" fill="#c1e29a"/>
    <path id="Trazado_826300" data-name="Trazado 826300" d="M107.464,262.513H10.526c-4.708,0-8.525-2.572-8.525-5.744V235.662c0-3.172,3.817-5.744,8.525-5.744h96.938c4.708,0,8.525,2.572,8.525,5.744v21.106c0,3.172-3.817,5.744-8.525,5.744" transform="translate(417.012 561.605)" fill="#d5fff5"/>
    <path id="Trazado_826645" data-name="Trazado 826645" d="M107.464,262.513H10.526c-4.708,0-8.525-2.572-8.525-5.744V235.662c0-3.172,3.817-5.744,8.525-5.744h96.938c4.708,0,8.525,2.572,8.525,5.744v21.106c0,3.172-3.817,5.744-8.525,5.744" transform="translate(541.999 561.605)" fill="#d5fff5"/>
    <path id="Trazado_819208" data-name="Trazado 819208" d="M131.09,283.057H12.435C6.673,283.057,2,278.864,2,273.693v-34.41c0-5.172,4.672-9.365,10.434-9.365H131.09c5.763,0,10.434,4.193,10.434,9.365v34.41c0,5.172-4.672,9.365-10.434,9.365" transform="translate(283.486 670.411)" fill="#e8e8e8"/>
    <path id="Trazado_826651" data-name="Trazado 826651" d="M114.856,283.057H11.123A9.246,9.246,0,0,1,2,273.693v-34.41a9.246,9.246,0,0,1,9.122-9.365H114.856a9.246,9.246,0,0,1,9.122,9.365v34.41a9.246,9.246,0,0,1-9.122,9.365" transform="translate(789 671.035)" fill="#e8e8e8"/>
    <path id="Trazado_826653" data-name="Trazado 826653" d="M132.766,283.057H12.571c-5.837,0-10.57-4.193-10.57-9.365v-34.41c0-5.172,4.733-9.365,10.57-9.365h120.2c5.837,0,10.57,4.193,10.57,9.365v34.41c0,5.172-4.732,9.365-10.57,9.365" transform="translate(1022.487 670.714)" fill="#e8e8e8"/>
    <path id="Trazado_826657" data-name="Trazado 826657" d="M114.856,283.057H11.123A9.246,9.246,0,0,1,2,273.693v-34.41a9.246,9.246,0,0,1,9.122-9.365H114.856a9.246,9.246,0,0,1,9.122,9.365v34.41a9.246,9.246,0,0,1-9.122,9.365" transform="translate(1278.999 674.323)" fill="#e8e8e8"/>
    <path id="Trazado_826644" data-name="Trazado 826644" d="M131.09,283.057H12.435C6.673,283.057,2,278.864,2,273.693v-34.41c0-5.172,4.672-9.365,10.434-9.365H131.09c5.763,0,10.434,4.193,10.434,9.365v34.41c0,5.172-4.672,9.365-10.434,9.365" transform="translate(283.487 729.301)" fill="#e8e8e8"/>
    <path id="Trazado_826652" data-name="Trazado 826652" d="M114.856,283.057H11.123A9.246,9.246,0,0,1,2,273.693v-34.41a9.246,9.246,0,0,1,9.122-9.365H114.856a9.246,9.246,0,0,1,9.122,9.365v34.41a9.246,9.246,0,0,1-9.122,9.365" transform="translate(789 730.035)" fill="#e8e8e8"/>
    <path id="Trazado_826654" data-name="Trazado 826654" d="M132.766,283.057H12.571c-5.837,0-10.57-4.193-10.57-9.365v-34.41c0-5.172,4.733-9.365,10.57-9.365h120.2c5.837,0,10.57,4.193,10.57,9.365v34.41c0,5.172-4.732,9.365-10.57,9.365" transform="translate(1022.486 729.714)" fill="#e8e8e8"/>
    <path id="Trazado_826659" data-name="Trazado 826659" d="M132.766,283.057H12.571c-5.837,0-10.57-4.193-10.57-9.365v-34.41c0-5.172,4.733-9.365,10.57-9.365h120.2c5.837,0,10.57,4.193,10.57,9.365v34.41c0,5.172-4.732,9.365-10.57,9.365" transform="translate(1022.486 787.714)" fill="#e8e8e8"/>
    <path id="Trazado_826658" data-name="Trazado 826658" d="M114.856,283.057H11.123A9.246,9.246,0,0,1,2,273.693v-34.41a9.246,9.246,0,0,1,9.122-9.365H114.856a9.246,9.246,0,0,1,9.122,9.365v34.41a9.246,9.246,0,0,1-9.122,9.365" transform="translate(1278.998 733.323)" fill="#e8e8e8"/>
    <path id="Trazado_826293" data-name="Trazado 826293" d="M105.975,283.2H10.405c-4.641,0-8.4-4.2-8.4-9.391v-34.5c0-5.186,3.763-9.391,8.4-9.391h95.569c4.641,0,8.4,4.2,8.4,9.391v34.5c0,5.186-3.763,9.391-8.4,9.391" transform="translate(547.6 670.411)" fill="#e8e8e8"/>
    <path id="Trazado_826648" data-name="Trazado 826648" d="M84.8,262.531H8.694C5,262.531,2,259.958,2,256.784V235.665c0-3.174,3-5.747,6.693-5.747H84.8c3.7,0,6.693,2.573,6.693,5.747v21.118c0,3.174-3,5.747-6.693,5.747" transform="translate(614.999 796.155)" fill="#e8feff"/>
    <path id="Trazado_826649" data-name="Trazado 826649" d="M84.8,262.531H8.694C5,262.531,2,259.958,2,256.784V235.665c0-3.174,3-5.747,6.693-5.747H84.8c3.7,0,6.693,2.573,6.693,5.747v21.118c0,3.174-3,5.747-6.693,5.747" transform="translate(616.486 833.714)" fill="#e8feff"/>
    <path id="Trazado_826646" data-name="Trazado 826646" d="M105.975,283.2H10.405c-4.641,0-8.4-4.2-8.4-9.391v-34.5c0-5.186,3.763-9.391,8.4-9.391h95.569c4.641,0,8.4,4.2,8.4,9.391v34.5c0,5.186-3.763,9.391-8.4,9.391" transform="translate(547.6 730.714)" fill="#e8e8e8"/>
    <text id="Formatos" transform="translate(221.488 696.632)" font-size="16" font-family="Roboto-Bold, Roboto" font-weight="700"><tspan x="17.82" y="15">Formatos</tspan></text>
    <text id="Manejo_de_grupo" data-name="Manejo de grupo" transform="translate(475.488 696.632)" font-size="16" font-family="Roboto-Bold, Roboto" font-weight="700"><tspan x="1.992" y="15">Manejo de grupo</tspan></text>
    <text id="Mejora_continua" data-name="Mejora continua" transform="translate(717.001 696.953)" font-size="16" font-family="Roboto-Bold, Roboto" font-weight="700"><tspan x="4.238" y="15">Mejora continua</tspan></text>
    <text id="Evaluación" transform="translate(950.488 696.632)" font-size="16" font-family="Roboto-Bold, Roboto" font-weight="700"><tspan x="23.645" y="15">Evaluación</tspan></text>
    <text id="Indicadores" transform="translate(1207 696.632)" font-size="16" font-family="Roboto-Bold, Roboto" font-weight="700"><tspan x="20.285" y="15">Indicadores</tspan></text>
    <text id="_Forma_libre" data-name=" Forma libre" transform="translate(425.012 796.523)" font-size="16" font-family="Roboto-Bold, Roboto" font-weight="700"><tspan x="7.449" y="15" xml:space="preserve"> Forma libre</tspan></text>
    <text id="_Artificial" data-name=" Artificial" transform="translate(544 796.523)" font-size="16" font-family="Roboto-Bold, Roboto" font-weight="700"><tspan x="22.117" y="15" xml:space="preserve"> Artificial</tspan></text>
    <text id="Técnicas_de_concertación" data-name="Técnicas de concertación" transform="translate(550.979 905.595)" font-size="16" font-family="Roboto-Bold, Roboto" font-weight="700"><tspan x="11.902" y="15">Técnicas de </tspan><tspan x="7.926" y="34">concertación</tspan></text>
    <text id="Oral" transform="translate(618.379 1031.338)" font-size="16" font-family="Roboto-Bold, Roboto" font-weight="700"><tspan x="28.822" y="15">Oral</tspan></text>
    <text id="Expresión" transform="translate(550.979 976.632)" font-size="16" font-family="Roboto-Bold, Roboto" font-weight="700"><tspan x="19.52" y="15">Expresión</tspan></text>
    <text id="Escrita" transform="translate(619.488 1069.632)" font-size="16" font-family="Roboto-Bold, Roboto" font-weight="700"><tspan x="18.74" y="15">Escrita</tspan></text>
    <text id="Instrumentos_de_evaluación" data-name="Instrumentos de evaluación" transform="translate(290.488 906.853)" font-size="16" font-family="Roboto-Bold, Roboto" font-weight="700" letter-spacing="0.016em"><tspan x="1.803" y="15">Instrumentos de </tspan><tspan x="22.513" y="34">evaluación</tspan></text>
    <text id="_Técnicas" data-name=" Técnicas" transform="translate(796.001 912.952)" font-size="16" font-family="Roboto-Bold, Roboto" font-weight="700" letter-spacing="0.016em"><tspan x="20.433" y="15" xml:space="preserve"> Técnicas</tspan></text>
    <text id="Criterios" transform="translate(1037.053 913.632)" font-size="16" font-family="Roboto-Bold, Roboto" font-weight="700" letter-spacing="0.016em"><tspan x="23.488" y="15">Criterios</tspan></text>
    <text id="Tipos" transform="translate(1282 916.241)" font-size="16" font-family="Roboto-Bold, Roboto" font-weight="700" letter-spacing="0.016em"><tspan x="34.765" y="15">Tipos</tspan></text>
    <text id="Listados" transform="translate(285.488 975.219)" font-size="16" font-family="Roboto-Bold, Roboto" font-weight="700" letter-spacing="0.016em"><tspan x="42.029" y="15">Listados</tspan></text>
    <text id="Registros" transform="translate(791 975.953)" font-size="16" font-family="Roboto-Bold, Roboto" font-weight="700" letter-spacing="0.016em"><tspan x="25.617" y="15">Registros</tspan></text>
    <text id="Medición_de_resultados" data-name="Medición de resultados" transform="translate(1038.409 964.632)" font-size="16" font-family="Roboto-Bold, Roboto" font-weight="700" letter-spacing="0.016em"><tspan x="8.77" y="15">Medición de </tspan><tspan x="14.965" y="34">resultados</tspan></text>
    <text id="Recolección_de_información" data-name="Recolección de información" transform="translate(1027.564 1023.799)" font-size="16" font-family="Roboto-Bold, Roboto" font-weight="700" letter-spacing="0.016em"><tspan x="11.783" y="15">Recolección de </tspan><tspan x="23.608" y="34">información</tspan></text>
    <text id="Ficha_técnica" data-name="Ficha técnica" transform="translate(1281 979.241)" font-size="16" font-family="Roboto-Bold, Roboto" font-weight="700" letter-spacing="0.016em"><tspan x="11.757" y="15">Ficha técnica</tspan></text>
    <rect id="Rectángulo_377695" data-name="Rectángulo 377695" width="399" height="56" rx="15" transform="translate(600.488 494.226)" fill="#ffae7e"/>
    <text id="Plan_de_promotoría_ambiental" data-name="Plan de promotoría ambiental" transform="translate(615.505 509.226)" font-size="18" font-family="Roboto-Bold, Roboto" font-weight="700"><tspan x="61.815" y="17">Plan de promotoría ambiental</tspan></text>
    <path id="Trazado_821550" data-name="Trazado 821550" d="M-11465.486-9504.5h0c-7.442,0-747.095-.1-995.386-.1a1.5,1.5,0,0,1-1.5-1.5,1.5,1.5,0,0,1,1.5-1.5c248.291,0,987.943.1,995.386.1a1.5,1.5,0,0,1,1.5,1.5A1.5,1.5,0,0,1-11465.486-9504.5Z" transform="translate(12735.485 10154.955)" fill="#615504"/>
    <rect id="Rectángulo_379540" data-name="Rectángulo 379540" width="142" height="97" rx="20" transform="translate(202.488 773.632)" fill="#d5fff5"/>
    <rect id="Rectángulo_379541" data-name="Rectángulo 379541" width="142" height="97" rx="20" transform="translate(707.535 773.952)" fill="#d5fff5"/>
    <rect id="Rectángulo_379542" data-name="Rectángulo 379542" width="142" height="97" rx="20" transform="translate(941.022 773.632)" fill="#d5fff5"/>
    <rect id="Rectángulo_379543" data-name="Rectángulo 379543" width="142" height="120" rx="20" transform="translate(1197.534 773.632)" fill="#d5fff5"/>
    <text id="Organizar_la_información_con_respecto_a_las_necesidades" data-name="Organizar la información con respecto a las necesidades" transform="translate(214.488 781.632)" font-size="16" font-family="Roboto-Bold, Roboto" font-weight="700"><tspan x="15.496" y="15">Organizar la </tspan><tspan x="0.41" y="34">información con </tspan><tspan x="8.813" y="53">respecto a las </tspan><tspan x="13.723" y="72">necesidades</tspan></text>
    <text id="Revisión_de_problemas_en_cada_etapa" data-name="Revisión de problemas en cada etapa" transform="translate(719.535 789.953)" font-size="16" font-family="Roboto-Bold, Roboto" font-weight="700"><tspan x="17.395" y="15">Revisión de </tspan><tspan x="10.121" y="34">problemas en </tspan><tspan x="19.641" y="53">cada etapa</tspan></text>
    <text id="Detectar_dificultades_en_el_proceso_del_aprendiz" data-name="Detectar dificultades en el proceso del aprendiz" transform="translate(956.022 782.632)" font-size="16" font-family="Roboto-Bold, Roboto" font-weight="700"><tspan x="28.867" y="15">Detectar </tspan><tspan x="6.5" y="34">dificultades en </tspan><tspan x="9.18" y="53">el proceso del </tspan><tspan x="28.359" y="72">aprendiz</tspan></text>
    <text id="Instrumentos_que_aportan_información_para_evaluar_desempeño" data-name="Instrumentos que aportan información para evaluar desempeño" transform="translate(1209.534 780.761)" font-size="16" font-family="Roboto-Bold, Roboto" font-weight="700"><tspan x="13.256" y="15">Instrumentos </tspan><tspan x="18.018" y="34">que aportan </tspan><tspan x="17.811" y="53">información </tspan><tspan x="17.006" y="72">para evaluar </tspan><tspan x="19.206" y="91">desempeño</tspan></text>
  </g>
</svg>
