<svg xmlns="http://www.w3.org/2000/svg" xmlns:xlink="http://www.w3.org/1999/xlink" width="190" height="190" viewBox="0 0 190 190">
  <defs>
    <clipPath id="clip-path">
      <rect id="Rectangle_378543" data-name="Rectangle 378543" width="190" height="190" transform="translate(1125 4303)" fill="#fff" stroke="#707070" stroke-width="1"/>
    </clipPath>
    <clipPath id="clip-path-2">
      <rect id="Rectangle_378549" data-name="Rectangle 378549" width="152.004" height="174.524" fill="none"/>
    </clipPath>
  </defs>
  <g id="Mask_Group_435" data-name="Mask Group 435" transform="translate(-1125 -4303)" clip-path="url(#clip-path)">
    <g id="Group_1074881" data-name="Group 1074881" transform="translate(1144 4311)">
      <g id="Group_1074880" data-name="Group 1074880" clip-path="url(#clip-path-2)">
        <path id="Path_824568" data-name="Path 824568" d="M.015,87.26q0-39.179,0-78.358C.015,4.634,2,1.847,6,.342a6.111,6.111,0,0,1,2.2-.32Q64.23-.012,120.254,0a4.155,4.155,0,0,1,3.1,1.282q13.565,13.611,27.18,27.171A4.836,4.836,0,0,1,152,32.086q.013,66.486-.007,132.971c0,2.705-.535,5.265-2.74,7.194a8.358,8.358,0,0,1-5.6,2.23q-67.194.03-134.389.042c-3.031,0-5.526-.857-7.407-3.251A7.544,7.544,0,0,1,0,166.5q.034-39.62.015-79.237M75.83,168.873v.006q33.728,0,67.456.033a3.175,3.175,0,0,0,3.109-3.13q-.039-65.561,0-131.122c0-.727-.164-.907-.9-.9-7.768.03-15.538-.033-23.306.049-2.4.025-4.029-1.147-3.993-3.94.1-7.738.019-15.478.057-23.217,0-.84-.18-1.041-1.033-1.041Q63.04,5.647,8.864,5.632a6.174,6.174,0,0,0-.879.014,2.6,2.6,0,0,0-2.35,2.531,10.662,10.662,0,0,1-.008,2.02c-.107.883.186,1.088,1.073,1.086q25.725-.047,51.451-.021c2.586,0,3.781,1.17,3.783,3.749q.008,10.334,0,20.667a4.9,4.9,0,0,1-.333,1.846,2.935,2.935,0,0,1-2.98,1.88q-25.989,0-51.977-.021c-.865,0-1.026.22-1.026,1.047q.034,62.614.02,125.23c0,2.293.909,3.214,3.17,3.214H75.83M30.955,33.775c8.147,0,16.294-.009,24.441.016.712,0,.936-.145.93-.9q-.054-7.559,0-15.12c.006-.758-.229-.9-.935-.9q-24.441.031-48.882,0c-.667,0-.888.141-.883.855q.051,7.56,0,15.12c-.007.812.242.944.98.941,8.118-.026,16.236-.017,24.354-.017m111.412-5.637-18.5-18.5v.6c0,5.686.013,11.373-.014,17.06,0,.679.158.864.852.861,5.57-.032,11.14-.018,16.709-.018h.956" transform="translate(0 0)"/>
        <path id="Path_824569" data-name="Path 824569" d="M78.162,171.205H11.145c-2.261,0-3.171-.921-3.171-3.214q0-62.616-.02-125.23c0-.828.16-1.049,1.026-1.047q25.988.046,51.977.021a2.934,2.934,0,0,0,2.98-1.88,4.9,4.9,0,0,0,.332-1.846q-.006-10.333,0-20.667c0-2.579-1.2-3.748-3.784-3.749q-25.724-.005-51.45.021c-.886,0-1.18-.2-1.073-1.086a10.721,10.721,0,0,0,.008-2.02,2.6,2.6,0,0,1,2.35-2.531,6.172,6.172,0,0,1,.879-.014q54.176,0,108.353-.023c.853,0,1.038.2,1.033,1.041-.037,7.739.042,15.478-.056,23.217-.035,2.793,1.591,3.965,3.993,3.94,7.769-.083,15.538-.02,23.306-.049.735,0,.9.177.9.9q-.03,65.561,0,131.122a3.175,3.175,0,0,1-3.109,3.13q-33.728-.075-67.456-.033Zm-.088-5.635q30.7,0,61.391,0c2.67,0,3.592-1.318,3.594-3.537q.039-41.51.02-83.021a4.482,4.482,0,0,0-.319-1.6c-.611-1.61-1.987-1.891-3.457-1.891Q86,75.5,32.7,75.509q-7.915,0-15.831.012a2.626,2.626,0,0,0-.855.079,3.089,3.089,0,0,0-2.414,3.443q0,40.235,0,80.471a17.754,17.754,0,0,0-.042,3,3.464,3.464,0,0,0,2.18,2.961,6.037,6.037,0,0,0,1.73.093q30.3.007,60.6,0M104.859,41.736c2.228,0,4.455.028,6.682-.011a3.069,3.069,0,0,0,2.99-1.581,2.881,2.881,0,0,0-.748-3.394c-3.065-2.921-6.293-5.659-9.445-8.482-.586-.525-.54-.783.014-1.249,1.385-1.166,2.738-2.373,4.082-3.587,1.846-1.665,3.7-3.327,5.5-5.039a2.53,2.53,0,0,0,.488-3.327,3.037,3.037,0,0,0-3.023-1.458c-4.22-.043-8.441-.015-12.662-.017A4.129,4.129,0,0,0,95.92,14.6c-.968.842-1.961,1.656-2.909,2.521a.745.745,0,0,1-1.2,0c-.856-.785-1.777-1.5-2.631-2.285a4.5,4.5,0,0,0-3.139-1.24c-4.191-.01-8.382,0-12.573-.006a4.157,4.157,0,0,0-1.852.328c-1.573.782-2.555,2.707-.791,4.4.983.946,1.984,1.874,2.989,2.8q1.9,1.747,3.828,3.47,1.494,1.332,3.026,2.62c.355.3.384.553.046.854-1.555,1.386-3.161,2.709-4.685,4.135-1.771,1.658-3.651,3.2-5.342,4.947a2.12,2.12,0,0,0-.7,2.413c.521,1.014,1.141,2.173,2.589,2.175,4.543.009,9.086.02,13.629-.006a3.541,3.541,0,0,0,2.533-.945C89.775,39.8,90.92,38.951,91.977,38c.345-.309.518-.3.852,0,1.107.994,2.241,1.958,3.385,2.909a3.477,3.477,0,0,0,2.4.84c2.08-.05,4.161-.016,6.243-.016M78.343,69.881c5.393,0,10.787-.023,16.18.01a3.124,3.124,0,0,0,3.5-3.35q.1-7.956,0-15.916c-.022-1.766-.777-2.726-2.2-3.076a8.238,8.238,0,0,0-1.98-.194q-13.059.021-26.117.01c-2.023,0-4.045,0-6.068.013A2.992,2.992,0,0,0,58.6,50.416c-.007.88.042,1.757.041,2.635q-.007,6.727,0,13.454a3.326,3.326,0,0,0,.412,1.817,3.254,3.254,0,0,0,3.024,1.562q8.134-.012,16.269,0m-45.19,0c5.452,0,10.9.033,16.356-.014,2.737-.024,3.439-1.406,3.471-3.375.085-5.274.063-10.551,0-15.827a2.913,2.913,0,0,0-1.9-3.005,5.24,5.24,0,0,0-1.775-.3q-4.485.005-8.969,0-11.783,0-23.566,0a3.056,3.056,0,0,0-3.22,3.158c.006.817.051,1.639.049,2.459q-.008,6.77,0,13.541a3.314,3.314,0,0,0,.377,1.739,3.2,3.2,0,0,0,2.991,1.616q8.09,0,16.18,0m90.034-.015v.015c5.45,0,10.9-.028,16.349.013a3.193,3.193,0,0,0,3.529-3.5c.039-5.214.023-10.429,0-15.644a3.239,3.239,0,0,0-1.225-2.767,3.923,3.923,0,0,0-2.466-.6c-6.71-.02-13.419-.012-20.128-.011-4.161,0-8.321,0-12.481.013a3.028,3.028,0,0,0-3.076,2.723q-.041,8.437,0,16.874a3.088,3.088,0,0,0,2.971,2.913c5.508-.059,11.016-.023,16.524-.023" transform="translate(-2.332 -2.332)" fill="#dcdcdd"/>
        <path id="Path_824570" data-name="Path 824570" d="M33.292,40.791c-8.117,0-16.235-.009-24.353.017-.738,0-.987-.129-.98-.942q.066-7.558,0-15.12c0-.715.215-.855.883-.855q24.441.028,48.882,0c.706,0,.941.14.935.9q-.053,7.559,0,15.121c.006.754-.219.9-.929.9-8.148-.025-16.295-.016-24.442-.016M33.4,29.533c-6.327,0-12.654.011-18.98-.015-.653,0-.858.154-.828.821a37.007,37.007,0,0,1,0,3.777c-.049.832.165,1.071,1.038,1.069q17.837-.05,35.675-.023c.674,0,1.35-.03,2.021.009.536.033.715-.141.7-.689-.037-1.347-.055-2.7,0-4.041.032-.726-.17-.929-.912-.925-6.238.032-12.477.018-18.716.018" transform="translate(-2.338 -7.016)" fill="#6ac13a"/>
        <path id="Path_824571" data-name="Path 824571" d="M193.869,32.144h-.956c-5.57,0-11.14-.013-16.709.018-.7,0-.856-.182-.852-.861.028-5.686.015-11.373.014-17.06v-.6l18.5,18.5" transform="translate(-51.502 -4.006)" fill="#dcdcdd"/>
        <path id="Path_824572" data-name="Path 824572" d="M80.387,193.669q-30.3,0-60.6,0a6.037,6.037,0,0,1-1.73-.093,3.466,3.466,0,0,1-2.18-2.961,17.829,17.829,0,0,1,.042-3q-.005-40.235,0-80.471a3.088,3.088,0,0,1,2.414-3.443,2.628,2.628,0,0,1,.855-.079q7.915-.017,15.831-.012,53.3,0,106.6.007c1.471,0,2.846.28,3.457,1.891a4.467,4.467,0,0,1,.319,1.6q-.005,41.511-.02,83.021c0,2.219-.925,3.536-3.594,3.537q-30.7.015-61.391.006m.258-16.887c-6.3,0-12.6.011-18.9-.017-.665,0-.819.168-.812.819.036,3.223.03,6.446,0,9.668,0,.569.075.8.737.8q18.986-.033,37.972,0c.582,0,.725-.163.72-.73-.026-3.252-.035-6.5.006-9.756.008-.684-.2-.8-.831-.8-6.3.024-12.6.014-18.9.015m0-16.887c-6.3,0-12.6.011-18.9-.016-.658,0-.824.158-.816.816.037,3.222.03,6.446.006,9.668,0,.564.066.808.733.807q18.986-.033,37.972,0c.576,0,.729-.153.725-.725-.028-3.252-.035-6.5,0-9.756.008-.678-.189-.807-.828-.8-6.3.025-12.6.016-18.9.016m.1-16.887c-6.328,0-12.657.009-18.986-.014-.629,0-.843.111-.833.8.042,3.251.032,6.5.006,9.755,0,.564.134.732.718.731q18.986-.025,37.973,0c.66,0,.743-.23.738-.8-.025-3.193-.036-6.387.007-9.58.009-.724-.16-.915-.9-.911-6.241.033-12.482.019-18.723.019m-.186-22.515c6.333,0,12.665-.012,19,.017.672,0,.816-.18.809-.825-.035-3.195-.045-6.391.006-9.586.012-.776-.241-.881-.932-.88q-18.691.033-37.38,0c-.915,0-1.136.316-1.127,1.149.031,3.077.037,6.156-.006,9.234-.01.72.153.919.9.915,6.244-.034,12.489-.019,18.734-.019m.871,16.887c6.037,0,12.073-.011,18.11.015.639,0,.836-.129.827-.805q-.06-4.834,0-9.669c.008-.66-.16-.816-.816-.814q-19.077.032-38.155.007c-.434,0-.456.2-.456.53q.011,5.1,0,10.2c0,.413.1.568.537.549.761-.033,1.524-.008,2.286-.008h17.67m41.446,50.659c5.361,0,10.723-.013,16.084.017.67,0,.817-.177.81-.823-.035-3.222-.03-6.445,0-9.667,0-.571-.078-.8-.738-.8q-16.172.034-32.345,0c-.583,0-.723.165-.719.73.027,3.252.036,6.5,0,9.755-.009.684.2.8.831.8,5.361-.025,10.723-.015,16.084-.015M38.337,120.494c5.42,0,10.84-.008,16.26.011.55,0,.746-.111.74-.71q-.047-4.921,0-9.843c0-.565-.136-.731-.719-.73q-16.172.028-32.345,0c-.66,0-.743.23-.738.8.025,3.222.032,6.445,0,9.667-.007.647.141.827.809.823,5.333-.03,10.664-.017,16-.017m84.448,0c5.391,0,10.782-.012,16.173.016.651,0,.828-.148.82-.813-.037-3.251-.032-6.5,0-9.755.006-.584-.165-.72-.73-.719q-16.172.024-32.345,0c-.567,0-.735.138-.73.72.029,3.252.035,6.5,0,9.755-.008.666.172.814.821.812,5.332-.028,10.664-.016,16-.016M38.344,137.38c5.391,0,10.782-.012,16.173.016.648,0,.831-.141.823-.81-.039-3.251-.032-6.5,0-9.755,0-.58-.159-.722-.728-.721q-16.172.025-32.345,0c-.563,0-.737.131-.732.718.03,3.251.035,6.5,0,9.755-.007.663.165.818.819.814,5.332-.029,10.664-.016,16-.016m84.458,0c5.39,0,10.782-.008,16.172.012.569,0,.811-.074.8-.737q-.056-4.921,0-9.843c.006-.613-.211-.7-.749-.7q-16.172.021-32.345,0c-.6,0-.715.184-.711.738.025,3.251.037,6.5-.006,9.755-.009.7.22.8.839.793,5.332-.024,10.664-.013,16-.013m-84.367,5.628c-5.361,0-10.723.012-16.084-.016-.649,0-.83.143-.821.81.038,3.251.032,6.5,0,9.755,0,.581.162.721.729.72q16.172-.025,32.345,0c.567,0,.735-.138.73-.72-.028-3.252-.035-6.5,0-9.755.008-.666-.171-.814-.821-.811-5.361.028-10.723.016-16.084.016m84.531,0c-5.42,0-10.84.008-16.26-.012-.558,0-.741.123-.735.714q.046,4.921,0,9.843c0,.573.148.727.724.726q16.172-.027,32.345,0c.669,0,.737-.244.732-.807-.025-3.222-.033-6.445,0-9.667.008-.658-.157-.82-.816-.816-5.332.03-10.664.017-16,.017M38.433,159.9c-5.361,0-10.723.012-16.084-.016-.65,0-.828.146-.82.812.038,3.252.032,6.5,0,9.755,0,.583.164.72.73.72q16.172-.025,32.345,0c.569,0,.733-.142.728-.721-.028-3.252-.035-6.5,0-9.755.008-.669-.174-.814-.822-.81-5.361.028-10.723.016-16.084.016m84.435,0c-5.361,0-10.723.013-16.084-.016-.658,0-.824.158-.816.816.037,3.222.029,6.445,0,9.667,0,.562.064.809.732.807q16.172-.034,32.344,0c.576,0,.729-.153.725-.725-.028-3.252-.035-6.5,0-9.755.008-.676-.186-.809-.826-.805-5.361.027-10.723.016-16.084.016M38.44,188.04c5.361,0,10.723-.013,16.084.017.661,0,.822-.163.814-.819-.036-3.222-.029-6.445,0-9.667,0-.565-.066-.807-.733-.806q-16.172.035-32.345,0c-.576,0-.728.153-.724.725.028,3.252.036,6.5,0,9.755-.008.676.186.809.827.806,5.361-.027,10.723-.016,16.084-.016" transform="translate(-4.644 -30.43)"/>
        <path id="Path_824573" data-name="Path 824573" d="M130.6,44.082c-2.081,0-4.162-.035-6.242.016a3.479,3.479,0,0,1-2.4-.84c-1.144-.952-2.278-1.916-3.385-2.91-.334-.3-.507-.311-.852,0-1.057.95-2.2,1.8-3.233,2.779a3.543,3.543,0,0,1-2.533.945c-4.542.026-9.085.016-13.628.007-1.447,0-2.068-1.162-2.589-2.175a2.122,2.122,0,0,1,.7-2.414c1.69-1.749,3.57-3.289,5.341-4.947,1.523-1.426,3.13-2.75,4.686-4.135.338-.3.309-.557-.046-.854q-1.534-1.287-3.026-2.621-1.928-1.719-3.828-3.47c-1.005-.922-2.006-1.85-2.99-2.8-1.764-1.7-.782-3.62.791-4.4a4.153,4.153,0,0,1,1.853-.328c4.191,0,8.382,0,12.573.006a4.5,4.5,0,0,1,3.138,1.24c.855.786,1.776,1.5,2.632,2.285a.744.744,0,0,0,1.194,0c.948-.865,1.94-1.68,2.909-2.521a4.129,4.129,0,0,1,2.815-1.011c4.22,0,8.441-.026,12.661.018a3.039,3.039,0,0,1,3.023,1.457,2.529,2.529,0,0,1-.488,3.327c-1.8,1.712-3.651,3.373-5.5,5.039-1.345,1.213-2.7,2.42-4.082,3.587-.554.466-.6.724-.015,1.249,3.152,2.822,6.38,5.561,9.445,8.481a2.882,2.882,0,0,1,.748,3.4,3.071,3.071,0,0,1-2.99,1.58c-2.227.04-4.455.011-6.683.011m-.236-5.648c-.234-.579-.706-.755-1.04-1.052q-8.61-7.644-17.239-15.267c-.242-.214-.457-.507-.8-.511-1.493-.018-2.987-.02-4.479.023-.12,0-.508-.021-.516.286a.712.712,0,0,0,.307.506c1.973,1.71,3.95,3.417,5.905,5.148,3.751,3.322,7.485,6.662,11.235,9.984.411.364.806.855,1.391.869,1.715.04,3.43.015,5.23.015m.006-16.851c-1.766,0-3.45,0-5.133,0a1.228,1.228,0,0,0-.789.349c-.55.481-1.083.982-1.644,1.45-.312.261-.38.464-.037.756.69.588,1.372,1.186,2.031,1.808.336.317.566.256.881-.035,1.076-.99,2.19-1.938,3.264-2.93.458-.424,1.091-.674,1.427-1.4M108.889,38.442v0c.614,0,1.23-.023,1.842.006a2.044,2.044,0,0,0,1.644-.66c.388-.4.818-.75,1.237-1.114.261-.227.378-.4.023-.684a24.029,24.029,0,0,1-2.012-1.734.629.629,0,0,0-1.026-.036c-1.408,1.229-2.832,2.44-4.246,3.661-.126.109-.31.231-.216.428s.309.124.473.125c.76.009,1.521,0,2.281,0" transform="translate(-28.068 -4.679)"/>
        <path id="Path_824574" data-name="Path 824574" d="M99.41,86.27q-8.134,0-16.268,0a3.254,3.254,0,0,1-3.024-1.562,3.33,3.33,0,0,1-.412-1.817q0-6.726,0-13.453c0-.879-.048-1.756-.04-2.636a2.992,2.992,0,0,1,3.058-3.037c2.022-.017,4.045-.013,6.068-.013q13.059,0,26.117-.01a8.2,8.2,0,0,1,1.979.194c1.42.35,2.176,1.309,2.2,3.076q.1,7.956,0,15.915a3.124,3.124,0,0,1-3.5,3.351c-5.394-.032-10.787-.011-16.181-.011m2.812-5.663.35-.03.34,0c3.361.02,6.72.032,10.08.066.571.006.489-.361.489-.7,0-2.631.017-5.263-.009-7.894-.008-.864.393-2.029-.179-2.514-.594-.5-1.732-.143-2.633-.126q-11.591-.013-23.182-.017c-.591,0-1.158.275-1.783.019-.376-.155-.358.254-.358.509,0,3.4,0,6.79-.008,10.185,0,.43.154.544.562.542q8.165-.032,16.332-.041" transform="translate(-23.399 -18.723)"/>
        <path id="Path_824575" data-name="Path 824575" d="M35.489,86.273q-8.09,0-16.18,0a3.2,3.2,0,0,1-2.991-1.616,3.306,3.306,0,0,1-.377-1.739q0-6.771,0-13.541c0-.82-.043-1.641-.049-2.459a3.056,3.056,0,0,1,3.22-3.158q11.783.013,23.566,0,4.485,0,8.969,0a5.241,5.241,0,0,1,1.775.3,2.914,2.914,0,0,1,1.9,3.006c.058,5.275.081,10.552,0,15.826-.032,1.969-.734,3.351-3.471,3.375-5.452.048-10.9.014-16.356.013m.154-16.878v-.008c-4.424,0-8.848.009-13.273-.011-.575,0-.822.1-.816.754q.05,4.878,0,9.756c-.006.634.2.773.8.771q13.273-.031,26.546,0c.668,0,.831-.187.824-.836-.033-3.193-.04-6.388,0-9.58.01-.732-.244-.858-.9-.855-4.4.025-8.79.013-13.185.013" transform="translate(-4.668 -18.726)"/>
        <path id="Path_824576" data-name="Path 824576" d="M163,86.258c-5.508,0-11.016-.035-16.524.023a3.088,3.088,0,0,1-2.971-2.913q-.031-8.437,0-16.874a3.028,3.028,0,0,1,3.076-2.723c4.16-.016,8.32-.012,12.481-.013,6.709,0,13.418-.009,20.128.011a3.927,3.927,0,0,1,2.466.6,3.24,3.24,0,0,1,1.225,2.767c.018,5.215.035,10.43,0,15.644a3.192,3.192,0,0,1-3.529,3.5c-5.45-.04-10.9-.013-16.349-.013Zm.1-5.6v-.011c4.426,0,8.853-.02,13.28.019.755.006.909-.22.9-.932q-.059-4.747,0-9.5c.009-.708-.2-.865-.881-.864q-13.236.029-26.471-.01c-.634,0-.849.123-.84.807q.059,4.836,0,9.673c-.007.65.152.835.819.83,4.4-.032,8.794-.016,13.191-.016" transform="translate(-42.143 -18.725)"/>
        <path id="Path_824577" data-name="Path 824577" d="M35.744,31.873c6.239,0,12.478.014,18.716-.018.742,0,.944.2.912.925-.059,1.345-.041,2.694,0,4.041.014.548-.165.723-.7.689-.671-.04-1.347-.009-2.021-.009q-17.838,0-35.675.023c-.872,0-1.086-.237-1.038-1.069a37.008,37.008,0,0,0,0-3.777c-.03-.667.176-.824.828-.821,6.326.025,12.653.015,18.98.015" transform="translate(-4.678 -9.356)"/>
        <path id="Path_824578" data-name="Path 824578" d="M99.408,207.2c6.3,0,12.6.009,18.9-.015.633,0,.84.116.831.8-.042,3.251-.032,6.5-.006,9.755,0,.567-.138.73-.72.73q-18.986-.025-37.973,0c-.662,0-.741-.234-.737-.8.025-3.223.032-6.446,0-9.668-.007-.652.148-.823.812-.819,6.3.028,12.6.016,18.9.016" transform="translate(-23.408 -60.853)" fill="#b4b4b5"/>
        <path id="Path_824579" data-name="Path 824579" d="M99.412,183.3c6.3,0,12.6.01,18.9-.015.639,0,.836.126.828.8-.041,3.252-.032,6.5-.006,9.756,0,.573-.148.727-.724.726q-18.986-.025-37.972,0c-.667,0-.737-.243-.733-.807.024-3.223.032-6.446-.006-9.668-.008-.658.158-.819.816-.816,6.3.028,12.6.016,18.9.016" transform="translate(-23.408 -53.831)" fill="#b4b4b5"/>
        <path id="Path_824580" data-name="Path 824580" d="M99.515,159.386c6.24,0,12.481.014,18.722-.019.742,0,.91.188.9.912-.042,3.192-.032,6.386-.006,9.579,0,.571-.078.8-.739.8q-18.986-.032-37.972,0c-.585,0-.723-.167-.719-.731.026-3.252.036-6.5-.006-9.755-.009-.688.2-.8.833-.8,6.329.023,12.657.014,18.987.014" transform="translate(-23.407 -46.807)" fill="#b4b4b5"/>
        <path id="Path_824581" data-name="Path 824581" d="M99.329,122.826c-6.244,0-12.489-.015-18.734.019-.746,0-.909-.195-.9-.915.043-3.078.037-6.157.006-9.234-.008-.833.212-1.151,1.127-1.149q18.69.047,37.38,0c.692,0,.945.1.932.88-.052,3.195-.041,6.391-.006,9.586.007.645-.136.828-.809.825-6.333-.029-12.665-.017-19-.017" transform="translate(-23.407 -32.762)" fill="#b4b4b5"/>
        <path id="Path_824582" data-name="Path 824582" d="M100.2,146.736H82.535c-.762,0-1.526-.023-2.286.009-.432.018-.539-.136-.537-.549q.021-5.1,0-10.2c0-.333.021-.53.456-.53q19.077.017,38.154-.007c.656,0,.825.155.817.814q-.056,4.834,0,9.669c.008.677-.188.808-.828.805-6.036-.025-12.073-.015-18.109-.015" transform="translate(-23.412 -39.786)" fill="#b4b4b5"/>
        <path id="Path_824583" data-name="Path 824583" d="M160.373,218.463c-5.361,0-10.723-.011-16.084.015-.632,0-.84-.117-.832-.8.042-3.251.032-6.5.006-9.755,0-.565.135-.731.719-.73q16.172.027,32.345,0c.66,0,.742.23.738.8-.026,3.223-.032,6.446,0,9.668.007.646-.14.827-.809.823-5.361-.03-10.723-.017-16.084-.017" transform="translate(-42.134 -60.853)" fill="#b4b4b5"/>
        <path id="Path_824584" data-name="Path 824584" d="M40.714,122.828c-5.333,0-10.664-.013-16,.017-.67,0-.817-.176-.81-.823.035-3.222.029-6.445,0-9.667,0-.571.078-.8.738-.8q16.172.034,32.345,0c.583,0,.723.165.719.73q-.04,4.921,0,9.843c.006.6-.19.712-.74.71-5.42-.019-10.84-.011-16.26-.011" transform="translate(-7.022 -32.764)" fill="#b4b4b5"/>
        <path id="Path_824585" data-name="Path 824585" d="M160.276,122.829c-5.333,0-10.664-.012-16,.016-.65,0-.829-.146-.821-.812.038-3.251.032-6.5,0-9.755,0-.582.163-.72.73-.72q16.172.025,32.345,0c.566,0,.735.135.73.719-.03,3.251-.035,6.5,0,9.755.008.665-.169.816-.821.812-5.39-.028-10.782-.016-16.172-.016" transform="translate(-42.135 -32.766)" fill="#b4b4b5"/>
        <path id="Path_824586" data-name="Path 824586" d="M40.722,146.737c-5.332,0-10.664-.012-16,.017-.654,0-.827-.152-.819-.814.037-3.252.032-6.5,0-9.755-.006-.586.169-.719.732-.718q16.172.024,32.345,0c.569,0,.733.143.727.722-.028,3.251-.035,6.5,0,9.755.008.67-.175.814-.823.811-5.39-.028-10.782-.016-16.172-.016" transform="translate(-7.022 -39.788)" fill="#b4b4b5"/>
        <path id="Path_824587" data-name="Path 824587" d="M160.292,146.737c-5.332,0-10.664-.01-16,.014-.619,0-.848-.1-.839-.792.043-3.252.032-6.5.007-9.755,0-.553.115-.739.711-.738q16.172.03,32.345,0c.537,0,.754.088.748.7q-.05,4.921,0,9.843c.008.663-.234.739-.8.737-5.39-.02-10.782-.013-16.172-.013" transform="translate(-42.134 -39.787)" fill="#b4b4b5"/>
        <path id="Path_824588" data-name="Path 824588" d="M40.812,159.387c5.361,0,10.723.012,16.084-.016.65,0,.828.145.821.812-.039,3.251-.032,6.5,0,9.755,0,.582-.163.721-.73.72q-16.172-.025-32.345,0c-.568,0-.735-.14-.73-.72.029-3.252.035-6.5,0-9.755-.008-.667.172-.814.821-.81,5.361.028,10.723.016,16.084.016" transform="translate(-7.021 -46.809)" fill="#b4b4b5"/>
        <path id="Path_824589" data-name="Path 824589" d="M160.457,159.387c5.332,0,10.664.013,16-.016.659,0,.824.157.816.816-.037,3.222-.029,6.445,0,9.667,0,.563-.064.809-.732.808q-16.172-.035-32.345,0c-.576,0-.728-.153-.724-.725q.041-4.922,0-9.844c-.006-.591.177-.716.735-.714,5.42.02,10.84.012,16.26.012" transform="translate(-42.136 -46.809)" fill="#b4b4b5"/>
        <path id="Path_824590" data-name="Path 824590" d="M40.811,183.3c5.361,0,10.723.012,16.084-.016.648,0,.83.141.822.809-.039,3.252-.032,6.5,0,9.755,0,.58-.16.722-.729.721q-16.172-.025-32.344,0c-.566,0-.736-.137-.73-.72.028-3.251.035-6.5,0-9.755-.008-.666.17-.815.821-.812,5.361.028,10.723.016,16.084.016" transform="translate(-7.021 -53.831)" fill="#b4b4b5"/>
        <path id="Path_824591" data-name="Path 824591" d="M160.359,183.3c5.361,0,10.723.011,16.084-.016.641,0,.835.129.826.806-.04,3.251-.033,6.5,0,9.755,0,.573-.148.727-.724.726q-16.172-.026-32.345,0c-.669,0-.737-.245-.732-.807.024-3.223.032-6.446,0-9.668-.008-.658.158-.819.816-.816,5.361.03,10.723.016,16.084.016" transform="translate(-42.135 -53.831)" fill="#b4b4b5"/>
        <path id="Path_824592" data-name="Path 824592" d="M40.816,218.463c-5.361,0-10.723-.011-16.084.016-.641,0-.835-.13-.827-.806.04-3.252.032-6.5,0-9.755,0-.573.148-.726.724-.725q16.172.027,32.345,0c.667,0,.737.241.733.806-.025,3.222-.032,6.445,0,9.667.008.655-.153.822-.814.818-5.361-.03-10.723-.016-16.084-.016" transform="translate(-7.021 -60.853)" fill="#b4b4b5"/>
        <path id="Path_824593" data-name="Path 824593" d="M134.82,40.789c-1.8,0-3.515.026-5.23-.014-.586-.014-.98-.5-1.391-.869-3.75-3.322-7.485-6.663-11.236-9.984-1.955-1.732-3.932-3.438-5.905-5.149a.712.712,0,0,1-.307-.506c.008-.307.4-.282.516-.285,1.492-.043,2.986-.042,4.479-.023.338,0,.554.3.8.512q8.621,7.632,17.239,15.267c.334.3.806.473,1.04,1.051" transform="translate(-32.528 -7.033)" fill="#6ac13a"/>
        <path id="Path_824594" data-name="Path 824594" d="M141.58,23.935c-.336.73-.969.98-1.427,1.4-1.074.992-2.188,1.94-3.264,2.93-.316.291-.545.352-.881.035-.659-.622-1.341-1.22-2.031-1.809-.343-.292-.275-.5.037-.756.561-.468,1.094-.969,1.644-1.451a1.231,1.231,0,0,1,.789-.348c1.684-.011,3.368,0,5.133,0" transform="translate(-39.283 -7.03)" fill="#549b2c"/>
        <path id="Path_824595" data-name="Path 824595" d="M113.275,45.947c-.76,0-1.521,0-2.281,0-.164,0-.382.064-.473-.125s.09-.319.216-.428c1.414-1.222,2.838-2.432,4.246-3.661a.629.629,0,0,1,1.026.036,24.028,24.028,0,0,0,2.012,1.734c.355.281.238.458-.023.684-.419.364-.849.718-1.237,1.114a2.044,2.044,0,0,1-1.644.66c-.612-.029-1.228-.006-1.842-.006Z" transform="translate(-32.454 -12.183)" fill="#549b2c"/>
        <path id="Path_824596" data-name="Path 824596" d="M105.266,82.923l-.34,0c-.129-.136-.245-.114-.35.03q-8.166.017-16.332.041c-.407,0-.563-.112-.562-.542.013-3.4.007-6.79.008-10.185,0-.255-.018-.663.358-.509.626.256,1.192-.019,1.783-.019q11.591-.006,23.183.017a2.119,2.119,0,0,1-.236,1.184,27.817,27.817,0,0,1-7.007,8.876,1.265,1.265,0,0,0-.5,1.111" transform="translate(-25.753 -21.065)" fill="#6ac13a"/>
        <path id="Path_824597" data-name="Path 824597" d="M112.577,82.878a1.265,1.265,0,0,1,.5-1.111,27.818,27.818,0,0,0,7.007-8.876,2.12,2.12,0,0,0,.236-1.184c.9-.017,2.039-.377,2.633.126.573.485.171,1.651.179,2.514.025,2.631.01,5.263.008,7.894,0,.343.083.71-.489.7-3.36-.034-6.72-.047-10.08-.066" transform="translate(-33.065 -21.019)" fill="#549b2c"/>
        <path id="Path_824598" data-name="Path 824598" d="M111.6,87.569c.105-.144.22-.167.35-.03l-.35.03" transform="translate(-32.778 -25.684)" fill="#549b2c"/>
        <path id="Path_824599" data-name="Path 824599" d="M38,71.731c4.4,0,8.79.012,13.185-.013.655,0,.909.123.9.855-.043,3.192-.037,6.387,0,9.58.007.649-.155.838-.824.836q-13.274-.031-26.546,0c-.6,0-.8-.138-.8-.771q.047-4.878,0-9.756c-.006-.656.241-.756.816-.754,4.424.02,8.848.011,13.273.011Z" transform="translate(-7.022 -21.062)" fill="#549b2c"/>
        <path id="Path_824600" data-name="Path 824600" d="M165.425,82.987c-4.4,0-8.795-.016-13.191.016-.667,0-.826-.18-.819-.83q.051-4.836,0-9.673c-.008-.684.207-.809.84-.807q13.236.036,26.471.01c.678,0,.891.156.881.864q-.06,4.748,0,9.5c.009.712-.145.938-.9.932-4.426-.039-8.853-.019-13.28-.019Z" transform="translate(-44.471 -21.057)" fill="#6ac13a"/>
      </g>
    </g>
  </g>
</svg>
