<svg xmlns="http://www.w3.org/2000/svg" xmlns:xlink="http://www.w3.org/1999/xlink" width="190" height="190" viewBox="0 0 190 190">
  <defs>
    <clipPath id="clip-path">
      <rect id="Rectangle_378556" data-name="Rectangle 378556" width="190" height="190" transform="translate(1131 4303)" fill="#fff" stroke="#707070" stroke-width="1"/>
    </clipPath>
    <clipPath id="clip-path-2">
      <rect id="Rectangle_378559" data-name="Rectangle 378559" width="169.714" height="169.638" fill="none"/>
    </clipPath>
  </defs>
  <g id="Mask_Group_436" data-name="Mask Group 436" transform="translate(-1131 -4303)" clip-path="url(#clip-path)">
    <g id="Group_1074889" data-name="Group 1074889" transform="translate(1152 4325)">
      <g id="Group_1074888" data-name="Group 1074888" transform="translate(-11.714 -11.709)" clip-path="url(#clip-path-2)">
        <path id="Path_824601" data-name="Path 824601" d="M9.339,107.919a.944.944,0,0,1-.292.109c-2.07.032-4.139.089-6.209.072a2.611,2.611,0,0,1-2.822-2.206,2.465,2.465,0,0,1,2.49-2.717c2.208-.016,4.418-.01,6.624.058.705.021.866-.174.852-.855-.046-2.179-.031-4.36-.008-6.54.006-.519-.078-.754-.682-.67a7.537,7.537,0,0,1-2.063-.047A2.528,2.528,0,0,1,5,92.742a2.383,2.383,0,0,1,2.332-2.427,17.325,17.325,0,0,1,2.151-.023c.351.009.486-.09.484-.461q-.02-3.56,0-7.119c0-.425-.158-.477-.54-.472-2.18.031-4.36.035-6.54.036a2.634,2.634,0,0,1-2.646-1.61,2.427,2.427,0,0,1,1.687-3.141,26.217,26.217,0,0,1,4.625-.088q1.408.008,2.815.066c.423.018.6-.128.595-.564q-.017-3.518,0-7.037c0-.427-.189-.5-.553-.5-.662.017-1.326.019-1.988,0a2.6,2.6,0,0,1-2.436-2.389,2.523,2.523,0,0,1,2.219-2.432,4.586,4.586,0,0,1,1.81-.065c1,.262,1.094-.446,1.038-.993-.215-2.139-.045-4.277-.08-6.414-.009-.568-.177-.642-.7-.632-2.262.044-4.526.037-6.789.037a2.453,2.453,0,0,1-1.9-1A2.391,2.391,0,0,1,2.323,51.66a32.3,32.3,0,0,1,4.8-.016c.8.046,1.6,0,2.4.051.384.025.455-.136.453-.477q-.017-3.519,0-7.037c0-.366-.116-.465-.471-.468-.771-.007-1.546-.027-2.312-.106a2.484,2.484,0,0,1-2.2-2.68,2.307,2.307,0,0,1,2.225-2.17,11.524,11.524,0,0,1,2.112-.138c.538.018.644-.239.64-.707q-.022-3.353,0-6.706c0-.431-.092-.535-.553-.521-2.1.065-4.195.071-6.292.1a4.337,4.337,0,0,1-1.847-.355A2.053,2.053,0,0,1,.04,28.2a2.327,2.327,0,0,1,1.386-2.119,3.546,3.546,0,0,1,1.592-.267c2.095.079,4.195.017,6.292.059.564.012.671-.17.665-.689-.027-2.207-.033-4.416,0-6.623.009-.566-.178-.661-.692-.667-1.052-.011-2.128.2-3.128-.417A2.893,2.893,0,0,1,5,14.733a2.568,2.568,0,0,1,2.077-1.719,13.5,13.5,0,0,1,2.149-.038c.556.033.737-.229.739-.7.007-2.1-.007-4.194.013-6.292,0-.37-.433-.5-.368-.871.124.007.277.082.323-.112.009-.039-.029-.123-.059-.13-.156-.039-.322-.07-.358.164a19.36,19.36,0,0,0-3.3-.093c-1.242-.015-2.484.025-3.727.033A2.611,2.611,0,0,1,.034,3.244C-.153,1.652.528.468,1.92.17A5.276,5.276,0,0,1,3.033.023c3.121,0,6.244-.074,9.36.047a2.322,2.322,0,0,1,2.4,2.162,29.645,29.645,0,0,1,.1,3.041q0,72.749,0,145.5c0,.994.051,1.99-.006,2.98-.045.784.288,1,1.009,1q10.728-.022,21.457-.017a4.833,4.833,0,0,1,1.774.265,2.423,2.423,0,0,1,1.522,2.386c.067,1.654.051,3.311.064,4.967.013,1.518.052,3.037.021,4.554a2.553,2.553,0,0,1-2.824,2.7,2.5,2.5,0,0,1-2.1-2.123c-.008-2.346-.025-4.693.007-7.038.009-.589-.1-.783-.746-.78q-9.735.044-19.469,0c-.676,0-.757.248-.745.81q.063,3.228.061,6.458a2.573,2.573,0,0,1-1.726,2.549A2.524,2.524,0,0,1,10,167.155q-.072-3.311-.014-6.623c.011-.657-.1-.887-.828-.869-2.236.056-4.473.021-6.71.02A2.606,2.606,0,0,1,0,157.07a2.543,2.543,0,0,1,2.448-2.363c2.208.048,4.418.013,6.627.066.638.015.891-.19.89-.809-.009-2.042.007-4.085-.009-6.127-.006-.719-.332-1.134-1.134-1.094a5.918,5.918,0,0,1-2.12-.146,2.423,2.423,0,0,1-1.711-2.169A2.456,2.456,0,0,1,6.552,142.1a4.829,4.829,0,0,1,2.063-.3c1.35-.009,1.35,0,1.35-1.388,0-1.877-.053-3.756.024-5.63.035-.842-.244-.969-1-.951-2.234.053-4.472.025-6.708.013a2.362,2.362,0,0,1-2.254-1.88c-.181-1.738.645-2.782,1.947-2.948a37.533,37.533,0,0,1,4.469-.072,26.47,26.47,0,0,1,2.813.082c.595.059.7-.25.7-.676.013-2.236,0-4.472.013-6.708,0-.453-.225-.558-.622-.552a10.865,10.865,0,0,1-2.117-.148A2.73,2.73,0,0,1,5,118.486,2.483,2.483,0,0,1,7.409,116.1a19.714,19.714,0,0,1,2.2-.136c.306.011.364-.124.364-.393-.007-2.373-.012-4.747.005-7.121a.551.551,0,0,0-.382-.542c-.09-.116-.175-.118-.253.013" transform="translate(0 0)"/>
        <path id="Path_824602" data-name="Path 824602" d="M115.286,238.311c.011,2.007.013,4.014.037,6.021a3.97,3.97,0,0,1-.285,1.841,2.382,2.382,0,0,1-4.491-.6,13.411,13.411,0,0,1-.069-2.634c.016-1.594.013-3.189.018-4.783a.282.282,0,0,0,.007-.372c-.069-.075-.2-.065-.223.092-6.746-.4-13.5-.062-20.247-.189-.48-.009-.525.179-.519.574.029,2.1.033,4.194.051,6.291a3.681,3.681,0,0,1-.406,1.8,2.5,2.5,0,0,1-2.87,1.12,2.605,2.605,0,0,1-1.576-1.931,7.557,7.557,0,0,1-.1-1.483c.109-1.986-.156-3.975.089-5.959.072-.58-.419-.39-.7-.39-3.617-.011-7.234-.007-10.851-.009-.608,0-1.215-.031-1.822-.015a2.591,2.591,0,0,1-2.2-3.892,2.564,2.564,0,0,1,2.246-1.023c.739-.067,1.49-.014,2.235-.014q57.4,0,114.806-.006a6.811,6.811,0,0,0,2.5.029c.352-.126,1.6,1.207,1.649,1.77a15.634,15.634,0,0,1,.206,1.7c-.035,2.732-.015,5.464-.016,8.2a3.745,3.745,0,0,1-.48,1.943,2.64,2.64,0,0,1-2.439,1.234,2.206,2.206,0,0,1-1.911-2.028c-.283-2.233-.031-4.477-.093-6.716-.033-1.171-.008-1.173-1.2-1.173-6.323,0-12.646.009-18.969-.015-.6,0-.789.11-.775.751.048,2.152.017,4.305.023,6.458a3.651,3.651,0,0,1-.331,1.657,2.823,2.823,0,0,1-2.9.959,2.422,2.422,0,0,1-1.6-1.9c-.046-.234,0-.506-.226-.68.233.032.178-.13.164-.249s-.09-.179-.214-.1c.261-.179.158-.451.158-.683,0-1.819-.041-3.638-.017-5.456.008-.6-.212-.747-.773-.746q-9.774.022-19.546,0c-.481,0-.594.144-.582.6q.081,3.184.1,6.369a2.813,2.813,0,0,1-1.552,2.736,2.353,2.353,0,0,1-3.337-1.909c-.047-1.323-.09-2.651-.033-3.972.048-1.1-.179-2.181-.134-3.274.019-.461-.239-.542-.624-.542q-8.534.007-17.068,0c-.856,0-1.712.015-2.567-.007-.408-.01-.656.072-.549.546l-.039.038.037.04" transform="translate(-23.06 -78.011)"/>
        <path id="Path_824603" data-name="Path 824603" d="M188.52,48.61a8.838,8.838,0,0,1,9.053,8.872,9.051,9.051,0,0,1-8.993,9,8.681,8.681,0,0,1-5.4-1.905c-2.058-1.557-2.889-3.907-3.66-6.257.2-5.359,3.509-9.72,9-9.711m.065,12.764A3.8,3.8,0,0,0,192.6,57.7a3.92,3.92,0,0,0-7.826-.464,3.822,3.822,0,0,0,3.807,4.142" transform="translate(-60.173 -16.292)"/>
        <path id="Path_824604" data-name="Path 824604" d="M121.66,115.6c-.278-4.813,4.186-9.082,8.946-8.941a8.971,8.971,0,0,1,8.788,7.668,8.619,8.619,0,0,1-2.528,7.594,9.233,9.233,0,0,1-6.18,2.661c-4.778.253-9.316-4.538-9.026-8.982m8.946-3.808c-2.51,0-4.013,1.564-3.952,4.237a3.933,3.933,0,0,0,3.934,3.55c2.339,0,3.824-1.662,3.835-4.272a3.534,3.534,0,0,0-3.818-3.515" transform="translate(-40.776 -35.751)"/>
        <path id="Path_824605" data-name="Path 824605" d="M52.871,202.088c-4.584.378-9.035-4.287-8.934-8.962a8.957,8.957,0,1,1,17.9.652c-.168,4.215-4.124,8.557-8.965,8.311m3.968-8.858a3.849,3.849,0,0,0-4.077-3.9,3.787,3.787,0,0,0-3.728,3.807,3.9,3.9,0,1,0,7.8.088" transform="translate(-14.727 -61.784)"/>
        <path id="Path_824606" data-name="Path 824606" d="M160.543,134.962a8.781,8.781,0,0,1,8.833-8.884,8.923,8.923,0,0,1,1.119,17.776,8.477,8.477,0,0,1-6.718-1.925,8.315,8.315,0,0,1-3.234-6.968m12.757.191a3.868,3.868,0,0,0-3.94-4.047,3.778,3.778,0,0,0-3.872,3.822,3.9,3.9,0,0,0,3.912,4.038,3.742,3.742,0,0,0,3.9-3.813" transform="translate(-53.808 -42.261)"/>
        <path id="Path_824607" data-name="Path 824607" d="M130.521,202.088c-4.686.33-8.975-4.464-8.934-8.958a9.115,9.115,0,0,1,8.291-8.8,8.893,8.893,0,1,1,.644,17.756M134.4,193.3a3.87,3.87,0,0,0-3.637-3.994,3.934,3.934,0,0,0-4.144,3.86,4.011,4.011,0,0,0,4.014,3.962A3.686,3.686,0,0,0,134.4,193.3" transform="translate(-40.756 -61.784)"/>
        <path id="Path_824608" data-name="Path 824608" d="M91.578,143.823c-4.631.431-9.164-4.418-8.825-9.27a8.9,8.9,0,0,1,9.033-8.43,8.679,8.679,0,0,1,8.823,8.829c.1,4.826-3.978,9.258-9.031,8.871m3.949-8.729a3.63,3.63,0,0,0-3.934-3.96,3.675,3.675,0,0,0-3.717,3.915,4.036,4.036,0,0,0,3.839,3.972,3.683,3.683,0,0,0,3.811-3.927" transform="translate(-27.733 -42.276)"/>
        <path id="Path_824609" data-name="Path 824609" d="M236.344,76.893c.351,4.709-3.928,8.8-8.73,8.884a9.169,9.169,0,0,1-9-9.441A8.856,8.856,0,0,1,228.5,68a8.611,8.611,0,0,1,7.847,8.892m-8.9-3.908a3.788,3.788,0,0,0-3.838,3.872,3.97,3.97,0,0,0,7.938.107c.146-1.943-2.3-4.231-4.1-3.979" transform="translate(-73.274 -22.781)"/>
        <path id="Path_824610" data-name="Path 824610" d="M236.349,154.614c.306,4.709-4.137,8.944-9.238,8.795a9.1,9.1,0,0,1-8.49-9.557,8.855,8.855,0,0,1,8.985-8.325,8.61,8.61,0,0,1,8.743,9.087m-8.923-4.132a3.954,3.954,0,0,0,.074,7.9,3.684,3.684,0,0,0,4-3.936c.029-2.357-1.54-3.9-4.072-3.968" transform="translate(-73.279 -48.78)"/>
        <path id="Path_824611" data-name="Path 824611" d="M236.362,18.713c.386,4.574-3.948,9.135-9.265,8.854A8.84,8.84,0,0,1,218.671,18c.312-5.007,3.914-8.079,8.8-8.385a8.278,8.278,0,0,1,6.354,2.605,8.788,8.788,0,0,1,2.536,6.488m-4.793-.158a3.976,3.976,0,1,0-3.91,4.022,3.873,3.873,0,0,0,3.91-4.022" transform="translate(-73.292 -3.22)"/>
        <path id="Path_824612" data-name="Path 824612" d="M188.583,87.471c4.984-.3,9.3,3.6,9.111,9.409a8.942,8.942,0,0,1-8.863,8.337,8.958,8.958,0,0,1-7-14.517,7.879,7.879,0,0,1,6.753-3.229m-3.646,8.695a3.9,3.9,0,1,0,7.8.223,3.9,3.9,0,0,0-3.543-3.952c-2.637-.019-4.234,1.381-4.258,3.73" transform="translate(-60.315 -29.314)"/>
        <path id="Path_824613" data-name="Path 824613" d="M61.826,154.517a8.83,8.83,0,0,1-8.68,8.892,8.953,8.953,0,0,1-9.156-8.863c.059-5,3.4-8.967,8.913-8.947,5.115.019,8.781,3.434,8.924,8.918m-4.971.051a3.819,3.819,0,0,0-3.966-4.068,3.936,3.936,0,0,0-3.856,3.973,4.045,4.045,0,0,0,3.887,3.97,3.8,3.8,0,0,0,3.935-3.874" transform="translate(-14.745 -48.805)"/>
        <path id="Path_824614" data-name="Path 824614" d="M100.5,173.776c.249,5.343-4.184,8.523-8.015,8.9-5.613.552-10.025-4.412-9.728-9.558a9.151,9.151,0,0,1,9.447-8.242,8.788,8.788,0,0,1,8.3,8.9m-4.806-.009a3.963,3.963,0,1,0-3.852,3.956,3.844,3.844,0,0,0,3.852-3.956" transform="translate(-27.735 -55.262)"/>
        <path id="Path_824615" data-name="Path 824615" d="M131.185,240.4c.025-.156.154-.166.223-.092a.282.282,0,0,1-.007.372c-.263.053-.26-.1-.216-.281" transform="translate(-43.966 -80.535)" fill="#92e167"/>
        <path id="Path_824616" data-name="Path 824616" d="M14.3,7.48c.036-.234.2-.2.358-.164.031.007.068.092.059.13-.047.194-.2.119-.324.112-.076.027-.12.017-.093-.078" transform="translate(-4.792 -2.443)" fill="#9054e1"/>
        <path id="Path_824617" data-name="Path 824617" d="M208.682,250.521c.124-.077.2-.029.214.1s.07.281-.164.249c-.162-.1-.112-.224-.051-.351" transform="translate(-69.931 -83.963)" fill="#9054e1"/>
        <path id="Path_824618" data-name="Path 824618" d="M14.046,162.283c.078-.132.164-.13.253-.013-.044.054-.08.141-.133.154-.084.021-.138-.043-.12-.141" transform="translate(-4.707 -54.364)" fill="#92e167"/>
        <path id="Path_824619" data-name="Path 824619" d="M138.708,241.086l-.037-.04.039-.038.054.073-.056,0" transform="translate(-46.483 -80.786)" fill="#92e167"/>
        <path id="Path_824620" data-name="Path 824620" d="M191.235,63.865a3.822,3.822,0,0,1-3.807-4.142,3.92,3.92,0,0,1,7.826.464,3.8,3.8,0,0,1-4.019,3.678" transform="translate(-62.823 -18.783)" fill="#f1d848"/>
        <path id="Path_824621" data-name="Path 824621" d="M133.13,114.362a3.534,3.534,0,0,1,3.818,3.515c-.011,2.61-1.5,4.273-3.835,4.272a3.933,3.933,0,0,1-3.934-3.55c-.062-2.672,1.442-4.238,3.952-4.237" transform="translate(-43.3 -38.322)" fill="#f1d848"/>
        <path id="Path_824622" data-name="Path 824622" d="M59.408,195.758a3.9,3.9,0,1,1-7.8-.088,3.787,3.787,0,0,1,3.728-3.807,3.849,3.849,0,0,1,4.077,3.9" transform="translate(-17.297 -64.313)" fill="#13cdfc"/>
        <path id="Path_824623" data-name="Path 824623" d="M175.8,137.687a3.742,3.742,0,0,1-3.9,3.813,3.9,3.9,0,0,1-3.912-4.038,3.778,3.778,0,0,1,3.872-3.822,3.868,3.868,0,0,1,3.94,4.047" transform="translate(-56.31 -44.796)" fill="#13cdfc"/>
        <path id="Path_824624" data-name="Path 824624" d="M136.937,195.815a3.686,3.686,0,0,1-3.767,3.828,4.011,4.011,0,0,1-4.014-3.962,3.934,3.934,0,0,1,4.144-3.86,3.87,3.87,0,0,1,3.637,3.994" transform="translate(-43.293 -64.296)" fill="#9054e1"/>
        <path id="Path_824625" data-name="Path 824625" d="M98.119,137.619a3.683,3.683,0,0,1-3.811,3.927,4.036,4.036,0,0,1-3.839-3.972,3.675,3.675,0,0,1,3.717-3.915,3.63,3.63,0,0,1,3.934,3.96" transform="translate(-30.325 -44.801)" fill="#9054e1"/>
        <path id="Path_824626" data-name="Path 824626" d="M229.972,75.507c1.8-.252,4.245,2.037,4.1,3.979a3.97,3.97,0,0,1-7.938-.107,3.788,3.788,0,0,1,3.838-3.872" transform="translate(-75.8 -25.304)" fill="#13cdfc"/>
        <path id="Path_824627" data-name="Path 824627" d="M229.95,152.981c2.532.065,4.1,1.611,4.072,3.968a3.684,3.684,0,0,1-4,3.936,3.954,3.954,0,0,1-.074-7.9" transform="translate(-75.802 -51.279)" fill="#f1d848"/>
        <path id="Path_824628" data-name="Path 824628" d="M234.072,21.106a3.873,3.873,0,0,1-3.91,4.022,3.958,3.958,0,1,1,3.91-4.022" transform="translate(-75.795 -5.77)" fill="#92e167"/>
        <path id="Path_824629" data-name="Path 824629" d="M187.459,98.678c.024-2.349,1.621-3.748,4.258-3.73a3.9,3.9,0,0,1-.386,7.785,3.864,3.864,0,0,1-3.872-4.055" transform="translate(-62.836 -31.827)" fill="#9054e1"/>
        <path id="Path_824630" data-name="Path 824630" d="M59.4,157.038a3.8,3.8,0,0,1-3.935,3.874,4.045,4.045,0,0,1-3.887-3.97,3.936,3.936,0,0,1,3.856-3.973,3.819,3.819,0,0,1,3.966,4.068" transform="translate(-17.289 -51.275)" fill="#f1d848"/>
        <path id="Path_824631" data-name="Path 824631" d="M98.227,176.295a3.844,3.844,0,0,1-3.852,3.956,3.925,3.925,0,1,1,3.852-3.956" transform="translate(-30.269 -57.79)" fill="#92e167"/>
      </g>
    </g>
  </g>
</svg>
