<svg xmlns="http://www.w3.org/2000/svg" xmlns:xlink="http://www.w3.org/1999/xlink" width="190" height="190" viewBox="0 0 190 190">
  <defs>
    <clipPath id="clip-path">
      <rect id="Rectangle_378564" data-name="Rectangle 378564" width="190" height="190" transform="translate(1131 4303)" fill="#fff" stroke="#707070" stroke-width="1"/>
    </clipPath>
    <clipPath id="clip-path-2">
      <rect id="Rectangle_378569" data-name="Rectangle 378569" width="190" height="155.748" fill="none"/>
    </clipPath>
  </defs>
  <g id="Mask_Group_437" data-name="Mask Group 437" transform="translate(-1131 -4303)" clip-path="url(#clip-path)">
    <g id="Group_1074895" data-name="Group 1074895" transform="translate(1131 4320)">
      <g id="Group_1074894" data-name="Group 1074894" clip-path="url(#clip-path-2)">
        <path id="Path_824632" data-name="Path 824632" d="M150.682,100.156a6.453,6.453,0,0,1-5.534-6.112c-.06-4.169-.036-8.34-.019-12.51,0-.658-.161-.938-.875-.937q-14.466.036-28.932.019a1.536,1.536,0,0,0-1.5.8q-5.468,8.569-11.009,17.092c-2.427,3.753-4.87,7.494-7.288,11.253-.2.313-.763.569-.568.921.246.443.844.219,1.285.218,3.212-.008,6.437-.22,9.63,0a6.575,6.575,0,0,1,5.232,3.014,7.725,7.725,0,0,1,1.035,4.416q-.007,13.254-.014,26.506c0,1.743.022,3.491-.09,5.229a5.537,5.537,0,0,1-2.648,4.283,7.655,7.655,0,0,1-4.445,1.38c-10.355-.022-20.71.033-31.065-.045a6.409,6.409,0,0,1-5.455-3.118,7.124,7.124,0,0,1-1.057-4.709c.131-1.543.091-3.086.088-4.628q-.022-12.7-.057-25.392a6.931,6.931,0,0,1,1.2-4.221,6.361,6.361,0,0,1,5.256-2.719c4.48-.085,8.964-.019,13.445.035a1.659,1.659,0,0,0,1.621-.886q6.273-9.863,12.6-19.692c1.871-2.919,3.76-5.827,5.606-8.762.561-.892.5-.946-.5-.947Q76.863,80.63,47.1,80.6a1.989,1.989,0,0,0-1.935,1.165,23.69,23.69,0,0,1-1.5,2.183,16.087,16.087,0,0,0-1.3,2.084c-1.469,2.689-3.273,5.162-4.907,7.745-1.834,2.9-3.628,5.828-5.533,8.682-1.666,2.5-3.221,5.058-4.855,7.571a7.945,7.945,0,0,1-.534.659c.3.276.656.168.967.17,3.338.013,6.677-.017,10.014.029a7.416,7.416,0,0,1,3.37.6,6.885,6.885,0,0,1,3.855,5.186,16.164,16.164,0,0,1,.138,2.578c.011,9.824.049,19.648.022,29.471-.013,4.305-2.973,6.876-6.975,6.975-4.6.113-9.211.022-13.816.031-.671,0-1.341-.088-2-.124a2.885,2.885,0,0,1-2.439-2.66c.377-1.932,1.38-2.755,3.413-2.755,4.788,0,9.578.014,14.366,0,1.8,0,1.907-.131,1.907-1.877q0-14.961,0-29.921c0-1.575-.315-1.973-1.951-1.97q-14.691.017-29.382,0c-2.153,0-2.485-.268-2.482,2.453q.015,14.357.016,28.716c0,.525.028,1.049.056,1.573a.932.932,0,0,0,1,.984c.74.026,1.482.031,2.223.045,1.982.04,2.636.513,3.292,2.378.183,2.249-1.437,3.09-3.289,3.141-1.886.051-3.759.1-5.469-1.008a6.386,6.386,0,0,1-3.279-5.426C.013,139.451.023,129.627.056,119.8A13.938,13.938,0,0,1,.2,116.052a6.419,6.419,0,0,1,2.636-3.911,8.123,8.123,0,0,1,4.735-1.276c3.863.028,7.728,0,11.591.019a1.193,1.193,0,0,0,1.176-.654c1.878-3.064,3.936-6.013,5.871-9.043q4.152-6.5,8.336-12.986c1.458-2.264,2.925-4.521,4.369-6.8.507-.8.138-.788-.471-.782-.556.005-1.112,0-1.668,0q-14.049,0-28.1,0a3.388,3.388,0,0,1-2.784-.9,2.7,2.7,0,0,1,1.3-4.43,7.929,7.929,0,0,1,1.835-.181q14.188.013,28.376.011c.4,0,.8-.028,1.205-.013.589.021.731-.129.374-.674-2.482-3.785-4.846-7.647-7.364-11.411-2.122-3.173-4.1-6.446-6.153-9.662-1.7-2.659-3.444-5.291-5.125-7.961a1.144,1.144,0,0,0-1.119-.6c-4.173.031-8.348-.018-12.518.1C3.722,44.97.048,42.134.044,38.45.034,27.7-.021,16.949.071,6.2A6.217,6.217,0,0,1,5.42.2,15.336,15.336,0,0,1,8.242.013q14.373,0,28.747.007A10.176,10.176,0,0,1,40.73.632a6.157,6.157,0,0,1,4,5.035,20.715,20.715,0,0,1,.144,3.409c.008,9.577.041,19.154.014,28.73a6.934,6.934,0,0,1-7.076,7.055c-3.678.016-7.356,0-11.035.008-.052,0-.1.042-.211.086,1.121,1.807,2.258,3.593,3.348,5.405,2.229,3.706,4.727,7.238,6.984,10.927,1.559,2.548,3.339,4.963,4.927,7.5,1.219,1.946,2.467,3.873,3.684,5.821a1.1,1.1,0,0,0,1.069.551q29.488-.031,58.978-.04h2.188c-1.32-2.1-2.526-4.049-3.758-5.979q-3.457-5.413-6.94-10.811c-2.693-4.189-5.407-8.366-8.063-12.579a1.86,1.86,0,0,0-1.847-.972c-4.419.063-8.839.047-13.259.079A6.836,6.836,0,0,1,67.6,39.936a9.39,9.39,0,0,1-.228-3c.214-5,.065-10,.086-15.005.021-4.973-.026-9.947-.054-14.92a6.828,6.828,0,0,1,1.525-4.64,6.418,6.418,0,0,1,3.32-2A18.772,18.772,0,0,1,77.523.022Q91.063-.005,104.6.03a8.45,8.45,0,0,1,4.224.926,6.5,6.5,0,0,1,3.3,5.729c.068,1.263.01,2.532.012,3.8.01,8.743.062,17.485-.013,26.227-.012,1.415.18,2.894-.545,4.3a6.555,6.555,0,0,1-6.024,3.831c-3.274.076-6.552-.008-9.828-.013-.233,0-.533-.2-.69.053s.058.49.214.731c2.309,3.567,4.6,7.148,6.9,10.718q4.84,7.5,9.694,15c.7,1.073,1.439,2.116,2.1,3.212a1.043,1.043,0,0,0,1.026.586q14.7-.013,29.4,0c.422,0,.856-.113.715-.566-.327-1.062.164-2.072.058-3.12-.109-1.07-.013-2.16-.025-3.241a20.847,20.847,0,0,0-.1-3.282,11.312,11.312,0,0,1,.348-4.593,6.067,6.067,0,0,1,6.117-4.832c4.541-.109,9.087-.028,13.631-.019,1.839,0,2.76,1.084,3.159,2.752a1.08,1.08,0,0,0-.179.314,2.5,2.5,0,0,1-2.342,2.408,13.291,13.291,0,0,1-1.942.071c-3.8,0-7.6-.016-11.4-.019-1.455,0-1.772.308-1.772,1.677V92.866c0,1.629.232,1.871,1.872,1.871q15.013,0,30.025-.007c1.564,0,1.853-.274,1.856-1.819q.015-7.224,0-14.449,0-7.918-.011-15.837c0-1.252-.339-1.583-1.6-1.6-1.2-.015-2.409,0-3.614-.005a3.016,3.016,0,0,1-3.4-2.689c.076-.125.134-.246-.071-.307a4.538,4.538,0,0,1,.894-1.816,3.6,3.6,0,0,1,2.439-.735,22.477,22.477,0,0,1,4.257.007,6.757,6.757,0,0,1,5.155,2.573,6.423,6.423,0,0,1,1.323,3.8c.44,10.11.135,20.225.14,30.338,0,1.941-.048,4.031-1.6,5.676a6.867,6.867,0,0,1-5.169,2.349c-8.464,0-16.929-.042-25.395-.057-2.255,0-4.51.035-6.764.055-.073-.132-.18-.109-.292-.063m-61.072,50v-.01q7.511,0,15.022,0c1.685,0,2.058-.37,2.057-2.034q0-14.873-.016-29.746c0-1.52-.438-1.942-1.98-1.943l-29.95-.006c-1.621,0-1.814.182-1.815,1.774q-.007,8.99,0,17.978,0,5.977,0,11.954c0,1.9.123,2.028,2.04,2.031q7.324.011,14.65,0M72.93,22.352h-.016q0,7.6,0,15.193c0,1.525.254,1.765,1.783,1.764l30.126-.005c1.635,0,1.861-.218,1.862-1.88q0-13.619-.007-27.237c0-1.019.014-2.038-.005-3.057-.022-1.171-.385-1.517-1.578-1.547-.309-.007-.618,0-.926,0L75.99,5.573c-.587,0-1.176-.026-1.761.016-.94.068-1.3.461-1.3,1.384q-.006,7.689,0,15.379M22.319,39.31v0H37.7c1.392,0,1.645-.255,1.645-1.674q0-15.237,0-30.473c0-.155-.01-.31,0-.464.052-.705-.371-1-.98-1.11a5.386,5.386,0,0,0-.924-.051Q22.573,5.545,7.7,5.565c-1.97,0-2.118.135-2.122,2.131q-.029,13.569-.02,27.139c0,1.049-.013,2.1.024,3.148.041,1.168.215,1.324,1.354,1.325q7.693.006,15.385,0" transform="translate(0 0)"/>
        <path id="Path_824633" data-name="Path 824633" d="M227.563,78.328a3.015,3.015,0,0,0,3.4,2.689c1.2.007,2.41-.01,3.614.005,1.261.016,1.6.347,1.6,1.6q.015,7.918.01,15.837,0,7.224,0,14.449c0,1.544-.292,1.818-1.856,1.819q-15.013.009-30.026.007c-1.64,0-1.872-.243-1.872-1.871V82.667c0-1.369.318-1.679,1.772-1.677,3.8,0,7.6.017,11.4.019a13.284,13.284,0,0,0,1.941-.071,2.5,2.5,0,0,0,2.342-2.408,1.114,1.114,0,0,1,.179-.314l6.132-.073.505,0,.423.007c.1.173.286.128.436.174M211.857,95.09a2.138,2.138,0,0,0-1.77.593,2.647,2.647,0,0,0,.059,4.2c2.045,1.927,4.155,3.784,6.238,5.669,1.748,1.583,3.305,1.459,4.838-.373q1.217-1.455,2.456-2.895c2.112-2.458,4.272-4.877,6.325-7.383a2.529,2.529,0,0,0-.358-3.724,2.58,2.58,0,0,0-3.847.274c-.383.4-.739.83-1.1,1.252-1.932,2.248-3.872,4.489-5.783,6.754-.387.458-.612.5-1.075.057-1.293-1.238-2.648-2.412-3.986-3.6a2.432,2.432,0,0,0-1.994-.817" transform="translate(-51.798 -19.995)" fill="#74ccd4"/>
        <path id="Path_824634" data-name="Path 824634" d="M14.026,192.6c-.656-1.866-1.31-2.338-3.293-2.378-.74-.015-1.482-.02-2.223-.045a.933.933,0,0,1-1-.984c-.027-.524-.055-1.048-.055-1.573q-.011-14.359-.016-28.716c0-2.721.328-2.455,2.482-2.453q14.691.012,29.382,0c1.636,0,1.952.4,1.951,1.97q-.01,14.96,0,29.921c0,1.746-.1,1.873-1.907,1.877-4.788.01-9.578-.007-14.367,0-2.032,0-3.036.824-3.413,2.756-1.641.182-3.282-.065-4.921,0a6.308,6.308,0,0,1-2.62-.375m9.661-13.209v.052c-2.842,0-5.688-.094-8.525.032a2.633,2.633,0,0,0-2.293,3.765c.57,1.508,1.868,1.708,3.252,1.708q7.786,0,15.571-.013a7.5,7.5,0,0,0,1.472-.139,2.473,2.473,0,0,0,1.977-2.142,2.6,2.6,0,0,0-1.345-2.88,5.633,5.633,0,0,0-2.416-.383q-3.846,0-7.693,0m-2.63-3.312v.016c1.421,0,2.844.014,4.265-.006a10,10,0,0,0,2.545-.153,2.456,2.456,0,0,0,2.082-2.2c.092-1.674-.391-2.447-1.845-2.9a6.113,6.113,0,0,0-1.871-.3c-3,.021-6,.007-8.995.01a12.073,12.073,0,0,0-2.374.164,2.691,2.691,0,0,0-2.175,3.033,2.8,2.8,0,0,0,2.527,2.345c1.947-.022,3.895-.006,5.842-.006M18.6,167.206v.057c1.079,0,2.159.027,3.238-.006,2.32-.071,3.087-.871,3.116-3.195a2.412,2.412,0,0,0-2.035-2.253,70.457,70.457,0,0,0-7.08-.167,4.637,4.637,0,0,0-1.513.264,2.865,2.865,0,0,0-1.8,2.777,2.8,2.8,0,0,0,2.468,2.513c1.2.046,2.4.01,3.6.01" transform="translate(-1.904 -40.029)" fill="#f8f2f0"/>
        <path id="Path_824635" data-name="Path 824635" d="M236.055,78.286c-.15-.045-.336,0-.435-.174l.364-.132c.205.06.147.182.071.307" transform="translate(-60.29 -19.953)" fill="#f8f2f0"/>
        <path id="Path_824636" data-name="Path 824636" d="M202.494,134.585c.112-.045.22-.068.292.063.019.13-.025.234-.168.205s-.147-.149-.124-.269" transform="translate(-51.812 -34.428)" fill="#74ccd4"/>
        <path id="Path_824637" data-name="Path 824637" d="M234.876,78.108l-.505,0a.337.337,0,0,1,.505,0" transform="translate(-59.971 -19.957)" fill="#f8f2f0"/>
        <path id="Path_824638" data-name="Path 824638" d="M114.684,190.193q-7.324,0-14.65,0c-1.918,0-2.041-.136-2.04-2.031q0-5.977,0-11.954,0-8.989,0-17.978c0-1.592.193-1.774,1.815-1.774q14.975,0,29.95.006c1.543,0,1.979.423,1.98,1.943q.013,14.873.017,29.746c0,1.665-.374,2.033-2.058,2.034q-7.511.007-15.022,0Zm-.389-22.927c1.723-.158,2.747-1,2.808-2.767a2.528,2.528,0,0,0-2.591-2.753c-2.924-.122-5.857-.061-8.786-.048a2.959,2.959,0,0,0-1.063.284,2.683,2.683,0,0,0-1.48,3.243,2.492,2.492,0,0,0,2.554,1.993c2.8.057,5.611.041,8.417.055.052.088.1.083.141-.007m-.053,8.834V176.1c2.844,0,5.688-.01,8.531.011a3.01,3.01,0,0,0,1.237-.227,2.4,2.4,0,0,0,1.635-2.044c.115-1.265-.121-2.382-1.394-2.933a5.405,5.405,0,0,0-2.144-.363q-4.822.006-9.645,0c-2.133,0-4.266-.021-6.4.008a2.929,2.929,0,0,0-3.058,2.819,2.845,2.845,0,0,0,3.076,2.729c2.72.007,5.44,0,8.16,0m-2.524,3.3c-2.035-.039-4.072-.132-6.105.023a2.753,2.753,0,0,0-2.113,4.262,3.2,3.2,0,0,0,3,1.255q5.322.018,10.645,0a6.974,6.974,0,0,0,1.286-.131,2.744,2.744,0,0,0-.792-5.4c-1.972-.051-3.947-.011-5.921-.011" transform="translate(-25.074 -40.033)" fill="#fddaa5"/>
        <path id="Path_824639" data-name="Path 824639" d="M98,24.265q0-7.689,0-15.379c0-.923.359-1.317,1.3-1.385.584-.042,1.173-.016,1.761-.016l28.18.008c.309,0,.618,0,.926,0,1.193.031,1.557.376,1.578,1.547.019,1.019,0,2.038.005,3.057q0,13.619.007,27.237c0,1.662-.226,1.879-1.861,1.879l-30.126.006c-1.529,0-1.781-.24-1.783-1.764q-.008-7.6,0-15.193Zm16.185,2.87c2.843,0,5.687.013,8.53-.006a2.746,2.746,0,0,0,2.683-1.491,2.877,2.877,0,0,0-.131-2.83,2.913,2.913,0,0,0-2.709-1.217c-2.565-.042-5.13-.016-7.695-.015-2.936,0-5.873-.023-8.808.01a2.79,2.79,0,1,0,.064,5.548q4.033,0,8.066,0m-1.543-14.391v-.028c-.679,0-1.359-.016-2.037,0a38.135,38.135,0,0,0-5.362.134,2.685,2.685,0,0,0-1.833,4.052c.728,1.261,1.922,1.42,3.2,1.421q5.419,0,10.837,0c.77,0,1.543-.027,2.31-.09a2.626,2.626,0,0,0,2.207-3.413,2.565,2.565,0,0,0-2.836-2.066c-2.16-.049-4.322-.012-6.483-.012m-2.388,23.246c1.755-.068,3.546.3,5.264-.159s2.069-1.222,1.962-3.242a2.412,2.412,0,0,0-2.329-2.111q-4.817-.172-9.637,0A2.724,2.724,0,0,0,103,33.145a2.8,2.8,0,0,0,2.989,2.834c1.418.063,2.842.013,4.263.013" transform="translate(-25.073 -1.913)" fill="#fda85b"/>
        <path id="Path_824640" data-name="Path 824640" d="M24.228,41.213q-7.692,0-15.385,0c-1.139,0-1.313-.158-1.354-1.325-.036-1.048-.024-2.1-.023-3.148q0-13.571.02-27.14c0-2,.153-2.127,2.121-2.13q14.874-.026,29.748-.031a5.386,5.386,0,0,1,.924.051c.609.106,1.032.4.98,1.11-.011.154,0,.309,0,.464q0,15.236,0,30.473c0,1.419-.252,1.674-1.645,1.674H24.228Zm-.562-10.825v.065c-2.873,0-5.746-.005-8.619,0a2.585,2.585,0,0,0-2.393,2.7A2.735,2.735,0,0,0,15.1,36q8.621.055,17.244.013a2.758,2.758,0,0,0,2.816-2.2c.191-1.883-.469-2.9-2.226-3.314a7.471,7.471,0,0,0-1.661-.107c-2.534-.01-5.068,0-7.6,0m.157-3.272v.01c2.687,0,5.375-.01,8.062.006a4.249,4.249,0,0,0,1.929-.424,2.6,2.6,0,0,0,1.338-2.863,2.184,2.184,0,0,0-1.569-1.981,7.734,7.734,0,0,0-2.345-.277c-4.973-.019-9.946,0-14.919,0a7.62,7.62,0,0,0-1.838.173,2.654,2.654,0,0,0-1.767,1.808c-.227,2.015.734,3.482,3.047,3.538,2.686.063,5.374.015,8.061.015m-5.11-8.886v.01c1.11,0,2.222.032,3.331-.01A3.267,3.267,0,0,0,24.15,17.5a2.662,2.662,0,0,0,.705-2.885,2.434,2.434,0,0,0-2.4-1.806,52.045,52.045,0,0,0-7.393.016c-1.628.136-2.436,1.283-2.348,3.018a2.784,2.784,0,0,0,2.671,2.386c1.109.029,2.22.006,3.331.006" transform="translate(-1.91 -1.903)" fill="#f8f2f0"/>
        <path id="Path_824641" data-name="Path 824641" d="M214.143,99.318a2.432,2.432,0,0,1,1.994.817c1.339,1.19,2.694,2.363,3.986,3.6.463.443.688.4,1.075-.057,1.912-2.264,3.852-4.506,5.783-6.754.362-.421.717-.85,1.1-1.252a2.58,2.58,0,0,1,3.847-.274,2.529,2.529,0,0,1,.358,3.724c-2.053,2.506-4.213,4.925-6.325,7.383q-1.237,1.44-2.456,2.895c-1.532,1.832-3.09,1.956-4.838.373-2.083-1.886-4.193-3.743-6.238-5.669a2.647,2.647,0,0,1-.059-4.2,2.138,2.138,0,0,1,1.77-.593" transform="translate(-54.085 -24.223)"/>
        <path id="Path_824642" data-name="Path 824642" d="M25.479,187.28q3.846,0,7.693,0a5.63,5.63,0,0,1,2.416.383,2.6,2.6,0,0,1,1.346,2.88,2.473,2.473,0,0,1-1.977,2.142,7.506,7.506,0,0,1-1.472.139q-7.785.018-15.571.013c-1.383,0-2.682-.2-3.252-1.707a2.632,2.632,0,0,1,2.293-3.765c2.837-.127,5.683-.033,8.525-.033v-.051" transform="translate(-3.696 -47.921)"/>
        <path id="Path_824643" data-name="Path 824643" d="M22.859,180.92c-1.947,0-3.9-.016-5.841.006a2.8,2.8,0,0,1-2.528-2.345,2.691,2.691,0,0,1,2.174-3.033,12.022,12.022,0,0,1,2.374-.164c3,0,6,.01,9-.01a6.08,6.08,0,0,1,1.871.3c1.455.452,1.938,1.225,1.845,2.9a2.457,2.457,0,0,1-2.082,2.2,10.069,10.069,0,0,1-2.545.153c-1.421.02-2.843.005-4.265.005v-.015" transform="translate(-3.706 -44.874)"/>
        <path id="Path_824644" data-name="Path 824644" d="M20.341,168.994c-1.2,0-2.4.036-3.6-.01a2.8,2.8,0,0,1-2.468-2.513,2.865,2.865,0,0,1,1.8-2.777,4.637,4.637,0,0,1,1.513-.264,70.461,70.461,0,0,1,7.08.167,2.412,2.412,0,0,1,2.035,2.253c-.029,2.324-.8,3.124-3.116,3.194-1.078.033-2.159.006-3.238.006v-.057" transform="translate(-3.649 -41.817)"/>
        <path id="Path_824645" data-name="Path 824645" d="M115.965,180.942c-2.721,0-5.44.005-8.161,0a2.844,2.844,0,0,1-3.075-2.729,2.928,2.928,0,0,1,3.058-2.819c2.133-.03,4.266-.008,6.4-.008q4.822,0,9.644,0a5.39,5.39,0,0,1,2.144.363c1.275.55,1.511,1.668,1.4,2.932a2.4,2.4,0,0,1-1.635,2.045,3.024,3.024,0,0,1-1.237.227c-2.844-.022-5.687-.011-8.531-.011Z" transform="translate(-26.798 -44.875)"/>
        <path id="Path_824646" data-name="Path 824646" d="M113.443,187.275c1.974,0,3.949-.04,5.921.011a2.744,2.744,0,0,1,.792,5.4,6.972,6.972,0,0,1-1.286.131q-5.322.016-10.645,0a3.2,3.2,0,0,1-3-1.255,2.753,2.753,0,0,1,2.113-4.262c2.034-.155,4.07-.062,6.105-.023" transform="translate(-26.8 -47.904)"/>
        <path id="Path_824647" data-name="Path 824647" d="M115.9,169.068c-2.805-.014-5.611,0-8.417-.055a2.492,2.492,0,0,1-2.554-1.994,2.682,2.682,0,0,1,1.48-3.242,2.945,2.945,0,0,1,1.063-.284c2.929-.013,5.861-.074,8.786.048a2.528,2.528,0,0,1,2.591,2.753c-.062,1.766-1.086,2.609-2.808,2.767a.1.1,0,0,0-.142.007" transform="translate(-26.817 -41.827)"/>
        <path id="Path_824648" data-name="Path 824648" d="M119.71,170.982a.1.1,0,0,1,.142-.007c-.043.09-.09.1-.142.007" transform="translate(-30.631 -43.742)" fill="#fda85b"/>
        <path id="Path_824649" data-name="Path 824649" d="M115.912,31.981q-4.033,0-8.066,0a2.79,2.79,0,1,1-.063-5.548c2.936-.033,5.872-.01,8.807-.01,2.565,0,5.131-.028,7.695.014a2.914,2.914,0,0,1,2.709,1.218,2.877,2.877,0,0,1,.132,2.83,2.747,2.747,0,0,1-2.683,1.491c-2.843.019-5.687.006-8.53.006" transform="translate(-26.798 -6.758)"/>
        <path id="Path_824650" data-name="Path 824650" d="M114.376,14.538c2.161,0,4.323-.037,6.483.012a2.564,2.564,0,0,1,2.835,2.066,2.626,2.626,0,0,1-2.206,3.413c-.769.063-1.54.088-2.311.09q-5.418.011-10.837,0c-1.275,0-2.467-.16-3.2-1.421a2.684,2.684,0,0,1,1.834-4.051,37.9,37.9,0,0,1,5.361-.134c.679-.02,1.359,0,2.038,0Z" transform="translate(-26.805 -3.706)"/>
        <path id="Path_824651" data-name="Path 824651" d="M111.981,43.872c-1.421,0-2.845.051-4.263-.013a2.8,2.8,0,0,1-2.989-2.834,2.724,2.724,0,0,1,2.512-2.664q4.816-.171,9.637,0a2.412,2.412,0,0,1,2.329,2.111c.107,2.02-.255,2.79-1.962,3.242s-3.509.09-5.264.159" transform="translate(-26.798 -9.794)"/>
        <path id="Path_824652" data-name="Path 824652" d="M25.451,38.279c2.534,0,5.068-.006,7.6,0a7.512,7.512,0,0,1,1.66.106c1.758.411,2.418,1.432,2.226,3.315a2.758,2.758,0,0,1-2.815,2.2q-8.622.04-17.244-.013a2.735,2.735,0,0,1-2.443-2.842,2.584,2.584,0,0,1,2.392-2.7c2.873-.008,5.747,0,8.62,0v-.065" transform="translate(-3.694 -9.794)"/>
        <path id="Path_824653" data-name="Path 824653" d="M25.618,31.978c-2.687,0-5.376.049-8.061-.015-2.313-.054-3.275-1.522-3.048-3.538a2.655,2.655,0,0,1,1.767-1.808,7.616,7.616,0,0,1,1.838-.173c4.973,0,9.946-.016,14.919,0a7.729,7.729,0,0,1,2.344.277,2.184,2.184,0,0,1,1.569,1.981,2.606,2.606,0,0,1-1.338,2.864,4.268,4.268,0,0,1-1.929.424c-2.687-.016-5.375-.007-8.062-.007v-.01" transform="translate(-3.704 -6.765)"/>
        <path id="Path_824654" data-name="Path 824654" d="M20.516,20.034c-1.11,0-2.221.023-3.331-.006a2.784,2.784,0,0,1-2.671-2.386c-.087-1.735.72-2.882,2.348-3.018a52.045,52.045,0,0,1,7.393-.016,2.434,2.434,0,0,1,2.4,1.806,2.662,2.662,0,0,1-.705,2.885,3.267,3.267,0,0,1-2.106.734c-1.109.042-2.22.01-3.331.01v-.01" transform="translate(-3.712 -3.706)"/>
      </g>
    </g>
  </g>
</svg>
