<svg xmlns="http://www.w3.org/2000/svg" xmlns:xlink="http://www.w3.org/1999/xlink" width="190" height="190" viewBox="0 0 190 190">
  <defs>
    <clipPath id="clip-path">
      <rect id="Rectangle_378581" data-name="Rectangle 378581" width="190" height="190" transform="translate(1131 4303)" fill="#fff" stroke="#707070" stroke-width="1"/>
    </clipPath>
    <clipPath id="clip-path-2">
      <rect id="Rectangle_378587" data-name="Rectangle 378587" width="183.987" height="179.665" fill="none"/>
    </clipPath>
  </defs>
  <g id="Group_439" data-name="Group 439" transform="translate(-1131 -4303)" clip-path="url(#clip-path)">
    <g id="Group_1074906" data-name="Group 1074906" transform="translate(1131 4313.335)">
      <g id="Group_1074906-2" data-name="Group 1074906" clip-path="url(#clip-path-2)">
        <path id="Path_824789" data-name="Path 824789" d="M33.258,151.126l.022-.986a1.9,1.9,0,0,0-.032-1.243c0-.2,0-.4,0-.6,0-.079.007-.157.012-.236,0-.193,0-.386,0-.579l.007-.246c0-.123,0-.247,0-.37,0-.148,0-.3,0-.445,0-.127,0-.256,0-.383a.712.712,0,0,0-.1-.826,1.433,1.433,0,0,0-.425-.792c-5.416-6.713-10.252-13.79-13.635-21.776a.716.716,0,0,0-.127-.158c.026-.138-.057-.187-.172-.209l-.007-.007c-.033-.379.085-.816-.4-1.013-.531-1.507-1.083-3.008-1.589-4.524a78.572,78.572,0,0,1-3.332-13.722c-.363-2.526-.623-5.058-.869-7.6-.2-2.042-.064-4.069-.149-6.1a.611.611,0,0,0,.026-.637l.027-.768c.128-.087.131-.176,0-.266q.015-.275.031-.551a.379.379,0,0,0,.027-.466c.007-.124.013-.248.021-.372a2.635,2.635,0,0,0,.048-1.234,89.84,89.84,0,0,1,1.364-10.776,73.377,73.377,0,0,1,2.822-10.8,79.043,79.043,0,0,1,6.26-13.87c.17-.292.312-.6.465-.9a94.342,94.342,0,0,1,6.583-9.643,83.535,83.535,0,0,1,20.448-18.59,82.027,82.027,0,0,1,14.918-7.675A88.637,88.637,0,0,1,77.989,8.94c2.535-.58,5.107-1.055,7.66-1.419a51.049,51.049,0,0,1,7.29-.515c.544,0,.96,0,1.074-.741a7.528,7.528,0,0,1,3.238-4.96C97.971.773,98.845.557,99.586.078A30.5,30.5,0,0,1,106.157.4c2.026.236,4.053.464,6.046.867q2.448.5,4.89,1.06A93.721,93.721,0,0,1,128.2,5.8c1.923.7,3.811,1.5,5.715,2.259.322.181.638.376.968.542A100.254,100.254,0,0,1,155.35,21.978,87.319,87.319,0,0,1,172.692,42.3c.692,1.109,1.34,2.245,2.008,3.369a100.081,100.081,0,0,1,5.808,12.558c.831,2.421,1.719,4.825,2.434,7.281.705,2.425,1.053,4.947,1.677,7.382.636,2.481.733,5.009,1.128,7.5.316,1.989.835,4.064.04,6.122A8.213,8.213,0,0,1,179.781,92c-.436.1-.884.19-.8.806a.832.832,0,0,0,.02.814q-.063,1.525-.124,3.051l-.02.238c-.215,1.83-.388,3.665-.658,5.486-.224,1.516-.562,3.015-.85,4.52a20.884,20.884,0,0,0-1.17,4.536,83.293,83.293,0,0,1-3.636,10.872,81.544,81.544,0,0,1-5.836,11.54c-1.469,2.586-3.394,4.839-5.095,7.255a115.99,115.99,0,0,1-8.718,9.693,76.777,76.777,0,0,1-23.688,15.508c-2.175.918-4.381,1.761-6.572,2.639a4.177,4.177,0,0,0-.592.123,91.839,91.839,0,0,1-15.454,3.736,37.688,37.688,0,0,1-8.092.474,5.083,5.083,0,0,0-2.054.151l-.4.006a1.873,1.873,0,0,0-1.253-.037l-.364-.006c-.116-.153-.177-.056-.236.052a15.453,15.453,0,0,0-3.122-.182,26.764,26.764,0,0,1-4.636-.372c-1.7-.286-3.422-.437-5.134-.648-.607-.446-.788-.084-.809.458a13.626,13.626,0,0,1-.009,1.94c-.487,2.609-2.178,4.619-4.929,4.831-3.712.287-7.436.108-11.154.1a6.242,6.242,0,0,1-5.6-4.177,4.723,4.723,0,0,1-.067-1.116c0-.141-.01-.281-.016-.421l0-.6c0-.075,0-.15-.006-.225l-.027-2.434-.007-.434c-.007-.128-.016-.256-.023-.384,0-.076,0-.154,0-.23,0-.265,0-.528.006-.793,0-.078,0-.156.007-.234,0-.195,0-.39,0-.584,0-.078,0-.157.006-.236,0-.127,0-.252,0-.379,0-.146,0-.293,0-.439l-.007-.377c0-.078,0-.156-.006-.234q.01-.4.021-.8c.1-.23.165-.456-.085-.64a10.72,10.72,0,0,0-2.945-1.8c-.117-.1-.228-.287-.364-.02l-.007,0c-.348.4-.2.814-.056,1.232,0,.264,0,.527.006.791-.124.08-.121.157,0,.231q.015,1.942.029,3.883c-.021.019-.062.041-.058.055a.869.869,0,0,0,.053.144l-.042,1.808c-.135.084-.147.178-.021.281L55.18,172a.175.175,0,0,0-.008.275q0,.688-.009,1.374c-.009.155-.018.308-.026.463-.012.126-.022.251-.034.377,0,.071-.011.141-.016.211a5.6,5.6,0,0,1-5.008,4.815,114.446,114.446,0,0,1-11.634.012A5.632,5.632,0,0,1,33.3,173.9l-.01-.238c-.006-.2-.012-.393-.018-.589a5.247,5.247,0,0,0,0-2.065l-.007-.389a.4.4,0,0,0,0-.433c0-.129,0-.258-.007-.387a.4.4,0,0,0,.006-.432c0-.127-.006-.253-.008-.379,0-.081,0-.161,0-.242q0-.293,0-.585a.4.4,0,0,0,.009-.432l0-.388a.4.4,0,0,0,.008-.431c0-.129,0-.259-.006-.388a.4.4,0,0,0,.006-.432l0-.387a.4.4,0,0,0,0-.431l-.007-.38c0-.081,0-.161,0-.242,0-.195,0-.389,0-.584a.4.4,0,0,0,.007-.432c0-.127,0-.254,0-.381,0-.08,0-.16,0-.24,0-.2,0-.391,0-.586a.394.394,0,0,0,0-.432l-.01-.386a.39.39,0,0,0,.007-.433c0-.129,0-.259,0-.388a.392.392,0,0,0,.009-.431c0-.129,0-.258-.006-.387a.4.4,0,0,0,.007-.432c0-.129-.006-.258-.008-.386a.4.4,0,0,0,.007-.432l-.007-.39a1.881,1.881,0,0,0,0-1.244c0-.132,0-.265,0-.4a1.977,1.977,0,0,0,.02-1.243c-.007-.131-.014-.261-.021-.391a.4.4,0,0,0,.013-.431q0-.293.006-.586l.007-.241v-.381l.007-.43c0-.13,0-.26,0-.389s0-.287,0-.431c-.009-.2-.017-.394-.025-.59a.407.407,0,0,0,0-.448m17.784-.041c.141-.1.141-.192,0-.289v-.529q.211-.144,0-.289v-.53c.141-.1.141-.192,0-.289q0-.265,0-.53c.139-.1.14-.191,0-.288q0-.265,0-.532.21-.143,0-.287,0-.266,0-.532.21-.143,0-.288,0-.265,0-.532.21-.143,0-.287c0-.182,0-.363,0-.546a15.739,15.739,0,0,0-.027-4.133c0-.2-.011-.4-.016-.6.024-.016.07-.041.067-.047a1.275,1.275,0,0,0-.074-.15c-.039-.756.145-1.64-1-1.77a.957.957,0,0,0-.936-.109l-.87-.01a1.144,1.144,0,0,0-.776-.016l-.879-.009a11,11,0,0,0-2.383-.008c-1.567,0-3.136-.043-4.7,0-1.308.037-2.014.237-2.007,1.971.048,10.8.029,21.6.037,32.4a4.71,4.71,0,0,0,.125,1.622c.153.429.336.822.888.822,3.749,0,7.5.022,11.246,0,.694,0,1.271-.31,1.251-1.165a.914.914,0,0,0,.026-.959l0-.629c.129-.067.129-.135,0-.2,0-.2,0-.409,0-.614.133-.07.137-.141,0-.216,0-.2,0-.395,0-.592.139-.076.143-.155.006-.237l.007-.757.064,0-.063-.08q0-.365.006-.73l.067-.008-.065-.089c0-.243,0-.487,0-.73q.208-.143,0-.288c0-.176,0-.351,0-.527.138-.1.139-.195,0-.293,0-.179,0-.359,0-.538a1.327,1.327,0,0,0,0-1.092c0-.178,0-.357,0-.535.139-.1.14-.195,0-.293q0-.264,0-.527c.139-.1.14-.195,0-.293q0-.264,0-.528c.139-.1.14-.193,0-.29,0-.176,0-.353,0-.528.141-.1.14-.195,0-.292q0-.264,0-.527.212-.147,0-.293,0-.263,0-.525.213-.147,0-.293,0-.263,0-.525.213-.147,0-.293,0-.264,0-.526c.143-.1.142-.2,0-.3v-.523q.215-.148,0-.3v-.524c.143-.1.144-.2,0-.3,0-.175,0-.35,0-.525.142-.1.143-.194,0-.292q0-.264,0-.528c.141-.1.143-.192,0-.289v-.532c.141-.1.14-.192,0-.289,0-.176,0-.352,0-.528.141-.1.142-.194,0-.291v-.528c.141-.1.141-.194,0-.291v-.528c.141-.1.141-.195,0-.292v-.528q.211-.144,0-.29v-.53M93.954,127.7a4.986,4.986,0,0,0,2.086.055l.418-.017c.285.081.568.144.806-.112a24.269,24.269,0,0,0,5.979-.622l.1.008.087-.038a2.917,2.917,0,0,0,1.65-.387,12.083,12.083,0,0,0,3.192-.893,40.454,40.454,0,0,0,11.919-7.008,36.533,36.533,0,0,0,10.537-14.836,51.868,51.868,0,0,0,2.585-10.912c.075-.468-.085-.779-.57-.723a5.338,5.338,0,0,1-2.265-.453,7.249,7.249,0,0,1-5.056-5.06c-.87-3.3-1.6-6.643-3.182-9.678a29.674,29.674,0,0,0-20.991-15.915c-3.611-.782-6.831-2.651-7.408-7.452-.088-.73-.363-.8-.948-.782a34.332,34.332,0,0,0-11.438,2.514,29.932,29.932,0,0,0-5.781,3.219A35.682,35.682,0,0,0,66,67.33a43.961,43.961,0,0,0-5.9,11.233c-.544,1.595-1.285,3.228-1.1,5.017a8.675,8.675,0,0,0-.607,3.211,41.334,41.334,0,0,0,.623,11.018,38.88,38.88,0,0,0,5,12.163c.348.556.572,1.26,1.322,1.47a.408.408,0,0,0,.6.041l5.693.033q.138.184.278,0l1.359.007c.094.119.187.118.283,0h.54a.362.362,0,0,0,.469.011l.572.029.429.037c.39.075.785.134,1.171.226a4.86,4.86,0,0,1,3.754,4.185c.1,1.38.15,2.767.182,4.151.029,1.193-.007,2.386,0,3.579,0,.487.072.964.638,1.138.549.169,1.063.473,1.591.627A43.113,43.113,0,0,0,93.954,127.7M76.508,161.757c0-.246,0-.491,0-.736l.032-.042-.032-.041V160.2l.032-.041-.032-.042v-.736l.033-.041-.033-.042q0-.369,0-.737l.032-.039-.032-.041q0-.369,0-.737l.031-.039-.031-.039v-.744l.031-.038-.031-.039c0-.247,0-.5,0-.743l.03-.037-.03-.038,0-.736.03-.041-.033-.039q0-.374,0-.746l.03-.037-.03-.038c0-.247,0-.495,0-.742l.031-.039-.031-.04v-.739l.031-.039-.031-.04c0-.247,0-.493,0-.74l.032-.04-.032-.04v-.738l.032-.04-.032-.041v-.737l.032-.04-.032-.041v-.738l.032-.04-.032-.04v-.739l.032-.04-.032-.04v-.738l.032-.04-.032-.04V147.1l.032-.039-.032-.041v-.738l.032-.04-.032-.04v-.739l.032-.039-.032-.041v-.738l.032-.04-.032-.04v-.739l.032-.039-.032-.041V143l.032-.04-.032-.04v-.739l.032-.039-.032-.04v-.739l.032-.04-.032-.04v-.739l.031-.039-.031-.04v-.739l.032-.04-.032-.04v-.738l.032-.04-.032-.04c0-.246,0-.492,0-.738l.031-.04-.031-.04v-.739l.031-.039-.031-.04c0-.247,0-.493,0-.74l.032-.04-.032-.04v-.737l.031-.04-.031-.041v-.736l.032-.042-.032-.041c0-.246,0-.491,0-.736l.033-.042-.032-.043c0-.245,0-.489,0-.734l.033-.042-.032-.043q0-.367,0-.735l.032-.041-.032-.042c0-.246,0-.491,0-.736l.032-.042-.032-.043c0-.244,0-.488,0-.733l.033-.043-.033-.044V129.9l.033-.044-.033-.044v-.731l.033-.043L76.506,129v-.734l.033-.043-.033-.042q0-.367,0-.735l.034-.042-.034-.043q0-.366,0-.731l.034-.045-.034-.046,0-.726.035-.047-.035-.047q0-.362,0-.724l.035-.048-.035-.049q0-.361,0-.724l.034-.045-.034-.046c0-.243,0-.486,0-.729l.033-.045-.033-.044c0-.244,0-.487,0-.731l.033-.042-.033-.043c0-.244,0-.489,0-.733l.031-.041-.031-.041c0-.246,0-.491,0-.736l.03-.038-.03-.038q0-.372,0-.744l.03-.038L76.513,120q0-.344,0-.688h0a4.851,4.851,0,0,1-.114-2.01c0-1.284-.1-1.365-1.414-1.59a11.778,11.778,0,0,0-2.028-.15c-2.72.007-5.438-.085-8.159.142-1.681.141-1.923.256-1.931,1.954-.009,2.25.067,4.5-.044,6.749-.082,1.673-.376,2.586-1.973,2.623-1.493-.125-1.981-.641-2.052-2.317-.078-1.829-.1-3.659-.148-5.489a3.87,3.87,0,0,0,.082-.707,6.569,6.569,0,0,1,1.749-5.447c.328-.324.176-.684-.044-1.023-.48-.738-.989-1.461-1.414-2.23a40.789,40.789,0,0,1-4.95-18.66,53.562,53.562,0,0,1,.365-5.687,35.284,35.284,0,0,1,4.778-15.281,42.219,42.219,0,0,1,20.443-18.3c4.149-1.739,8.428-3.126,13.015-3.105.841,0,1.158-.367,1.142-1.179-.034-1.637-.037-3.274-.038-4.912-.009-10.132-.029-20.265,0-30.4,0-1.037-.349-1.342-1.3-1.188a19.5,19.5,0,0,1-2.711.383,49.075,49.075,0,0,0-6.711.7A70.2,70.2,0,0,0,72.44,14.707C55.6,20.127,41.826,29.82,31.533,44.269A76.012,76.012,0,0,0,19.652,68.779a87.181,87.181,0,0,0-2.845,16.561,67.561,67.561,0,0,0,.352,13.152,82.393,82.393,0,0,0,1.594,9.354c2.168,8.831,5.351,17.215,10.541,24.789,1.211,1.768,2.388,3.58,3.578,5.374.362.545.67.693.949-.075a5.276,5.276,0,0,1,4.044-3.4,2.351,2.351,0,0,1,.494-.107c3.885-.012,7.774-.127,11.653.017a5.236,5.236,0,0,1,5.074,5.067c.081.846.118,1.7.126,2.549.029,3.03.036,6.061.051,9.091a23.582,23.582,0,0,1-.058,3.874c-.41,2.364.568,3.708,2.69,4.515.579.22.853.22.848-.434-.016-2.314-.054-4.629-.084-6.943.022-.713.062-1.425.063-2.138.007-4.454-.006-8.908.012-13.362.007-1.74.5-2.278,2.226-2.576.786.347,1.756.6,1.687,1.692-.092,1.5.239,2.963.234,4.457q-.046,16.51-.01,33.02c0,1.856.3,2.215,2.128,2.244,3.133.048,6.269.057,9.4-.013.9-.021,1.971-.106,2.1-1.416l.025-.768q-.014-.408-.028-.816l.039-.035-.036-.04q0-.378,0-.757l.035-.041-.043-.03c0-.249.007-.5.012-.747v-.062c0-.25,0-.5,0-.751l.032-.04-.032-.041c0-.244,0-.488,0-.732l.034-.044-.034-.044v-.73l.034-.044-.034-.045q0-.365,0-.73l.033-.044-.033-.044v-.731l.033-.044-.033-.044v-.732l.033-.043-.033-.044q0-.366,0-.732l.033-.044-.033-.044c0-.245,0-.489,0-.734l.032-.041-.032-.042c0-.245,0-.49,0-.735l.032-.042-.032-.042v-.736l.032-.042-.032-.042v-.736l.032-.041-.032-.042m74.084-71.808c-.141,1.616-.8,2.243-2.411,2.248-3.242.01-6.485.014-9.727,0-.639,0-1,.1-1.032.874a39.822,39.822,0,0,1-4.058,15.08,37.558,37.558,0,0,1-12.529,15.37,56.57,56.57,0,0,1-9.489,5.226,35.624,35.624,0,0,1-12.294,3.1A41.782,41.782,0,0,1,84.72,130.33a21.916,21.916,0,0,0-4.043-1.191V136q-.015,7.344-.028,14.687,0,5.558.012,11.115c0,1.774-.006,3.547-.018,5.32,0,.528.183.745.762.819,1.78.224,3.531.64,5.335.742s3.594.4,5.4.47a78.528,78.528,0,0,0,14.278-.609,82.436,82.436,0,0,0,12.4-2.523,80.937,80.937,0,0,0,23.059-11.46,62.19,62.19,0,0,0,13.978-13.067c2.442-3.223,5-6.347,7.136-9.8a77.657,77.657,0,0,0,8.72-19.287,76.322,76.322,0,0,0,3.179-18.77c.047-1.424.012-1.433-1.472-1.435q-6.5-.007-13.009,0c-1.841,0-2.378-.376-3.025-2.111.524-1.569,1.784-1.992,3.245-2,5.838-.02,11.676,0,17.514-.013a3.537,3.537,0,0,0,3.737-3.727c0-.812-.125-1.62-.168-2.422a60.553,60.553,0,0,0-1.192-8.471A80.282,80.282,0,0,0,176.9,60.591q-1.581-4.168-3.419-8.239c-.985-2.193-2.215-4.248-3.387-6.332a29.92,29.92,0,0,0-1.6-2.785c-.8-1.115-1.67-2.194-2.505-3.277-1.292-1.679-2.566-3.381-3.921-5.007a88.741,88.741,0,0,0-37.3-26.135c-2.248-.817-4.53-1.562-6.838-2.181a89.707,89.707,0,0,0-9.02-1.84,36.4,36.4,0,0,0-7.991-.653,2.741,2.741,0,0,0-1.593.653C98.035,5.839,97.9,7.239,97.9,8.725q0,22.057-.021,44.114a3.982,3.982,0,0,0,3.093,3.919,43.075,43.075,0,0,1,5.554,1.492,34.775,34.775,0,0,1,13.1,7.952,31.885,31.885,0,0,1,9.427,18.269,4.3,4.3,0,0,0,4.164,3.633c4.744-.08,9.491-.027,14.235-.021,1.409,0,2.718.2,3.144,1.867" transform="translate(-2.22 0)"/>
        <path id="Path_824790" data-name="Path 824790" d="M6.905,207.14l-.032-.389a75.722,75.722,0,0,0-.03-7.8l0-.4a14.613,14.613,0,0,0,0-3.7c0-.133,0-.265,0-.4a9.556,9.556,0,0,0-.021-3.1c0-.122,0-.243,0-.366.024-.023.07-.051.067-.07a1.054,1.054,0,0,0-.059-.176c.017-.332.034-.665.051-1,.015-.138.03-.276.045-.413a5.723,5.723,0,0,1,5.138-4.75l.233-.022,5.467-.055c.1.118.195.118.29,0l1.356.02.276,0c1.587.118,3.175.03,4.77.259a5.194,5.194,0,0,1,4.239,4.685c.243,5,.159,10,.164,15a24.354,24.354,0,0,1-.425,4.106c-.275,1.623-2.387,3.419-4.234,3.71a41.507,41.507,0,0,1-5.928.171c-1.876.024-3.754.032-5.631-.016a5.78,5.78,0,0,1-5.717-5.1l-.012-.212m4.14-8.8h.03c0,2.693-.011,5.384,0,8.077.008,1.422.332,1.751,1.718,1.758q5.062.022,10.126.011c1.359,0,1.694-.329,1.692-1.7q-.009-8.075-.057-16.152c-.007-1.255-.3-1.585-1.571-1.6q-5.164-.06-10.33-.025c-1.313.01-1.612.376-1.613,1.658q0,3.987,0,7.974" transform="translate(-1.214 -32.86)"/>
        <path id="Path_824791" data-name="Path 824791" d="M11.267,173.1a1.648,1.648,0,0,1-1.018,1.816,1.938,1.938,0,0,1-2.257-.335c-.625-.553-1.18-1.187-1.756-1.8-.376-.4-.667-.451-1.078.019a16.972,16.972,0,0,1-1.835,1.77,1.885,1.885,0,0,1-2.276.27A2.181,2.181,0,0,1,0,172.686c.006-.635.535-.839.853-1.2a32.786,32.786,0,0,1,3.56-3.463A1.712,1.712,0,0,1,6.979,168c1.259,1.143,2.458,2.354,3.661,3.558a1.7,1.7,0,0,1,.628,1.543" transform="translate(0 -29.819)" fill="#8282ff"/>
        <path id="Path_824792" data-name="Path 824792" d="M6.819,202.081a75.244,75.244,0,0,1,.03,7.8,26.273,26.273,0,0,1-.118-4.66,13.279,13.279,0,0,1,.088-3.138" transform="translate(-1.19 -35.99)" fill="#8282ff"/>
        <path id="Path_824793" data-name="Path 824793" d="M19.6,147.535c.488.2.371.635.4,1.013-.356.012-.694-.019-.787-.45-.068-.31.023-.535.385-.564" transform="translate(-3.419 -26.275)" fill="#fce5d6"/>
        <path id="Path_824794" data-name="Path 824794" d="M6.822,197.1a14.62,14.62,0,0,1,0,3.7,13.66,13.66,0,0,1,0-3.7" transform="translate(-1.192 -35.103)" fill="#8282ff"/>
        <path id="Path_824795" data-name="Path 824795" d="M6.8,192.847a9.528,9.528,0,0,1,.02,3.1,10.4,10.4,0,0,1-.02-3.1" transform="translate(-1.192 -34.345)" fill="#8282ff"/>
        <path id="Path_824796" data-name="Path 824796" d="M37.747,208.058a5.247,5.247,0,0,1,0,2.065,3.914,3.914,0,0,1,0-2.065" transform="translate(-6.698 -37.054)" fill="#8282ff"/>
        <path id="Path_824797" data-name="Path 824797" d="M37.737,191.12a1.884,1.884,0,0,1,0,1.243,1.609,1.609,0,0,1,0-1.243" transform="translate(-6.698 -34.038)" fill="#8282ff"/>
        <path id="Path_824798" data-name="Path 824798" d="M64.452,199.6c-.149-.418-.292-.837.056-1.233a2.765,2.765,0,0,1-.056,1.233" transform="translate(-11.45 -35.328)" fill="#8282ff"/>
        <path id="Path_824799" data-name="Path 824799" d="M37.754,189.126a1.983,1.983,0,0,1-.021,1.243,1.546,1.546,0,0,1,.021-1.243" transform="translate(-6.699 -33.683)" fill="#8282ff"/>
        <path id="Path_824800" data-name="Path 824800" d="M12.658,103.445a2.636,2.636,0,0,1-.048,1.235,1.615,1.615,0,0,1,.048-1.235" transform="translate(-2.227 -18.423)" fill="#8282ff"/>
        <path id="Path_824801" data-name="Path 824801" d="M37.723,181.161a1.9,1.9,0,0,1,.032,1.243,1.39,1.39,0,0,1-.032-1.243" transform="translate(-6.695 -32.264)" fill="#8282ff"/>
        <path id="Path_824802" data-name="Path 824802" d="M37.651,176.682a.713.713,0,0,1,.1.826.9.9,0,0,1-.1-.826" transform="translate(-6.696 -31.466)" fill="#8282ff"/>
        <path id="Path_824803" data-name="Path 824803" d="M215.066,113.726a.832.832,0,0,1-.019-.814,1.077,1.077,0,0,1,.019.814" transform="translate(-38.281 -20.109)" fill="#8282ff"/>
        <path id="Path_824804" data-name="Path 824804" d="M68.576,200.57c.251.184.181.41.085.64a.585.585,0,0,1-.085-.64" transform="translate(-12.203 -35.721)" fill="#9393ff"/>
        <path id="Path_824805" data-name="Path 824805" d="M12.494,107.9a.611.611,0,0,1-.026.637c.009-.212.017-.425.026-.637" transform="translate(-2.22 -19.216)" fill="#8282ff"/>
        <path id="Path_824806" data-name="Path 824806" d="M37.77,185.136c0,.144,0,.287,0,.431a.259.259,0,0,1,0-.431" transform="translate(-6.707 -32.972)" fill="#8282ff"/>
        <path id="Path_824807" data-name="Path 824807" d="M37.75,178.153c0,.149,0,.3,0,.445a.257.257,0,0,1,0-.445" transform="translate(-6.7 -31.728)" fill="#8282ff"/>
        <path id="Path_824808" data-name="Path 824808" d="M68.723,211.548c0,.141.011.28.016.421-.118-.136-.162-.275-.016-.421" transform="translate(-12.223 -37.676)" fill="#9393ff"/>
        <path id="Path_824809" data-name="Path 824809" d="M64.381,211.734c.009-.155.017-.309.026-.463a.294.294,0,0,1-.026.463" transform="translate(-11.466 -37.626)" fill="#8282ff"/>
        <path id="Path_824810" data-name="Path 824810" d="M37.741,183.872a.408.408,0,0,1,0,.449.294.294,0,0,1,0-.449" transform="translate(-6.703 -32.747)" fill="#8282ff"/>
        <path id="Path_824811" data-name="Path 824811" d="M12.585,105.4a.379.379,0,0,1-.027.467.341.341,0,0,1,.027-.467" transform="translate(-2.222 -18.771)" fill="#8282ff"/>
        <path id="Path_824812" data-name="Path 824812" d="M37.772,186.133c0,.143,0,.286-.007.429a.256.256,0,0,1,.007-.429" transform="translate(-6.706 -33.149)" fill="#8282ff"/>
        <path id="Path_824813" data-name="Path 824813" d="M37.749,188.126a.4.4,0,0,1-.013.432.268.268,0,0,1,.013-.432" transform="translate(-6.702 -33.504)" fill="#8282ff"/>
        <path id="Path_824814" data-name="Path 824814" d="M6.914,190.387c-.015.138-.03.276-.045.413-.165-.158-.073-.287.045-.413" transform="translate(-1.207 -33.907)" fill="#8282ff"/>
        <path id="Path_824815" data-name="Path 824815" d="M37.746,193.108a.4.4,0,0,1-.007.432.269.269,0,0,1,.007-.432" transform="translate(-6.702 -34.392)" fill="#8282ff"/>
        <path id="Path_824816" data-name="Path 824816" d="M37.746,194.1a.4.4,0,0,1-.007.432.268.268,0,0,1,.007-.432" transform="translate(-6.702 -34.569)" fill="#8282ff"/>
        <path id="Path_824817" data-name="Path 824817" d="M37.745,195.1a.394.394,0,0,1-.008.431.268.268,0,0,1,.008-.431" transform="translate(-6.702 -34.747)" fill="#8282ff"/>
        <path id="Path_824818" data-name="Path 824818" d="M37.74,196.1a.392.392,0,0,1-.008.433.273.273,0,0,1,.008-.433" transform="translate(-6.702 -34.924)" fill="#8282ff"/>
        <path id="Path_824819" data-name="Path 824819" d="M37.743,197.094a.4.4,0,0,1,0,.432.269.269,0,0,1,0-.432" transform="translate(-6.702 -35.102)" fill="#8282ff"/>
        <path id="Path_824820" data-name="Path 824820" d="M64.563,198.329c.136-.266.247-.076.363.02l-.363-.02" transform="translate(-11.498 -35.297)" fill="#8282ff"/>
        <path id="Path_824821" data-name="Path 824821" d="M37.745,199.087a.4.4,0,0,1-.007.433.271.271,0,0,1,.007-.433" transform="translate(-6.702 -35.457)" fill="#8282ff"/>
        <path id="Path_824822" data-name="Path 824822" d="M68.663,207.057l.007.434a.244.244,0,0,1-.007-.434" transform="translate(-12.206 -36.876)" fill="#9393ff"/>
        <path id="Path_824823" data-name="Path 824823" d="M37.748,201.079a.4.4,0,0,1,0,.432.266.266,0,0,1,0-.432" transform="translate(-6.703 -35.811)" fill="#8282ff"/>
        <path id="Path_824824" data-name="Path 824824" d="M37.748,202.076a.4.4,0,0,1-.006.432.265.265,0,0,1,.006-.432" transform="translate(-6.703 -35.989)" fill="#8282ff"/>
        <path id="Path_824825" data-name="Path 824825" d="M37.749,207.058a.406.406,0,0,1,0,.433.267.267,0,0,1,0-.433" transform="translate(-6.703 -36.876)" fill="#8282ff"/>
        <path id="Path_824826" data-name="Path 824826" d="M37.749,203.073a.4.4,0,0,1-.008.431.266.266,0,0,1,.008-.431" transform="translate(-6.703 -36.166)" fill="#8282ff"/>
        <path id="Path_824827" data-name="Path 824827" d="M68.655,203.066c0,.146,0,.293,0,.44a.252.252,0,0,1,0-.44" transform="translate(-12.204 -36.165)" fill="#9393ff"/>
        <path id="Path_824828" data-name="Path 824828" d="M37.746,204.069a.4.4,0,0,1-.009.432.27.27,0,0,1,.009-.432" transform="translate(-6.702 -36.344)" fill="#8282ff"/>
        <path id="Path_824829" data-name="Path 824829" d="M37.747,206.062a.4.4,0,0,1,0,.432.266.266,0,0,1,0-.432" transform="translate(-6.703 -36.699)" fill="#8282ff"/>
        <path id="Path_824830" data-name="Path 824830" d="M12.536,106.638c.127.09.125.179,0,.266,0-.089,0-.178,0-.266" transform="translate(-2.232 -18.992)" fill="#8282ff"/>
        <path id="Path_824831" data-name="Path 824831" d="M64.517,206.031a.953.953,0,0,1-.054-.144c0-.014.038-.037.059-.055l0,.2" transform="translate(-11.481 -36.658)" fill="#8282ff"/>
        <path id="Path_824832" data-name="Path 824832" d="M68.65,205.06c0,.078,0,.156-.007.234-.136-.082-.132-.159.007-.234" transform="translate(-12.207 -36.52)" fill="#9393ff"/>
        <path id="Path_824833" data-name="Path 824833" d="M68.636,206.31c0,.076,0,.154,0,.23q-.207-.112,0-.23" transform="translate(-12.206 -36.743)" fill="#9393ff"/>
        <path id="Path_824834" data-name="Path 824834" d="M68.658,204.062c0,.079,0,.158-.006.237-.139-.083-.132-.161.006-.237" transform="translate(-12.209 -36.343)" fill="#9393ff"/>
        <path id="Path_824835" data-name="Path 824835" d="M37.744,205.307c0,.081,0,.161,0,.242-.123-.081-.125-.162,0-.242" transform="translate(-6.705 -36.564)" fill="#8282ff"/>
        <path id="Path_824836" data-name="Path 824836" d="M64.479,201.057c-.126-.075-.129-.151,0-.231l0,.231" transform="translate(-11.466 -35.766)" fill="#8282ff"/>
        <path id="Path_824837" data-name="Path 824837" d="M37.744,200.323c0,.081,0,.162,0,.242-.122-.081-.123-.163,0-.242" transform="translate(-6.705 -35.677)" fill="#8282ff"/>
        <path id="Path_824838" data-name="Path 824838" d="M20.192,148.778c.115.022.2.071.172.209l-.172-.209" transform="translate(-3.596 -26.497)" fill="#fce5d6"/>
        <path id="Path_824839" data-name="Path 824839" d="M37.745,198.331l0,.241c-.123-.082-.124-.162,0-.241" transform="translate(-6.705 -35.322)" fill="#8282ff"/>
        <path id="Path_824840" data-name="Path 824840" d="M64.433,208.555c-.126-.1-.113-.2.021-.28-.007.093-.014.187-.021.28" transform="translate(-11.46 -37.093)" fill="#8282ff"/>
        <path id="Path_824841" data-name="Path 824841" d="M6.812,192.1a1.007,1.007,0,0,1,.059.176c0,.02-.044.047-.067.071a.992.992,0,0,1-.052-.173c0-.022.039-.049.059-.073" transform="translate(-1.203 -34.213)" fill="#8282ff"/>
        <path id="Path_824842" data-name="Path 824842" d="M37.768,187.12c0,.081,0,.16-.008.24-.127-.085-.12-.164.008-.24" transform="translate(-6.709 -33.325)" fill="#8282ff"/>
        <path id="Path_824843" data-name="Path 824843" d="M64.411,209.539a.175.175,0,0,1,.008-.275.178.178,0,0,1-.008.275" transform="translate(-11.46 -37.269)" fill="#8282ff"/>
        <path id="Path_824844" data-name="Path 824844" d="M22.408,184.516l-.277,0c.093-.12.186-.12.277,0" transform="translate(-3.941 -32.845)" fill="#8282ff"/>
        <path id="Path_824845" data-name="Path 824845" d="M20.418,184.51c-.1.122-.192.122-.289,0l.289,0" transform="translate(-3.585 -32.86)" fill="#8282ff"/>
        <path id="Path_824846" data-name="Path 824846" d="M68.718,210.547c0,.075,0,.15.006.225a1.009,1.009,0,0,1-.068-.16c0-.016.04-.043.062-.065" transform="translate(-12.227 -37.498)" fill="#9393ff"/>
        <path id="Path_824847" data-name="Path 824847" d="M214.917,117.852l.02-.238c.141.091.113.168-.02.238" transform="translate(-38.276 -20.947)" fill="#8282ff"/>
        <path id="Path_824848" data-name="Path 824848" d="M64.321,212.5c.006-.071.012-.141.016-.211a.86.86,0,0,1,.039.152c0,.018-.035.039-.055.059" transform="translate(-11.455 -37.808)" fill="#8282ff"/>
        <path id="Path_824849" data-name="Path 824849" d="M13.426,184.569l-.233.022c.07-.089.145-.122.233-.022" transform="translate(-2.35 -32.86)" fill="#8282ff"/>
        <path id="Path_824850" data-name="Path 824850" d="M37.778,211.287c0,.079.007.159.011.238-.13-.074-.144-.152-.011-.238" transform="translate(-6.711 -37.629)" fill="#8282ff"/>
        <path id="Path_824851" data-name="Path 824851" d="M37.737,180.147c0,.079-.007.157-.012.236-.128-.085-.126-.164.012-.236" transform="translate(-6.702 -32.083)" fill="#8282ff"/>
        <path id="Path_824852" data-name="Path 824852" d="M37.752,179.144l-.007.246c-.136-.086-.13-.168.007-.246" transform="translate(-6.705 -31.905)" fill="#8282ff"/>
        <path id="Path_824853" data-name="Path 824853" d="M6.915,212.043l.012.212a.984.984,0,0,1-.065-.148c0-.016.034-.043.053-.064" transform="translate(-1.222 -37.764)" fill="#8282ff"/>
        <path id="Path_824854" data-name="Path 824854" d="M68.644,202.322c0,.078,0,.157.006.235-.137-.076-.145-.154-.006-.235" transform="translate(-12.207 -36.033)" fill="#9393ff"/>
        <path id="Union_40" data-name="Union 40" d="M-2348.826,5934.36c-.48-.3-.907-.731-1.551-.612-.015-3.03-.022-6.061-.052-9.09-.008-.851-.043-1.7-.125-2.549a5.236,5.236,0,0,0-5.073-5.067c-3.88-.145-7.768-.028-11.653-.018a2.34,2.34,0,0,0-.495.107c.089-.652-.559-.806-.847-1.187-1.417-1.875-2.66-3.858-3.892-5.857a67.883,67.883,0,0,1-5.407-11.255,82.031,82.031,0,0,1-2.711-8.709q-.422-1.6-.748-3.219.327,1.616.748,3.22a82.111,82.111,0,0,0,2.711,8.708,67.828,67.828,0,0,0,5.407,11.255c1.232,2,2.476,3.981,3.892,5.857.289.381.937.536.846,1.187a5.279,5.279,0,0,0-4.042,3.4c-.279.769-.587.62-.949.076-1.19-1.795-2.367-3.607-3.578-5.375-5.191-7.573-8.373-15.958-10.541-24.788a82.676,82.676,0,0,1-1.6-9.354,67.682,67.682,0,0,1-.35-13.153,87.3,87.3,0,0,1,2.844-16.561,76.049,76.049,0,0,1,11.88-24.509c10.294-14.45,24.065-24.144,40.908-29.562a70.239,70.239,0,0,1,10.62-2.519,48.9,48.9,0,0,1,6.712-.7,19.376,19.376,0,0,0,2.709-.383c.95-.154,1.3.152,1.3,1.188-.031,10.132-.012,20.264,0,30.4,0,1.637,0,3.274.039,4.911.016.812-.3,1.183-1.143,1.18-4.586-.021-8.867,1.366-13.014,3.1a42.206,42.206,0,0,0-20.444,18.3,35.271,35.271,0,0,0-4.779,15.281,53.64,53.64,0,0,0-.365,5.686,40.785,40.785,0,0,0,4.951,18.661c.425.769.934,1.491,1.412,2.23.222.339.374.7.046,1.023a6.567,6.567,0,0,0-1.75,5.447,3.832,3.832,0,0,1-.082.706c.048,1.83.069,3.66.149,5.488.071,1.676.558,2.192,2.051,2.317-.015,1.183-.072,2.364-.034,3.544a13.586,13.586,0,0,0,.143,3.518c-1.726.3-2.219.835-2.227,2.575-.016,4.454,0,8.908-.01,13.363,0,.712-.042,1.425-.064,2.138a1.176,1.176,0,0,1-.578.161A2.534,2.534,0,0,1-2348.826,5934.36Zm-4.713-42.083q.466.916.938,1.833-.473-.915-.936-1.832a28.652,28.652,0,0,1-1.784-4.513A28.639,28.639,0,0,0-2353.539,5892.277Zm-29.156-16.6Zm55.294-47.284a51.014,51.014,0,0,0-6.523,3.156,17.688,17.688,0,0,0-2.726,1.5,52.038,52.038,0,0,0-4.5,3.548c-1.068,1.093-2.3,2.033-3.323,3.165a44.578,44.578,0,0,0-4.37,5.335,38.6,38.6,0,0,0-2.784,4.247c-1.679,3.5-3.539,6.941-4.411,10.778-.359,1.583-.754,3.159-1.087,4.749-.307,1.463-.314,2.963-.485,4.442.171-1.478.179-2.979.485-4.442.334-1.589.729-3.165,1.087-4.749.871-3.837,2.732-7.276,4.411-10.777a38.462,38.462,0,0,1,2.784-4.247,44.593,44.593,0,0,1,4.37-5.337c1.022-1.132,2.255-2.07,3.323-3.165a52.038,52.038,0,0,1,4.5-3.548,17.688,17.688,0,0,1,2.726-1.5,51.407,51.407,0,0,1,6.523-3.156,1.689,1.689,0,0,0,1.233-1.836h0A1.69,1.69,0,0,1-2327.4,5828.392Z" transform="translate(2403.418 -5782.595)" fill="#62e3c5" stroke="rgba(0,0,0,0)" stroke-miterlimit="10" stroke-width="1"/>
        <path id="Union_39" data-name="Union 39" d="M-2377.507,5872.868c-1.8-.068-3.595-.367-5.4-.47s-3.555-.518-5.334-.741c-.579-.074-.767-.291-.762-.818.011-1.589.013-3.176.017-4.765q-.006-5.7-.01-11.41.006-8.125.028-16.248v-5.559a21.908,21.908,0,0,1,4.043,1.191,41.791,41.791,0,0,0,14.333,1.511,35.608,35.608,0,0,0,12.294-3.1,56.458,56.458,0,0,0,9.489-5.225,37.554,37.554,0,0,0,12.528-15.369,39.825,39.825,0,0,0,4.058-15.08c.035-.774.394-.877,1.032-.874,3.243.019,6.485.015,9.727,0,1.615,0,2.271-.632,2.411-2.249a20.573,20.573,0,0,0,4.563.178c.741-.026,1.483-.052,2.223-.039.647,1.736,1.184,2.112,3.025,2.112q6.5,0,13.009,0c1.484,0,1.52.01,1.471,1.434a76.231,76.231,0,0,1-3.178,18.77,77.665,77.665,0,0,1-8.72,19.286c-2.137,3.454-4.693,6.577-7.137,9.8a62.164,62.164,0,0,1-13.978,13.066,80.875,80.875,0,0,1-23.06,11.46,82.238,82.238,0,0,1-12.4,2.523,71.613,71.613,0,0,1-10.3.688Q-2375.517,5872.947-2377.507,5872.868Z" transform="translate(2467.422 -5703.717)" fill="#62e3c5" stroke="rgba(0,0,0,0)" stroke-miterlimit="10" stroke-width="1"/>
        <path id="Path_824859" data-name="Path 824859" d="M175.883,90.977c-2.262-.04-4.531.285-6.786-.14-.426-1.668-1.735-1.864-3.143-1.866-4.746-.006-9.492-.058-14.236.021a4.3,4.3,0,0,1-4.164-3.633,31.88,31.88,0,0,0-9.427-18.269,34.768,34.768,0,0,0-13.1-7.952,43.075,43.075,0,0,0-5.554-1.492,3.982,3.982,0,0,1-3.093-3.919q.049-22.057.022-44.115c0-1.485.138-2.887,1.43-3.93a2.743,2.743,0,0,1,1.593-.653,36.346,36.346,0,0,1,7.991.653,89.432,89.432,0,0,1,9.02,1.84c2.309.619,4.591,1.364,6.838,2.181a88.714,88.714,0,0,1,37.3,26.135c1.356,1.626,2.629,3.328,3.922,5.006.834,1.084,1.706,2.162,2.5,3.278a29.93,29.93,0,0,1,1.6,2.785c1.172,2.084,2.4,4.139,3.388,6.332q1.828,4.072,3.418,8.239a80.28,80.28,0,0,1,3.616,12.867,60.534,60.534,0,0,1,1.192,8.471c.044.8.168,1.61.168,2.422a3.537,3.537,0,0,1-3.736,3.727c-5.839.009-11.677-.007-17.515.012-1.461,0-2.721.429-3.245,2m-54-59.78h0c0,6.584.025,13.169-.026,19.752a1.42,1.42,0,0,0,1.251,1.613,53.527,53.527,0,0,1,5.725,1.915c1.461.617,3.081.842,4.4,1.82a19.067,19.067,0,0,0,2.278,1.528c3.464,1.865,6.115,4.723,8.837,7.43,3.087,3.07,5.047,6.948,6.7,10.959A45.536,45.536,0,0,1,152.97,82.3c.353,1.378.478,1.532,1.921,1.533q16.9.009,33.793.017c1.876,0,3.753.015,5.628.054.647.014.95-.254.969-.883A14.3,14.3,0,0,0,194.9,79.9a84.6,84.6,0,0,0-2.071-9.754c-.831-2.609-1.425-5.287-2.4-7.856-1.018-2.686-2.2-5.286-3.48-7.862a78.742,78.742,0,0,0-13.912-19.574,76.561,76.561,0,0,0-6.769-6.326,80.725,80.725,0,0,0-12.144-8.323,82.686,82.686,0,0,0-18.922-7.757,65.2,65.2,0,0,0-12.238-2.167c-.842-.055-1.106.182-1.1,1.059.036,6.618.02,13.237.02,19.855" transform="translate(-20.727 -0.889)" fill="#fce5d6"/>
        <path id="Path_824860" data-name="Path 824860" d="M71.426,159.128a13.558,13.558,0,0,1-.142-3.518c-.038-1.179.019-2.362.035-3.544,1.6-.037,1.891-.95,1.973-2.623.111-2.245.035-4.5.044-6.749.007-1.7.25-1.814,1.931-1.954,2.721-.227,5.439-.136,8.159-.142a11.786,11.786,0,0,1,2.028.15c1.312.225,1.41.307,1.414,1.59a4.846,4.846,0,0,0,.114,2.009l0,0c0,.229,0,.459,0,.686h-.046l.048.077c0,.247,0,.5,0,.742a.433.433,0,0,0-.046,0c.016.025.03.052.046.078q0,.369,0,.735a.451.451,0,0,0-.047,0l.047.081c0,.244,0,.489,0,.731l-.048,0,.048.081,0,.73-.048.007.048.084c0,.243,0,.486,0,.727-.016,0-.031,0-.048.008l.048.085c0,.242,0,.482,0,.722a.311.311,0,0,0-.048.012l.048.086c0,.241,0,.482,0,.722-.016,0-.032.007-.048.011l.048.085c0,.242,0,.484,0,.724l-.048.009.049.084c0,.243,0,.487,0,.73a.305.305,0,0,0-.047.007l.047.08c0,.245,0,.49,0,.733a.447.447,0,0,0-.048.006l.048.081v.732a.473.473,0,0,0-.048.007l.048.081c0,.243,0,.487,0,.73l-.048.007.048.081v.731l-.048.007.048.081c0,.245,0,.489,0,.731a.3.3,0,0,0-.048.007c.016.026.031.053.048.08v.735l-.047,0c.016.026.031.053.048.08v.733a.474.474,0,0,0-.048.006l.048.081v.732a.47.47,0,0,0-.048.006l.048.081c0,.246,0,.491,0,.735a.449.449,0,0,0-.047,0l.048.081c0,.245,0,.491,0,.735a.3.3,0,0,0-.047,0l.047.079c0,.246,0,.492,0,.736a.31.31,0,0,0-.048,0c.016.025.032.052.048.078v.738a.447.447,0,0,0-.047,0l.048.078q0,.37,0,.737a.447.447,0,0,0-.047,0l.048.079c0,.246,0,.492,0,.736a.447.447,0,0,0-.047,0l.047.079v.736l-.048,0,.048.078v.737a.452.452,0,0,0-.048,0l.048.078v.737a.312.312,0,0,0-.048,0c.016.025.032.052.048.078v.737c-.016,0-.031,0-.048,0l.048.078v.737c-.016,0-.031,0-.048,0,.016.025.032.052.048.078v.737c-.016,0-.031,0-.048,0l.048.078v.737c-.016,0-.031,0-.048,0,.016.025.032.052.048.078v.736l-.048,0,.048.078v.737a.321.321,0,0,0-.048,0c.016.025.032.052.048.078v.736l-.048,0,.048.078v.737a.319.319,0,0,0-.048,0c.016.025.032.052.048.078v.736l-.048,0,.048.078v.737a.319.319,0,0,0-.048,0c.016.025.032.052.048.078v.736l-.048,0,.048.079v.736l-.048,0,.048.079v.736c-.016,0-.031,0-.048,0l.048.078v.738a.451.451,0,0,0-.047,0c.016.026.031.053.048.078q0,.37,0,.737a.447.447,0,0,0-.047,0c.016.026.031.053.048.078,0,.247,0,.495,0,.741a.425.425,0,0,0-.046,0c.015.025.03.05.046.076,0,.248,0,.5,0,.745l-.047,0,.05.08,0,.735a.425.425,0,0,0-.046,0c.015.025.03.051.046.076,0,.247,0,.5,0,.741l-.047,0,.047.076v.742l-.047,0,.047.078c0,.246,0,.492,0,.736a.443.443,0,0,0-.047,0l.047.078c0,.246,0,.491,0,.736a.312.312,0,0,0-.048,0c.016.026.032.053.048.08v.735l-.048,0c.016.026.032.053.048.08v.734l-.048,0,.048.08v.735l-.047,0c.016.026.031.053.048.08v.734l-.048,0,.048.081v.734l-.048,0,.048.081c0,.245,0,.49,0,.733l-.048,0c.016.026.032.053.048.08q0,.367,0,.732a.447.447,0,0,0-.048.007c.016.027.032.054.048.082,0,.244,0,.488,0,.731l-.048.007.048.081v.73a.326.326,0,0,0-.048.007l.048.082v.729l-.048.007.048.083c0,.243,0,.487,0,.728a.447.447,0,0,0-.048.008l.048.083v.728l-.048.007.048.083c0,.244,0,.488,0,.731l-.047,0,.048.078c0,.251,0,.5,0,.75-.016.02-.03.041-.044.062h.044c0,.249-.007.5-.012.746l-.043.039.05.033q0,.378,0,.756l-.05.035.048.04c.01.272.019.544.028.813-.009.255-.016.514-.025.772-.13,1.31-1.2,1.4-2.1,1.416-3.133.07-6.269.061-9.4.013-1.828-.029-2.127-.388-2.129-2.244q-.01-16.509.011-33.02c0-1.494-.326-2.956-.234-4.457.068-1.095-.9-1.345-1.687-1.692" transform="translate(-12.687 -25.038)" fill="#ff9c33"/>
        <path id="Path_824861" data-name="Path 824861" d="M56.455,179.449v.53c0,.1,0,.192,0,.289q0,.265,0,.529c0,.1,0,.193,0,.29,0,.176,0,.353,0,.528,0,.1,0,.194,0,.291q0,.264,0,.527c0,.1,0,.195,0,.293v.527c0,.1,0,.194,0,.292q0,.265,0,.528v.819c0,.1,0,.193,0,.29v.53c0,.1,0,.193,0,.29,0,.176,0,.352,0,.527,0,.1,0,.195,0,.293v.524c0,.1,0,.2,0,.3v1.341c0,.1,0,.2,0,.3,0,.175,0,.351,0,.525,0,.1,0,.2,0,.3,0,.175,0,.349,0,.524v.3q0,.263,0,.524c0,.1,0,.195,0,.293l0,.526c0,.1,0,.195,0,.293,0,.177,0,.353,0,.528v.29c0,.176,0,.353,0,.528v.293c0,.176,0,.351,0,.526,0,.1,0,.2,0,.294v.533a1.634,1.634,0,0,0,0,1.092q0,.27,0,.538v.293c0,.176,0,.352,0,.526,0,.1,0,.193,0,.29,0,.242,0,.486,0,.728l-.04.049.039.05c0,.243,0,.486-.006.728l-.039.042.038.044-.007.755c-.017.023-.051.049-.048.072a1,1,0,0,0,.043.165q0,.3,0,.591c-.016.021-.048.045-.046.066a.921.921,0,0,0,.042.151c0,.2,0,.41,0,.613-.016.021-.046.044-.044.062a.814.814,0,0,0,.043.143l0,.627c-.009.319-.017.639-.026.96.02.856-.557,1.161-1.251,1.165-3.749.025-7.5.007-11.246,0-.552,0-.736-.392-.888-.821a4.71,4.71,0,0,1-.125-1.622c-.009-10.8.012-21.6-.037-32.4-.007-1.735.7-1.935,2.007-1.972,1.567-.044,3.136,0,4.7,0a6.586,6.586,0,0,0,2.384.008l.877.009a.679.679,0,0,0,.778.016l.867.009a1.417,1.417,0,0,0,.939.109c1.147.132.962,1.015,1,1.77-.014.02-.042.044-.039.062a.826.826,0,0,0,.044.136c.006.2.012.4.016.6a24.367,24.367,0,0,0,.027,4.134c0,.182,0,.363,0,.544,0,.1,0,.191,0,.288,0,.177,0,.354,0,.53,0,.1,0,.192,0,.288q0,.266,0,.531c0,.1,0,.191,0,.288,0,.177,0,.354,0,.53,0,.1,0,.192,0,.289q0,.265,0,.529c0,.1,0,.192,0,.289" transform="translate(-7.631 -30.003)" fill="#fce5d6"/>
        <path id="Path_824862" data-name="Path 824862" d="M64.5,183.9c.644-.119,1.071.31,1.551.611.565.356,1.113.81,1.846.4.03,2.314.067,4.628.084,6.943,0,.654-.269.654-.848.434-2.122-.806-3.1-2.151-2.69-4.515A23.582,23.582,0,0,0,64.5,183.9" transform="translate(-11.461 -32.748)" fill="#8282ff"/>
        <path id="Path_824863" data-name="Path 824863" d="M123.132,154.269c.055-.333-.2-.793.272-.958.593-.209,1,.189,1.378.571a2.918,2.918,0,0,1-1.65.387" transform="translate(-21.926 -27.294)" fill="#f8f9fb"/>
        <path id="Path_824864" data-name="Path 824864" d="M59.381,175.934a24.367,24.367,0,0,1-.027-4.134,15.751,15.751,0,0,1,.027,4.134" transform="translate(-10.557 -30.597)" fill="#8282ff"/>
        <path id="Path_824865" data-name="Path 824865" d="M53.4,168.486a6.586,6.586,0,0,1-2.384-.008,11.011,11.011,0,0,1,2.384.008" transform="translate(-9.085 -29.994)" fill="#9393ff"/>
        <path id="Path_824866" data-name="Path 824866" d="M111.61,155.35a4.332,4.332,0,0,1,2.087.055,4.99,4.99,0,0,1-2.087-.055" transform="translate(-19.877 -27.649)" fill="#9393ff"/>
        <path id="Path_824867" data-name="Path 824867" d="M116.7,210.83a3.978,3.978,0,0,1-2.055.151,5.089,5.089,0,0,1,2.055-.151" transform="translate(-20.417 -37.542)" fill="#8282ff"/>
        <path id="Path_824868" data-name="Path 824868" d="M59.385,202.509a1.634,1.634,0,0,1,0-1.092,1.329,1.329,0,0,1,0,1.092" transform="translate(-10.559 -35.872)" fill="#8282ff"/>
        <path id="Path_824869" data-name="Path 824869" d="M113.886,211a2.108,2.108,0,0,1-1.253-.038,1.878,1.878,0,0,1,1.253.038" transform="translate(-20.059 -37.555)" fill="#8282ff"/>
        <path id="Path_824870" data-name="Path 824870" d="M59.333,211.654c.009-.321.017-.641.026-.96a.919.919,0,0,1-.026.96" transform="translate(-10.567 -37.524)" fill="#8282ff"/>
        <path id="Path_824871" data-name="Path 824871" d="M57.922,168.638a1.418,1.418,0,0,1-.939-.109.963.963,0,0,1,.939.109" transform="translate(-10.148 -30.002)" fill="#9393ff"/>
        <path id="Path_824872" data-name="Path 824872" d="M90.377,211.627c.008-.259.016-.517.024-.772-.007.26-.016.515-.024.772" transform="translate(-16.096 -37.552)" fill="#8282ff"/>
        <path id="Path_824873" data-name="Path 824873" d="M55.759,168.516a.676.676,0,0,1-.778-.016,1.154,1.154,0,0,1,.778.016" transform="translate(-9.792 -29.998)" fill="#9393ff"/>
        <path id="Path_824874" data-name="Path 824874" d="M114.657,155.386a.96.96,0,0,1,.806-.112c-.238.256-.521.193-.806.112" transform="translate(-20.42 -27.648)" fill="#9393ff"/>
        <path id="Path_824875" data-name="Path 824875" d="M76.79,135.589l.6.041a.409.409,0,0,1-.6-.041" transform="translate(-13.676 -24.148)" fill="#8282ff"/>
        <path id="Path_824876" data-name="Path 824876" d="M90.37,205.86l-.048-.083a.333.333,0,0,1,.048-.007l.034.046-.034.044" transform="translate(-16.086 -36.647)" fill="#8282ff"/>
        <path id="Path_824877" data-name="Path 824877" d="M90.376,167c-.016-.026-.031-.053-.048-.078l.048,0,.031.042Z" transform="translate(-16.087 -29.726)" fill="#8282ff"/>
        <path id="Path_824878" data-name="Path 824878" d="M90.375,165l-.048-.079.048,0,.032.043Z" transform="translate(-16.087 -29.371)" fill="#8282ff"/>
        <path id="Path_824879" data-name="Path 824879" d="M90.376,167.992c-.016-.026-.031-.053-.048-.078l.048,0,.031.042Z" transform="translate(-16.087 -29.904)" fill="#8282ff"/>
        <path id="Path_824880" data-name="Path 824880" d="M90.375,164.007l-.048-.08.048,0,.032.044Z" transform="translate(-16.087 -29.194)" fill="#8282ff"/>
        <path id="Path_824881" data-name="Path 824881" d="M90.375,163.01l-.048-.081a.443.443,0,0,1,.048-.006l.032.044Z" transform="translate(-16.087 -29.016)" fill="#8282ff"/>
        <path id="Path_824882" data-name="Path 824882" d="M90.375,162.014l-.048-.081a.451.451,0,0,1,.048-.006l.032.044Z" transform="translate(-16.087 -28.839)" fill="#8282ff"/>
        <path id="Path_824883" data-name="Path 824883" d="M90.374,161.018l-.048-.081.048,0,.032.044Z" transform="translate(-16.087 -28.661)" fill="#8282ff"/>
        <path id="Path_824884" data-name="Path 824884" d="M90.376,168.988l-.048-.078.048,0,.031.042Z" transform="translate(-16.087 -30.081)" fill="#8282ff"/>
        <path id="Path_824885" data-name="Path 824885" d="M90.376,169.984c-.016-.026-.031-.053-.048-.078a.3.3,0,0,1,.048,0l.031.042Z" transform="translate(-16.087 -30.259)" fill="#8282ff"/>
        <path id="Path_824886" data-name="Path 824886" d="M59.34,171.028a.825.825,0,0,1-.044-.136c0-.018.025-.042.039-.062.025.051.054.1.074.151,0,.006-.044.03-.068.047" transform="translate(-10.56 -30.424)" fill="#8282ff"/>
        <path id="Path_824887" data-name="Path 824887" d="M90.375,170.98l-.047-.078a.452.452,0,0,1,.047,0l.031.041Z" transform="translate(-16.087 -30.436)" fill="#8282ff"/>
        <path id="Path_824888" data-name="Path 824888" d="M90.373,160.02l-.048-.081a.452.452,0,0,1,.048-.006l.032.044Z" transform="translate(-16.087 -28.484)" fill="#8282ff"/>
        <path id="Path_824889" data-name="Path 824889" d="M90.376,171.977l-.048-.078a.446.446,0,0,1,.048,0l.031.042Z" transform="translate(-16.087 -30.614)" fill="#8282ff"/>
        <path id="Path_824890" data-name="Path 824890" d="M90.376,172.973l-.048-.078a.446.446,0,0,1,.048,0l.031.042Z" transform="translate(-16.087 -30.791)" fill="#8282ff"/>
        <path id="Path_824891" data-name="Path 824891" d="M90.376,173.97l-.048-.078a.446.446,0,0,1,.048,0l.031.042Z" transform="translate(-16.087 -30.969)" fill="#8282ff"/>
        <path id="Path_824892" data-name="Path 824892" d="M90.376,174.966l-.048-.078a.446.446,0,0,1,.048,0l.031.042Z" transform="translate(-16.087 -31.146)" fill="#8282ff"/>
        <path id="Path_824893" data-name="Path 824893" d="M90.376,175.963l-.048-.078a.45.45,0,0,1,.048,0l.031.042Z" transform="translate(-16.087 -31.324)" fill="#8282ff"/>
        <path id="Path_824894" data-name="Path 824894" d="M90.372,159.025l-.048-.081a.443.443,0,0,1,.048-.007l.033.045Z" transform="translate(-16.086 -28.306)" fill="#8282ff"/>
        <path id="Path_824895" data-name="Path 824895" d="M90.376,176.959l-.048-.078a.446.446,0,0,1,.048,0l.031.042Z" transform="translate(-16.087 -31.501)" fill="#8282ff"/>
        <path id="Path_824896" data-name="Path 824896" d="M59.4,177.781c0-.1,0-.193,0-.288.139.1.139.193,0,.288" transform="translate(-10.579 -31.611)" fill="#8282ff"/>
        <path id="Path_824897" data-name="Path 824897" d="M90.376,177.956l-.048-.078a.446.446,0,0,1,.048,0l.031.042Z" transform="translate(-16.087 -31.679)" fill="#8282ff"/>
        <path id="Path_824898" data-name="Path 824898" d="M59.4,178.777c0-.1,0-.193,0-.288q.208.146,0,.288" transform="translate(-10.579 -31.788)" fill="#8282ff"/>
        <path id="Path_824899" data-name="Path 824899" d="M90.376,178.952l-.048-.078a.446.446,0,0,1,.048,0l.031.042Z" transform="translate(-16.087 -31.856)" fill="#8282ff"/>
        <path id="Path_824900" data-name="Path 824900" d="M59.4,179.773c0-.1,0-.193,0-.288q.208.145,0,.288" transform="translate(-10.579 -31.966)" fill="#8282ff"/>
        <path id="Path_824901" data-name="Path 824901" d="M90.376,179.949l-.048-.078a.446.446,0,0,1,.048,0l.031.042Z" transform="translate(-16.087 -32.034)" fill="#8282ff"/>
        <path id="Path_824902" data-name="Path 824902" d="M59.4,180.77c0-.1,0-.193,0-.289.14.1.139.194,0,.289" transform="translate(-10.579 -32.143)" fill="#8282ff"/>
        <path id="Path_824903" data-name="Path 824903" d="M90.376,180.945l-.048-.078a.45.45,0,0,1,.048,0l.031.042Z" transform="translate(-16.087 -32.211)" fill="#8282ff"/>
        <path id="Path_824904" data-name="Path 824904" d="M90.371,158.029l-.048-.082a.443.443,0,0,1,.048-.007l.033.045Z" transform="translate(-16.086 -28.128)" fill="#8282ff"/>
        <path id="Path_824905" data-name="Path 824905" d="M59.4,181.766c0-.1,0-.194,0-.289q.21.147,0,.289" transform="translate(-10.579 -32.32)" fill="#8282ff"/>
        <path id="Path_824906" data-name="Path 824906" d="M90.376,181.942l-.048-.078a.442.442,0,0,1,.048,0l.031.042Z" transform="translate(-16.087 -32.388)" fill="#8282ff"/>
        <path id="Path_824907" data-name="Path 824907" d="M59.4,182.764c0-.1,0-.194,0-.289q.21.145,0,.289" transform="translate(-10.579 -32.498)" fill="#8282ff"/>
        <path id="Path_824908" data-name="Path 824908" d="M90.376,182.938c-.016-.026-.031-.053-.048-.078a.3.3,0,0,1,.048,0l.031.042Z" transform="translate(-16.087 -32.566)" fill="#8282ff"/>
        <path id="Path_824909" data-name="Path 824909" d="M59.4,183.76c0-.1,0-.194,0-.29.141.1.14.194,0,.29" transform="translate(-10.579 -32.675)" fill="#8282ff"/>
        <path id="Path_824910" data-name="Path 824910" d="M90.376,183.935c-.016-.026-.031-.053-.048-.078a.3.3,0,0,1,.048,0l.031.042Z" transform="translate(-16.087 -32.743)" fill="#8282ff"/>
        <path id="Path_824911" data-name="Path 824911" d="M90.362,209.85l-.049-.04.051-.036.037.042Z" transform="translate(-16.084 -37.36)" fill="#8282ff"/>
        <path id="Path_824912" data-name="Path 824912" d="M90.372,157.033l-.048-.081a.447.447,0,0,1,.048-.006l.033.044Z" transform="translate(-16.086 -27.951)" fill="#8282ff"/>
        <path id="Path_824913" data-name="Path 824913" d="M59.349,209.887a.908.908,0,0,1-.043-.142c0-.019.028-.042.044-.062.128.07.128.137,0,.2" transform="translate(-10.562 -37.343)" fill="#8282ff"/>
        <path id="Path_824914" data-name="Path 824914" d="M59.4,184.758c0-.1,0-.195,0-.292q.21.148,0,.292" transform="translate(-10.579 -32.853)" fill="#8282ff"/>
        <path id="Path_824915" data-name="Path 824915" d="M90.376,184.931l-.048-.078.048,0,.031.042Z" transform="translate(-16.087 -32.921)" fill="#8282ff"/>
        <path id="Path_824916" data-name="Path 824916" d="M90.372,156.035l-.048-.081a.44.44,0,0,1,.048-.006l.033.044Z" transform="translate(-16.086 -27.774)" fill="#8282ff"/>
        <path id="Path_824917" data-name="Path 824917" d="M90.37,155.038l-.048-.081a.452.452,0,0,1,.048-.006L90.4,155Z" transform="translate(-16.086 -27.596)" fill="#8282ff"/>
        <path id="Path_824918" data-name="Path 824918" d="M90.367,154.043l-.048-.083a.447.447,0,0,1,.048-.009L90.4,154Z" transform="translate(-16.085 -27.418)" fill="#8282ff"/>
        <path id="Path_824919" data-name="Path 824919" d="M59.4,185.754c0-.1,0-.2,0-.293.14.1.141.2,0,.293" transform="translate(-10.579 -33.03)" fill="#8282ff"/>
        <path id="Path_824920" data-name="Path 824920" d="M90.376,185.928c-.016-.026-.031-.053-.048-.078l.048,0,.031.042Z" transform="translate(-16.087 -33.098)" fill="#8282ff"/>
        <path id="Path_824921" data-name="Path 824921" d="M59.4,186.751c0-.1,0-.2,0-.292q.211.148,0,.292" transform="translate(-10.579 -33.208)" fill="#8282ff"/>
        <path id="Path_824922" data-name="Path 824922" d="M90.376,186.924l-.048-.078a.452.452,0,0,1,.048,0l.031.041Z" transform="translate(-16.087 -33.276)" fill="#8282ff"/>
        <path id="Path_824923" data-name="Path 824923" d="M90.361,208.838l-.051-.032.044-.039.043.03Z" transform="translate(-16.084 -37.18)" fill="#8282ff"/>
        <path id="Path_824924" data-name="Path 824924" d="M59.4,187.748v-.292q.212.147,0,.292" transform="translate(-10.579 -33.385)" fill="#8282ff"/>
        <path id="Path_824925" data-name="Path 824925" d="M90.378,187.919l-.047-.075a.444.444,0,0,1,.047,0l.03.039Z" transform="translate(-16.088 -33.454)" fill="#8282ff"/>
        <path id="Path_824926" data-name="Path 824926" d="M59.4,188.742v-.29c.141.1.141.194,0,.29" transform="translate(-10.579 -33.563)" fill="#8282ff"/>
        <path id="Path_824927" data-name="Path 824927" d="M90.38,188.924l-.05-.08.047,0,.033.04Z" transform="translate(-16.087 -33.632)" fill="#8282ff"/>
        <path id="Path_824928" data-name="Path 824928" d="M90.365,153.048l-.048-.085a.442.442,0,0,1,.048-.011L90.4,153Z" transform="translate(-16.085 -27.24)" fill="#8282ff"/>
        <path id="Path_824929" data-name="Path 824929" d="M59.4,189.74c0-.1,0-.194,0-.29.141.1.14.195,0,.29" transform="translate(-10.578 -33.74)" fill="#8282ff"/>
        <path id="Path_824930" data-name="Path 824930" d="M90.366,152.054l-.049-.086c.016,0,.032-.009.049-.012l.035.05Z" transform="translate(-16.085 -27.063)" fill="#8282ff"/>
        <path id="Path_824931" data-name="Path 824931" d="M90.378,189.912l-.047-.076a.444.444,0,0,1,.047,0l.03.039Z" transform="translate(-16.088 -33.809)" fill="#8282ff"/>
        <path id="Path_824932" data-name="Path 824932" d="M59.394,190.738c0-.1,0-.2,0-.293.141.1.141.2,0,.293" transform="translate(-10.578 -33.917)" fill="#8282ff"/>
        <path id="Path_824933" data-name="Path 824933" d="M90.377,190.909l-.047-.076.047,0,.031.04Z" transform="translate(-16.087 -33.986)" fill="#8282ff"/>
        <path id="Path_824934" data-name="Path 824934" d="M90.368,151.057l-.048-.085c.016,0,.032-.007.048-.008l.034.048Z" transform="translate(-16.086 -26.886)" fill="#8282ff"/>
        <path id="Path_824935" data-name="Path 824935" d="M59.393,191.735c0-.1,0-.2,0-.3.143.1.142.2,0,.3" transform="translate(-10.578 -34.094)" fill="#8282ff"/>
        <path id="Path_824936" data-name="Path 824936" d="M90.377,191.909l-.047-.078a.437.437,0,0,1,.047,0l.031.04Z" transform="translate(-16.087 -34.164)" fill="#8282ff"/>
        <path id="Path_824937" data-name="Path 824937" d="M59.353,208.89a.92.92,0,0,1-.042-.151c0-.021.03-.044.046-.066.133.076.129.147,0,.217" transform="translate(-10.563 -37.164)" fill="#8282ff"/>
        <path id="Path_824938" data-name="Path 824938" d="M59.393,192.731v-.3c.143.1.143.2,0,.3" transform="translate(-10.578 -34.272)" fill="#8282ff"/>
        <path id="Path_824939" data-name="Path 824939" d="M90.376,192.9c-.016-.026-.031-.053-.048-.078a.446.446,0,0,1,.048,0l.031.042Z" transform="translate(-16.087 -34.341)" fill="#8282ff"/>
        <path id="Path_824940" data-name="Path 824940" d="M90.37,150.059c-.017-.028-.033-.056-.049-.083a.47.47,0,0,1,.049-.008l.033.047Z" transform="translate(-16.086 -26.709)" fill="#8282ff"/>
        <path id="Path_824941" data-name="Path 824941" d="M59.392,193.727v-.3c.142.1.144.2,0,.3" transform="translate(-10.577 -34.449)" fill="#8282ff"/>
        <path id="Path_824942" data-name="Path 824942" d="M90.376,166l-.048-.078a.45.45,0,0,1,.048,0l.031.042Z" transform="translate(-16.087 -29.549)" fill="#8282ff"/>
        <path id="Path_824943" data-name="Path 824943" d="M59.394,194.724c0-.1,0-.2,0-.3.143.1.143.2,0,.3" transform="translate(-10.578 -34.627)" fill="#8282ff"/>
        <path id="Path_824944" data-name="Path 824944" d="M90.374,194.9l-.048-.08.048,0,.032.044Z" transform="translate(-16.087 -34.695)" fill="#8282ff"/>
        <path id="Path_824945" data-name="Path 824945" d="M59.4,195.72v-.294q.213.148,0,.294" transform="translate(-10.578 -34.805)" fill="#8282ff"/>
        <path id="Path_824946" data-name="Path 824946" d="M90.374,195.894c-.016-.026-.032-.053-.048-.08l.048,0,.032.044Z" transform="translate(-16.087 -34.873)" fill="#8282ff"/>
        <path id="Path_824947" data-name="Path 824947" d="M59.4,196.715c0-.1,0-.2,0-.293.141.1.141.2,0,.293" transform="translate(-10.578 -34.982)" fill="#8282ff"/>
        <path id="Path_824948" data-name="Path 824948" d="M90.374,196.891l-.048-.08.048,0,.032.044Z" transform="translate(-16.087 -35.05)" fill="#8282ff"/>
        <path id="Path_824949" data-name="Path 824949" d="M90.372,149.061l-.048-.081.048,0,.033.044-.033.043" transform="translate(-16.086 -26.532)" fill="#8282ff"/>
        <path id="Path_824950" data-name="Path 824950" d="M59.4,197.712v-.293c.139.1.14.2,0,.293" transform="translate(-10.579 -35.159)" fill="#8282ff"/>
        <path id="Path_824951" data-name="Path 824951" d="M90.374,197.888l-.048-.08a.3.3,0,0,1,.048,0l.032.043Z" transform="translate(-16.087 -35.228)" fill="#8282ff"/>
        <path id="Path_824952" data-name="Path 824952" d="M87.439,135.673a.346.346,0,0,1,.469.011.362.362,0,0,1-.469-.011" transform="translate(-15.573 -24.147)" fill="#8282ff"/>
        <path id="Path_824953" data-name="Path 824953" d="M59.4,198.709v-.291c.14.1.139.194,0,.291" transform="translate(-10.579 -35.337)" fill="#8282ff"/>
        <path id="Path_824954" data-name="Path 824954" d="M90.367,207.845h-.044l.044-.062v.062" transform="translate(-16.086 -37.005)" fill="#8282ff"/>
        <path id="Path_824955" data-name="Path 824955" d="M90.374,198.883l-.048-.081.048,0,.032.044Z" transform="translate(-16.087 -35.405)" fill="#8282ff"/>
        <path id="Path_824956" data-name="Path 824956" d="M59.4,199.706v-.293c.14.1.139.2,0,.293" transform="translate(-10.58 -35.515)" fill="#8282ff"/>
        <path id="Path_824957" data-name="Path 824957" d="M90.374,199.88l-.048-.08.048,0,.032.044Z" transform="translate(-16.087 -35.583)" fill="#8282ff"/>
        <path id="Path_824958" data-name="Path 824958" d="M59.363,207.9a.986.986,0,0,1-.043-.166c0-.022.031-.048.048-.071.137.083.132.162-.006.238" transform="translate(-10.565 -36.984)" fill="#8282ff"/>
        <path id="Path_824959" data-name="Path 824959" d="M59.4,200.7c0-.1,0-.2,0-.294.139.1.138.2,0,.294" transform="translate(-10.58 -35.692)" fill="#8282ff"/>
        <path id="Path_824960" data-name="Path 824960" d="M90.377,148.067l-.048-.081a.452.452,0,0,1,.048,0l.031.043Z" transform="translate(-16.087 -26.355)" fill="#8282ff"/>
        <path id="Path_824961" data-name="Path 824961" d="M90.372,200.877l-.049-.081.049-.007.033.045Z" transform="translate(-16.086 -35.759)" fill="#8282ff"/>
        <path id="Path_824962" data-name="Path 824962" d="M90.382,147.072l-.047-.078a.449.449,0,0,1,.047,0l.03.039-.03.038" transform="translate(-16.088 -26.179)" fill="#8282ff"/>
        <path id="Path_824963" data-name="Path 824963" d="M90.372,201.874l-.048-.081a.439.439,0,0,1,.048-.007l.033.045Z" transform="translate(-16.086 -35.937)" fill="#8282ff"/>
        <path id="Path_824964" data-name="Path 824964" d="M90.383,146.075,90.335,146a.43.43,0,0,1,.046,0l.031.038Z" transform="translate(-16.088 -26.002)" fill="#8282ff"/>
        <path id="Path_824965" data-name="Path 824965" d="M90.371,202.87c-.017-.027-.033-.055-.049-.082a.478.478,0,0,1,.049-.008l.032.046Z" transform="translate(-16.086 -36.114)" fill="#8282ff"/>
        <path id="Path_824966" data-name="Path 824966" d="M59.4,203.693V203.4c.139.1.138.2,0,.293" transform="translate(-10.58 -36.225)" fill="#8282ff"/>
        <path id="Path_824967" data-name="Path 824967" d="M90.371,203.867c-.017-.027-.033-.055-.049-.082a.478.478,0,0,1,.049-.008l.032.046Z" transform="translate(-16.086 -36.292)" fill="#8282ff"/>
        <path id="Path_824968" data-name="Path 824968" d="M90.371,206.852l-.048-.078.048,0,.032.043Z" transform="translate(-16.086 -36.825)" fill="#8282ff"/>
        <path id="Path_824969" data-name="Path 824969" d="M59.4,204.686c0-.1,0-.194,0-.289q.208.147,0,.289" transform="translate(-10.579 -36.402)" fill="#8282ff"/>
        <path id="Path_824970" data-name="Path 824970" d="M90.37,204.864l-.048-.083c.016,0,.032-.007.048-.008l.034.047Z" transform="translate(-16.086 -36.469)" fill="#8282ff"/>
        <path id="Path_824971" data-name="Path 824971" d="M88.707,135.72c.157-.15.3-.1.429.037l-.429-.037" transform="translate(-15.798 -24.155)" fill="#8282ff"/>
        <path id="Path_824972" data-name="Path 824972" d="M90.374,193.9l-.048-.08a.3.3,0,0,1,.048,0l.032.043Z" transform="translate(-16.087 -34.518)" fill="#8282ff"/>
        <path id="Path_824973" data-name="Path 824973" d="M59.387,205.734l-.039-.05.041-.048.065.089-.067.009" transform="translate(-10.57 -36.623)" fill="#8282ff"/>
        <path id="Path_824974" data-name="Path 824974" d="M90.394,145.163h0" transform="translate(-16.098 -25.853)" fill="#8282ff"/>
        <path id="Path_824975" data-name="Path 824975" d="M59.38,206.727l-.038-.044.039-.041.063.081-.064,0" transform="translate(-10.569 -36.802)" fill="#8282ff"/>
        <path id="Path_824976" data-name="Path 824976" d="M86.438,135.689l.283,0c-.095.116-.189.117-.283,0" transform="translate(-15.394 -24.166)" fill="#8282ff"/>
        <path id="Path_824977" data-name="Path 824977" d="M84.446,135.679h.279q-.141.182-.279,0" transform="translate(-15.039 -24.164)" fill="#8282ff"/>
        <path id="Path_824978" data-name="Path 824978" d="M112.139,210.959l-.236.053c.058-.108.12-.205.236-.053" transform="translate(-19.929 -37.557)" fill="#8282ff"/>
        <path id="Path_824979" data-name="Path 824979" d="M11.962,199.248q0-3.987,0-7.974c0-1.281.3-1.648,1.613-1.658q5.164-.038,10.33.025c1.268.015,1.563.345,1.571,1.6q.047,8.076.057,16.152c0,1.372-.333,1.7-1.692,1.7q-5.063.012-10.126-.011c-1.386-.007-1.71-.336-1.718-1.758-.015-2.693,0-5.384,0-8.077h-.03" transform="translate(-2.13 -33.767)" fill="#ff9c33"/>
        <path id="Path_824980" data-name="Path 824980" d="M123.076,32.343c0-6.618.016-13.237-.02-19.855,0-.876.259-1.114,1.1-1.059A65.2,65.2,0,0,1,136.4,13.6a82.667,82.667,0,0,1,18.921,7.758,80.685,80.685,0,0,1,12.144,8.322A76.562,76.562,0,0,1,174.23,36a78.747,78.747,0,0,1,13.912,19.574c1.275,2.574,2.462,5.176,3.48,7.861.975,2.568,1.569,5.247,2.4,7.857a84.761,84.761,0,0,1,2.071,9.753,14.352,14.352,0,0,1,.376,3.122c-.019.629-.322.9-.969.882-1.876-.039-3.752-.053-5.628-.054q-16.9-.014-33.793-.017c-1.443,0-1.568-.155-1.921-1.533a45.421,45.421,0,0,0-1.918-6.087c-1.654-4.012-3.615-7.889-6.7-10.959-2.722-2.707-5.374-5.565-8.837-7.43a19.157,19.157,0,0,1-2.278-1.527c-1.32-.978-2.939-1.2-4.4-1.82a53.484,53.484,0,0,0-5.726-1.916,1.419,1.419,0,0,1-1.25-1.613c.051-6.584.026-13.169.026-19.753Zm37.478,11.679c.614,0,1.232.046,1.841-.01a2.054,2.054,0,0,0,1.839-1.987,1.905,1.905,0,0,0-1.933-1.85c-1.022-.039-2.047-.061-3.068-.02-.66.026-.9-.182-.912-.86-.025-1.415-.768-2.2-1.975-2.209A2.084,2.084,0,0,0,154.3,39.3c-.011.748-.3.88-.97.891a6,6,0,0,0-5.2,8.328,6.069,6.069,0,0,0,5.225,3.713c.659.061.978.3.93,1.017a22.865,22.865,0,0,0-.007,2.556c.025.578-.181.773-.76.764a22.234,22.234,0,0,0-3.062.09c-1.285.158-1.968.931-1.925,1.969a2.142,2.142,0,0,0,2.117,1.959,14.788,14.788,0,0,0,2.25.018c.876-.064,1.379.054,1.5,1.142a2.066,2.066,0,0,0,2.159,1.9,2.241,2.241,0,0,0,1.771-2.3.527.527,0,0,0,0-.1c-.032-.4.075-.643.551-.647a6.759,6.759,0,0,0,1-.175,6.192,6.192,0,0,0,5.2-5.619,6.051,6.051,0,0,0-4.914-6.26c-1.839-.393-1.86-.393-1.835-2.29.032-2.463-.457-2.208,2.215-2.241" transform="translate(-21.914 -2.034)" fill="#ff9c33"/>
        <path id="Path_824981" data-name="Path 824981" d="M165.878,49.583c-2.671.034-2.183-.222-2.215,2.241-.025,1.9,0,1.9,1.835,2.29a6.052,6.052,0,0,1,4.915,6.259,6.2,6.2,0,0,1-5.2,5.62,6.9,6.9,0,0,1-1,.175c-.475,0-.582.247-.55.646a.715.715,0,0,1,0,.1,2.241,2.241,0,0,1-1.772,2.3,2.065,2.065,0,0,1-2.159-1.9c-.124-1.087-.627-1.206-1.5-1.142a14.788,14.788,0,0,1-2.25-.019,2.142,2.142,0,0,1-2.117-1.959c-.043-1.038.639-1.812,1.925-1.97a22.512,22.512,0,0,1,3.062-.09c.579.01.784-.185.759-.764a23.045,23.045,0,0,1,.007-2.555c.049-.721-.27-.957-.929-1.017a6.07,6.07,0,0,1-5.226-3.713,6,6,0,0,1,5.2-8.329c.674-.01.958-.142.969-.89a2.086,2.086,0,0,1,2.042-2.217c1.207.009,1.95.794,1.975,2.21.012.677.252.886.912.86,1.021-.041,2.047-.021,3.069.02a1.906,1.906,0,0,1,1.933,1.85,2.054,2.054,0,0,1-1.839,1.987c-.609.056-1.227.011-1.841.011M164.3,57.97c-.456-.05-.62.2-.616.665.009.951,0,1.9-.024,2.854-.009.4.1.619.564.635a2.077,2.077,0,1,0,.076-4.153m-4.7-6.044c0-.443-.036-.888.007-1.327.09-.911-.453-.974-1.081-.779a2.041,2.041,0,0,0-1.534,1.844,2.018,2.018,0,0,0,1.3,2.106c.95.427,1.293.21,1.3-.822,0-.34,0-.681,0-1.022" transform="translate(-27.24 -7.595)" fill="#fce5d6"/>
        <path id="Path_824982" data-name="Path 824982" d="M166.615,61.29a2.076,2.076,0,1,1-.076,4.152c-.467-.016-.572-.229-.564-.634.021-.951.034-1.9.025-2.854,0-.467.159-.715.615-.665" transform="translate(-29.56 -10.914)" fill="#ff9c33"/>
        <path id="Path_824983" data-name="Path 824983" d="M160.467,53.461c0,.34,0,.681,0,1.022-.009,1.031-.352,1.249-1.3.822a2.018,2.018,0,0,1-1.3-2.106,2.042,2.042,0,0,1,1.535-1.844c.628-.195,1.17-.132,1.081.779-.044.439-.007.884-.009,1.327" transform="translate(-28.113 -9.13)" fill="#ff9c33"/>
      </g>
    </g>
  </g>
</svg>
