<svg xmlns="http://www.w3.org/2000/svg" xmlns:xlink="http://www.w3.org/1999/xlink" width="193" height="193" viewBox="0 0 193 193">
  <defs>
    <clipPath id="clip-path">
      <rect id="Rectangle_378521" data-name="Rectangle 378521" width="193" height="193" fill="#fff" stroke="#707070" stroke-width="1"/>
    </clipPath>
    <clipPath id="clip-path-2">
      <rect id="Rectangle_378520" data-name="Rectangle 378520" width="137.642" height="137.667" fill="none"/>
    </clipPath>
  </defs>
  <g id="Mask_Group_429" data-name="Mask Group 429" clip-path="url(#clip-path)">
    <g id="Group_1074863" data-name="Group 1074863" transform="translate(27 28)">
      <g id="Group_1074862" data-name="Group 1074862" clip-path="url(#clip-path-2)">
        <path id="Path_824450" data-name="Path 824450" d="M86.319,48.848c3.582.008,7.163.028,10.745.009.521,0,.638.125.637.64-.019,6.96-.005,13.919-.028,20.878,0,.581.14.715.713.708,2.541-.035,5.084-.028,7.625,0,.462,0,.572-.128.562-.573-.028-1.271-.06-2.546.005-3.814.142-2.764,1.593-4.4,4.56-4.452,7.231-.121,14.466-.06,21.7-.043a4.266,4.266,0,0,1,4.389,2.758,6.2,6.2,0,0,1,.39,2.2c.014,4.162.048,8.324-.007,12.485-.04,3-1.746,4.706-4.762,4.729-7.348.057-14.7.016-22.046,0a4.3,4.3,0,0,1-2.384-.873,4.238,4.238,0,0,1-1.789-2.731,8.384,8.384,0,0,1-.063-1.929c-.006-.948-.009-1.9,0-2.844,0-.312-.009-.494-.428-.492-3.836.018-7.672.01-11.508.013a1.774,1.774,0,0,0-.4.058c-.685.161-.977-.059-.977-.746,0-6.936-.007-13.873.014-20.809,0-.562-.107-.742-.7-.719-1.362.051-2.728.056-4.089,0a.764.764,0,0,0-.906.737A41.025,41.025,0,0,1,80.72,70.017a42.77,42.77,0,0,1-9.673,9.938A48.466,48.466,0,0,1,63.721,84.4a56,56,0,0,1-5.559,2.172.511.511,0,0,0-.414.58q.011,7.283,0,14.566c0,.317.064.437.413.436q6.239-.018,12.479,0c.492,0,.428-.257.428-.559,0-2.59.008-5.179-.012-7.769,0-.44.093-.582.559-.575,2.034.028,4.067,0,6.1.018a4.483,4.483,0,0,1,1.451-.014c.849.276.84-.434.907-.911A4.034,4.034,0,0,1,83.1,89.062a9.6,9.6,0,0,1,1.963-.238c7.048,0,14.1-.011,21.145.009a4.278,4.278,0,0,1,4.4,2.751,5.967,5.967,0,0,1,.386,2.127c.024,4.208.048,8.416,0,12.624A4.356,4.356,0,0,1,106.294,111q-11.161.087-22.323-.016a4.188,4.188,0,0,1-3.9-3.277,5.491,5.491,0,0,1-.132-1.559c0-2.566-.03-5.133.017-7.7.012-.667-.205-.789-.8-.76-.968.047-1.942.047-2.91,0-.575-.028-.778.082-.764.728.048,2.357.019,4.716.019,7.074,0,.853-.243,1.09-1.113,1.09-5.315,0-10.63.011-15.946-.016-.584,0-.713.145-.705.715q.053,3.744,0,7.491c-.009.588.153.7.717.7q19.239-.027,38.477-.03c.642,0,.78.173.772.788-.036,2.5,0,4.994-.025,7.491,0,.445.048.637.575.631q3.881-.046,7.764,0c.474,0,.564-.147.555-.58-.027-1.248-.036-2.5,0-3.745a4.272,4.272,0,0,1,3.955-4.451,15.031,15.031,0,0,1,1.639-.113c6.863,0,13.727.011,20.591-.011a4.646,4.646,0,0,1,4.485,2.773,7.876,7.876,0,0,1,.365,2.4c.04,4.069.058,8.139.005,12.207-.039,3.022-1.663,4.78-4.829,4.8-7.348.053-14.7.009-22.046,0a4.447,4.447,0,0,1-4.17-4.173c-.008-1.364-.024-2.729.009-4.092.012-.477-.1-.613-.6-.61-4.021.023-8.042,0-12.063.025-.531,0-.686-.116-.679-.668.033-2.543,0-5.086.027-7.629.005-.483-.109-.606-.6-.606q-17.159.023-34.317,0c-.483,0-.61.11-.605.6.025,3.006.011,6.012.013,9.017a12.94,12.94,0,0,1-.416,3.567,6.084,6.084,0,0,1-3.671,4.027,7.76,7.76,0,0,1-3.172.564c-4.344-.015-8.689.007-13.033-.014a6.282,6.282,0,0,1-5.32-3.143,5.6,5.6,0,0,1-1.022-3.228q.038-21.468.009-42.935a.707.707,0,0,0-.005-.275c-.218-.466.37-1.13-.247-1.436-.453-.224-.98-.332-1.468-.515a47.591,47.591,0,0,1-7.876-3.683,44.918,44.918,0,0,1-9.4-7.586,48.857,48.857,0,0,1-5.544-7.376,44.277,44.277,0,0,1-3-5.663,41.241,41.241,0,0,1-2.525-7.923c-.394-1.727-.605-3.5-.852-5.257A38.753,38.753,0,0,1,.107,41.6,39.187,39.187,0,0,1,1.38,33.839a44.389,44.389,0,0,1,3.133-8.756A55.636,55.636,0,0,1,8.5,18.522,38.226,38.226,0,0,1,14.356,11.8a49.031,49.031,0,0,1,7.622-5.574,38.529,38.529,0,0,1,8.275-3.843A50.361,50.361,0,0,1,35.906.968C37.3.68,38.71.4,40.112.232A21.551,21.551,0,0,1,45.733.153c.967.14,1.962.048,2.948.139,1.334.122,2.63.405,3.942.633a37.724,37.724,0,0,1,4.062.918,47.816,47.816,0,0,1,5.064,1.771,34.2,34.2,0,0,1,5.488,2.8A44.081,44.081,0,0,1,72.921,10.5c1.26,1.135,2.506,2.28,3.686,3.492A46.853,46.853,0,0,1,81.7,20.5a40.287,40.287,0,0,1,4.6,9.532,1.71,1.71,0,0,1,.039.2,1.021,1.021,0,0,0,1.245.911c1.68-.084,3.368-.054,5.051-.01.548.014.625-.162.624-.654q-.026-9.223-.011-18.445c0-.879.022-1.758-.009-2.635-.014-.4.117-.489.5-.488,4.067.014,8.133,0,12.2.023.529,0,.605-.146.641-.644.091-1.3-.047-2.586-.022-3.88a4.276,4.276,0,0,1,3.4-4.2,8.186,8.186,0,0,1,1.761-.167c7.025,0,14.05-.016,21.075.008,2.312.008,4.106,1.072,4.62,3.476a7.284,7.284,0,0,1,.195,1.483c.016,4.162.049,8.324-.007,12.485A4.362,4.362,0,0,1,134.471,22a6.9,6.9,0,0,1-2.211.215q-10.884.04-21.768.006a4.286,4.286,0,0,1-3.782-3.24,20.386,20.386,0,0,1-.146-3.78c-.03-.6.188-1.381-.112-1.735-.316-.372-1.126-.1-1.72-.108-2.126-.013-4.253.013-6.378-.018-.527-.008-.682.111-.681.666.022,6.751.014,13.5.014,20.254,0,1.018-.264,1.288-1.25,1.29l-10.811.022-9.074.012c-1.639-.012-3.278-.038-4.917-.024-.436,0-.6-.088-.582-.561.037-1.108.034-2.219,0-3.328-.013-.453.114-.586.57-.572.876.028.883,0,.459-.8a31.772,31.772,0,0,0-3.94-5.875,33.219,33.219,0,0,0-3.913-3.917,30.762,30.762,0,0,0-19.92-7.134,29.078,29.078,0,0,0-6.524.7,30.112,30.112,0,0,0-9.342,3.709,31.219,31.219,0,0,0-13.9,18.131,27.945,27.945,0,0,0-1.13,6.17,33.315,33.315,0,0,0,.222,6.53,29.717,29.717,0,0,0,2.108,7.755c4.261,9.69,11.512,15.85,21.805,18.365a29.079,29.079,0,0,0,9.468.662A31.111,31.111,0,0,0,71.1,60.411a29.74,29.74,0,0,0,1.638-3.288,24.238,24.238,0,0,0,1.14-2.924c.215-.7.144-.88-.557-.887-.6-.006-1.2-.023-1.8.007-.372.018-.465-.114-.459-.469.02-1.132.036-2.266-.006-3.4-.019-.51.159-.6.622-.592,1.893.011,3.786-.022,5.679-.038,2.989.1,5.978.048,8.966.027M79.634,31.077c0,.012,0,.024,0,.037.6,0,1.2-.03,1.8.008.636.041.706-.208.47-.72q-.735-1.595-1.443-3.2A37.949,37.949,0,0,0,69.588,13.434a44.513,44.513,0,0,0-8.35-5.266,28.624,28.624,0,0,0-5.959-2.256A32.134,32.134,0,0,0,48.071,4.74a25.088,25.088,0,0,0-3.705-.272c-.408.05-.833-.052-1.244-.011-1.712.173-3.42.4-5.134.554a23.807,23.807,0,0,0-4.7.934A36.2,36.2,0,0,0,28.9,7.624,38.859,38.859,0,0,0,21.477,11.6a50.045,50.045,0,0,0-4.388,3.7,39.683,39.683,0,0,0-6.159,7.427,46.772,46.772,0,0,0-4.7,9.6A28.391,28.391,0,0,0,5.2,36.575a36.936,36.936,0,0,0-.655,5.536,45.131,45.131,0,0,0,.219,7.22A34.519,34.519,0,0,0,5.98,55.517a40.939,40.939,0,0,0,9.164,16.116,38.377,38.377,0,0,0,6.95,5.974,41.863,41.863,0,0,0,14.821,6.11,38.977,38.977,0,0,0,5.68.64,44.008,44.008,0,0,0,5.037-.08,41.385,41.385,0,0,0,6.836-1.1,36.572,36.572,0,0,0,7.738-2.923,36.608,36.608,0,0,0,12.049-9.2c1.121-1.33,2.223-2.662,3.212-4.092a32.238,32.238,0,0,0,3.93-7.6,11.99,11.99,0,0,1,.61-1.856,21.294,21.294,0,0,0,1.26-3.712c.1-.269.033-.513-.406-.5-1.247.035-2.5.03-3.743,0a.491.491,0,0,0-.563.442,31.055,31.055,0,0,1-1.315,4.088,33.757,33.757,0,0,1-7.764,11.7,34.569,34.569,0,0,1-13.329,8.332,39.8,39.8,0,0,1-8.867,1.963,31.382,31.382,0,0,1-13.864-1.7,36.925,36.925,0,0,1-9.333-4.619,36.819,36.819,0,0,1-9.44-9.906,35.064,35.064,0,0,1-4.384-9.7,33.286,33.286,0,0,1-1.293-7.166,36.841,36.841,0,0,1,.8-9.947,36.528,36.528,0,0,1,.992-3.777,16,16,0,0,1,1.114-2.793c.62-1.114,1.1-2.306,1.754-3.41a46.272,46.272,0,0,1,5.511-7.33,30.79,30.79,0,0,1,2.788-2.513,29.545,29.545,0,0,1,5.458-3.724A36.111,36.111,0,0,1,38.5,9.462a28.212,28.212,0,0,1,5.22-.518A43.713,43.713,0,0,1,49.11,9.3a44.506,44.506,0,0,1,7.777,1.9A28.426,28.426,0,0,1,63.3,14.376,37.123,37.123,0,0,1,70.28,20.2,38.785,38.785,0,0,1,76.3,28.966c.359.687.48,1.687,1.03,2.033s1.519.078,2.3.078M35.567,116.868q0,7,0,14a2.115,2.115,0,0,0,2.362,2.347c4.273,0,8.547-.04,12.819.023a2.314,2.314,0,0,0,2.564-2.6q0-13.935.014-27.871c0-.531-.147-.64-.653-.638q-8.247.028-16.492,0c-.549,0-.63.175-.627.664.018,4.691.011,9.383.011,14.074M122.1,79.947c3.488,0,6.976-.012,10.465.013.521,0,.642-.127.639-.643q-.035-6.032,0-12.064c0-.526-.134-.639-.645-.637q-10.464.028-20.928,0c-.521,0-.642.127-.639.642q.035,6.032,0,12.064c0,.526.133.641.645.637,3.488-.024,6.976-.013,10.465-.013m0-62.152c3.488,0,6.976-.013,10.465.014.523,0,.641-.13.639-.644q-.035-6.032,0-12.064c0-.527-.136-.637-.646-.636q-10.465.027-20.929,0c-.523,0-.641.13-.638.644q.035,6.032,0,12.064c0,.527.135.64.646.636,3.488-.024,6.976-.013,10.464-.013m0,115.425c3.488,0,6.976-.012,10.465.013.518,0,.645-.121.641-.641q-.036-6.032,0-12.064c0-.522-.127-.641-.642-.64q-10.465.028-20.929,0c-.517,0-.644.121-.641.64q.036,6.032,0,12.064c0,.522.127.644.643.64,3.488-.025,6.976-.013,10.464-.013M95.432,106.584c3.142,0,6.285.005,9.427,0,.548,0,1.263.237,1.6-.1s.1-1.052.1-1.6c.009-3.676-.006-7.352.017-11.027,0-.493-.13-.647-.611-.6a15.675,15.675,0,0,1-1.727.019c-6.077-.019-12.154-.007-18.231-.026-.331,0-.635.19-.976.062-.5-.186-.667-.013-.664.536q.032,6.068,0,12.137c0,.48.107.613.6.61,3.489-.023,6.978-.012,10.467-.012M53.308,87.865a46.318,46.318,0,0,1-8.943.988,40.167,40.167,0,0,1-8.791-.98c0,3.125.018,6.174-.016,9.221-.006.564.191.619.665.614,2.24-.023,4.479-.01,6.719-.01q4.918,0,9.837,0c.259,0,.542.1.539-.375-.018-3.14-.009-6.279-.009-9.457" transform="translate(0 0)"/>
        <path id="Path_824451" data-name="Path 824451" d="M142.763,64.744q6.342.012,12.683.023c2.38,0,4.76-.012,7.139.011.446,0,.581-.105.57-.564-.029-1.317.037-2.636-.009-3.952a4.271,4.271,0,0,1,3.393-4.206,8.674,8.674,0,0,1,1.761-.167c7.024,0,14.048-.012,21.072.006,2.64.006,4.482,1.482,4.721,4.077.057.616.106,1.23.107,1.845q.013,5.722,0,11.443a4.991,4.991,0,0,1-.8,2.9,4.292,4.292,0,0,1-3.669,1.9c-7.532.033-15.064.051-22.6-.011a4.209,4.209,0,0,1-3.833-3.2,16.184,16.184,0,0,1-.161-3.638c-.041-.66.294-1.542-.136-1.916-.372-.323-1.232-.092-1.876-.092q-8.595,0-17.19,0c-.253,0-.507.014-.761.022h-8.888c-2.025-.008-4.05-.028-6.076-.014-.434,0-.6-.086-.58-.558.039-.989.012-1.98.012-2.971,0-.919,0-.914.888-.92q2.691-.018,5.383-.046c2.948.092,5.9.047,8.846.023m35.983-4.416c-3.511,0-7.023.012-10.534-.013-.513,0-.647.114-.644.638q.037,6.032,0,12.064c0,.517.12.644.64.642q10.465-.029,20.929,0c.512,0,.647-.114.644-.638q-.038-6.032,0-12.064c0-.517-.12-.646-.64-.642-3.465.026-6.93.013-10.395.013" transform="translate(-56.582 -24.774)"/>
        <path id="Path_824452" data-name="Path 824452" d="M147.128,68.3c-2.949.023-5.9.068-8.846-.023a19.892,19.892,0,0,0-.517-2.9,3.525,3.525,0,0,1-.267-1.464l9.075-.011c.154.817.347,1.623.461,2.452a5.831,5.831,0,0,1,.093,1.942" transform="translate(-60.947 -28.331)" fill="#e5e8ec"/>
        <path id="Path_824453" data-name="Path 824453" d="M139.285,79.857l8.888,0a24.137,24.137,0,0,1-.277,4.394c-2.989.021-5.978.073-8.967-.027a1.1,1.1,0,0,1-.019-.341,14.089,14.089,0,0,0,.375-4.024" transform="translate(-61.577 -35.401)" fill="#e5e8ec"/>
        <path id="Path_824454" data-name="Path 824454" d="M88.342,55.1a14.07,14.07,0,0,1-.375,4.024,1.117,1.117,0,0,0,.019.341c-1.893.017-3.786.05-5.679.038-.464,0-.641.082-.622.592.042,1.131.026,2.265.006,3.4-.007.355.087.488.459.469.6-.03,1.2-.012,1.8-.007.7.007.772.184.557.887a24.238,24.238,0,0,1-1.14,2.924,29.84,29.84,0,0,1-1.638,3.288A31.105,31.105,0,0,1,57.653,86.037a29.063,29.063,0,0,1-9.468-.662C37.891,82.86,30.64,76.7,26.379,67.01a29.721,29.721,0,0,1-2.108-7.756,33.31,33.31,0,0,1-.223-6.529,27.977,27.977,0,0,1,1.131-6.171,31.219,31.219,0,0,1,13.9-18.131,30.1,30.1,0,0,1,9.342-3.709,29.076,29.076,0,0,1,6.524-.7,30.762,30.762,0,0,1,19.92,7.134,33.3,33.3,0,0,1,3.913,3.917,31.772,31.772,0,0,1,3.94,5.875c.423.8.416.832-.46.8-.455-.014-.583.119-.569.572.033,1.109.036,2.22,0,3.328-.016.473.146.564.581.561,1.639-.013,3.279.013,4.918.024a3.515,3.515,0,0,0,.266,1.464,19.967,19.967,0,0,1,.517,2.9c-1.794.015-3.588.033-5.383.045-.887.006-.887,0-.887.921,0,.99.027,1.982-.012,2.971-.018.472.146.561.58.558,2.025-.014,4.051.007,6.076.014m-49.43-6.683c-1.847,0-3.648.012-5.449-.009-.428-.005-.589.075-.586.554q.031,6.1,0,12.207c0,.445.1.585.566.576,1.594-.03,3.189-.013,4.783-.008.174,0,.411-.086.5.119.108.239-.137.347-.276.484-1.119,1.1-2.228,2.216-3.365,3.3-.374.356-.2.552.077.831q4,3.993,7.982,8c.976.979.971.965,1.943-.018,1.076-1.088,2.172-2.156,3.327-3.3,0,1.895.022,3.694-.014,5.491-.011.523.129.645.645.641,3.466-.025,6.933-.011,10.4-.015.735,0,1.729.257,2.137-.116.466-.426.124-1.433.138-2.188.023-1.233.007-2.467.007-3.773,1.314,1.286,2.577,2.465,3.764,3.716.43.453.642.473,1.076.034q4.193-4.239,8.438-8.425c.391-.386.324-.612-.019-.944-1.146-1.109-2.275-2.235-3.406-3.358-.121-.12-.322-.2-.283-.481,1.82,0,3.64-.009,5.458.008.376,0,.513-.078.512-.487q-.023-6.173,0-12.346c0-.39-.1-.507-.5-.5-1.548.022-3.1.014-4.645,0-.18,0-.435.135-.538-.136-.1-.254.08-.441.243-.593,1.132-1.053,2.121-2.253,3.319-3.236.25-.2.277-.317.029-.549-.882-.829-1.776-1.657-2.606-2.53-2.025-2.129-4.155-4.153-6.185-6.276-.31-.323-.579-.318-.855.035-1,1.275-2.27,2.289-3.353,3.484-.1.11-.184.279-.45.183,0-1.779-.011-3.574.008-5.37,0-.4-.061-.556-.517-.554q-6.135.03-12.271,0c-.416,0-.55.087-.543.529.029,1.666.016,3.332.007,5,0,.164.1.368-.125.512-.132-.126-.269-.247-.4-.377-1.084-1.1-2.163-2.215-3.253-3.313-.247-.248-.525-.659-.9-.208-1.1,1.314-2.442,2.382-3.629,3.607-1.624,1.677-3.294,3.308-4.942,4.962-.225.226-.528.455-.181.806.528.534,1.077,1.049,1.6,1.588.765.788,1.516,1.591,2.326,2.443" transform="translate(-10.634 -10.646)" fill="#68d5f3"/>
        <path id="Path_824455" data-name="Path 824455" d="M83.208,34.607c-.784,0-1.74.275-2.3-.078s-.671-1.346-1.03-2.033a38.772,38.772,0,0,0-6.022-8.763,37.123,37.123,0,0,0-6.976-5.827,28.438,28.438,0,0,0-6.416-3.174,44.512,44.512,0,0,0-7.778-1.9,43.7,43.7,0,0,0-5.392-.361,28.223,28.223,0,0,0-5.221.518,36.131,36.131,0,0,0-11.119,3.782A29.541,29.541,0,0,0,25.495,20.5a30.872,30.872,0,0,0-2.788,2.513,46.277,46.277,0,0,0-5.51,7.33c-.654,1.1-1.133,2.3-1.754,3.41a16,16,0,0,0-1.114,2.793,36.248,36.248,0,0,0-.992,3.777,36.865,36.865,0,0,0-.8,9.947,33.287,33.287,0,0,0,1.294,7.166,35.046,35.046,0,0,0,4.384,9.7,36.819,36.819,0,0,0,9.44,9.906,36.927,36.927,0,0,0,9.334,4.618,31.359,31.359,0,0,0,13.863,1.7,39.742,39.742,0,0,0,8.867-1.963A34.564,34.564,0,0,0,73.05,73.063a33.762,33.762,0,0,0,7.765-11.7,31.117,31.117,0,0,0,1.315-4.088.491.491,0,0,1,.562-.442c1.248.028,2.5.033,3.743,0,.439-.012.5.231.406.5a21.327,21.327,0,0,1-1.26,3.712,11.971,11.971,0,0,0-.61,1.856,32.225,32.225,0,0,1-3.931,7.6c-.988,1.43-2.091,2.762-3.212,4.092a36.606,36.606,0,0,1-12.048,9.2A36.552,36.552,0,0,1,58.043,86.7a41.392,41.392,0,0,1-6.837,1.1,44.009,44.009,0,0,1-5.037.08,38.818,38.818,0,0,1-5.68-.64,41.856,41.856,0,0,1-14.822-6.11,38.374,38.374,0,0,1-6.949-5.974A40.934,40.934,0,0,1,9.554,59.047a34.518,34.518,0,0,1-1.221-6.186,45.137,45.137,0,0,1-.219-7.22A36.936,36.936,0,0,1,8.769,40.1,28.436,28.436,0,0,1,9.8,35.864a46.778,46.778,0,0,1,4.7-9.6,39.683,39.683,0,0,1,6.159-7.427,49.955,49.955,0,0,1,4.387-3.7,38.864,38.864,0,0,1,7.423-3.975,36.1,36.1,0,0,1,4.387-1.678,23.784,23.784,0,0,1,4.7-.935c1.715-.153,3.422-.382,5.135-.554.41-.041.836.061,1.243.011a25.089,25.089,0,0,1,3.706.272,32.17,32.17,0,0,1,7.208,1.172A28.653,28.653,0,0,1,64.812,11.7a44.535,44.535,0,0,1,8.35,5.266A37.946,37.946,0,0,1,84.037,30.73q.71,1.606,1.442,3.2c.237.513.166.761-.469.72-.6-.038-1.2-.008-1.8-.008v-.037" transform="translate(-3.575 -3.53)" fill="#e5e8ec"/>
        <path id="Path_824456" data-name="Path 824456" d="M63.882,198.2c0-4.691.007-9.383-.011-14.074,0-.489.078-.666.627-.664q8.246.035,16.492,0c.506,0,.654.107.653.639q-.027,13.935-.014,27.87a2.314,2.314,0,0,1-2.564,2.6c-4.273-.062-8.546-.021-12.819-.023a2.115,2.115,0,0,1-2.362-2.347q-.009-7,0-14" transform="translate(-28.315 -81.332)" fill="#959eaa"/>
        <path id="Path_824457" data-name="Path 824457" d="M210.478,133c-3.488,0-6.976-.012-10.464.013-.512,0-.649-.112-.645-.637q.038-6.031,0-12.064c0-.515.118-.644.639-.643q10.465.03,20.929,0c.511,0,.648.111.645.637q-.037,6.031,0,12.064c0,.516-.117.647-.639.644-3.488-.026-6.976-.014-10.465-.014M206,128.557c.623,0,1.246-.013,1.868.006.3.009.4-.085.4-.391q-.023-1.835,0-3.669c0-.3-.086-.4-.39-.392q-1.833.023-3.666,0c-.3,0-.4.084-.393.389q.024,1.834,0,3.669c0,.3.079.405.387.394.6-.022,1.2-.007,1.8-.007m8.926-4.439c-.6,0-1.2.014-1.8-.006-.313-.011-.448.058-.441.411.021,1.2.017,2.4,0,3.6,0,.311.055.449.409.443,1.2-.021,2.4-.017,3.6,0,.312,0,.449-.061.443-.413-.02-1.2-.024-2.4,0-3.6.008-.4-.153-.451-.485-.439-.576.022-1.153.006-1.73.006" transform="translate(-88.384 -53.05)" fill="#efcfb3"/>
        <path id="Path_824458" data-name="Path 824458" d="M210.479,21.35c-3.488,0-6.976-.012-10.465.013-.51,0-.649-.11-.646-.637q.038-6.031,0-12.064c0-.514.115-.645.638-.644q10.465.029,20.929,0c.509,0,.649.109.646.636q-.038,6.032,0,12.064c0,.514-.115.648-.638.644-3.488-.026-6.976-.013-10.465-.013m2.216-6.71c0,.6.017,1.2-.007,1.8-.013.34.055.489.444.48,1.175-.026,2.352-.021,3.528,0,.341.005.489-.061.48-.448-.025-1.176-.028-2.354,0-3.529.011-.424-.156-.482-.519-.476-1.13.02-2.261.036-3.389-.006-.492-.018-.57.173-.546.591.031.529.008,1.061.008,1.592m-6.612,2.27c.553,0,1.108-.018,1.66.007.361.016.535-.047.524-.475-.03-1.176-.027-2.354,0-3.53.008-.384-.131-.454-.476-.448-1.176.018-2.353.023-3.528,0-.383-.008-.455.129-.449.475.019,1.177.023,2.354,0,3.53-.008.381.124.466.473.451.6-.026,1.2-.007,1.8-.007" transform="translate(-88.384 -3.555)" fill="#efcfb3"/>
        <path id="Path_824459" data-name="Path 824459" d="M210.478,228.695c-3.488,0-6.976-.012-10.465.013-.515,0-.646-.119-.642-.64q.036-6.032,0-12.064c0-.519.124-.642.641-.64q10.464.028,20.928,0c.515,0,.646.117.643.639q-.037,6.032,0,12.064c0,.519-.124.645-.642.641-3.488-.025-6.976-.013-10.464-.013M206,224.255c.6,0,1.2-.019,1.8.008.356.016.479-.083.471-.458-.023-1.176-.021-2.354,0-3.53.006-.353-.084-.475-.456-.468-1.176.024-2.353.021-3.528,0-.351-.006-.477.081-.469.455.024,1.176.021,2.353,0,3.529-.006.353.076.492.454.47.574-.032,1.152-.009,1.729-.009m8.963-4.439c-.6,0-1.2.018-1.8-.007-.347-.014-.483.066-.475.449.025,1.176.021,2.354,0,3.53-.005.344.063.485.448.477,1.175-.026,2.352-.021,3.528,0,.346.006.485-.068.478-.451-.025-1.176-.021-2.353,0-3.53.006-.347-.068-.495-.451-.473-.574.032-1.152.008-1.729.008" transform="translate(-88.385 -95.475)" fill="#efcfb3"/>
        <path id="Path_824460" data-name="Path 824460" d="M162.616,180.837c-3.489,0-6.978-.011-10.467.012-.494,0-.6-.13-.6-.61q.03-6.068,0-12.137c0-.549.165-.722.665-.536.341.128.645-.063.976-.062,6.077.02,12.154.007,18.231.026a15.675,15.675,0,0,0,1.727-.02c.482-.052.614.1.611.6-.023,3.675-.008,7.351-.017,11.027,0,.548.237,1.263-.1,1.6s-1.051.1-1.6.1c-3.142.009-6.285,0-9.428,0m-4.374-8.879c-.6,0-1.2.011-1.8-.005-.3-.008-.461.025-.455.4.023,1.222.018,2.446,0,3.669,0,.311.1.387.4.384q1.833-.02,3.666,0c.312,0,.389-.108.385-.4-.013-1.223-.015-2.446,0-3.669,0-.314-.109-.391-.4-.382-.6.018-1.2.006-1.8.006m6.63,2.173c0,.6.018,1.2-.007,1.8-.015.347.065.484.448.476,1.176-.026,2.353-.021,3.528,0,.347.006.484-.071.476-.453-.024-1.176-.021-2.354,0-3.53.006-.35-.072-.481-.452-.473-1.176.025-2.352.021-3.528,0-.348-.006-.495.068-.473.451.033.575.008,1.153.008,1.73" transform="translate(-67.184 -74.253)" fill="#efcfb3"/>
        <path id="Path_824461" data-name="Path 824461" d="M81.624,157.836c0,3.178-.009,6.317.009,9.457,0,.474-.281.375-.539.375q-4.918,0-9.837,0c-2.24,0-4.479-.013-6.719.01-.474.005-.671-.05-.665-.614.035-3.048.016-6.1.016-9.221a40.166,40.166,0,0,0,8.791.98,46.317,46.317,0,0,0,8.943-.988" transform="translate(-28.316 -69.971)" fill="#e5e8ec"/>
        <path id="Path_824462" data-name="Path 824462" d="M210.548,63.855c3.465,0,6.93.013,10.395-.013.52,0,.643.125.64.642q-.035,6.032,0,12.064c0,.524-.132.639-.644.637q-10.465-.028-20.929,0c-.52,0-.643-.125-.64-.642q.035-6.032,0-12.064c0-.524.131-.641.644-.638,3.511.024,7.023.013,10.534.013m-6.683,6.605c0,.734-.289,1.731.076,2.132.421.463,1.429.119,2.182.135.686.016,1.617.24,2-.11.439-.4.119-1.344.132-2.051.013-.733.259-1.73-.114-2.131-.427-.46-1.431-.118-2.184-.135-.686-.014-1.614-.24-2,.108-.444.4-.073,1.346-.091,2.051m13.227.114c0-.734.289-1.728-.076-2.134-.42-.468-1.428-.12-2.181-.139-.687-.018-1.615-.245-2,.1-.441.4-.12,1.343-.134,2.049-.015.734-.264,1.725.107,2.136.424.47,1.429.12,2.181.139.687.018,1.609.243,2-.1.454-.4.074-1.344.1-2.049" transform="translate(-88.384 -28.302)" fill="#efcfb3"/>
        <path id="Path_824463" data-name="Path 824463" d="M45.992,55.471c-.81-.852-1.561-1.655-2.326-2.443-.523-.539-1.073-1.054-1.6-1.588-.346-.35-.043-.58.181-.806,1.648-1.654,3.318-3.286,4.942-4.962,1.187-1.226,2.529-2.293,3.629-3.607.377-.451.656-.04.9.208,1.091,1.1,2.169,2.209,3.253,3.313.127.13.264.251.4.377.225-.144.124-.348.124-.512.009-1.666.022-3.333-.006-5-.008-.441.126-.531.543-.529q6.135.023,12.27,0c.456,0,.522.155.518.554-.019,1.8-.009,3.591-.009,5.37.266.1.35-.073.45-.184,1.083-1.2,2.354-2.209,3.353-3.484.276-.352.545-.358.855-.035,2.03,2.123,4.16,4.146,6.185,6.275.831.873,1.724,1.7,2.607,2.53.248.233.22.344-.03.549-1.2.983-2.187,2.183-3.319,3.236-.164.153-.34.34-.243.594.1.271.358.135.538.136,1.548.012,3.1.02,4.645,0,.394-.006.5.112.5.5q-.02,6.173,0,12.347c0,.409-.136.49-.511.487-1.819-.018-3.639-.008-5.459-.008-.039.282.162.361.283.48,1.131,1.125,2.26,2.25,3.406,3.359.343.332.411.558.019.944Q77.843,77.759,73.65,82c-.434.439-.646.419-1.076-.034-1.187-1.251-2.451-2.43-3.764-3.716,0,1.307.017,2.54-.006,3.773-.014.754.329,1.761-.138,2.188-.408.373-1.4.115-2.137.116-3.466,0-6.933-.01-10.4.014-.515,0-.655-.117-.645-.641.036-1.8.014-3.6.014-5.491-1.156,1.145-2.251,2.213-3.327,3.3-.973.984-.968,1-1.944.018q-3.991-4-7.981-8c-.279-.278-.451-.474-.077-.831,1.137-1.083,2.246-2.2,3.365-3.3.139-.136.384-.244.276-.484-.092-.2-.33-.118-.5-.119-1.595-.006-3.19-.022-4.784.008-.462.008-.567-.131-.566-.576q.026-6.1,0-12.207c0-.48.159-.56.586-.555,1.8.022,3.6.009,5.449.009m5.131-7.447c-.964.961-1.921,1.932-2.9,2.878-.221.214-.264.285.011.5a9.055,9.055,0,0,1,1.3,1.343,4.463,4.463,0,0,1-.709,6.191,4.736,4.736,0,0,1-1.266.725,8.15,8.15,0,0,1-2.71.245c-.313,0-.448.062-.441.414q.031,1.8,0,3.606c-.005.337.1.443.43.423a7.771,7.771,0,0,1,2.7.286,4.307,4.307,0,0,1,2.911,4.557,5.259,5.259,0,0,1-2.16,3.609c-.235.194-.326.287-.04.553.794.738,1.538,1.53,2.307,2.294.647.642.644.631,1.258,0A10.26,10.26,0,0,1,52.82,74.7a4.394,4.394,0,0,1,6.731,1.8,6.307,6.307,0,0,1,.375,2.7c-.041.6.167.725.725.7,1.06-.047,2.125-.033,3.188,0,.418.012.557-.087.543-.529a7.72,7.72,0,0,1,.173-2.319,4.391,4.391,0,0,1,7.2-2.1c.379.338.725.712,1.084,1.071.2.2.352.268.607,0,.829-.87,1.682-1.718,2.561-2.536.347-.323.242-.526-.031-.777-.306-.282-.628-.549-.9-.858a4.379,4.379,0,0,1,1.543-7.172,6.516,6.516,0,0,1,2.829-.321c.361.022.479-.091.465-.459-.028-.739.008-1.48-.013-2.219-.017-.57.254-1.323-.114-1.656-.31-.281-1.049-.1-1.6-.1a4.438,4.438,0,0,1-4.375-4.3,4.689,4.689,0,0,1,1.9-3.863.692.692,0,0,0,.037-1.181c-.73-.741-1.476-1.466-2.2-2.215-.326-.339-.566-.284-.855.045a9.136,9.136,0,0,1-.983.975A4.355,4.355,0,0,1,64.7,47.621a7.212,7.212,0,0,1-.324-2.759c.008-.4-.119-.5-.5-.494-.924.027-1.848.009-2.772.009-1.16,0-1.162,0-1.161,1.135a6.133,6.133,0,0,1-.444,2.4,4.522,4.522,0,0,1-6.721,1.732c-.632-.465-.971-1.206-1.653-1.618" transform="translate(-17.714 -17.698)"/>
        <path id="Path_824464" data-name="Path 824464" d="M209.54,132.1c-.6,0-1.2-.016-1.8.007-.308.011-.391-.1-.387-.395q.022-1.834,0-3.668c0-.306.093-.393.393-.389q1.833.022,3.666,0c.3,0,.394.091.39.392q-.023,1.834,0,3.668c0,.306-.1.4-.4.391-.622-.019-1.245-.006-1.868-.006" transform="translate(-91.923 -56.591)"/>
        <path id="Path_824465" data-name="Path 824465" d="M225.532,127.658c.577,0,1.153.016,1.73-.006.332-.012.493.043.485.439-.027,1.2-.022,2.4,0,3.6.006.352-.131.417-.443.413-1.2-.014-2.4-.019-3.6,0-.355.006-.413-.133-.409-.443.014-1.2.019-2.4,0-3.6-.006-.353.129-.422.441-.411.6.021,1.2.006,1.8.006" transform="translate(-98.989 -56.59)"/>
        <path id="Path_824466" data-name="Path 824466" d="M223.3,18.175c0-.531.023-1.063-.007-1.592-.025-.419.054-.609.546-.591,1.128.042,2.26.026,3.389.006.363-.007.531.051.52.475-.03,1.176-.027,2.354,0,3.53.008.387-.139.453-.48.448-1.176-.018-2.353-.024-3.528,0-.389.009-.458-.14-.444-.48.023-.6.007-1.2.007-1.8" transform="translate(-98.987 -7.089)"/>
        <path id="Path_824467" data-name="Path 824467" d="M209.621,20.449c-.6,0-1.2-.018-1.8.007-.349.015-.482-.07-.473-.451.025-1.176.021-2.353,0-3.53-.006-.346.066-.483.449-.475,1.176.026,2.353.021,3.528,0,.345-.006.484.064.476.448-.026,1.176-.029,2.354,0,3.53.011.428-.163.491-.524.475-.552-.025-1.107-.007-1.66-.007" transform="translate(-91.921 -7.093)"/>
        <path id="Path_824468" data-name="Path 824468" d="M209.534,227.794c-.577,0-1.155-.024-1.729.008-.378.021-.46-.117-.454-.47.02-1.176.023-2.354,0-3.53-.008-.374.117-.461.469-.455,1.176.019,2.353.022,3.528,0,.372-.007.462.115.456.468-.019,1.176-.022,2.354,0,3.53.008.374-.115.473-.471.457-.6-.027-1.2-.007-1.8-.007" transform="translate(-91.922 -99.013)"/>
        <path id="Path_824469" data-name="Path 824469" d="M225.564,223.354c.577,0,1.155.024,1.729-.008.382-.022.456.125.451.473-.02,1.176-.023,2.354,0,3.53.008.383-.131.457-.478.451-1.176-.018-2.353-.023-3.528,0-.385.008-.453-.132-.448-.477.019-1.176.023-2.354,0-3.53-.008-.383.128-.464.475-.449.6.026,1.2.007,1.8.007" transform="translate(-98.989 -99.012)"/>
        <path id="Path_824470" data-name="Path 824470" d="M161.778,175.508c.6,0,1.2.013,1.8-.006.291-.009.4.068.4.382-.017,1.222-.014,2.446,0,3.669,0,.292-.073.4-.385.4q-1.833-.023-3.667,0c-.294,0-.4-.073-.4-.385.016-1.222.021-2.446,0-3.669-.007-.372.159-.4.455-.4.6.016,1.2.005,1.8.005" transform="translate(-70.72 -77.803)"/>
        <path id="Path_824471" data-name="Path 824471" d="M175.474,177.678c0-.577.024-1.155-.008-1.73-.022-.382.125-.456.473-.451,1.176.019,2.353.023,3.528,0,.38-.008.458.124.451.473-.019,1.176-.023,2.354,0,3.53.008.381-.129.458-.476.453-1.176-.019-2.353-.023-3.528,0-.383.008-.463-.129-.449-.476.025-.6.007-1.2.007-1.8" transform="translate(-77.786 -77.8)"/>
        <path id="Path_824472" data-name="Path 824472" d="M207.341,73.926c.018-.706-.353-1.648.091-2.051.384-.349,1.312-.122,2-.108.753.016,1.757-.326,2.184.135.372.4.127,1.4.114,2.131-.013.707.306,1.648-.132,2.051-.381.35-1.312.125-2,.11-.752-.017-1.76.327-2.182-.135-.365-.4-.076-1.4-.076-2.132" transform="translate(-91.861 -31.768)"/>
        <path id="Path_824473" data-name="Path 824473" d="M227.629,74.041c-.027.7.353,1.647-.1,2.049-.393.348-1.315.122-2,.1-.752-.019-1.757.331-2.181-.139-.371-.411-.122-1.4-.107-2.136.014-.706-.307-1.648.134-2.049.385-.348,1.313-.12,2-.1.752.019,1.76-.33,2.181.139.365.406.076,1.4.076,2.134" transform="translate(-98.922 -31.768)"/>
        <path id="Path_824474" data-name="Path 824474" d="M54.663,51.565c.681.412,1.021,1.153,1.652,1.618a4.522,4.522,0,0,0,6.722-1.732,6.143,6.143,0,0,0,.444-2.4c0-1.136,0-1.136,1.161-1.135.924,0,1.849.018,2.772-.009.386-.011.513.094.5.494a7.212,7.212,0,0,0,.324,2.759,4.355,4.355,0,0,0,7.011,1.754,9.187,9.187,0,0,0,.983-.975c.288-.329.528-.384.854-.045.721.749,1.467,1.474,2.2,2.215a.692.692,0,0,1-.037,1.181,4.689,4.689,0,0,0-1.9,3.863,4.438,4.438,0,0,0,4.374,4.3c.55,0,1.289-.18,1.6.1.367.332.1,1.086.113,1.656.022.739-.014,1.48.013,2.219.014.367-.1.48-.465.459a6.513,6.513,0,0,0-2.828.321,4.379,4.379,0,0,0-1.543,7.172,12.437,12.437,0,0,0,.9.858c.273.252.377.454.031.777-.879.818-1.732,1.666-2.561,2.536-.255.267-.4.2-.607,0-.36-.359-.706-.733-1.084-1.071a4.391,4.391,0,0,0-7.2,2.1,7.72,7.72,0,0,0-.173,2.319c.013.442-.126.541-.543.529-1.062-.03-2.127-.043-3.188,0-.558.025-.765-.1-.725-.7a6.307,6.307,0,0,0-.375-2.7,4.394,4.394,0,0,0-6.731-1.8,10.331,10.331,0,0,0-1.011.945c-.613.634-.611.645-1.257,0-.77-.764-1.514-1.555-2.307-2.294-.287-.267-.2-.36.039-.553a5.26,5.26,0,0,0,2.16-3.609,4.308,4.308,0,0,0-2.911-4.557,7.768,7.768,0,0,0-2.7-.286c-.331.02-.436-.086-.43-.423q.028-1.8,0-3.606c-.006-.352.128-.414.441-.414a8.151,8.151,0,0,0,2.71-.245,4.754,4.754,0,0,0,1.266-.725,4.464,4.464,0,0,0,.709-6.191,9.083,9.083,0,0,0-1.3-1.343c-.274-.215-.232-.287-.011-.5.98-.946,1.937-1.917,2.9-2.878m2.155,14.008a8.884,8.884,0,0,0,8.2,8.946,8.866,8.866,0,1,0,.551-17.709,8.846,8.846,0,0,0-8.751,8.762" transform="translate(-21.253 -21.238)" fill="#efcfb3"/>
        <path id="Path_824475" data-name="Path 824475" d="M63.886,72.662A8.846,8.846,0,0,1,72.637,63.9a8.866,8.866,0,1,1-.551,17.708,8.883,8.883,0,0,1-8.2-8.946m4.44.067c-.222,2.373,2.293,4.524,4.245,4.49a4.354,4.354,0,0,0,4.595-4.377c.005-2.612-1.592-4.393-4.506-4.5a4.339,4.339,0,0,0-4.334,4.385" transform="translate(-28.322 -28.328)"/>
        <path id="Path_824476" data-name="Path 824476" d="M71.85,76.267a4.339,4.339,0,0,1,4.334-4.385c2.914.1,4.511,1.885,4.506,4.5A4.354,4.354,0,0,1,76.1,80.757c-1.952.035-4.467-2.117-4.245-4.49" transform="translate(-31.846 -31.866)" fill="#68d5f3"/>
      </g>
    </g>
  </g>
</svg>
