<svg xmlns="http://www.w3.org/2000/svg" xmlns:xlink="http://www.w3.org/1999/xlink" width="193" height="193" viewBox="0 0 193 193">
  <defs>
    <clipPath id="clip-path">
      <rect id="Rectangle_378529" data-name="Rectangle 378529" width="193" height="193" transform="translate(-8)" fill="#fff" stroke="#707070" stroke-width="1"/>
    </clipPath>
    <clipPath id="clip-path-2">
      <rect id="Rectangle_378530" data-name="Rectangle 378530" width="190" height="170" fill="none"/>
    </clipPath>
  </defs>
  <g id="Mask_Group_432" data-name="Mask Group 432" transform="translate(8)" clip-path="url(#clip-path)">
    <g id="Group_1074869" data-name="Group 1074869" transform="translate(-6 8)">
      <g id="Group_1074868" data-name="Group 1074868" transform="translate(0 7)" clip-path="url(#clip-path-2)">
        <path id="Path_824534" data-name="Path 824534" d="M171.726,127.708c.278,1.982.63,3.947.79,5.953a22.511,22.511,0,0,0,.442,4.467c.118.414-.124.922-.1,1.382.343,7.074.146,14.154.163,21.232.005,2.165-.672,2.715-2.611,2.806-.189.009-.38.009-.57.009l-37.824,0c-3.453,0-6.913.14-10.356-.052a4.3,4.3,0,0,0-3.911,1.964c-2.015,2.568-4.306,4.88-6.438,7.339a1.788,1.788,0,0,1-3.046-.016c-.882-1.116-1.848-2.167-2.794-3.217-1.677-1.86-3.337-3.731-4.932-5.664a1.408,1.408,0,0,0-1.217-.407q-24.377.026-48.752.055c-.7,0-1.391-.076-2.086-.062-1.4.028-1.88-.934-1.84-2.19.194-5.949.007-11.9.054-17.849,0-.323-.034-.646-.051-.969l-.011.027a6.992,6.992,0,0,0,.011-2.27c-.191-.994.32-1.98.164-2.975A20.966,20.966,0,0,1,47,132.313a32.866,32.866,0,0,1,1.043-5.96,16.065,16.065,0,0,1,4.39-7.942,29.2,29.2,0,0,1,7.878-5.144,66.936,66.936,0,0,1,7.911-3.138c3.8-1.14,7.623-2.183,11.424-3.31.747-.222,1.558-.318,1.674-1.552.075-.809,1.149-1.12,1.868-1.533,2.468-1.416,4.925-2.85,7.4-4.246a2.277,2.277,0,0,1,2.761-.009c.439.354.768.164,1.042-.207a6.48,6.48,0,0,0,1.028-1.782,18.283,18.283,0,0,0,.729-6.452c-.015-.415-.282-.557-.493-.765C94.078,88.7,92.217,87.391,91,85.5c-.713-1.11-1.967-1.84-2.213-3.27-2.405-2.284-3.134-5.54-4.6-8.372-.13-.251-.169-.551-.282-.813a1.087,1.087,0,0,0-1.133-.762A7.835,7.835,0,0,1,77.508,70.6a7.915,7.915,0,0,1-3.334-5.949,6.348,6.348,0,0,1,3-6.162c.454-.295.536-.527.216-1a25.683,25.683,0,0,1-4.011-10.809A34.944,34.944,0,0,1,73.1,39.36a40.575,40.575,0,0,1,2.566-11.437c.536-1.478,1.24-1.832,2.721-1.5A17.543,17.543,0,0,0,82,26.817a25.944,25.944,0,0,0,11.325-2.481c1.954-.893,3.964-1.729,5.832-2.736a65.96,65.96,0,0,1,6.1-3.067,22.943,22.943,0,0,1,5.312-1.51,13.027,13.027,0,0,1,7.633,1.082,15.976,15.976,0,0,1,4.883,3.3c1.588,1.666,3.115,3.369,4.556,5.165.663.827,1.7.524,2.544.6a15.493,15.493,0,0,1,6.687,1.977,3.131,3.131,0,0,1,1.544,1.48c.2.5.732.5,1.07.825a11.906,11.906,0,0,1,3.337,6.613,26.736,26.736,0,0,1,.859,3.629,22.214,22.214,0,0,1,.122,5.564c-.2,1.063-.076,2.175-.192,3.272a10.741,10.741,0,0,1-.73,3.869c-.678,1.178.009,2.343-.614,3.365-.2.325.022.65.352.883a6.54,6.54,0,0,1,2.832,5.079,8.165,8.165,0,0,1-4.764,7.632,13.083,13.083,0,0,1-4.324.941c-.307.012-.474.141-.59.491A40.348,40.348,0,0,1,129.328,84.6a42.4,42.4,0,0,1-5.394,5.584c-.13.118-.339.114-.325.38.109,1.966-.208,3.946.176,5.9a10.11,10.11,0,0,0,1.284,2.852c.2.374.516.378.684.267,1.452-.957,2.684-.38,3.993.4,2.494,1.492,5.05,2.877,7.574,4.317a1.52,1.52,0,0,1,.946,1.407c-.006.645.552.812,1.035.916,1.925.411,3.783,1.076,5.712,1.5,2,.443,3.932,1.289,5.918,1.877a57.567,57.567,0,0,1,8.957,3.48c4.379,2.139,8.265,4.871,10.39,9.585a12.958,12.958,0,0,1,1.269,4.249c-.033.173-.06.343.178.385m-61.562,5.431c-.036-.092-.024-.243-.172-.21-.05.011-.074.136-.111.208l-1.613.038c-.3.006-.523.023-.6.436-.412,2.224-1,4.424-1.26,6.665-.281,2.465-.743,4.891-1.143,7.329-.669,4.072-1.434,8.126-2.128,12.193a2.117,2.117,0,0,0,.485,1.888c1.977,2.234,3.9,4.521,5.839,6.792.238.279.406.421.729.042q3.025-3.549,6.1-7.055a1.239,1.239,0,0,0,.275-1.177c-.33-1.306-.456-2.646-.687-3.967-.393-2.251-.893-4.486-1.183-6.749-.323-2.514-.948-4.967-1.249-7.485-.262-2.2-.688-4.378-1.089-6.556a4.756,4.756,0,0,0-.44-1.966c-.464-.688-1.171-.272-1.751-.426M74.891,159.654v-.029c7.917,0,15.832-.008,23.749.017.521,0,.749-.118.837-.64.372-2.216.777-4.426,1.148-6.642.577-3.455,1.118-6.916,1.709-10.368.542-3.164,1.141-6.318,1.69-9.482a2.13,2.13,0,0,0-.258-1.585c-1.248-1.852-2.509-3.695-3.759-5.544-.314-.465-.581-.39-1-.079-1.037.767-2.113,1.482-3.2,2.169-1.173.74-1.8.6-2.59-.6q-1.292-1.973-2.481-4.015-3.647-6.291-7.245-12.611a.789.789,0,0,0-1.085-.421c-2.08.653-4.17,1.272-6.26,1.9a94.211,94.211,0,0,0-13.874,4.862,28.326,28.326,0,0,0-6.884,4.289c-2.539,2.281-3.617,5.42-4.173,8.742a76.257,76.257,0,0,0-.735,10.67c-.158,6.206-.056,12.419-.081,18.629,0,.579.135.761.746.759,7.916-.026,15.832-.017,23.749-.017m69.836-.016v.075q11.876,0,23.751.01c.52,0,.777-.023.774-.7-.034-7.142.069-14.285-.236-21.421a31.469,31.469,0,0,0-.2-3.961c-.349-2.024-.564-4.067-.982-6.092a11.931,11.931,0,0,0-4.76-7.609,36.379,36.379,0,0,0-6.772-3.867,77.386,77.386,0,0,0-9.49-3.367c-3.131-.913-6.275-1.777-9.377-2.791-.564-.185-.912-.2-1.248.393q-3.2,5.618-6.459,11.2c-1.067,1.832-2.138,3.666-3.286,5.445a1.643,1.643,0,0,1-2.582.553c-1.016-.657-2.025-1.33-3-2.047a.836.836,0,0,0-1.407.248q-1.887,2.824-3.833,5.607a1.127,1.127,0,0,0-.156.913c.3,1.714.637,3.423.96,5.134.594,3.147,1.018,6.324,1.539,9.482.655,3.97,1.461,7.914,2.064,11.9a.917.917,0,0,0,1.043.917c7.888-.042,15.775-.026,23.663-.026M140.152,45.923a18.952,18.952,0,0,0-1.169-8.153c-1.348-3.179-3.429-5.569-6.876-6.4a15.029,15.029,0,0,0-4.505-.45,2.293,2.293,0,0,1-2.165-1.094,31,31,0,0,0-5.656-6.3,11.15,11.15,0,0,0-10.588-2.3A45.244,45.244,0,0,0,101.5,24.5c-1.44.726-2.826,1.571-4.284,2.254-1.607.754-3.257,1.416-4.911,2.059A25.916,25.916,0,0,1,81.864,30.7c-.844-.032-1.684-.216-2.54-.187a.7.7,0,0,0-.781.645c-.181.918-.485,1.812-.656,2.732-.674,3.623-1.327,7.236-.868,10.974a28.372,28.372,0,0,0,3.94,11.209,1.006,1.006,0,0,0,1.366.465,63.942,63.942,0,0,1,18.9-2.961,28.168,28.168,0,0,0,7.746-1.608,1.444,1.444,0,0,0,.247-.139A26.83,26.83,0,0,0,114.792,48a30.982,30.982,0,0,0,2.494-2.175,21.529,21.529,0,0,1,2.732-2.8,5.277,5.277,0,0,1,5.019-1c2.717.764,4.412,2.755,5.89,5.049,1.048,1.627,1.4,3.582,2.49,5.2a15.153,15.153,0,0,0,4.073,4.281c.894.6,1.275.454,1.476-.624.622-3.321,1.385-6.627,1.186-10M96.674,57.881a11.078,11.078,0,0,0-1.956.128A58.541,58.541,0,0,0,85.726,59.6c-.615.15-1.022.334-.893,1.113.12.723.064,1.481.217,2.194a55.046,55.046,0,0,0,2.861,10.261c2.569,6.006,6.061,11.253,11.5,14.892a19.44,19.44,0,0,0,10.307,3.516,16.4,16.4,0,0,0,6.54-1.465c5.562-2.234,9.589-6.291,12.694-11.409a42.291,42.291,0,0,0,5.213-13.995c.289-1.48.317-2.987.663-4.45a.974.974,0,0,0-.5-1.132,11.226,11.226,0,0,1-2.261-2.072,27.812,27.812,0,0,1-4.118-7.254,7.162,7.162,0,0,0-2.456-3.387c-1.876-1.237-2.646-1.064-4.025.244-.349.331-.691.671-1.02,1.022a45.3,45.3,0,0,1-6.058,5.463,20.984,20.984,0,0,1-7.027,3.545c-3.514.954-7.145.675-10.7,1.194m3.628,35.1c-.64.046-.4.492-.4.742a12.263,12.263,0,0,1-2.583,8.008c-.328.418-.33.672.108,1.028,1.382,1.123,2.727,2.3,4.086,3.449,2.507,2.129,5.032,4.239,7.51,6.4.572.5.909.615,1.549.056,3.879-3.384,7.781-6.742,11.8-9.947.481-.383.258-.626.016-.947a14.25,14.25,0,0,1-1.827-3.171,11.892,11.892,0,0,1-.771-4.983c.02-.649-.175-.8-.776-.537-.679.3-1.356.62-2.035.912a20.089,20.089,0,0,1-6.948,1.478c-3.2.157-6.2-.934-9.123-2.206-.229-.1-.452-.211-.613-.286m33.6,13.93c-.06-.395-.377-.444-.609-.573-1.586-.884-3.207-1.706-4.752-2.659a1.239,1.239,0,0,0-1.746.128q-3.509,3.1-7.084,6.116-3.14,2.669-6.323,5.28c-.405.334-.274.454.082.683,1,.643,1.978,1.319,2.956,2q3.635,2.521,7.258,5.059c.418.295.651.327.943-.194,2.9-5.184,5.949-10.274,9.025-15.349.1-.162.173-.338.25-.489m-42-3.6c-.087.043-.227.109-.365.182-1.859.982-3.708,1.983-5.582,2.935-.471.239-.264.483-.114.729.563.921,1.171,1.814,1.719,2.744q3.712,6.3,7.4,12.614c.305.523.546.6,1.112.241,3.31-2.12,6.5-4.417,9.731-6.657.664-.461.549-.734.117-1.12-2.466-2.2-5.022-4.295-7.525-6.448-1.924-1.656-3.9-3.268-5.858-4.894a1,1,0,0,0-.631-.325M109.916,129.3c.632,0,1.264,0,1.9,0a1.277,1.277,0,0,0,1.163-.519c1.2-1.789,2.392-3.582,3.606-5.361.28-.41.246-.668-.169-.949q-3.006-2.034-5.99-4.1a.959.959,0,0,0-1.22.02q-2.882,2-5.781,3.971c-.5.342-.552.688-.191,1.2a30.059,30.059,0,0,1,2.25,3.36c.983,1.873,2.275,2.921,4.435,2.386m29.142-67.929c-.433-.142-.542.118-.611.656a30.672,30.672,0,0,1-1.085,5.467.653.653,0,0,0,.086.718c.221.222.427.09.68.022a4.712,4.712,0,0,0,3.514-3.413,2.73,2.73,0,0,0-2.585-3.449m-61.07,2.675c-.195,1.854,1.716,3.886,3.741,4.31.4.085.686-.078.531-.592a25.991,25.991,0,0,1-1.08-5.933c-.034-.561-.275-.731-.778-.656a2.891,2.891,0,0,0-2.414,2.871" transform="translate(-11.053 -3.652)" fill="#010101"/>
        <path id="Path_824535" data-name="Path 824535" d="M193.674,21.689C193.555,10.525,202.828.725,213.132.128c14.23-.826,21.99,10.41,22.719,19.618a21.525,21.525,0,0,1-20.244,23.736c-12.519.523-22.18-10.518-21.934-21.793m21.213-17.6c-7.985-.468-18.265,6.55-17.267,19.53a17.305,17.305,0,0,0,17.1,15.916c9.591.081,17.317-7.55,17.463-17.708.153-10.641-9.194-18.181-17.295-17.739" transform="translate(-45.933 -0.018)" fill="#010101"/>
        <path id="Path_824536" data-name="Path 824536" d="M42.23,21.895A21.294,21.294,0,0,1,21.561,43.472C9.22,43.607.68,33.356.041,23.051-.759,10.142,10.105-.253,21.241,0A21.272,21.272,0,0,1,42.23,21.895M21.094,4.032c-7.862-.5-18.043,6.835-17.2,19.186A17.487,17.487,0,0,0,21.284,39.584,17.522,17.522,0,0,0,38.6,21.686c0-9.932-8.1-18.057-17.509-17.654" transform="translate(0 0)" fill="#010101"/>
        <path id="Path_824537" data-name="Path 824537" d="M209.06,71.356c-1.034.864-1.677,2.086-2.622,3.033-.79.793-1.423.93-2.125.411-1.176-.87-1.388-1.094-.886-2.53a7.659,7.659,0,0,1,1.817-2.436c1.66-1.871,3.132-3.894,4.726-5.817a1.906,1.906,0,0,1,3.121-.169,94.048,94.048,0,0,1,6.556,8.319,1.728,1.728,0,0,1-.57,2.515c-.763.608-1.392.554-2.169-.286-.905-.981-1.772-2-2.636-3.02-.189-.224-.327-.53-.662-.374-.3.14-.14.471-.131.7.174,4.324.035,8.648.082,12.971a14.093,14.093,0,0,1-2.614,8.749,15.2,15.2,0,0,1-4.575,4.14,12.987,12.987,0,0,1-6.644,1.63c-5.669.051-11.34.029-17.011.009-.889,0-1.809-.047-2.3-1.066a1.883,1.883,0,0,1,1.357-2.759,11.687,11.687,0,0,1,1.706-.092c5.164,0,10.328-.045,15.49.028a10.453,10.453,0,0,0,6.936-2.075,9.742,9.742,0,0,0,3.586-5.8,12.477,12.477,0,0,0,.269-2.479c.012-4.1,0-8.2-.005-12.291a.157.157,0,0,0-.04-.259l.025-1.022c.065-.2.25-.48-.055-.558-.351-.09-.586.144-.624.534" transform="translate(-42.74 -13.668)" fill="#010101"/>
        <path id="Path_824538" data-name="Path 824538" d="M27.111,70.644a7.913,7.913,0,0,0-.079,2.221c.019,4.39.007,8.782.111,13.17a9.128,9.128,0,0,0,4.121,7.453,8.079,8.079,0,0,0,4.656,1.689c5.8.043,11.593.042,17.389.074a4.469,4.469,0,0,1,1.939.255,1.7,1.7,0,0,1,1.213,2.06c-.063.94-.7,1.319-1.469,1.511a5.466,5.466,0,0,1-1.323.1c-5.575,0-11.151.042-16.726-.023a13.341,13.341,0,0,1-11.817-6.823,12.471,12.471,0,0,1-1.845-6.773c.029-3.576.011-7.153.012-10.73.156-.111.15-.222,0-.335a21.127,21.127,0,0,0-.14-3.345c.034-.145.1-.308-.06-.4-.026-.015-.153.157-.234.243a26.278,26.278,0,0,0-2.357,2.7c-.133.136-.232.306-.362.447-.97,1.055-1.755,1.158-2.654.352a1.932,1.932,0,0,1-.216-2.919c1.255-1.561,2.551-3.088,3.832-4.626.9-1.077,1.79-2.158,2.7-3.224a1.7,1.7,0,0,1,2.884.076c1.153,1.474,2.4,2.868,3.475,4.412.886,1.272,2.021,2.352,2.916,3.63a2.042,2.042,0,0,1-.588,2.925,1.74,1.74,0,0,1-2.414-.617,25.076,25.076,0,0,0-2.732-3.425c-.024-.2-.1-.246-.236-.076" transform="translate(-3.963 -13.634)" fill="#010101"/>
        <path id="Path_824539" data-name="Path 824539" d="M218.032,73.482c.038-.389.273-.624.624-.534.305.078.12.358.055.558l-.679-.024" transform="translate(-51.712 -15.794)" fill="#e6eaf5"/>
        <path id="Path_824540" data-name="Path 824540" d="M218.828,74.963a.156.156,0,0,1,.04.259c-.134.117-.215.033-.234-.095s.023-.242.194-.164" transform="translate(-51.853 -16.229)" fill="#4ee78d"/>
        <path id="Path_824541" data-name="Path 824541" d="M210.567,158.242c-.237-.042-.211-.212-.178-.385.227.048.449.1.178.385" transform="translate(-49.894 -34.186)" fill="#e6eaf5"/>
        <path id="Path_824542" data-name="Path 824542" d="M24.774,73.137c.081-.085.208-.258.235-.243.162.093.094.256.059.4l-.294-.159" transform="translate(-5.876 -15.786)" fill="#e6eaf5"/>
        <path id="Path_824543" data-name="Path 824543" d="M25.27,77.677c.15.112.155.224,0,.335-.114,0-.236-.009-.235-.168s.122-.163.236-.168" transform="translate(-5.937 -16.822)" fill="#2b2f33"/>
        <path id="Path_824544" data-name="Path 824544" d="M30.345,72.741c.139-.17.212-.125.236.076l-.236-.076" transform="translate(-7.197 -15.73)" fill="#fbd5ac"/>
        <path id="Path_824545" data-name="Path 824545" d="M46.623,177.217l.011-.027c-.024,0-.053,0-.069-.008s0-.043,0-.066l.061.1" transform="translate(-11.043 -38.357)" fill="#2b2f33"/>
        <path id="Path_824546" data-name="Path 824546" d="M76.068,185.332c-7.917,0-15.833-.009-23.749.017-.611,0-.748-.18-.746-.76.024-6.21-.077-12.423.081-18.629a76.257,76.257,0,0,1,.735-10.67c.555-3.322,1.634-6.46,4.173-8.742a28.326,28.326,0,0,1,6.884-4.289A94.215,94.215,0,0,1,77.319,137.4c2.089-.624,4.18-1.242,6.26-1.9a.789.789,0,0,1,1.085.421q3.607,6.315,7.245,12.611,1.184,2.042,2.481,4.015c.785,1.2,1.417,1.338,2.59.6,1.089-.686,2.166-1.4,3.2-2.169.421-.311.687-.387,1,.079,1.25,1.85,2.511,3.692,3.758,5.544a2.13,2.13,0,0,1,.259,1.586c-.548,3.164-1.147,6.318-1.69,9.482-.591,3.452-1.132,6.913-1.709,10.368-.371,2.216-.776,4.426-1.148,6.642-.088.522-.316.642-.837.64-7.917-.025-15.832-.017-23.749-.017Z" transform="translate(-12.229 -29.33)" fill="#e6eaf5"/>
        <path id="Path_824547" data-name="Path 824547" d="M166.126,185.329c-7.888,0-15.775-.016-23.663.026a.917.917,0,0,1-1.043-.917c-.6-3.982-1.409-7.926-2.064-11.9-.521-3.159-.944-6.336-1.539-9.483-.323-1.711-.658-3.419-.96-5.134a1.127,1.127,0,0,1,.156-.913q1.95-2.778,3.833-5.607a.837.837,0,0,1,1.407-.248c.977.717,1.986,1.389,3,2.046a1.643,1.643,0,0,0,2.582-.553c1.148-1.779,2.219-3.612,3.286-5.445q3.254-5.587,6.459-11.2c.336-.591.684-.577,1.249-.393,3.1,1.015,6.245,1.879,9.376,2.792a77.252,77.252,0,0,1,9.49,3.366,36.426,36.426,0,0,1,6.772,3.868,11.929,11.929,0,0,1,4.76,7.609c.418,2.024.633,4.067.982,6.091a31.477,31.477,0,0,1,.2,3.961c.307,7.136.2,14.28.236,21.421,0,.673-.253.7-.773.7q-11.875-.023-23.751-.011v-.075" transform="translate(-32.452 -29.344)" fill="#e6eaf5"/>
        <path id="Path_824548" data-name="Path 824548" d="M149.562,46.994c.2,3.375-.564,6.68-1.186,10-.2,1.079-.582,1.227-1.476.624a15.177,15.177,0,0,1-4.074-4.281c-1.085-1.622-1.441-3.576-2.489-5.2-1.478-2.294-3.173-4.285-5.891-5.049a5.276,5.276,0,0,0-5.019,1,21.634,21.634,0,0,0-2.732,2.8,31.108,31.108,0,0,1-2.493,2.176,26.83,26.83,0,0,1-5.575,3.829,1.56,1.56,0,0,1-.247.139,28.2,28.2,0,0,1-7.746,1.608,63.941,63.941,0,0,0-18.9,2.961,1.006,1.006,0,0,1-1.366-.465,28.36,28.36,0,0,1-3.94-11.209c-.459-3.739.195-7.351.868-10.975.171-.92.475-1.813.656-2.731a.693.693,0,0,1,.781-.645c.856-.029,1.7.155,2.539.186a25.9,25.9,0,0,0,10.445-1.879c1.653-.643,3.3-1.305,4.911-2.058,1.459-.683,2.844-1.528,4.284-2.254a45.217,45.217,0,0,1,7.689-3.283,11.149,11.149,0,0,1,10.588,2.3,31.014,31.014,0,0,1,5.656,6.3,2.292,2.292,0,0,0,2.164,1.094,15.009,15.009,0,0,1,4.506.45c3.447.83,5.527,3.22,6.875,6.4a18.952,18.952,0,0,1,1.169,8.153" transform="translate(-20.462 -4.723)" fill="#2b2f33"/>
        <path id="Path_824549" data-name="Path 824549" d="M108.554,65.818c3.552-.519,7.183-.24,10.7-1.194a20.985,20.985,0,0,0,7.027-3.545,45.3,45.3,0,0,0,6.058-5.463c.33-.352.671-.692,1.02-1.022,1.378-1.308,2.149-1.481,4.025-.244a7.162,7.162,0,0,1,2.456,3.387,27.813,27.813,0,0,0,4.118,7.254,11.227,11.227,0,0,0,2.261,2.072.973.973,0,0,1,.5,1.132c-.346,1.463-.374,2.97-.663,4.45a42.292,42.292,0,0,1-5.213,13.994c-3.105,5.118-7.132,9.175-12.694,11.409a16.4,16.4,0,0,1-6.54,1.465A19.44,19.44,0,0,1,111.294,96c-5.44-3.639-8.933-8.887-11.5-14.892a55.045,55.045,0,0,1-2.861-10.261c-.153-.713-.1-1.471-.217-2.194-.13-.78.278-.963.892-1.113a58.542,58.542,0,0,1,8.992-1.591,11.08,11.08,0,0,1,1.956-.128" transform="translate(-22.932 -11.589)" fill="#fbd5ac"/>
        <path id="Path_824550" data-name="Path 824550" d="M116,114.016c.16.075.384.186.613.286,2.919,1.272,5.92,2.364,9.123,2.205a20.07,20.07,0,0,0,6.948-1.477c.68-.291,1.356-.609,2.035-.912.6-.269.8-.113.776.537a11.9,11.9,0,0,0,.771,4.983,14.276,14.276,0,0,0,1.826,3.171c.243.32.466.564-.015.947-4.023,3.2-7.926,6.561-11.8,9.946-.641.559-.977.443-1.549-.056-2.478-2.165-5-4.274-7.51-6.4-1.359-1.154-2.7-2.325-4.086-3.449-.439-.356-.436-.61-.108-1.029a12.26,12.26,0,0,0,2.583-8.008c0-.249-.242-.7.4-.741" transform="translate(-26.749 -24.687)" fill="#fbd5ac"/>
        <path id="Path_824551" data-name="Path 824551" d="M127.728,165.281c.58.154,1.287-.262,1.751.426a4.756,4.756,0,0,1,.44,1.966c.4,2.178.826,4.357,1.089,6.556.3,2.518.925,4.971,1.249,7.485.291,2.263.79,4.5,1.183,6.749.231,1.322.357,2.661.687,3.967a1.239,1.239,0,0,1-.275,1.177q-3.067,3.513-6.1,7.055c-.323.378-.491.237-.729-.042-1.939-2.27-3.861-4.557-5.838-6.792a2.117,2.117,0,0,1-.486-1.888c.694-4.068,1.459-8.122,2.128-12.193.4-2.438.862-4.864,1.143-7.329.257-2.241.848-4.441,1.26-6.665.077-.414.3-.43.6-.436l1.614-.038.281,0" transform="translate(-28.617 -35.794)" fill="#4ee78d"/>
        <path id="Path_824552" data-name="Path 824552" d="M154.588,130.826c-.077.151-.153.328-.251.489-3.075,5.076-6.126,10.166-9.024,15.35-.292.522-.525.489-.943.194q-3.618-2.545-7.258-5.059c-.977-.678-1.956-1.355-2.955-2-.357-.23-.487-.349-.082-.682q3.178-2.618,6.322-5.28c2.376-2.02,4.745-4.051,7.084-6.117a1.242,1.242,0,0,1,1.747-.128c1.545.954,3.166,1.776,4.752,2.66.233.129.55.179.609.573" transform="translate(-31.74 -27.568)" fill="#f8f9fb"/>
        <path id="Path_824553" data-name="Path 824553" d="M104.051,127.212a1,1,0,0,1,.631.325c1.958,1.626,3.935,3.239,5.858,4.894,2.5,2.154,5.059,4.249,7.526,6.448.432.385.547.659-.117,1.12-3.23,2.24-6.421,4.537-9.731,6.657-.566.363-.807.283-1.112-.241q-3.687-6.313-7.4-12.614c-.548-.93-1.156-1.823-1.719-2.744-.15-.245-.356-.49.114-.729,1.873-.952,3.723-1.953,5.582-2.935.137-.073.278-.139.365-.182" transform="translate(-23.199 -27.55)" fill="#f8f9fb"/>
        <path id="Path_824554" data-name="Path 824554" d="M127.449,157.3c-2.16.536-3.452-.512-4.434-2.386a30.171,30.171,0,0,0-2.251-3.36c-.362-.507-.311-.854.191-1.2q2.9-1.974,5.782-3.971a.959.959,0,0,1,1.219-.02q2.988,2.064,5.99,4.1c.415.28.449.539.169.949-1.214,1.779-2.407,3.572-3.606,5.362a1.278,1.278,0,0,1-1.163.518c-.632.007-1.264,0-1.9,0" transform="translate(-28.586 -31.652)" fill="#4ee78d"/>
        <path id="Path_824555" data-name="Path 824555" d="M167.256,73.658a2.73,2.73,0,0,1,2.585,3.449,4.712,4.712,0,0,1-3.514,3.413c-.253.068-.459.2-.68-.022a.653.653,0,0,1-.086-.718,30.673,30.673,0,0,0,1.085-5.467c.069-.537.178-.8.611-.656" transform="translate(-39.251 -15.944)" fill="#fbd5ac"/>
        <path id="Path_824556" data-name="Path 824556" d="M87.742,76.286a2.891,2.891,0,0,1,2.414-2.871c.5-.075.745.095.778.656A25.991,25.991,0,0,0,92.014,80c.155.515-.127.677-.531.592-2.025-.424-3.935-2.455-3.741-4.31" transform="translate(-20.807 -15.895)" fill="#fbd5ac"/>
        <path id="Path_824557" data-name="Path 824557" d="M129.839,165.222l-.281,0c.036-.073.06-.2.11-.208.147-.033.136.118.172.21" transform="translate(-30.728 -35.735)" fill="#2b2f33"/>
        <path id="Path_824558" data-name="Path 824558" d="M216.094,5.2c8.1-.443,17.447,7.1,17.294,17.739-.145,10.158-7.872,17.789-17.463,17.708a17.3,17.3,0,0,1-17.1-15.916c-1-12.98,9.282-20,17.267-19.53m-8.42,24.5a1.809,1.809,0,0,0,.338.942,1.687,1.687,0,0,0,2.779.339c1.526-1.413,2.958-2.935,4.411-4.43.838-.861.81-.866,1.674.027,1.406,1.452,2.817,2.9,4.248,4.327a1.737,1.737,0,0,0,2.329.355,1.941,1.941,0,0,0,.371-3.146c-1.468-1.614-3.021-3.148-4.562-4.689-.426-.427-.484-.635.019-1.113,1.532-1.458,3-2.99,4.446-4.536a2.013,2.013,0,0,0,.374-2.647,1.813,1.813,0,0,0-2.957-.177c-1.423,1.388-2.832,2.8-4.161,4.279-.647.721-1.057.751-1.717.04q-2.064-2.22-4.258-4.311c-1.157-1.1-2.281-.867-3.171.472-.687,1.033-.021,1.742.549,2.371q2.04,2.246,4.234,4.341c.618.59.641.948.027,1.539-1.364,1.31-2.669,2.685-3.994,4.038a2.71,2.71,0,0,0-.978,1.979" transform="translate(-47.141 -1.12)" fill="#ff5a7a"/>
        <path id="Path_824559" data-name="Path 824559" d="M22.289,5.14c9.413-.4,17.505,7.722,17.51,17.654a17.522,17.522,0,0,1-17.32,17.9A17.488,17.488,0,0,1,5.085,24.327C4.247,11.976,14.426,4.645,22.289,5.14m-8.444,14.8a1.844,1.844,0,0,0-1.639,2.838c1.365,2.563,2.8,5.088,4.262,7.593.78,1.337,1.816,1.456,3,.461.2-.165.377-.348.556-.531q5.273-5.412,10.541-10.826c.648-.667,1.314-1.321,1.9-2.041a1.975,1.975,0,0,0-.114-2.527,1.6,1.6,0,0,0-2.38-.141,8.521,8.521,0,0,0-.912.852c-3.31,3.406-6.627,6.8-9.912,10.234-.5.528-.725.5-1.06-.129-.8-1.51-1.647-3-2.491-4.483a2.02,2.02,0,0,0-1.751-1.3" transform="translate(-1.194 -1.108)" fill="#4ee78d"/>
        <path id="Path_824560" data-name="Path 824560" d="M210.406,32.2a2.71,2.71,0,0,1,.978-1.979c1.325-1.353,2.63-2.728,3.994-4.038.614-.591.591-.949-.027-1.539q-2.19-2.092-4.234-4.341c-.571-.629-1.236-1.339-.549-2.371.89-1.34,2.014-1.573,3.171-.472q2.192,2.086,4.258,4.311c.661.711,1.07.681,1.717-.04,1.33-1.481,2.738-2.891,4.161-4.279a1.813,1.813,0,0,1,2.957.177,2.013,2.013,0,0,1-.374,2.647c-1.448,1.547-2.914,3.078-4.446,4.536-.5.479-.445.686-.019,1.113,1.542,1.541,3.095,3.075,4.562,4.689a1.941,1.941,0,0,1-.371,3.146,1.737,1.737,0,0,1-2.329-.355c-1.431-1.427-2.842-2.874-4.248-4.327-.864-.894-.837-.888-1.674-.027-1.453,1.495-2.885,3.017-4.411,4.43a1.687,1.687,0,0,1-2.779-.339,1.809,1.809,0,0,1-.338-.942" transform="translate(-49.872 -3.631)" fill="#010101"/>
        <path id="Path_824561" data-name="Path 824561" d="M15.988,22.482a2.016,2.016,0,0,1,1.752,1.3c.844,1.486,1.689,2.972,2.491,4.482.336.631.555.658,1.061.13,3.284-3.431,6.6-6.828,9.912-10.234a8.449,8.449,0,0,1,.911-.852,1.6,1.6,0,0,1,2.381.142,1.975,1.975,0,0,1,.114,2.527c-.588.72-1.255,1.374-1.9,2.041Q27.44,27.434,22.165,32.842c-.179.183-.36.367-.555.531-1.182.994-2.217.876-3-.461-1.462-2.506-2.9-5.03-4.262-7.593a1.842,1.842,0,0,1,1.638-2.837" transform="translate(-3.34 -3.648)" fill="#010101"/>
      </g>
    </g>
  </g>
</svg>
