<svg xmlns="http://www.w3.org/2000/svg" xmlns:xlink="http://www.w3.org/1999/xlink" width="120" height="120" viewBox="0 0 120 120">
  <defs>
    <clipPath id="clip-path">
      <rect id="Rectangle_379979" data-name="Rectangle 379979" width="77.843" height="77.922" fill="none"/>
    </clipPath>
  </defs>
  <g id="Group_1076188" data-name="Group 1076188" transform="translate(-180 -24147.473)">
    <circle id="Ellipse_5981" data-name="Ellipse 5981" cx="60" cy="60" r="60" transform="translate(180 24147.473)" fill="#ffae7e"/>
    <g id="Group_1076201" data-name="Group 1076201" transform="translate(201.49 24168.512)">
      <g id="Group_1076200" data-name="Group 1076200" clip-path="url(#clip-path)">
        <path id="Path_827011" data-name="Path 827011" d="M12.328,12.645c0,.608,0,1.216,0,1.825a2.426,2.426,0,0,0,.074.891c-.475-.013-.915.072-1.1.574a2.037,2.037,0,0,0-.092.711c.023,3.738.042,7.476-.006,11.215-.007.558-.065.973-.637,1.193a7.075,7.075,0,0,0-.616.369A3.325,3.325,0,0,0,8.2,31.145a6.019,6.019,0,0,1-.462.827c-1.156,1.971-2.236,3.983-3.307,6a20.364,20.364,0,0,0-1.291,3.9c-.693,2.351-1.324,4.719-1.967,7.085a2.082,2.082,0,0,0-.047.947c.111.606.234,1.212.335,1.82q.239,1.425.5,2.847c.179.974.38,1.945.558,2.919.224,1.231.443,2.461.645,3.7a8.031,8.031,0,0,1,.284,2.986c-.176.852-.3,1.714-.462,2.57a.959.959,0,0,1-.4.655,1.932,1.932,0,0,0-.673,1.1C1.258,70.681.783,72.906.2,75.1A2.2,2.2,0,0,0,.14,76.728,1.947,1.947,0,0,0,2.1,77.921q12.986-.035,25.973-.014H75.156a10.236,10.236,0,0,0,1.32-.064,1.838,1.838,0,0,0,1.367-1.494,5.613,5.613,0,0,0-.245-1.386q-.275-1.164-.59-2.32a10.626,10.626,0,0,0-.3-1.23,6.939,6.939,0,0,1-.243-.922c-.148-.606-.328-1.206-.455-1.815a1.91,1.91,0,0,0-.795-1.345.643.643,0,0,1-.284-.425c-.141-.641-.234-1.292-.359-1.936a5.232,5.232,0,0,1-.027-2.811,2.7,2.7,0,0,0,.151-.947,1.171,1.171,0,0,0-.827-1.049,24.919,24.919,0,0,1,.394-2.634c.7-.037,1.177-.268,1.3-1.065.057-.362.11-.731.183-1.093.151-.75.274-1.505.411-2.258.167-.92.35-1.838.5-2.762a2.827,2.827,0,0,0,.068-1.139c-.176-.744-.45-1.459-.63-2.2-.321-1.314-.712-2.606-1.07-3.909-.283-1.029-.556-2.061-.85-3.088a9.849,9.849,0,0,0-.564-1.72c-1.328-2.642-2.786-5.215-4.246-7.786a1.707,1.707,0,0,0-.612-.612c-.533-.326-1.057-.671-1.609-.96a.77.77,0,0,1-.465-.8q.014-13.178,0-26.355a5.723,5.723,0,0,0-.016-.721,1.049,1.049,0,0,0-.8-.977A4.592,4.592,0,0,0,65.04,0Q38.97.009,12.9.006a2.068,2.068,0,0,0-.379.005,1.986,1.986,0,0,0-.711.164,1.313,1.313,0,0,0-.586,1.274q.009,3.556.008,7.112c0,1.013-.02,2.028.019,3.04a1.1,1.1,0,0,0,1.079,1.044" transform="translate(0 0)" fill="#f8f9fb"/>
        <path id="Path_827012" data-name="Path 827012" d="M73.87,60.162A1.17,1.17,0,0,1,74.7,61.21a2.7,2.7,0,0,1-.151.947,5.229,5.229,0,0,0,.026,2.811c.125.644.218,1.294.36,1.936a.644.644,0,0,0,.284.425,1.909,1.909,0,0,1,.795,1.345c.128.61.307,1.209.455,1.816a7.016,7.016,0,0,0,.243.923,10.681,10.681,0,0,1,.3,1.23q.315,1.155.59,2.32a5.632,5.632,0,0,1,.245,1.387,1.838,1.838,0,0,1-1.367,1.494,10.177,10.177,0,0,1-1.32.064q-23.543,0-47.086,0c-8.658,0-17.315-.01-25.973.014A1.948,1.948,0,0,1,.14,76.728,2.2,2.2,0,0,1,.2,75.1c.588-2.2,1.063-4.419,1.711-6.6a1.932,1.932,0,0,1,.673-1.1.959.959,0,0,0,.4-.655c.158-.856.285-1.718.462-2.571a8.033,8.033,0,0,0-.284-2.986c-.2-1.234-.422-2.465-.645-3.695-.177-.975-.379-1.945-.558-2.92q-.261-1.421-.5-2.846c-.1-.609-.225-1.214-.335-1.821a2.081,2.081,0,0,1,.047-.947c.643-2.365,1.274-4.734,1.967-7.084a20.367,20.367,0,0,1,1.291-3.9c1.071-2.016,2.152-4.029,3.307-6a6.018,6.018,0,0,0,.462-.826,3.322,3.322,0,0,1,1.755-1.721,6.952,6.952,0,0,1,.615-.369c.571-.22.63-.636.637-1.193.048-3.739.029-7.477.006-11.215a2.03,2.03,0,0,1,.092-.711c.188-.5.628-.586,1.1-.574a1.038,1.038,0,0,1,1.014.985.067.067,0,0,0,.015.1q0,12.386,0,24.773c0,1.887-.013,3.773-.02,5.66-.021,0-.058.005-.059.013-.009.05.027.044.059.039.008.266.013.531.026.8a.7.7,0,0,0,.622.736,1.114,1.114,0,0,0,1.335-1.042c.08-2.029.125-4.06.206-6.089a5.477,5.477,0,0,1,1.477-3.616,2.746,2.746,0,0,1,2.319-1.059,3.213,3.213,0,0,1,1.269.439,2.023,2.023,0,0,1,1.268,1.667c.016.282.168.406.487.387.619-.037,1.241-.027,1.862-.025,10.262.038,20.524-.078,30.786.055a1.3,1.3,0,0,0,.743-.074c.219-.133.1-.37.151-.554a2.743,2.743,0,0,1,1.594-1.622,2.475,2.475,0,0,1,2.121-.076,4.192,4.192,0,0,1,1.216.9.391.391,0,0,0,.192.2l.5.719.168.288.049.092.351.954.114.413q.036,1.006.072,2.013a3.068,3.068,0,0,0,.076,1.108q0,.321,0,.642a18.039,18.039,0,0,0,.075,2.329c.005.325.033.653.039.98a.584.584,0,0,0,.23.528.327.327,0,0,0,.226.205l.172.128a.28.28,0,0,0,.207.1.928.928,0,0,0,.638-.08c.407-.1.459-.4.459-.754Q64.45,29.96,64.448,12.3c0-.608-.012-1.216-.009-1.824,0-.2-.04-.332-.281-.249l-.5-.006a1.33,1.33,0,0,1-1.525-1.176,1.318,1.318,0,0,1,1.024-1.091A4.282,4.282,0,0,1,64.1,7.92c.268.01.34-.079.338-.343-.011-1.623-.015-3.245,0-4.868,0-.345-.107-.423-.433-.422q-25.064.009-50.128,0c-.334,0-.43.083-.426.422.019,1.394.008,2.789.005,4.184a1.981,1.981,0,0,1-.037.412c-.118.545-.064.618.491.618h44.2c.9,0,1.332.334,1.482,1.14-.17.856-.493,1.131-1.473,1.14-.507.005-1.013-.016-1.52-.016l-42.055.006c-.352,0-.811-.119-1.028.055s-.062.661-.067,1.01c0,.038,0,.076,0,.114a1.217,1.217,0,0,1-1.125,1.276A1.1,1.1,0,0,1,11.249,11.6c-.039-1.012-.018-2.026-.019-3.04q0-3.556-.008-7.112A1.312,1.312,0,0,1,11.809.176,1.981,1.981,0,0,1,12.52.011,2.1,2.1,0,0,1,12.9.006q26.071,0,52.142,0a4.564,4.564,0,0,1,.819.086,1.05,1.05,0,0,1,.8.977,5.844,5.844,0,0,1,.016.721q.006,13.178,0,26.355a.769.769,0,0,0,.465.8c.553.289,1.076.634,1.609.96a1.709,1.709,0,0,1,.612.612c1.46,2.571,2.918,5.144,4.246,7.786a9.845,9.845,0,0,1,.564,1.72c.295,1.026.567,2.059.85,3.088.357,1.3.748,2.595,1.07,3.908.18.738.454,1.452.63,2.2a2.826,2.826,0,0,1-.068,1.139c-.147.924-.33,1.842-.5,2.763-.136.752-.26,1.507-.411,2.257-.073.363-.126.731-.183,1.094-.125.8-.6,1.028-1.3,1.065-.744-.354-1.045-.858-.91-1.508.081-.388.149-.778.222-1.167q.3-1.621.6-3.241c.1-.543.224-1.083.3-1.63a4.614,4.614,0,0,0-.366-1.856c-.28-.995-.538-2-.816-2.991-.333-1.2-.665-2.391-1.017-3.582a12.753,12.753,0,0,0-.813-2.6Q69.59,35.522,67.7,32.1a1.18,1.18,0,0,0-.473-.529c-.142-.074-.266-.277-.423-.2-.192.089-.081.318-.081.48q-.009,7.816,0,15.633c0,.288-.034.574-.061.861a3.156,3.156,0,0,1-4.038,2.281,3.761,3.761,0,0,1-2.094-1.839,1.869,1.869,0,0,1-.266-.7c-.106-.988-.1-1.982-.142-2.973-.061-1.434-.042-2.874-.173-4.3a2.485,2.485,0,0,0-1.067-1.764.445.445,0,0,0-.743.264,4.339,4.339,0,0,0-.149.758c-.089.669-.159,1.34-.252,2.009-.115.823-.266,1.642-.365,2.467-.114.938-.294,1.862-.5,2.784-.1.457-.381.89-.26,1.38a6.723,6.723,0,0,1,.145,1.264c.034.662.109,1.322.17,1.979.1,1.044.185,2.089.293,3.132a2.894,2.894,0,0,0,.455,1.667c2.257,2.847,4.483,5.719,6.722,8.58a2.517,2.517,0,0,1,.494.931c.2.8.429,1.6.589,2.413.068.342.206.379.485.308.936-.236,1.875-.463,2.81-.7.594-.151,1.183-.341,1.777-.472.648-.143,1.279-.368,1.942-.448.1-.012.245-.049.2-.246-.118-.56-.249-1.121-.311-1.688a6.834,6.834,0,0,1-.259-2.611,5.484,5.484,0,0,0,.168-.924c.024-.258.11-.508.143-.77.079-.627.5-.894,1.43-.961m-62.694-28.8a1.369,1.369,0,0,0-.955.727c-1.02,1.86-2.057,3.71-3.063,5.578a10.384,10.384,0,0,0-1.053,2.076c-.272.977-.523,1.96-.8,2.936C4.771,44.586,4.22,46.493,3.684,48.4a3.658,3.658,0,0,0-.191,1.949c.174.686.267,1.393.389,2.092.165.95.316,1.9.486,2.851.159.881.341,1.757.5,2.638q.347,1.877.679,3.758a6.752,6.752,0,0,1,.219,2.278c-.165,1.011-.379,2.015-.58,3.021-.045.229.023.337.257.392.746.176,1.486.374,2.23.558.841.207,1.684.406,2.525.611.591.144,1.178.3,1.771.439.228.053.394.021.438-.292.061-.44.256-.865.291-1.305.113-1.433,1.054-2.413,1.841-3.476.39-.527.878-.983,1.253-1.519.725-1.034,1.541-2,2.316-2.988.708-.907,1.411-1.819,2.14-2.709a1.7,1.7,0,0,0,.38-1.083c.021-.738.081-1.476.146-2.212.063-.709.159-1.414.227-2.123s.12-1.391.2-2.086a3,3,0,0,0-.053-1.393,18.252,18.252,0,0,1-.589-2.77c-.167-.845-.218-1.712-.337-2.567-.138-1-.3-1.987-.437-2.982a.509.509,0,0,0-.863-.4A2.584,2.584,0,0,0,17.9,40.832c-.117,1.392-.152,2.794-.163,4.191-.007.96-.138,1.914-.094,2.875a1.308,1.308,0,0,1-.121.615,3.583,3.583,0,0,1-2.978,2.228,3.02,3.02,0,0,1-3.353-3.155q0-7.968.011-15.935c.046-.1.129-.211-.029-.294M61.19,64.9c-.534-.827-1.187-1.563-1.787-2.34q-1.785-2.309-3.6-4.595a3.553,3.553,0,0,1-.794-2.3,10.6,10.6,0,0,0-.106-1.314c-.037-.319-.058-.649-.084-.966a12.831,12.831,0,0,1-.191-1.744,6.818,6.818,0,0,0-.1-1.27c-.086-.626-.139-1.255-.2-1.882a5.014,5.014,0,0,1,.444-2c.085-.259.058-.372-.271-.372q-12.967.016-25.935.016c-1.746,0-3.493-.05-5.239.038-.252.013-.3.025-.224.312a6.224,6.224,0,0,1,.4,2.38q-.125,1.136-.228,2.273c-.062.686-.067,1.38-.17,2.059-.141.929-.183,1.865-.273,2.8a3.319,3.319,0,0,1-.569,1.712c-1.06,1.428-2.145,2.838-3.24,4.24-.966,1.236-1.9,2.5-2.922,3.692a4.172,4.172,0,0,0-1.177,2.123,8.662,8.662,0,0,1-.329,1.329c-.151.5-.124.559.368.673a19.508,19.508,0,0,1,1.921.475A1.647,1.647,0,0,1,18.111,72c.038,1.038.013,2.079.01,3.118,0,.59-.085.513.522.519h.114l39.093,0c.52,0,1.039-.013,1.559-.006.266,0,.379-.075.375-.369-.014-1.052.007-2.1,0-3.156a2.365,2.365,0,0,1,.066-.742,1.893,1.893,0,0,1,1.345-1.226c.656-.153,1.313-.3,1.966-.463.178-.044.244-.152.182-.365-.165-.565-.277-1.145-.444-1.709a2.6,2.6,0,0,0-.321-.952c-.459-.584-.922-1.164-1.384-1.746M38.953,41.391h-12.4c-1.267,0-2.536.014-3.8-.009-.338-.006-.419.116-.38.407.079.588.152,1.178.24,1.764.031.209.151.284.39.283q15.515-.015,31.03-.01c.3,0,.608-.007.912,0,.2.006.257-.071.3-.278.111-.5.116-1.016.214-1.519.123-.635.1-.639-.576-.639H38.953M68.722,75.631v-.007c2.117,0,4.234,0,6.351,0,.265,0,.372-.049.3-.338q-.7-2.812-1.389-5.629c-.059-.245-.139-.285-.385-.22-1,.265-2.01.5-3.016.748q-4.124,1.012-8.25,2.02c-.205.05-.254.15-.253.343.005.887.012,1.775-.011,2.662-.009.327.072.429.418.426,2.079-.018,4.157-.009,6.236-.009m-59.589,0v-.008h1.445q2.453,0,4.906-.009c.149,0,.35.07.348-.209-.005-.989-.005-1.978-.006-2.966,0-.128-.03-.2-.183-.23-1.174-.195-2.308-.557-3.463-.83C9.548,70.76,6.923,70.107,4.3,69.441c-.246-.063-.3.019-.358.232Q3.237,72.487,2.509,75.3c-.071.273-.015.347.273.345,2.117-.011,4.234-.006,6.351-.006" transform="translate(0 0)"/>
        <path id="Path_827013" data-name="Path 827013" d="M40.376,33.259A1.217,1.217,0,0,0,41.5,31.983c0-.038,0-.076,0-.114,0-.349-.164-.825.067-1.01s.676-.055,1.028-.055L84.651,30.8c.507,0,1.013.021,1.52.016.98-.009,1.3-.285,1.473-1.14l1.345.064c.144.135.082.31.082.468q0,13.156,0,26.312a2.547,2.547,0,0,0,.106.671c.022.079.064.193.177.157.146-.047.049-.154.011-.213-.273-.423.07-.79.1-1.184a.139.139,0,0,1,.1-.089c.5.034.409-.326.409-.618q0-10.684-.006-21.369c0-.533.073-1.057.09-1.587.007-.216.017-.519.15-.621.191-.146.375.147.574.223.011,0,.019.017.031.022.129.053.217,0,.194-.129-.028-.151-.041-.348-.271-.353-.194,0-.342-.068-.288-.29s.241-.28.449-.229a1.95,1.95,0,0,0,.587.136c.137-.008.267-.009.219-.207l.5.006a6.01,6.01,0,0,1-.014,1.195c-.056,11.9.093,23.8-.082,35.693a3.119,3.119,0,0,1-.061,1.254.929.929,0,0,1-.638.08c.075-.087.119-.187-.011-.247s-.177.039-.2.151l-.172-.127c.123-.287-.1-.2-.226-.206a.584.584,0,0,1-.23-.528c-.006-.327-.034-.656-.039-.98A18.084,18.084,0,0,1,90.46,64.8a.44.44,0,0,0,.334-.506c-.023-.178-.19-.171-.336-.136a3.067,3.067,0,0,1-.076-1.108c.26.035.353-.085.361-.34.016-.476-.139-.941-.078-1.416.041-.321-.092-.371-.355-.258q-.057-.207-.114-.413c.108.007.2-.049.139-.148a2.422,2.422,0,0,1-.209-.625.241.241,0,0,0-.281-.182l-.049-.092c.022-.141.108-.32-.168-.288l-.5-.719c.062-.028.1-.077.063-.14-.059-.106-.165-.061-.255-.064a4.192,4.192,0,0,0-1.216-.9,2.475,2.475,0,0,0-2.121.076,2.744,2.744,0,0,0-1.594,1.622c-.051.183.069.42-.15.554a1.3,1.3,0,0,1-.743.074c-10.262-.132-20.525-.017-30.786-.055-.621,0-1.243-.012-1.862.025-.319.019-.471-.1-.487-.387a2.023,2.023,0,0,0-1.268-1.667,3.207,3.207,0,0,0-1.269-.438,2.745,2.745,0,0,0-2.319,1.059,5.476,5.476,0,0,0-1.477,3.616c-.082,2.03-.126,4.06-.206,6.089A1.115,1.115,0,0,1,42.1,69.08a.7.7,0,0,1-.621-.736c-.013-.265-.018-.531-.026-.8l.019-.026-.018-.026c.007-1.887.019-3.773.02-5.66q.005-12.386,0-24.772a.063.063,0,0,0-.015-.1,1.038,1.038,0,0,0-1.014-.985,2.435,2.435,0,0,1-.074-.892c0-.608,0-1.216,0-1.825M67,52.568v0H85.257a2.481,2.481,0,0,0,.493-.01c.7-.145,1.27-.658.958-1.472-.253-.662-.423-.784-1.309-.785q-18.367-.016-36.733-.011a3.527,3.527,0,0,0-.669.08,1.194,1.194,0,0,0-.849,1.159,1.307,1.307,0,0,0,1.224,1.034H67m-.269,4.718v0c3.308,0,6.616.018,9.924-.005,3.061-.022,6.123.1,9.183-.072a1.215,1.215,0,0,0,.915-.672,1.323,1.323,0,0,0-.293-1.16,1.708,1.708,0,0,0-1.282-.368Q66.913,55,48.644,55.007a3.031,3.031,0,0,0-.342.008,1.2,1.2,0,0,0-1.155,1.247,1.228,1.228,0,0,0,1.262,1.024H66.735M63.047,41.563q0-2.225,0-4.45a1.172,1.172,0,0,0-1.221-1.272c-3.017-.012-6.035-.019-9.052.009a.95.95,0,0,0-1.09.978,6.786,6.786,0,0,0-.034.834q0,3.671,0,7.341a10.42,10.42,0,0,0,.026,1.215,1.185,1.185,0,0,0,1.082,1.028q4.526,0,9.052-.008a1.162,1.162,0,0,0,1.233-1.262q0-2.206,0-4.412M90.892,63.091c0,.1,0,.2,0,.3,0,.118.014.247.158.262.185.019.127-.144.151-.242a2.661,2.661,0,0,0,.068-.293c.07-.582-.041-1.17.065-1.755a1.294,1.294,0,0,0-.144-.54c-.035-.11-.15-.149-.189-.046-.071.187-.269.361-.121.6a1,1,0,0,1,.09.476c.038.419-.084.825-.079,1.241m.471,2.529c-.112.049-.093.137-.106.2A12.516,12.516,0,0,0,91.2,67.9a.272.272,0,0,0,.17.234c.1.051.189.027.192-.09a3.072,3.072,0,0,0-.021-1,3.977,3.977,0,0,1-.122-1.115c0-.1.03-.2-.06-.3m-.513-5.394c.053,0,.1-.011.1-.076a.24.24,0,0,0-.164-.232c-.081-.037-.113.026-.119.095-.012.128.078.175.18.213m-1.626-1.98a.132.132,0,0,0,.127-.113c.018-.066,0-.133-.081-.127a.13.13,0,0,0-.112.129c-.006.052,0,.1.066.111m.649.088c-.021-.009-.046-.029-.061-.023s-.019.038-.028.059c.021.009.046.029.061.024s.02-.038.028-.059" transform="translate(-28.048 -20.614)" fill="#dff2fc"/>
        <path id="Path_827014" data-name="Path 827014" d="M202.642,131.516c-.933.067-1.351.334-1.43.961-.033.262-.119.512-.143.77a5.477,5.477,0,0,1-.168.924,6.84,6.84,0,0,0,.259,2.611c.062.568.193,1.128.311,1.688.041.2-.106.234-.2.246-.663.08-1.294.306-1.942.448-.594.131-1.183.32-1.777.471-.936.238-1.874.465-2.81.7-.279.071-.417.034-.485-.308-.161-.812-.386-1.61-.589-2.413a2.521,2.521,0,0,0-.494-.931c-2.239-2.862-4.465-5.733-6.722-8.58a2.894,2.894,0,0,1-.455-1.667c-.108-1.043-.195-2.088-.293-3.132-.062-.657-.136-1.317-.17-1.979a6.676,6.676,0,0,0-.145-1.264c-.121-.49.159-.923.26-1.38.2-.922.384-1.846.5-2.784.1-.825.25-1.643.365-2.467.093-.668.162-1.34.252-2.009a4.335,4.335,0,0,1,.149-.758.445.445,0,0,1,.743-.264,2.483,2.483,0,0,1,1.067,1.764c.131,1.431.113,2.87.173,4.305.042.991.036,1.985.142,2.973a1.87,1.87,0,0,0,.266.7,3.76,3.76,0,0,0,2.094,1.839,3.156,3.156,0,0,0,4.038-2.281c.026-.287.06-.574.06-.861q0-7.816,0-15.633c0-.161-.111-.391.081-.48.158-.074.281.13.423.2a1.181,1.181,0,0,1,.473.529q1.88,3.425,3.757,6.851a12.749,12.749,0,0,1,.813,2.6c.351,1.19.684,2.386,1.017,3.582.277,1,.536,2,.816,2.991a4.611,4.611,0,0,1,.366,1.856c-.072.547-.2,1.087-.3,1.63q-.3,1.621-.6,3.241c-.072.389-.141.779-.222,1.167-.135.65.165,1.154.91,1.508a24.98,24.98,0,0,0-.394,2.634" transform="translate(-128.772 -71.354)" fill="#ffc8bc"/>
        <path id="Path_827015" data-name="Path 827015" d="M94.246,175.108a1.893,1.893,0,0,0-1.345,1.226,2.346,2.346,0,0,0-.066.742c.01,1.052-.011,2.1,0,3.156,0,.294-.11.373-.375.369-.52-.008-1.039.005-1.559.005l-39.093,0H51.7c-.607-.006-.524.071-.522-.519,0-1.039.028-2.079-.01-3.118a1.646,1.646,0,0,0-1.215-1.759,19.5,19.5,0,0,0-1.921-.475c-.492-.114-.519-.178-.368-.673a8.626,8.626,0,0,0,.329-1.329,4.171,4.171,0,0,1,1.177-2.123c1.021-1.194,1.955-2.456,2.921-3.692,1.1-1.4,2.181-2.812,3.24-4.24a3.316,3.316,0,0,0,.569-1.712c.089-.932.132-1.868.273-2.8.1-.679.108-1.373.17-2.059q.1-1.138.228-2.273a6.236,6.236,0,0,0-.4-2.38c-.08-.287-.029-.3.224-.312,1.746-.088,3.493-.036,5.239-.038Q74.6,151.1,87.564,151.1c.329,0,.355.113.271.372a5.014,5.014,0,0,0-.444,2c.058.626.111,1.256.2,1.882a6.792,6.792,0,0,1,.1,1.27,12.879,12.879,0,0,0,.191,1.744c.026.317.047.647.085.966a10.66,10.66,0,0,1,.106,1.314,3.554,3.554,0,0,0,.793,2.3q1.811,2.288,3.6,4.595c.6.776,1.253,1.513,1.786,2.339.035.206-.239.276-.222.45.079.78.008,1.559.016,2.336.006.628.016,1.262.032,1.893a.875.875,0,0,0,.174.557m-32.808-4.5v0q3.878,0,7.755,0a4.6,4.6,0,0,0,.721-.031,1.06,1.06,0,0,0,1.018-1.141,1.036,1.036,0,0,0-1.011-1.105,6.483,6.483,0,0,0-.759-.033q-7.66,0-15.32,0a4.183,4.183,0,0,0-.718.051,1.083,1.083,0,0,0-.807,1.592,1.019,1.019,0,0,0,.951.626c.342,0,.683.037,1.025.037q3.573.005,7.147,0m.16,2.32H53.689a2.577,2.577,0,0,0-.642.059,1.091,1.091,0,0,0-.635,1.733,1.416,1.416,0,0,0,1.286.474H69.327a3.5,3.5,0,0,0,.7-.062,1.074,1.074,0,0,0,.918-1.048,1.134,1.134,0,0,0-.837-1.088,3.58,3.58,0,0,0-.869-.066H61.6" transform="translate(-33.055 -104.971)" fill="#dff2fc"/>
        <path id="Path_827016" data-name="Path 827016" d="M18.995,103.019q-.005,7.968-.011,15.935a3.02,3.02,0,0,0,3.353,3.155,3.583,3.583,0,0,0,2.978-2.228,1.308,1.308,0,0,0,.121-.615c-.043-.961.087-1.915.094-2.875.011-1.4.046-2.8.163-4.192a2.583,2.583,0,0,1,1.022-1.744.509.509,0,0,1,.863.4c.137,1,.3,1.987.437,2.982.118.855.169,1.722.337,2.567a18.178,18.178,0,0,0,.589,2.77,3.011,3.011,0,0,1,.053,1.393c-.082.695-.136,1.391-.2,2.086s-.164,1.414-.227,2.123c-.065.736-.126,1.474-.146,2.212a1.7,1.7,0,0,1-.38,1.083c-.729.891-1.432,1.8-2.14,2.71-.775.993-1.591,1.955-2.316,2.988-.376.536-.864.992-1.253,1.519-.786,1.063-1.728,2.044-1.841,3.477-.035.44-.229.865-.291,1.3-.044.314-.21.346-.438.293-.592-.137-1.18-.295-1.771-.439-.841-.206-1.684-.4-2.525-.611-.744-.183-1.485-.382-2.23-.558-.234-.055-.3-.164-.257-.392.2-1.006.414-2.01.579-3.021a6.741,6.741,0,0,0-.218-2.278q-.335-1.88-.679-3.758c-.162-.88-.345-1.757-.5-2.638-.171-.948-.321-1.9-.486-2.851-.121-.7-.215-1.406-.389-2.092a3.662,3.662,0,0,1,.191-1.949c.536-1.911,1.087-3.818,1.624-5.729.274-.976.525-1.959.8-2.936a10.393,10.393,0,0,1,1.053-2.076c1.006-1.867,2.043-3.717,3.063-5.577a1.369,1.369,0,0,1,.956-.727l.029.293" transform="translate(-7.789 -71.367)" fill="#ffc8bc"/>
        <path id="Path_827017" data-name="Path 827017" d="M91.384,14.316l-1.345-.064c-.149-.806-.582-1.14-1.482-1.14h-44.2c-.555,0-.608-.073-.491-.619a1.977,1.977,0,0,0,.036-.412c0-1.394.014-2.789-.005-4.183,0-.339.092-.422.426-.422q25.064.014,50.128,0c.326,0,.437.078.433.423-.019,1.623-.015,3.245,0,4.868,0,.264-.07.353-.339.343a4.284,4.284,0,0,0-.947.035,1.317,1.317,0,0,0-1.024,1.091l-.279.073-.31-.024a.932.932,0,0,0-.6.026" transform="translate(-30.443 -5.194)" fill="#e53266"/>
        <path id="Path_827018" data-name="Path 827018" d="M89.848,135.568h15.934c.677,0,.7,0,.576.639-.1.5-.1,1.017-.214,1.52-.046.208-.1.285-.3.278-.3-.009-.608,0-.912,0q-15.515,0-31.03.011c-.239,0-.359-.074-.39-.283-.088-.587-.161-1.176-.24-1.764-.039-.291.042-.413.38-.407,1.267.023,2.535.009,3.8.009h12.4" transform="translate(-50.895 -94.176)" fill="#dff2fc"/>
        <path id="Path_827019" data-name="Path 827019" d="M209.973,233.6c-2.079,0-4.158-.009-6.236.009-.346,0-.427-.1-.418-.426.023-.887.016-1.774.011-2.662,0-.194.048-.293.253-.343q4.127-1,8.25-2.02c1.006-.247,2.015-.483,3.016-.748.246-.065.326-.025.385.22q.682,2.818,1.389,5.629c.073.29-.034.339-.3.339-2.117-.009-4.233,0-6.35,0Zm4.3-2.426a1.128,1.128,0,1,0-1.086,1.123,1.224,1.224,0,0,0,1.086-1.123" transform="translate(-141.251 -157.97)" fill="#59646f"/>
        <path id="Path_827020" data-name="Path 827020" d="M14.779,233.621c-2.117,0-4.234-.005-6.351.006-.288,0-.344-.073-.273-.345q.73-2.808,1.436-5.623c.054-.213.112-.294.358-.232,2.621.666,5.245,1.32,7.877,1.942,1.155.273,2.289.635,3.463.83.153.025.183.1.183.23,0,.989,0,1.978.006,2.966,0,.279-.2.209-.348.209q-2.453.008-4.906.009H14.779v.008m-1.988-2.435a1.2,1.2,0,0,0-1.121-1.133,1.216,1.216,0,0,0-1.115,1.14A1.2,1.2,0,0,0,11.66,232.3a1.171,1.171,0,0,0,1.131-1.115" transform="translate(-5.646 -157.986)" fill="#59646f"/>
        <path id="Path_827021" data-name="Path 827021" d="M199.63,29.712a.929.929,0,0,1,.6-.026c.038.116-.073.317.146.33s.139-.187.164-.306l.279-.073a1.33,1.33,0,0,0,1.525,1.176c.048.2-.082.2-.219.207a1.941,1.941,0,0,1-.587-.136c-.208-.051-.394,0-.449.229s.095.286.288.29c.23,0,.243.2.271.352.024.125-.065.182-.194.129-.011,0-.02-.018-.031-.022-.2-.076-.382-.37-.574-.223-.133.1-.143.406-.15.621-.018.53-.091,1.054-.09,1.587q.015,10.684.006,21.369c0,.292.095.652-.409.618a.14.14,0,0,0-.1.089c-.033.394-.376.76-.1,1.184.038.059.135.166-.011.213-.113.036-.155-.078-.177-.157a2.546,2.546,0,0,1-.106-.671q.006-13.156,0-26.311c0-.157.063-.333-.081-.468m.874.927c.146,0,.305.01.327-.177.016-.139-.088-.209-.216-.194a.385.385,0,0,0-.325.268c-.035.149.139.078.215.1" transform="translate(-138.689 -20.59)" fill="#ffc8bc"/>
        <path id="Path_827022" data-name="Path 827022" d="M209.65,71.593a3.119,3.119,0,0,0,.06-1.254c.175-11.9.026-23.8.082-35.694a6.074,6.074,0,0,0,.015-1.195c.241-.083.282.046.281.249,0,.608.009,1.217.009,1.825q.005,17.657.011,35.315c0,.357-.052.657-.459.754" transform="translate(-145.65 -23.222)" fill="#ffc8bc"/>
        <path id="Path_827023" data-name="Path 827023" d="M199.939,217.839a.875.875,0,0,1-.174-.557c-.015-.631-.025-1.265-.032-1.892-.008-.777.063-1.556-.016-2.336-.018-.174.257-.244.222-.45.462.582.925,1.162,1.384,1.746a2.6,2.6,0,0,1,.321.952c.166.564.279,1.144.444,1.709.062.213,0,.321-.182.365-.653.162-1.311.31-1.966.463" transform="translate(-138.749 -147.702)" fill="#ffc8bc"/>
        <path id="Path_827024" data-name="Path 827024" d="M203.957,132.289c.263-.114.4-.063.355.257-.061.475.094.941.078,1.416-.008.255-.1.375-.361.339q-.036-1.006-.072-2.013" transform="translate(-141.695 -91.867)" fill="#ffc8bc"/>
        <path id="Path_827025" data-name="Path 827025" d="M204.442,142.593c.146-.035.313-.042.336.136a.439.439,0,0,1-.334.506q0-.321,0-.642" transform="translate(-142.032 -99.05)" fill="#ffc8bc"/>
        <path id="Path_827026" data-name="Path 827026" d="M202.432,127.934a.241.241,0,0,1,.281.182,2.415,2.415,0,0,0,.209.625c.057.1-.031.154-.139.148l-.351-.954" transform="translate(-140.636 -88.879)" fill="#ffc8bc"/>
        <path id="Path_827027" data-name="Path 827027" d="M206.883,158.017c.019-.112.067-.211.2-.151s.085.161.011.247a.281.281,0,0,1-.207-.1" transform="translate(-143.728 -109.662)" fill="#ffc8bc"/>
        <path id="Path_827028" data-name="Path 827028" d="M205.578,157.3c.128.011.35-.081.226.206a.325.325,0,0,1-.226-.206" transform="translate(-142.821 -109.275)" fill="#ffc8bc"/>
        <path id="Path_827029" data-name="Path 827029" d="M199.461,123.651c.09,0,.2-.042.255.064.035.063,0,.111-.062.14a.391.391,0,0,1-.192-.2" transform="translate(-138.572 -85.9)" fill="#ffc8bc"/>
        <path id="Path_827030" data-name="Path 827030" d="M201.722,126.681c.276-.032.19.147.168.288l-.168-.288" transform="translate(-140.142 -88.006)" fill="#ffc8bc"/>
        <path id="Path_827031" data-name="Path 827031" d="M36.64,103.019l-.029-.293c.158.083.075.19.029.293" transform="translate(-25.435 -71.367)" fill="#59646f"/>
        <path id="Path_827032" data-name="Path 827032" d="M43.786,153.575l.018.026-.019.026c-.032,0-.067.011-.059-.039,0-.007.038-.009.059-.013" transform="translate(-30.378 -106.693)" fill="#59646f"/>
        <path id="Path_827033" data-name="Path 827033" d="M43.915,53.546a.063.063,0,0,1,.015.1.067.067,0,0,1-.015-.1" transform="translate(-30.496 -37.2)" fill="#59646f"/>
        <path id="Path_827034" data-name="Path 827034" d="M82.41,99.5q-9.317,0-18.633,0a1.307,1.307,0,0,1-1.224-1.035A1.193,1.193,0,0,1,63.4,97.3a3.526,3.526,0,0,1,.669-.08q18.367.007,36.733.011c.886,0,1.055.123,1.309.785.312.814-.254,1.327-.958,1.472a2.481,2.481,0,0,1-.493.01H82.41Z" transform="translate(-43.453 -67.545)"/>
        <path id="Path_827035" data-name="Path 827035" d="M82.148,114.941H63.822a1.228,1.228,0,0,1-1.262-1.024,1.2,1.2,0,0,1,1.154-1.247,3.034,3.034,0,0,1,.342-.008q18.269,0,36.539.007a1.709,1.709,0,0,1,1.282.368,1.323,1.323,0,0,1,.293,1.16,1.215,1.215,0,0,1-.915.672c-3.06.172-6.122.05-9.183.072-3.308.023-6.616.005-9.924.005Z" transform="translate(-43.461 -78.269)"/>
        <path id="Path_827036" data-name="Path 827036" d="M88.708,55.578q0,2.206,0,4.412a1.162,1.162,0,0,1-1.233,1.262q-4.526.011-9.052.008a1.185,1.185,0,0,1-1.083-1.028,10.491,10.491,0,0,1-.025-1.215q-.006-3.67,0-7.341a6.847,6.847,0,0,1,.034-.834.95.95,0,0,1,1.09-.978c3.017-.027,6.035-.02,9.052-.009a1.172,1.172,0,0,1,1.22,1.272q0,2.225,0,4.45M86.467,58.89l.025-.007-.016-.042,0-.183.017-.021-.016-.021q-.014-3.2-.028-6.407l.021-.017-.038-.021a.95.95,0,0,0-.183-.036c-2.127,0-4.254.005-6.38-.009-.3,0-.281.147-.281.348,0,2.051.008,4.1,0,6.153,0,.278.058.357.348.355,2.064-.014,4.127-.007,6.191-.009.12,0,.257.048.35-.082" transform="translate(-53.709 -34.629)"/>
        <path id="Path_827037" data-name="Path 827037" d="M205.714,133.748c-.005-.415.116-.822.079-1.241a1,1,0,0,0-.09-.476c-.149-.235.049-.409.121-.6.039-.1.154-.063.189.047a1.288,1.288,0,0,1,.144.54c-.106.586,0,1.173-.065,1.755a2.608,2.608,0,0,1-.068.293c-.024.1.034.261-.151.242-.143-.015-.156-.143-.158-.261,0-.1,0-.2,0-.3" transform="translate(-142.871 -91.271)" fill="#ffc8bc"/>
        <path id="Path_827038" data-name="Path 827038" d="M207,147.432c.09.1.056.208.06.3a3.967,3.967,0,0,0,.122,1.115,3.072,3.072,0,0,1,.021,1c0,.117-.095.141-.192.09a.272.272,0,0,1-.17-.234,12.513,12.513,0,0,1,.053-2.071c.013-.067-.006-.156.106-.2" transform="translate(-143.69 -102.425)" fill="#ffc8bc"/>
        <path id="Path_827039" data-name="Path 827039" d="M205.315,129.037c-.1-.038-.192-.085-.18-.213.006-.068.038-.132.119-.095a.24.24,0,0,1,.164.232c0,.065-.051.078-.1.076" transform="translate(-142.512 -89.424)" fill="#ffc8bc"/>
        <path id="Path_827040" data-name="Path 827040" d="M200.247,122.73c-.065-.012-.072-.059-.066-.111a.13.13,0,0,1,.112-.129c.084-.006.1.061.081.127a.131.131,0,0,1-.127.113" transform="translate(-139.071 -85.098)" fill="#ffc8bc"/>
        <path id="Path_827041" data-name="Path 827041" d="M202.325,123.511c-.009.021-.013.053-.028.059s-.04-.014-.061-.023c.009-.02.013-.053.028-.059s.04.014.061.023" transform="translate(-140.499 -85.79)" fill="#ffc8bc"/>
        <path id="Path_827042" data-name="Path 827042" d="M71.915,209.74q-3.573,0-7.147,0c-.342,0-.683-.038-1.025-.037a1.019,1.019,0,0,1-.951-.626,1.084,1.084,0,0,1,.807-1.592,4.244,4.244,0,0,1,.718-.051q7.66,0,15.32,0a6.613,6.613,0,0,1,.759.033,1.036,1.036,0,0,1,1.011,1.105,1.06,1.06,0,0,1-1.018,1.141,4.638,4.638,0,0,1-.72.031q-3.878,0-7.755,0Z" transform="translate(-43.533 -144.108)"/>
        <path id="Path_827043" data-name="Path 827043" d="M72.079,222.6h7.643a3.58,3.58,0,0,1,.869.066,1.134,1.134,0,0,1,.837,1.088,1.074,1.074,0,0,1-.918,1.048,3.454,3.454,0,0,1-.7.062H64.179a1.417,1.417,0,0,1-1.286-.473,1.092,1.092,0,0,1,.635-1.733,2.607,2.607,0,0,1,.642-.059h7.909" transform="translate(-43.536 -154.644)"/>
        <path id="Path_827044" data-name="Path 827044" d="M201.918,29.822c-.025.12.065.32-.164.306s-.107-.214-.146-.33l.31.024" transform="translate(-140.063 -20.702)" fill="#dff2fc"/>
        <path id="Path_827045" data-name="Path 827045" d="M234.069,237.188a1.128,1.128,0,1,1-1.149-1.149,1.224,1.224,0,0,1,1.149,1.149" transform="translate(-161.048 -163.983)"/>
        <path id="Path_827046" data-name="Path 827046" d="M18.316,237.209a1.171,1.171,0,0,1-1.131,1.115,1.2,1.2,0,0,1-1.105-1.108,1.216,1.216,0,0,1,1.115-1.14,1.2,1.2,0,0,1,1.121,1.133" transform="translate(-11.171 -164.009)"/>
        <path id="Path_827047" data-name="Path 827047" d="M201.994,32.067c-.075-.026-.249.045-.215-.1a.385.385,0,0,1,.325-.268c.128-.015.232.056.216.194-.022.188-.181.174-.327.177" transform="translate(-140.179 -22.018)" fill="#dff2fc"/>
        <path id="Path_827048" data-name="Path 827048" d="M91.61,57.4l.028,6.407-.029,0,.028.038c0,.061,0,.122,0,.183l-.027.006.018.043c-.092.13-.229.082-.35.082-2.064,0-4.127-.005-6.191.009-.29,0-.35-.076-.348-.355.013-2.051.008-4.1.005-6.153,0-.2-.02-.35.281-.348,2.127.014,4.254.007,6.381.009a.962.962,0,0,1,.183.036l-.012.029Z" transform="translate(-58.873 -39.817)" fill="#ffc8bc"/>
        <path id="Path_827049" data-name="Path 827049" d="M107.269,79.36l-.018-.044.027-.006.016.043-.025.007" transform="translate(-74.511 -55.099)" fill="#59646f"/>
        <path id="Path_827050" data-name="Path 827050" d="M107.265,78.615l-.028-.038.028,0,.017.021Z" transform="translate(-74.501 -54.587)" fill="#59646f"/>
        <path id="Path_827051" data-name="Path 827051" d="M107.171,57.5l-.029-.009.012-.029.038.021-.021.017" transform="translate(-74.435 -39.918)" fill="#59646f"/>
      </g>
    </g>
  </g>
</svg>
