<svg xmlns="http://www.w3.org/2000/svg" xmlns:xlink="http://www.w3.org/1999/xlink" width="120" height="120" viewBox="0 0 120 120">
  <defs>
    <clipPath id="clip-path">
      <rect id="Rectangle_379977" data-name="Rectangle 379977" width="77" height="75.37" fill="none"/>
    </clipPath>
  </defs>
  <g id="Group_1076192" data-name="Group 1076192" transform="translate(-180 -24147.473)">
    <circle id="Ellipse_5981" data-name="Ellipse 5981" cx="60" cy="60" r="60" transform="translate(180 24147.473)" fill="#ffae7e"/>
    <g id="Group_1076197" data-name="Group 1076197" transform="translate(201.5 24169.787)">
      <g id="Group_1076196" data-name="Group 1076196" clip-path="url(#clip-path)">
        <path id="Path_826964" data-name="Path 826964" d="M19.02,33.509c-.036-.339-.287-.176-.46-.2-.011-.031-.018-.084-.035-.087-.068-.014-.077.034-.069.088-.776-.018-1.551-.039-2.327-.052a4.073,4.073,0,0,1-1.534-.35,5.855,5.855,0,0,1-2.267-1.585,6.516,6.516,0,0,1-1.349-2.848,6.088,6.088,0,0,1-.079-1.335q0-10.967.008-21.934a4.694,4.694,0,0,1,.522-1.849A5.275,5.275,0,0,1,12.473,1.8,5,5,0,0,1,15.905.123C23-.112,30.1.07,37.2.024,40.756,0,44.314.017,47.872.021A7.138,7.138,0,0,1,50.888.5a5.8,5.8,0,0,1,3.025,3.1,5.681,5.681,0,0,1,.452,1.982c.009.23.092.28.3.278.634-.006,1.268,0,1.9,0q10.867,0,21.734,0a6.505,6.505,0,0,1,2.89.512,5.184,5.184,0,0,1,2.956,3.241,8.31,8.31,0,0,1,.338,2.4c.019,6.574.034,13.148,0,19.721a5.5,5.5,0,0,1-3.1,5.224,5.081,5.081,0,0,1-2.323.562c-5.563.017-11.126.013-16.689.016-.155,0-.311.007-.466,0-.234-.016-.311.077-.311.317,0,1.85-.011,3.7-.018,5.551,0,.065,0,.129,0,.194a1.383,1.383,0,0,1-.778,1.506c-.68.307-1.109-.093-1.535-.523q-3.344-3.38-6.687-6.761a.884.884,0,0,0-.713-.3c-.711.02-1.425.05-2.134.007a5.476,5.476,0,0,1-4.574-2.742,3.672,3.672,0,0,1-.53-1.214c-.05-.265-.192-.311-.431-.31q-4.869.021-9.739.027c-1.448,0-2.9.051-4.343-.045a1.735,1.735,0,0,0-1.416.641c-.337.33-.676.669-.988,1.028-.475.547-1.044,1.013-1.5,1.565-1.075,1.3-2.322,2.423-3.478,3.637q-.78.819-1.563,1.636a1.163,1.163,0,0,1-1.294.389,1.25,1.25,0,0,1-.832-1.236c.009-2.381,0-4.762-.007-7.143,0-.064-.007-.129-.01-.193a.045.045,0,0,0,0-.065m32.8-16.935c0-3.52.008-7.039,0-10.559a3.241,3.241,0,0,0-1.293-2.89,3.939,3.939,0,0,0-2.344-.61q-15.621,0-31.242,0a4.723,4.723,0,0,0-1.4.221A3.169,3.169,0,0,0,13.4,5.709c-.057.967,0,1.94,0,2.91q0,9.278,0,18.556a4.807,4.807,0,0,0,.074,1.2,2.989,2.989,0,0,0,.632,1.289,3.535,3.535,0,0,0,1.127.849,3.48,3.48,0,0,0,1.481.259c1.1,0,2.2-.026,3.3.025.889.041,1.471.461,1.48,1.35.018,1.8.1,3.6.012,5.393,0,.071-.056.162.045.2s.167-.018.236-.087c.247-.244.512-.471.749-.723,1.738-1.843,3.478-3.684,5.2-5.542a1.853,1.853,0,0,1,1.476-.62c1.953.016,3.907.006,5.86.007q6.656,0,13.311,0a3.539,3.539,0,0,0,2.031-.526A3.241,3.241,0,0,0,51.872,27.4c.007-.918-.044-1.837-.046-2.755-.007-2.691,0-5.383,0-8.074m7.214,24.137c.01-.228.038-.59.04-.951.008-1.125-.039-2.251.026-3.376a1.26,1.26,0,0,1,.965-1.252,10.143,10.143,0,0,1,1.228-.079q8.926,0,17.852-.008a1.3,1.3,0,0,0,.3-.027A3.063,3.063,0,0,0,82,31.724c-.023-6.867.1-13.735-.064-20.6A2.662,2.662,0,0,0,81.2,9.367a3.388,3.388,0,0,0-2.725-1.022q-11.875.006-23.752,0c-.3,0-.364.084-.361.368.014,1.5.024,3-.006,4.5-.007.351.077.414.4.413q10.265-.01,20.53,0c.233,0,.467-.007.7.013.468.041,1.1.523,1.145.884A1.273,1.273,0,0,1,75.781,16.1q-10.518.017-21.035.006c-.315,0-.385.084-.38.385.017,1.229.02,2.459,0,3.688,0,.249.037.289.271.289q9.294-.006,18.589,0c.867,0,1.734-.012,2.6.008A1.38,1.38,0,0,1,77.2,21.543a1.332,1.332,0,0,1-1.235,1.4c-.484.044-.961.017-1.443.014-3.765-.022-7.529-.012-11.294-.011-2.82,0-5.64.009-8.461,0-.334,0-.408.1-.4.411.023.672.024,1.346,0,2.018a7.734,7.734,0,0,1-.061,1.69c-.048.191.147.275.3.268,1.445-.069,2.891-.019,4.336-.021q8.305-.009,16.61.005a1.752,1.752,0,0,1,1.1.261,1.109,1.109,0,0,1,.19,1.765,1.57,1.57,0,0,1-1.26.441q-9.528,0-19.056,0c-.789,0-1.578,0-2.367-.005-.217,0-.365.029-.437.306a2.8,2.8,0,0,1-.431.8,5.7,5.7,0,0,1-3.344,2.239,9.124,9.124,0,0,1-2.761.224.741.741,0,0,0,.048.165,3.072,3.072,0,0,0,2.588,1.533c.878.042,1.759.014,2.639.017a1.841,1.841,0,0,1,1.371.571c1.733,1.723,3.5,3.416,5.208,5.08" transform="translate(-7.503 0)" fill="#242222"/>
        <path id="Path_826965" data-name="Path 826965" d="M155.852,171.292H140.909a2.956,2.956,0,0,1-.694-.053,1.3,1.3,0,0,1-.973-1.587c.15-.77.264-1.546.481-2.3A17.405,17.405,0,0,1,141.577,163a15.935,15.935,0,0,1,2.881-3.572,14.01,14.01,0,0,1,5.109-3.194c.238-.075.473-.16.715-.222.1-.026.22-.023.246-.14s-.1-.171-.17-.239c-.323-.306-.66-.6-.975-.911a9.109,9.109,0,0,1-2.051-3.234,7.868,7.868,0,0,1-.572-3.7,9.469,9.469,0,0,1,2.489-5.542,8.806,8.806,0,0,1,5.205-2.764,8.642,8.642,0,0,1,3.679.215,8.751,8.751,0,0,1,6.012,5.247,8.18,8.18,0,0,1,.68,4.479,9.28,9.28,0,0,1-2.008,4.688,9.6,9.6,0,0,1-1.536,1.508c-.067.051-.19.062-.178.178s.142.143.232.174a15.415,15.415,0,0,1,1.895.779,16.575,16.575,0,0,1,7.123,6.745,18.4,18.4,0,0,1,1.838,4.957,10.9,10.9,0,0,1,.236,1.459,1.185,1.185,0,0,1-1.166,1.384,6.3,6.3,0,0,1-.775.019H155.852v-.017m-.04-2.479v.014q6.809,0,13.617.007c.256,0,.329-.09.286-.31-.052-.265-.11-.531-.186-.79A14.013,14.013,0,0,0,156.8,157.551a14.522,14.522,0,0,0-5.023.558,14.006,14.006,0,0,0-9.708,10.1c-.149.6-.151.608.472.608h13.268m6.529-20.387a6.548,6.548,0,0,0-13.1-.04,6.548,6.548,0,1,0,13.1.04" transform="translate(-95.833 -95.942)" fill="#242222"/>
        <path id="Path_826966" data-name="Path 826966" d="M16.57,171.338H1.786a3.345,3.345,0,0,1-.848-.064,1.311,1.311,0,0,1-.917-1.516c.132-.773.274-1.539.474-2.3a17.2,17.2,0,0,1,2.194-4.894,15.828,15.828,0,0,1,6.807-5.915,8.481,8.481,0,0,1,1.661-.608c.077-.018.148-.019.161-.126s-.045-.158-.119-.219c-.249-.206-.49-.421-.732-.636a9.11,9.11,0,0,1-2.456-3.8A9.464,9.464,0,0,1,7.573,149a7.857,7.857,0,0,1,.493-3.453,9.146,9.146,0,0,1,4.119-5,8.289,8.289,0,0,1,3.3-1.045,8.926,8.926,0,0,1,6.7,1.846,8.814,8.814,0,0,1,2.742,3.7,8.244,8.244,0,0,1,.734,3.453,8.988,8.988,0,0,1-3.659,7.181c-.318.238-.017.257.091.3a21.122,21.122,0,0,1,1.962.816,16.641,16.641,0,0,1,8.316,9.492,16.4,16.4,0,0,1,.825,3.591,1.229,1.229,0,0,1-1.344,1.459c-.595.015-1.19.013-1.785.013H16.57v-.017m.065-2.473v0H30.14c.45,0,.453,0,.343-.451a14.026,14.026,0,0,0-13.071-10.831,14.255,14.255,0,0,0-5.093.647,13.94,13.94,0,0,0-9.537,10.18c-.124.443-.108.451.346.451H16.634m-.08-26.95a6.556,6.556,0,0,0-.309,13.1,6.555,6.555,0,1,0,.309-13.1" transform="translate(0 -95.988)" fill="#242222"/>
        <path id="Path_826967" data-name="Path 826967" d="M35.145,106.708c-.008-.054,0-.1.069-.089.017,0,.024.057.035.088-.034.045-.069.044-.1,0" transform="translate(-24.192 -73.394)" fill="#89c8fe"/>
        <path id="Path_826968" data-name="Path 826968" d="M36.908,107.536a.045.045,0,0,1,0,.065.37.37,0,0,1-.026-.047s.015-.012.023-.018" transform="translate(-25.391 -74.027)" fill="#f6dbcc"/>
        <path id="Path_826969" data-name="Path 826969" d="M57.283,22.13c0,2.691,0,5.383,0,8.074,0,.918.053,1.837.046,2.755a3.242,3.242,0,0,1-1.468,2.854,3.54,3.54,0,0,1-2.031.526q-6.655-.008-13.311,0c-1.953,0-3.907.009-5.86-.007a1.853,1.853,0,0,0-1.476.62c-1.722,1.857-3.462,3.7-5.2,5.542-.238.252-.5.479-.749.723-.07.069-.14.125-.237.087s-.048-.13-.045-.2c.084-1.8.006-3.595-.012-5.393-.009-.89-.591-1.309-1.48-1.35-1.1-.051-2.2-.026-3.3-.025a3.481,3.481,0,0,1-1.481-.259,3.535,3.535,0,0,1-1.127-.849,2.993,2.993,0,0,1-.632-1.289,4.822,4.822,0,0,1-.074-1.2q0-9.278,0-18.556c0-.97-.055-1.943,0-2.91A3.169,3.169,0,0,1,21,8.294a4.723,4.723,0,0,1,1.4-.221q15.621,0,31.242,0a3.938,3.938,0,0,1,2.344.61,3.241,3.241,0,0,1,1.293,2.89c.013,3.52,0,7.039,0,10.559M44.346,18.35c-.66,0-1.319,0-1.979,0-.165,0-.305.025-.288-.23a24.739,24.739,0,0,0-.01-3.515A5.448,5.448,0,0,0,37.089,9.63c-1.092-.1-1.621.4-1.637,1.487-.016,1.074-.038,2.148-.06,3.221a3.506,3.506,0,0,1-.737,2.074A12.225,12.225,0,0,1,32,18.659a1.4,1.4,0,0,1-.934.277c-1.189-.038-2.38-.049-3.569,0a1.266,1.266,0,0,0-1.2.981,2.676,2.676,0,0,0-.063.876c.008,3.648-.058,7.3.035,10.944A1.259,1.259,0,0,0,27.523,33c1.061.008,2.122,0,3.182,0,.181,0,.4.061.535-.017.184-.1.244-.018.355.078a7,7,0,0,0,3.832,1.708A15.84,15.84,0,0,0,40,34.507a15.3,15.3,0,0,1,1.829-.252c.826-.043,1.656-.033,2.483,0a3.231,3.231,0,0,0,2.593-.934,2.575,2.575,0,0,0,.757-2.469.8.8,0,0,1,.229-.868,2.615,2.615,0,0,0,.784-2.287.921.921,0,0,1,.318-.989,2.04,2.04,0,0,0,.689-.964,2.785,2.785,0,0,0-.437-2.946c-.116-.145-.371-.25-.24-.512a2.939,2.939,0,0,0,.13-.558,2.849,2.849,0,0,0-2.385-3.32,19.311,19.311,0,0,0-2.4-.054" transform="translate(-12.963 -5.555)" fill="#6bf5c1"/>
        <path id="Path_826970" data-name="Path 826970" d="M139.2,59.148c-1.712-1.665-3.474-3.358-5.208-5.08a1.841,1.841,0,0,0-1.371-.571c-.88,0-1.761.026-2.639-.017a3.072,3.072,0,0,1-2.588-1.533.741.741,0,0,1-.048-.165,9.123,9.123,0,0,0,2.761-.224,5.7,5.7,0,0,0,3.344-2.239,2.8,2.8,0,0,0,.431-.8c.073-.277.221-.306.438-.306.789,0,1.578.005,2.367.005q9.528,0,19.056,0a1.57,1.57,0,0,0,1.26-.441,1.109,1.109,0,0,0-.19-1.765,1.752,1.752,0,0,0-1.1-.261q-8.305-.006-16.61-.005c-1.445,0-2.891-.048-4.336.021-.15.007-.344-.078-.3-.268a7.734,7.734,0,0,0,.061-1.69c.021-.672.021-1.346,0-2.018-.011-.313.063-.413.4-.411,2.82.014,5.64.005,8.461,0,3.765,0,7.529-.011,11.294.011.482,0,.958.03,1.443-.014a1.332,1.332,0,0,0,1.235-1.4,1.38,1.38,0,0,0-1.374-1.065c-.866-.021-1.733-.008-2.6-.008q-9.295,0-18.589,0c-.234,0-.275-.04-.271-.289.024-1.229.021-2.459,0-3.688,0-.3.065-.385.38-.385q10.518.011,21.035-.006a1.273,1.273,0,0,0,1.354-1.573c-.04-.361-.677-.843-1.145-.884-.232-.02-.466-.013-.7-.013q-10.265,0-20.53,0c-.325,0-.409-.062-.4-.413.03-1.5.02-3,.006-4.5,0-.284.06-.368.361-.368q11.876.011,23.752,0a3.388,3.388,0,0,1,2.725,1.022,2.662,2.662,0,0,1,.731,1.755c.16,6.867.041,13.734.064,20.6a3.063,3.063,0,0,1-2.549,3.294,1.3,1.3,0,0,1-.3.027q-8.926.007-17.852.008a10.143,10.143,0,0,0-1.228.079,1.26,1.26,0,0,0-.965,1.252c-.065,1.125-.018,2.251-.026,3.376,0,.362-.03.723-.04.951" transform="translate(-87.662 -18.437)" fill="#ffe176"/>
        <path id="Path_826971" data-name="Path 826971" d="M161.946,208.916q-6.634,0-13.268,0c-.624,0-.621,0-.472-.608a14.006,14.006,0,0,1,9.708-10.095,14.508,14.508,0,0,1,5.023-.558,14.013,14.013,0,0,1,12.727,10.183c.076.259.134.525.186.79.043.22-.029.31-.286.31q-6.809-.014-13.617-.007Z" transform="translate(-101.967 -136.045)" fill="#89c8fe"/>
        <path id="Path_826972" data-name="Path 826972" d="M184.5,153.969a6.548,6.548,0,1,1-13.1-.04,6.548,6.548,0,0,1,13.1.04" transform="translate(-117.996 -101.485)" fill="#f6dbcc"/>
        <path id="Path_826973" data-name="Path 826973" d="M22.636,208.924H9.13c-.454,0-.47-.007-.346-.451a13.941,13.941,0,0,1,9.537-10.18,14.24,14.24,0,0,1,5.093-.647,14.026,14.026,0,0,1,13.071,10.831c.109.451.107.451-.343.451H22.636Z" transform="translate(-6.002 -136.047)" fill="#89c8fe"/>
        <path id="Path_826974" data-name="Path 826974" d="M38.788,147.388a6.555,6.555,0,1,1-.309,13.1,6.556,6.556,0,0,1,.309-13.1" transform="translate(-22.233 -101.461)" fill="#f6dbcc"/>
        <path id="Path_826975" data-name="Path 826975" d="M60.672,21.766a19.253,19.253,0,0,1,2.4.054,2.85,2.85,0,0,1,2.385,3.32,2.987,2.987,0,0,1-.13.558c-.132.261.124.367.24.512a2.786,2.786,0,0,1,.437,2.946,2.04,2.04,0,0,1-.689.964A.921.921,0,0,0,65,31.11a2.615,2.615,0,0,1-.784,2.287.8.8,0,0,0-.229.868,2.576,2.576,0,0,1-.757,2.469,3.23,3.23,0,0,1-2.593.933c-.827-.028-1.657-.038-2.483,0a15.37,15.37,0,0,0-1.829.252,15.837,15.837,0,0,1-4.571.263,7.007,7.007,0,0,1-3.832-1.708c-.11-.1-.171-.181-.355-.078-.138.078-.354.017-.535.017-1.061,0-2.122.007-3.182,0A1.258,1.258,0,0,1,42.6,35.158c-.093-3.648-.026-7.3-.035-10.944a2.684,2.684,0,0,1,.062-.876,1.266,1.266,0,0,1,1.2-.981c1.189-.054,2.38-.043,3.569,0a1.4,1.4,0,0,0,.934-.277,12.225,12.225,0,0,0,2.653-2.247,3.51,3.51,0,0,0,.737-2.074c.022-1.073.044-2.147.06-3.221.016-1.092.545-1.59,1.637-1.487A5.448,5.448,0,0,1,58.4,18.023a24.694,24.694,0,0,1,.01,3.515c-.017.255.124.231.288.23.66,0,1.319,0,1.979,0M54.318,15.8l-.012-.026-.024.017a5.6,5.6,0,0,0-.036,1.5,6.289,6.289,0,0,1-2.24,5.014,18.433,18.433,0,0,1-2.154,1.709.609.609,0,0,0-.308.606c.022.53.016,1.06.016,1.591q0,3.938,0,7.877c0,.256-.03.528.215.71a4.691,4.691,0,0,0,1.868.846,5.5,5.5,0,0,0,1.856.1c.591-.08,1.2-.1,1.793-.165.282-.031.335-.122.261-.4a2.381,2.381,0,0,1,.319-1.73.617.617,0,0,0,.048-.676,2.8,2.8,0,0,1-.219-2.319.414.414,0,0,0-.145-.539c-.177-.129-.333-.281-.569-.028a1.748,1.748,0,0,1-.608.314A1.057,1.057,0,0,1,53.226,30a1.223,1.223,0,0,1,.084-1.984,13.9,13.9,0,0,0,1.334-1.029,2.2,2.2,0,0,0,.461-2.878c-.469-.837-.442-1.075.172-1.8a2.82,2.82,0,0,0,.7-1.974,15.945,15.945,0,0,0-.081-2.276A2.774,2.774,0,0,0,54.318,15.8M47.049,26.684h0c0-.491-.021-.983.007-1.473.019-.324-.105-.393-.4-.377a10.613,10.613,0,0,1-1.24,0c-.259-.016-.329.06-.323.315.016.711.015,1.423,0,2.134-.036,2.05.088,4.1-.067,6.15-.025.328.007.552.439.507a5.9,5.9,0,0,1,1.161,0c.357.034.427-.1.425-.429-.013-2.275-.007-4.55-.007-6.826m13.55.95V27.6c-.839,0-1.679-.006-2.518,0-.321,0-.678.013-.774.41-.062.256.278.457.768.458q2.441.006,4.882-.006a2.2,2.2,0,0,0,.535-.068.335.335,0,0,0,.243-.354A.306.306,0,0,0,63.5,27.7a1.729,1.729,0,0,0-.418-.061c-.826-.006-1.653,0-2.479,0m-.043-2.545v0c.646,0,1.291,0,1.937,0,.275,0,.534-.049.542-.4.007-.335-.247-.407-.5-.413-1.329-.036-2.659-.045-3.989,0-.272.009-.491.1-.477.426s.236.4.51.4h1.976m-.265,6.744c.569,0,1.138.006,1.707,0,.189,0,.391-.014.489-.233.158-.353-.029-.6-.533-.607-1.125-.018-2.25-.011-3.375,0-.252,0-.516.054-.51.394,0,.325.219.448.515.451.569,0,1.138,0,1.707,0m-.466,3.34c.425,0,.85-.006,1.275,0,.279,0,.436-.1.463-.394s-.162-.391-.4-.411a18.492,18.492,0,0,0-2.66-.007c-.237.014-.468.1-.433.41s.235.4.516.4c.412,0,.825,0,1.237,0" transform="translate(-29.288 -8.972)" fill="#242222"/>
        <path id="Path_826976" data-name="Path 826976" d="M69.775,21.881a2.775,2.775,0,0,1,1.578,2.269,15.949,15.949,0,0,1,.081,2.276,2.82,2.82,0,0,1-.7,1.974c-.614.722-.641.959-.172,1.8a2.2,2.2,0,0,1-.461,2.878A13.985,13.985,0,0,1,68.767,34.1a1.222,1.222,0,0,0-.084,1.984,1.057,1.057,0,0,0,1.151.194,1.743,1.743,0,0,0,.608-.314c.236-.253.392-.1.569.028a.414.414,0,0,1,.145.539,2.8,2.8,0,0,0,.219,2.319.617.617,0,0,1-.048.676,2.379,2.379,0,0,0-.318,1.73c.073.277.021.368-.262.4-.6.065-1.2.085-1.793.165a5.5,5.5,0,0,1-1.856-.1,4.7,4.7,0,0,1-1.868-.846c-.246-.182-.215-.453-.215-.71q0-3.938,0-7.877c0-.53.006-1.061-.016-1.59a.608.608,0,0,1,.308-.606,18.456,18.456,0,0,0,2.153-1.709,6.289,6.289,0,0,0,2.24-5.014,5.614,5.614,0,0,1,.036-1.5l.015.018Z" transform="translate(-44.745 -15.057)" fill="#f6dbcc"/>
        <path id="Path_826977" data-name="Path 826977" d="M52.523,52.746c0,2.275-.006,4.55.007,6.826,0,.329-.068.463-.425.429a5.9,5.9,0,0,0-1.161,0c-.432.045-.464-.179-.439-.507.155-2.048.031-4.1.067-6.15.012-.711.013-1.423,0-2.134-.006-.255.065-.331.323-.315a10.614,10.614,0,0,0,1.24,0c.293-.016.417.052.4.377-.029.49-.007.982-.007,1.473Z" transform="translate(-34.762 -35.035)" fill="#f6dbcc"/>
        <path id="Path_826978" data-name="Path 826978" d="M93.189,59.815c.826,0,1.653,0,2.479,0a1.732,1.732,0,0,1,.418.061.306.306,0,0,1,.238.349.335.335,0,0,1-.243.354,2.215,2.215,0,0,1-.535.068q-2.441.01-4.882.006c-.49,0-.83-.2-.768-.458.1-.4.453-.406.774-.41.839-.009,1.679,0,2.519,0v.031" transform="translate(-61.879 -41.153)" fill="#f6dbcc"/>
        <path id="Path_826979" data-name="Path 826979" d="M94.85,49.837H92.874c-.274,0-.5-.074-.51-.4s.2-.417.477-.426c1.329-.044,2.659-.035,3.988,0,.251.007.506.079.5.414-.008.354-.266.4-.542.4-.646,0-1.291,0-1.937,0v0" transform="translate(-63.583 -33.721)" fill="#f6dbcc"/>
        <path id="Path_826980" data-name="Path 826980" d="M94.583,71.474c-.569,0-1.138,0-1.707,0-.3,0-.51-.126-.515-.451-.005-.34.259-.392.51-.394,1.125-.009,2.25-.016,3.375,0,.5.008.691.254.533.607-.1.22-.3.23-.489.233-.569.01-1.138,0-1.707,0" transform="translate(-63.581 -48.614)" fill="#f6dbcc"/>
        <path id="Path_826981" data-name="Path 826981" d="M94.118,82.2c-.412,0-.825,0-1.237,0-.281,0-.483-.1-.516-.4s.2-.4.433-.41a18.492,18.492,0,0,1,2.66.007c.235.02.424.111.4.411s-.184.4-.463.394c-.425-.008-.85,0-1.275,0" transform="translate(-63.581 -55.995)" fill="#f6dbcc"/>
        <path id="Path_826982" data-name="Path 826982" d="M80.242,21.844l-.022.009-.015-.018.024-.017Z" transform="translate(-55.213 -15.019)" fill="#6bf5c1"/>
      </g>
    </g>
  </g>
</svg>
