<svg xmlns="http://www.w3.org/2000/svg" xmlns:xlink="http://www.w3.org/1999/xlink" width="120" height="120" viewBox="0 0 120 120">
  <defs>
    <clipPath id="clip-path">
      <rect id="Rectangle_379976" data-name="Rectangle 379976" width="69.333" height="76.161" fill="none"/>
    </clipPath>
  </defs>
  <g id="Group_1076193" data-name="Group 1076193" transform="translate(-180 -24316.207)">
    <circle id="Ellipse_5982" data-name="Ellipse 5982" cx="60" cy="60" r="60" transform="translate(180 24316.207)" fill="#ffae7e"/>
    <g id="Group_1076195" data-name="Group 1076195" transform="translate(205.334 24338.127)">
      <g id="Group_1076194" data-name="Group 1076194" clip-path="url(#clip-path)">
        <path id="Path_826959" data-name="Path 826959" d="M35.79,23.974A24.463,24.463,0,0,1,41.307,8.8a20.151,20.151,0,0,1,3.052-3.13A24.5,24.5,0,0,1,57.338.135,24.016,24.016,0,0,1,66.3.908a22.651,22.651,0,0,1,8.285,4.258,24.131,24.131,0,0,1,8.789,22.91,43.567,43.567,0,0,1-5.323,14.736,66.8,66.8,0,0,1-9.468,12.847,68.767,68.767,0,0,1-7.116,6.676A2.364,2.364,0,0,1,58.14,62.3a65.7,65.7,0,0,1-7.485-7.038,71.486,71.486,0,0,1-9.7-13.5A40.946,40.946,0,0,1,36.28,28.468c-.244-1.485-.331-3-.49-4.494m24,33.55c.145-.118.26-.209.372-.3A59.963,59.963,0,0,0,66.755,50.6a57.514,57.514,0,0,0,8.968-13.707,33.328,33.328,0,0,0,3.2-11.544,19.2,19.2,0,0,0-2.744-11.426,18.661,18.661,0,0,0-7.511-7,19.147,19.147,0,0,0-24.6,6.065,18.459,18.459,0,0,0-3.388,9.332,25.615,25.615,0,0,0,.524,7.01A41.041,41.041,0,0,0,46.33,41.739a62.183,62.183,0,0,0,8.347,10.92,63.719,63.719,0,0,0,5.114,4.865" transform="translate(-25.125 0)"/>
        <path id="Path_826960" data-name="Path 826960" d="M34.469,200.46c-2.519-.142-5.264-.25-8-.467-2.241-.178-4.489-.389-6.7-.759a48.313,48.313,0,0,1-13.006-3.7,16.293,16.293,0,0,1-4.729-3.219c-3.123-3.18-2.422-7.063.6-9.627A20.3,20.3,0,0,1,9.353,179c2.092-.707,4.232-1.278,6.37-1.834a2.344,2.344,0,0,1,1.329,4.495c-1.42.379-2.856.7-4.265,1.117a20.621,20.621,0,0,0-5.908,2.618,9.589,9.589,0,0,0-1.756,1.574,1.162,1.162,0,0,0,.005,1.738,7.179,7.179,0,0,0,2.165,1.782,25.8,25.8,0,0,0,7.474,2.884c1.975.446,3.953.913,5.953,1.216a90.293,90.293,0,0,0,18.8.891c2.419-.141,4.839-.336,7.245-.622a50.463,50.463,0,0,0,10.881-2.376A19.212,19.212,0,0,0,63.08,189.8a5.99,5.99,0,0,0,1.062-1.026,1.319,1.319,0,0,0-.113-2.068,12.212,12.212,0,0,0-1.961-1.571A20.144,20.144,0,0,0,57.151,183c-1.521-.47-3.065-.866-4.6-1.269a2.317,2.317,0,0,1-1.9-2.319,2.381,2.381,0,0,1,1.976-2.319,2.243,2.243,0,0,1,.879.032,47.944,47.944,0,0,1,8.415,2.6,17.7,17.7,0,0,1,5,3.135,6.927,6.927,0,0,1,2.376,4.408,5.77,5.77,0,0,1-1.468,4.489A14.952,14.952,0,0,1,62.3,195.68a46.191,46.191,0,0,1-10.411,3.129,79.611,79.611,0,0,1-9.112,1.235c-2.689.2-5.387.276-8.314.417" transform="translate(0 -124.3)"/>
        <path id="Path_826961" data-name="Path 826961" d="M71.165,68.663A63.875,63.875,0,0,1,66.051,63.8,62.177,62.177,0,0,1,57.7,52.878a41.028,41.028,0,0,1-5.128-12.417,25.6,25.6,0,0,1-.524-7.01,18.461,18.461,0,0,1,3.388-9.331,19.147,19.147,0,0,1,24.6-6.065,18.661,18.661,0,0,1,7.511,7,19.2,19.2,0,0,1,2.743,11.426,33.32,33.32,0,0,1-3.2,11.544A57.5,57.5,0,0,1,78.13,61.734a60.016,60.016,0,0,1-6.592,6.625c-.113.094-.227.186-.372.3M84.54,35.1A13.36,13.36,0,1,0,71.162,48.395,13.31,13.31,0,0,0,84.54,35.1" transform="translate(-36.5 -11.139)" fill="#6cf2be"/>
        <path id="Path_826962" data-name="Path 826962" d="M98.27,48.872A13.36,13.36,0,1,1,85.036,35.486,13.259,13.259,0,0,1,98.27,48.872M85.2,40.223a8.629,8.629,0,1,0,8.314,8.849A8.589,8.589,0,0,0,85.2,40.223" transform="translate(-50.229 -24.91)"/>
        <path id="Path_826963" data-name="Path 826963" d="M96.295,51.368a8.629,8.629,0,1,1-.821,17.238,8.629,8.629,0,0,1,.821-17.238" transform="translate(-61.327 -36.055)" fill="#fee9a6"/>
      </g>
    </g>
  </g>
</svg>
