<svg xmlns="http://www.w3.org/2000/svg" xmlns:xlink="http://www.w3.org/1999/xlink" width="142" height="142" viewBox="0 0 142 142">
  <defs>
    <clipPath id="clip-path">
      <rect id="Rectangle_378610" data-name="Rectangle 378610" width="109.427" height="119" fill="none"/>
    </clipPath>
  </defs>
  <g id="Group_1074928" data-name="Group 1074928" transform="translate(-1149 -13864)">
    <circle id="Ellipse_5854" data-name="Ellipse 5854" cx="71" cy="71" r="71" transform="translate(1149 13864)" fill="#fff"/>
    <g id="Group_1074934" data-name="Group 1074934" transform="translate(1165.286 13873.301)">
      <g id="Group_1074933" data-name="Group 1074933" clip-path="url(#clip-path)">
        <path id="Path_825154" data-name="Path 825154" d="M131.653,37.868c-.008-.039-.016-.078-.024-.117s0-.086,0-.129q.015-.98.029-1.96l0,.01a3.014,3.014,0,0,1,1.693-2.592,3.092,3.092,0,0,1,3.268.2c.771.5,1.514,1.062,2.224,1.626.853.678,1.687,1.406,2.549,2.076,1.6,1.242,3.189,2.5,4.791,3.733,1.349,1.041,2.677,2.111,3.939,3.249A3.045,3.045,0,0,1,150,48.64c-2.629,2.262-5.407,4.34-8.128,6.49-1.223.967-2.425,1.966-3.686,2.882a7.163,7.163,0,0,1-2.7,1.611,3.205,3.205,0,0,1-2.788-.741,2.885,2.885,0,0,1-1.034-2.357c-.019-.7-.03-1.4,0-2.1.015-.389-.091-.515-.5-.505-1.159.028-2.319.005-3.479,0l-18,0h-1.154a5.6,5.6,0,0,0,1.744.725,37.114,37.114,0,0,1,7.188,3.109,47.693,47.693,0,0,1,7.034,4.832,37.19,37.19,0,0,1,4.576,4.423,52.719,52.719,0,0,1,4.386,5.815,37.037,37.037,0,0,1,4.23,8.489,46.788,46.788,0,0,1,1.981,7.255,44.5,44.5,0,0,1,.648,4.877c.105,1.769.156,3.524.133,5.295a7.342,7.342,0,0,0-.1,2.345c.087.3-.152.8-.206,1.231-.1.77.1.847.794,1.115,1.26.486,2.768.63,3.591,1.888a3.238,3.238,0,0,1-.948,4.683q-5.1,3.047-10.194,6.116c-1.329.8-2.646,1.615-3.993,2.38a3.148,3.148,0,0,1-4.694-1.72,47.045,47.045,0,0,1-1.616-5.127c-.48-1.744-1.15-3.435-1.714-5.156-.244-.745-.418-1.513-.648-2.263-.407-1.326-.763-2.674-1.288-3.952a1.328,1.328,0,0,1,.122-1.056,3.167,3.167,0,0,1,3.329-2.546,6.14,6.14,0,0,1,1.672.469c.456-.018.2-.31.194-.5a35.118,35.118,0,0,0-.4-4.291,21.293,21.293,0,0,0-.9-3.971A28.863,28.863,0,0,0,120,80.892a29.411,29.411,0,0,0-8.429-8.313,25.638,25.638,0,0,0-4.684-2.414,2.214,2.214,0,0,1-1.521-2.294q0-2.219,0-4.438c0-2.419-.01-4.838,0-7.257a2.011,2.011,0,0,1,.889-2.02c.177-.1.258-.3.012-.415a2.888,2.888,0,0,1-1.4-2.45,19.539,19.539,0,0,0-3.142-7.509c-.489-.725-1.1-1.343-1.651-2.013-1.059-1.289-.9-1.97-.02-3.11a6.756,6.756,0,0,1-2.114-1.439,15.538,15.538,0,0,0-4-2.493c-.013-.068-.044-.112-.122-.1l-.011,0A22.993,22.993,0,0,0,90.1,33.135a4.379,4.379,0,0,0-1.785-.284,8.2,8.2,0,0,1-1.366-.651,1.919,1.919,0,0,1-.782-1.559c.016-2.993.005-5.987,0-8.98,0-.2-.021-.4-.033-.594a.312.312,0,0,0,0-.48.252.252,0,0,0,.016-.058c.06-1.071.06-1.062-.988-1.049a6.12,6.12,0,0,1-2.754-.326,3.385,3.385,0,0,1-1.894-3.3,3.65,3.65,0,0,1,.9-1.869c1.48-1.878,2.973-3.745,4.445-5.629,1.676-2.145,3.326-4.309,5-6.454.682-.873,1.378-1.8,2.6-1.885a3.225,3.225,0,0,1,2.628.709c1.591,1.567,2.731,3.5,4.18,5.193,1.177,1.371,2.223,2.849,3.37,4.243s2.251,2.834,3.316,4.3a2.985,2.985,0,0,1,.178,3.3,3.128,3.128,0,0,1-2.984,1.727c-.58.006-1.161.025-1.739-.007-.449-.025-.575.133-.556.579.225,5.168.034,10.339.1,15.509.013.941.118,1.934-.945,2.6,10.257-.187,20.366-.024,30.473-.1.191.039.238-.034.162-.205M86.417,15.632a8.178,8.178,0,0,0,1.607.005,2.215,2.215,0,0,1,1.392.565A2.246,2.246,0,0,1,90,17.9c-.008,3.555-.007,7.11-.022,10.665,0,.4.072.6.522.689a19.161,19.161,0,0,1,2.219.644A23.325,23.325,0,0,1,97.5,32.2c.178.109.37.34.582.209.17-.106.074-.37.074-.562q0-5.842,0-11.684c0-.879-.019-1.759.031-2.635a1.881,1.881,0,0,1,1.792-1.886,7.382,7.382,0,0,0,1.5-.015l1.164-.037a.252.252,0,0,0,.362.013c.013-.012-.034-.09-.052-.136a1.436,1.436,0,0,0-.1-.152Q98.635,9.946,94.42,4.57c-.3-.385-.474-.287-.722.027q-4.147,5.275-8.3,10.541c-.163.075-.333.186-.3.372.046.236.279.147.438.153.191.006.382-.018.574-.028l.308,0m19.405,26.292c-.225.05-.542-.172-.66.051-.11.207.18.409.3.608a25.812,25.812,0,0,1,2.386,5.056,13.407,13.407,0,0,0,.777,2.369c.208.181.432.106.656.042q11.43,0,22.861,0c.539,0,1.081.006,1.617.059a1.752,1.752,0,0,1,1.612,1.43,17.72,17.72,0,0,1,.137,2.909c.022.238-.28.546-.015.664.248.111.477-.217.709-.36a2.2,2.2,0,0,0,.185-.152q5.1-3.989,10.2-7.973c.367-.286.386-.483.007-.774-1.568-1.206-3.124-2.428-4.681-3.65-.782-.613-1.618-1.165-2.373-1.8-1.18-1-2.409-1.928-3.619-2.885-.275-.217-.461-.207-.448.235.022.759.032,1.52,0,2.279a1.831,1.831,0,0,1-1.4,1.79,6.93,6.93,0,0,1-1.185.1c-2.72.007-5.44,0-8.16,0H105.955c-.047-.053-.092-.043-.133.008m22.724,56.34c-.051.532-.117,1.063-.151,1.6a1.966,1.966,0,0,1-2.708,1.765,9.015,9.015,0,0,0-1.343-.505c-.156-.053-.33-.236-.485-.059-.11.126-.017.3.031.456.652,2.046,1.278,4.1,1.919,6.15.686,2.191,1.381,4.381,2.065,6.573.143.458.322.554.713.3.15-.1.312-.178.466-.27q5.4-3.224,10.8-6.451c.193-.116.517-.2.474-.442-.037-.206-.325-.307-.563-.39q-1.179-.408-2.341-.866a2.053,2.053,0,0,1-1.457-2.266,34.706,34.706,0,0,0,.489-3.541,42.419,42.419,0,0,0,.076-6.412,38.531,38.531,0,0,0-.669-5.1,41.713,41.713,0,0,0-2.23-7.461A40.193,40.193,0,0,0,126.389,69.7a40.791,40.791,0,0,0-16.611-11.22c-.4-.149-.6-.157-.593.391.024,2.559.012,5.119,0,7.678a.672.672,0,0,0,.437.694,31.836,31.836,0,0,1,11.693,9.111,34.089,34.089,0,0,1,2.584,3.681,32.091,32.091,0,0,1,3.5,8.147,29.13,29.13,0,0,1,1.028,6.1,7.756,7.756,0,0,0,.168,1.767.728.728,0,0,0,.018.536c0,.133,0,.266,0,.4-.01.008-.03.018-.029.022a.545.545,0,0,0,.029.069q0,.191-.01.382c-.011.009-.033.02-.032.026a.589.589,0,0,0,.031.078c-.012.122-.025.245-.037.367l-.019.333" transform="translate(-41.729 0)"/>
        <path id="Path_825155" data-name="Path 825155" d="M82.581,143.316a25.938,25.938,0,0,1,8,1.621,23.633,23.633,0,0,1,7.2,4.22,25.62,25.62,0,0,1,4.019,4.321A21.615,21.615,0,0,1,105,159.2a25.253,25.253,0,0,1,1.523,6.354,25.748,25.748,0,0,1,.2,3.35,26.18,26.18,0,0,1-.477,4.144,35.2,35.2,0,0,1-1.222,4.225,23.578,23.578,0,0,1-3.568,6.371,27.6,27.6,0,0,1-3.906,3.97c-.486.427-1.086.737-1.568,1.136a22.547,22.547,0,0,1-3.618,2.127A15.861,15.861,0,0,1,89.6,191.94a29.918,29.918,0,0,1-4.784,1.186,26.168,26.168,0,0,1-3.925.144,23.428,23.428,0,0,1-7.507-1.493,23.2,23.2,0,0,1-6-3.039,18.043,18.043,0,0,1-3.073-2.547,42.97,42.97,0,0,1-4.286-5.668,17.65,17.65,0,0,1-1.9-4.129,27.233,27.233,0,0,1-1.058-4.266,31.252,31.252,0,0,1-.262-5.213,25.694,25.694,0,0,1,1.11-6.191,17.578,17.578,0,0,1,1.5-3.66,24.24,24.24,0,0,1,2.557-3.919,25.249,25.249,0,0,1,8.045-6.917,26.247,26.247,0,0,1,4.184-1.721,30.2,30.2,0,0,1,5.1-1.136,26.2,26.2,0,0,1,3.234-.057l.024.023ZM82.5,172.459a.15.15,0,0,0-.219-.009l-.876-.005c-.04-.047-.076-.043-.107.008l-.371.028-.089.006a7.492,7.492,0,0,0-2.4.323,14.03,14.03,0,0,0-10.476,10.481,1.178,1.178,0,0,0,.468,1.424,21.056,21.056,0,0,0,18.606,4.065,20.947,20.947,0,0,0,7.4-3.549c1.562-1.143,1.477-.816.9-2.761a13.8,13.8,0,0,0-3.653-6.055,14.172,14.172,0,0,0-9.186-3.956m16.363,8.228c.115-.04.141-.041.148-.053.222-.379.445-.757.662-1.138a22.035,22.035,0,0,0,3.127-13.053,20.866,20.866,0,0,0-5.711-12.726,20.057,20.057,0,0,0-7.349-5,16.062,16.062,0,0,0-6-1.412.716.716,0,0,1-.179,0,7.525,7.525,0,0,0-2.617-.107,8.173,8.173,0,0,0-2.534.194c-.585.236-1.266.129-1.881.389-.706.3-1.472.429-2.2.7a20.112,20.112,0,0,0-7.987,5.278A20.981,20.981,0,0,0,60.886,164.9a22.758,22.758,0,0,0-.134,5.616,20.583,20.583,0,0,0,3.273,9.281c.2.308.34.841.712.8.339-.036.269-.6.4-.913a18.082,18.082,0,0,1,9.334-9.545c.6-.286.6-.275.142-.76a10.014,10.014,0,0,1-.326-13.713,9.477,9.477,0,0,1,6.52-3.3A9.8,9.8,0,0,1,88,154.511a9.907,9.907,0,0,1,3.561,10.026,9.537,9.537,0,0,1-2.792,4.989c-.238.232-.325.349.06.521a23.381,23.381,0,0,1,3.36,1.93,17.109,17.109,0,0,1,5.033,5.37,24.48,24.48,0,0,1,1.64,3.34M81.665,168.541c3.147.284,6.474-2.461,6.268-6.881-.141-3.013-3.019-5.5-6.69-5.458a6.249,6.249,0,0,0-5.729,6.232c-.013,3.175,3.133,6.365,6.151,6.107" transform="translate(-29.442 -74.275)"/>
        <path id="Path_825156" data-name="Path 825156" d="M60.232,90.964q.012,4.08.023,8.159a2.589,2.589,0,0,1-.241,1.422,1.857,1.857,0,0,1-1.673.827,9.1,9.1,0,0,1-2.092-.276,5.3,5.3,0,0,0-1.109-.069,28.15,28.15,0,0,0-4.835-.091,28.557,28.557,0,0,0-3.443.4,1.882,1.882,0,0,1-2.35-1.567,9.242,9.242,0,0,1-.077-1.434c0-2.26,0-4.52.023-6.78a6.231,6.231,0,0,0-.246-1.564,1.446,1.446,0,0,0-1.323-.858c-.678.024-1.359-.016-2.038-.016q-10.412,0-20.823-.006c-.44,0-.5.118-.508.539a10.243,10.243,0,0,1-.172,3.023,3.116,3.116,0,0,1-1.957,2c-1.714.726-2.888-.269-4.089-1.2-1.256-.971-2.495-1.965-3.737-2.954-2.74-2.182-5.487-4.354-8.209-6.558a3.04,3.04,0,0,1-1.219-3.4A3.874,3.874,0,0,1,1.5,78.606c.9-.707,1.818-1.4,2.717-2.111,2.845-2.259,5.718-4.484,8.58-6.722.438-.342.888-.67,1.311-1.031A3.267,3.267,0,0,1,19.537,71.2a7.828,7.828,0,0,1-.024,1.438c-.071.527.065.677.618.675,7.341-.024,14.682.013,22.023-.042a19.253,19.253,0,0,1,8.411,1.885,15.99,15.99,0,0,1,5.4,4.253,16.556,16.556,0,0,1,3.132,5.38,17.682,17.682,0,0,1,1.14,5.78c-.256.131-.262.263,0,.4M17.7,85.271q8.118.012,16.237.021c3.035,0,6.071-.009,9.106-.014a5.56,5.56,0,0,1,5.208,5.635c.037,1.5.008,3,.009,4.5,0,.614,0,1.228,0,1.816.839-.06,1.626-.146,2.415-.166,1.063-.027,2.128.032,3.189-.01a12.261,12.261,0,0,1,1.947.173c.531.064.618-.081.609-.523-.048-2.312.09-4.624-.1-6.939a13.423,13.423,0,0,0-6.462-10.649,14.45,14.45,0,0,0-7.8-2c-8.16,0-16.32-.016-24.479,0A1.775,1.775,0,0,1,16,76.176a4.822,4.822,0,0,1-.4-2.587c-.009-.258.176-.608-.124-.763s-.511.24-.8.279c-.048.007-.084.081-.131.118-1.162.934-2.319,1.876-3.49,2.8q-3.2,2.522-6.426,5.02c-.38.293-.382.452,0,.75,2.384,1.85,4.75,3.722,7.122,5.587,1.13.889,2.258,1.782,3.394,2.664.148.115.3.36.5.245.185-.105.069-.365.072-.552.013-.76,0-1.52.009-2.28A1.939,1.939,0,0,1,17.7,85.271" transform="translate(0 -35.197)"/>
        <path id="Path_825157" data-name="Path 825157" d="M91.924,42.742a.312.312,0,0,1,0,.48c-.336-.163-.333-.323,0-.48" transform="translate(-47.516 -22.155)" fill="#837583"/>
        <path id="Path_825158" data-name="Path 825158" d="M172.142,200.646c0,.195.262.486-.193.5.144-.138-.081-.417.193-.5" transform="translate(-89.13 -104.005)" fill="#837583"/>
        <path id="Path_825159" data-name="Path 825159" d="M124.845,115.357c-.262-.132-.255-.264,0-.4a.493.493,0,0,1,0,.4" transform="translate(-64.613 -59.59)" fill="#837583"/>
        <path id="Path_825160" data-name="Path 825160" d="M186.525,78.622c.076.171.029.245-.162.205a.2.2,0,0,1,.162-.205" transform="translate(-96.601 -40.754)" fill="#837583"/>
        <path id="Path_825161" data-name="Path 825161" d="M110.274,143.225l-.026.02-.024-.023c0-.036,0-.072,0-.107.094,0,.047.066.045.11" transform="translate(-57.135 -74.184)" fill="#89c8fd"/>
        <path id="Path_825162" data-name="Path 825162" d="M186.62,74.02l0-.01-.078-.021c.015,0,.034-.013.046-.007s.02.025.029.038" transform="translate(-96.695 -38.348)" fill="#837583"/>
        <path id="Path_825163" data-name="Path 825163" d="M186.544,78.112v.129l-.1-.085.094-.043" transform="translate(-96.646 -40.489)" fill="#837583"/>
        <path id="Path_825164" data-name="Path 825164" d="M159.453,158.9a7.789,7.789,0,0,1-.168-1.767,29.1,29.1,0,0,0-1.028-6.1,32.107,32.107,0,0,0-3.5-8.147,33.985,33.985,0,0,0-2.584-3.681,31.843,31.843,0,0,0-11.693-9.111.671.671,0,0,1-.437-.694c.015-2.56.027-5.119,0-7.678-.005-.548.191-.539.593-.391a40.794,40.794,0,0,1,16.611,11.22,40.186,40.186,0,0,1,7.245,11.637,41.72,41.72,0,0,1,2.231,7.461,38.551,38.551,0,0,1,.669,5.1,42.421,42.421,0,0,1-.076,6.412,34.674,34.674,0,0,1-.489,3.541,2.051,2.051,0,0,0,1.457,2.266q1.162.457,2.341.867c.237.082.526.184.563.39.043.242-.281.326-.474.442q-5.4,3.227-10.8,6.451c-.154.092-.316.171-.466.269-.391.255-.571.159-.713-.3-.684-2.192-1.378-4.382-2.065-6.574-.642-2.048-1.267-4.1-1.919-6.15-.048-.151-.141-.329-.031-.455.156-.177.33,0,.486.059a9.063,9.063,0,0,1,1.343.5,1.966,1.966,0,0,0,2.708-1.765c.034-.533.1-1.064.151-1.6a.258.258,0,0,0,.019-.334c.012-.122.025-.244.037-.366a.079.079,0,0,0,0-.105c0-.127.006-.254.01-.38a.071.071,0,0,0,0-.092c0-.133,0-.266,0-.4-.006-.178-.012-.357-.018-.537" transform="translate(-72.592 -62.843)" fill="#fd636e"/>
        <path id="Path_825165" data-name="Path 825165" d="M132.466,82.134h18.779c2.72,0,5.44.006,8.16,0a6.92,6.92,0,0,0,1.185-.1,1.832,1.832,0,0,0,1.4-1.79c.027-.759.017-1.52-.005-2.279-.013-.441.174-.451.448-.235,1.21.957,2.44,1.887,3.62,2.885.754.638,1.59,1.189,2.373,1.8,1.557,1.221,3.112,2.444,4.68,3.65.379.292.36.489-.007.774q-5.109,3.977-10.2,7.973a2.123,2.123,0,0,1-.185.152c-.232.144-.461.471-.709.36-.265-.118.037-.426.015-.664a17.727,17.727,0,0,0-.137-2.909,1.752,1.752,0,0,0-1.612-1.43c-.536-.052-1.078-.059-1.617-.059q-11.431,0-22.861.005a1.467,1.467,0,0,0-.656-.042,13.413,13.413,0,0,1-.777-2.37,25.807,25.807,0,0,0-2.385-5.055c-.119-.2-.409-.4-.3-.608.118-.223.434,0,.66-.051l.133-.007" transform="translate(-68.24 -40.219)" fill="#89c8fd"/>
        <path id="Path_825166" data-name="Path 825166" d="M107.844,20.241l-1.163.036a2.8,2.8,0,0,0-1.5.015,1.881,1.881,0,0,0-1.792,1.886c-.051.876-.031,1.757-.031,2.636q0,5.842,0,11.683c0,.192.1.455-.075.562-.211.132-.4-.1-.581-.208a23.341,23.341,0,0,0-4.783-2.3,19.253,19.253,0,0,0-2.219-.645c-.45-.092-.524-.293-.522-.688.016-3.555.014-7.11.023-10.665a2.248,2.248,0,0,0-.581-1.7,2.208,2.208,0,0,0-1.391-.565,3.2,3.2,0,0,0-1.608-.006l-.307,0c-.149-.131-.334-.077-.5-.077-.377,0-.268-.217-.216-.42q4.154-5.269,8.3-10.541c.247-.314.421-.413.722-.028q4.2,5.384,8.435,10.748a1.69,1.69,0,0,1,.095.151l-.309.124" transform="translate(-46.932 -4.649)" fill="#fee175"/>
        <path id="Path_825167" data-name="Path 825167" d="M90.332,31.431c-.052.2-.161.421.216.42.164,0,.35-.055.5.077-.192.011-.384.035-.575.028-.159-.005-.393.084-.438-.153-.036-.186.134-.3.3-.372" transform="translate(-46.667 -16.292)" fill="#837583"/>
        <path id="Path_825168" data-name="Path 825168" d="M92.779,32.346a3.19,3.19,0,0,1,1.608.006,8.188,8.188,0,0,1-1.608-.006" transform="translate(-48.092 -16.715)" fill="#837583"/>
        <path id="Path_825169" data-name="Path 825169" d="M120.93,32.362a2.8,2.8,0,0,1,1.5-.015,7.387,7.387,0,0,1-1.5.015" transform="translate(-62.684 -16.718)" fill="#837583"/>
        <path id="Path_825170" data-name="Path 825170" d="M138.886,103.807a1.469,1.469,0,0,1,.656.042c-.224.064-.449.138-.656-.042" transform="translate(-71.991 -53.8)" fill="#837583"/>
        <path id="Path_825171" data-name="Path 825171" d="M180.293,199.423c.006.18.012.359.018.537a.734.734,0,0,1-.018-.537" transform="translate(-93.432 -103.371)" fill="#837583"/>
        <path id="Path_825172" data-name="Path 825172" d="M126.464,32.24l.309-.124c.019.048.066.125.053.137a.253.253,0,0,1-.362-.013" transform="translate(-65.553 -16.647)" fill="#837583"/>
        <path id="Path_825173" data-name="Path 825173" d="M180.267,203.323a.258.258,0,0,1-.019.334l.019-.334" transform="translate(-93.431 -105.392)" fill="#837583"/>
        <path id="Path_825174" data-name="Path 825174" d="M180.354,201.364a.071.071,0,0,1,0,.092.613.613,0,0,1-.029-.07s.019-.014.029-.022" transform="translate(-93.471 -104.377)" fill="#837583"/>
        <path id="Path_825175" data-name="Path 825175" d="M180.331,202.347a.079.079,0,0,1,0,.1.676.676,0,0,1-.031-.079c0-.006.021-.017.032-.026" transform="translate(-93.458 -104.886)" fill="#837583"/>
        <path id="Path_825176" data-name="Path 825176" d="M133.2,86.987l-.133.007c.042-.05.086-.061.133-.007" transform="translate(-68.976 -45.071)" fill="#837583"/>
        <path id="Path_825177" data-name="Path 825177" d="M102.995,184.82a24.481,24.481,0,0,0-1.64-3.34,17.109,17.109,0,0,0-5.033-5.37,23.382,23.382,0,0,0-3.36-1.929c-.385-.172-.3-.289-.06-.521a9.537,9.537,0,0,0,2.792-4.989,9.907,9.907,0,0,0-3.561-10.026,9.8,9.8,0,0,0-7.188-2.146,9.476,9.476,0,0,0-6.52,3.3,10.015,10.015,0,0,0,.326,13.713c.455.485.463.474-.142.76a18.084,18.084,0,0,0-9.334,9.544c-.134.318-.065.878-.4.914-.372.039-.516-.494-.712-.8a20.582,20.582,0,0,1-3.273-9.282,22.778,22.778,0,0,1,.134-5.616,20.985,20.985,0,0,1,5.449-11.144,20.112,20.112,0,0,1,7.987-5.278c.728-.267,1.494-.4,2.2-.7.615-.261,1.3-.153,1.881-.389a8.174,8.174,0,0,1,2.534-.194,7.525,7.525,0,0,1,2.617.107.72.72,0,0,0,.18,0,16.066,16.066,0,0,1,6,1.412,20.059,20.059,0,0,1,7.349,5,20.866,20.866,0,0,1,5.711,12.726,22.033,22.033,0,0,1-3.127,13.052c-.217.381-.44.76-.662,1.138-.007.012-.033.013-.148.053" transform="translate(-33.577 -78.408)" fill="#837583"/>
        <path id="Path_825178" data-name="Path 825178" d="M93.331,203.819l.876.005a.152.152,0,0,0,.219.009,14.175,14.175,0,0,1,9.186,3.956,13.8,13.8,0,0,1,3.653,6.055c.575,1.944.659,1.618-.9,2.761a20.951,20.951,0,0,1-7.4,3.549,21.057,21.057,0,0,1-18.607-4.065,1.178,1.178,0,0,1-.468-1.424A14.031,14.031,0,0,1,90.36,204.185a7.494,7.494,0,0,1,2.4-.323l.046.019.043-.025.371-.028c.039.05.076.048.107-.008" transform="translate(-41.371 -105.649)" fill="#89c8fd"/>
        <path id="Path_825179" data-name="Path 825179" d="M101.806,182.433c-3.019.259-6.165-2.932-6.151-6.107a6.249,6.249,0,0,1,5.729-6.232c3.671-.041,6.549,2.445,6.69,5.458.206,4.421-3.121,7.165-6.268,6.881" transform="translate(-49.583 -88.168)" fill="#f8f9fb"/>
        <path id="Path_825180" data-name="Path 825180" d="M109.917,203.793a.152.152,0,0,1-.219-.009.15.15,0,0,1,.219.009" transform="translate(-56.862 -105.609)" fill="#837583"/>
        <path id="Path_825181" data-name="Path 825181" d="M106.791,203.9l-.043.025-.046-.019.09-.006" transform="translate(-55.308 -105.689)" fill="#837583"/>
        <path id="Path_825182" data-name="Path 825182" d="M107.764,203.784c-.032.056-.068.058-.107.008.032-.052.068-.055.107-.008" transform="translate(-55.804 -105.614)" fill="#837583"/>
        <path id="Path_825183" data-name="Path 825183" d="M22.369,90.533a1.939,1.939,0,0,0-1.977,2.183c-.007.76,0,1.52-.009,2.28,0,.188.113.447-.072.552-.2.115-.352-.13-.5-.245-1.136-.882-2.264-1.775-3.394-2.664C14.045,90.774,11.679,88.9,9.3,87.052c-.384-.3-.382-.457,0-.75q3.227-2.492,6.426-5.02c1.171-.922,2.327-1.864,3.49-2.8.046-.037.083-.112.131-.118.294-.039.5-.434.8-.279s.115.506.124.763a4.822,4.822,0,0,0,.4,2.587,1.775,1.775,0,0,0,1.572.94c8.16-.013,16.32.005,24.479,0a14.45,14.45,0,0,1,7.8,2,13.423,13.423,0,0,1,6.462,10.649c.19,2.315.052,4.626.1,6.939.009.442-.078.587-.609.523a12.262,12.262,0,0,0-1.947-.173c-1.062.041-2.127-.017-3.189.01-.788.019-1.575.105-2.415.166,0-.588,0-1.2,0-1.816,0-1.5.028-3-.009-4.5a5.56,5.56,0,0,0-5.208-5.635,1.192,1.192,0,0,0-.7-.077q-12.032-.009-24.063-.006c-.194,0-.4-.057-.58.076" transform="translate(-4.669 -40.458)" fill="#b3dc7e"/>
        <path id="Path_825184" data-name="Path 825184" d="M36.748,103.87c.179-.133.387-.076.58-.076q12.031,0,24.063.006a1.192,1.192,0,0,1,.7.077c-3.036,0-6.071.016-9.107.014q-8.118,0-16.237-.021" transform="translate(-19.048 -53.796)" fill="#fd636e"/>
      </g>
    </g>
  </g>
</svg>
