<svg xmlns="http://www.w3.org/2000/svg" xmlns:xlink="http://www.w3.org/1999/xlink" width="120" height="120" viewBox="0 0 120 120">
  <defs>
    <clipPath id="clip-path">
      <rect id="Rectangle_378426" data-name="Rectangle 378426" width="85" height="85" fill="none"/>
    </clipPath>
  </defs>
  <g id="Group_1074354" data-name="Group 1074354" transform="translate(-180 -23803)">
    <circle id="Ellipse_5865" data-name="Ellipse 5865" cx="60" cy="60" r="60" transform="translate(180 23803)" fill="#ffae7e"/>
    <g id="Group_1074778" data-name="Group 1074778" transform="translate(198 23821)">
      <g id="Group_1074777" data-name="Group 1074777" clip-path="url(#clip-path)">
        <path id="Path_824076" data-name="Path 824076" d="M111.98,212.758c-.29,0-.581.012-.871.012l-29.834,0a1.614,1.614,0,0,1-.645-.083c-.024-.925-.059-1.851-.07-2.777q-.057-4.936-.1-9.871a6.2,6.2,0,0,1,0-1.2,4.4,4.4,0,0,1,3.377-3.666C85.9,194.6,87.952,194,90,193.4c.591-.172.585-.18.895.348a6.235,6.235,0,0,0,6.726,3.05,5.141,5.141,0,0,0,2.587-1.274,5.681,5.681,0,0,0,1.3-1.727c.242-.478.266-.537.766-.393q3.2.921,6.392,1.848a4.539,4.539,0,0,1,2.517,1.9,4.364,4.364,0,0,1,.641,2.774.032.032,0,0,0,0,.047l0,.2a6.678,6.678,0,0,0,.038,1.394q.05,4.83.1,9.66a1.043,1.043,0,0,0,.008.6q0,.468,0,.935" transform="translate(-53.725 -129.117)" fill="#fa486e"/>
        <path id="Path_824077" data-name="Path 824077" d="M106.515,134.516l0-.2.023-.024-.024-.024a4.362,4.362,0,0,0-.641-2.773,4.539,4.539,0,0,0-2.517-1.9q-3.2-.926-6.393-1.848c-.5-.144-.524-.085-.766.393a5.681,5.681,0,0,1-1.3,1.727,5.139,5.139,0,0,1-2.587,1.274,6.234,6.234,0,0,1-6.726-3.05c-.309-.528-.3-.52-.895-.349-2.053.6-4.1,1.2-6.163,1.772a4.4,4.4,0,0,0-3.377,3.667,6.194,6.194,0,0,0,0,1.2q.048,4.935.1,9.871c.011.925.046,1.851.07,2.777a1.618,1.618,0,0,1-.846,1.3,1.263,1.263,0,0,1-1.819-1.069c-.062-3.992-.106-7.984-.157-11.976,0-.151-.013-.3-.02-.454a.3.3,0,0,0,0-.417q0-.373,0-.745a.311.311,0,0,0,.034-.412c0-.057,0-.114,0-.171.1-.061.062-.153.05-.238a5.829,5.829,0,0,1,.392-1.515,7.05,7.05,0,0,1,3.642-3.933c.357-.172.739-.289,1.11-.431,1-.185,1.97-.519,2.952-.788,1.25-.342,2.491-.717,3.741-1.059a.464.464,0,0,0,.416-.559c-.034-1.021-.014-2.045.006-3.068a.846.846,0,0,0-.275-.691,9.939,9.939,0,0,1-2.48-3.593,6.491,6.491,0,0,1-.441-2.175c-.019-.94-.016-1.88,0-2.821a.7.7,0,0,0-.265-.6,10.528,10.528,0,0,1-2.968-4.187c-.108-.276-.228-.546-.343-.818a2.577,2.577,0,0,0-.057-.325,7.71,7.71,0,0,1-.18-3.627,8.821,8.821,0,0,1,1.864-4.225,9.259,9.259,0,0,1,4.882-2.956,15.042,15.042,0,0,1,2.054-.349,16.254,16.254,0,0,1,2.539-.112c.606.022,1.225.036,1.838.112.811.1,1.613.219,2.411.393,1.2.263,2.333.755,3.512,1.094A2.472,2.472,0,0,0,99,96.485a5.962,5.962,0,0,0,.9-.73,1.221,1.221,0,0,1,1.891.019,6.2,6.2,0,0,1,1.135,1.534,10.772,10.772,0,0,1,1.448,4.937c0,.038,0,.076.007.114q0,.269.007.539a.089.089,0,0,0,0,.128c0,.071-.008.142-.012.213-.008.011-.024.023-.023.033a.515.515,0,0,0,.02.076c-.048.4-.094.807-.144,1.211-.091.721-.367,1.4-.523,2.1-.258.549-.484,1.116-.783,1.641a8.432,8.432,0,0,1-1.619,2.072c-.445.408-.847.864-1.268,1.3a.635.635,0,0,0-.116.468c-.048,1.1.108,2.212-.043,3.312a7.946,7.946,0,0,1-1.65,3.971,8.522,8.522,0,0,1-1.236,1.412.364.364,0,0,0-.115.331c0,1.2.014,2.4-.011,3.606-.005.266.161.293.305.334.773.218,1.556.4,2.328.625,1.117.322,2.225.671,3.34,1a5.2,5.2,0,0,0,1.252.295,8.835,8.835,0,0,1,2.049.979,7.145,7.145,0,0,1,2.619,3.379,14.582,14.582,0,0,1,.415,1.7c.018,2.738,0,5.476.068,8.214.046,1.825.046,3.651.067,5.476-.193.112-.228.229-.009.351a1.384,1.384,0,0,1-1.009,1.25,1.346,1.346,0,0,1-1.6-1.112c-.006-.054-.018-.108-.027-.162q0-.467,0-.935l-.008-.6q-.05-4.829-.1-9.659a4.785,4.785,0,0,0-.038-1.394M99.46,108.522a8.629,8.629,0,0,0,2.138-4.71,8.516,8.516,0,0,0-.752-4.876c-.124-.281-.249-.338-.528-.166a7.77,7.77,0,0,1-1.371.57,2.863,2.863,0,0,1-1.037.165,8.248,8.248,0,0,1-2.358-.544,19.556,19.556,0,0,0-8.036-1.238,12.464,12.464,0,0,0-3.31.68,5.487,5.487,0,0,0-3.678,4.341,7.152,7.152,0,0,0,2.121,6.47c.245.262.355.188.514-.062.488-.77.989-1.533,1.418-2.339a1.321,1.321,0,0,1,2.05-.655,12.1,12.1,0,0,0,4.065,1.34,5.921,5.921,0,0,0,4.889-1.276,1.871,1.871,0,0,1,2.618.1,2.662,2.662,0,0,1,.547.725c.243.476.465.963.711,1.479m-2.159,4.61a10.8,10.8,0,0,0-.465-3.97c-.146-.489-.17-.5-.606-.21a8.237,8.237,0,0,1-5.74,1.222,12.7,12.7,0,0,1-3.741-1.06c-.25-.112-.374-.085-.522.17a10.68,10.68,0,0,1-1.78,2.382.6.6,0,0,0-.185.48q.013,1.286.007,2.573a4.622,4.622,0,0,0,.526,2.118,8.677,8.677,0,0,0,4.516,4.072,3.527,3.527,0,0,0,2.833.03,8.487,8.487,0,0,0,4-3.135,7.8,7.8,0,0,0,.9-1.7,9.161,9.161,0,0,0,.257-2.972m-9.872,11.285h.023c0,.083,0,.166,0,.248a3.665,3.665,0,0,0,.088,1.478,3.563,3.563,0,0,0,2.656,2.348,6.239,6.239,0,0,0,1.2.027,2.846,2.846,0,0,0,2.667-2.235,14.767,14.767,0,0,0,.15-2.9c.01-.482,0-.483-.451-.267a7.217,7.217,0,0,1-2.8.771,6.065,6.065,0,0,1-2.849-.64,3.776,3.776,0,0,0-.375-.173c-.2-.065-.335-.063-.313.227.027.371.007.745.007,1.118" transform="translate(-48.404 -63.461)"/>
        <path id="Path_824078" data-name="Path 824078" d="M172.792,168.043a14.636,14.636,0,0,0-.415-1.7,7.148,7.148,0,0,0-2.62-3.379,8.833,8.833,0,0,0-2.049-.979q.022-1.058.044-2.115a4.684,4.684,0,0,0,.678-.3,1.51,1.51,0,0,0,.6-1.411q.015-3.186.019-6.372a1.1,1.1,0,0,1,.009-.288,3.363,3.363,0,0,1,2.349-2.535c1.839-.541,3.687-1.052,5.525-1.6.274-.081.332.047.414.234a4.111,4.111,0,0,0,1.21,1.654,4.939,4.939,0,0,0,4.857.808,3.85,3.85,0,0,0,2.65-2.507.25.25,0,0,1,.357-.166c1.823.547,3.638,1.124,5.475,1.618a3.242,3.242,0,0,1,2.456,3.328c.009,5.018,0,10.036.01,15.054,0,.236-.125.467-.022.7-1.687-.009-3.374-.023-5.061-.026q-5.477-.011-10.954-.014l-5.535-.011" transform="translate(-112.025 -98.421)" fill="#51dbff"/>
        <path id="Path_824079" data-name="Path 824079" d="M34.628,162.1c-.371.142-.754.26-1.11.431a7.051,7.051,0,0,0-3.643,3.933,5.845,5.845,0,0,0-.392,1.515.324.324,0,0,0-.162.2,3.064,3.064,0,0,1-1.027.06q-9.623-.008-19.246-.032L8.013,168.2c-.005-.221-.016-.442-.016-.663,0-5.035.019-10.07,0-15.1a3.4,3.4,0,0,1,2.336-3.273c1.753-.522,3.516-1.01,5.271-1.528a.47.47,0,0,1,.632.252,4.558,4.558,0,0,0,.947,1.183,5.2,5.2,0,0,0,5.134,1.237,4.581,4.581,0,0,0,2.971-2.432.283.283,0,0,1,.372-.182c.42.075.82.207,1.226.32,1.11.309,2.215.634,3.321.958a4,4,0,0,1,2.553,1.557,4.518,4.518,0,0,1,.6,2.112l0,.124,0,.2c0,.043,0,.086,0,.129l0,.2v.129l0,.2v.126l0,.207v.124q0,.1,0,.209c0,.041,0,.081,0,.122q0,.106,0,.212c0,.04,0,.079,0,.118,0,.072,0,.144,0,.215,0,.039,0,.077,0,.115l0,.218v.112q0,.111,0,.221c0,.037,0,.073,0,.11,0,.074,0,.147,0,.221v.031l0,.3v.027l0,.306v.025l0,.308v.023q0,.321,0,.642v.02c0,.1,0,.207,0,.311v.021c0,.1,0,.207,0,.311v.023c0,.1,0,.206.006.308,0,.04.006.081.008.121q.019.1.037.206l-.019.012.022.01a1.324,1.324,0,0,0,1.181,1.047,17.442,17.442,0,0,1,.061,2.083" transform="translate(-5.339 -98.591)" fill="#fedc00"/>
        <path id="Path_824080" data-name="Path 824080" d="M191.538,115.908c-.1-.237.022-.468.022-.7-.009-5.018,0-10.036-.01-15.055a3.242,3.242,0,0,0-2.456-3.327c-1.837-.494-3.652-1.071-5.475-1.618a.25.25,0,0,0-.357.166,3.85,3.85,0,0,1-2.65,2.507,4.939,4.939,0,0,1-4.857-.808,4.11,4.11,0,0,1-1.21-1.654c-.082-.187-.14-.315-.414-.234-1.838.545-3.686,1.056-5.525,1.6a3.364,3.364,0,0,0-2.349,2.535,1.1,1.1,0,0,0-.009.288q-.009,3.185-.019,6.371a1.509,1.509,0,0,1-.6,1.411,4.631,4.631,0,0,1-.678.3,1.461,1.461,0,0,1-1.387-1.567c.041-.781-.1-1.576-.034-2.344.131-1.571-.035-3.144.128-4.71a5.755,5.755,0,0,1,1.773-3.425,6.26,6.26,0,0,1,2.806-1.509c1.265-.391,2.547-.729,3.822-1.087a1.939,1.939,0,0,1,.258-.036c-.119-.177-.291-.123-.44-.123-.981,0-1.964.023-2.944,0a1.229,1.229,0,0,1-1.193-1.25c0-3.97-.013-7.939.006-11.909a9.843,9.843,0,0,1,2.086-5.821,11.055,11.055,0,0,1,2.183-2.354,8.653,8.653,0,0,1,2.776-1.518,17.179,17.179,0,0,1,1.728-.578,10.9,10.9,0,0,1,3.334-.172,14.829,14.829,0,0,1,2.422.462,10.495,10.495,0,0,1,5.551,4.013,11.65,11.65,0,0,1,1.772,3.493,10.455,10.455,0,0,1,.376,2.289c.262,3.5.047,7.013.114,10.519.01.511.018,1.024-.007,1.535a1.263,1.263,0,0,1-1.3,1.3c-.815.03-1.631.022-2.447.03a.072.072,0,0,0-.118-.007l-.594.065c0,.017,0,.034-.007.051,1.526.448,3.062.867,4.576,1.352a5.58,5.58,0,0,1,3.26,2.788,5.648,5.648,0,0,1,.687,2.56c.167,5.331.024,10.662.068,15.993a1.334,1.334,0,0,1-2.037,1.274,1.516,1.516,0,0,1-.631-1.087m-12.1-23.491a3.609,3.609,0,0,1-.948,0,8.646,8.646,0,0,1-1.252-.2c-.291-.07-.495-.02-.455.374.036.355-.012.718.012,1.075a1.72,1.72,0,0,0,1.037,1.624,2.67,2.67,0,0,0,2.429-.128,1.3,1.3,0,0,0,.633-.789,3.9,3.9,0,0,0,.1-1.591c-.068-.579-.1-.575-.732-.486l-.642.093a.125.125,0,0,0-.179.022m8.037-7.1h-.006c0-1.494.034-2.988-.009-4.481a9.49,9.49,0,0,0-1.274-4.758,8.2,8.2,0,0,0-5.334-3.906,9,9,0,0,0-3.285-.136,8.685,8.685,0,0,0-2.485.772,8.53,8.53,0,0,0-4.69,7.435c-.01,3.056-.009,6.113-.013,9.169a1.407,1.407,0,0,1-.016.413c-.12.376.076.416.376.416a24.2,24.2,0,0,1,2.692.039c.187.021.231-.076.166-.22a1.5,1.5,0,0,0-.214-.3,6.889,6.889,0,0,1-1.518-3.53,35.941,35.941,0,0,1-.069-3.6,5.134,5.134,0,0,1,1.544-3.682,10.672,10.672,0,0,0,1.842-2.507,1.094,1.094,0,0,1,.618-.569,1.332,1.332,0,0,1,1.707.835,5.813,5.813,0,0,0,2.931,3.053,17.556,17.556,0,0,0,4.329,1.5,1.464,1.464,0,0,1,1.3,1.611c0,.678,0,1.355,0,2.033a7.191,7.191,0,0,1-1.74,5.045c-.052.058-.124.146-.111.2.027.126.158.077.246.08a24.481,24.481,0,0,1,2.649.071c.291.041.377-.087.375-.376-.012-1.535-.006-3.07-.006-4.605m-13.056-1.141a8.558,8.558,0,0,0,.1,2.14,4.511,4.511,0,0,0,8.557.6,8.451,8.451,0,0,0,.343-3.08c0-.171-.1-.22-.253-.26a14.691,14.691,0,0,1-1.736-.528,11.262,11.262,0,0,1-5.091-3.176c-.127-.16-.2-.057-.289.037-.362.4-.727.794-1.083,1.2a2.016,2.016,0,0,0-.52,1.17c-.068.691-.007,1.381-.031,1.9" transform="translate(-109.221 -46.234)"/>
        <path id="Path_824081" data-name="Path 824081" d="M27.991,101.969c0-.1,0-.206,0-.308l.025-.013-.026-.013,0-.305.026-.014-.026-.014q0-.151,0-.3l.027-.016L28,100.969c0-.073,0-.147,0-.22.053-.037.053-.074,0-.111,0-.073,0-.147,0-.22.053-.037.053-.075,0-.113l0-.218c.053-.039.053-.077,0-.116l0-.215c.053-.039.053-.079,0-.119,0-.07,0-.141,0-.212q.078-.061,0-.122,0-.1,0-.209.077-.062,0-.124c0-.069,0-.138,0-.207a.073.073,0,0,0,0-.127l0-.2a.078.078,0,0,0,0-.129c0-.067,0-.135,0-.2a.08.08,0,0,0,0-.129l0-.2a.073.073,0,0,0,0-.124,4.524,4.524,0,0,0-.6-2.112,4,4,0,0,0-2.554-1.556c-1.106-.323-2.211-.649-3.321-.958-.406-.113-.806-.245-1.226-.32a.283.283,0,0,0-.372.182,4.583,4.583,0,0,1-2.971,2.432,5.2,5.2,0,0,1-5.133-1.237,4.551,4.551,0,0,1-.947-1.183.471.471,0,0,0-.632-.252c-1.754.518-3.517,1.006-5.271,1.528a3.4,3.4,0,0,0-2.336,3.273c.023,5.035.006,10.07,0,15.1,0,.221.01.442.016.663-.043.112-.092.221-.129.335a1.239,1.239,0,0,1-1.2.922,1.235,1.235,0,0,1-1.259-.781,1.023,1.023,0,0,1-.076-.551c0-5.362-.014-10.724,0-16.086A5.563,5.563,0,0,1,1.333,93.6,6.072,6.072,0,0,1,4.746,91.48c1.035-.266,2.061-.569,3.086-.874.732-.217,1.47-.426,2.209-.622.055.016.091,0,.1-.062q.019-1.387.039-2.774a.42.42,0,0,0-.185-.309,8.573,8.573,0,0,1-2.219-3.571,5.864,5.864,0,0,1-.193-1.743,12.3,12.3,0,0,0-.01-1.862c-.108-.605-.759-.882-1.133-1.338a8.75,8.75,0,0,1-1.753-3.1,6.726,6.726,0,0,1-.312-2.8c.063-.457.087-.96.163-1.409a5.687,5.687,0,0,1,.495-1.287,7.641,7.641,0,0,1,1.348-1.972,6.563,6.563,0,0,1,2.356-1.6,10.782,10.782,0,0,1,3.062-.8,17.049,17.049,0,0,1,2.849-.06,19.939,19.939,0,0,1,2.982.416,11.259,11.259,0,0,1,1.814.623,8.415,8.415,0,0,0,1.569.474,1.607,1.607,0,0,0,1.378-.587,1.761,1.761,0,0,1,1.039-.648,1.669,1.669,0,0,1,1.52.788,7.616,7.616,0,0,1,1.129,1.914,7.532,7.532,0,0,1,.562,2.254c.021.4.1.784.1,1.185a12.2,12.2,0,0,1-.764,3.834,8.747,8.747,0,0,1-2.59,3.527.934.934,0,0,0-.308.769q.021.767.03,1.534a7.163,7.163,0,0,1-2.322,5.376.584.584,0,0,0-.2.465q.009,1.245-.011,2.489c0,.182.058.3.219.336,1.958.493,3.857,1.185,5.813,1.691a5.268,5.268,0,0,1,3,2.262,5.684,5.684,0,0,1,.964,2.858,17.7,17.7,0,0,1,.047,2.765c-.1,1.251.041,2.494.013,3.741a1.468,1.468,0,0,1-1.4,1.655,1.323,1.323,0,0,1-1.181-1.047l0-.022-.037-.206a.07.07,0,0,0-.009-.122c0-.1,0-.206-.006-.308l.025-.012-.025-.012c0-.1,0-.207,0-.31l.023-.01-.024-.011v-.311l.023-.01-.023-.01q0-.321,0-.642l.025-.012ZM17.907,89.39c0-.129,0-.257.007-.386.028-.05.022-.087-.037-.106-.148-.042-.264.048-.391.1a6.309,6.309,0,0,1-2.05.494,4.758,4.758,0,0,1-2.25-.5c-.317-.157-.414-.075-.4.263s0,.662,0,.993a2.672,2.672,0,0,0,3.943,2.3,2.325,2.325,0,0,0,1.154-1.966.066.066,0,0,0,.008-.109q0-.476,0-.952c0-.041.008-.082.012-.123m-7.643-9.87c-.07.688,0,1.379-.032,2.067a3.753,3.753,0,0,0,.618,2.136A7.323,7.323,0,0,0,14.006,86.5a2.8,2.8,0,0,0,2.226.116,6.728,6.728,0,0,0,2.391-1.444,4.943,4.943,0,0,0,1.838-4.021c-.025-.579,0-1.161.007-1.741a7.437,7.437,0,0,0-.322-1.969c-.052-.206-.177-.3-.386-.156-.068.046-.148.073-.219.117a7.1,7.1,0,0,1-4.676.792,9.721,9.721,0,0,1-2.605-.749c-.185-.077-.407-.158-.523.038-.422.714-.973,1.331-1.459,2l-.031.017Zm2.492-11.528a7.216,7.216,0,0,0-2.715.515,4.292,4.292,0,0,0-2.89,3.43A5.836,5.836,0,0,0,8.5,76.682c.283.365.365.355.637-.027a11.826,11.826,0,0,0,.908-1.578,1.311,1.311,0,0,1,2-.644,8.483,8.483,0,0,0,2.923,1.049,6.97,6.97,0,0,0,2.7-.1,5.633,5.633,0,0,0,1.69-.948,1.768,1.768,0,0,1,2.23.228,3.518,3.518,0,0,1,.73,1.1c.056.134.079.336.247.352s.229-.18.3-.3a7.257,7.257,0,0,0,.784-6.35c-.2-.6-.193-.6-.775-.365a3.466,3.466,0,0,1-2.525.249c-.743-.253-1.507-.444-2.256-.682a13.586,13.586,0,0,0-5.345-.661" transform="translate(0 -43.599)"/>
        <path id="Path_824082" data-name="Path 824082" d="M82.75,34.221a1.819,1.819,0,0,1-1.387-2.428,7.946,7.946,0,0,1,.67-2.3,5.908,5.908,0,0,1,1.354-1.7,6.941,6.941,0,0,1,1.574-1.049c.2-.089.124-.223.125-.34q.011-1.867.009-3.734c0-4.01-.014-8.02,0-12.03a7.607,7.607,0,0,1,.425-2.284A11.877,11.877,0,0,1,93.653.42,16.88,16.88,0,0,1,95.677.058a10.062,10.062,0,0,1,2.373.036,10.688,10.688,0,0,1,2.233.467A14.123,14.123,0,0,1,103.2,1.849,8.225,8.225,0,0,1,104.634,3a12.669,12.669,0,0,1,2.794,3.764,16.508,16.508,0,0,1,.661,1.976,16.211,16.211,0,0,1,.454,5.187q.013,6.222.011,12.445a.533.533,0,0,0,.339.568,5.852,5.852,0,0,1,3.053,3.612,1.323,1.323,0,1,1-2.544.716,3.379,3.379,0,0,0-2.424-2.227q-2.589-.721-5.174-1.459a.393.393,0,0,0-.553.232,4.046,4.046,0,0,1-1.517,1.772,5.539,5.539,0,0,1-3.292.789,4.485,4.485,0,0,1-4.112-2.657c-.123-.267-.244-.256-.476-.188-1.163.339-2.327.676-3.5.982-.421.11-.821.3-1.246.363A3.621,3.621,0,0,0,84.68,30.3a3.773,3.773,0,0,0-.649,2.242c-.04,1.05-.273,1.4-1.282,1.68m4.98-15.936h0q0,3.547,0,7.093c0,.422.1.516.489.4,1.1-.319,2.186-.653,3.3-.906a.427.427,0,0,0,.376-.5,8.3,8.3,0,0,1,0-1.2,1.417,1.417,0,0,0-.441-1.1,7.149,7.149,0,0,1-2.069-5.1c.028-.995.008-1.991,0-2.987A1.145,1.145,0,0,1,90.4,12.72a26.706,26.706,0,0,0,4.577-1.546,6.386,6.386,0,0,0,3.407-3.421,1.181,1.181,0,0,1,.967-.783,1.168,1.168,0,0,1,1.335.6,9.036,9.036,0,0,0,2.045,2.687,5.428,5.428,0,0,1,1.527,3.721c.056,1.048.04,2.1,0,3.152a7.057,7.057,0,0,1-2.226,5.055.7.7,0,0,0-.263.57c.014.58.016,1.161,0,1.742-.006.253.08.353.331.42,1.119.3,2.23.626,3.344.942.477.135.479.133.479-.359q0-6.388,0-12.776a15.375,15.375,0,0,0-.161-2.311,8.8,8.8,0,0,0-3.32-5.76,9.208,9.208,0,0,0-6.107-1.94,8.641,8.641,0,0,0-3.595.921,8.43,8.43,0,0,0-3.866,3.71,9.3,9.3,0,0,0-1.142,4.466c0,2.157,0,4.314,0,6.471m13.9-2.722h0c0-.469,0-.939,0-1.409a2.951,2.951,0,0,0-.963-2.188c-.269-.257-.512-.542-.755-.825-.167-.195-.278-.254-.476,0a8.046,8.046,0,0,1-2.657,2.137,20.285,20.285,0,0,1-4.332,1.671c-.339.086-.511.211-.469.6a9.346,9.346,0,0,1,.02,1.407,4.126,4.126,0,0,0,.8,2.567,4.573,4.573,0,0,0,3.987,2.137,4.843,4.843,0,0,0,3.244-1.208,5.049,5.049,0,0,0,1.6-3.481,12.843,12.843,0,0,0,.008-1.408m-7.083,9.621h.01c0,.277,0,.553,0,.83a1.738,1.738,0,0,0,1.258,1.6,3.249,3.249,0,0,0,2-.071,1.671,1.671,0,0,0,1.142-1.3,8.964,8.964,0,0,0,.163-1.787c.016-.374-.111-.458-.447-.355a6.078,6.078,0,0,1-1.791.225,6.5,6.5,0,0,1-2.034-.237c-.271-.087-.333,0-.306.264a8.116,8.116,0,0,1,.006.829" transform="translate(-54.296 0)"/>
        <path id="Path_824083" data-name="Path 824083" d="M85.54,89.533c1.009-.284,1.242-.63,1.282-1.68a3.771,3.771,0,0,1,.648-2.242A3.62,3.62,0,0,1,89.9,84.192c.425-.067.826-.253,1.246-.363,1.172-.306,2.335-.642,3.5-.982.232-.068.354-.078.476.188a4.485,4.485,0,0,0,4.113,2.658,5.539,5.539,0,0,0,3.291-.789,4.047,4.047,0,0,0,1.517-1.772.394.394,0,0,1,.554-.232q2.585.735,5.174,1.458a3.38,3.38,0,0,1,2.424,2.227,1.383,1.383,0,0,0,1.427,1.028c.126,3.513-.006,7.027.066,10.54.007.3-.089.441-.4.424a3.292,3.292,0,0,1-.9-.066c.155-.705.432-1.381.522-2.1.051-.4.1-.807.144-1.21.072-.035.072-.071,0-.11,0-.071.007-.142.011-.212.072-.041.067-.084,0-.128q0-.269-.007-.539c.069-.043.065-.081-.008-.115a10.764,10.764,0,0,0-1.448-4.937,6.178,6.178,0,0,0-1.135-1.534,1.22,1.22,0,0,0-1.89-.018,5.965,5.965,0,0,1-.9.73,2.472,2.472,0,0,1-2.108.129c-1.179-.339-2.309-.831-3.512-1.094-.8-.174-1.6-.293-2.411-.393-.613-.075-1.232-.089-1.837-.111a16.215,16.215,0,0,0-2.539.111,15.045,15.045,0,0,0-2.054.35,9.257,9.257,0,0,0-4.882,2.956,8.82,8.82,0,0,0-1.865,4.225,7.706,7.706,0,0,0,.18,3.627,2.622,2.622,0,0,1,.057.325c-.385,0-.864.139-1.128-.04s-.049-.678-.05-1.036c-.009-2.617,0-5.234,0-7.852" transform="translate(-57.086 -55.312)" fill="#63c165"/>
        <path id="Path_824084" data-name="Path 824084" d="M72.267,213.7a.3.3,0,0,1,0,.417.267.267,0,0,1,0-.417" transform="translate(-48.207 -142.747)" fill="#55575e"/>
        <path id="Path_824085" data-name="Path 824085" d="M72.31,210.216a.31.31,0,0,1-.035.412c-.12-.148-.149-.289.035-.412" transform="translate(-48.214 -140.419)" fill="#55575e"/>
        <path id="Path_824086" data-name="Path 824086" d="M183.1,251.275c-.219-.123-.184-.239.009-.352a.514.514,0,0,1-.009.352" transform="translate(-122.203 -167.61)" fill="#55575e"/>
        <path id="Path_824087" data-name="Path 824087" d="M72.231,209.181a.325.325,0,0,1,.162-.2c.012.086.053.177-.05.238l-.112-.04" transform="translate(-48.248 -139.595)" fill="#55575e"/>
        <path id="Path_824088" data-name="Path 824088" d="M231.892,140.526a.072.072,0,0,1,.118.007.075.075,0,0,1-.118-.007" transform="translate(-154.898 -93.849)" fill="#55575e"/>
        <path id="Path_824089" data-name="Path 824089" d="M30.336,139.519c-.005.062-.041.078-.1.062l.1-.062" transform="translate(-20.2 -93.195)" fill="#55575e"/>
        <path id="Path_824090" data-name="Path 824090" d="M174.983,214a4.787,4.787,0,0,1,.038,1.394,6.682,6.682,0,0,1-.038-1.394" transform="translate(-116.872 -142.948)" fill="#55575e"/>
        <path id="Path_824091" data-name="Path 824091" d="M175.356,247.294l.008.6a1.046,1.046,0,0,1-.008-.6" transform="translate(-117.106 -165.186)" fill="#55575e"/>
        <path id="Path_824092" data-name="Path 824092" d="M174.989,213.26l.024.023-.023.024a.032.032,0,0,1,0-.047" transform="translate(-116.882 -142.452)" fill="#55575e"/>
        <path id="Path_824093" data-name="Path 824093" d="M115.423,113.877c-.247-.516-.468-1-.712-1.479a2.65,2.65,0,0,0-.547-.725,1.87,1.87,0,0,0-2.618-.1,5.92,5.92,0,0,1-4.889,1.275,12.1,12.1,0,0,1-4.065-1.339,1.321,1.321,0,0,0-2.05.655c-.429.806-.929,1.569-1.417,2.339-.159.25-.269.324-.514.062a7.152,7.152,0,0,1-2.121-6.47,5.486,5.486,0,0,1,3.678-4.341,12.453,12.453,0,0,1,3.311-.68,19.557,19.557,0,0,1,8.036,1.238,8.248,8.248,0,0,0,2.358.544,2.86,2.86,0,0,0,1.037-.165,7.724,7.724,0,0,0,1.371-.57c.28-.172.4-.115.528.166a8.512,8.512,0,0,1,.752,4.876,8.63,8.63,0,0,1-2.138,4.71" transform="translate(-64.367 -68.815)" fill="#55575e"/>
        <path id="Path_824094" data-name="Path 824094" d="M121.038,140.8a9.16,9.16,0,0,1-.257,2.972,7.8,7.8,0,0,1-.9,1.7,8.491,8.491,0,0,1-4,3.135,3.529,3.529,0,0,1-2.833-.03,8.677,8.677,0,0,1-4.515-4.072,4.621,4.621,0,0,1-.526-2.118q0-1.286-.007-2.573a.6.6,0,0,1,.185-.481,10.685,10.685,0,0,0,1.78-2.382c.148-.254.272-.283.522-.17a12.667,12.667,0,0,0,3.74,1.06,8.238,8.238,0,0,0,5.74-1.222c.435-.293.459-.279.606.21a10.8,10.8,0,0,1,.465,3.97" transform="translate(-72.141 -91.129)" fill="#f8f9fb"/>
        <path id="Path_824095" data-name="Path 824095" d="M117.518,180.692c0-.373.021-.747-.007-1.118-.021-.29.117-.292.313-.227a3.775,3.775,0,0,1,.375.173,6.065,6.065,0,0,0,2.849.64,7.217,7.217,0,0,0,2.8-.771c.452-.216.462-.215.451.267a14.767,14.767,0,0,1-.15,2.9,2.846,2.846,0,0,1-2.667,2.235,6.239,6.239,0,0,1-1.2-.027,3.563,3.563,0,0,1-2.656-2.348,3.665,3.665,0,0,1-.088-1.478c0-.083,0-.166,0-.248h-.023" transform="translate(-78.493 -119.735)" fill="#f8f9fb"/>
        <path id="Path_824096" data-name="Path 824096" d="M168.552,118.774c.065.044.069.087,0,.128a.089.089,0,0,1,0-.128" transform="translate(-112.57 -79.338)" fill="#55575e"/>
        <path id="Path_824097" data-name="Path 824097" d="M168.567,116.806c.073.034.077.072.007.115,0-.039,0-.077-.007-.115" transform="translate(-112.598 -78.023)" fill="#55575e"/>
        <path id="Path_824098" data-name="Path 824098" d="M168.521,119.8q.105.057,0,.109a.46.46,0,0,1-.02-.076c0-.01.015-.022.023-.033" transform="translate(-112.553 -80.023)" fill="#55575e"/>
        <path id="Path_824099" data-name="Path 824099" d="M84.369,162.776a.073.073,0,0,1,0,.124l0-.124" transform="translate(-56.356 -108.73)" fill="#55575e"/>
        <path id="Path_824100" data-name="Path 824100" d="M84.383,163.766a.08.08,0,0,1,0,.13c0-.043,0-.086,0-.13" transform="translate(-56.366 -109.391)" fill="#55575e"/>
        <path id="Path_824101" data-name="Path 824101" d="M84.372,164.766a.078.078,0,0,1,0,.129c0-.044,0-.086,0-.129" transform="translate(-56.358 -110.059)" fill="#55575e"/>
        <path id="Path_824102" data-name="Path 824102" d="M84.359,165.77a.073.073,0,0,1,0,.127v-.127" transform="translate(-56.35 -110.73)" fill="#55575e"/>
        <path id="Path_824103" data-name="Path 824103" d="M84.351,166.773c.051.042.051.083,0,.125v-.125" transform="translate(-56.344 -111.4)" fill="#55575e"/>
        <path id="Path_824104" data-name="Path 824104" d="M84.344,167.777c.052.041.052.082,0,.122,0-.041,0-.082,0-.122" transform="translate(-56.34 -112.071)" fill="#55575e"/>
        <path id="Path_824105" data-name="Path 824105" d="M84.338,168.782q.079.059,0,.119c0-.04,0-.079,0-.119" transform="translate(-56.336 -112.742)" fill="#55575e"/>
        <path id="Path_824106" data-name="Path 824106" d="M84.331,169.786c.053.039.053.077,0,.116,0-.039,0-.077,0-.116" transform="translate(-56.331 -113.413)" fill="#55575e"/>
        <path id="Path_824107" data-name="Path 824107" d="M84.326,170.791c.054.038.053.075,0,.113,0-.038,0-.075,0-.113" transform="translate(-56.328 -114.084)" fill="#55575e"/>
        <path id="Path_824108" data-name="Path 824108" d="M84.322,171.794c.053.037.053.074,0,.11,0-.037,0-.074,0-.11" transform="translate(-56.325 -114.754)" fill="#55575e"/>
        <path id="Path_824109" data-name="Path 824109" d="M84.326,180.8a.069.069,0,0,1,.008.122c0-.041-.006-.081-.008-.122" transform="translate(-56.328 -120.769)" fill="#55575e"/>
        <path id="Path_824110" data-name="Path 824110" d="M84.295,177.8l.023.01-.023.011V177.8" transform="translate(-56.307 -118.769)" fill="#55575e"/>
        <path id="Path_824111" data-name="Path 824111" d="M84.3,179.8l.026.012-.025.012V179.8" transform="translate(-56.313 -120.102)" fill="#55575e"/>
        <path id="Path_824112" data-name="Path 824112" d="M84.3,175.8l.025.012-.024.012V175.8" transform="translate(-56.311 -117.43)" fill="#55575e"/>
        <path id="Path_824113" data-name="Path 824113" d="M84.426,181.783l0,.022-.022-.01Z" transform="translate(-56.382 -121.427)" fill="#55575e"/>
        <path id="Path_824114" data-name="Path 824114" d="M84.306,174.8l.026.013-.025.013V174.8" transform="translate(-56.314 -116.76)" fill="#55575e"/>
        <path id="Path_824115" data-name="Path 824115" d="M84.31,173.8l.026.014-.026.014V173.8" transform="translate(-56.317 -116.091)" fill="#55575e"/>
        <path id="Path_824116" data-name="Path 824116" d="M84.315,172.79l.027.016-.027.016v-.031" transform="translate(-56.32 -115.419)" fill="#55575e"/>
        <path id="Path_824117" data-name="Path 824117" d="M84.3,178.8l.024.011-.023.011V178.8" transform="translate(-56.308 -119.435)" fill="#55575e"/>
        <path id="Path_824118" data-name="Path 824118" d="M201.183,90.805c0,1.535-.007,3.07.006,4.605,0,.288-.084.416-.375.376a24.476,24.476,0,0,0-2.648-.071c-.088,0-.219.046-.246-.08-.013-.058.059-.147.111-.2a7.189,7.189,0,0,0,1.74-5.045c0-.678,0-1.355,0-2.033a1.464,1.464,0,0,0-1.3-1.611,17.551,17.551,0,0,1-4.329-1.5,5.814,5.814,0,0,1-2.932-3.053,1.331,1.331,0,0,0-1.707-.835,1.093,1.093,0,0,0-.618.569,10.656,10.656,0,0,1-1.842,2.507,5.134,5.134,0,0,0-1.543,3.683,35.854,35.854,0,0,0,.069,3.6,6.892,6.892,0,0,0,1.518,3.53,1.489,1.489,0,0,1,.213.3c.065.145.021.242-.166.22a24.2,24.2,0,0,0-2.693-.039c-.3,0-.5-.041-.376-.416a1.394,1.394,0,0,0,.016-.412c0-3.057,0-6.113.013-9.169a8.382,8.382,0,0,1,2.2-5.533,8.3,8.3,0,0,1,2.493-1.9,8.687,8.687,0,0,1,2.485-.772,9,9,0,0,1,3.285.135,8.2,8.2,0,0,1,5.335,3.906,9.493,9.493,0,0,1,1.274,4.758c.043,1.492.009,2.987.009,4.48h.006" transform="translate(-122.931 -51.721)" fill="#55575e"/>
        <path id="Path_824119" data-name="Path 824119" d="M196.33,105.447c.024-.522-.038-1.211.031-1.9a2.016,2.016,0,0,1,.52-1.17c.356-.4.722-.8,1.083-1.2.085-.094.162-.2.289-.037a11.262,11.262,0,0,0,5.091,3.176,14.688,14.688,0,0,0,1.736.528c.157.04.252.088.253.26a8.451,8.451,0,0,1-.343,3.08,4.511,4.511,0,0,1-8.557-.6,8.558,8.558,0,0,1-.1-2.14" transform="translate(-131.134 -67.503)" fill="#f8f9fb"/>
        <path id="Path_824120" data-name="Path 824120" d="M206.3,138.628l.642-.092c.629-.09.665-.094.732.485a3.9,3.9,0,0,1-.1,1.591,1.3,1.3,0,0,1-.633.789,2.672,2.672,0,0,1-2.429.128,1.72,1.72,0,0,1-1.037-1.624c-.024-.357.025-.72-.012-1.075-.04-.394.163-.444.455-.374a8.64,8.64,0,0,0,1.252.2,3.609,3.609,0,0,0,.948,0,.119.119,0,0,0,.179-.022" transform="translate(-135.907 -92.467)" fill="#f8f9fb"/>
        <path id="Path_824121" data-name="Path 824121" d="M211.653,138.972a.119.119,0,0,1-.179.022.125.125,0,0,1,.179-.022" transform="translate(-141.259 -92.812)" fill="#55575e"/>
        <path id="Path_824122" data-name="Path 824122" d="M26.969,73.371a13.586,13.586,0,0,1,5.345.661c.749.237,1.513.428,2.256.682a3.466,3.466,0,0,0,2.525-.249c.582-.239.572-.239.775.365a7.257,7.257,0,0,1-.784,6.35c-.075.123-.134.319-.3.3s-.191-.218-.247-.352a3.518,3.518,0,0,0-.73-1.1,1.768,1.768,0,0,0-2.23-.228,5.633,5.633,0,0,1-1.69.948,6.969,6.969,0,0,1-2.7.1,8.483,8.483,0,0,1-2.923-1.049,1.311,1.311,0,0,0-2,.644,11.826,11.826,0,0,1-.908,1.578c-.273.381-.354.391-.637.027a5.836,5.836,0,0,1-1.354-4.744,4.292,4.292,0,0,1,2.89-3.43,7.216,7.216,0,0,1,2.715-.515" transform="translate(-14.214 -48.978)" fill="#55575e"/>
        <path id="Path_824123" data-name="Path 824123" d="M30.858,103.5c.486-.665,1.037-1.282,1.459-2,.116-.2.337-.116.523-.038a9.724,9.724,0,0,0,2.605.749,7.1,7.1,0,0,0,4.677-.792c.07-.043.15-.071.218-.117.21-.141.335-.049.386.156a7.432,7.432,0,0,1,.322,1.969c-.012.58-.033,1.162-.007,1.741A4.944,4.944,0,0,1,39.2,109.2a6.724,6.724,0,0,1-2.392,1.444,2.8,2.8,0,0,1-2.226-.116,7.32,7.32,0,0,1-3.156-2.774,3.751,3.751,0,0,1-.618-2.136c.032-.688-.039-1.379.032-2.067l.03-.015Z" transform="translate(-20.579 -67.626)" fill="#f8f9fb"/>
        <path id="Path_824124" data-name="Path 824124" d="M43.623,137.025q0,.476,0,.952c-.045.033-.053.069-.008.109a2.325,2.325,0,0,1-1.154,1.966,2.672,2.672,0,0,1-3.943-2.3c0-.331.016-.663,0-.993s.078-.42.4-.263a4.757,4.757,0,0,0,2.25.5,6.3,6.3,0,0,0,2.05-.494c.127-.048.242-.137.391-.1l.037.106q0,.193-.007.386c-.063.035-.075.075-.012.123" transform="translate(-25.728 -91.111)" fill="#f8f9fb"/>
        <path id="Path_824125" data-name="Path 824125" d="M53.819,141.259c-.045-.04-.037-.076.008-.109a.066.066,0,0,1-.008.109" transform="translate(-35.93 -94.285)" fill="#55575e"/>
        <path id="Path_824126" data-name="Path 824126" d="M53.812,138.038c-.063-.047-.052-.087.012-.123,0,.041-.008.082-.012.123" transform="translate(-35.917 -92.124)" fill="#55575e"/>
        <path id="Path_824127" data-name="Path 824127" d="M53.879,136.538l-.037-.106c.059.019.065.056.037.106" transform="translate(-35.965 -91.133)" fill="#55575e"/>
        <path id="Path_824128" data-name="Path 824128" d="M30.9,108.051l.016.031-.03.015-.016-.029Z" transform="translate(-20.617 -72.176)" fill="#fa486e"/>
        <path id="Path_824129" data-name="Path 824129" d="M100.693,23.747c0-2.157,0-4.314,0-6.471a9.3,9.3,0,0,1,1.142-4.466A8.43,8.43,0,0,1,105.7,9.1a8.639,8.639,0,0,1,3.595-.921,9.208,9.208,0,0,1,6.107,1.94,8.8,8.8,0,0,1,3.32,5.76,15.418,15.418,0,0,1,.161,2.311q0,6.388,0,12.776c0,.492,0,.494-.479.359-1.114-.315-2.225-.643-3.344-.942-.251-.067-.337-.167-.331-.42.015-.58.013-1.161,0-1.742a.7.7,0,0,1,.263-.57,7.056,7.056,0,0,0,2.226-5.055c.038-1.05.054-2.1,0-3.152a5.43,5.43,0,0,0-1.527-3.721,9.03,9.03,0,0,1-2.045-2.687,1.168,1.168,0,0,0-1.335-.6,1.181,1.181,0,0,0-.967.783,6.386,6.386,0,0,1-3.407,3.421,26.705,26.705,0,0,1-4.577,1.546,1.145,1.145,0,0,0-1.005,1.262c0,1,.023,1.992,0,2.987a7.149,7.149,0,0,0,2.069,5.1,1.417,1.417,0,0,1,.441,1.1,8.258,8.258,0,0,0,0,1.2.427.427,0,0,1-.376.5c-1.114.252-2.2.586-3.3.906-.392.114-.489.02-.489-.4q0-3.547,0-7.093Z" transform="translate(-67.26 -5.462)" fill="#55575e"/>
        <path id="Path_824130" data-name="Path 824130" d="M123.123,37.636a12.846,12.846,0,0,1-.008,1.408,5.048,5.048,0,0,1-1.6,3.481,4.842,4.842,0,0,1-3.244,1.208,4.572,4.572,0,0,1-3.987-2.137,4.125,4.125,0,0,1-.8-2.567,9.439,9.439,0,0,0-.02-1.408c-.042-.394.129-.518.468-.6a20.3,20.3,0,0,0,4.332-1.671,8.047,8.047,0,0,0,2.657-2.137c.2-.249.309-.19.476,0a11.178,11.178,0,0,0,.755.825,2.952,2.952,0,0,1,.963,2.188c0,.469,0,.939,0,1.409h0" transform="translate(-75.791 -22.072)" fill="#f8f9fb"/>
        <path id="Path_824131" data-name="Path 824131" d="M121.2,73.585a8.12,8.12,0,0,0-.006-.829c-.028-.268.035-.351.306-.264a6.494,6.494,0,0,0,2.034.237,6.078,6.078,0,0,0,1.791-.225c.336-.1.463-.019.447.355a8.962,8.962,0,0,1-.163,1.787,1.671,1.671,0,0,1-1.142,1.3,3.249,3.249,0,0,1-2,.071,1.738,1.738,0,0,1-1.258-1.6c0-.277,0-.553,0-.83h-.01" transform="translate(-80.95 -48.4)" fill="#f8f9fb"/>
      </g>
    </g>
  </g>
</svg>
