<svg xmlns="http://www.w3.org/2000/svg" xmlns:xlink="http://www.w3.org/1999/xlink" width="120" height="120" viewBox="0 0 120 120">
  <defs>
    <clipPath id="clip-path">
      <rect id="Rectangle_378427" data-name="Rectangle 378427" width="88.769" height="89" fill="none"/>
    </clipPath>
  </defs>
  <g id="Group_1074353" data-name="Group 1074353" transform="translate(-180 -23974.736)">
    <circle id="Ellipse_5980" data-name="Ellipse 5980" cx="60" cy="60" r="60" transform="translate(180 23974.736)" fill="#ffae7e"/>
    <g id="Group_1074780" data-name="Group 1074780" transform="translate(196.23 23990.236)">
      <g id="Group_1074779" data-name="Group 1074779" clip-path="url(#clip-path)">
        <path id="Path_824132" data-name="Path 824132" d="M73.934,153.992c-.37.232-.7.449-1.035.647a7.58,7.58,0,0,1-4.06,1.048c-.662-.013-1.325.007-1.988-.006-.237,0-.338.048-.29.307a8.567,8.567,0,0,1,.1,1.366,4.693,4.693,0,0,1-3.106,4.176,4.341,4.341,0,0,1-2.621.081.4.4,0,0,0-.548.275,4.514,4.514,0,0,1-3.474,2.782,4.164,4.164,0,0,1-1.88-.093.4.4,0,0,0-.554.259,4.492,4.492,0,0,1-3.386,2.778,4.023,4.023,0,0,1-3.6-.914c-.294-.251-.429-.243-.626.127a4.646,4.646,0,0,1-4.522,2.349,4.579,4.579,0,0,1-2.935-1.62.583.583,0,0,0-.786-.186,4.241,4.241,0,0,1-4.106-.4,4.061,4.061,0,0,1-1.7-2.02c-.121-.346-.285-.438-.649-.346a4.24,4.24,0,0,1-3.678-.653,4.986,4.986,0,0,1-2.029-3.423c-.028-.2-.1-.2-.245-.217a4.688,4.688,0,0,1-3.765-2.748,5.475,5.475,0,0,1-.425-1.455c-.035-.167-.048-.216-.226-.24A4.64,4.64,0,0,1,18.9,154.42a.594.594,0,0,0-.477-.219c-1.109.009-2.218.007-3.328,0-.186,0-.29.007-.324.251a7.251,7.251,0,0,1-.3,1.27,4.385,4.385,0,0,1-3.544,2.835,53.322,53.322,0,0,1-6.957.039A4.17,4.17,0,0,1,.413,155.97,4.584,4.584,0,0,1,0,153.947Q.007,143.774,0,133.6a4.5,4.5,0,0,1,2.836-4.178,6.072,6.072,0,0,1,2.083-.37c1.556-.016,3.112-.011,4.669,0a5.754,5.754,0,0,1,3.638,1.154,4.963,4.963,0,0,1,1.168,1.547c.1.174.157.259.354.259,2.865,0,5.731.031,8.6-.022a9.272,9.272,0,0,0,2.625-.768c3.413-1.121,6.819-2.264,10.233-3.384a5.166,5.166,0,0,1,1.6-.262c5.746-.007,11.493-.02,17.239,0a15.667,15.667,0,0,1,5.689,1.187c.829.326,1.686.577,2.524.88,1.21.437,2.4.933,3.624,1.323.924.294,1.8.706,2.724.993a1.6,1.6,0,0,0,.5.045c1.263.005,2.527,0,3.79.009a.455.455,0,0,0,.5-.333,4.175,4.175,0,0,1,3.123-2.437,34.319,34.319,0,0,1,6.424-.172,4.828,4.828,0,0,1,2.845.829,4.019,4.019,0,0,1,1.874,3.176c.238,6,.046,12.007.1,18.011.008.894.025,1.789,0,2.682a5.029,5.029,0,0,1-1.062,3.247,4.266,4.266,0,0,1-3.3,1.624c-2.11.01-4.221.012-6.331-.015a3.936,3.936,0,0,1-2.595-1.134,4.736,4.736,0,0,1-1.527-3.5M14.757,151.35a1.028,1.028,0,0,1,.665-.1c.6,0,1.2-.01,1.8,0,.241.005.324-.045.357-.318a5.425,5.425,0,0,1,1.717-3.314c.874-.844,1.737-1.7,2.618-2.538,2.444-2.322,5.832-1.52,7.414,1.318a.675.675,0,0,0,.706.388,6.269,6.269,0,0,1,2.318.1,4.562,4.562,0,0,1,3.241,3.823c.013.268.107.4.36.435.195.029.388.067.581.1a4.473,4.473,0,0,1,3.476,3.694c.058.5.219.594.674.683a4.538,4.538,0,0,1,3.706,3.362,2.775,2.775,0,0,0,.731,1.227c.972.986,1.97,1.945,2.919,2.954a5.068,5.068,0,0,0,1.647,1.473,1.623,1.623,0,0,0,2.184-1.449,2.148,2.148,0,0,0-.819-1.6q-2.965-3-5.952-5.977c-.261-.26-.295-.431-.006-.7.508-.47.982-.977,1.461-1.478a.357.357,0,0,1,.589-.018l.894.9q2.271,2.272,4.543,4.543,1.161,1.155,2.344,2.29a1.682,1.682,0,0,0,1.321.639,1.6,1.6,0,0,0,1.39-.915,1.537,1.537,0,0,0-.15-1.656,7.539,7.539,0,0,0-.685-.749c-2.922-2.939-5.838-5.884-8.782-8.8-.326-.324-.185-.536.026-.7a12.954,12.954,0,0,0,1.287-1.25c.481-.489.554-.5,1.027-.027q5.19,5.2,10.382,10.4a5.38,5.38,0,0,0,.723.569,1.607,1.607,0,0,0,2.247-1.372,2.021,2.021,0,0,0-.7-1.487c-3.441-3.4-6.78-6.9-10.3-10.214-.726-.685-1.269-1.53-2.035-2.173-.25-.21-.455-.607-.841-.25-.156.144-.331.254-.485.391-1.234,1.1-2.5,2.156-3.791,3.187a5.661,5.661,0,0,1-5.569,1.278,5.517,5.517,0,0,1-3.832-4.294,5.331,5.331,0,0,1,1.008-4.422,11.028,11.028,0,0,1,2.054-1.985c2.6-2.151,5.141-4.363,7.792-6.448.072-.057.167-.108.136-.218s-.143-.1-.231-.106c-.107-.009-.215-.009-.323-.009-2.85,0-5.7-.009-8.55,0a4.441,4.441,0,0,0-1.384.244c-3.4,1.136-6.806,2.253-10.2,3.391a13.612,13.612,0,0,1-4.983.819c-2.076-.092-4.159-.012-6.238-.032-.368,0-.452.1-.451.457.012,4.762,0,9.524.022,14.286,0,.535,0,1.065-.051,1.648M66.9,152.725v0c.663,0,1.325,0,1.988,0a5.079,5.079,0,0,0,2.928-.9c.594-.412,1.2-.8,1.818-1.184a.689.689,0,0,0,.326-.66q-.005-7.33,0-14.659c0-.289-.079-.359-.361-.356-1.278.015-2.557.007-3.836,0a1.894,1.894,0,0,1-.411-.03c-.906-.2-1.769-.554-2.653-.827-1.318-.407-2.6-.944-3.894-1.417q-1.978-.72-3.961-1.422a10.513,10.513,0,0,0-3.588-.664,8.719,8.719,0,0,0-5.364,1.8c-1.066.8-2.087,1.668-3.118,2.52-.984.813-1.962,1.633-2.926,2.471-1.356,1.178-2.829,2.224-4.1,3.494a2.323,2.323,0,0,0-.577,2.6,2.7,2.7,0,0,0,2.625,1.826,2.982,2.982,0,0,0,1.734-.77q3.2-2.659,6.393-5.32c.477-.4.472-.4.885.031a7.948,7.948,0,0,0,6.975,2.826,8.45,8.45,0,0,0,4.574-2.147c.236-.2.361-.229.544,0,.487.616.971,1.235,1.466,1.844.155.19.173.335-.031.5a11.833,11.833,0,0,1-7,2.854c-.175.009-.435-.094-.505.1s.18.272.32.378a2.243,2.243,0,0,1,.231.225q3.265,3.271,6.526,6.546a1.035,1.035,0,0,0,.814.342c.724-.017,1.448-.005,2.172-.005m10.018-9.062h0q0,5.106,0,10.213a1.591,1.591,0,0,0,1.816,1.808q2.588,0,5.174,0c1.3,0,1.883-.594,1.883-1.9q0-9.89,0-19.779c0-.123.006-.247,0-.369a1.587,1.587,0,0,0-1.14-1.516,6.042,6.042,0,0,0-1.05-.1c-1.555-.01-3.11,0-4.665-.007a4.129,4.129,0,0,0-.954.129,1.337,1.337,0,0,0-1.057,1.358q0,5.083,0,10.167m-65.084.174q0-4.969,0-9.937a1.659,1.659,0,0,0-1.71-1.871c-1.862-.046-3.726-.033-5.59-.009a1.621,1.621,0,0,0-1.575,1.5q0,10.191,0,20.382a1.616,1.616,0,0,0,1.771,1.781q2.588,0,5.175,0c1.335,0,1.928-.6,1.928-1.956q0-4.945,0-9.891m20.8,7.467a1.556,1.556,0,0,0-1.139-1.585,1.648,1.648,0,0,0-1.639.466C28.376,151.51,27,152.941,25.6,154.35a3.29,3.29,0,0,0-.411.5A1.31,1.31,0,0,0,25,156.022c.519,1.359,1.785,1.789,2.887.73,1.466-1.41,2.878-2.873,4.291-4.334a1.373,1.373,0,0,0,.46-1.115m4.448,4.534a1.6,1.6,0,0,0-.9-1.58,1.476,1.476,0,0,0-1.712.223,63.959,63.959,0,0,0-4.673,4.587,1.392,1.392,0,0,0-.331,1.394,1.651,1.651,0,0,0,2.907.686q2.132-2.112,4.217-4.266a1.393,1.393,0,0,0,.494-1.045m-10.352-7.381a1.614,1.614,0,0,0-.945-1.619,1.549,1.549,0,0,0-1.747.3c-.385.33-.76.674-1.122,1.029q-.989.968-1.957,1.957a1.386,1.386,0,0,0-.391,1.466,1.649,1.649,0,0,0,2.914.686q1.382-1.392,2.753-2.793a1.389,1.389,0,0,0,.5-1.026m14.785,11.791a1.563,1.563,0,0,0-.863-1.533,1.464,1.464,0,0,0-1.716.186,30.679,30.679,0,0,0-3.242,3.15,1.413,1.413,0,0,0-.3,1.4,1.64,1.64,0,0,0,2.885.661c.911-.939,1.842-1.859,2.755-2.8a1.42,1.42,0,0,0,.487-1.07m2.954,4.355a1.88,1.88,0,0,0-.78-1.506c-.1-.091-.155-.119-.282.022-.506.557-1.044,1.085-1.571,1.622-.616.626-.613.664.132,1.149.064.042.133.078.2.121a1.569,1.569,0,0,0,2.305-1.408" transform="translate(-0.001 -80.209)"/>
        <path id="Path_824133" data-name="Path 824133" d="M78.541,44.4q-11.531,0-23.062.006c-.407,0-.65.013-.574-.555a14.528,14.528,0,0,0,.017-2.124c0-.213.047-.324.278-.287a.385.385,0,0,0,.092,0c.362-.033.845.164,1.055-.084.177-.209.057-.675.058-1.027,0-4.316-.041-8.631.026-12.946a7.708,7.708,0,0,0-.886-3.7c-.339-.667-.7-1.326-1.05-1.986-.083-.154-.15-.261.092-.357,1.874-.748,3.742-1.511,5.614-2.266q2.994-1.207,5.991-2.407c1.558-.62,3.115-1.245,4.689-1.822.3-.111.318-.254.318-.492,0-1.387-.009-2.774.009-4.161A7.231,7.231,0,0,1,72.589,6.08a7.037,7.037,0,0,1,2.618-2.262,6.731,6.731,0,0,1,1.449-.551.52.52,0,0,0,.458-.607c0-.74.024-1.481-.011-2.219-.019-.385.121-.451.463-.439.692.025,1.387.025,2.079,0,.331-.012.452.055.437.419-.032.8,0,1.6-.016,2.4-.006.266.1.362.34.427A7.185,7.185,0,0,1,85.79,8.945a17,17,0,0,1,.2,4.027c0,.493,0,.986,0,1.48,0,.141-.01.285.153.349,1.777.692,3.562,1.361,5.329,2.077,3.635,1.472,7.3,2.868,10.913,4.394.319.134.327.3.2.538q-.826,1.631-1.666,3.255a1.166,1.166,0,0,0-.147.559q.007,7.721,0,15.442c0,.3.066.4.376.383.35-.024.818-.126,1.026.051.247.21.068.692.079,1.055.016.508-.012,1.018.01,1.525.012.272-.086.357-.339.322a2.088,2.088,0,0,0-.277,0H78.541m.053-20.724H97.588a1.128,1.128,0,0,0,.795-.162c.114-.1.267-.186.242-.367s-.169-.238-.319-.295c-.446-.166-.888-.341-1.332-.512-2.113-.811-4.2-1.685-6.318-2.488-1-.38-2.017-.767-2.991-1.235-.245-.117-.562-.106-.78-.252a15.38,15.38,0,0,0-2.475-1.048c-1.528-.683-3.11-1.242-4.657-1.883a2.524,2.524,0,0,0-2.209-.081c-.384.187-.767.387-1.162.546-2.191.884-4.391,1.744-6.586,2.618q-4.3,1.711-8.591,3.429c-.755.3-1.514.6-2.267.9-.16.065-.4.105-.37.347.026.212.21.326.4.415a1.4,1.4,0,0,0,.637.063q9.5,0,18.993,0m-4.439-12.04c0,.446,0,.893,0,1.339,0,.49.068.536.5.333,1.124-.537,2.3-.935,3.455-1.409a1.046,1.046,0,0,1,.842-.015c1.195.483,2.4.948,3.589,1.44.337.139.505.1.492-.293a22.961,22.961,0,0,0-.095-3.314,4.232,4.232,0,0,0-1.322-2.611,4.435,4.435,0,0,0-3.6-1.071,4.083,4.083,0,0,0-3.267,2.2,6.4,6.4,0,0,0-.593,3.405M59.364,34.044c0,2.342.006,4.685-.007,7.027,0,.3.081.387.381.378.754-.022,1.51-.019,2.264,0,.271.007.326-.087.326-.339q-.011-7.073,0-14.146c0-.272-.1-.3-.338-.33-.715-.1-1.431.1-2.15-.053-.226-.049-.5.053-.492.484.033,2.326.015,4.653.015,6.98m5.917,0c0,2.342.006,4.685-.007,7.027,0,.3.081.387.381.378.754-.022,1.509-.019,2.264,0,.271.007.326-.087.325-.339q-.01-7.073,0-14.146c0-.272-.1-.3-.338-.33-.715-.1-1.431.1-2.15-.053-.226-.049-.5.053-.492.484.032,2.326.015,4.653.015,6.98m11.833-.038c0,2.326.011,4.653-.011,6.98,0,.4.114.483.485.465.661-.032,1.325-.032,1.986,0,.385.018.52-.058.511-.487-.032-1.572-.013-3.144-.013-4.716q0-4.646,0-9.292c0-.229-.054-.292-.3-.321-.73-.088-1.461.1-2.2-.055-.239-.049-.489.074-.483.493.032,2.311.015,4.623.015,6.934m-5.917.038c0,2.327.009,4.654-.009,6.981,0,.35.086.44.43.425.707-.029,1.418-.032,2.125,0,.361.017.421-.1.42-.435q-.017-7,0-14.006c0-.315-.107-.342-.384-.378-.7-.091-1.4.107-2.1-.051-.224-.05-.5.05-.493.483.033,2.327.016,4.654.016,6.981M83.03,34c0,2.357.006,4.714-.007,7.07,0,.3.069.392.376.383.754-.023,1.509-.019,2.263,0,.262.006.331-.074.331-.333q-.012-7.071,0-14.141c0-.257-.063-.342-.329-.335-.738.017-1.479.027-2.217,0-.349-.014-.429.085-.427.428.017,2.311.009,4.621.009,6.932m8.875.094c0-2.357-.006-4.714.007-7.07,0-.3-.07-.392-.377-.382-.754.023-1.509.019-2.263,0-.264-.006-.331.075-.33.333q.011,7.071,0,14.141c0,.257.063.341.329.334.739-.017,1.479-.027,2.217,0,.349.014.429-.085.426-.429-.017-2.311-.009-4.621-.009-6.932m2.958-.047c0,2.342.006,4.684-.007,7.026,0,.3.078.389.38.379.739-.022,1.479-.024,2.218,0,.312.01.375-.092.374-.385q-.013-6.518-.008-13.036c0-.118.061-.274-.051-.346-.188-.123-.163-.167-.009-.321s.093-.422.042-.614-.29-.094-.44-.1c-.693-.013-1.387.016-2.079-.014-.347-.015-.431.081-.428.427.017,2.327.009,4.653.009,6.98" transform="translate(-34.216 0)"/>
        <path id="Path_824134" data-name="Path 824134" d="M39.75,156.37c.048-.582.054-1.113.051-1.648-.024-4.762-.01-9.524-.022-14.286,0-.357.082-.46.451-.457,2.08.019,4.163-.061,6.238.032a13.6,13.6,0,0,0,4.982-.819c3.4-1.138,6.805-2.256,10.2-3.391a4.433,4.433,0,0,1,1.384-.245c2.85-.012,5.7,0,8.55,0,.108,0,.216,0,.323.009.088.007.2-.006.231.106s-.064.161-.137.218c-2.651,2.084-5.2,4.3-7.792,6.448a11.017,11.017,0,0,0-2.054,1.985,5.331,5.331,0,0,0-1.008,4.422,5.519,5.519,0,0,0,3.833,4.294,5.662,5.662,0,0,0,5.57-1.278q1.94-1.546,3.791-3.187c.153-.137.329-.246.484-.391.385-.357.591.04.841.251.765.643,1.309,1.489,2.035,2.173,3.519,3.317,6.858,6.817,10.3,10.214a2.018,2.018,0,0,1,.7,1.487,1.607,1.607,0,0,1-2.248,1.371,5.351,5.351,0,0,1-.722-.569q-5.193-5.2-10.383-10.4c-.473-.474-.545-.463-1.027.027a12.957,12.957,0,0,1-1.286,1.25c-.211.162-.352.373-.026.7,2.944,2.917,5.86,5.862,8.781,8.8a7.543,7.543,0,0,1,.685.749,1.536,1.536,0,0,1,.15,1.656,1.6,1.6,0,0,1-1.39.916,1.685,1.685,0,0,1-1.321-.639q-1.182-1.133-2.343-2.289-2.277-2.266-4.543-4.543l-.894-.9a.357.357,0,0,0-.589.017c-.479.5-.953,1.008-1.461,1.478-.29.268-.256.44.005.7q2.987,2.977,5.952,5.976a2.148,2.148,0,0,1,.819,1.6,1.623,1.623,0,0,1-2.184,1.45,5.074,5.074,0,0,1-1.647-1.473c-.95-1.009-1.947-1.968-2.919-2.954A2.775,2.775,0,0,1,69.386,164a4.539,4.539,0,0,0-3.706-3.362c-.455-.089-.616-.182-.674-.683a4.473,4.473,0,0,0-3.476-3.694c-.193-.036-.387-.073-.581-.1-.254-.038-.347-.167-.36-.435a4.563,4.563,0,0,0-3.241-3.823,6.271,6.271,0,0,0-2.318-.1.674.674,0,0,1-.706-.388c-1.582-2.838-4.97-3.64-7.414-1.317-.881.837-1.744,1.694-2.618,2.538a5.426,5.426,0,0,0-1.717,3.313c-.033.273-.116.324-.357.318-.6-.013-1.2-.007-1.8,0a1.031,1.031,0,0,0-.665.1" transform="translate(-24.994 -85.229)" fill="#dfbebe"/>
        <path id="Path_824135" data-name="Path 824135" d="M132.961,157.877c-.724,0-1.449-.012-2.172.005a1.032,1.032,0,0,1-.814-.342q-3.255-3.281-6.526-6.546a2.369,2.369,0,0,0-.232-.225c-.14-.106-.387-.195-.32-.377s.331-.09.505-.1a11.833,11.833,0,0,0,7-2.854c.2-.165.186-.31.031-.5-.5-.61-.979-1.228-1.467-1.844-.183-.231-.308-.207-.543,0a8.454,8.454,0,0,1-4.574,2.147,7.947,7.947,0,0,1-6.975-2.826c-.413-.434-.408-.428-.885-.03q-3.195,2.663-6.394,5.32a2.98,2.98,0,0,1-1.733.77,2.7,2.7,0,0,1-2.625-1.826,2.322,2.322,0,0,1,.577-2.6c1.274-1.27,2.746-2.316,4.1-3.494.964-.837,1.943-1.657,2.926-2.471,1.03-.851,2.052-1.715,3.118-2.52a8.714,8.714,0,0,1,5.363-1.8,10.507,10.507,0,0,1,3.588.664q1.983.7,3.961,1.422c1.3.473,2.576,1.01,3.894,1.417.885.273,1.747.622,2.653.827a1.9,1.9,0,0,0,.411.03c1.279,0,2.558.01,3.837,0,.282,0,.361.067.36.356q-.013,7.329,0,14.659a.686.686,0,0,1-.326.66c-.614.382-1.224.772-1.818,1.184a5.076,5.076,0,0,1-2.928.9c-.663.005-1.325,0-1.988,0Z" transform="translate(-66.06 -85.362)" fill="#e7d5d5"/>
        <path id="Path_824136" data-name="Path 824136" d="M207.2,151.19q0-5.083,0-10.167a1.336,1.336,0,0,1,1.056-1.358,4.136,4.136,0,0,1,.955-.13c1.555.008,3.111,0,4.666.007a6.011,6.011,0,0,1,1.05.1,1.586,1.586,0,0,1,1.14,1.516c.01.123,0,.247,0,.37v19.779c0,1.306-.588,1.9-1.884,1.9q-2.587,0-5.174,0A1.591,1.591,0,0,1,207.2,161.4q0-5.106,0-10.213Z" transform="translate(-130.279 -87.736)" fill="#02628b"/>
        <path id="Path_824137" data-name="Path 824137" d="M16.848,151.345q0,4.945,0,9.891c0,1.355-.593,1.956-1.929,1.957q-2.587,0-5.174,0a1.617,1.617,0,0,1-1.771-1.781q0-10.191,0-20.382a1.621,1.621,0,0,1,1.575-1.5c1.863-.024,3.728-.037,5.59.009a1.659,1.659,0,0,1,1.71,1.871q0,4.969,0,9.937" transform="translate(-5.013 -87.718)" fill="#e2483c"/>
        <path id="Path_824138" data-name="Path 824138" d="M74.86,188.715a1.372,1.372,0,0,1-.46,1.114c-1.414,1.462-2.826,2.925-4.291,4.334-1.1,1.059-2.368.63-2.887-.73a1.31,1.31,0,0,1,.186-1.175,3.246,3.246,0,0,1,.411-.5c1.4-1.41,2.78-2.84,4.263-4.165a1.648,1.648,0,0,1,1.639-.466,1.556,1.556,0,0,1,1.139,1.585" transform="translate(-42.223 -117.621)" fill="#e7d5d5"/>
        <path id="Path_824139" data-name="Path 824139" d="M86.887,200.75a1.393,1.393,0,0,1-.494,1.045q-2.09,2.151-4.217,4.265a1.651,1.651,0,0,1-2.907-.686,1.393,1.393,0,0,1,.331-1.394,63.963,63.963,0,0,1,4.673-4.588,1.477,1.477,0,0,1,1.713-.223,1.6,1.6,0,0,1,.9,1.58" transform="translate(-49.803 -125.122)" fill="#e7d5d5"/>
        <path id="Path_824140" data-name="Path 824140" d="M61.443,180.845a1.391,1.391,0,0,1-.5,1.026q-1.368,1.4-2.753,2.793a1.649,1.649,0,0,1-2.913-.686,1.386,1.386,0,0,1,.39-1.466q.97-.987,1.958-1.957c.363-.355.737-.7,1.122-1.028a1.548,1.548,0,0,1,1.746-.3,1.614,1.614,0,0,1,.946,1.619" transform="translate(-34.71 -112.598)" fill="#e7d5d5"/>
        <path id="Path_824141" data-name="Path 824141" d="M101.343,212.678a1.419,1.419,0,0,1-.486,1.07c-.913.937-1.844,1.857-2.755,2.8a1.64,1.64,0,0,1-2.885-.662,1.412,1.412,0,0,1,.3-1.4,30.719,30.719,0,0,1,3.243-3.15,1.464,1.464,0,0,1,1.716-.186,1.562,1.562,0,0,1,.863,1.533" transform="translate(-59.826 -132.64)" fill="#e7d5d5"/>
        <path id="Path_824142" data-name="Path 824142" d="M114.579,224.654a1.569,1.569,0,0,1-2.305,1.408c-.063-.043-.132-.079-.2-.121-.745-.485-.748-.523-.132-1.149.528-.537,1.065-1.065,1.571-1.622.127-.14.184-.113.282-.022a1.88,1.88,0,0,1,.78,1.506" transform="translate(-70.108 -140.261)" fill="#dfbebe"/>
        <path id="Path_824143" data-name="Path 824143" d="M85.619,49.308q-9.5,0-18.993,0a1.4,1.4,0,0,1-.637-.063c-.187-.089-.371-.2-.4-.415-.03-.242.21-.281.37-.347.753-.308,1.511-.6,2.267-.9q4.3-1.714,8.591-3.429c2.195-.874,4.4-1.734,6.586-2.618.395-.159.778-.359,1.162-.546a2.524,2.524,0,0,1,2.21.081c1.547.641,3.129,1.2,4.657,1.884A15.342,15.342,0,0,1,93.909,44c.218.146.535.135.779.252.974.467,1.99.854,2.991,1.234,2.117.8,4.2,1.678,6.318,2.489.444.17.887.345,1.333.511.151.056.3.12.319.3s-.128.271-.242.367a1.13,1.13,0,0,1-.795.162H85.619" transform="translate(-41.241 -25.631)" fill="#02628b"/>
        <path id="Path_824144" data-name="Path 824144" d="M107.562,21.786a6.4,6.4,0,0,1,.593-3.405,4.084,4.084,0,0,1,3.266-2.2,4.436,4.436,0,0,1,3.6,1.071,4.233,4.233,0,0,1,1.322,2.611,22.954,22.954,0,0,1,.095,3.313c.013.389-.155.432-.492.293-1.191-.492-2.394-.956-3.589-1.44a1.05,1.05,0,0,0-.842.015c-1.15.474-2.33.872-3.455,1.409-.427.2-.492.157-.5-.332,0-.447,0-.893,0-1.339" transform="translate(-67.623 -10.15)" fill="#02628b"/>
      </g>
    </g>
  </g>
</svg>
