<svg xmlns="http://www.w3.org/2000/svg" xmlns:xlink="http://www.w3.org/1999/xlink" width="120" height="120" viewBox="0 0 120 120">
  <defs>
    <clipPath id="clip-path">
      <rect id="Rectangle_378428" data-name="Rectangle 378428" width="86.333" height="79.102" fill="none"/>
    </clipPath>
  </defs>
  <g id="Group_1074355" data-name="Group 1074355" transform="translate(-180 -24147)">
    <circle id="Ellipse_5981" data-name="Ellipse 5981" cx="60" cy="60" r="60" transform="translate(180 24147)" fill="#ffae7e"/>
    <g id="Group_1074782" data-name="Group 1074782" transform="translate(197 24168)">
      <g id="Group_1074781" data-name="Group 1074781" clip-path="url(#clip-path)">
        <path id="Path_824145" data-name="Path 824145" d="M43.121,150.439q-21.3,0-42.6.012c-.449,0-.543-.121-.518-.539a16.642,16.642,0,0,0,0-1.93c-.021-.375.12-.47.448-.418a.313.313,0,0,0,.045,0c.955,0,.955,0,.955-.934,0-2.9,0-5.809.007-8.714,0-.281-.053-.4-.347-.475a1.614,1.614,0,0,1-1.105-1.535c.013-5.9.006-11.8.012-17.7a2.845,2.845,0,0,1,.354-1.189,4.013,4.013,0,0,1,3.276-2.435A4.584,4.584,0,0,1,7.226,115.6a21.89,21.89,0,0,0,2.848,1.862c1.356.768,2.679,1.589,3.99,2.43a2.3,2.3,0,0,0,1.329.376c1.438-.021,2.876-.013,4.313-.017a2.605,2.605,0,0,1,.9.158,1.55,1.55,0,0,1,.965,1.582c.038.747.017,1.5,0,2.245,0,.237.035.341.308.334.793-.019,1.588-.006,2.381-.007.245,0,.4-.036.479-.358.169-.729.212-1.474.346-2.206.211-1.154.388-2.314.582-3.471a10.714,10.714,0,0,1,.373-1.667c.226-.67.723-.952,1.579-.832a1.388,1.388,0,0,1,1.061,1.2,6.766,6.766,0,0,1-.209,1.753c-.2,1.033-.318,2.078-.515,3.111-.123.644-.238,1.29-.358,1.935-.086.461-.023.538.448.538,1.153,0,2.306,0,3.46,0,.192,0,.276-.016.341-.261.2-.743.181-1.506.3-2.253a16.5,16.5,0,0,1,.245-1.813,12.6,12.6,0,0,0,.322-2.161,5.241,5.241,0,0,1,1.33-3.312,5.844,5.844,0,0,1,1.613-1.053c1.129-.578,2.283-1.106,3.423-1.663a3.923,3.923,0,0,1,1.834-.432c1.5.027,3,.016,4.493.005a3.547,3.547,0,0,1,1.651.4c1.431.726,2.925,1.328,4.309,2.142a4.04,4.04,0,0,1,1.93,2.875c.272,1.463.535,2.932.7,4.41.095.862.289,1.713.3,2.586.005.32.121.556.562.542,1.152-.037,2.306-.023,3.46-.006.318.005.449-.084.363-.4a28.98,28.98,0,0,1-.583-3.188c-.158-1.023-.368-2.04-.5-3.07a1.7,1.7,0,0,1,.251-1.437,1.449,1.449,0,0,1,1.776-.326,1.338,1.338,0,0,1,.705,1.13c.1.745.346,1.474.421,2.221.061.617.2,1.215.282,1.825.13.984.372,1.95.451,2.942a.294.294,0,0,0,.341.3q1.3-.025,2.606,0c.257.005.289-.095.286-.31-.01-.764.027-1.529-.012-2.291a1.632,1.632,0,0,1,1.7-1.723c1.573.021,3.146,0,4.718.01a1.578,1.578,0,0,0,.885-.245c1.329-.826,2.619-1.731,4.008-2.442,1.474-.754,2.695-1.87,4.141-2.652a4.926,4.926,0,0,1,2.6-.3,3.409,3.409,0,0,1,1.805.721,4.223,4.223,0,0,1,1.161,1.364,3.536,3.536,0,0,1,.461,1.721c.218,4.782.048,9.568.095,14.352a1.6,1.6,0,0,1-1.142,1.768c-.272.079-.3.235-.3.473q.009,5.143,0,10.286c0,.644.01,1.288-.005,1.932-.006.241.044.372.312.325a.356.356,0,0,1,.09,0c.338.024.787-.147.984.075.166.187.054.624.057.951,0,.524-.008,1.048.005,1.572.005.207-.043.31-.269.279a2.34,2.34,0,0,0-.314,0h-42.6m-29.274-3.5h0c.044.246-.08.611.338.621.761.016,1.523-.006,2.284-.013l.036.008.036-.009c.475.065.182-.2.153-.355l-.248-.7a.387.387,0,0,0-.158-.376.482.482,0,0,0-.108-.343c.038-.37-.205-.665-.269-1.007l-.039-.189c-.121-.289-.1-.627-.306-.887l-.2-.792a.433.433,0,0,0-.161-.376l-.1-.434a2.644,2.644,0,0,0-.272-.826c.01-.1.036-.2-.063-.266a2.268,2.268,0,0,0-.281-.9l-.2-.792a.432.432,0,0,0-.161-.376l-.1-.434a4.958,4.958,0,0,0-.347-1.1c0-.023-.01-.047-.016-.07a1.981,1.981,0,0,0-.268-.916c.06-.163-.082-.284-.091-.433a.79.79,0,0,0-.625-.719.042.042,0,0,0-.049-.024.11.11,0,0,0-.128-.077l-.075-.056-.65-.376-.226-.122a2.193,2.193,0,0,0-.674-.411.074.074,0,0,0-.063-.027,3.437,3.437,0,0,0-.837-.513l-.227-.125a1.955,1.955,0,0,0-.6-.367l-.132-.075a4.239,4.239,0,0,0-.841-.518l-.435-.266L6.5,131.547l-.28-.233-.446-.741c0-.567-.007-1.133-.007-1.7q0-2.573,0-5.146a2.127,2.127,0,0,1,.1-1.128c.217-.385.436-.774.943-.82a2.335,2.335,0,0,1,1.293.188,1.155,1.155,0,0,0,.55.261c.571.289,1.154.56,1.721.846.82.415,1.654.81,2.464,1.248a2.026,2.026,0,0,0,1.013.242c1.272-.013,2.545-.005,3.817-.005,1.058,0,1.047,0,1.053-1.067,0-.289-.069-.374-.366-.37-1.227.018-2.455,0-3.682.01a1.967,1.967,0,0,1-1.011-.238,5.124,5.124,0,0,0-1.132-.581c-.133-.266-.411-.327-.644-.451l-.325-.193a1.3,1.3,0,0,0-.656-.35c-.026-.1-.106-.078-.174-.085-.165-.292-.481-.367-.745-.516l-.23-.123a16.143,16.143,0,0,0-1.566-.962l-.435-.266a11.88,11.88,0,0,0-1.438-.838l-.285-.247a1.313,1.313,0,0,0-.683-.562,3.926,3.926,0,0,0-.635-.238,1.379,1.379,0,0,0-1.82,1.437q.026,7.85,0,15.7a.556.556,0,0,0,.456.626c.535.161,1.073.314,1.61.47.066.135.189.062.287.077a3.1,3.1,0,0,0,.879.3c.049.078.123.076.2.064a3.169,3.169,0,0,0,.879.3c.049.076.123.074.2.062q1.419.491,2.838.983a1.737,1.737,0,0,1,1.149.937,11.41,11.41,0,0,1,.336,1.125q.044.145.087.291l.633,2.225.086.291.633,2.224c.04.13.031.277.143.38l.486,1.869c-.028.066.006.094.065.107M60.414,140.4q0-3.413,0-6.826c0-.2.057-.392-.295-.39-2.68.016-5.361.01-8.041.007-.179,0-.269,0-.306.243a5.372,5.372,0,0,1-.661,2.2,15.96,15.96,0,0,1-1.959,2.145,1.468,1.468,0,0,0-.426.979c-.022.424-.095.846-.147,1.269q-.145,1.158-.292,2.316c-.111.874-.247,1.746-.327,2.622-.067.732-.2,1.452-.307,2.177-.049.323.035.432.39.431q6-.021,12,0c.323,0,.387-.089.385-.4-.014-2.26-.007-4.52-.007-6.781M25.9,140.367c0,2.259.01,4.519-.01,6.778,0,.368.111.454.446.425.312-.027.628-.006.943-.006q5.456,0,10.911,0c.325,0,.653.034.389-.458-.025-.046.005-.118,0-.178-.092-.832-.176-1.664-.282-2.494s-.243-1.65-.347-2.478c-.132-1.046-.221-2.1-.377-3.139a1.5,1.5,0,0,0-.44-1.108,16.072,16.072,0,0,1-1.519-1.525,4.04,4.04,0,0,1-1.065-2.6c-.018-.332-.094-.412-.425-.409q-3.907.023-7.813,0c-.328,0-.421.066-.418.409.018,2.259.009,4.519.009,6.778m17.242-10.054h8.582q6.987,0,13.975.008c.358,0,.5-.062.477-.455-.036-.612-.009-1.227-.009-1.841,0-.587,0-.587-.593-.587H28.188c-2.516,0-5.033.012-7.549-.012-.432,0-.519.133-.5.524a17.208,17.208,0,0,1,0,1.885c-.025.4.1.487.492.487q11.256-.018,22.512-.009m32.7,17.282c-.33-1.267-.65-2.462-.952-3.661-.453-1.8-.917-3.6-1.328-5.406-.118-.518-.394-1.047-.051-1.619a2.36,2.36,0,0,1,1.216-.934c2.745-1.168,5.487-2.344,8.24-3.492a.648.648,0,0,0,.462-.728c-.018-2.275-.009-4.551-.009-6.827,0-1.961,0-3.923,0-5.884a1.441,1.441,0,0,0-1.288-1.588,1.836,1.836,0,0,0-1.533.5,12,12,0,0,1-.984.779q-3.345,2.007-6.687,4.017a2.571,2.571,0,0,1-1.407.384c-.958-.019-1.917-.005-2.875-.005-1.058,0-1.048,0-1.051,1.073,0,.289.07.377.368.372,1.168-.018,2.34-.064,3.5.009a5.547,5.547,0,0,0,3.113-.758,41.8,41.8,0,0,1,3.934-1.938,1.3,1.3,0,0,1,1.876.733,2.519,2.519,0,0,1,.149.909c.014,1.692,0,3.383.008,5.075a1.7,1.7,0,0,1-.859,1.6c-.75.445-1.484.915-2.223,1.377-2.3,1.432-4.594,2.86-6.883,4.3-.347.218-.882.338-.973.715-.086.353.316.708.509,1.058q2.611,4.726,5.233,9.445c.1.186.177.412.493.5M43.2,133.195c-1.811,0-3.622,0-5.432,0-.24,0-.385.008-.372.323a1.566,1.566,0,0,0,.522,1.056c.586.6,1.185,1.184,1.779,1.775a1.925,1.925,0,0,1,.594,1.22c.054.579.1,1.163.2,1.732.253,1.569.391,3.15.606,4.722.146,1.067.243,2.141.361,3.213a.316.316,0,0,0,.345.325H44.54c.132,0,.22-.037.24-.2.2-1.635.441-3.266.617-4.9.168-1.565.416-3.121.563-4.689a1.9,1.9,0,0,1,.512-1.284c.688-.653,1.323-1.361,2-2.021a1.662,1.662,0,0,0,.417-.857c.07-.275.01-.421-.347-.417-1.781.02-3.562.009-5.343.009M43.08,117.37q2.022,0,4.044,0a2.287,2.287,0,0,1,.907.166,1.49,1.49,0,0,1,.881,1.529c.007,1.692.011,3.384,0,5.076,0,.318.049.448.406.427a14.416,14.416,0,0,1,1.8,0c.412.028.447-.17.4-.475-.162-1.14-.386-2.27-.5-3.418-.074-.763-.268-1.509-.327-2.278a2.021,2.021,0,0,0-1.085-1.961c-.978-.445-1.928-.951-2.891-1.429a3.927,3.927,0,0,0-1.952-.513c-1.211.051-2.426.021-3.639.009a1.943,1.943,0,0,0-.909.2q-1.824.911-3.644,1.831a1.453,1.453,0,0,0-.8,1.022c-.243,1.06-.322,2.145-.5,3.215-.188,1.131-.263,2.28-.538,3.4-.068.275,0,.411.322.4.643-.021,1.289-.025,1.932,0,.325.013.429-.059.424-.409-.021-1.692.016-3.384-.019-5.076a1.634,1.634,0,0,1,1.737-1.72c1.317.035,2.636.008,3.954.008M17.106,138.922a2.278,2.278,0,0,0,.168-.719q-.009-5.211,0-10.422c0-.27-.055-.353-.34-.349-1.243.018-2.487.01-3.73,0a1.8,1.8,0,0,1-.476-.056,12.523,12.523,0,0,1-1.941-.894c-.707-.328-1.4-.691-2.148-1.064v3.964a.317.317,0,0,0,.2.309c1.953,1.07,3.854,2.229,5.742,3.41.459.287.971.538,1.145,1.123q.415,1.4.827,2.8c.177.6.353,1.209.554,1.9m64.88,2.894q0-2.672,0-5.344c0-.486-.069-.52-.538-.314-1.53.673-3.059,1.35-4.6,2-.314.133-.394.285-.311.607.33,1.286.638,2.578.96,3.866.383,1.534.78,3.064,1.154,4.6.067.274.193.343.457.338.838-.016,1.677-.019,2.515,0,.294.007.37-.075.368-.368-.014-1.8-.007-3.592-.007-5.388M4.328,143.05c0,1.391.007,2.782-.006,4.173,0,.27.054.351.34.349,2.02-.014,4.04-.01,6.061,0,.279,0,.39-.008.284-.359q-1.02-3.4-1.974-6.82a.582.582,0,0,0-.439-.467c-1.292-.42-2.588-.828-3.869-1.28-.351-.124-.4-.048-.4.279.01,1.376,0,2.752,0,4.129m61.83-2.679h-.01c0-2.258-.006-4.517.008-6.776,0-.318-.087-.406-.4-.4-.688.023-1.377.026-2.065,0-.327-.012-.409.1-.389.405.023.372,0,.748,0,1.121q0,6.238-.008,12.476c0,.313.111.367.387.36.688-.017,1.377-.024,2.065,0,.333.013.426-.075.424-.417-.017-2.258-.009-4.518-.009-6.776m-43.143,0H23c0-2.259-.006-4.518.007-6.776,0-.314-.079-.409-.4-.4-.7.024-1.407.022-2.109,0-.285-.009-.347.087-.347.356q.006,6.821-.012,13.642c0,.308.1.372.384.364.673-.018,1.347-.028,2.02,0,.367.017.477-.076.473-.46-.02-2.244-.01-4.488-.01-6.731M69.042,133.5c.123-.06.175-.079.222-.109,1.229-.785,2.469-1.555,3.684-2.361,1.478-.981,3-1.891,4.536-2.775a.32.32,0,0,0,.189-.315c-.007-.819,0-1.639,0-2.537-.906.443-1.775.824-2.6,1.282a4.895,4.895,0,0,1-2.69.766c-1.014-.053-2.034-.008-3.051-.015-.191,0-.294.014-.293.256.01,1.912.006,3.825.006,5.808M43.156,120.25c-.853,0-1.706.009-2.559-.006-.254,0-.325.069-.323.323q.019,1.84,0,3.681c0,.255.071.324.324.322q2.559-.016,5.119,0c.254,0,.325-.07.323-.323q-.018-1.84,0-3.681c0-.255-.071-.326-.324-.322-.853.015-1.706.005-2.56.006M69.043,141.7q0,2.842,0,5.683c0,.134.049.182.183.181,1.039,0,2.079,0,3.192,0-1.2-1.961-2.249-3.914-3.372-5.863" transform="translate(0 -71.349)"/>
        <path id="Path_824146" data-name="Path 824146" d="M134.867.025q3.415,0,6.831,0a6.3,6.3,0,0,1,2.079.306,3.888,3.888,0,0,1,2.65,3.021,7.567,7.567,0,0,1,.168,2.07c-.019.307.092.363.373.36,1.618-.013,3.236-.008,4.853-.005a6.165,6.165,0,0,1,2.033.311A3.888,3.888,0,0,1,156.5,9.113a8.233,8.233,0,0,1,.175,1.757c-.006,2.441,0,4.882,0,7.322a8.757,8.757,0,0,1-.214,1.753,3.825,3.825,0,0,1-1.5,2.134,2.443,2.443,0,0,1-1.006.573c-.253.055-.151.225-.152.345-.008,1.138-.016,2.276,0,3.414a7.921,7.921,0,0,1-.1,1.233,1.511,1.511,0,0,1-1.415,1.074,1.607,1.607,0,0,1-1.079-.42q-3.16-2.083-6.305-4.19a2.362,2.362,0,0,1-.312-.245,3.461,3.461,0,0,0-2.735-.856,38.408,38.408,0,0,1-4.221,0,4.007,4.007,0,0,1-3.357-2.188,2.951,2.951,0,0,1-.428-1.013c-.053-.359-.237-.336-.462-.189-.5.326-.986.668-1.481,1-1.132.754-2.225,1.566-3.41,2.241a1.385,1.385,0,0,1-2.013-1.223c-.008-1.423-.008-2.845-.007-4.268,0-.242-.035-.347-.319-.5a4.338,4.338,0,0,1-2.478-3.3,5.243,5.243,0,0,1-.078-.787c0-2.95-.043-5.9.026-8.849a4.105,4.105,0,0,1,3.538-3.8c2.414-.258,4.839-.048,7.259-.106.15,0,.3,0,.45,0m16.05,24.645c0-1.008-.01-1.931,0-2.854a1.548,1.548,0,0,1,1.426-1.661,1.524,1.524,0,0,0,1.445-1.712c0-2.71,0-5.421,0-8.131a1.526,1.526,0,0,0-1.642-1.658c-1.737-.017-3.475,0-5.213-.012-.287,0-.345.086-.342.354.014,1.243.006,2.486.006,3.729a4.779,4.779,0,0,1-.308,1.747,4.254,4.254,0,0,1-4.085,2.8c-1.647.035-3.3.011-4.943,0-.309,0-.653.073-.7.362a2.881,2.881,0,0,0,.149,1.75,1.5,1.5,0,0,0,1.471.764c1.423.005,2.848.051,4.269-.014a4.594,4.594,0,0,1,3,.888c1.758,1.241,3.576,2.4,5.457,3.647m-21.572-5.739c.244-.155.406-.253.563-.359,1.1-.742,2.2-1.5,3.317-2.222a.822.822,0,0,0,.443-.79c-.019-1.706-.008-3.412-.008-5.118a4.485,4.485,0,0,1,.013-.9,4.478,4.478,0,0,1,4.653-3.778c1.391.032,2.784.012,4.177,0,.4,0,.943.179,1.154-.081s.073-.77.067-1.171A1.522,1.522,0,0,0,142.087,2.9q-7.051-.008-14.1,0a1.432,1.432,0,0,0-1.512,1.481c-.009,2.858,0,5.717,0,8.575a1.443,1.443,0,0,0,1.338,1.45,1.4,1.4,0,0,1,1.423,1.025,5.182,5.182,0,0,1,.118,1.012c-.02.792-.006,1.584-.006,2.485M139.506,14.4c.852,0,1.705.008,2.558,0a1.511,1.511,0,0,0,1.649-1.569c.032-1.3,0-2.6.013-3.9,0-.224-.08-.272-.286-.271-1.825.008-3.65,0-5.475.01a1.531,1.531,0,0,0-1.433,1.467c.033,1.315.015,2.632,0,3.948,0,.254.067.33.324.326.882-.016,1.765-.006,2.648-.006" transform="translate(-78.997 0)"/>
        <path id="Path_824147" data-name="Path 824147" d="M33.868,20.341c0,1.636.035,2.955-.013,4.27a5,5,0,0,1-.552,2.462,4.327,4.327,0,0,1-2.991,2.11,13.94,13.94,0,0,1-2.536.087c-1.377.023-2.757.046-4.132-.011a2.7,2.7,0,0,0-1.8.581c-2.167,1.59-4.442,3.021-6.672,4.518a8.1,8.1,0,0,1-.832.481,1.351,1.351,0,0,1-2.024-1.159c-.032-1.362-.016-2.724-.017-4.086,0-.189.014-.317-.267-.329a4.175,4.175,0,0,1-3.4-2.038,3.71,3.71,0,0,1-.649-2.136c.015-3.127-.058-6.257.035-9.382a3.717,3.717,0,0,1,1.811-2.945,4.487,4.487,0,0,1,2.546-.726c5.615-.009,11.23-.021,16.844-.005a4.394,4.394,0,0,1,3.493,1.388,4.439,4.439,0,0,1,1.077,2.541c.175,1.565.01,3.133.082,4.378M20.8,14.9c-2.8,0-5.6.016-8.4-.009a1.561,1.561,0,0,0-1.549,1.537q.056,4.267,0,8.535a1.467,1.467,0,0,0,1.463,1.448,7.043,7.043,0,0,1,1.643.067A1.353,1.353,0,0,1,15.1,27.613a25.112,25.112,0,0,1,.081,2.721c.007.152-.1.358.072.448s.3-.094.428-.181q2.834-1.9,5.663-3.8a2.359,2.359,0,0,1,1.382-.408c2.217.016,4.434,0,6.651.011a1.431,1.431,0,0,0,1.611-1.586c.024-2.74.014-5.48,0-8.221a1.5,1.5,0,0,0-.842-1.5,2.487,2.487,0,0,0-1.032-.2H20.8" transform="translate(-5.092 -7.687)"/>
        <path id="Path_824148" data-name="Path 824148" d="M.03,89.548A5.623,5.623,0,0,1,6.335,83.9a5.735,5.735,0,0,1,0,11.414,5.736,5.736,0,0,1-6.3-5.766m8.544.144A2.778,2.778,0,0,0,5.73,86.7a2.913,2.913,0,0,0-2.851,2.846,2.956,2.956,0,0,0,2.643,2.909,2.725,2.725,0,0,0,3.052-2.765" transform="translate(-0.016 -53.612)"/>
        <path id="Path_824149" data-name="Path 824149" d="M212.869,95.268a5.777,5.777,0,0,1-5.588-6.005,5.749,5.749,0,1,1,5.588,6.005m2.964-5.7a2.748,2.748,0,0,0-2.822-2.919,2.917,2.917,0,0,0-2.858,2.762,2.984,2.984,0,0,0,2.824,3,2.76,2.76,0,0,0,2.855-2.844" transform="translate(-132.499 -53.554)"/>
        <path id="Path_824150" data-name="Path 824150" d="M109.229,76a5.585,5.585,0,0,1,5.9,5.683,5.753,5.753,0,0,1-11.476.574A5.556,5.556,0,0,1,109.229,76m-2.709,5.54a2.838,2.838,0,0,0,2.836,2.983,2.855,2.855,0,1,0-.062-5.708,2.768,2.768,0,0,0-2.774,2.726" transform="translate(-66.234 -48.572)"/>
        <path id="Path_824151" data-name="Path 824151" d="M78.816,158.328q-11.256,0-22.512.009c-.39,0-.517-.082-.492-.487a17.216,17.216,0,0,0,0-1.886c-.019-.39.069-.528.5-.524,2.516.024,5.033.012,7.549.012h37.386c.592,0,.592,0,.593.587,0,.614-.027,1.229.009,1.841.023.393-.119.456-.477.455q-6.987-.018-13.974-.008H78.816" transform="translate(-35.675 -99.363)" fill="#a98d71"/>
        <path id="Path_824152" data-name="Path 824152" d="M19.4,149.629l.2.792c-.338.4-.232.742.28.9.1.07.073.17.063.266a.5.5,0,0,0,.273.826l.1.434c-.089.054-.2.109-.144.237s.187.128.3.139l.2.792c-.339.4-.222.745.306.886l.039.189c-.312.343-.2.752.269,1.007a.484.484,0,0,1,.108.343c-.1.063-.215.135-.156.275s.206.074.314.1l.248.7c-.179.063-.128.225-.153.354l-.036.009-.036-.008c-.154-.241-.4-.13-.611-.169-.675-.126-1.465.271-2.012-.439h0l-.065-.107-.486-1.869c.1-.024.28.017.261-.143-.026-.214-.237-.209-.4-.237l-.633-2.225c.1-.04.3.046.282-.113s-.221-.162-.368-.178l-.633-2.225c.1-.036.294.045.291-.106,0-.232-.235-.15-.378-.185a11.374,11.374,0,0,0-.336-1.125,1.735,1.735,0,0,0-1.149-.937q-1.418-.494-2.838-.983c-.034-.125-.074-.229-.2-.062a3.159,3.159,0,0,1-.879-.3c-.034-.124-.074-.228-.2-.064a3.1,3.1,0,0,1-.879-.3c-.052-.19-.142-.237-.287-.077-.537-.156-1.075-.308-1.61-.47a.556.556,0,0,1-.456-.626q.027-7.85,0-15.7a1.379,1.379,0,0,1,1.82-1.437,3.928,3.928,0,0,1,.636.238c-.143.078-.289.159-.268.353,0,.038.1.106.119.1.3-.134.548.133.832.113l.284.247c-.007.694,0,.708.707.685.195-.007.167.1.2.209.04.122.067.283.241.265a.285.285,0,0,0,.29-.321l.435.266c.069.235-.14.576.223.694.259.085.557.065.606.446.016.122.161.106.263.058.159-.076.316-.157.474-.235l.23.123c-.073.588.256.917.745.516.069.007.149-.011.174.085-.142.129-.232.276-.086.451s.319.11.483.058a1.219,1.219,0,0,0,.259-.159l.325.193c-.021.188-.171.381.058.554s.4-.005.586-.1a5.1,5.1,0,0,1,1.131.581,1.971,1.971,0,0,0,1.012.238c1.227-.007,2.455.008,3.682-.01.3,0,.367.081.366.37-.006,1.066.005,1.066-1.053,1.066-1.272,0-2.544-.008-3.817.005a2.025,2.025,0,0,1-1.013-.242c-.81-.438-1.644-.833-2.464-1.248-.567-.287-1.15-.558-1.721-.846-.028-.413-.239-.443-.55-.261a2.337,2.337,0,0,0-1.293-.188c-.507.045-.726.435-.943.82a2.126,2.126,0,0,0-.1,1.128q0,2.573,0,5.146c0,.566,0,1.133.007,1.7-.013.116-.018.233-.041.347-.09.443.019.533.487.395l.28.233c-.254.645-.215.738.36.637.411-.072.414.124.38.4-.012.1-.07.2.079.3.127-.209.374-.319.433-.586l.435.266c.033.8.208.906.84.518l.133.075a.447.447,0,0,0-.11.629c.137.209.319-.064.484-.118a1.011,1.011,0,0,0,.222-.144l.227.125c.1.758.271.862.837.513a.073.073,0,0,1,.063.027c-.007.194-.211.429.021.572.206.127.43.008.613-.14a.255.255,0,0,1,.039-.021l.226.122a.488.488,0,0,0,.244.664c.227.1.334-.1.406-.288l.075.056.128.076a.043.043,0,0,1,.049.025c-.088.668-.065.694.625.719.008.149.15.27.091.433-.322.35-.218.708.268.916.006.023.012.047.017.07-.023.084-.054.166-.069.251a.7.7,0,0,0,.416.846l.1.434c-.089.054-.2.109-.144.237s.187.128.305.139" transform="translate(-5.106 -81.67)" fill="#a6e4c5"/>
        <path id="Path_824153" data-name="Path 824153" d="M195.619,157.883c-.315-.085-.39-.311-.493-.5q-2.621-4.72-5.233-9.446c-.193-.35-.595-.7-.509-1.058.091-.377.626-.5.973-.715q3.434-2.164,6.883-4.3c.74-.461,1.474-.932,2.223-1.377a1.7,1.7,0,0,0,.859-1.6c0-1.692.006-3.384-.008-5.075a2.527,2.527,0,0,0-.149-.909,1.3,1.3,0,0,0-1.877-.733,41.8,41.8,0,0,0-3.934,1.938,5.55,5.55,0,0,1-3.113.758c-1.164-.073-2.336-.027-3.5-.009-.3,0-.369-.083-.368-.372,0-1.074-.007-1.074,1.051-1.074.959,0,1.917-.013,2.876.005a2.571,2.571,0,0,0,1.406-.384q3.344-2.008,6.687-4.018a11.939,11.939,0,0,0,.984-.779,1.837,1.837,0,0,1,1.533-.5,1.441,1.441,0,0,1,1.288,1.588c.006,1.961,0,3.923,0,5.884,0,2.276-.009,4.551.009,6.827a.649.649,0,0,1-.462.728c-2.753,1.148-5.495,2.324-8.24,3.492a2.363,2.363,0,0,0-1.216.934c-.343.573-.066,1.1.051,1.62.412,1.809.875,3.607,1.328,5.406.3,1.2.622,2.395.952,3.661" transform="translate(-119.773 -81.636)" fill="#a6e4c5"/>
        <path id="Path_824154" data-name="Path 824154" d="M109.466,171.412c1.781,0,3.562.011,5.343-.009.356,0,.417.143.347.417a1.664,1.664,0,0,1-.417.858c-.681.66-1.316,1.368-2,2.021a1.9,1.9,0,0,0-.512,1.284c-.147,1.568-.394,3.124-.563,4.689-.176,1.638-.413,3.269-.617,4.9-.02.161-.107.2-.24.2h-2.739a.316.316,0,0,1-.345-.325c-.118-1.071-.215-2.145-.361-3.213-.215-1.572-.353-3.154-.606-4.722-.092-.568-.142-1.153-.2-1.732a1.925,1.925,0,0,0-.594-1.22c-.593-.591-1.193-1.177-1.779-1.775a1.566,1.566,0,0,1-.522-1.056c-.013-.315.132-.324.372-.323,1.811.007,3.622,0,5.433,0" transform="translate(-66.263 -109.566)" fill="#a6e4c5"/>
        <path id="Path_824155" data-name="Path 824155" d="M104.574,122.462c-1.318,0-2.637.027-3.954-.009a1.635,1.635,0,0,0-1.737,1.72c.035,1.691,0,3.384.02,5.076,0,.35-.1.422-.425.409-.643-.026-1.288-.023-1.932,0-.326.011-.39-.124-.323-.4.275-1.118.35-2.267.538-3.4.178-1.07.257-2.155.5-3.216a1.454,1.454,0,0,1,.8-1.022q1.82-.918,3.644-1.83a1.946,1.946,0,0,1,.909-.2c1.213.012,2.428.041,3.639-.009a3.928,3.928,0,0,1,1.952.513c.963.478,1.913.985,2.891,1.43a2.021,2.021,0,0,1,1.085,1.961c.058.769.253,1.514.326,2.278.111,1.148.336,2.278.5,3.418.044.306.008.5-.4.476a14.346,14.346,0,0,0-1.8,0c-.358.021-.409-.11-.406-.427.016-1.692.012-3.384.005-5.076a1.491,1.491,0,0,0-.881-1.529,2.3,2.3,0,0,0-.907-.166q-2.022,0-4.044,0" transform="translate(-61.494 -76.441)" fill="#a6e4c5"/>
        <path id="Path_824156" data-name="Path 824156" d="M178.3,178.612c0,2.259-.008,4.518.008,6.776,0,.342-.092.43-.424.417-.687-.026-1.377-.019-2.065,0-.276.006-.388-.047-.387-.361q.017-6.237.009-12.475c0-.374.026-.749,0-1.121-.019-.306.062-.418.389-.405.687.026,1.377.024,2.065,0,.313-.011.4.077.4.4-.014,2.258-.008,4.517-.008,6.776Z" transform="translate(-112.143 -109.59)" fill="#a98d71"/>
        <path id="Path_824157" data-name="Path 824157" d="M58.715,178.615c0,2.244-.01,4.488.01,6.731,0,.383-.107.476-.473.46-.672-.031-1.347-.021-2.02,0-.28.008-.385-.055-.384-.364q.021-6.821.012-13.642c0-.269.061-.364.347-.356.7.021,1.407.023,2.109,0,.317-.011.4.085.4.4-.013,2.258-.007,4.517-.007,6.776Z" transform="translate(-35.7 -109.59)" fill="#a98d71"/>
        <path id="Path_824158" data-name="Path 824158" d="M114.516,135.536c.853,0,1.706.009,2.559-.006.253,0,.327.067.324.322q-.019,1.84,0,3.68c0,.253-.069.325-.323.323q-2.559-.016-5.119,0c-.253,0-.326-.068-.324-.323q.019-1.84,0-3.68c0-.254.069-.328.323-.323.853.015,1.706.006,2.559.006" transform="translate(-71.36 -86.636)" fill="#a6e4c5"/>
        <path id="Path_824159" data-name="Path 824159" d="M24.246,134.8c-.158.079-.315.159-.474.235-.1.048-.247.064-.263-.058-.049-.381-.347-.361-.606-.446-.363-.119-.154-.459-.223-.694a16.149,16.149,0,0,1,1.566.963" transform="translate(-14.498 -85.556)" fill="#a6e4c5"/>
        <path id="Path_824160" data-name="Path 824160" d="M18.991,167.622c-.059.267-.306.377-.433.586-.149-.1-.091-.2-.079-.3.034-.281.032-.477-.38-.405-.575.1-.614.008-.36-.637l1.251.759" transform="translate(-11.244 -106.664)" fill="#a6e4c5"/>
        <path id="Path_824161" data-name="Path 824161" d="M18.924,131.621a.285.285,0,0,1-.29.321c-.174.018-.2-.143-.241-.265-.034-.1-.006-.215-.2-.209-.711.024-.714.01-.707-.684a11.912,11.912,0,0,1,1.438.838" transform="translate(-11.177 -83.601)" fill="#a6e4c5"/>
        <path id="Path_824162" data-name="Path 824162" d="M38.381,209.538c.547.71,1.337.314,2.012.439.21.039.457-.072.611.169-.761.007-1.523.029-2.284.013-.418-.009-.294-.374-.338-.621" transform="translate(-24.534 -133.944)" fill="#a6e4c5"/>
        <path id="Path_824163" data-name="Path 824163" d="M23.52,170.223c-.633.388-.807.281-.841-.518a4.228,4.228,0,0,1,.841.518" transform="translate(-14.497 -108.481)" fill="#a6e4c5"/>
        <path id="Path_824164" data-name="Path 824164" d="M25.632,171.715a1.017,1.017,0,0,1-.222.144c-.165.054-.347.327-.484.118a.447.447,0,0,1,.109-.629,1.945,1.945,0,0,1,.6.367" transform="translate(-15.881 -109.531)" fill="#a6e4c5"/>
        <path id="Path_824165" data-name="Path 824165" d="M35.7,177.883c-.691-.025-.713-.05-.625-.719a.79.79,0,0,1,.625.719" transform="translate(-22.4 -113.249)" fill="#a6e4c5"/>
        <path id="Path_824166" data-name="Path 824166" d="M28.495,173.226c-.566.348-.735.244-.837-.513a3.409,3.409,0,0,1,.837.513" transform="translate(-17.68 -110.404)" fill="#a6e4c5"/>
        <path id="Path_824167" data-name="Path 824167" d="M28.385,137.367c-.488.4-.818.072-.745-.516.264.149.579.224.745.516" transform="translate(-17.662 -87.48)" fill="#a6e4c5"/>
        <path id="Path_824168" data-name="Path 824168" d="M30.576,138.864a1.224,1.224,0,0,1-.258.159c-.164.052-.348.1-.483-.058s-.056-.322.086-.451a1.3,1.3,0,0,1,.656.35" transform="translate(-19.023 -88.543)" fill="#a6e4c5"/>
        <path id="Path_824169" data-name="Path 824169" d="M33.222,176.063c-.071.189-.178.386-.405.288a.487.487,0,0,1-.244-.664l.649.376" transform="translate(-20.796 -112.305)" fill="#a6e4c5"/>
        <path id="Path_824170" data-name="Path 824170" d="M30.667,174.62a.228.228,0,0,0-.039.021c-.183.148-.408.267-.613.14-.232-.143-.028-.377-.021-.572a2.2,2.2,0,0,1,.674.411" transform="translate(-19.116 -111.36)" fill="#a6e4c5"/>
        <path id="Path_824171" data-name="Path 824171" d="M15.011,129.1c-.284.021-.529-.246-.832-.113-.023.01-.115-.058-.119-.1-.021-.194.126-.275.268-.353a1.313,1.313,0,0,1,.683.562" transform="translate(-8.987 -82.168)" fill="#a6e4c5"/>
        <path id="Path_824172" data-name="Path 824172" d="M33.446,140.469c-.184.1-.343.285-.586.1s-.08-.365-.058-.554c.233.124.51.184.644.451" transform="translate(-20.925 -89.504)" fill="#a6e4c5"/>
        <path id="Path_824173" data-name="Path 824173" d="M40.1,191.469c-.512-.157-.619-.5-.281-.9a2.262,2.262,0,0,1,.281.9" transform="translate(-25.327 -121.819)" fill="#a6e4c5"/>
        <path id="Path_824174" data-name="Path 824174" d="M44.062,204.519c-.472-.255-.581-.664-.269-1.007.063.342.306.637.269,1.007" transform="translate(-27.881 -130.092)" fill="#a6e4c5"/>
        <path id="Path_824175" data-name="Path 824175" d="M37.069,181.27c-.485-.209-.59-.567-.268-.916a1.978,1.978,0,0,1,.268.916" transform="translate(-23.406 -115.288)" fill="#a6e4c5"/>
        <path id="Path_824176" data-name="Path 824176" d="M43.117,201.417c-.528-.142-.645-.482-.306-.886.207.259.185.6.306.886" transform="translate(-27.244 -128.186)" fill="#a6e4c5"/>
        <path id="Path_824177" data-name="Path 824177" d="M38.113,184.185a.7.7,0,0,1-.416-.846c.015-.085.046-.167.069-.251a4.939,4.939,0,0,1,.347,1.1" transform="translate(-24.087 -117.036)" fill="#a6e4c5"/>
        <path id="Path_824178" data-name="Path 824178" d="M16.314,164.9c-.468.139-.578.048-.487-.395.023-.114.028-.231.041-.347l.446.742" transform="translate(-10.099 -104.937)" fill="#a6e4c5"/>
        <path id="Path_824179" data-name="Path 824179" d="M41.152,194.626a.5.5,0,0,1-.272-.826,2.629,2.629,0,0,1,.272.826" transform="translate(-26.048 -123.883)" fill="#a6e4c5"/>
        <path id="Path_824180" data-name="Path 824180" d="M22.436,140.119c.311-.183.522-.152.55.261a1.151,1.151,0,0,1-.55-.261" transform="translate(-14.342 -89.501)" fill="#a6e4c5"/>
        <path id="Path_824181" data-name="Path 824181" d="M36.462,203.011c.166.028.378.023.4.237.019.16-.158.119-.261.143-.112-.1-.1-.251-.142-.38" transform="translate(-23.308 -129.771)" fill="#a6e4c5"/>
        <path id="Path_824182" data-name="Path 824182" d="M45,207.63c-.108-.026-.256.039-.314-.1s.052-.213.156-.276a.387.387,0,0,1,.158.376" transform="translate(-28.556 -132.484)" fill="#a6e4c5"/>
        <path id="Path_824183" data-name="Path 824183" d="M32.475,189.064c.143.035.373-.048.378.185,0,.152-.19.07-.291.106l-.087-.291" transform="translate(-20.759 -120.856)" fill="#a6e4c5"/>
        <path id="Path_824184" data-name="Path 824184" d="M39.049,187.708c-.118-.011-.252-.007-.305-.139s.055-.183.144-.237a.431.431,0,0,1,.161.376" transform="translate(-24.758 -119.749)" fill="#a6e4c5"/>
        <path id="Path_824185" data-name="Path 824185" d="M42.039,197.67c-.119-.011-.252-.007-.306-.139s.055-.183.145-.237a.434.434,0,0,1,.161.376" transform="translate(-26.669 -126.117)" fill="#a6e4c5"/>
        <path id="Path_824186" data-name="Path 824186" d="M34.469,196.038c.147.016.35.023.368.178s-.183.073-.282.113l-.086-.291" transform="translate(-22.034 -125.314)" fill="#a6e4c5"/>
        <path id="Path_824187" data-name="Path 824187" d="M45.851,210.59c.026-.129-.025-.291.153-.355.029.153.322.42-.153.355" transform="translate(-29.309 -134.389)" fill="#a6e4c5"/>
        <path id="Path_824188" data-name="Path 824188" d="M13.715,178.248c.146-.161.236-.114.287.077-.1-.014-.221.058-.287-.077" transform="translate(-8.767 -113.88)" fill="#a6e4c5"/>
        <path id="Path_824189" data-name="Path 824189" d="M19.938,180.3c.125-.167.166-.062.2.062-.077.012-.15.014-.2-.062" transform="translate(-12.745 -115.198)" fill="#a6e4c5"/>
        <path id="Path_824190" data-name="Path 824190" d="M16.948,179.3c.126-.164.166-.06.2.064-.077.012-.152.014-.2-.064" transform="translate(-10.834 -114.561)" fill="#a6e4c5"/>
        <path id="Path_824191" data-name="Path 824191" d="M34.782,176.959l-.128-.076a.11.11,0,0,1,.128.076" transform="translate(-22.152 -113.069)" fill="#a6e4c5"/>
        <path id="Path_824192" data-name="Path 824192" d="M38.185,209.245l.065.107c-.06-.013-.094-.04-.065-.107" transform="translate(-24.402 -133.756)" fill="#a6e4c5"/>
        <path id="Path_824193" data-name="Path 824193" d="M173.817,39.985c-1.88-1.249-3.7-2.406-5.457-3.647a4.594,4.594,0,0,0-3-.888c-1.42.065-2.845.019-4.269.014a1.5,1.5,0,0,1-1.47-.764,2.881,2.881,0,0,1-.149-1.75c.041-.289.386-.363.7-.362,1.648.006,3.3.031,4.943,0a4.254,4.254,0,0,0,4.085-2.8,4.779,4.779,0,0,0,.307-1.747c0-1.243.008-2.486-.006-3.729,0-.268.055-.356.342-.354,1.738.014,3.476-.005,5.213.012a1.526,1.526,0,0,1,1.642,1.658c0,2.71,0,5.421,0,8.131a1.524,1.524,0,0,1-1.445,1.712,1.549,1.549,0,0,0-1.427,1.661c-.012.923,0,1.847,0,2.854" transform="translate(-101.898 -15.315)" fill="#fcb52e"/>
        <path id="Path_824194" data-name="Path 824194" d="M134.46,24.067c0-.9-.014-1.693.006-2.485a5.155,5.155,0,0,0-.117-1.012,1.4,1.4,0,0,0-1.423-1.025,1.443,1.443,0,0,1-1.338-1.45c0-2.858-.009-5.717,0-8.575A1.432,1.432,0,0,1,133.1,8.039q7.051-.008,14.1,0a1.522,1.522,0,0,1,1.636,1.618c.006.4.133.925-.067,1.171s-.756.078-1.154.08c-1.392.01-2.785.03-4.177,0a4.478,4.478,0,0,0-4.653,3.778,4.486,4.486,0,0,0-.013.9c0,1.706-.011,3.412.008,5.118a.823.823,0,0,1-.443.79c-1.117.723-2.213,1.479-3.317,2.222-.157.106-.32.2-.563.359" transform="translate(-84.113 -5.136)" fill="#fcb52e"/>
        <path id="Path_824195" data-name="Path 824195" d="M162.452,29.725c-.882,0-1.765-.009-2.648.006-.257,0-.326-.072-.324-.325.013-1.316.031-2.633,0-3.948a1.531,1.531,0,0,1,1.433-1.467c1.825-.011,3.65,0,5.475-.01.206,0,.288.047.286.271-.01,1.3.019,2.6-.013,3.9a1.51,1.51,0,0,1-1.649,1.569c-.852.01-1.705,0-2.558,0" transform="translate(-101.944 -15.329)" fill="#fcb52e"/>
        <path id="Path_824196" data-name="Path 824196" d="M25.9,19.976h8.314a2.487,2.487,0,0,1,1.032.2,1.5,1.5,0,0,1,.842,1.5c.013,2.74.022,5.481,0,8.221a1.431,1.431,0,0,1-1.612,1.586c-2.217-.012-4.434.005-6.651-.011a2.362,2.362,0,0,0-1.382.408q-2.83,1.9-5.663,3.8c-.131.087-.259.271-.429.181s-.064-.3-.072-.449a25.02,25.02,0,0,0-.081-2.721,1.352,1.352,0,0,0-1.143-1.135,7.045,7.045,0,0,0-1.644-.067,1.467,1.467,0,0,1-1.463-1.448q.048-4.267,0-8.535a1.561,1.561,0,0,1,1.549-1.537c2.8.025,5.6.01,8.4.009m5.87,7.188c.389,0,.777-.009,1.166,0,.2.006.292-.04.288-.268-.013-.776-.011-1.553,0-2.33,0-.2-.042-.289-.269-.285-.777.013-1.554.011-2.331,0-.2,0-.289.04-.285.267.013.777.016,1.554,0,2.331-.006.255.1.293.313.285.373-.014.747,0,1.121,0m-4.3-1.416c0-.4-.009-.807,0-1.21.006-.2-.061-.255-.255-.253q-1.188.014-2.376,0c-.2,0-.255.059-.253.254q.015,1.187,0,2.375c0,.2.056.256.253.254q1.188-.015,2.376,0c.2,0,.261-.058.255-.255-.013-.388,0-.777,0-1.165m-7.231,1.389c.475,0,1.118.187,1.383-.049.306-.272.078-.925.091-1.412.012-.445.158-1.047-.068-1.3-.259-.286-.87-.078-1.327-.087-.475-.009-1.118-.17-1.383.071-.3.275-.077.926-.089,1.413-.011.445-.159,1.043.066,1.3.26.293.871.047,1.327.063" transform="translate(-10.192 -12.763)" fill="#fbd694"/>
        <path id="Path_824197" data-name="Path 824197" d="M13.631,94.71a2.725,2.725,0,0,1-3.052,2.765,2.956,2.956,0,0,1-2.643-2.909,2.913,2.913,0,0,1,2.851-2.846,2.778,2.778,0,0,1,2.844,2.991" transform="translate(-5.073 -58.63)" fill="#a6e4c5"/>
        <path id="Path_824198" data-name="Path 824198" d="M220.923,94.642a2.76,2.76,0,0,1-2.855,2.844,2.984,2.984,0,0,1-2.824-3,2.917,2.917,0,0,1,2.858-2.762,2.748,2.748,0,0,1,2.822,2.919" transform="translate(-137.589 -58.632)" fill="#a6e4c5"/>
        <path id="Path_824199" data-name="Path 824199" d="M111.669,86.552a2.768,2.768,0,0,1,2.774-2.726,2.855,2.855,0,1,1,.062,5.708,2.838,2.838,0,0,1-2.836-2.983" transform="translate(-71.382 -53.583)" fill="#a6e4c5"/>
        <path id="Path_824200" data-name="Path 824200" d="M57.262,34.813c-.374,0-.748-.01-1.121,0-.216.009-.319-.03-.313-.285.017-.777.015-1.554,0-2.331,0-.227.081-.27.285-.267.777.01,1.554.012,2.331,0,.227,0,.271.081.268.285-.01.777-.012,1.553,0,2.33,0,.228-.084.275-.288.268-.388-.013-.777,0-1.166,0" transform="translate(-35.687 -20.413)"/>
        <path id="Path_824201" data-name="Path 824201" d="M42.769,33.4c0,.389-.009.777,0,1.165.006.2-.06.257-.255.255q-1.188-.014-2.376,0c-.2,0-.255-.058-.253-.254q.015-1.187,0-2.375c0-.195.055-.257.252-.254q1.188.015,2.376,0c.194,0,.262.054.255.253-.013.4,0,.807,0,1.21" transform="translate(-25.498 -20.414)"/>
        <path id="Path_824202" data-name="Path 824202" d="M25.238,34.688c-.456-.016-1.067.23-1.327-.063-.225-.254-.077-.852-.066-1.3.013-.487-.213-1.138.089-1.413.265-.241.908-.08,1.383-.071.457.009,1.068-.2,1.327.087.226.249.08.85.068,1.3-.013.487.215,1.14-.091,1.412-.266.236-.908.049-1.383.049" transform="translate(-15.198 -20.315)"/>
      </g>
    </g>
  </g>
</svg>
