<svg xmlns="http://www.w3.org/2000/svg" xmlns:xlink="http://www.w3.org/1999/xlink" width="120" height="120" viewBox="0 0 120 120">
  <defs>
    <clipPath id="clip-path">
      <rect id="Rectangle_378429" data-name="Rectangle 378429" width="91.079" height="91.132" fill="none"/>
    </clipPath>
  </defs>
  <g id="Group_1074356" data-name="Group 1074356" transform="translate(-180 -24316)">
    <circle id="Ellipse_5982" data-name="Ellipse 5982" cx="60" cy="60" r="60" transform="translate(180 24316)" fill="#ffae7e"/>
    <g id="Group_1074784" data-name="Group 1074784" transform="translate(194 24331)">
      <g id="Group_1074783" data-name="Group 1074783" clip-path="url(#clip-path)">
        <path id="Path_824203" data-name="Path 824203" d="M39.283,160.584c-.885,0-1.771-.014-2.656.014-.334.011-.375-.114-.374-.4.01-2.608,0-5.217.014-7.825,0-.377-.071-.431-.431-.326a36.208,36.208,0,0,1-3.941.756,17.187,17.187,0,0,1-2.986.2q-3.842-.01-7.684-.008a1.552,1.552,0,0,1-1.617-1.222c-.061-.325-.2-.288-.4-.289-.585,0-1.17-.012-1.754,0a5.908,5.908,0,0,1-3.725-1.427,4.557,4.557,0,0,1-1.67-2.429,2.766,2.766,0,0,1,.586-2.635,3.2,3.2,0,0,1,2.621-1.09c1.312-.019,2.624-.01,3.937,0,.222,0,.3-.022.383-.3a1.461,1.461,0,0,1,1.622-1.208c2.45-.046,4.9.006,7.351-.031.85-.013,1.7-.2,2.547-.255a17.258,17.258,0,0,0,2.529-.382,29.091,29.091,0,0,0,3.857-1.2,15.52,15.52,0,0,1,4.424-1.115,18.917,18.917,0,0,0,1.984-.11,15.019,15.019,0,0,1-1.356-23.077,15.049,15.049,0,0,1,20.334-.461,14.5,14.5,0,0,1,5.213,11.994,14.711,14.711,0,0,1-6.033,11.532c.676-.018,1.309.107,1.951.121a8.915,8.915,0,0,1,2.028.351c1.223.326,2.37.872,3.584,1.224a28.856,28.856,0,0,0,4.993,1.19,30.885,30.885,0,0,0,3.611.209c2.039-.027,4.079,0,6.118-.011a3.156,3.156,0,0,1,.918.14,1.436,1.436,0,0,1,.983,1.038c.086.3.246.356.535.351,1.28-.018,2.561,0,3.842-.011a7.408,7.408,0,0,1,1.306.123,3.1,3.1,0,0,1,2.112,2.336c.3,1.561-.594,2.568-1.555,3.551a5.714,5.714,0,0,1-2.837,1.441,11.588,11.588,0,0,1-2.906.137c-.307,0-.453.035-.525.408a1.523,1.523,0,0,1-1.531,1.109c-2.783.005-5.565.012-8.347-.006a23.167,23.167,0,0,1-5.569-.749,6.063,6.063,0,0,1-.842-.192c-.3-.121-.277.133-.277.326q0,2.016,0,4.032c0,1.265-.008,2.529.006,3.794,0,.288-.041.412-.375.4-.884-.028-1.77-.012-2.655-.014,0-.743-.011-1.486-.011-2.228,0-2.767-.023-5.534.019-8.3a1.406,1.406,0,0,1,1.491-1.535,4.013,4.013,0,0,1,1.444.307,11.378,11.378,0,0,0,1.879.537,21.609,21.609,0,0,0,4.518.579c2.321.077,4.647.013,6.971.028.324,0,.384-.1.38-.4-.016-1.249-.024-2.5,0-3.746.008-.376-.116-.422-.449-.427-2.3-.036-4.6.079-6.907-.071a35.448,35.448,0,0,1-3.677-.513,25.374,25.374,0,0,1-5.43-1.641,11.036,11.036,0,0,0-4.056-.789c-2.37-.044-4.742-.013-7.114-.009a.708.708,0,0,0-.469.06c.7,1.581,1.414,3.147,2.086,4.732.539,1.269,1.026,2.559,1.534,3.841a1.286,1.286,0,0,1-.143,1.31c-.69.943-1.4,1.872-2.057,2.838-.712,1.042-1.479,2.049-2.269,3.035-.905,1.131-1.929,1.173-2.778,0-1-1.379-2.035-2.732-3.053-4.1-.444-.595-.9-1.183-1.321-1.791a1.426,1.426,0,0,1-.131-1.569c.337-.675.609-1.383.89-2.084.743-1.858,1.6-3.665,2.4-5.5.346-.8.4-.787-.48-.783-2.292.009-4.585-.027-6.877.017a9.747,9.747,0,0,0-3.022.447,44.886,44.886,0,0,1-7.125,2.055,32.8,32.8,0,0,1-4.587.51c-1.754.046-3.51.023-5.264,0-.366,0-.441.1-.432.444.025.932.006,1.865.01,2.8,0,.424-.146,1,.069,1.233.25.276.832.091,1.267.083a73.954,73.954,0,0,0,7.744-.18,29.086,29.086,0,0,0,5.471-1.16,1.5,1.5,0,0,1,1.884.624,2.668,2.668,0,0,1,.251,1.191c.011,3.383,0,6.766,0,10.149m23.505-40.245c.034.033.079.065.108.012.012-.021-.028-.072-.045-.109a10.161,10.161,0,0,0-2.127-2.365,9.037,9.037,0,0,0-2.081-1.416,12.2,12.2,0,0,0-4.169-1.255,12.751,12.751,0,0,0-3.819.081,12.13,12.13,0,0,0-6.5,3.528c-.288.291-.533.626-.832.982a1.035,1.035,0,0,0,.684-.127c.7-.287,1.424-.507,2.147-.727a24.6,24.6,0,0,1,4.208-.743c.567-.069,1.14-.093,1.71-.157s1.144.143,1.715.131a18.225,18.225,0,0,1,4.189.554,27.5,27.5,0,0,1,4.815,1.611m2.235,6.137q-.011-.26-.021-.521a1.581,1.581,0,0,0-.82-1.4,21.59,21.59,0,0,0-6.249-2.738,25.977,25.977,0,0,0-5.494-.695,18.508,18.508,0,0,0-3.591.324,21.4,21.4,0,0,0-6.932,2.509,1.718,1.718,0,0,0-.992,1.414c-.03.295-.09.589-.1.881a12.446,12.446,0,0,0,.557,4.63,12.131,12.131,0,0,0,7.608,7.8,11.754,11.754,0,0,0,5.757.54,12,12,0,0,0,6.265-2.954,11.655,11.655,0,0,0,4.043-8.241l.023-.014-.021-.018q.013-.236.025-.471c.006-.009.018-.018.017-.026a.287.287,0,0,0-.017-.058c0-.128,0-.255,0-.382v-.01l-.054-.554.02-.008-.02-.01M52.965,144.647c-.133.285-.217.451-.289.62-.787,1.856-1.562,3.717-2.367,5.565a.707.707,0,0,0,.086.815q1.2,1.557,2.365,3.139c.159.215.232.23.4.006.761-1.027,1.525-2.053,2.32-3.054a.856.856,0,0,0,.106-1c-.449-1.006-.883-2.02-1.317-3.033-.42-.98-.834-1.962-1.3-3.062m35.723,2.282H87.5c-1.207,0-1.2,0-1.164,1.216.007.26.09.313.326.307.6-.016,1.2.019,1.8-.013a3.074,3.074,0,0,0,2.3-1.014c.1-.118.275-.227.227-.389-.06-.2-.271-.1-.413-.1-.631-.011-1.263,0-1.894-.005m-73.768,0a4.728,4.728,0,0,0,1.433,1.249,4.362,4.362,0,0,0,2.062.265c1.265.011,1.265,0,1.147-1.273a.283.283,0,0,1,0-.047c.012-.139-.047-.2-.19-.2-1.446,0-2.893,0-4.452,0" transform="translate(-7.413 -69.515)"/>
        <path id="Path_824204" data-name="Path 824204" d="M56.622,210.175c0-3.383.014-6.766,0-10.149a2.658,2.658,0,0,0-.251-1.191,1.5,1.5,0,0,0-1.884-.624,29.08,29.08,0,0,1-5.471,1.16,73.851,73.851,0,0,1-7.743.179c-.436.008-1.017.192-1.267-.083-.215-.237-.067-.809-.069-1.233,0-.933.015-1.866-.01-2.8-.009-.345.065-.449.431-.444,1.754.022,3.51.046,5.264,0a32.81,32.81,0,0,0,4.587-.51,44.92,44.92,0,0,0,7.125-2.055,9.738,9.738,0,0,1,3.022-.447c2.292-.043,4.584-.007,6.877-.017.883,0,.825-.013.48.783-.8,1.834-1.654,3.641-2.4,5.5-.281.7-.553,1.409-.89,2.084a1.426,1.426,0,0,0,.131,1.569c.425.608.877,1.2,1.321,1.791,1.018,1.365,2.054,2.718,3.053,4.1.849,1.171,1.873,1.128,2.778,0,.789-.986,1.556-1.993,2.268-3.035.66-.966,1.367-1.9,2.057-2.838a1.285,1.285,0,0,0,.143-1.31c-.508-1.282-1-2.572-1.534-3.841-.672-1.584-1.387-3.151-2.086-4.732a.706.706,0,0,1,.469-.06c2.372,0,4.743-.035,7.114.009a11.031,11.031,0,0,1,4.056.789,25.343,25.343,0,0,0,5.43,1.641,35.267,35.267,0,0,0,3.677.513c2.3.15,4.605.035,6.907.071.333,0,.458.051.449.427-.028,1.249-.02,2.5,0,3.746,0,.3-.056.4-.38.4-2.324-.016-4.65.049-6.971-.028a21.637,21.637,0,0,1-4.518-.579,11.338,11.338,0,0,1-1.879-.537,4.024,4.024,0,0,0-1.444-.307,1.406,1.406,0,0,0-1.491,1.535c-.042,2.766-.018,5.533-.018,8.3,0,.743.007,1.486.011,2.228a11.292,11.292,0,0,1-2.184,0q-12.58,0-25.159,0" transform="translate(-24.752 -119.107)" fill="#e9e9e9"/>
        <path id="Path_824205" data-name="Path 824205" d="M80.012,15.127A13.234,13.234,0,0,1,81.267,8.99a14.425,14.425,0,0,1,2.172-3.452A14.908,14.908,0,0,1,92.79.191,10,10,0,0,1,94.923.008a14.867,14.867,0,0,1,10.568,4.074,16.276,16.276,0,0,1,3.561,5.025,12.418,12.418,0,0,1,1.127,4.087,18.127,18.127,0,0,1,.173,2.188,18.663,18.663,0,0,1-.737,4.23,14.219,14.219,0,0,1-3.511,6.079A14.858,14.858,0,0,1,98.743,29.9a15.8,15.8,0,0,1-4.5.438c-.482-.023-1-.173-1.475-.2a12.07,12.07,0,0,1-3.562-1.02,12.776,12.776,0,0,1-3.59-2.124c-.55-.448-1.017-.967-1.538-1.436a11.359,11.359,0,0,1-1.414-1.794,13.356,13.356,0,0,1-1.721-3.247,15.331,15.331,0,0,1-.677-2.628,10.413,10.413,0,0,1-.252-2.761m10.864,1.565a2.95,2.95,0,0,0-2.531.918c-1.239,1-2.541,1.928-3.833,2.861-.182.132-.194.254-.113.378a16.25,16.25,0,0,0,1.85,2.559c.212.22.351.173.544.013.446-.372.888-.751,1.353-1.1.9-.671,1.846-1.274,2.7-2a1.831,1.831,0,0,1,2.151-.311c.824.386,1.625.825,2.454,1.2a2.332,2.332,0,0,1,1.341,1.737c.286,1.226.616,2.442.893,3.669.078.344.241.366.519.311a9.687,9.687,0,0,0,1.535-.52,11.734,11.734,0,0,0,5.1-3.858c.3-.387.3-.458-.157-.609q-3.406-1.121-6.818-2.226a1.66,1.66,0,0,1-1.138-1.854A13.706,13.706,0,0,1,98.1,15.585,16.6,16.6,0,0,1,99.108,14.2a3.186,3.186,0,0,0,.635-2.308c-.063-.849-.019-1.706-.011-2.559a1.753,1.753,0,0,1,.7-1.528c.768-.532,1.545-1.055,2.349-1.529.359-.212.319-.287.034-.527a11.237,11.237,0,0,0-4.673-2.315,12.639,12.639,0,0,0-4.18-.323,14.623,14.623,0,0,0-4.1,1.1c-.17.069-.31.18-.142.343.728.71,1.239,1.775,2.557,1.532a6.005,6.005,0,0,1,1.136-.009,1.593,1.593,0,0,1,1.7,1.168c.51,1.437.979,2.889,1.463,4.336a1.447,1.447,0,0,1-.434,1.707c-.718.576-1.236,1.338-1.921,1.939a11.159,11.159,0,0,0-1,.98c-.574.645-1.373.5-2.345.487M90.2,13.665a7.581,7.581,0,0,1,.8.005,1.112,1.112,0,0,0,1.028-.448A14.457,14.457,0,0,1,93.2,12.046a.532.532,0,0,0,.162-.661c-.219-.591-.443-1.182-.6-1.789a.565.565,0,0,0-.7-.491c-.36.032-.727-.013-1.089.011a1.958,1.958,0,0,1-1.6-.66C88.743,7.821,88.117,7.2,87.5,6.567c-.432-.438-.447-.454-.891.008a12.074,12.074,0,0,0-3.571,8.391,10.214,10.214,0,0,0,.174,2.344c.073.338.157.352.413.155,1.238-.953,2.507-1.867,3.721-2.85a3.366,3.366,0,0,1,2.856-.95m17.023.4a2.972,2.972,0,0,0-.078-.849A11.848,11.848,0,0,0,105.4,8.606c-.146-.232-.277-.284-.527-.107-.579.411-1.175.8-1.778,1.174a.618.618,0,0,0-.333.608c.019,1-.006,1.992.013,2.987a2.481,2.481,0,0,1-.457,1.51c-.512.74-1,1.5-1.515,2.236-.2.28-.189.432.159.548,1.75.583,3.5,1.178,5.243,1.767.22.074.378.055.473-.217a12.594,12.594,0,0,0,.563-2.81,7.484,7.484,0,0,0-.016-2.237M94.269,27.323c.365.041.5-.087.4-.466-.228-.852-.433-1.71-.645-2.566a2.66,2.66,0,0,0-1.713-1.224.571.571,0,0,0-.249.123c-.95.707-1.894,1.422-2.847,2.125-.231.171-.253.315,0,.455a13.536,13.536,0,0,0,5.055,1.551" transform="translate(-49.634 0)"/>
        <path id="Path_824206" data-name="Path 824206" d="M0,75.939c.086-9.28,6.665-15.551,14.195-15.866A15.1,15.1,0,0,1,30.261,73.82a14.678,14.678,0,0,1-4.422,12.142,15.242,15.242,0,0,1-9.575,4.348,14.645,14.645,0,0,1-11.4-4.077A14.417,14.417,0,0,1,0,75.939m6.029,7.193a7.751,7.751,0,0,1,.4-2.615,7.635,7.635,0,0,1,3.646-4.344c.216-.117.484-.175.217-.532a5.55,5.55,0,0,1-1.08-4.5A5.983,5.983,0,0,1,12.7,66.639a5.812,5.812,0,0,1,4.617-.112,5.976,5.976,0,0,1,3.921,5.819,5.146,5.146,0,0,1-1.049,3.147c-.31.395-.179.523.177.727a7.56,7.56,0,0,1,3.928,6.425c.01.146-.09.373.08.421.195.055.255-.193.353-.324a12.115,12.115,0,0,0,2.523-8.519,11,11,0,0,0-.948-3.877A11.919,11.919,0,0,0,15.24,63.084a11.025,11.025,0,0,0-3.108.37A11.647,11.647,0,0,0,6.6,66.627a12.009,12.009,0,0,0-3.48,7.133,12.2,12.2,0,0,0,.151,3.964,11.509,11.509,0,0,0,1.3,3.391,9.639,9.639,0,0,0,1.458,2.018m9.24-4.881c-.617,0-1.092,0-1.565,0a4.4,4.4,0,0,0-3.317,1.42,3.983,3.983,0,0,0-1.244,2.316c-.108,1.159-.026,2.335-.03,3.5a.369.369,0,0,0,.193.39,11.2,11.2,0,0,0,2.066.894,13.463,13.463,0,0,0,5.111.51,12.738,12.738,0,0,0,4.54-1.373c.123-.061.245-.125.237-.311a16.867,16.867,0,0,0-.28-4.286,4.6,4.6,0,0,0-3.55-2.989c-.773-.106-1.538-.013-2.16-.076m-.185-9.012C13.6,69,12.14,70.613,12.132,72.173a3.148,3.148,0,0,0,3.033,3.055c1.837-.067,2.979-1.339,2.97-3.452a2.835,2.835,0,0,0-3.052-2.536" transform="translate(0 -37.265)"/>
        <path id="Path_824207" data-name="Path 824207" d="M174.755,60.039a15.332,15.332,0,0,1,8.59,2.392,15.151,15.151,0,0,1,5.91,7.165,11.882,11.882,0,0,1,.931,3.723c.05.7.189,1.387.169,2.091a15.857,15.857,0,0,1-.684,4.1,14.567,14.567,0,0,1-2.7,5.211,15.776,15.776,0,0,1-4.359,3.695,16.027,16.027,0,0,1-4.783,1.745,7.633,7.633,0,0,1-3.2.135,7.9,7.9,0,0,0-.944,0,15.161,15.161,0,0,1-2.961-.584,23.145,23.145,0,0,1-2.324-.892,9.214,9.214,0,0,1-1.955-1.166,15.024,15.024,0,0,1-2.668-2.375,15.754,15.754,0,0,1-2.852-4.765,15.715,15.715,0,0,1-.072-10.385,15.226,15.226,0,0,1,2.688-4.674,14.771,14.771,0,0,1,4.952-3.893,15.212,15.212,0,0,1,5.049-1.452,7.985,7.985,0,0,1,1.213-.067m-11.72,15.232a12.144,12.144,0,0,0,12.152,12.072A12.109,12.109,0,0,0,187.24,73.952a11.679,11.679,0,0,0-3.544-7.4,11.821,11.821,0,0,0-8.569-3.479,12.1,12.1,0,0,0-12.091,12.2" transform="translate(-99.278 -37.251)"/>
        <path id="Path_824208" data-name="Path 824208" d="M215.017,149.626c-.042.4.211,1.043-.091,1.318-.262.238-.9.069-1.365.074-.425,0-.851-.007-1.276,0-.2.005-.314-.014-.309-.27q.025-1.248,0-2.5c0-.246.091-.279.3-.276.819.01,1.638.012,2.457,0,.228,0,.3.063.289.29-.017.425,0,.85,0,1.358" transform="translate(-131.529 -91.819)"/>
        <path id="Path_824209" data-name="Path 824209" d="M213.326,182.935c-.421-.04-1.088.213-1.368-.1-.245-.271-.079-.928-.069-1.414s-.213-1.164.089-1.447c.263-.247.924-.072,1.41-.078.41,0,.821.016,1.229-.007.259-.014.312.081.309.32-.013.819-.01,1.639,0,2.459,0,.258-.053.324-.341.279a8.563,8.563,0,0,0-1.256-.015" transform="translate(-131.431 -111.592)"/>
        <path id="Path_824210" data-name="Path 824210" d="M22.922,165.4c0,.488.192,1.146-.05,1.418-.278.311-.948.082-1.447.095s-1.145.178-1.418-.068c-.311-.28-.082-.948-.094-1.447s-.178-1.145.068-1.418c.28-.311.948-.082,1.447-.094s1.14-.177,1.419.068c.321.282.042.95.075,1.448" transform="translate(-12.313 -101.646)"/>
        <path id="Path_824211" data-name="Path 824211" d="M215.016,165.461c0,.411-.011.822,0,1.232.008.231-.036.332-.3.326-.805-.019-1.612-.014-2.417,0-.23,0-.332-.036-.326-.3.019-.805.014-1.612,0-2.417,0-.23.036-.332.3-.326.805.019,1.612.02,2.417,0,.291-.008.335.105.324.354-.019.378,0,.758,0,1.137" transform="translate(-131.528 -101.741)"/>
        <path id="Path_824212" data-name="Path 824212" d="M21.424,150.9c-.488,0-1.146.192-1.417-.05-.311-.278-.082-.948-.094-1.447s-.178-1.145.068-1.417c.28-.311.948-.082,1.447-.094s1.145-.178,1.418.068c.31.281.082.949.094,1.448s.177,1.14-.068,1.419c-.282.321-.95.042-1.448.074" transform="translate(-12.312 -91.72)"/>
        <path id="Path_824213" data-name="Path 824213" d="M23.04,181.459c0,.411-.011.822,0,1.232.008.231-.036.332-.3.326-.805-.019-1.612-.014-2.417,0-.23,0-.332-.036-.326-.3.019-.805.014-1.612,0-2.417,0-.23.036-.332.3-.326.805.019,1.612.02,2.417,0,.291-.008.335.105.324.354-.019.378,0,.758,0,1.137" transform="translate(-12.408 -111.668)"/>
        <path id="Path_824214" data-name="Path 824214" d="M112.236,142.883a11.655,11.655,0,0,1-4.043,8.241,12,12,0,0,1-6.265,2.954,11.758,11.758,0,0,1-5.757-.539,12.132,12.132,0,0,1-7.608-7.8,12.446,12.446,0,0,1-.557-4.63c.011-.291.072-.586.1-.88a1.717,1.717,0,0,1,.992-1.414,21.39,21.39,0,0,1,6.932-2.509,18.508,18.508,0,0,1,3.591-.324,25.977,25.977,0,0,1,5.495.7,21.59,21.59,0,0,1,6.249,2.738,1.581,1.581,0,0,1,.82,1.4q.01.261.021.521l-.017.008.017.011.054.554-.024,0,.025.006c0,.127,0,.255,0,.381-.01.007-.031.017-.03.02a.539.539,0,0,0,.03.064q-.013.236-.025.471l-.025.015Zm-21.2-2.348a10.613,10.613,0,0,1-1.137-.009c-.4-.043-.417.2-.37.448a5.327,5.327,0,0,0,.649,1.868,4.516,4.516,0,0,0,4.378,2.224,4.583,4.583,0,0,0,4.062-4.286c.024-.184-.027-.25-.221-.249-.854.008-1.707.007-2.561,0-.183,0-.218.077-.255.248a1.528,1.528,0,0,1-3.016.005c-.042-.206-.108-.258-.3-.254-.411.009-.822,0-1.233,0m12.159,0c-.395,0-.792.03-1.183-.009s-.4.181-.344.422a6.12,6.12,0,0,0,.526,1.663A4.519,4.519,0,0,0,110.7,141c.072-.535-.126-.47-.452-.466-.679.008-1.358.012-2.037,0-.293-.006-.458.013-.523.388a1.417,1.417,0,0,1-1.28,1.138c-.686.057-1.412-.219-1.52-.768-.162-.821-.66-.819-1.271-.756-.141.014-.284,0-.426,0" transform="translate(-54.597 -84.37)" fill="#fed5a7"/>
        <path id="Path_824215" data-name="Path 824215" d="M114.086,125.355a27.484,27.484,0,0,0-4.815-1.611,18.183,18.183,0,0,0-4.189-.554c-.571.012-1.156-.194-1.715-.131s-1.143.088-1.71.157a24.6,24.6,0,0,0-4.208.743c-.723.219-1.446.439-2.147.727a1.037,1.037,0,0,1-.684.126c.3-.355.543-.691.831-.982a12.132,12.132,0,0,1,6.5-3.528,12.751,12.751,0,0,1,3.819-.081,12.2,12.2,0,0,1,4.169,1.255,9.038,9.038,0,0,1,2.081,1.417,10.153,10.153,0,0,1,2.127,2.365l-.063.1" transform="translate(-58.71 -74.532)" fill="#62bb93"/>
        <path id="Path_824216" data-name="Path 824216" d="M115.541,197.971c.467,1.1.881,2.082,1.3,3.062.435,1.013.868,2.027,1.318,3.033a.856.856,0,0,1-.106,1c-.794,1-1.558,2.027-2.32,3.054-.166.224-.239.209-.4-.006q-1.167-1.581-2.365-3.139a.706.706,0,0,1-.085-.815c.8-1.848,1.58-3.709,2.367-5.565.072-.17.156-.335.289-.62" transform="translate(-69.989 -122.839)" fill="#62bb93"/>
        <path id="Path_824217" data-name="Path 824217" d="M210.305,203.954c.632,0,1.263-.006,1.894,0,.141,0,.353-.1.412.1.048.162-.126.271-.227.389a3.075,3.075,0,0,1-2.3,1.014c-.6.032-1.2,0-1.8.013-.236.006-.32-.046-.326-.307-.033-1.216-.043-1.216,1.164-1.216h1.184" transform="translate(-129.03 -126.54)" fill="#fed5a7"/>
        <path id="Path_824218" data-name="Path 824218" d="M19.782,203.982c1.559,0,3.006,0,4.452,0,.143,0,.2.057.19.2a.283.283,0,0,0,0,.047c.118,1.276.118,1.284-1.147,1.273a4.362,4.362,0,0,1-2.062-.265,4.728,4.728,0,0,1-1.433-1.249" transform="translate(-12.275 -126.568)" fill="#fed5a7"/>
        <path id="Path_824219" data-name="Path 824219" d="M151.9,152.714a.511.511,0,0,1-.03-.064s.019-.014.03-.02a.39.39,0,0,1,.017.058c0,.008-.011.017-.017.026" transform="translate(-94.237 -94.706)" fill="#62bb93"/>
        <path id="Path_824220" data-name="Path 824220" d="M151.776,150.108l-.017-.011.017-.007.02.01Z" transform="translate(-94.165 -93.129)" fill="#62bb93"/>
        <path id="Path_824221" data-name="Path 824221" d="M151.905,151.608l-.025-.006.024,0v.011" transform="translate(-94.241 -94.065)" fill="#62bb93"/>
        <path id="Path_824222" data-name="Path 824222" d="M151.842,154.125l-.023-.019.025-.014.02.019Z" transform="translate(-94.202 -95.613)" fill="#62bb93"/>
        <path id="Path_824223" data-name="Path 824223" d="M145.977,133.664c.017.037.057.088.045.109-.03.052-.074.02-.108-.012l.063-.1" transform="translate(-90.538 -82.937)" fill="#62bb93"/>
        <path id="Path_824224" data-name="Path 824224" d="M98,21.693c.972.009,1.771.158,2.345-.487a11.316,11.316,0,0,1,1-.98c.685-.6,1.2-1.363,1.921-1.939a1.447,1.447,0,0,0,.434-1.707c-.484-1.446-.953-2.9-1.463-4.336a1.593,1.593,0,0,0-1.7-1.168,6,6,0,0,0-1.136.009c-1.318.243-1.829-.822-2.557-1.532-.168-.164-.028-.275.142-.343a14.612,14.612,0,0,1,4.1-1.1,12.637,12.637,0,0,1,4.18.323,11.24,11.24,0,0,1,4.673,2.315c.285.241.325.315-.034.527-.8.474-1.581,1-2.349,1.529a1.755,1.755,0,0,0-.7,1.528c-.008.854-.051,1.711.011,2.559a3.184,3.184,0,0,1-.635,2.308,16.748,16.748,0,0,0-1.011,1.383,13.732,13.732,0,0,0-1.372,2.283,1.66,1.66,0,0,0,1.138,1.854q3.414,1.1,6.819,2.226c.458.151.461.222.158.609a11.733,11.733,0,0,1-5.105,3.858,9.682,9.682,0,0,1-1.534.52c-.278.055-.442.033-.52-.311-.277-1.228-.606-2.444-.893-3.669a2.331,2.331,0,0,0-1.341-1.737c-.828-.376-1.629-.815-2.454-1.2a1.831,1.831,0,0,0-2.151.311c-.85.723-1.8,1.326-2.7,2-.465.348-.907.727-1.353,1.1-.193.161-.332.207-.543-.013a16.253,16.253,0,0,1-1.851-2.559c-.08-.124-.069-.247.113-.378,1.293-.934,2.594-1.859,3.833-2.862A2.95,2.95,0,0,1,98,21.693" transform="translate(-56.762 -5.001)" fill="#a6dafa"/>
        <path id="Path_824225" data-name="Path 824225" d="M95.167,23.858a3.365,3.365,0,0,0-2.856.95c-1.213.983-2.483,1.9-3.721,2.85-.256.2-.34.183-.413-.155A10.235,10.235,0,0,1,88,25.159a12.071,12.071,0,0,1,3.571-8.391c.443-.463.459-.446.891-.008.621.63,1.247,1.254,1.864,1.888a1.959,1.959,0,0,0,1.6.66c.362-.024.728.021,1.089-.011a.564.564,0,0,1,.7.491c.161.607.385,1.2.6,1.789a.532.532,0,0,1-.162.661A14.518,14.518,0,0,0,97,23.415a1.112,1.112,0,0,1-1.027.448,7.589,7.589,0,0,0-.8-.005" transform="translate(-54.604 -10.192)" fill="#62bb93"/>
        <path id="Path_824226" data-name="Path 824226" d="M141.028,27.788a7.485,7.485,0,0,1,.015,2.237,12.566,12.566,0,0,1-.563,2.809c-.094.272-.253.291-.473.217-1.748-.589-3.493-1.184-5.243-1.767-.349-.116-.355-.268-.159-.548.517-.737,1-1.5,1.515-2.236a2.481,2.481,0,0,0,.458-1.51c-.019-1,.006-1.992-.013-2.987a.619.619,0,0,1,.333-.609c.6-.375,1.2-.762,1.778-1.174.25-.177.381-.126.527.107a11.848,11.848,0,0,1,1.746,4.611,2.957,2.957,0,0,1,.078.849" transform="translate(-83.441 -13.723)" fill="#62bb93"/>
        <path id="Path_824227" data-name="Path 824227" d="M109.046,65.034a13.536,13.536,0,0,1-5.055-1.551c-.256-.14-.235-.285,0-.455.953-.7,1.9-1.418,2.847-2.125a.571.571,0,0,1,.249-.123A2.66,2.66,0,0,1,108.8,62c.212.856.416,1.714.645,2.566.1.378-.03.506-.4.466" transform="translate(-64.411 -37.712)" fill="#62bb93"/>
        <path id="Path_824228" data-name="Path 824228" d="M10.971,88.071a9.631,9.631,0,0,1-1.458-2.018,11.486,11.486,0,0,1-1.3-3.391A12.181,12.181,0,0,1,8.06,78.7a12.007,12.007,0,0,1,3.48-7.133,11.652,11.652,0,0,1,5.534-3.173,11.042,11.042,0,0,1,3.108-.37,11.919,11.919,0,0,1,11.064,7.262,10.993,10.993,0,0,1,.948,3.877A12.116,12.116,0,0,1,29.67,87.68c-.1.131-.158.379-.353.324-.169-.048-.069-.275-.079-.421a7.56,7.56,0,0,0-3.928-6.425c-.356-.2-.488-.332-.177-.727a5.144,5.144,0,0,0,1.048-3.146,5.974,5.974,0,0,0-3.921-5.819,5.81,5.81,0,0,0-4.617.112,5.984,5.984,0,0,0-3.485,4.505,5.552,5.552,0,0,0,1.08,4.5c.267.356,0,.415-.217.531a7.639,7.639,0,0,0-3.646,4.345,7.749,7.749,0,0,0-.4,2.615" transform="translate(-4.942 -42.203)" fill="#a6dafa"/>
        <path id="Path_824229" data-name="Path 824229" d="M30.124,108c.622.062,1.387-.03,2.16.076a4.6,4.6,0,0,1,3.55,2.989,16.87,16.87,0,0,1,.28,4.287c.008.186-.115.249-.237.311a12.753,12.753,0,0,1-4.54,1.373,13.472,13.472,0,0,1-5.111-.511,11.2,11.2,0,0,1-2.066-.895.368.368,0,0,1-.193-.39c0-1.169-.079-2.345.03-3.5a3.981,3.981,0,0,1,1.244-2.316,4.4,4.4,0,0,1,3.316-1.42c.474,0,.948,0,1.566,0" transform="translate(-14.855 -67.01)" fill="#e9e9e9"/>
        <path id="Path_824230" data-name="Path 824230" d="M34.919,84.211a2.835,2.835,0,0,1,3.052,2.536c.009,2.114-1.132,3.386-2.97,3.452a3.148,3.148,0,0,1-3.033-3.055c.008-1.56,1.465-3.177,2.951-2.934" transform="translate(-19.836 -52.237)" fill="#fed5a7"/>
        <path id="Path_824231" data-name="Path 824231" d="M168,80.231a12.1,12.1,0,0,1,12.091-12.2,11.822,11.822,0,0,1,8.57,3.479,11.677,11.677,0,0,1,3.544,7.4A12.108,12.108,0,0,1,180.148,92.3,12.144,12.144,0,0,1,168,80.231m13.66,6.8c0-.585.03-1.172-.01-1.754-.03-.439.069-.584.547-.575a13.284,13.284,0,0,0,2.684-.077,5.288,5.288,0,0,0,4.282-5.838,5.063,5.063,0,0,0-3.06-4.153,2.229,2.229,0,0,1-.954-.808,5.63,5.63,0,0,0-3.993-2.6,5.783,5.783,0,0,0-6.079,2.68,1.673,1.673,0,0,1-.8.675,5.26,5.26,0,0,0-3.11,6.019,5.485,5.485,0,0,0,5.137,4.115c.648-.011,1.3.016,1.944-.008.311-.012.394.08.39.39-.018,1.264,0,2.529-.016,3.794,0,.318.092.393.394.384q1.161-.031,2.323,0c.282.007.338-.094.331-.35-.016-.632-.005-1.265-.005-1.9" transform="translate(-104.239 -42.211)" fill="#a6dafa"/>
        <path id="Path_824232" data-name="Path 824232" d="M93.514,147.97c.411,0,.822.006,1.233,0,.189,0,.254.047.3.254a1.528,1.528,0,0,0,3.016-.005c.037-.171.073-.249.255-.248.854.005,1.707.007,2.561,0,.194,0,.245.065.221.249a4.583,4.583,0,0,1-4.062,4.286,4.517,4.517,0,0,1-4.378-2.224,5.332,5.332,0,0,1-.649-1.868c-.047-.253-.027-.491.37-.448a10.819,10.819,0,0,0,1.137.009" transform="translate(-57.078 -91.805)"/>
        <path id="Path_824233" data-name="Path 824233" d="M125.513,147.947a4.088,4.088,0,0,0,.426,0c.611-.063,1.11-.065,1.271.756.108.549.834.826,1.52.768a1.416,1.416,0,0,0,1.28-1.138c.065-.375.23-.394.523-.388.679.014,1.358.01,2.037,0,.327,0,.524-.069.452.466a4.519,4.519,0,0,1-8.511,1.613,6.12,6.12,0,0,1-.526-1.663c-.055-.241-.033-.46.344-.422s.789.009,1.183.008" transform="translate(-76.918 -91.783)"/>
        <path id="Path_824234" data-name="Path 824234" d="M186.615,92.116c0,.632-.011,1.265.006,1.9.006.256-.049.357-.331.35q-1.161-.03-2.323,0c-.3.008-.4-.066-.394-.384.019-1.265,0-2.529.016-3.794,0-.31-.079-.4-.39-.39-.647.024-1.3,0-1.944.008a5.485,5.485,0,0,1-5.137-4.115,5.26,5.26,0,0,1,3.11-6.019,1.673,1.673,0,0,0,.8-.675,5.784,5.784,0,0,1,6.08-2.68,5.63,5.63,0,0,1,3.992,2.6,2.229,2.229,0,0,0,.954.808,5.064,5.064,0,0,1,3.06,4.153,5.288,5.288,0,0,1-4.282,5.838,13.284,13.284,0,0,1-2.684.077c-.478-.009-.577.136-.547.575.04.582.01,1.169.01,1.754m-1.585-5.351v0c1.3,0,2.592.015,3.887,0a2.215,2.215,0,0,0,2.236-1.976,2.284,2.284,0,0,0-1.7-2.464,2.195,2.195,0,0,1-1.641-1.395,2.766,2.766,0,0,0-2.654-1.737,2.818,2.818,0,0,0-2.819,1.846,1.86,1.86,0,0,1-1.428,1.238,2.238,2.238,0,0,0-1.716,3.057,2.181,2.181,0,0,0,2.092,1.428c1.248.019,2.5,0,3.745,0" transform="translate(-109.198 -47.299)"/>
        <path id="Path_824235" data-name="Path 824235" d="M190.011,91.609c-1.248,0-2.5.015-3.745,0a2.181,2.181,0,0,1-2.092-1.428,2.238,2.238,0,0,1,1.716-3.057,1.86,1.86,0,0,0,1.428-1.238,2.818,2.818,0,0,1,2.819-1.846,2.766,2.766,0,0,1,2.654,1.737,2.195,2.195,0,0,0,1.641,1.395,2.284,2.284,0,0,1,1.7,2.464,2.215,2.215,0,0,1-2.236,1.976c-1.3.02-2.591,0-3.887,0Z" transform="translate(-114.179 -52.143)" fill="#62bb93"/>
      </g>
    </g>
  </g>
</svg>
