<svg xmlns="http://www.w3.org/2000/svg" xmlns:xlink="http://www.w3.org/1999/xlink" width="120" height="120" viewBox="0 0 120 120">
  <defs>
    <clipPath id="clip-path">
      <rect id="Rectangle_378430" data-name="Rectangle 378430" width="81.611" height="77.1" fill="none"/>
    </clipPath>
  </defs>
  <g id="Group_1074776" data-name="Group 1074776" transform="translate(-180 -24316.207)">
    <circle id="Ellipse_5982" data-name="Ellipse 5982" cx="60" cy="60" r="60" transform="translate(180 24316.207)" fill="#ffae7e"/>
    <g id="Group_1074786" data-name="Group 1074786" transform="translate(199.389 24337.9)">
      <g id="Group_1074785" data-name="Group 1074785" clip-path="url(#clip-path)">
        <path id="Path_824236" data-name="Path 824236" d="M85.182,74.419c.147.9.032,1.806.116,2.708a2.232,2.232,0,0,1-.116.609,1.164,1.164,0,0,0-.982.647,2.174,2.174,0,0,0-.117.97q0,12.051,0,24.1c0,.452-.01.9,0,1.354.007.278-.063.441-.384.374a1.307,1.307,0,0,0-.278,0c-2.693.019-5.387-.055-8.08.053a5.659,5.659,0,0,0-2.613.708,5.533,5.533,0,0,0-2.214,2.314,4.426,4.426,0,0,0-.628,2.005q-.017,4.182-.034,8.364a1.01,1.01,0,0,1-.051.507l-.055.012.055.012.025.123c-.039-.019-.072-.025-.078.034-.287.189-.609.09-.912.09q-28.224.009-56.447.005c-.637,0-1.275-.008-1.912-.012a3.171,3.171,0,0,1-2.365-1.1,3.78,3.78,0,0,1-.881-2.761q.013-23.662,0-47.324a2.886,2.886,0,0,0-.045-.662c-.139-.611-.045-.7.586-.708h.279c2.39,0,4.78,0,7.17-.005.831,0,1.343-.521,1.284-1.127a4.251,4.251,0,0,1,.509-.062c.912-.006,1.823,0,2.735,0a1.411,1.411,0,0,0,1.62,1.207c3.49-.026,6.981-.011,10.472-.011q25.922,0,51.844,0c.284,0,.386.044.384.36-.013,1.831,0,3.663,0,5.494a5.334,5.334,0,0,0,.066.91.969.969,0,0,0,1.041.825m-45.39,37.555v-.009h19c.717,0,1.434,0,2.151.012a3.256,3.256,0,0,0,2-.617,3.488,3.488,0,0,0,1.419-3.058c-.007-2.5,0-4.992-.014-7.489,0-.323.095-.4.4-.394,2.563.013,5.125.009,7.688.011a3.807,3.807,0,0,0,1.133-.134,3.1,3.1,0,0,0,2.288-2.31,9.24,9.24,0,0,0,.122-2.191c.02-5.749.011-11.5.012-17.247A3.9,3.9,0,0,0,75.66,76.7,3.3,3.3,0,0,0,72.478,74.9q-14.8,0-29.6,0c-.119,0-.238,0-.356.014A12.573,12.573,0,0,1,40.51,74.9c-.167-.01-.252-.127-.357-.223a17.605,17.605,0,0,0-2.881-2.334,19.976,19.976,0,0,0-3.2-1.563,18.562,18.562,0,0,0-6.291-1.153,13.931,13.931,0,0,0-3.048.244,19.107,19.107,0,0,0-5.209,1.794,18.092,18.092,0,0,0-3,2.046,17.867,17.867,0,0,0-2.827,3.036A16.5,16.5,0,0,0,10.825,82.5a17.885,17.885,0,0,0-.558,3.028,23.475,23.475,0,0,0-.039,2.871,16.34,16.34,0,0,0,.359,2.432,15.584,15.584,0,0,0,1.437,4.267,18.035,18.035,0,0,0,3.117,4.334.577.577,0,0,1,.193.418c0,.252.021.5.019.756q-.019,4.123-.041,8.245a2.962,2.962,0,0,0,.836,2.057,3.624,3.624,0,0,0,2.89,1.081c6.918-.02,13.836-.01,20.754-.01" transform="translate(-4.859 -44.714)" fill="#efeff3"/>
        <path id="Path_824237" data-name="Path 824237" d="M64.94,74.415a1.01,1.01,0,0,0,.051-.507q.019-4.182.034-8.364a4.422,4.422,0,0,1,.628-2.005,5.533,5.533,0,0,1,2.214-2.314,5.659,5.659,0,0,1,2.613-.708c2.693-.108,5.387-.033,8.081-.053a1.325,1.325,0,0,1,.278,0c.322.068.391-.1.384-.374-.011-.451,0-.9,0-1.354q0-12.051,0-24.1a2.179,2.179,0,0,1,.117-.97,1.164,1.164,0,0,1,.982-.647c.837.05,1.188.547,1.272,1.372a3.118,3.118,0,0,1,0,.318q0,12.45,0,24.9a5.661,5.661,0,0,1-1.771,4.314c-1.821,1.746-3.578,3.557-5.363,5.342Q71.333,72.4,68.2,75.532a4.83,4.83,0,0,1-3.111,1.5c-.529.044-1.053.058-1.579.058Q34.807,77.1,6.1,77.1a5.948,5.948,0,0,1-2.666-.48,5.79,5.79,0,0,1-3.2-3.773A6.435,6.435,0,0,1,0,71.07q0-29.52,0-59.04A5.543,5.543,0,0,1,2.013,7.739,5.335,5.335,0,0,1,5.466,6.426c.929-.032,1.859-.021,2.788.005.317.009.372-.1.363-.38-.019-.582,0-1.166,0-1.749a3.866,3.866,0,0,1,.767-2.256A4.415,4.415,0,0,1,12.245.12,4.891,4.891,0,0,1,15.2.41a4.609,4.609,0,0,1,2.661,3.238A5.94,5.94,0,0,1,18,4.935a10.628,10.628,0,0,0,.062,1.421c.024.046.057.069.11.046l3.748,0c.125.016.272.079.361-.042.062-.085-.118-.077-.118-.164a.5.5,0,0,0,.153-.456c-.044-.535.005-1.072-.034-1.611A2.757,2.757,0,0,1,22.56,3.2a4.659,4.659,0,0,1,5.9-2.955,4.315,4.315,0,0,1,2.733,2.3,5.549,5.549,0,0,1,.574,2.608A5.567,5.567,0,0,0,31.8,6.344c0,.053.022.077.077.054,1.355.02,2.71.046,4.065,0l.1-.022.011-.005a.076.076,0,0,0,.039-.111c0-.622.027-1.246,0-1.867a3.591,3.591,0,0,1,.518-1.91,4.593,4.593,0,0,1,2.809-2.3A5.245,5.245,0,0,1,41.632.114a4.363,4.363,0,0,1,3.421,2.693,4.692,4.692,0,0,1,.441,1.877c.017.49.009.981,0,1.471-.005.2.04.276.26.273,1.193-.019,2.386-.021,3.578-.029l.339,0c.188.041.2-.053.154-.2l.009-1.55a.266.266,0,0,0,.029-.275c-.23-.164.025-.3.039-.441A4.649,4.649,0,0,1,52.977.241,5.1,5.1,0,0,1,56.138.26a4.483,4.483,0,0,1,2.279,1.832,4.988,4.988,0,0,1,.811,2.446c.044.606.018,1.21.069,1.812-.011.054.013.07.063.057h.169l.037.012L59.6,6.4c1.235,0,2.469,0,3.7.011.237,0,.293-.081.288-.3-.011-.584-.022-1.169,0-1.752A4.5,4.5,0,0,1,65.387.99,4.514,4.514,0,0,1,68.925.063a4.42,4.42,0,0,1,3.323,2.111,4.689,4.689,0,0,1,.677,2.284c.047.58.071,1.156.061,1.735,0,.248.129.239.3.238.836-.008,1.673-.024,2.509-.011a5.682,5.682,0,0,1,5.73,5.342c.146,1.588.057,3.178.065,4.766q.028,5.834,0,11.669c0,.564-.065,1.154-.728,1.428a3.892,3.892,0,0,1-.536.08.969.969,0,0,1-1.041-.825,5.367,5.367,0,0,1-.066-.91c0-1.831-.017-3.662,0-5.494,0-.316-.1-.36-.384-.36q-25.922.009-51.844,0c-3.491,0-6.982-.016-10.472.01a1.411,1.411,0,0,1-1.62-1.207,1.372,1.372,0,0,1,1.71-1.2q28.923.008,57.846,0c1.474,0,2.948-.006,4.422,0,.24,0,.354-.037.352-.322-.016-2.377-.011-4.754-.025-7.131a4.143,4.143,0,0,0-.123-1.012,3.307,3.307,0,0,0-3.235-2.449c-.756-.02-1.514-.014-2.271-.013-.7,0-.574-.062-.573.56a7.557,7.557,0,0,1-.327,2.846,4.7,4.7,0,0,1-9.006-.933,11.482,11.482,0,0,1-.064-2.1c0-.3-.1-.383-.389-.379-1.1.014-2.2.006-3.307.005-.639,0-.644,0-.631.658a7.629,7.629,0,0,1-.2,2.283,4.8,4.8,0,0,1-4.817,3.5,4.187,4.187,0,0,1-1.794-.534,4.721,4.721,0,0,1-2.514-3.29,10.922,10.922,0,0,1-.108-2.262c0-.285-.1-.362-.369-.359-1.222.011-2.443.007-3.665,0-.22,0-.31.062-.3.292.012.438.006.876,0,1.315a4.607,4.607,0,0,1-1.819,3.788,4.419,4.419,0,0,1-4.1.9,4.708,4.708,0,0,1-2.61-1.855,4.609,4.609,0,0,1-.724-1.451,10.342,10.342,0,0,1-.143-2.557c0-.323-.087-.444-.425-.434-.769.023-1.54,0-2.31.016a7.2,7.2,0,0,1-.961.009c-.666-.074-.674-.038-.653.643a7.809,7.809,0,0,1-.174,2.286,4.735,4.735,0,0,1-5.574,3.349,4.6,4.6,0,0,1-3.267-2.723,6.584,6.584,0,0,1-.42-3.1c.014-.358-.141-.466-.446-.467-1.2,0-2.391.006-3.587,0-.247,0-.284.114-.281.316.008.464.018.93,0,1.394a5.083,5.083,0,0,1-.775,2.567A4.8,4.8,0,0,1,12.2,15.107a4.728,4.728,0,0,1-2.323-1.343,4.9,4.9,0,0,1-1.129-2.155A10.64,10.64,0,0,1,8.612,9.4c-.01-.516-.092-.61-.627-.6a12.135,12.135,0,0,1-1.893.052,3.311,3.311,0,0,0-1.637.2A3.23,3.23,0,0,0,2.4,12.08c-.011,2.377,0,4.754-.008,7.131,0,.521-.007.521.507.521,2.43,0,4.86-.007,7.29,0,.833,0,1.516.329,1.458,1.256.059.606-.453,1.125-1.284,1.127-2.39.007-4.78,0-7.17.005H2.916c-.631,0-.726.1-.586.708a2.886,2.886,0,0,1,.045.662q0,23.662,0,47.324a3.78,3.78,0,0,0,.881,2.761,3.171,3.171,0,0,0,2.365,1.1c.637,0,1.275.012,1.912.012q28.224,0,56.447-.005c.3,0,.624.1.911-.089.033.006.073.025.1.012s.018-.043-.019-.047l-.025-.123.02-.013Zm2.476-1.533a1.855,1.855,0,0,0,.533-.422q4.63-4.633,9.259-9.267c.078-.078.252-.123.2-.261s-.207-.085-.324-.085c-2.137,0-4.275,0-6.412.011a3.105,3.105,0,0,0-1.515.383,3.335,3.335,0,0,0-1.791,3.132q0,3.086-.011,6.173a.486.486,0,0,0,.062.337M38.476,7.539c0,.518,0,1.036,0,1.553s.01,1.062.02,1.593a2.379,2.379,0,0,0,1.783,2.1,2.334,2.334,0,0,0,2.849-2.3c.023-1.925.01-3.85.009-5.775a2.486,2.486,0,0,0-.325-1.192,2.381,2.381,0,0,0-2.972-.937,1.1,1.1,0,0,0-.424.188,2.49,2.49,0,0,0-.945,1.944c.019.942,0,1.885,0,2.828m32.135,0h-.006c0-1.021.033-2.044-.012-3.063a2.131,2.131,0,0,0-.83-1.586,2.463,2.463,0,0,0-1.873-.449,2.247,2.247,0,0,0-1.9,1.906q-.019,3.184,0,6.367a2.4,2.4,0,0,0,1.8,2.067,2.474,2.474,0,0,0,2.238-.714,2.146,2.146,0,0,0,.573-1.426c.027-1.034.008-2.069.008-3.1M52.273,7.62h0c0,1.035,0,2.069,0,3.1a2.027,2.027,0,0,0,1.25,1.867,2.284,2.284,0,0,0,3.335-2.106c.014-1.857-.011-3.715.013-5.572a2.187,2.187,0,0,0-2.452-2.471,2.134,2.134,0,0,0-2.145,2.074c-.023,1.034-.005,2.07-.005,3.1m-22.949,0q0-.756,0-1.513,0-.777,0-1.553a1.5,1.5,0,0,0-.067-.469,2.415,2.415,0,0,0-3.216-1.555,2.628,2.628,0,0,0-1.33,2.02q.009,2.808.018,5.615a3.429,3.429,0,0,0-.006.669,2.3,2.3,0,0,0,2.41,1.976,2.26,2.26,0,0,0,2.185-2.2c.01-1,0-1.991,0-2.987M11.005,7.429h-.02c0,.518,0,1.036,0,1.554s-.01,1.063.019,1.593a2.23,2.23,0,0,0,1.663,2.2,2.327,2.327,0,0,0,2.937-2.313c.062-1.857.013-3.717.014-5.576a3.011,3.011,0,0,0-.139-.85,2.207,2.207,0,0,0-2.465-1.6,2.154,2.154,0,0,0-2,1.884c-.032,1.034-.007,2.07-.007,3.106" transform="translate(0 0)"/>
        <path id="Path_824238" data-name="Path 824238" d="M69.006,19.43c0,.087.18.079.118.164-.089.121-.236.058-.361.042.006-.157.1-.213.243-.206" transform="translate(-46.844 -13.236)" fill="#b1caeb"/>
        <path id="Path_824239" data-name="Path 824239" d="M155.091,19.773l-.339,0c.04-.213.2-.119.32-.124.007.04.013.081.019.122" transform="translate(-105.423 -13.376)" fill="#b1caeb"/>
        <path id="Path_824240" data-name="Path 824240" d="M155.774,19.633c-.006-.04-.013-.081-.019-.122.062-.017.091-.107.174-.076.049.145.033.238-.154.2" transform="translate(-106.106 -13.236)" fill="#5e97d4"/>
        <path id="Path_824241" data-name="Path 824241" d="M156.11,13.724a.267.267,0,0,1-.028.275c-.168-.11-.146-.2.028-.275" transform="translate(-106.25 -9.349)" fill="#5e97d4"/>
        <path id="Path_824242" data-name="Path 824242" d="M186.824,20.034l-.035.016-.037-.012c.022-.036.046-.045.072,0" transform="translate(-127.222 -13.63)" fill="#b1caeb"/>
        <path id="Path_824243" data-name="Path 824243" d="M186.081,19.979c-.05.013-.074,0-.063-.057l.063.057" transform="translate(-126.72 -13.572)" fill="#b1caeb"/>
        <path id="Path_824244" data-name="Path 824244" d="M112.858,20.013l-.1.022Z" transform="translate(-76.812 -13.634)" fill="#efeff3"/>
        <path id="Path_824245" data-name="Path 824245" d="M99.839,19.957c-.054.023-.076,0-.076-.054l.076.054" transform="translate(-67.961 -13.559)" fill="#b1caeb"/>
        <path id="Path_824246" data-name="Path 824246" d="M56.769,19.985c-.053.024-.086,0-.11-.046l.11.046" transform="translate(-38.598 -13.583)" fill="#efeff3"/>
        <path id="Path_824247" data-name="Path 824247" d="M113.153,19.649a.076.076,0,0,1-.039.111l.039-.111" transform="translate(-77.057 -13.386)" fill="#efeff3"/>
        <path id="Path_824248" data-name="Path 824248" d="M46.352,120.5c-6.918,0-13.836-.01-20.754.01a3.624,3.624,0,0,1-2.89-1.081,2.96,2.96,0,0,1-.836-2.057q.018-4.122.041-8.245c0-.252-.018-.5-.019-.756a.577.577,0,0,0-.193-.418,18.034,18.034,0,0,1-3.116-4.334,15.584,15.584,0,0,1-1.437-4.267,16.34,16.34,0,0,1-.359-2.432,23.474,23.474,0,0,1,.039-2.871,17.854,17.854,0,0,1,.558-3.028,16.5,16.5,0,0,1,2.865-5.747,17.865,17.865,0,0,1,2.826-3.036,18.1,18.1,0,0,1,3-2.046,19.109,19.109,0,0,1,5.21-1.794,13.909,13.909,0,0,1,3.048-.244,18.556,18.556,0,0,1,6.292,1.153,19.973,19.973,0,0,1,3.2,1.563A17.588,17.588,0,0,1,46.714,83.2c.1.1.19.213.357.223a12.576,12.576,0,0,0,2.015.013c.118-.012.237-.014.356-.014q14.8,0,29.6,0a3.3,3.3,0,0,1,3.182,1.806,3.9,3.9,0,0,1,.338,1.845c0,5.749.008,11.5-.013,17.247a9.256,9.256,0,0,1-.121,2.191,3.1,3.1,0,0,1-2.288,2.31,3.8,3.8,0,0,1-1.133.134c-2.563,0-5.125,0-7.688-.011-.309,0-.405.072-.4.394.015,2.5.007,4.992.014,7.489a3.487,3.487,0,0,1-1.419,3.058,3.256,3.256,0,0,1-2,.617c-.717-.011-1.434-.012-2.151-.012h-19Zm-10.381-2.431c.007.045.026.069.073.043.186,0,.371.008.556.009,2.733,0,5.466,0,8.2.013.336,0,.419-.082.417-.41-.013-2.52-.006-5.041-.01-7.562,0-.124.045-.26-.045-.37-.023,0-.04-.007-.047,0a17.376,17.376,0,0,1-8.729,3.506c-.346.037-.488.184-.48.57.027,1.353.008,2.706.007,4.059-.026.061-.023.111.05.135ZM56.817,85.862c-.024-.065-.069-.07-.126-.046-.331,0-.661-.01-.992-.011l-5.319-.017c-.2-.145-.28-.048-.31.152a4.017,4.017,0,0,0-1.082-.062,17.08,17.08,0,0,1,2.373,5.128,16.851,16.851,0,0,1,.616,3.638c.011.29.136.409.412.394.434-.024.866-.069,1.3-.063.928.011,1.857-.007,2.785-.006.247,0,.394-.047.387-.352-.017-.729,0-1.459,0-2.189s0-1.459,0-2.189-.033-1.488.009-2.228a16.63,16.63,0,0,1-.024-2.082c0-.02-.024-.045-.038-.068m-8.333,20.583c-.016.023-.05.052-.045.067a.074.074,0,0,0,.108.046c.45,0,.9-.011,1.351-.011q3.322-.007,6.645-.01c.161,0,.386.019.3-.216-.093-.252.026-.46.026-.689,0-2.626-.006-5.253.006-7.879,0-.3-.076-.391-.375-.386-1.008.015-2.016,0-3.024.005a6.775,6.775,0,0,0-1.265.05c-.184.035-.3.128-.3.3a11.717,11.717,0,0,1-.315,1.879,16.687,16.687,0,0,1-2.323,5.641,6.43,6.43,0,0,0-.785,1.2m22.491-9.024a.329.329,0,0,0-.041.107q-.013,4.378-.025,8.757c0,.241.1.285.312.284q3.981-.016,7.961-.021c.55,0,.946-.131,1.021-.98.016-.185.013-.371.012-.557,0-2.428-.016-4.856-.008-7.285,0-.3-.095-.347-.364-.346-2.667,0-5.334-.005-8-.007-.278,0-.555.025-.833.039l-.023-.02ZM56.856,117.984q.006-4.063.011-8.125c0-.9,0-.9-.914-.9l-7.768,0c-.538,0-.6.064-.6.62q0,3.784,0,7.568a1.688,1.688,0,0,1-.044.469c-.12.431-.038.517.406.517q4.262-.006,8.524-.009c.131,0,.266.028.368-.09l.024-.005c0-.015-.008-.029-.012-.044M68.525,86.27a.052.052,0,0,0,0-.072v-.17c.024-.057.027-.108-.034-.145-.033-.1-.108-.084-.183-.074l-.143.006-8.626,0a.031.031,0,0,0-.051,0c-.332-.085-.251.159-.251.324,0,2.814.005,5.627-.011,8.441,0,.349.108.405.423.4,2.628-.012,5.256,0,7.884-.01a3.557,3.557,0,0,0,.948-.042l.028-.013-.011-.028a.484.484,0,0,0,.028-.114q0-4.252,0-8.5M68.5,106.138c.006-.066.017-.132.017-.2.007-2.748.009-5.5.026-8.244,0-.323-.159-.325-.4-.325-2.855.007-5.709.013-8.564,0-.286,0-.357.069-.355.346.011,1.739,0,3.479,0,5.218,0,1.115.007,2.23-.006,3.346,0,.247.061.32.312.293a9.569,9.569,0,0,1,.995-.031q3.8-.01,7.608-.019c.122,0,.27.067.365-.078a.34.34,0,0,0,0-.311m-23.633.611c-.047-.2-.106-.394-.137-.594a7.063,7.063,0,0,0-3.248-4.949,7.846,7.846,0,0,0-4.23-1.229c-1.778-.045-3.559-.018-5.338-.016a8.832,8.832,0,0,0-1.893.1,7.539,7.539,0,0,0-4.235,2.44,7.973,7.973,0,0,0-1.833,3.666c-.08.41-.116.843.371,1.1a4.246,4.246,0,0,1,.562.442,15.343,15.343,0,0,0,8.2,3.329,15.648,15.648,0,0,0,4.169-.24,14.051,14.051,0,0,0,5.071-1.981,12.608,12.608,0,0,0,2.481-1.9c.076-.035.077-.1.056-.164M19.151,96a12.611,12.611,0,0,0,.237,2.509,15.93,15.93,0,0,0,2.322,5.789c.056.086.1.219.218.21.144-.011.143-.165.179-.274a8.819,8.819,0,0,1,1.528-2.815,9.814,9.814,0,0,1,5.088-3.437c.441-.121.457-.179.2-.45a7.32,7.32,0,0,1-1.987-4.349,7.485,7.485,0,0,1,10.207-7.735,7.237,7.237,0,0,1,4.775,6.806,7.072,7.072,0,0,1-1.974,5.222c-.3.331-.3.341.1.468a9.934,9.934,0,0,1,6.6,6.084c.066.165.069.438.259.459.24.026.221-.286.342-.43a2.8,2.8,0,0,0,.231-.371,15.612,15.612,0,0,0,2.179-7.268,13.86,13.86,0,0,0-.341-3.921,15.189,15.189,0,0,0-16.24-11.883,14.527,14.527,0,0,0-4.525,1.066A15.283,15.283,0,0,0,19.151,96M63.9,108.956v-.007H59.6c-.2,0-.373-.038-.371.291q.022,4.3,0,8.6c0,.245.063.3.31.3,2.575-.017,5.149-.016,7.724-.023a2.88,2.88,0,0,0,.593-.048.751.751,0,0,0,.628-.676,4.041,4.041,0,0,0,.041-.555q.007-3.3.008-6.609c0-.279.011-.558.007-.836,0-.3-.1-.45-.464-.443-1.393.025-2.787.01-4.18.01M75.561,94.978v-.009H79.9c.17,0,.331.034.329-.251-.015-2.415-.014-4.83-.021-7.244,0-.279,0-.558-.029-.835a.818.818,0,0,0-.649-.759c-.288-.017-.576-.066-.859-.068-2.468-.015-4.936-.005-7.4-.01-.24,0-.347.038-.346.326q.018,4.219,0,8.439c0,.341.1.421.424.418,1.406-.015,2.813-.007,4.219-.007M39.47,92.461A5,5,0,0,0,34.4,87.308a5.13,5.13,0,0,0-.115,10.258,5.014,5.014,0,0,0,5.184-5.105M29.205,118.117v.007c1.327,0,2.653,0,3.98,0,.216,0,.349-.021.347-.291-.009-1.379-.006-2.759,0-4.138,0-.183-.051-.238-.243-.262-.479-.062-.966-.081-1.439-.163a18.576,18.576,0,0,1-4.924-1.526,19.282,19.282,0,0,1-2.374-1.363c-.113-.076-.325-.228-.348-.053a4.415,4.415,0,0,0-.1.863c.026.342.145.68.144,1.033,0,1.632-.007,3.264,0,4.9,0,.658.278.936.935.984.145.011.292.01.438.01h3.582" transform="translate(-11.42 -53.239)"/>
        <path id="Path_824249" data-name="Path 824249" d="M16.765,39.771c.058-.927-.625-1.253-1.458-1.256-2.43-.007-4.86,0-7.29,0-.514,0-.507,0-.507-.52,0-2.377,0-4.754.008-7.131a3.23,3.23,0,0,1,2.053-3.024,3.314,3.314,0,0,1,1.637-.2,12.135,12.135,0,0,0,1.893-.051c.535-.014.617.08.627.6a10.642,10.642,0,0,0,.137,2.208,4.9,4.9,0,0,0,1.13,2.155,4.726,4.726,0,0,0,2.323,1.344,4.8,4.8,0,0,0,5.036-2.032,5.088,5.088,0,0,0,.775-2.567c.017-.464.007-.93,0-1.394,0-.2.033-.318.281-.316,1.2.01,2.391,0,3.587,0,.305,0,.46.109.446.467a6.584,6.584,0,0,0,.42,3.1,4.6,4.6,0,0,0,3.267,2.723A4.734,4.734,0,0,0,36.7,30.528a7.807,7.807,0,0,0,.174-2.286c-.021-.681-.013-.717.653-.643a7.2,7.2,0,0,0,.961-.009c.77-.015,1.541.007,2.31-.016.338-.01.423.11.425.434a10.345,10.345,0,0,0,.143,2.557,4.619,4.619,0,0,0,.724,1.451,4.71,4.71,0,0,0,2.61,1.855,4.42,4.42,0,0,0,4.1-.9,4.607,4.607,0,0,0,1.819-3.789c.005-.438.011-.877,0-1.314-.006-.229.084-.294.3-.292,1.222.01,2.443.013,3.665,0,.274,0,.371.075.369.359a10.922,10.922,0,0,0,.108,2.262,4.723,4.723,0,0,0,2.514,3.291,4.189,4.189,0,0,0,1.794.533,4.8,4.8,0,0,0,4.817-3.5,7.629,7.629,0,0,0,.2-2.283c-.013-.659-.008-.659.631-.659,1.1,0,2.2.009,3.307-.005.29,0,.385.075.389.379a11.48,11.48,0,0,0,.064,2.1,4.7,4.7,0,0,0,9.006.933,7.552,7.552,0,0,0,.327-2.846c0-.622-.126-.559.573-.56.757,0,1.514-.007,2.271.013a3.308,3.308,0,0,1,3.235,2.449,4.143,4.143,0,0,1,.123,1.013c.015,2.377.01,4.754.025,7.13,0,.285-.112.324-.352.322-1.474-.007-2.948,0-4.422,0q-28.923,0-57.845,0a1.371,1.371,0,0,0-1.71,1.2c-.912,0-1.824,0-2.735,0a4.395,4.395,0,0,0-.509.062" transform="translate(-5.116 -18.783)" fill="#fb7f85"/>
        <path id="Path_824250" data-name="Path 824250" d="M203.634,233.884c.038,0,.051.031.019.047s-.064-.007-.1-.012c.006-.06.039-.054.078-.034" transform="translate(-138.67 -159.321)" fill="#5e97d4"/>
        <path id="Path_824251" data-name="Path 824251" d="M203.607,233.449l.021.011-.02.013-.055-.012.055-.012" transform="translate(-138.667 -159.034)" fill="#5e97d4"/>
        <path id="Path_824252" data-name="Path 824252" d="M211.352,207.18a.484.484,0,0,1-.062-.337q.005-3.086.011-6.173a3.336,3.336,0,0,1,1.791-3.132,3.108,3.108,0,0,1,1.515-.383c2.137-.009,4.275-.009,6.412-.011.116,0,.274-.042.324.085s-.121.184-.2.262q-4.627,4.636-9.26,9.266a1.853,1.853,0,0,1-.532.422" transform="translate(-143.935 -134.297)" fill="#fb7f85"/>
        <path id="Path_824253" data-name="Path 824253" d="M120.693,12.709c0-.943.015-1.885,0-2.828a2.49,2.49,0,0,1,.945-1.945,1.1,1.1,0,0,1,.424-.188,2.381,2.381,0,0,1,2.972.937,2.486,2.486,0,0,1,.325,1.192c0,1.925.014,3.85-.009,5.775a2.334,2.334,0,0,1-2.849,2.3,2.379,2.379,0,0,1-1.783-2.1q-.015-.8-.02-1.593c0-.518,0-1.036,0-1.553" transform="translate(-82.217 -5.17)" fill="#efeff3"/>
        <path id="Path_824254" data-name="Path 824254" d="M211.618,12.739c0,1.034.019,2.069-.008,3.1a2.145,2.145,0,0,1-.573,1.426,2.475,2.475,0,0,1-2.238.714,2.4,2.4,0,0,1-1.8-2.067q-.017-3.184,0-6.368a2.248,2.248,0,0,1,1.9-1.906,2.464,2.464,0,0,1,1.873.449,2.131,2.131,0,0,1,.83,1.586c.044,1.019.012,2.042.012,3.063h.006" transform="translate(-141.007 -5.196)" fill="#efeff3"/>
        <path id="Path_824255" data-name="Path 824255" d="M163.972,12.838c0-1.035-.018-2.07,0-3.1a2.134,2.134,0,0,1,2.145-2.074,2.186,2.186,0,0,1,2.452,2.471c-.023,1.858,0,3.715-.013,5.572a2.284,2.284,0,0,1-3.335,2.106,2.027,2.027,0,0,1-1.25-1.867c-.006-1.035,0-2.069,0-3.1h0" transform="translate(-111.699 -5.218)" fill="#efeff3"/>
        <path id="Path_824256" data-name="Path 824256" d="M82.134,12.661c0,1,.008,1.991,0,2.987a2.259,2.259,0,0,1-2.185,2.2,2.3,2.3,0,0,1-2.41-1.976,3.426,3.426,0,0,1,.006-.668q-.008-2.808-.018-5.615a2.627,2.627,0,0,1,1.33-2.02,2.415,2.415,0,0,1,3.216,1.555,1.493,1.493,0,0,1,.066.469c0,.518,0,1.035,0,1.553s0,1.009,0,1.513" transform="translate(-52.809 -5.043)" fill="#efeff3"/>
        <path id="Path_824257" data-name="Path 824257" d="M34.481,12.642c0-1.035-.025-2.071.007-3.106a2.154,2.154,0,0,1,2-1.884,2.207,2.207,0,0,1,2.465,1.6,3.011,3.011,0,0,1,.139.85c0,1.859.047,3.719-.014,5.576a2.327,2.327,0,0,1-2.937,2.313,2.23,2.23,0,0,1-1.663-2.2c-.029-.529-.017-1.062-.019-1.593s0-1.036,0-1.554h.02" transform="translate(-23.475 -5.213)" fill="#efeff3"/>
        <path id="Path_824258" data-name="Path 824258" d="M24.249,101.136a15.284,15.284,0,0,1,9.408-14.32,14.538,14.538,0,0,1,4.526-1.067,15.189,15.189,0,0,1,16.24,11.883,13.859,13.859,0,0,1,.341,3.921,15.61,15.61,0,0,1-2.179,7.268,2.822,2.822,0,0,1-.231.371c-.121.145-.1.457-.342.43-.189-.021-.193-.294-.258-.459a9.935,9.935,0,0,0-6.6-6.084c-.408-.127-.4-.137-.1-.468a7.071,7.071,0,0,0,1.974-5.222,7.236,7.236,0,0,0-4.775-6.806,7.485,7.485,0,0,0-10.207,7.735,7.318,7.318,0,0,0,1.987,4.349c.253.272.237.329-.2.45a9.816,9.816,0,0,0-5.088,3.438,8.829,8.829,0,0,0-1.528,2.815c-.036.109-.035.264-.179.274-.113.008-.163-.125-.218-.211a15.93,15.93,0,0,1-2.322-5.789,12.63,12.63,0,0,1-.237-2.508" transform="translate(-16.518 -58.379)" fill="#5e97d4"/>
        <path id="Path_824259" data-name="Path 824259" d="M60.079,153.5a12.6,12.6,0,0,1-2.481,1.9,14.048,14.048,0,0,1-5.071,1.981,15.633,15.633,0,0,1-4.169.24,15.339,15.339,0,0,1-8.2-3.329,4.261,4.261,0,0,0-.562-.442c-.487-.257-.451-.69-.371-1.1a7.974,7.974,0,0,1,1.834-3.666,7.537,7.537,0,0,1,4.234-2.44,8.836,8.836,0,0,1,1.893-.1c1.779,0,3.56-.029,5.338.016a7.849,7.849,0,0,1,4.23,1.229A7.061,7.061,0,0,1,60,152.746c.032.2.091.4.137.595a.142.142,0,0,0-.056.164" transform="translate(-26.687 -99.83)" fill="#efeff3"/>
        <path id="Path_824260" data-name="Path 824260" d="M159.256,147.528c-.1.145-.243.078-.365.078q-3.8.014-7.608.019a9.661,9.661,0,0,0-.995.031c-.251.027-.315-.046-.312-.293.012-1.115.005-2.231.006-3.346,0-1.74.007-3.479,0-5.218,0-.278.07-.348.356-.347,2.855.011,5.709.005,8.564,0,.239,0,.4,0,.4.325-.017,2.748-.018,5.5-.026,8.244,0,.066-.011.132-.017.2a.355.355,0,0,0,0,.311" transform="translate(-102.169 -94.317)" fill="#b1caeb"/>
        <path id="Path_824261" data-name="Path 824261" d="M159.22,111.266a3.556,3.556,0,0,1-.948.042c-2.628.006-5.256,0-7.884.01-.315,0-.425-.055-.423-.4.017-2.814.01-5.627.012-8.441,0-.165-.081-.41.251-.324.018.036.035.035.052,0l8.626,0c.051.07.1.054.143-.006.075-.011.151-.022.183.074a.116.116,0,0,0,.035.145v.17c-.01.006-.028.016-.027.018a.412.412,0,0,0,.028.054q0,4.252,0,8.5a.5.5,0,0,1-.028.114l-.021.015Z" transform="translate(-102.161 -69.575)" fill="#b1caeb"/>
        <path id="Path_824262" data-name="Path 824262" d="M154.639,174.771c1.394,0,2.787.015,4.18-.01.361-.007.459.145.464.443,0,.279-.006.557-.007.836q0,3.3-.008,6.609a4.081,4.081,0,0,1-.04.554.752.752,0,0,1-.629.676,2.88,2.88,0,0,1-.593.048c-2.575.008-5.149.007-7.724.023-.248,0-.311-.052-.311-.3q.012-4.3,0-8.6c0-.329.17-.291.371-.291h4.3v.008" transform="translate(-102.163 -119.053)" fill="#b1caeb"/>
        <path id="Path_824263" data-name="Path 824263" d="M122.526,183.87c-.1.118-.236.09-.368.09q-4.262,0-8.524.009c-.444,0-.526-.085-.406-.517a1.689,1.689,0,0,0,.044-.469q0-3.784,0-7.568c0-.556.059-.62.6-.62l7.768,0c.915,0,.915,0,.914.9q-.006,4.062-.011,8.125a.034.034,0,0,0-.012.049" transform="translate(-77.101 -119.076)" fill="#b1caeb"/>
        <path id="Path_824264" data-name="Path 824264" d="M186.725,138.5c.278-.013.556-.038.833-.038,2.667,0,5.334.011,8,.007.269,0,.365.05.364.347-.008,2.428,0,4.856.008,7.285,0,.186,0,.372-.012.557-.075.849-.471.978-1.021.98q-3.981.008-7.961.021c-.21,0-.313-.044-.312-.285q.019-4.378.025-8.757a.332.332,0,0,1,.041-.107l.021.01.013-.019" transform="translate(-127.136 -94.322)" fill="#b1caeb"/>
        <path id="Path_824265" data-name="Path 824265" d="M191.294,111.33c-1.407,0-2.813-.009-4.219.007-.323,0-.426-.077-.424-.418q.023-4.22,0-8.439c0-.288.106-.326.346-.326,2.468,0,4.936-.005,7.4.01.283,0,.571.051.859.068a.818.818,0,0,1,.649.759c.027.277.028.557.029.835.006,2.415.005,4.83.021,7.245,0,.284-.159.251-.329.251h-4.339Z" transform="translate(-127.153 -69.59)" fill="#b1caeb"/>
        <path id="Path_824266" data-name="Path 824266" d="M66.177,112.032a5.014,5.014,0,0,1-5.184,5.105,5.13,5.13,0,0,1,.115-10.258,5,5,0,0,1,5.069,5.153" transform="translate(-38.127 -72.809)" fill="#efeff3"/>
        <path id="Path_824267" data-name="Path 824267" d="M76.818,185.532c0-1.353.02-2.707-.007-4.059-.008-.386.134-.533.48-.57A17.374,17.374,0,0,0,86.02,177.4c.008-.006.024,0,.048,0,.09.11.045.247.045.37,0,2.521,0,5.042.01,7.562,0,.329-.081.412-.417.41-2.733-.018-5.466-.011-8.2-.013-.185,0-.37-.006-.556-.009l-.074-.043-.009-.008a.118.118,0,0,0-.051-.135" transform="translate(-52.326 -120.847)" fill="#b1caeb"/>
        <path id="Path_824268" data-name="Path 824268" d="M116.274,147.516a6.457,6.457,0,0,1,.785-1.2,16.684,16.684,0,0,0,2.323-5.642,11.755,11.755,0,0,0,.315-1.879c.007-.174.12-.267.3-.3a6.748,6.748,0,0,1,1.265-.05c1.008,0,2.016.01,3.024-.006.3,0,.376.091.375.386-.012,2.626-.01,5.252-.006,7.879,0,.228-.118.437-.026.689.086.235-.138.216-.3.216q-3.323,0-6.645.01c-.45,0-.9.008-1.35.011.019-.061.005-.1-.064-.113" transform="translate(-79.21 -94.309)" fill="#b1caeb"/>
        <path id="Path_824269" data-name="Path 824269" d="M44.893,186.718H41.31c-.146,0-.292,0-.438-.01-.657-.047-.932-.326-.935-.984-.006-1.632,0-3.264,0-4.9,0-.354-.119-.691-.144-1.033a4.415,4.415,0,0,1,.1-.863c.023-.175.235-.023.348.053a19.28,19.28,0,0,0,2.374,1.363,18.577,18.577,0,0,0,4.924,1.526c.473.081.959.1,1.439.163.192.025.244.08.243.262-.006,1.379-.009,2.759,0,4.138,0,.27-.132.292-.347.291-1.327-.007-2.653,0-3.98,0v-.007" transform="translate(-27.107 -121.84)" fill="#b1caeb"/>
        <path id="Path_824270" data-name="Path 824270" d="M119.248,102.113l5.319.017c.331,0,.661.007.992.011a.1.1,0,0,0,.126.046c.013.023.041.048.038.068a16.509,16.509,0,0,0,.024,2.082c-.042.74-.01,1.485-.01,2.228s0,1.459,0,2.189-.02,1.459,0,2.189c.007.305-.14.352-.387.352-.929,0-1.857.017-2.786.006-.437-.005-.869.04-1.3.063-.276.015-.4-.1-.412-.394a16.852,16.852,0,0,0-.617-3.638,17.072,17.072,0,0,0-2.373-5.128,4.006,4.006,0,0,1,1.082.063.36.36,0,0,0,.31-.152" transform="translate(-80.288 -69.563)" fill="#b1caeb"/>
        <path id="Path_824271" data-name="Path 824271" d="M121.56,101.964a.36.36,0,0,1-.31.152c.03-.2.111-.3.31-.152" transform="translate(-82.6 -69.414)" fill="#5e97d4"/>
        <path id="Path_824272" data-name="Path 824272" d="M116.178,166.915c.069.011.083.053.064.113a.073.073,0,0,1-.108-.046c-.005-.016.028-.045.044-.068" transform="translate(-79.114 -113.708)" fill="#5e97d4"/>
        <path id="Path_824273" data-name="Path 824273" d="M179,166.263a.355.355,0,0,1,0-.311.34.34,0,0,1,0,.311" transform="translate(-121.918 -113.052)" fill="#5e97d4"/>
        <path id="Path_824274" data-name="Path 824274" d="M179.047,102.555a.115.115,0,0,1-.034-.145c.061.036.059.088.034.145" transform="translate(-121.942 -69.765)" fill="#5e97d4"/>
        <path id="Path_824275" data-name="Path 824275" d="M178.156,102.179c-.045.061-.092.077-.143.006l.143-.006" transform="translate(-121.269 -69.608)" fill="#5e97d4"/>
        <path id="Path_824276" data-name="Path 824276" d="M104.746,168.035a.142.142,0,0,1,.056-.164c.021.068.019.129-.056.164" transform="translate(-71.353 -114.36)" fill="#b1caeb"/>
        <path id="Path_824277" data-name="Path 824277" d="M142.147,102.217a.1.1,0,0,1-.126-.045c.056-.025.1-.019.126.045" transform="translate(-96.75 -69.594)" fill="#5e97d4"/>
        <path id="Path_824278" data-name="Path 824278" d="M76.8,202.923a.118.118,0,0,1,.051.135c-.074-.024-.076-.075-.051-.135" transform="translate(-52.31 -138.238)" fill="#5e97d4"/>
        <path id="Path_824279" data-name="Path 824279" d="M178.991,130.7l0-.026.021-.015.011.028Z" transform="translate(-121.933 -89.009)" fill="#5e97d4"/>
        <path id="Path_824280" data-name="Path 824280" d="M186.866,138.536l-.013.019-.021-.01.011-.029Z" transform="translate(-127.277 -94.362)" fill="#5e97d4"/>
        <path id="Path_824281" data-name="Path 824281" d="M179.087,103.469a.453.453,0,0,1-.027-.054s.018-.012.027-.018a.052.052,0,0,1,0,.072" transform="translate(-121.982 -70.438)" fill="#5e97d4"/>
        <path id="Path_824282" data-name="Path 824282" d="M150.842,102.157c-.017.035-.034.037-.052,0a.032.032,0,0,1,.052,0" transform="translate(-102.723 -69.584)" fill="#5e97d4"/>
        <path id="Path_824283" data-name="Path 824283" d="M142.489,203.16a.034.034,0,0,1,.012-.049l.012.044-.024.005" transform="translate(-97.065 -138.366)" fill="#5e97d4"/>
        <path id="Path_824284" data-name="Path 824284" d="M77.02,203.374l.074.043c-.048.026-.067,0-.074-.043" transform="translate(-52.469 -138.546)" fill="#5e97d4"/>
      </g>
    </g>
  </g>
</svg>
