<svg xmlns="http://www.w3.org/2000/svg" xmlns:xlink="http://www.w3.org/1999/xlink" width="190" height="190" viewBox="0 0 190 190">
  <defs>
    <clipPath id="clip-path">
      <rect id="Rectangle_378535" data-name="Rectangle 378535" width="190" height="190" transform="translate(1125 4303)" fill="#fff" stroke="#707070" stroke-width="1"/>
    </clipPath>
    <clipPath id="clip-path-2">
      <rect id="Rectangle_378538" data-name="Rectangle 378538" width="180.844" height="180.866" fill="none"/>
    </clipPath>
  </defs>
  <g id="Mask_Group_434" data-name="Mask Group 434" transform="translate(-1125 -4303)" clip-path="url(#clip-path)">
    <g id="Group_1074875" data-name="Group 1074875" transform="translate(1130 4308)">
      <g id="Group_1074874" data-name="Group 1074874" clip-path="url(#clip-path-2)">
        <path id="Path_824562" data-name="Path 824562" d="M21.4,159.4h7.014c0-1.16-.025-2.259,0-3.356a138.188,138.188,0,0,1,15.1-59.094c1.345-2.669,2.929-5.22,4.461-7.791.333-.557.063-.8-.226-1.144a9.4,9.4,0,0,1,4.906-15.261,8.287,8.287,0,0,1,5.46.351c.736.325,1.093.12,1.58-.428q4.034-4.529,8.162-8.972c.395-.425.279-.692.085-1.091A9.408,9.408,0,0,1,73.8,49.432a8.954,8.954,0,0,1,8.032,1.333,1.019,1.019,0,0,0,1.412-.025q4.657-3.211,9.374-6.332a.919.919,0,0,0,.458-1.17,9.4,9.4,0,0,1,15.948-8.684,1.081,1.081,0,0,0,1.51.292c1.5-.744,3.046-1.393,4.589-2.044,1.51-.637,3.04-1.23,4.586-1.851.077-.943.091-1.932.25-2.9a9.412,9.412,0,0,1,17.162-3.595c.328.507.6.7,1.22.429a9.642,9.642,0,0,1,2.161-.583,1.892,1.892,0,0,1,2.353,1.521,1.818,1.818,0,0,1-1.387,2.257,14.018,14.018,0,0,1-1.8.548c-.692.149-.945.466-.964,1.22a9.212,9.212,0,0,1-7.517,9.064,8.983,8.983,0,0,1-9.3-3.517,1.055,1.055,0,0,0-1.49-.4q-4.109,1.8-8.245,3.54a.879.879,0,0,0-.6,1.121c.872,4.749-2.215,10.283-8.839,10.85a9.059,9.059,0,0,1-6.625-2.3c-.3-.244-.58-.505-.987-.86-3,2.039-6,4.064-8.979,6.116-1.147.789-1.129.817-.678,2.111,2.238,6.426-3.375,13.3-10.083,12.274a18,18,0,0,1-3.712-1.228c-.445-.175-.725-.259-1.086.13q-3.914,4.217-7.863,8.4a.977.977,0,0,0-.087,1.462,9.23,9.23,0,0,1,.162,10.618A9.44,9.44,0,0,1,52.532,91.1a1.1,1.1,0,0,0-1.484.609,140.158,140.158,0,0,0-10.385,21.963,113.715,113.715,0,0,0-5.8,20.988c-.9,5.308-1.5,10.672-2.086,16.028-.29,2.644-.243,5.325-.369,7.988-.026.552.092.8.73.8q15.06-.055,30.121-.065,4.721-.006,9.441-.011c.114,0,.228-.023.421-.045v-1.35q-.014-26.439-.025-52.881c0-.448.022-.9.063-1.346.147-1.624.758-2.267,2.4-2.276q8.272-.044,16.544.006c1.875.013,2.53.787,2.53,2.7q0,27.118,0,54.235v.954h9.472v-.954q0-34.617.009-69.233c0-.39,0-.78.033-1.168a1.913,1.913,0,0,1,1.891-1.9c.6-.047,1.2-.057,1.8-.058q7.193-.005,14.387,0c.39,0,.78.009,1.168.038,1.544.118,2.161.742,2.176,2.278.024,2.338.012,4.677.012,7.015q-.006,31.615-.014,63.228c0,.206.017.412.03.7H135c.017-.255.049-.51.049-.764q.005-41.869.008-83.734c0-.66-.009-1.321.029-1.979a2.053,2.053,0,0,1,2.162-2.162q8.5-.042,16.995,0a2.064,2.064,0,0,1,2.263,2.322c.035,2.1.017,4.2.017,6.3q0,39.8,0,79.6c0,.115.019.232.035.424a5.6,5.6,0,0,0,.683.085q10.34-.007,20.68-.016a5.864,5.864,0,0,1,1.422.15,2.007,2.007,0,0,1-.294,3.933,7.452,7.452,0,0,1-.9.017q-10.565,0-21.131,0h-1.2c0,.548,0,1.021,0,1.493q.056,6.788.117,13.579a2.008,2.008,0,0,1-1.253,2.086,1.761,1.761,0,0,1-2.209-.458,3.7,3.7,0,0,1-.615-1.98c-.038-4.5,0-8.994.018-13.49,0-1.227.009-1.227-1.193-1.227h-8.552c0,.491,0,.9,0,1.311q.038,3.956.077,7.912a2.292,2.292,0,0,1-.976,2.182,1.9,1.9,0,0,1-2.913-1.005,4.244,4.244,0,0,1-.162-1.238c-.006-2.669.01-5.337.018-8.005,0-.35,0-.7,0-1.1H128.52a2.376,2.376,0,0,0-.068.413q.048,7.149.1,14.3a4.34,4.34,0,0,1-.145,1.152,1.878,1.878,0,0,1-1.881,1.378,1.788,1.788,0,0,1-1.876-1.362,10.271,10.271,0,0,1-.159-2.14c-.01-4.047,0-8.094,0-12.141,0-.505,0-1.01,0-1.583h-9.713q0,4.278,0,8.531a11.393,11.393,0,0,1-.024,1.256,2.068,2.068,0,0,1-2.151,1.871,1.853,1.853,0,0,1-1.827-1.948c-.045-2.788-.027-5.577-.035-8.364,0-.442,0-.882,0-1.368h-9.651v.956q0,6.971,0,13.941a2.078,2.078,0,0,1-2.045,2.348,1.81,1.81,0,0,1-1.922-1.526,7.966,7.966,0,0,1-.11-1.52q-.01-6.431,0-12.86V163.59H87.423v.935c0,2.7.017,5.4-.017,8.095a3.927,3.927,0,0,1-.35,1.548,1.911,1.911,0,0,1-2.095,1.053,1.836,1.836,0,0,1-1.575-1.621,7.46,7.46,0,0,1-.079-1.252c0-2.488.008-4.977.014-7.465,0-.414,0-.829,0-1.3H73.755v.984c0,4.647.007,9.294-.006,13.941,0,1.578-.894,2.437-2.314,2.3a1.722,1.722,0,0,1-1.627-1.43,7.287,7.287,0,0,1-.14-1.607c-.006-4.077.005-8.154.01-12.23,0-.626,0-1.252,0-1.947H60.13c-.015.247-.044.505-.045.764-.009,2.759,0,5.517-.037,8.274a4.02,4.02,0,0,1-.354,1.639,1.936,1.936,0,0,1-2.3.941,1.912,1.912,0,0,1-1.447-1.932c-.032-2.938-.025-5.876-.037-8.813,0-.289-.029-.579-.046-.9H46.382c-.026.286-.07.548-.07.81q0,6.835,0,13.671a7.993,7.993,0,0,1-.058,1.076,1.882,1.882,0,0,1-1.952,1.72,1.847,1.847,0,0,1-2.032-1.618,15.165,15.165,0,0,1-.162-2.238c-.009-4.257,0-8.514.008-12.772,0-.2-.023-.4-.04-.689H19.93c-1.906,0-2.6-.7-2.6-2.605q-.008-10.746-.02-21.494c0-.232-.027-.462-.046-.767H15.981c-4.227,0-8.453.016-12.679,0a8.742,8.742,0,0,1-1.869-.2A1.716,1.716,0,0,1,0,136.654a1.825,1.825,0,0,1,1.391-1.95,5.612,5.612,0,0,1,1.419-.141q6.923-.015,13.847-.008c.173,0,.347-.019.586-.032v-9.6c-1.949,0-3.856,0-5.762,0-1.169,0-2.338.03-3.506,0-1.532-.036-2.41-.827-2.381-2.09s.86-1.966,2.382-1.975c3.054-.015,6.108,0,9.246,0v-9.639h-1.84q-6.115.009-12.229.015a10.343,10.343,0,0,1-1.435-.065,1.945,1.945,0,0,1-1.7-2A1.863,1.863,0,0,1,1.71,107.2,13.77,13.77,0,0,1,3.5,107.12c4.551-.006,9.1,0,13.728,0V97.548a6.817,6.817,0,0,0-.68-.068q-4.044,0-8.089,0c-.18,0-.359.006-.539,0a2.132,2.132,0,0,1-2.308-1.916,2.021,2.021,0,0,1,2.123-2.083c2.9-.093,5.812-.069,8.719-.093.235,0,.468,0,.778,0V83.715c-.96,0-1.909,0-2.857,0-3.836.019-7.672.045-11.508.056a6.435,6.435,0,0,1-1.425-.121,1.966,1.966,0,0,1-.036-3.763,6.6,6.6,0,0,1,1.513-.157c4.526-.017,9.052-.017,13.578-.026.369,0,.81.13.808-.517-.012-2.995-.005-5.99-.005-9.092H16.029q-3.821,0-7.642.006c-1.732,0-2.742-.748-2.753-2.031s1-2.03,2.736-2.038c2.7-.014,5.4-.038,8.093-.008.684.007.861-.216.852-.875q-.051-4,0-8c.008-.643-.195-.819-.816-.816-4.406.021-8.811.012-13.217.009a11.308,11.308,0,0,1-1.526-.051A2,2,0,0,1,.03,54.3a1.952,1.952,0,0,1,1.76-1.946,19.125,19.125,0,0,1,2.065-.082q6.43-.013,12.858-.011c.146,0,.292-.015.533-.029V42.636H16.26c-2.667,0-5.335.008-8-.008a4.436,4.436,0,0,1-1.324-.186,2.023,2.023,0,0,1-1.294-2.055,1.84,1.84,0,0,1,1.774-1.725c2.635-.082,5.272-.079,7.909-.106.621-.007,1.241,0,1.943,0V28.965h-.994c-4.466,0-8.932.006-13.4-.009a4.945,4.945,0,0,1-1.5-.216A1.96,1.96,0,0,1,.042,26.72a1.987,1.987,0,0,1,1.686-1.735,10.532,10.532,0,0,1,1.61-.123q6.519-.022,13.038-.021h.932V23.458q0-10.343.011-20.687a5.71,5.71,0,0,1,.123-1.245A1.885,1.885,0,0,1,19.385,0a1.971,1.971,0,0,1,1.859,1.653,18.081,18.081,0,0,1,.066,2.239q.012,11.737.014,23.474-.009,18.516-.03,37.031c0,10.431.04,20.863.04,31.294,0,8.064-.046,16.127-.043,24.19q.009,19.38.058,38.759c0,.235.031.468.051.758M152.43,74.8H139.262v84.594H152.43ZM121.475,90.191H108.329v69.14h13.146Zm-44.18,15.4v2.259q0,25.314-.024,50.626c0,.746.206.961.958.953,3.626-.039,7.252-.014,10.877-.019.467,0,.934-.038,1.448-.061.02-.381.049-.675.049-.969q-.007-24.861-.017-49.724c0-.81-.021-1.62,0-2.428.015-.465-.157-.644-.621-.643-4.19.008-8.38.006-12.674.006m57.437-75.865a5.313,5.313,0,0,0-5.461-5.441,5.39,5.39,0,1,0,5.461,5.441m-80,57.569a5.308,5.308,0,0,0,5.606-5.387,5.416,5.416,0,0,0-5.292-5.391A5.641,5.641,0,0,0,49.5,82.193a5.3,5.3,0,0,0,5.23,5.106M76.449,63.872a5.4,5.4,0,0,0,5.386-5.461,5.507,5.507,0,0,0-5.269-5.323,5.392,5.392,0,1,0-.117,10.784M102.235,46.46a5.355,5.355,0,1,0-.066-10.71,5.478,5.478,0,0,0-5.363,5.518,5.286,5.286,0,0,0,5.429,5.192" transform="translate(0 0)"/>
        <rect id="Rectangle_378536" data-name="Rectangle 378536" width="13.168" height="84.594" transform="translate(139.261 74.8)" fill="#f98026"/>
        <rect id="Rectangle_378537" data-name="Rectangle 378537" width="13.146" height="69.141" transform="translate(108.328 90.19)" fill="#ffbd53"/>
        <path id="Path_824563" data-name="Path 824563" d="M107.1,146.321c4.295,0,8.484,0,12.674-.005.464,0,.636.178.621.642-.025.809-.005,1.619,0,2.428q.01,24.863.017,49.726c0,.294-.03.587-.049.968-.514.022-.981.061-1.448.061-3.626,0-7.252-.021-10.877.017-.753.008-.959-.206-.958-.953q.034-25.313.024-50.624v-2.26" transform="translate(-29.805 -40.727)" fill="#83ff71"/>
        <path id="Path_824564" data-name="Path 824564" d="M182.529,39.1a5.408,5.408,0,1,1-5.462-5.442,5.347,5.347,0,0,1,5.462,5.442" transform="translate(-47.797 -9.368)" fill="#fff"/>
        <path id="Path_824565" data-name="Path 824565" d="M73.821,116.813a5.3,5.3,0,0,1-5.231-5.1,5.642,5.642,0,0,1,5.545-5.674,5.416,5.416,0,0,1,5.292,5.391,5.308,5.308,0,0,1-5.606,5.387" transform="translate(-19.092 -29.515)" fill="#fff"/>
        <path id="Path_824566" data-name="Path 824566" d="M103.857,84.348a5.393,5.393,0,1,1,.117-10.784,5.507,5.507,0,0,1,5.269,5.324,5.4,5.4,0,0,1-5.386,5.461" transform="translate(-27.409 -20.477)" fill="#f98026"/>
        <path id="Path_824567" data-name="Path 824567" d="M139.573,60.249a5.286,5.286,0,0,1-5.429-5.192,5.478,5.478,0,0,1,5.363-5.518,5.355,5.355,0,1,1,.066,10.71" transform="translate(-37.339 -13.789)" fill="#fff"/>
      </g>
    </g>
  </g>
</svg>
