<svg xmlns="http://www.w3.org/2000/svg" xmlns:xlink="http://www.w3.org/1999/xlink" width="120" height="120" viewBox="0 0 120 120">
  <defs>
    <clipPath id="clip-path">
      <rect id="Rectangle_379978" data-name="Rectangle 379978" width="77.849" height="77.996" fill="none"/>
    </clipPath>
  </defs>
  <g id="Group_1076189" data-name="Group 1076189" transform="translate(-180 -24316.207)">
    <circle id="Ellipse_5982" data-name="Ellipse 5982" cx="60" cy="60" r="60" transform="translate(180 24316.207)" fill="#ffae7e"/>
    <g id="Group_1076199" data-name="Group 1076199" transform="translate(201.076 24337.004)">
      <g id="Group_1076198" data-name="Group 1076198" clip-path="url(#clip-path)">
        <path id="Path_826983" data-name="Path 826983" d="M59.635,53.857a8.815,8.815,0,0,1-.018-2.6,1.541,1.541,0,0,0,1.22-1.653q0-15.824-.009-31.648c0-.372.094-.447.455-.445,1.673.005,3.347-.014,5.02-.048a3.553,3.553,0,0,0,2.441-1.086A3.963,3.963,0,0,0,69.9,13.789c.1-1.469.025-2.94.05-4.41.005-.3-.1-.7.053-.885.18-.219.594-.067.9-.068q14.721-.01,29.442-.007a6.537,6.537,0,0,1,.872.053,1.265,1.265,0,0,1,1.11,1.042,4.128,4.128,0,0,1,.048.91c0,5.782-.009,11.564.011,17.345a1.322,1.322,0,0,1-.48,1.108c-.246.212-.459.459-.685.691-.87.892-1.767,1.759-2.649,2.64q-3.81,3.8-7.618,7.6a3.132,3.132,0,0,0-.745,1.13c-.765,2.036-1.431,4.1-2.048,6.189-.063.212-.122.252-.317.252q-7.494-.009-14.987-.008-3.214,0-6.429,0a2,2,0,0,0-1.255.338,1.294,1.294,0,0,0,.95,2.234q12.248,0,24.5,0a1,1,0,0,0,.325-.064c1.888-.622,3.776-1.246,5.671-1.846A4.48,4.48,0,0,0,98.576,46.8c1.062-1.123,2.177-2.2,3.272-3.29.123-.122.265-.225.4-.337l.133.064q0,1.083,0,2.167,0,6.447.006,12.894a.581.581,0,0,1-.338.582c-.312.177-.657.275-.959.462a27.983,27.983,0,0,0-2.535,1.54c-.187.146-.327.116-.365-.157A3.455,3.455,0,0,0,97.75,59.5a3.869,3.869,0,0,0-2.195-1.868,20.029,20.029,0,0,0-2.155-.474c-1.248-.259-2.507-.456-3.763-.664-1.865-.308-3.722-.656-5.592-.935-1.738-.26-3.463-.608-5.194-.909q-2.662-.464-5.327-.912-1.871-.313-3.744-.615c-1.093-.177-2.178-.409-3.282-.515a13.45,13.45,0,0,0-4.584.419c-.79.2-1.51.579-2.279.826M95.29,27.909a1.606,1.606,0,0,0-.588,0c-.038,0-.076-.006-.114-.006q-10.212,0-20.423,0a3.944,3.944,0,0,0-.678.074,1.064,1.064,0,0,0-.844.749,1.292,1.292,0,0,0,1.335,1.746q10.878,0,21.754.006a1.481,1.481,0,0,0,.776-.228,1.212,1.212,0,0,0,.135-2.023,1.974,1.974,0,0,0-1.353-.315M81.453,24V24q7.74,0,15.479,0a1.551,1.551,0,0,0,.694-.143,1.233,1.233,0,0,0,.795-1.006,1.174,1.174,0,0,0-.677-1.267,2.111,2.111,0,0,0-1.028-.175q-15.136,0-30.273,0a2.965,2.965,0,0,0-.673.064,1.351,1.351,0,0,0-1.053,1.189,1.376,1.376,0,0,0,.9,1.255,2.875,2.875,0,0,0,.888.069q7.473,0,14.947,0M74.975,43.454v.026q4.45,0,8.9,0a2.159,2.159,0,0,0,.847-.161,1.23,1.23,0,0,0,.7-1.468,1.323,1.323,0,0,0-1.46-.958q-8.8-.005-17.608-.007a2.983,2.983,0,0,0-.707.09,1.249,1.249,0,0,0-.861,1.358,1.316,1.316,0,0,0,1.177,1.119q4.506,0,9.012,0M71.2,36.961v-.014c1.748,0,3.5.016,5.243-.008a1.176,1.176,0,0,0,1.212-1.158,1.235,1.235,0,0,0-1.173-1.358,5.66,5.66,0,0,0-.607-.026q-4.161-.009-8.321-.01c-.531,0-1.065,0-1.594.045A1.242,1.242,0,0,0,64.89,36.2a1.365,1.365,0,0,0,1.406.766c1.634,0,3.267,0,4.9,0m14.265-.015v.04c.38,0,.76,0,1.14,0,.949-.011,1.9,0,2.848-.045a1.26,1.26,0,0,0,0-2.518c-.2-.016-.4-.027-.607-.027q-2.886-.008-5.773-.009c-.519,0-1.038.02-1.556.042a1.257,1.257,0,0,0-.992,1.891,1.276,1.276,0,0,0,1.067.625c1.291.009,2.582,0,3.873,0M67.247,30.462v.008c.443,0,.886.01,1.329,0a1.324,1.324,0,0,0,1.313-1.213,1.269,1.269,0,0,0-1.151-1.311,7.137,7.137,0,0,0-1.25-.039,12.112,12.112,0,0,0-1.706.044,1.286,1.286,0,0,0-1.057,1.265,1.343,1.343,0,0,0,1.193,1.252c.442-.023.886,0,1.329,0" transform="translate(-41.357 -5.819)" fill="#d8dce3"/>
        <path id="Path_826984" data-name="Path 826984" d="M18.278,48.038c.77-.247,1.489-.628,2.279-.826a13.439,13.439,0,0,1,4.584-.419c1.1.106,2.189.337,3.282.515q1.873.3,3.744.615,2.665.446,5.327.912c1.732.3,3.456.65,5.194.909,1.87.28,3.728.627,5.592.935,1.256.207,2.515.4,3.763.664a20.013,20.013,0,0,1,2.155.474,3.871,3.871,0,0,1,2.195,1.868,3.454,3.454,0,0,1,.439,1.226c.039.273.178.3.365.157a27.916,27.916,0,0,1,2.535-1.54c.3-.187.647-.285.959-.462a.581.581,0,0,0,.338-.582q-.007-6.447-.006-12.894,0-1.083,0-2.167c.091-.07.082-.15-.014-.189s-.108.053-.118.124c-.133.112-.275.215-.4.337-1.1,1.092-2.21,2.167-3.272,3.29a4.476,4.476,0,0,1-1.957,1.231c-1.9.6-3.783,1.224-5.671,1.847a1.008,1.008,0,0,1-.324.064q-12.248,0-24.5,0a1.294,1.294,0,0,1-.95-2.234,2,2,0,0,1,1.255-.337q3.214,0,6.428,0,7.494,0,14.987.008c.195,0,.254-.04.317-.252.617-2.084,1.282-4.153,2.048-6.189a3.137,3.137,0,0,1,.745-1.13q3.812-3.8,7.618-7.6c.882-.88,1.778-1.747,2.649-2.639.226-.232.439-.479.685-.691a1.323,1.323,0,0,0,.48-1.108c-.021-5.782-.011-11.563-.012-17.345a4.107,4.107,0,0,0-.048-.909,1.264,1.264,0,0,0-1.11-1.042,6.5,6.5,0,0,0-.872-.054q-14.721,0-29.442.008c-.311,0-.724-.152-.9.068-.152.185-.048.582-.053.884-.025,1.47.05,2.941-.051,4.41a3.961,3.961,0,0,1-1.157,2.587,3.555,3.555,0,0,1-2.44,1.086c-1.673.034-3.347.053-5.02.048-.361,0-.455.073-.455.446q.017,15.824.009,31.648a1.541,1.541,0,0,1-1.22,1.653,1.36,1.36,0,0,1-1.36-1.494q0-16.278,0-32.557a3.657,3.657,0,0,1,1.158-2.676q3.4-3.4,6.8-6.8c.219-.219.448-.427.658-.654A4.009,4.009,0,0,1,28.586.007q15.4-.013,30.808,0a4.1,4.1,0,0,1,3.781,2.1A3.877,3.877,0,0,1,63.6,4.022q.01,7.664.006,15.328a1.356,1.356,0,0,0,.055.584c.49-.484.952-.945,1.417-1.4.588-.579,1.192-1.142,1.762-1.737s1.137-1.143,1.693-1.728a10.855,10.855,0,0,1,1.685-1.614,2.345,2.345,0,0,1,2.327-.225,3.52,3.52,0,0,1,1.164.8c1.039,1.05,2.09,2.087,3.124,3.141a3.119,3.119,0,0,1,.836,1.137,2.576,2.576,0,0,1-.627,2.835q-2.809,2.813-5.62,5.622-3.15,3.155-6.293,6.316c-.372.375-.777.713-1.138,1.1a1.317,1.317,0,0,0-.4.992q.028,7.588.023,15.176c0,.338,0,.677,0,1.037a2.127,2.127,0,0,0,.728-.356c2.025-1.276,4.144-2.386,6.26-3.5a4.059,4.059,0,0,1,4.418,6.77q-3.384,2.737-6.79,5.448Q66.94,60.784,65.629,61.8c-1.365,1.057-2.661,2.2-4.006,3.284-1.4,1.13-2.836,2.224-4.245,3.347-1.471,1.173-2.926,2.368-4.394,3.544-1.731,1.387-3.489,2.739-5.194,4.155a7.518,7.518,0,0,1-3.255,1.653c-.287.062-.576.016-.859.076a.582.582,0,0,0-.441.024,9.072,9.072,0,0,1-2.471-.5q-1.649-.514-3.294-1.045c-.843-.272-1.694-.533-2.531-.834-1.063-.382-2.157-.676-3.233-1.024a16.372,16.372,0,0,0-1.83-.553c-.135-.027-.34-.035-.379-.247-.01-.056-.042-.107-.1-.08-.335.167-.622-.041-.906-.137-1.241-.419-2.5-.778-3.737-1.206-1-.346-2.022-.6-3.015-.965-1.026-.377-2.086-.661-3.128-1-.981-.315-1.955-.654-2.939-.959-.384-.119-.788-.175-1.184-.256-.228-.047-.314.083-.336.284a3.839,3.839,0,0,1-3.355,3.3,13.063,13.063,0,0,1-1.542.06c-1.838.01-3.677.044-5.513-.009a3.973,3.973,0,0,1-3.519-2.7A4.385,4.385,0,0,1,0,68.551q.008-8.879.005-17.759a3.907,3.907,0,0,1,3.739-4.007c2.3-.108,4.613-.11,6.918,0a3.727,3.727,0,0,1,3.346,2.6,2.822,2.822,0,0,0,.2.434l4.073-1.786M14.306,59.464v1.027c0,1.864,0,3.728-.006,5.591,0,.272.058.388.365.441.241.042.487.031.727.1,1.1.3,2.181.663,3.267,1.013q3.238,1.043,6.48,2.077,3.8,1.215,7.6,2.429c2.054.656,4.11,1.305,6.163,1.967,1.147.369,2.277.794,3.434,1.122a3.564,3.564,0,0,0,2.114-.08,8.329,8.329,0,0,0,2.234-1.377c.921-.673,1.822-1.382,2.671-2.143.376-.337.8-.593,1.2-.9a7.91,7.91,0,0,1,.9-.8,5.435,5.435,0,0,0,1.142-.889c.534-.527,1.177-.929,1.757-1.406a26.361,26.361,0,0,1,2.265-1.792c.636-.415,1.111-1.021,1.768-1.434a10.962,10.962,0,0,0,1.479-1.155c.85-.77,1.765-1.451,2.658-2.164q3.8-3.033,7.588-6.076c1.156-.926,2.328-1.834,3.4-2.86a1.355,1.355,0,0,0,.232-1.826,1.421,1.421,0,0,0-1.8-.559,19.275,19.275,0,0,0-2.35,1.219q-3.464,1.96-6.928,3.919-3.547,2.005-7.1,4.007c-1.539.869-3.073,1.75-4.62,2.606-1.8,1-3.549,2.094-5.4,3.01a3.469,3.469,0,0,1-3.354-.093c-1.587-.879-3.078-1.922-4.65-2.831-.729-.421-1.438-.88-2.129-1.362a3.146,3.146,0,0,0-2.028-.543c-1.127.046-2.257,0-3.385.021a2.023,2.023,0,0,1-.914-.2,1.136,1.136,0,0,1-.7-.914A1.405,1.405,0,0,1,29.9,57.134c7.189.024,14.378.016,21.567.016.38,0,.764-.036,1.14,0a1.806,1.806,0,0,0,1.143-.381A1.4,1.4,0,0,0,54.2,55.2a1.42,1.42,0,0,0-1.235-1.031c-.656-.107-1.323-.177-1.966-.337-1.166-.291-2.359-.419-3.536-.644-1.388-.266-2.785-.486-4.178-.725-.647-.111-1.291-.253-1.942-.323a6.927,6.927,0,0,0-1.926-.259c-.123.02-.264-.069-.4-.108a3.053,3.053,0,0,0-.364-.1c-1.328-.213-2.659-.408-3.984-.634-1.511-.258-3.014-.569-4.528-.807-.858-.135-1.719-.271-2.57-.426-.8-.147-1.618-.222-2.418-.4a7.824,7.824,0,0,0-2.471.024,8.488,8.488,0,0,0-2.5.579c-1.877.8-3.746,1.621-5.624,2.419a.379.379,0,0,0-.266.421c.007,2.206,0,4.412,0,6.619m-11.719.745H2.579c0,2.738.016,5.476-.008,8.214A1.516,1.516,0,0,0,4.193,70.13c.127.005.254.009.38.009,1.737,0,3.473-.006,5.21,0a4.762,4.762,0,0,0,.82-.078,1.317,1.317,0,0,0,.965-.953,16.631,16.631,0,0,0,.159-2.027q-.015-7.777-.009-15.554a5.621,5.621,0,0,0-.015-.646c-.132-1.143-.517-1.55-1.561-1.564-2.125-.029-4.252-.092-6.375.056a1.461,1.461,0,0,0-1.184,1.161,6.293,6.293,0,0,0,0,1.3c.009,2.789,0,5.578,0,8.367M67.933,26.582A4.184,4.184,0,0,0,67.45,26c-1.031-.886-1.917-1.916-2.887-2.863-.216-.211-.326-.2-.52,0-.77.785-1.55,1.559-2.328,2.336q-4.762,4.757-9.529,9.508c-.225.224-.094.341.06.494q1.444,1.432,2.885,2.868c.581.576.583.574,1.148.009Q62,32.614,67.731,26.888a.618.618,0,0,0,.2-.305M75.3,19.238c-.045-.055-.1-.126-.156-.187q-1.648-1.653-3.3-3.3c-.092-.092-.2-.254-.341-.089-.467.549-1.092.931-1.533,1.511a.359.359,0,0,0,.07.577,7.035,7.035,0,0,1,.873.831,21.106,21.106,0,0,1,2.395,2.508c.041.06.087.016.13,0a.878.878,0,0,0,.411-.255,6.045,6.045,0,0,1,1.2-1.2.726.726,0,0,0,.254-.4m-7.33.013a1.6,1.6,0,0,0-.381.219c-.454.476-.888.971-1.342,1.447-.11.115-.144.18-.016.3,1.173,1.092,2.215,2.316,3.4,3.4.146.134.251.136.383,0q.749-.753,1.5-1.5c.137-.135.134-.229-.01-.371-1.115-1.1-2.221-2.216-3.331-3.324-.061-.062-.134-.112-.2-.171M39.614,59.831c1.244.77,2.484,1.546,3.734,2.306a1.243,1.243,0,0,0,1.4-.057c1.05-.667,2.145-1.256,3.248-1.829l.705-.368-.026-.1c-3.016-.1-6.033-.038-9.058.049M21.319,9.14c1.084-.085,2.092-.049,3.1-.061,1.03-.012,1.527-.5,1.538-1.617.008-.862,0-1.724,0-2.586,0-.095.051-.225-.056-.277s-.163.09-.228.149C24.4,5.916,23.208,7.162,21.989,8.381a3.557,3.557,0,0,0-.67.759M49.538,41.095c-.038.266.049.319.254.25q1.638-.544,3.279-1.076c.224-.073.269-.2.1-.352-.776-.693-1.481-1.457-2.221-2.187-.191-.188-.246-.124-.3.1a21.771,21.771,0,0,1-.832,2.521c-.1.26-.194.521-.275.739" transform="translate(0 0)" fill="#22030d"/>
        <path id="Path_826985" data-name="Path 826985" d="M141.622,255a.585.585,0,0,1,.441-.023c-.138.189-.286.172-.441.023" transform="translate(-98.389 -177.116)" fill="#aa734f"/>
        <path id="Path_826986" data-name="Path 826986" d="M93.255,53.672q-7.473,0-14.947,0a2.847,2.847,0,0,1-.888-.069,1.375,1.375,0,0,1-.9-1.254,1.351,1.351,0,0,1,1.053-1.189,2.964,2.964,0,0,1,.673-.064q15.137,0,30.274,0a2.118,2.118,0,0,1,1.028.175,1.174,1.174,0,0,1,.677,1.267,1.233,1.233,0,0,1-.8,1.007,1.55,1.55,0,0,1-.693.143q-7.74-.008-15.479,0Z" transform="translate(-53.159 -35.494)" fill="#22030d"/>
        <path id="Path_826987" data-name="Path 826987" d="M124.936,72.341a1.974,1.974,0,0,1,1.353.316,1.212,1.212,0,0,1-.135,2.023,1.481,1.481,0,0,1-.776.228Q114.5,74.9,103.624,74.9a1.292,1.292,0,0,1-1.335-1.746,1.064,1.064,0,0,1,.844-.75,3.974,3.974,0,0,1,.678-.073q10.212,0,20.423,0c.038,0,.076,0,.114.005a.387.387,0,0,0,.588,0" transform="translate(-71.003 -50.251)" fill="#22030d"/>
        <path id="Path_826988" data-name="Path 826988" d="M86.922,117.446q-4.506,0-9.012,0a1.315,1.315,0,0,1-1.177-1.119,1.248,1.248,0,0,1,.861-1.358,2.965,2.965,0,0,1,.707-.09q8.8.007,17.608.007a1.323,1.323,0,0,1,1.459.958,1.23,1.23,0,0,1-.7,1.469,2.158,2.158,0,0,1-.847.161q-4.45-.006-8.9,0v-.026" transform="translate(-53.304 -79.811)" fill="#22030d"/>
        <path id="Path_826989" data-name="Path 826989" d="M83.129,96.155q-2.451,0-4.9,0a1.367,1.367,0,0,1-1.407-.766,1.242,1.242,0,0,1,1.067-1.765c.529-.047,1.063-.045,1.594-.045q4.161,0,8.321.011a5.673,5.673,0,0,1,.607.026,1.234,1.234,0,0,1,1.173,1.358,1.176,1.176,0,0,1-1.212,1.158c-1.747.024-3.5.008-5.243.008v.014" transform="translate(-53.289 -65.013)" fill="#22030d"/>
        <path id="Path_826990" data-name="Path 826990" d="M132.774,96.14c-1.291,0-2.582.006-3.873,0a1.274,1.274,0,0,1-1.067-.625,1.257,1.257,0,0,1,.992-1.891c.518-.021,1.037-.041,1.556-.042q2.886,0,5.772.009c.2,0,.405.01.607.027a1.26,1.26,0,0,1,0,2.519c-.948.041-1.9.035-2.847.045-.38,0-.76,0-1.139,0v-.04" transform="translate(-88.668 -65.012)" fill="#22030d"/>
        <path id="Path_826991" data-name="Path 826991" d="M79.071,74.89c-.444,0-.887-.018-1.329,0a1.343,1.343,0,0,1-1.193-1.252,1.286,1.286,0,0,1,1.057-1.265,12.112,12.112,0,0,1,1.706-.044,7.137,7.137,0,0,1,1.25.039,1.269,1.269,0,0,1,1.151,1.311A1.324,1.324,0,0,1,80.4,74.9c-.443.012-.886,0-1.329,0V74.89" transform="translate(-53.181 -50.246)" fill="#22030d"/>
        <path id="Path_826992" data-name="Path 826992" d="M175.336,72.3a.387.387,0,0,1-.588,0,1.608,1.608,0,0,1,.588,0" transform="translate(-121.403 -50.209)" fill="#aa734f"/>
        <path id="Path_826993" data-name="Path 826993" d="M199.461,122.068c.01-.071.02-.163.118-.124s.1.118.014.188l-.132-.065" transform="translate(-138.572 -84.712)" fill="#aa734f"/>
        <path id="Path_826994" data-name="Path 826994" d="M46.851,171.681c0-2.206,0-4.412,0-6.619a.378.378,0,0,1,.266-.421c1.878-.8,3.746-1.62,5.624-2.42a8.5,8.5,0,0,1,2.5-.579,7.807,7.807,0,0,1,2.471-.024c.8.173,1.615.248,2.419.4.851.155,1.712.292,2.57.427,1.514.238,3.017.549,4.528.807,1.325.227,2.656.421,3.984.634a3.053,3.053,0,0,1,.364.1c.133.039.274.128.4.108a6.925,6.925,0,0,1,1.926.259c.651.07,1.3.212,1.942.324,1.393.239,2.79.459,4.177.725,1.177.226,2.369.354,3.536.644.644.161,1.31.23,1.966.337a1.419,1.419,0,0,1,1.235,1.031,1.4,1.4,0,0,1-.449,1.575,1.8,1.8,0,0,1-1.143.38c-.376-.037-.76,0-1.14,0-7.189,0-14.378.008-21.567-.017a1.4,1.4,0,0,0-1.517,1.482,1.136,1.136,0,0,0,.7.914,2.024,2.024,0,0,0,.914.2c1.128-.019,2.258.025,3.385-.021a3.145,3.145,0,0,1,2.028.543c.691.482,1.4.94,2.129,1.361,1.572.909,3.063,1.952,4.65,2.831a3.467,3.467,0,0,0,3.354.093c1.847-.916,3.593-2.013,5.4-3.01,1.547-.856,3.08-1.737,4.62-2.607q3.548-2,7.1-4.007,3.465-1.958,6.928-3.919a19.211,19.211,0,0,1,2.35-1.219,1.421,1.421,0,0,1,1.8.559,1.355,1.355,0,0,1-.232,1.826c-1.071,1.026-2.243,1.934-3.4,2.86q-3.793,3.039-7.588,6.076c-.893.713-1.808,1.395-2.658,2.164a10.965,10.965,0,0,1-1.479,1.155c-.657.414-1.132,1.018-1.768,1.434a26.392,26.392,0,0,0-2.265,1.792c-.58.477-1.223.879-1.757,1.406a5.414,5.414,0,0,1-1.142.889,7.948,7.948,0,0,0-.9.8c-.392.3-.82.56-1.2.9-.849.761-1.75,1.47-2.671,2.143a8.324,8.324,0,0,1-2.234,1.377,3.561,3.561,0,0,1-2.114.08c-1.158-.328-2.288-.753-3.434-1.122-2.052-.661-4.109-1.311-6.163-1.967q-3.8-1.213-7.6-2.43-3.241-1.037-6.48-2.076c-1.085-.35-2.167-.709-3.267-1.013-.24-.066-.486-.055-.727-.1-.307-.054-.366-.169-.365-.441.008-1.864.005-3.728.006-5.592q0-.513,0-1.027" transform="translate(-32.545 -112.217)" fill="#aa734f"/>
        <path id="Path_826995" data-name="Path 826995" d="M8.373,172.364c0-2.789,0-5.578,0-8.366a6.271,6.271,0,0,1,0-1.3,1.462,1.462,0,0,1,1.184-1.162c2.123-.148,4.251-.085,6.375-.056,1.044.014,1.428.422,1.561,1.564a5.621,5.621,0,0,1,.015.646q0,7.777.009,15.554a16.636,16.636,0,0,1-.159,2.027,1.317,1.317,0,0,1-.966.953,4.784,4.784,0,0,1-.82.078c-1.737-.009-3.473,0-5.21,0-.127,0-.254,0-.38-.009a1.516,1.516,0,0,1-1.621-1.707c.024-2.738.008-5.476.008-8.214Zm5.181-5.707a1.276,1.276,0,0,0,1.286-1.228,1.237,1.237,0,0,0-1.146-1.28,8.1,8.1,0,0,0-1.513,0,1.248,1.248,0,0,0,0,2.49c.024.031.049.034.075,0l1.133.03a.127.127,0,0,0,.165-.016m-1.071,10.457c-.126.006-.254,0-.379.018a1.3,1.3,0,0,0-.977,1.823,1.415,1.415,0,0,0,1.045.74c.082,0,.168.022.241-.036l.212.013a.152.152,0,0,0,.173.012h.129a1.791,1.791,0,0,0,.549.016c.191-.048.385-.084.571-.146a1.525,1.525,0,0,0,.853-1.238,1.4,1.4,0,0,0-1.275-1.194.164.164,0,0,0-.235-.009l-.3,0a.825.825,0,0,0-.613,0" transform="translate(-5.786 -112.156)" fill="#fccd39"/>
        <path id="Path_826996" data-name="Path 826996" d="M186.422,78.871a.616.616,0,0,1-.2.305Q180.493,84.9,174.767,90.63c-.566.566-.568.568-1.148-.009q-1.444-1.432-2.885-2.868c-.154-.152-.285-.27-.06-.494q4.771-4.747,9.529-9.508c.778-.777,1.558-1.551,2.328-2.336.194-.2.3-.206.52,0,.97.947,1.856,1.978,2.887,2.863a4.2,4.2,0,0,1,.483.587" transform="translate(-118.489 -52.288)" fill="#fccd39"/>
        <path id="Path_826997" data-name="Path 826997" d="M234.278,54.714a.727.727,0,0,1-.254.4,6.039,6.039,0,0,0-1.2,1.2.876.876,0,0,1-.411.255c-.043.018-.09.062-.13,0a21.1,21.1,0,0,0-2.395-2.508,7.077,7.077,0,0,0-.873-.831.358.358,0,0,1-.07-.577c.441-.58,1.066-.963,1.533-1.511.141-.165.249,0,.341.089q1.653,1.648,3.3,3.3c.06.061.11.132.156.187" transform="translate(-158.978 -35.476)" fill="#db6464"/>
        <path id="Path_826998" data-name="Path 826998" d="M218.51,63.061c.071.059.143.109.2.17,1.11,1.108,2.216,2.221,3.331,3.324.144.142.147.236.01.372q-.756.747-1.5,1.5c-.132.133-.237.13-.383,0-1.184-1.082-2.225-2.306-3.4-3.4-.129-.12-.094-.184.016-.3.454-.476.887-.972,1.342-1.447a1.58,1.58,0,0,1,.381-.219" transform="translate(-150.541 -43.81)" fill="#d8dce3"/>
        <path id="Path_826999" data-name="Path 826999" d="M129.766,195.761c3.025-.087,6.042-.153,9.058-.049l.026.1-.705.368c-1.1.573-2.2,1.162-3.248,1.83a1.243,1.243,0,0,1-1.4.057c-1.251-.759-2.49-1.536-3.734-2.306" transform="translate(-90.152 -135.93)" fill="#d8dce3"/>
        <path id="Path_827000" data-name="Path 827000" d="M69.838,19.575a3.565,3.565,0,0,1,.669-.759c1.219-1.219,2.41-2.465,3.679-3.633.065-.06.107-.209.228-.149s.055.182.055.277c.005.862.013,1.724,0,2.586-.01,1.122-.507,1.605-1.537,1.617-1.008.012-2.016-.024-3.1.061" transform="translate(-48.519 -10.435)" fill="#f8f9fb"/>
        <path id="Path_827001" data-name="Path 827001" d="M162.256,126.71c.081-.218.177-.479.275-.739a21.773,21.773,0,0,0,.832-2.521c.055-.228.11-.292.3-.1.74.729,1.445,1.493,2.221,2.187.173.154.128.279-.1.352q-1.641.533-3.279,1.076c-.206.068-.293.015-.254-.25" transform="translate(-112.718 -85.615)" fill="#aa734f"/>
        <path id="Path_827002" data-name="Path 827002" d="M18.27,215.362a1.413,1.413,0,0,1-1.045-.74A1.3,1.3,0,0,1,18.2,212.8c.125-.015.252-.013.379-.018a1.881,1.881,0,0,0,.614,0l.295,0,.235.009A1.4,1.4,0,0,1,21,213.983a1.525,1.525,0,0,1-.853,1.238c-.186.062-.381.1-.571.146a.617.617,0,0,0-.549-.016H18.9a.141.141,0,0,0-.173-.012l-.212-.014c-.086-.027-.172-.055-.241.036" transform="translate(-11.883 -147.823)" fill="#373737"/>
        <path id="Path_827003" data-name="Path 827003" d="M19.531,172.765l-1.133-.03-.075,0a1.248,1.248,0,0,1,0-2.49,8.1,8.1,0,0,1,1.513,0,1.237,1.237,0,0,1,1.146,1.28,1.276,1.276,0,0,1-1.286,1.227.15.15,0,0,0-.165.016" transform="translate(-11.927 -118.247)" fill="#373737"/>
        <path id="Path_827004" data-name="Path 827004" d="M22.554,212.647a1.864,1.864,0,0,1-.614,0,.826.826,0,0,1,.614,0" transform="translate(-15.242 -147.693)" fill="#aa734f"/>
        <path id="Path_827005" data-name="Path 827005" d="M23.4,221.08a.616.616,0,0,1,.549.016,1.791,1.791,0,0,1-.549-.016" transform="translate(-16.255 -153.551)" fill="#aa734f"/>
        <path id="Path_827006" data-name="Path 827006" d="M25.152,212.693l-.235-.009a.164.164,0,0,1,.235.009" transform="translate(-17.311 -147.726)" fill="#aa734f"/>
        <path id="Path_827007" data-name="Path 827007" d="M20.925,221.1c.069-.091.155-.063.241-.036-.074.058-.159.037-.241.036" transform="translate(-14.537 -153.563)" fill="#aa734f"/>
        <path id="Path_827008" data-name="Path 827008" d="M24.908,178.512a.15.15,0,0,1,.165-.016.126.126,0,0,1-.165.016" transform="translate(-17.304 -123.994)" fill="#aa734f"/>
        <path id="Path_827009" data-name="Path 827009" d="M22.409,221.118a.141.141,0,0,1,.173.012.153.153,0,0,1-.173-.012" transform="translate(-15.568 -153.601)" fill="#aa734f"/>
        <path id="Path_827010" data-name="Path 827010" d="M20.948,178.479l.075,0c-.027.031-.052.028-.075,0" transform="translate(-14.553 -123.995)" fill="#aa734f"/>
      </g>
    </g>
  </g>
</svg>
