<svg xmlns="http://www.w3.org/2000/svg" xmlns:xlink="http://www.w3.org/1999/xlink" width="190" height="190" viewBox="0 0 190 190">
  <defs>
    <clipPath id="clip-path">
      <rect id="Rectangle_378572" data-name="Rectangle 378572" width="190" height="190" transform="translate(1131 4303)" fill="#fff" stroke="#707070" stroke-width="1"/>
    </clipPath>
    <clipPath id="clip-path-2">
      <rect id="Rectangle_378578" data-name="Rectangle 378578" width="190" height="176.109" fill="none"/>
    </clipPath>
  </defs>
  <g id="Mask_Group_438" data-name="Mask Group 438" transform="translate(-1131 -4303)" clip-path="url(#clip-path)">
    <g id="Group_1074902" data-name="Group 1074902" transform="translate(1131 4318)">
      <g id="Group_1074901" data-name="Group 1074901" clip-path="url(#clip-path-2)">
        <path id="Path_824655" data-name="Path 824655" d="M184.229,122.51c2.376.847,2.717,1.332,2.717,3.861q0,29.386-.014,58.774c0,.742.206.981.977,1.047,1.813.155,2.545.79,2.975,2.311a2.9,2.9,0,0,1-2.481,3.206q-15.574-.012-31.15-.013H10.481c-1.541,0-3.087.085-4.621-.011-.653-.041-1.152-.636-1.57-1.156a2.578,2.578,0,0,1,1.6-4.207,8.047,8.047,0,0,1,1.646-.143c6.428,0,12.856-.014,19.285.024.773.005.953-.174.952-.946q-.031-21.043,0-42.087a2.585,2.585,0,0,1,2.645-2.794c5.346-.051,10.692-.1,16.037-.019,2.222.032,2.973,1,3.12,3.143.077,1.138.01,2.286.01,3.429q0,19.235,0,38.471c0,.289-.135.633.227.831.054.14.12.159.2.021,1.419-.023,2.839-.093,4.256-.052.738.022.95-.187.945-.931-.032-4.817-.02-9.635-.014-14.452a2.847,2.847,0,0,1,2.793-3.068,2.748,2.748,0,0,1,2.586,2.011,12.281,12.281,0,0,1,.2,2.366c-.019,4.356.007,8.711-.037,13.067-.008.806.271,1,1.01.986,2.193-.034,4.387-.016,6.58-.006a9.98,9.98,0,0,1,2.208.1c.816.192.981-.094.981-.808q-.011-19.414.007-38.829c0-.564-.135-.73-.715-.725q-4.634.046-9.269,0c-.675-.007-.8.231-.8.86.033,3.923.029,7.846.022,11.77,0,2.055-.773,2.971-2.788,3.384a2.833,2.833,0,0,1-2.782-3.081c0-5.219-.055-10.44.04-15.657.034-1.87.884-2.74,2.609-2.831.863-.045,1.729-.042,2.593-.042,4.324,0,8.649,0,12.973,0,1.294,0,2.493.2,3.219,1.431a4.073,4.073,0,0,1,.424,2.141q-.017,18.391-.021,36.782,0,2.409.013,4.818c0,.259-.119.569.206.746.052.138.118.163.2.024,1.358-.024,2.719-.108,4.074-.052.9.037,1.131-.243,1.13-1.134q-.039-27.4-.024-54.792a3.966,3.966,0,0,1,.7-2.528c.8-1.061,1.988-1.028,3.075-1.041,4.729-.057,9.458-.033,14.186-.02a8.459,8.459,0,0,1,1.728.174,2.692,2.692,0,0,1,2.172,2.878c.027,1.081-.012,2.163-.012,3.244q0,26.144.017,52.289c0,.322-.138.689.2.949.047.143.112.171.2.032l.344-.022c.271.45.529.466.774-.022,1.081-.013,2.165-.078,3.242-.018.732.04.844-.231.84-.889-.028-4.913-.016-9.825-.016-14.739q0-30.265-.01-60.529a3.176,3.176,0,0,1,1.746-3.242,4.642,4.642,0,0,1,2.069-.28c4.666-.014,9.331,0,14,0,.278,0,.558-.015.834.01,2.8.254,3.1,1.227,3.23,3.384.092,1.57.005,3.15.005,4.726q.006,34.714.01,69.428a3.236,3.236,0,0,1-.152,1.349c-.114.266-.154.691.33.8.044.142.107.179.2.036,1.42-.025,2.841-.09,4.26-.06.741.016.944-.229.94-.961-.027-6.18-.016-12.361-.016-18.542q0-38.613,0-77.227a6.925,6.925,0,0,1,.1-1.735,2.628,2.628,0,0,1,2.644-2.077c2.409-.064,4.82-.044,7.231-.051q4.125-.012,8.252-.005a3.679,3.679,0,0,1,3.419,1.689,1.192,1.192,0,0,1,.217.7q.028,23.454.051,46.909.013,23.641,0,47.282c0,.432.019.864.029,1.3-.013.02-.04.042-.038.062a.835.835,0,0,0,.037.139,6.85,6.85,0,0,0,.114,2.543c.048.136.109.183.2.033,1.451-.025,2.9-.074,4.353-.062.631.005.852-.181.852-.849q-.027-60.006-.01-120.012a6.984,6.984,0,0,1,.158-2.376,2.622,2.622,0,0,1,2.333-1.751,9.68,9.68,0,0,1,1.57-.09q7.045-.013,14.089-.009c1.92,0,3.323.824,3.654,2.221a7.994,7.994,0,0,1,.136,1.838q.013,23.817.009,47.634a8.229,8.229,0,0,1-.093,1.57,2.812,2.812,0,0,1-2.595,2.324,3.023,3.023,0,0,1-2.24-1.039c-.735-.865-.613-1.893-.663-2.9.118-.068.113-.136,0-.2V112c.116-.066.121-.134,0-.2v-.538c.118-.067.119-.135,0-.2v-.537c.117-.067.12-.135,0-.2q0-.64,0-1.279c.119-.067.122-.135,0-.2q0-13.248,0-26.5c.119-.067.121-.135,0-.2,0-.179,0-.358,0-.537.119-.068.121-.136,0-.2,0-.179,0-.358,0-.537.12-.068.118-.136,0-.2,0-.179,0-.358,0-.537.119-.069.117-.137,0-.2l0-2.021c.119-.067.123-.135,0-.205q0-2.122,0-4.245c.119-.067.122-.135,0-.2l0-.537c.119-.067.122-.135,0-.205l0-.537c.121-.067.123-.135,0-.205q0-.639,0-1.277c.121-.07.116-.138,0-.205,0-.179,0-.358-.005-.537.022-.019.065-.045.062-.057a.917.917,0,0,0-.069-.144c0-.181-.006-.362-.008-.543.019-.019.058-.044.054-.057a.813.813,0,0,0-.061-.135c-.111-.659.287-1.559-.182-1.928-.434-.342-1.288-.15-1.958-.193-.031,0-.061-.009-.092-.013-.266-.356-.532-.711-.782.011l-7.04-.007c-.2-.141-.387-.181-.554.047l-.029.029a.17.17,0,0,0-.106.25c.03.461.086.924.086,1.385q0,14.784-.005,29.568-.012,43.656-.039,87.312c0,.726.2.95.939.939,2.966-.044,5.933-.018,8.9-.025.3,0,.625.1.869-.18a.532.532,0,0,0,.039-.756c-.006-.18-.013-.359-.019-.54.121-.069.115-.137,0-.2q0-1.381.005-2.763c.118-.067.123-.135,0-.205q0-.639,0-1.278c.119-.067.122-.135,0-.2q0-4.347,0-8.7c.118-.067.122-.135,0-.2,0-.179,0-.358,0-.537.119-.068.121-.136,0-.205q0-.268,0-.537c.119-.068.119-.136,0-.2,0-.179,0-.357,0-.537.119-.068.117-.137,0-.2l0-2.021c.118-.067.123-.135,0-.205q0-17.7,0-35.4c.118-.067.121-.135,0-.205,0-.179,0-.357,0-.536.119-.068.122-.135,0-.205l0-.537c.12-.067.122-.135,0-.2l0-.537c.119-.066.123-.135,0-.2,0-.179,0-.359,0-.538a.22.22,0,0,0,0-.386c0-.118,0-.237,0-.356a.22.22,0,0,0,0-.386q.01-.548.021-1.1c.156-.145.146-.274-.039-.385a2.978,2.978,0,0,1,2.886-3.2m-85.3,63.632c.01-.4.03-.8.03-1.2q0-21.084,0-42.17c0-3.212-.009-6.426.01-9.639,0-.515-.059-.758-.684-.758-2.807,0-5.616-.1-8.423-.085-2.017.009-1.628-.15-1.629,1.619q-.027,25.627-.034,51.252c0,.823.234,1.055,1.044,1.047,3.12-.029,6.24.008,9.361.021.151.138.268.141.326-.084m17.7-74.1-.233.015c-.495.031-.73.187-.726.79.035,5.9.034,11.8.032,17.707q-.007,27.3-.039,54.605c0,.812.2,1.049,1.035,1.033q4.356-.084,8.715,0c.829.016,1.019-.212,1.018-1.026q-.036-35.787-.02-71.572c0-.47-.007-.942-.011-1.412-.464-.419-1-.177-1.506-.153-2.461.016-4.924.158-7.383-.063-.062-.194-.126-.191-.192,0l-.69.08m34.265-20.875c-.067-.1-.132-.095-.195,0l-.549,0a9.967,9.967,0,0,0-3.526.005h-.554c-.061-.095-.124-.1-.191-.006l-1.1-.028c-.067-.119-.134-.118-.2,0l-.737.022c-.181-.149-.361-.2-.543,0-.4.539-.1,1.131-.1,1.689q-.03,20.9-.021,41.8-.01,25.3-.043,50.609c0,.75.239.933.959.922q4.449-.059,8.9-.005c.68.007.892-.161.891-.873q-.035-35.87-.028-71.74c0-7.137-.019-14.274.025-21.411.005-.8-.267-1-.951-1s-1.358,0-2.038,0M44.067,166.011c0-6.428-.01-12.855.015-19.283,0-.647-.16-.829-.814-.819-2.688.038-5.378.016-8.066.015-1.892,0-1.888,0-1.888,1.856q0,18.633-.028,37.267c0,.911.282,1.151,1.16,1.138q4.356-.067,8.715.014c.736.013.927-.171.924-.905-.029-6.428-.017-12.855-.017-19.283" transform="translate(-0.941 -15.621)"/>
        <path id="Path_824656" data-name="Path 824656" d="M24.713,82.539l-.149.158-.115.089a3.083,3.083,0,0,1-4.292-.554A50.177,50.177,0,0,1,11.4,70.056c-.11-.22-.229-.435-.327-.661A1.44,1.44,0,0,0,9.4,68.359a8.246,8.246,0,0,1-6.416-2.11A9.344,9.344,0,0,1,.305,61.789,8.57,8.57,0,0,1,.09,58.175a6.6,6.6,0,0,1,1.417-3.14,8.53,8.53,0,0,1,4.222-3.363c.306-.095.316-.4.313-.7-.009-1.236.023-2.472-.006-3.707-.028-1.219.4-2.467.241-3.6s.4-2.052.378-3.118a13.207,13.207,0,0,1,.68-3.21,51.573,51.573,0,0,1,4.416-11.65,47.644,47.644,0,0,1,4.742-7.3,45.112,45.112,0,0,1,5.239-5.663A47.792,47.792,0,0,1,33.747,4.654,48.635,48.635,0,0,1,45.615.863,50.523,50.523,0,0,1,54.685,0a47.21,47.21,0,0,1,7.7.8c1.957.327,3.888.772,5.785,1.261A37.67,37.67,0,0,1,74.37,4.4,48.819,48.819,0,0,1,80.453,7.67a47.355,47.355,0,0,1,5.282,4,58.835,58.835,0,0,1,7.4,7.819,41.889,41.889,0,0,1,3.185,5.1,32.725,32.725,0,0,1,1.661,3.235c.2.444.333.463.631.176.423-.406.815-.846,1.253-1.233.4-.352.079-.619-.08-.867a7.134,7.134,0,0,1-.978-3.861,8.408,8.408,0,0,1,2.654-6.181,8.228,8.228,0,0,1,7.2-2.429,9.617,9.617,0,0,1,4.244,1.84,6.91,6.91,0,0,1,2.588,3.38,8,8,0,0,1,.2,6.132,1.262,1.262,0,0,0,.411,1.528c4.018,3.979,8.009,7.987,12.014,11.98.279.278.694.522.853.809.745,1.34,1.773,1.023,2.923.736A8.373,8.373,0,0,1,142,45.8c1.248,4.807-.67,8.671-5.354,10.571a8.542,8.542,0,0,1-10.1-3.472,8.414,8.414,0,0,1-1.446-4.788,7.477,7.477,0,0,1,.792-3.151c.3-.6.266-.9-.272-1.432-3.562-3.542-7.2-7.011-10.627-10.689-.822-.881-1.731-1.681-2.539-2.573A1.154,1.154,0,0,0,111,29.921a9.716,9.716,0,0,1-6.348.281.685.685,0,0,0-.725.258c-1.091,1.093-2.178,2.19-3.273,3.28a.612.612,0,0,0-.135.722,46.929,46.929,0,0,1,1.987,12.59,50.828,50.828,0,0,1-1.963,14.84,46.46,46.46,0,0,1-6.085,13.067,47.451,47.451,0,0,1-7.677,8.879A50.852,50.852,0,0,1,79.4,89.411a47.307,47.307,0,0,1-15.9,6.18,51.088,51.088,0,0,1-6.682.828c-1.535.1-3.064.084-4.595.134a37.169,37.169,0,0,1-6.5-.808,35.947,35.947,0,0,1-7.034-1.827,43.842,43.842,0,0,1-8.181-3.774,3.446,3.446,0,0,1-1.535-1.975c-.238-.732.159-1.216.273-1.811a2.813,2.813,0,0,1,2.413-1.294,9.136,9.136,0,0,1,2.872.982,41.424,41.424,0,0,0,4.436,2.08,66.855,66.855,0,0,0,6.705,1.952,43.872,43.872,0,0,0,7.042.888,38.1,38.1,0,0,0,7.239-.339,42.379,42.379,0,0,0,11.784-3.3,43.338,43.338,0,0,0,10.635-6.848A37.3,37.3,0,0,0,87.3,75.425a46.011,46.011,0,0,0,5.125-7.785A43.962,43.962,0,0,0,96.53,55.379c.305-1.663.226-3.371.444-5.029a38.556,38.556,0,0,0-.173-6.772,39.234,39.234,0,0,0-.618-4.234c-.036-.234.078-.556-.186-.672-.293-.127-.4.215-.562.373q-4.777,4.726-9.54,9.467-4.565,4.546-9.121,9.1a1.424,1.424,0,0,0-.464,1.678,5.484,5.484,0,0,1,.078,4.3,1.281,1.281,0,0,0-.065.263A8.59,8.59,0,0,1,69.255,70.2a8.785,8.785,0,0,1-9.392-5.567,7.3,7.3,0,0,1-.04-5.733,1.255,1.255,0,0,0-.191-1.59c-1.373-1.33-2.777-2.623-4.093-4.02-1.56-1.655-3.247-3.2-4.822-4.851-2.919-3.064-5.968-6-8.949-9.009a.813.813,0,0,0-.974-.27,8.276,8.276,0,0,1-6.51,0,.944.944,0,0,0-1.16.251q-7.944,7.97-15.915,15.912a1.134,1.134,0,0,0-.314,1.4,7.65,7.65,0,0,1,.623,3.083,8.487,8.487,0,0,1-1.623,5.046c-.3.4-.6.8-.319,1.346.661,1.267,1.3,2.548,1.977,3.8a42.833,42.833,0,0,0,6.6,8.613,2.985,2.985,0,0,1,.557,3.925M53.968,5.73a30.929,30.929,0,0,0-9.423.942,42.212,42.212,0,0,0-13.906,6.053,43.248,43.248,0,0,0-11.1,10.8,42.075,42.075,0,0,0-6.4,13.438A43.6,43.6,0,0,0,11.6,48.4c0,.759.127,1.53.112,2.264-.01.506.058.966.368,1.132.437.233.889-.086,1.254-.445.9-.886,1.844-1.727,2.732-2.624,4.383-4.437,8.89-8.751,13.182-13.281a.933.933,0,0,0,.2-1.128,8.548,8.548,0,0,1,.721-7.85,8.853,8.853,0,0,1,3.74-3.221,8.727,8.727,0,0,1,4.793-.7,8.348,8.348,0,0,1,6.552,4.417,8.867,8.867,0,0,1,.408,7.18,1.647,1.647,0,0,0,.4,1.9c2.8,2.747,5.569,5.532,8.343,8.308q4.39,4.394,8.772,8.8c.389.389.741.8,1.429.487a8.454,8.454,0,0,1,7.116.121,1.236,1.236,0,0,0,1.564-.309q3.231-3.323,6.516-6.592,6.815-6.817,13.65-13.615c.47-.467.733-.9.226-1.5a2.492,2.492,0,0,1-.237-.668A40.591,40.591,0,0,0,85.66,19.146,39.488,39.488,0,0,0,80.1,14.119,42.034,42.034,0,0,0,61.391,6.126a30.8,30.8,0,0,0-7.423-.4M37.3,34.248c2.325-.012,3.427-1.471,3.4-3.138-.031-2.078-1.358-3.058-3.358-3.069A2.96,2.96,0,0,0,34.374,31.1c-.039,1.4,1.426,3.271,2.93,3.148m30.62,24.3a2.945,2.945,0,0,0-3.075,3.142,3.148,3.148,0,0,0,6.289,0,2.927,2.927,0,0,0-3.215-3.144m65.8-13.389a3.077,3.077,0,0,0-3.059,3.276,3.225,3.225,0,0,0,3.057,3.05,3.452,3.452,0,0,0,3.267-3.2,3.141,3.141,0,0,0-3.265-3.131M5.666,59.831A3.226,3.226,0,0,0,8.781,62.98a2.976,2.976,0,0,0,3.141-3.045A3.084,3.084,0,0,0,8.645,56.7a3.143,3.143,0,0,0-2.979,3.13M107.573,19.05a2.945,2.945,0,0,0-3.227,3,3.3,3.3,0,0,0,3.271,3.125,3.2,3.2,0,0,0,3.047-3.082,2.993,2.993,0,0,0-3.092-3.039" transform="translate(0 0)"/>
        <path id="Path_824657" data-name="Path 824657" d="M30.026,95.815a2.986,2.986,0,0,0-.557-3.925,42.778,42.778,0,0,1-6.6-8.613c-.682-1.255-1.316-2.537-1.977-3.8-.284-.546.023-.943.318-1.346a8.487,8.487,0,0,0,1.623-5.046A7.636,7.636,0,0,0,22.207,70a1.134,1.134,0,0,1,.315-1.4q7.973-7.94,15.915-15.912a.944.944,0,0,1,1.16-.252,8.273,8.273,0,0,0,6.51,0,.813.813,0,0,1,.974.271c2.982,3,6.03,5.945,8.949,9.009,1.576,1.655,3.262,3.2,4.822,4.851,1.317,1.4,2.72,2.691,4.094,4.021a1.255,1.255,0,0,1,.191,1.59,7.3,7.3,0,0,0,.039,5.732,8.785,8.785,0,0,0,9.392,5.567,8.591,8.591,0,0,0,7.069-6.351,1.224,1.224,0,0,1,.065-.263,5.486,5.486,0,0,0-.078-4.3,1.423,1.423,0,0,1,.464-1.677q4.57-4.542,9.121-9.1,4.762-4.742,9.54-9.467c.159-.157.269-.5.562-.372.265.115.15.438.186.672a39.041,39.041,0,0,1,.619,4.233,38.494,38.494,0,0,1,.173,6.773c-.217,1.658-.138,3.366-.444,5.029a43.966,43.966,0,0,1-4.106,12.261A46,46,0,0,1,92.611,88.7a37.211,37.211,0,0,1-4.924,5.052A43.388,43.388,0,0,1,77.052,100.6a42.405,42.405,0,0,1-11.784,3.3,38.161,38.161,0,0,1-7.239.339,43.966,43.966,0,0,1-7.043-.889,66.892,66.892,0,0,1-6.7-1.952,41.645,41.645,0,0,1-4.436-2.08,9.135,9.135,0,0,0-2.872-.983,2.816,2.816,0,0,0-2.413,1.294c-1.147-.909-2.288-1.825-3.445-2.72a3.419,3.419,0,0,1-1.09-1.1" transform="translate(-5.313 -13.276)" fill="#71f2eb"/>
        <path id="Path_824658" data-name="Path 824658" d="M238.7,84.243q0,13.248,0,26.5l0,.2q0,.64,0,1.279l0,.2q0,.268,0,.537c0,.068,0,.136,0,.2,0,.179,0,.359,0,.538l0,.2v.539l0,.2c.051,1-.071,2.033.664,2.9a3.021,3.021,0,0,0,2.24,1.039q-.013,2.916-.027,5.832a2.978,2.978,0,0,0-2.887,3.2l.038.385-.02,1.1v.386c0,.119,0,.237,0,.356s0,.258,0,.386l0,.538c0,.068,0,.136,0,.2,0,.179,0,.358,0,.537,0,.068,0,.136,0,.2,0,.179,0,.358,0,.537,0,.068,0,.137,0,.205l0,.536,0,.205q0,17.7,0,35.4c0,.068,0,.137,0,.205l0,2.021c0,.068,0,.136,0,.2q0,.269,0,.537v.2q0,.269,0,.537c0,.068,0,.137,0,.205l0,.537,0,.2q0,4.347,0,8.7c0,.068,0,.136,0,.2q0,.639,0,1.278c0,.068,0,.137,0,.205l0,2.763c0,.068,0,.135,0,.2.007.18.013.359.019.54-.013.252-.026.5-.039.756-.244.276-.572.179-.869.18-2.967.007-5.934-.019-8.9.025-.744.011-.939-.213-.939-.939q.037-43.655.039-87.312,0-14.784,0-29.568c0-.461-.056-.924-.086-1.385.036-.083.071-.167.106-.25l.029-.029.555-.047,7.04.007a1.153,1.153,0,0,0,.782-.011c.031,0,.06.01.092.013.669.043,1.524-.149,1.958.193.469.369.071,1.269.182,1.928l.007.193.009.543.007.2c0,.179,0,.358.006.537l0,.205v1.277l0,.205q0,.269,0,.537l0,.205,0,.537,0,.2q0,2.122,0,4.245c0,.068,0,.137,0,.205l0,2.021c0,.068,0,.136,0,.2,0,.179,0,.358,0,.537v.2c0,.179,0,.358,0,.537,0,.068,0,.136,0,.2l0,.537,0,.2" transform="translate(-58.281 -17.531)" fill="#71f2eb"/>
        <path id="Path_824659" data-name="Path 824659" d="M76.633,191.063c2.016-.415,2.784-1.33,2.788-3.384.007-3.923.012-7.846-.022-11.77-.006-.63.122-.867.8-.86q4.633.047,9.268,0c.58-.005.716.161.715.725q-.023,19.415-.007,38.829c0,.713-.164,1-.981.808a9.976,9.976,0,0,0-2.207-.1c-2.194-.01-4.388-.028-6.581.006-.739.011-1.018-.18-1.01-.987.044-4.355.019-8.711.038-13.066a12.341,12.341,0,0,0-.2-2.366,2.748,2.748,0,0,0-2.586-2.011q-.006-2.913-.012-5.824" transform="translate(-19.595 -44.76)" fill="#fe6965"/>
        <path id="Path_824660" data-name="Path 824660" d="M140.915,229.174c-.244.488-.5.473-.774.022a1.332,1.332,0,0,1,.774-.022" transform="translate(-35.834 -58.588)" fill="#3a3b3a"/>
        <path id="Path_824661" data-name="Path 824661" d="M212.994,225.693a.78.78,0,0,1-.038-.138c0-.019.025-.042.038-.063.121-.066.226-.035.225.1s-.1.167-.225.1" transform="translate(-54.453 -57.65)" fill="#71f2eb"/>
        <path id="Path_824662" data-name="Path 824662" d="M213.362,229.224c-.094.15-.155.1-.2-.033l.2.033" transform="translate(-54.505 -58.605)" fill="#3a3b3a"/>
        <path id="Path_824663" data-name="Path 824663" d="M65.857,229.244c-.083.138-.149.118-.2-.022l.2.022" transform="translate(-16.788 -58.612)" fill="#3a3b3a"/>
        <path id="Path_824664" data-name="Path 824664" d="M102.733,229.241c-.086.139-.151.114-.2-.025l.2.025" transform="translate(-26.217 -58.611)" fill="#3a3b3a"/>
        <path id="Path_824665" data-name="Path 824665" d="M139.609,229.237c-.092.139-.156.111-.2-.032l.2.032" transform="translate(-35.646 -58.608)" fill="#3a3b3a"/>
        <path id="Path_824666" data-name="Path 824666" d="M176.485,229.231c-.1.143-.159.106-.2-.037l.2.037" transform="translate(-45.076 -58.605)" fill="#3a3b3a"/>
        <path id="Path_824667" data-name="Path 824667" d="M32.849,111.2l.115-.09-.115.09" transform="translate(-8.4 -28.41)" fill="#71f2eb"/>
        <path id="Path_824668" data-name="Path 824668" d="M191.73,101.488l.736-.023h.2l1.1.028.191.005h.554a23.621,23.621,0,0,0,3.526-.005l.549,0,.2,0c.68,0,1.359.007,2.039,0s.956.2.95,1c-.044,7.136-.026,14.273-.025,21.41q0,35.87.027,71.741c0,.712-.211.88-.891.873q-4.449-.05-8.9.005c-.72.01-.96-.173-.959-.922q.042-25.3.043-50.609.008-20.9.021-41.8c0-.558-.308-1.15.1-1.689h.543" transform="translate(-48.834 -25.945)" fill="#71f2eb"/>
        <path id="Path_824669" data-name="Path 824669" d="M164.868,129.653c0,.47.011.941.011,1.412q0,35.785.019,71.571c0,.815-.189,1.043-1.018,1.027q-4.356-.081-8.715,0c-.831.016-1.035-.221-1.034-1.033q.044-27.3.039-54.605c0-5.9,0-11.805-.032-17.708,0-.6.231-.758.726-.789a.142.142,0,0,0,.232-.015l.69-.08.193,0c2.459.221,4.921.08,7.382.062l1.506.153" transform="translate(-39.412 -33.097)" fill="#71f2eb"/>
        <path id="Path_824670" data-name="Path 824670" d="M127.642,210.684c-3.12-.013-6.241-.05-9.361-.021-.81.008-1.045-.224-1.044-1.047q.039-25.626.034-51.252c0-1.768-.388-1.61,1.629-1.619,2.807-.013,5.616.086,8.423.085.626,0,.688.243.685.758-.019,3.213-.01,6.426-.01,9.639q0,21.085,0,42.17c0,.4-.019.8-.029,1.2l-.327.084" transform="translate(-29.978 -40.08)" fill="#f9b766"/>
        <path id="Path_824671" data-name="Path 824671" d="M54.238,195.15c0,6.428-.012,12.855.016,19.283,0,.734-.187.918-.923.905q-4.356-.079-8.715-.014c-.878.013-1.163-.227-1.16-1.138q.047-18.633.028-37.267c0-1.856,0-1.856,1.888-1.856,2.689,0,5.378.023,8.067-.015.654-.01.816.173.814.819-.025,6.428-.015,12.855-.015,19.283" transform="translate(-11.112 -44.76)" fill="#fe6965"/>
        <path id="Path_824672" data-name="Path 824672" d="M199.255,101.453a23.622,23.622,0,0,1-3.526.005,9.967,9.967,0,0,1,3.526-.005" transform="translate(-50.048 -25.902)" fill="#3a3b3a"/>
        <path id="Path_824673" data-name="Path 824673" d="M239.092,68.423a1.153,1.153,0,0,1-.782.011c.25-.722.517-.366.782-.011" transform="translate(-60.936 -17.391)" fill="#3a3b3a"/>
        <path id="Path_824674" data-name="Path 824674" d="M168.039,129.644l-1.506-.153c.51-.024,1.041-.266,1.506.153" transform="translate(-42.583 -33.088)" fill="#3a3b3a"/>
        <path id="Path_824675" data-name="Path 824675" d="M242.367,228.628c.013-.252.026-.5.039-.756a.532.532,0,0,1-.039.756" transform="translate(-61.974 -58.267)" fill="#3a3b3a"/>
        <path id="Path_824676" data-name="Path 824676" d="M228.66,68.529l-.555.047c.167-.228.357-.188.555-.047" transform="translate(-58.327 -17.494)" fill="#3a3b3a"/>
        <path id="Path_824677" data-name="Path 824677" d="M191.8,101.45h-.543c.182-.2.362-.149.543,0" transform="translate(-48.905 -25.907)" fill="#3a3b3a"/>
        <path id="Path_824678" data-name="Path 824678" d="M131.216,229.186l.327-.084c-.058.225-.175.223-.327.084" transform="translate(-33.552 -58.582)" fill="#3a3b3a"/>
        <path id="Path_824679" data-name="Path 824679" d="M242.4,151.279v-.386a.22.22,0,0,1,0,.386" transform="translate(-61.982 -38.584)" fill="#3a3b3a"/>
        <path id="Path_824680" data-name="Path 824680" d="M242.4,150.283V149.9a.22.22,0,0,1,0,.386" transform="translate(-61.982 -38.329)" fill="#3a3b3a"/>
        <path id="Path_824681" data-name="Path 824681" d="M242.416,148.291c-.013-.128-.025-.257-.039-.385.185.111.2.24.039.385" transform="translate(-61.976 -37.82)" fill="#3a3b3a"/>
        <path id="Path_824682" data-name="Path 824682" d="M242.393,127.428l0-.2c.118.069.115.137,0,.2" transform="translate(-61.98 -32.531)" fill="#3a3b3a"/>
        <path id="Path_824683" data-name="Path 824683" d="M242.4,125.435l0-.2c.121.069.117.138,0,.2" transform="translate(-61.981 -32.022)" fill="#3a3b3a"/>
        <path id="Path_824684" data-name="Path 824684" d="M201.4,101.472l-.2,0c.064-.1.128-.1.2,0" transform="translate(-51.448 -25.928)" fill="#3a3b3a"/>
        <path id="Path_824685" data-name="Path 824685" d="M242.392,128.425c0-.068,0-.136,0-.2.118.069.115.137,0,.2" transform="translate(-61.98 -32.786)" fill="#3a3b3a"/>
        <path id="Path_824686" data-name="Path 824686" d="M156.549,129.388l-.192,0c.066-.189.13-.191.192,0" transform="translate(-39.981 -33.048)" fill="#3a3b3a"/>
        <path id="Path_824687" data-name="Path 824687" d="M242.388,129.421c0-.068,0-.136,0-.2.118.07.112.138,0,.2" transform="translate(-61.979 -33.041)" fill="#3a3b3a"/>
        <path id="Path_824688" data-name="Path 824688" d="M155.35,129.543a.142.142,0,0,1-.233.015l.233-.015" transform="translate(-39.664 -33.124)" fill="#3a3b3a"/>
        <path id="Path_824689" data-name="Path 824689" d="M194.92,101.486l-.191-.005c.067-.1.13-.089.191.005" transform="translate(-49.793 -25.931)" fill="#3a3b3a"/>
        <path id="Path_824690" data-name="Path 824690" d="M193.179,101.437h-.2c.068-.117.135-.118.2,0" transform="translate(-49.345 -25.915)" fill="#3a3b3a"/>
        <path id="Path_824691" data-name="Path 824691" d="M242.39,130.416l0-.2c.115.066.121.134,0,.2" transform="translate(-61.979 -33.296)" fill="#3a3b3a"/>
        <path id="Path_824692" data-name="Path 824692" d="M242.4,89.561l0-.2c.119.069.116.138,0,.2" transform="translate(-61.982 -22.848)" fill="#3a3b3a"/>
        <path id="Path_824693" data-name="Path 824693" d="M242.4,88.565c0-.068,0-.136,0-.2.121.068.119.137,0,.2" transform="translate(-61.982 -22.594)" fill="#3a3b3a"/>
        <path id="Path_824694" data-name="Path 824694" d="M242.4,87.568v-.2c.118.068.119.136,0,.2" transform="translate(-61.982 -22.339)" fill="#3a3b3a"/>
        <path id="Path_824695" data-name="Path 824695" d="M242.4,86.572c0-.068,0-.137,0-.2.118.068.12.135,0,.2" transform="translate(-61.981 -22.084)" fill="#3a3b3a"/>
        <path id="Path_824696" data-name="Path 824696" d="M242.4,83.581c0-.068,0-.137,0-.205.12.07.115.138,0,.205" transform="translate(-61.982 -21.319)" fill="#3a3b3a"/>
        <path id="Path_824697" data-name="Path 824697" d="M242.4,152.34c0-.068,0-.137,0-.2.12.07.116.138,0,.2" transform="translate(-61.982 -38.901)" fill="#3a3b3a"/>
        <path id="Path_824698" data-name="Path 824698" d="M242.4,153.337l0-.2c.12.069.118.138,0,.2" transform="translate(-61.982 -39.156)" fill="#3a3b3a"/>
        <path id="Path_824699" data-name="Path 824699" d="M242.4,154.334l0-.2c.12.069.117.138,0,.2" transform="translate(-61.982 -39.411)" fill="#3a3b3a"/>
        <path id="Path_824700" data-name="Path 824700" d="M242.4,155.329l0-.205c.12.07.117.138,0,.205" transform="translate(-61.982 -39.665)" fill="#3a3b3a"/>
        <path id="Path_824701" data-name="Path 824701" d="M242.4,77.6l0-.205c.12.07.117.138,0,.205" transform="translate(-61.982 -19.791)" fill="#3a3b3a"/>
        <path id="Path_824702" data-name="Path 824702" d="M242.4,76.606l0-.205c.12.07.117.138,0,.205" transform="translate(-61.982 -19.536)" fill="#3a3b3a"/>
        <path id="Path_824703" data-name="Path 824703" d="M242.4,75.61l0-.205c.121.07.118.138,0,.205" transform="translate(-61.982 -19.281)" fill="#3a3b3a"/>
        <path id="Path_824704" data-name="Path 824704" d="M242.4,203.161c0-.068,0-.137,0-.205.12.07.115.138,0,.205" transform="translate(-61.982 -51.896)" fill="#3a3b3a"/>
        <path id="Path_824705" data-name="Path 824705" d="M242.4,206.152c0-.068,0-.137,0-.2.118.068.12.135,0,.2" transform="translate(-61.981 -52.661)" fill="#3a3b3a"/>
        <path id="Path_824706" data-name="Path 824706" d="M242.4,207.148v-.2c.118.068.119.136,0,.2" transform="translate(-61.982 -52.916)" fill="#3a3b3a"/>
        <path id="Path_824707" data-name="Path 824707" d="M242.4,208.145c0-.068,0-.137,0-.2.12.068.119.137,0,.2" transform="translate(-61.982 -53.171)" fill="#3a3b3a"/>
        <path id="Path_824708" data-name="Path 824708" d="M242.4,209.14l0-.205c.119.07.116.138,0,.205" transform="translate(-61.982 -53.425)" fill="#3a3b3a"/>
        <path id="Path_824709" data-name="Path 824709" d="M242.4,221.1l0-.2c.12.069.117.138,0,.2" transform="translate(-61.982 -56.483)" fill="#3a3b3a"/>
        <path id="Path_824710" data-name="Path 824710" d="M242.4,223.091c0-.068,0-.137,0-.205.12.07.116.138,0,.205" transform="translate(-61.981 -56.992)" fill="#3a3b3a"/>
        <path id="Path_824711" data-name="Path 824711" d="M242.4,73.617l0-.205c.119.067.124.135,0,.205" transform="translate(-61.981 -18.772)" fill="#3a3b3a"/>
        <path id="Path_824712" data-name="Path 824712" d="M242.392,227.077l0-.2c.118.067.123.135,0,.2" transform="translate(-61.98 -58.012)" fill="#3a3b3a"/>
        <path id="Path_824713" data-name="Path 824713" d="M242.386,72.621c0-.067,0-.135-.007-.2a.92.92,0,0,1,.07.144c0,.011-.04.038-.063.057" transform="translate(-61.977 -18.518)" fill="#3a3b3a"/>
        <path id="Path_824714" data-name="Path 824714" d="M242.366,71.623l-.007-.193a.812.812,0,0,1,.061.135c0,.013-.035.038-.054.057" transform="translate(-61.972 -18.265)" fill="#3a3b3a"/>
        <path id="Path_824715" data-name="Path 824715" d="M228.025,68.67l-.106.25a.17.17,0,0,1,.106-.25" transform="translate(-58.274 -17.559)" fill="#3a3b3a"/>
        <path id="Path_824716" data-name="Path 824716" d="M57.955,7.674a30.8,30.8,0,0,1,7.423.394,42.047,42.047,0,0,1,18.707,7.994,39.529,39.529,0,0,1,5.561,5.026,40.6,40.6,0,0,1,7.786,11.92,2.461,2.461,0,0,0,.237.667c.507.609.244,1.037-.226,1.5q-6.835,6.8-13.65,13.615-3.277,3.277-6.516,6.591a1.233,1.233,0,0,1-1.563.309,8.456,8.456,0,0,0-7.116-.12c-.688.31-1.041-.1-1.43-.487q-4.39-4.394-8.772-8.8c-2.774-2.777-5.541-5.561-8.343-8.308a1.646,1.646,0,0,1-.4-1.9,8.872,8.872,0,0,0-.408-7.18,8.349,8.349,0,0,0-6.553-4.417,8.726,8.726,0,0,0-4.792.7,8.848,8.848,0,0,0-3.74,3.221,8.547,8.547,0,0,0-.721,7.849.936.936,0,0,1-.2,1.129c-4.292,4.528-8.8,8.843-13.182,13.28-.887.9-1.832,1.738-2.732,2.624-.365.36-.817.678-1.254.445-.31-.165-.378-.625-.368-1.131.014-.735-.115-1.506-.113-2.264a43.63,43.63,0,0,1,1.543-11.435,42.086,42.086,0,0,1,6.4-13.438,43.266,43.266,0,0,1,11.1-10.8A42.223,42.223,0,0,1,48.532,8.616a30.929,30.929,0,0,1,9.423-.942" transform="translate(-3.986 -1.944)" fill="#71f2eb"/>
        <path id="Path_824717" data-name="Path 824717" d="M49.113,43.881c-1.5.123-2.968-1.745-2.929-3.148a2.958,2.958,0,0,1,2.972-3.058c2,.01,3.327.991,3.358,3.069.025,1.666-1.076,3.126-3.4,3.138" transform="translate(-11.809 -9.633)" fill="#f9b766"/>
        <path id="Path_824718" data-name="Path 824718" d="M90.2,78.65a2.927,2.927,0,0,1,3.215,3.144,3.148,3.148,0,0,1-6.289,0A2.945,2.945,0,0,1,90.2,78.65" transform="translate(-22.279 -20.106)" fill="#f9b766"/>
        <path id="Path_824719" data-name="Path 824719" d="M178.612,60.668a3.139,3.139,0,0,1,3.264,3.131,3.451,3.451,0,0,1-3.266,3.2,3.225,3.225,0,0,1-3.058-3.049,3.078,3.078,0,0,1,3.06-3.276" transform="translate(-44.888 -15.513)" fill="#f9b766"/>
        <path id="Path_824720" data-name="Path 824720" d="M7.612,79.311a3.143,3.143,0,0,1,2.979-3.131,3.084,3.084,0,0,1,3.276,3.234,2.974,2.974,0,0,1-3.14,3.045,3.226,3.226,0,0,1-3.116-3.148" transform="translate(-1.946 -19.479)" fill="#f9b766"/>
        <path id="Path_824721" data-name="Path 824721" d="M143.418,25.594a2.993,2.993,0,0,1,3.092,3.039,3.2,3.2,0,0,1-3.047,3.082,3.3,3.3,0,0,1-3.271-3.125,2.945,2.945,0,0,1,3.227-3" transform="translate(-35.845 -6.544)" fill="#f9b766"/>
      </g>
    </g>
  </g>
</svg>
