<svg xmlns="http://www.w3.org/2000/svg" xmlns:xlink="http://www.w3.org/1999/xlink" width="187" height="347" viewBox="0 0 187 347">
  <defs>
    <clipPath id="clip-path">
      <rect id="Rectangle_378598" data-name="Rectangle 378598" width="187" height="347" transform="translate(180 26255.371)" fill="#fff"/>
    </clipPath>
  </defs>
  <g id="Mask_Group_440" data-name="Mask Group 440" transform="translate(-180 -26255.371)" clip-path="url(#clip-path)">
    <g id="firma" transform="translate(163.699 26265.195)">
      <g id="Background_Complete" data-name="Background Complete" transform="translate(0 105.712)">
        <g id="Group_1074913" data-name="Group 1074913">
          <g id="Group_1074910" data-name="Group 1074910" transform="translate(3.169 12.371)">
            <path id="Path_824990" data-name="Path 824990" d="M181.393,200.373H166.15v-1c0-1.965,2.228-3.528,4.885-3.428l5.971.234c2.465.1,4.388,1.608,4.388,3.428v.759Z" transform="translate(16.408 -130.302)" fill="#f0f0f0"/>
            <g id="Group_1074907" data-name="Group 1074907" transform="translate(113.762)">
              <path id="Path_824991" data-name="Path 824991" d="M149.721,175.653a1.958,1.958,0,0,0-1.979-1.853H134.229a1.974,1.974,0,0,0-1.979,1.853l3.211,27.812h20.174Z" transform="translate(-101.788 -132.881)" fill="#e6e6e6"/>
              <path id="Path_824992" data-name="Path 824992" d="M181.4,137.161h-5.032L170.7,189.692h5.032a1.717,1.717,0,0,0,1.674-1.5l5.337-49.55a1.325,1.325,0,0,0-1.346-1.5Z" transform="translate(-96.759 -137.15)" fill="#e6e6e6"/>
              <path id="Path_824993" data-name="Path 824993" d="M182.16,189.692H106.667a1.32,1.32,0,0,1-1.346-1.5l5.337-49.55a1.717,1.717,0,0,1,1.674-1.5h75.493a1.32,1.32,0,0,1,1.346,1.5l-5.337,49.55A1.717,1.717,0,0,1,182.16,189.692Z" transform="translate(-105.312 -137.15)" fill="#ebebeb"/>
              <path id="Path_824994" data-name="Path 824994" d="M180.391,184.643H109.207a1.154,1.154,0,0,1-1.176-1.306l4.659-43.231a1.509,1.509,0,0,1,1.459-1.306h71.184a1.154,1.154,0,0,1,1.176,1.306l-4.659,43.231a1.509,1.509,0,0,1-1.459,1.306Z" transform="translate(-104.957 -136.958)" fill="#fafafa"/>
              <rect id="Rectangle_378593" data-name="Rectangle 378593" width="27.004" height="2.155" rx="0.96" transform="translate(28.698 68.43)" fill="#e6e6e6"/>
            </g>
            <rect id="Rectangle_378594" data-name="Rectangle 378594" width="61.46" height="9.155" transform="translate(168.027 69.959)" fill="#e6e6e6"/>
            <path id="Path_824995" data-name="Path 824995" d="M56.71,301.092H55.172a.35.35,0,0,1-.351-.346L52.39,208.01h7.09l-2.42,92.736a.35.35,0,0,1-.351.346Z" transform="translate(1.527 -128.895)" fill="#e6e6e6"/>
            <path id="Path_824996" data-name="Path 824996" d="M8.249,301.092H4.71l10-93.082H21.8Z" transform="translate(-4.71 -128.895)" fill="#f0f0f0"/>
            <path id="Path_824997" data-name="Path 824997" d="M211.342,301.092h0L197.75,208.01h7.09l10.008,93.082Z" transform="translate(20.542 -128.895)" fill="#e6e6e6"/>
            <rect id="Rectangle_378595" data-name="Rectangle 378595" width="179.652" height="9.155" transform="translate(5.903 69.959)" fill="#f5f5f5"/>
            <path id="Path_824998" data-name="Path 824998" d="M164.485,301.092h-4.071l-1.5-93.082H166Z" transform="translate(15.461 -128.895)" fill="#f0f0f0"/>
            <g id="Group_1074909" data-name="Group 1074909" transform="translate(118.78 65.639)">
              <g id="Group_1074908" data-name="Group 1074908" transform="translate(1.538)">
                <path id="Path_824999" data-name="Path 824999" d="M113.349,198.62h-1.877a.355.355,0,0,1-.362-.357V196.3a.355.355,0,0,1,.362-.357h1.357a.373.373,0,0,1,.351.268l.531,1.965a.36.36,0,0,1-.351.447Z" transform="translate(-111.11 -195.94)" fill="#f5f5f5"/>
                <path id="Path_825000" data-name="Path 825000" d="M115.649,198.62h-1.877a.355.355,0,0,1-.362-.357V196.3a.355.355,0,0,1,.362-.357h1.357a.373.373,0,0,1,.351.268l.531,1.965a.36.36,0,0,1-.351.447Z" transform="translate(-110.809 -195.94)" fill="#f5f5f5"/>
                <path id="Path_825001" data-name="Path 825001" d="M117.949,198.62h-1.877a.355.355,0,0,1-.362-.357V196.3a.355.355,0,0,1,.362-.357h1.357a.373.373,0,0,1,.351.268l.532,1.965a.36.36,0,0,1-.351.447Z" transform="translate(-110.508 -195.94)" fill="#f5f5f5"/>
                <path id="Path_825002" data-name="Path 825002" d="M120.249,198.62h-1.877a.355.355,0,0,1-.362-.357V196.3a.355.355,0,0,1,.362-.357h1.357a.373.373,0,0,1,.351.268l.531,1.965a.36.36,0,0,1-.351.447Z" transform="translate(-110.207 -195.94)" fill="#f5f5f5"/>
                <path id="Path_825003" data-name="Path 825003" d="M122.549,198.62h-1.877a.355.355,0,0,1-.362-.357V196.3a.355.355,0,0,1,.362-.357h1.357a.373.373,0,0,1,.351.268l.531,1.965a.36.36,0,0,1-.351.447Z" transform="translate(-109.907 -195.94)" fill="#f5f5f5"/>
                <path id="Path_825004" data-name="Path 825004" d="M124.859,198.62h-1.877a.355.355,0,0,1-.362-.357V196.3a.355.355,0,0,1,.362-.357h1.357a.373.373,0,0,1,.351.268l.531,1.965a.36.36,0,0,1-.351.447Z" transform="translate(-109.604 -195.94)" fill="#f5f5f5"/>
                <path id="Path_825005" data-name="Path 825005" d="M127.159,198.62h-1.877a.355.355,0,0,1-.362-.357V196.3a.355.355,0,0,1,.362-.357h1.357a.373.373,0,0,1,.351.268l.531,1.965a.36.36,0,0,1-.351.447Z" transform="translate(-109.303 -195.94)" fill="#f5f5f5"/>
                <path id="Path_825006" data-name="Path 825006" d="M129.459,198.62h-1.877a.355.355,0,0,1-.362-.357V196.3a.355.355,0,0,1,.362-.357h1.357a.373.373,0,0,1,.351.268l.531,1.965a.36.36,0,0,1-.351.447Z" transform="translate(-109.003 -195.94)" fill="#f5f5f5"/>
                <path id="Path_825007" data-name="Path 825007" d="M131.759,198.62h-1.877a.355.355,0,0,1-.362-.357V196.3a.355.355,0,0,1,.362-.357h1.357a.373.373,0,0,1,.351.268l.531,1.965a.36.36,0,0,1-.351.447Z" transform="translate(-108.702 -195.94)" fill="#f5f5f5"/>
                <path id="Path_825008" data-name="Path 825008" d="M134.059,198.62h-1.877a.355.355,0,0,1-.362-.357V196.3a.355.355,0,0,1,.362-.357h1.357a.373.373,0,0,1,.351.268l.531,1.965a.36.36,0,0,1-.351.447Z" transform="translate(-108.401 -195.94)" fill="#f5f5f5"/>
                <path id="Path_825009" data-name="Path 825009" d="M136.359,198.62h-1.877a.355.355,0,0,1-.362-.357V196.3a.355.355,0,0,1,.362-.357h1.357a.373.373,0,0,1,.351.268l.531,1.965a.36.36,0,0,1-.351.447Z" transform="translate(-108.1 -195.94)" fill="#f5f5f5"/>
                <path id="Path_825010" data-name="Path 825010" d="M138.659,198.62h-1.877a.355.355,0,0,1-.362-.357V196.3a.355.355,0,0,1,.362-.357h1.357a.373.373,0,0,1,.351.268l.531,1.965a.36.36,0,0,1-.351.447Z" transform="translate(-107.799 -195.94)" fill="#f5f5f5"/>
                <path id="Path_825011" data-name="Path 825011" d="M140.959,198.62h-1.877a.355.355,0,0,1-.362-.357V196.3a.355.355,0,0,1,.362-.357h1.357a.373.373,0,0,1,.351.268l.531,1.965a.36.36,0,0,1-.351.447Z" transform="translate(-107.498 -195.94)" fill="#f5f5f5"/>
                <path id="Path_825012" data-name="Path 825012" d="M143.259,198.62h-1.877a.355.355,0,0,1-.362-.357V196.3a.355.355,0,0,1,.362-.357h1.357a.373.373,0,0,1,.351.268l.531,1.965a.36.36,0,0,1-.351.447Z" transform="translate(-107.197 -195.94)" fill="#f5f5f5"/>
                <path id="Path_825013" data-name="Path 825013" d="M145.559,198.62h-1.877a.355.355,0,0,1-.362-.357V196.3a.355.355,0,0,1,.362-.357h1.357a.373.373,0,0,1,.351.268l.531,1.965a.36.36,0,0,1-.351.447Z" transform="translate(-106.897 -195.94)" fill="#f5f5f5"/>
              </g>
              <rect id="Rectangle_378596" data-name="Rectangle 378596" width="42.089" height="3.093" transform="translate(0 1.34)" fill="#ebebeb"/>
            </g>
          </g>
          <g id="Group_1074912" data-name="Group 1074912">
            <path id="Path_825014" data-name="Path 825014" d="M24.324,215.51H89.413a5.621,5.621,0,0,1,5.654,5.582v4.22H18.67v-4.22A5.621,5.621,0,0,1,24.324,215.51Z" transform="translate(0.286 -115.651)" fill="#e0e0e0"/>
            <path id="Path_825015" data-name="Path 825015" d="M21.368,278.082,45.85,275.7V241.74h9.7V275.7l24.584,2.389a4.724,4.724,0,0,1,4.3,4.678V286.4H17.06v-3.629a4.716,4.716,0,0,1,4.3-4.678Z" transform="translate(0.075 -112.595)" fill="#e0e0e0"/>
            <path id="Path_825016" data-name="Path 825016" d="M68.73,286.424a6.344,6.344,0,1,0,6.344-6.263A6.3,6.3,0,0,0,68.73,286.424Z" transform="translate(6.834 -108.12)" fill="#e0e0e0"/>
            <path id="Path_825017" data-name="Path 825017" d="M26.428,286.424a6.344,6.344,0,1,1-6.344-6.263A6.3,6.3,0,0,1,26.428,286.424Z" transform="translate(-0.359 -108.12)" fill="#e0e0e0"/>
            <path id="Path_825018" data-name="Path 825018" d="M4.67,0h3.7a4.642,4.642,0,0,1,4.67,4.611V30.246H0V4.611A4.642,4.642,0,0,1,4.67,0Z" transform="translate(57.29 136.447) rotate(180)" fill="#e6e6e6"/>
            <path id="Path_825019" data-name="Path 825019" d="M65.2,226.554c-3.381-12.639-11-45.33-12.609-88.538A12.511,12.511,0,0,0,40,126.07H17.409A12.528,12.528,0,0,0,4.8,138.452c-.09,20.309,1.346,61.843,12.959,95.594l42.982-1.563a4.737,4.737,0,0,0,4.455-5.929Z" transform="translate(-1.529 -126.07)" fill="#ebebeb"/>
            <g id="Group_1074911" data-name="Group 1074911" transform="translate(0 2.378)">
              <path id="Path_825020" data-name="Path 825020" d="M59.491,231.531A433.777,433.777,0,0,1,45.978,139.22,11.543,11.543,0,0,0,34.365,128.2H13.535A11.544,11.544,0,0,0,1.91,139.622c-.079,18.735,1.244,60.782,11.953,91.921H59.5Z" transform="translate(-1.907 -128.2)" fill="#e6e6e6"/>
              <path id="Path_825021" data-name="Path 825021" d="M44.93,194.564s24.753-4.946,48.659-2.546-11.24,33.227-11.24,33.227h-4.93S96.043,205.7,95,200.828s-47.935,1.552-47.935,1.552l-2.126-7.8Z" transform="translate(3.721 -120.842)" fill="#e6e6e6"/>
              <path id="Path_825022" data-name="Path 825022" d="M13.863,231.531H54.4A433.082,433.082,0,0,1,40.889,139.22,11.543,11.543,0,0,0,29.276,128.2H13.546A11.554,11.554,0,0,0,1.91,139.622c-.079,18.735,1.244,60.771,11.953,91.91Z" transform="translate(-1.907 -128.2)" fill="#e0e0e0"/>
            </g>
            <rect id="Rectangle_378597" data-name="Rectangle 378597" width="86.948" height="4.901" rx="2.01" transform="translate(11.13 104.761)" fill="#e0e0e0"/>
          </g>
        </g>
      </g>
      <g id="Character" transform="translate(8.252 0)">
        <g id="_lt_Group_gt_" data-name="&amp;lt;Group&amp;gt;" transform="translate(0 0)">
          <g id="Group_1074914" data-name="Group 1074914" transform="translate(55.784 39.872)">
            <path id="Path_825023" data-name="Path 825023" d="M134.473,88.715S113.632,68.362,88.63,67.1c0,0-14.9,35.638-22.13,70.987l49.631,8.731S122.95,110.141,134.473,88.715Z" transform="translate(-66.5 -67.1)" fill="#407bff"/>
            <path id="Path_825024" data-name="Path 825024" d="M134.473,88.715c-11.523,21.426-18.342,58.1-18.342,58.1L66.5,138.087A363.047,363.047,0,0,1,76.485,100.7C79.2,92.2,81.868,84.707,84,78.957,86.753,71.588,88.63,67.1,88.63,67.1c25,1.262,45.843,21.615,45.843,21.615Z" transform="translate(-66.5 -67.1)" fill="#fff" opacity="0.6"/>
          </g>
          <g id="Group_1074915" data-name="Group 1074915" transform="translate(94.345 25.782)">
            <path id="Path_825025" data-name="Path 825025" d="M119.27,69.843c-.509.48-1.018.983-1.481,1.507-.079.1-.17.19-.249.29a11.251,11.251,0,0,0-2.284,3.785,6.515,6.515,0,0,0-.317,1.865c-.023,1.809.758,3.729,2.816,5.783-.09,2.456-6.513.067-6.513.067S101.8,78.161,100.6,72.5c3.63-.737,6.921-4.723,9.51-9.133.656-1.116,1.267-2.278,1.832-3.405.973-1.965,1.787-3.885,2.409-5.482l4.919,15.363Z" transform="translate(-100.6 -54.48)" fill="#e4897b"/>
            <path id="Path_825026" data-name="Path 825026" d="M116.728,70.842c-.079.1-.17.19-.249.29a11.251,11.251,0,0,0-2.284,3.785,6.515,6.515,0,0,0-.317,1.865c-2.77-2.6-6.3-7.514-4.829-13.923a16.062,16.062,0,0,1,1.515-4.019l.317.614Z" transform="translate(-99.54 -53.972)" opacity="0.2"/>
          </g>
          <g id="Group_1074917" data-name="Group 1074917" transform="translate(102.448 4.272)">
            <path id="Path_825027" data-name="Path 825027" d="M139.768,50s-2.7,12.337-10.7,14.459.373-19.572.373-19.572Z" transform="translate(-105.432 -34.087)" fill="#263238"/>
            <path id="Path_825028" data-name="Path 825028" d="M109.474,67.259a11.449,11.449,0,0,0,10.72,8.731,12.853,12.853,0,0,0,8.922-2.914,12.5,12.5,0,0,0,1-.9c5.835-5.962,11.625-18.054,5.79-25.6a12.528,12.528,0,0,0-17.392-2.423,12.086,12.086,0,0,0-3.686,4.388c-4.15,7.972-6.966,12.471-5.36,18.724Z" transform="translate(-107.604 -34.461)" fill="#e4897b"/>
            <path id="Path_825029" data-name="Path 825029" d="M123.552,56.032a1.1,1.1,0,0,0,.079,1.574c.418.246,1.063-.078,1.436-.7s.339-1.34-.079-1.574S123.937,55.4,123.552,56.032Z" transform="translate(-105.738 -32.881)" fill="#263238"/>
            <path id="Path_825030" data-name="Path 825030" d="M129.922,59.791A1.113,1.113,0,0,0,130,61.366c.418.234,1.063-.078,1.436-.7s.339-1.34-.079-1.574S130.284,59.188,129.922,59.791Z" transform="translate(-104.904 -32.442)" fill="#263238"/>
            <path id="Path_825031" data-name="Path 825031" d="M128.112,58.79a25.292,25.292,0,0,0-.17,7.157,4.293,4.293,0,0,1-3.392-1.217l3.573-5.929Z" transform="translate(-105.571 -32.468)" fill="#de5753"/>
            <path id="Path_825032" data-name="Path 825032" d="M134.228,58.689a.44.44,0,0,1-.384-.234,3.489,3.489,0,0,0-2.5-1.876.427.427,0,1,1,.09-.849h0a4.292,4.292,0,0,1,3.178,2.322.423.423,0,0,1-.17.581h0a.668.668,0,0,1-.2.045Z" transform="translate(-104.732 -32.825)" fill="#263238"/>
            <path id="Path_825033" data-name="Path 825033" d="M123.781,52.741a.4.4,0,0,1-.17-.19.432.432,0,0,1,.339-.5h0a4.333,4.333,0,0,1,3.811,1.094.421.421,0,0,1-.023.6h0a.445.445,0,0,1-.611-.022h0a3.521,3.521,0,0,0-3.031-.815.458.458,0,0,1-.328-.156Z" transform="translate(-105.695 -33.263)" fill="#263238"/>
            <path id="Path_825034" data-name="Path 825034" d="M126.379,42.571l-1.436,3.718a2.958,2.958,0,0,0-3.076,2.59c-.43,3.539-4.557,7.213-7.814,7.849,0,0,.611-1.306-.645-1.574s-4.489,6.52-4.06,10.8c0,0-1.685-4.533.226-12.449,1.764-7.313,4.421-12.8,7.09-14.581l9.714,3.651Z" transform="translate(-107.649 -34.783)" fill="#263238"/>
            <path id="Path_825035" data-name="Path 825035" d="M107.793,52.107a8.392,8.392,0,0,0,2.047,6.2c1.979,2.266,4.648.9,5.5-1.809.735-2.412.645-6.565-2.047-7.8s-5.247.648-5.5,3.416Z" transform="translate(-107.766 -33.69)" fill="#e4897b"/>
            <g id="Group_1074916" data-name="Group 1074916" transform="translate(11.623 29.258)">
              <path id="Path_825036" data-name="Path 825036" d="M123.715,66.12a22.952,22.952,0,0,0-2.646,2.177c-.17-.123-.328-.234-.486-.357-2.194-1.652-2.657-3.126-2.5-4.276a3.381,3.381,0,0,1,.645-1.541,3.27,3.27,0,0,1,.645-.7c.633,1.563,2.556,3.249,3.619,4.12.441.368.735.569.735.569Z" transform="translate(-118.044 -61.42)" fill="#263238"/>
              <path id="Path_825037" data-name="Path 825037" d="M122.9,65.549l-.8.625c-2.058-1.563-3.291-2.936-3.46-4.031a3.27,3.27,0,0,1,.645-.7c.633,1.563,2.556,3.249,3.619,4.12Z" transform="translate(-117.967 -61.418)" fill="#fff"/>
              <path id="Path_825038" data-name="Path 825038" d="M120.572,67.706c-2.194-1.652-2.657-3.126-2.5-4.276a8.776,8.776,0,0,1,2.058,2.311A3.319,3.319,0,0,1,120.572,67.706Z" transform="translate(-118.045 -61.186)" fill="#de5753"/>
            </g>
            <path id="Path_825039" data-name="Path 825039" d="M124.286,46.721s16.295,13.443,19,.134c0,0-7.825-9.725-17.3-11.433s-12.292,7.592-12.292,7.592l10.584,3.707Z" transform="translate(-106.991 -35.214)" fill="#263238"/>
          </g>
          <path id="Path_825040" data-name="Path 825040" d="M72.739,319.55H61.272a.821.821,0,0,0-.8.636l-1.866,8.3a1.369,1.369,0,0,0,1.074,1.63,1.424,1.424,0,0,0,.305.033c3.709-.056,6.412-.279,11.071-.279,2.872,0,11.523.3,15.481.3s4.478-3.863,2.861-4.22c-7.271-1.563-12.744-3.729-15.074-5.795a2.285,2.285,0,0,0-1.583-.592Z" transform="translate(-11.753 2.181)"/>
          <path id="Path_825041" data-name="Path 825041" d="M115.729,319.28H104.262a.821.821,0,0,0-.8.636l-1.866,8.3a1.369,1.369,0,0,0,1.074,1.63,1.424,1.424,0,0,0,.305.034c3.709-.056,6.412-.279,11.071-.279,2.872,0,11.523.3,15.481.3s4.478-3.863,2.861-4.22c-7.271-1.563-12.744-3.729-15.074-5.795a2.285,2.285,0,0,0-1.583-.592Z" transform="translate(-6.129 2.149)"/>
          <path id="Path_825042" data-name="Path 825042" d="M67.5,127.08l50.807,7.514c.577,3.137-.814,9.6-.814,9.6,5.892,38.05,17.561,127.8,8.176,198.847H108.72s1.572-122.915-13.4-162.64C93.6,201.662,76.1,342.965,76.1,342.965H58.84S61.418,289.809,64,239.6c1.368-26.506-1.425-81.046,1.153-100.451l2.341-12.069Z" transform="translate(-11.718 -20.241)" fill="#263238"/>
          <path id="Path_825043" data-name="Path 825043" d="M91.11,176.675a131.355,131.355,0,0,1,5.6,21.392c1.4-18.913-4.2-38.977-4.2-38.977l-1.391,17.6Z" transform="translate(-7.497 -16.512)" opacity="0.2"/>
          <g id="Group_1074919" data-name="Group 1074919" transform="translate(53.952 108.336)">
            <g id="Group_1074918" data-name="Group 1074918">
              <path id="Path_825044" data-name="Path 825044" d="M78.8,136.041l28.7,4.265.735-5.616-28.609-4.22Z" transform="translate(-63.059 -128.181)"/>
              <path id="Path_825045" data-name="Path 825045" d="M79.026,130.352,65.954,128.42l-1.074,5.527,13.366,1.987Z" transform="translate(-64.88 -128.42)"/>
              <path id="Path_825046" data-name="Path 825046" d="M106.93,134.54l-1.04,5.582,5.564.826.7-5.638Z" transform="translate(-59.516 -127.707)"/>
            </g>
            <path id="Path_825047" data-name="Path 825047" d="M98.4,133.342a2.6,2.6,0,0,0-1.64-1.027l-4.546-.782a1.908,1.908,0,0,0-2.3,1.719l-.328,2.9a2.619,2.619,0,0,0,.543,1.853,2.722,2.722,0,0,0,1.447.994,1.555,1.555,0,0,0,.192.045l4.546.77a1.908,1.908,0,0,0,2.3-1.719l.328-2.892a2.619,2.619,0,0,0-.543-1.853Zm-2.047,5.281-4.546-.77a1.322,1.322,0,0,1-1.052-1.4l.328-2.9a.934.934,0,0,1,1.108-.837l4.546.782a.928.928,0,0,1,.1.022,1.321,1.321,0,0,1,.961,1.373l-.045.435a1.073,1.073,0,0,0-.17-.067l-1.266-.234a.655.655,0,0,0-.792.648.938.938,0,0,0,.746.927l1.266.234H97.6l-.1.949a.934.934,0,0,1-1.108.837Z" transform="translate(-61.649 -128.061)" fill="#fff"/>
          </g>
          <path id="Path_825048" data-name="Path 825048" d="M103.3,77.721l1.73,8.284s-3.9,20.878,1.2,40.227l4.9,2.836,2.68-3.852s-7.6-18.88-5.824-37.659l4.512-6.085-9.2-3.763Z" transform="translate(-5.904 -25.992)" fill="#263238"/>
          <path id="Path_825049" data-name="Path 825049" d="M104.837,68.85l4.817,11.165,5.993-6.252,4.218,6.531a11.709,11.709,0,0,1-4.184,8.374l-6.231-6.174-9.476,1.083s-2.94-9.669-2.273-12.159S104.837,68.85,104.837,68.85Z" transform="translate(-6.648 -27.024)" fill="#407bff"/>
          <path id="Path_825050" data-name="Path 825050" d="M75.33,99.6c2.714-8.5,5.383-15.988,7.52-21.738l3.144-1.384S89.816,88.538,75.33,99.6Z" transform="translate(-9.561 -26.135)" opacity="0.2"/>
          <path id="Path_825051" data-name="Path 825051" d="M104.837,68.85l4.817,11.165,5.993-6.252,4.218,6.531a11.709,11.709,0,0,1-4.184,8.374l-6.231-6.174-9.476,1.083s-2.94-9.669-2.273-12.159S104.837,68.85,104.837,68.85Z" transform="translate(-6.648 -27.024)" fill="#fff" opacity="0.4"/>
          <g id="Group_1074920" data-name="Group 1074920" transform="translate(29.809 39.868)">
            <path id="Path_825052" data-name="Path 825052" d="M91.635,67.1c-6.694-.313-20.219,15.441-23.657,18.232S55.143,87.711,49.6,82.72c0,0-4.241-.849-6.072,2.032,0,0,9.024,12.728,21.745,11.344s21.01-13.364,21.01-13.364A27.684,27.684,0,0,0,91.635,74.6c1.809-4.566,0-7.481,0-7.481Z" transform="translate(-43.53 -67.096)" fill="#407bff"/>
            <path id="Path_825053" data-name="Path 825053" d="M91.635,67.1c-6.694-.313-20.219,15.441-23.657,18.232S55.143,87.711,49.6,82.72c0,0-4.241-.849-6.072,2.032,0,0,9.024,12.728,21.745,11.344s21.01-13.364,21.01-13.364A27.684,27.684,0,0,0,91.635,74.6c1.809-4.566,0-7.481,0-7.481Z" transform="translate(-43.53 -67.096)" fill="#fff" opacity="0.6"/>
          </g>
          <g id="Group_1074921" data-name="Group 1074921" transform="translate(0)">
            <path id="Path_825054" data-name="Path 825054" d="M189.995,208.736l.95,2.2-2.205-1-8.21-8.385,1.255-1.206Z" transform="translate(4.2 -11.706)" fill="#263238"/>
            <path id="Path_825055" data-name="Path 825055" d="M1.541,0,7.014.035A1.578,1.578,0,0,1,8.575,1.6l.151,23.738L.151,25.278,0,1.54A1.53,1.53,0,0,1,1.541,0Z" transform="translate(0 6.065) rotate(-44.03)" fill="#263238"/>
            <path id="Path_825056" data-name="Path 825056" d="M1.541,0,7.014.035A1.578,1.578,0,0,1,8.575,1.6l.151,23.738L.151,25.278,0,1.54A1.53,1.53,0,0,1,1.541,0Z" transform="translate(0 6.065) rotate(-44.03)" fill="#fff" opacity="0.1"/>
            <path id="Path_825057" data-name="Path 825057" d="M36.84,43.169l-8.447,8.072A3.957,3.957,0,0,0,28.2,56.79q74.8,82.029,155.509,158.6h0s11.749,9.4,23.159,11.8l2.092-2c-2.047-11.332-11.172-23.245-11.172-23.245h0q-74.7-82.129-155.305-158.8a4.105,4.105,0,0,0-5.631,0Z" transform="translate(-15.862 -30.148)" fill="#407bff"/>
            <path id="Path_825058" data-name="Path 825058" d="M40.771,36.089l-14.248,13.6a1.186,1.186,0,0,0-.034,1.686l1.38,1.418L42.354,38.959C64.235,59.29,80.722,77.891,80.722,77.891l-.565,1.518L85.314,82.5c-4.308-9.58-36.65-40.7-42.643-46.413a1.4,1.4,0,0,0-1.911,0Z" transform="translate(-15.994 -30.884)" fill="#263238"/>
            <path id="Path_825059" data-name="Path 825059" d="M0,0,23.827.152l.029,4.572L.029,4.572Z" transform="translate(83.047 101.801) rotate(-44.03)" fill="#407bff"/>
            <path id="Path_825060" data-name="Path 825060" d="M116.5,152.1q23.408,23.329,47.211,46.111a1.874,1.874,0,0,0,2.59,0l13.513-12.9a1.829,1.829,0,0,0,.09-2.557q-22.22-24.25-45.1-48.143a1.87,1.87,0,0,0-2.646-.056l-15.628,14.928A1.824,1.824,0,0,0,116.5,152.1Z" transform="translate(-4.245 -19.429)" fill="#263238"/>
            <path id="Path_825061" data-name="Path 825061" d="M0,0,23.827.152l.029,4.572L.029,4.572Z" transform="translate(83.047 101.801) rotate(-44.03)" opacity="0.2"/>
            <path id="Path_825062" data-name="Path 825062" d="M40.771,36.089l-14.248,13.6a1.186,1.186,0,0,0-.034,1.686l1.38,1.418L42.354,38.959C64.235,59.29,80.722,77.891,80.722,77.891l-.565,1.518L85.314,82.5c-4.308-9.58-36.65-40.7-42.643-46.413a1.4,1.4,0,0,0-1.911,0Z" transform="translate(-15.994 -30.884)" fill="#fff" opacity="0.6"/>
            <path id="Path_825063" data-name="Path 825063" d="M116.5,152.1q23.408,23.329,47.211,46.111a1.874,1.874,0,0,0,2.59,0l13.513-12.9a1.829,1.829,0,0,0,.09-2.557q-22.22-24.25-45.1-48.143a1.87,1.87,0,0,0-2.646-.056l-15.628,14.928A1.824,1.824,0,0,0,116.5,152.1Z" transform="translate(-4.245 -19.429)" fill="#fff" opacity="0.1"/>
          </g>
          <path id="Path_825064" data-name="Path 825064" d="M138.1,131.94l-1.323,1.742a5.243,5.243,0,0,0-4.082.715s.113,4.432.305,5.024c.407,1.3,6.31,5.158,7.825,5.359.475.067,1.391-3.037,1.244-4.1a18.412,18.412,0,0,0-2.013-4.031l1.108-1.552-3.042-3.16Z" transform="translate(-2.058 -19.674)" fill="#e4897b"/>
          <path id="Path_825065" data-name="Path 825065" d="M49.682,84.677l.181-1.4s.95.234,1.368-1.4,1.233-5.649.656-6.632a49.9,49.9,0,0,0-5.066-5.594c-.848-.726-2.793,2.68-3.234,4.254s1.775,7.67,1.775,7.67l-.09,2.646A5.042,5.042,0,0,0,49.682,84.677Z" transform="translate(-13.721 -26.941)" fill="#e4897b"/>
          <g id="Group_1074922" data-name="Group 1074922" transform="translate(117.198 61.487)">
            <path id="Path_825066" data-name="Path 825066" d="M127.369,86.46c3.245,3.662,13.445,18.523,16.238,25.769,3.924,10.16,0,30.6,0,30.6l-6.819-4.511s1.278-15.553-.475-21.079-15.5-15.9-15.5-15.9a26.479,26.479,0,0,1,2.058-7.235,30.571,30.571,0,0,1,4.5-7.637Z" transform="translate(-120.81 -86.46)" fill="#407bff"/>
            <path id="Path_825067" data-name="Path 825067" d="M143.618,142.821l-6.83-4.511s1.278-15.553-.475-21.079c-1-3.126-5.846-7.815-9.861-11.288-3.065-2.657-5.643-4.611-5.643-4.611a26.068,26.068,0,0,1,1.843-6.732c.068-.167.147-.335.215-.5a30.571,30.571,0,0,1,4.5-7.637c3.245,3.662,13.445,18.523,16.25,25.769,3.913,10.16,0,30.592,0,30.592Z" transform="translate(-120.81 -86.46)" fill="#fff" opacity="0.6"/>
            <path id="Path_825068" data-name="Path 825068" d="M126.453,105.094c-3.065-2.657-5.643-4.611-5.643-4.611a26.067,26.067,0,0,1,1.843-6.732A21.849,21.849,0,0,1,126.453,105.094Z" transform="translate(-120.81 -85.611)" opacity="0.2"/>
          </g>
        </g>
      </g>
    </g>
  </g>
</svg>
