<svg xmlns="http://www.w3.org/2000/svg" xmlns:xlink="http://www.w3.org/1999/xlink" width="142" height="142" viewBox="0 0 142 142">
  <defs>
    <clipPath id="clip-path">
      <rect id="Rectangle_378608" data-name="Rectangle 378608" width="98.229" height="99.901" fill="none"/>
    </clipPath>
  </defs>
  <g id="Group_1074926" data-name="Group 1074926" transform="translate(-318 -13864)">
    <circle id="Ellipse_5852" data-name="Ellipse 5852" cx="71" cy="71" r="71" transform="translate(318 13864)" fill="#fff"/>
    <g id="Group_1074930" data-name="Group 1074930" transform="translate(343 13886.049)">
      <g id="Group_1074929" data-name="Group 1074929" clip-path="url(#clip-path)">
        <path id="Path_825069" data-name="Path 825069" d="M58.007,48.5c0,3.137,0,6.275-.022,9.413a.543.543,0,0,0,.355.585,4.879,4.879,0,0,1,2.9,4.519c.017.943.022,1.886,0,2.829a5.089,5.089,0,0,1-2.386,4.385c-.146.1-.335.122-.488.207-.256.142-.5.292-.441.663a12.49,12.49,0,0,1,.085,1.925c0,1.268-.01,2.536,0,3.8,0,.367-.087.5-.5.5q-8.653-.03-17.307-.024c-.438,0-.877.012-1.316.008-.234,0-.359.076-.376.331-.055.8-.153,1.6-.186,2.4-.049,1.2-.169,2.4-.292,3.6-.052.51-.019,1.021-.083,1.538-.133,1.066-.145,2.146-.209,3.22-.091,1.506-.22,3.01-.317,4.516q-.132,2.04-.277,4.08c-.061.864-.183,1.724-.192,2.591,0,.281-.143.312-.366.309-.553-.008-1.105,0-1.658,0H23.577c-.87,0-.866,0-.947-.837-.1-1.1-.216-2.192-.326-3.313-.244.091-.272.333-.329.5-.4,1.161-1.051,2.21-1.464,3.362-.112.312-.343.289-.59.289q-3.413,0-6.826,0H4.9c-.584,0-.566,0-.418-.534.559-2.029,1.1-4.063,1.659-6.093q.842-3.069,1.7-6.135c.563-2.011,1.182-4.008,1.692-6.033.409-1.622.947-3.206,1.353-4.827a.392.392,0,0,0-.183-.506A9.891,9.891,0,0,1,7.8,72.7a13.291,13.291,0,0,1-1.351-3.855c-.322-1.513-.673-3.02-1.015-4.529Q4.719,61.178,4,58.038c-.187-.816-.4-1.625-.581-2.444a9.7,9.7,0,0,1-.165-2.359,10.524,10.524,0,0,1,1.517-5.053.545.545,0,0,0-.112-.729,5.663,5.663,0,0,1-1.4-3.937,1.355,1.355,0,0,0-.645-1.4A5.9,5.9,0,0,1,.291,38.913,6.175,6.175,0,0,1,1.9,32.631a10.924,10.924,0,0,1,1.186-1.056A4.517,4.517,0,0,0,4.773,28.3c.227-3.1.079-6.2.088-9.3a18.63,18.63,0,0,1,.829-5.467A17.8,17.8,0,0,1,7.8,9.036a17.468,17.468,0,0,1,1.4-2.008,20.256,20.256,0,0,1,6.664-5.171A20.8,20.8,0,0,1,21.12.279a15.4,15.4,0,0,1,3.3-.269A19.588,19.588,0,0,1,35.344,3.58,21,21,0,0,1,40.75,9.485a17.8,17.8,0,0,1,2.372,6.378,38.477,38.477,0,0,1,.367,7.047c.012,1.658-.035,3.318.017,4.975a4.652,4.652,0,0,0,1.838,3.694,7.029,7.029,0,0,1,2.9,4.52A5.889,5.889,0,0,1,46.87,41.1a5.219,5.219,0,0,1-1.509,1.32.529.529,0,0,0-.3.59,6.188,6.188,0,0,1-.49,3.051,5.148,5.148,0,0,1-.712,1.144.5.5,0,0,0-.053.7c.167.177.145.514.581.5,4.256-.111,8.513-.05,12.769-.054a1.24,1.24,0,0,1,.191.029c.188.23.445.065.664.116M45.193,54.73l.085.048c.036.058.084.052.135.025l2.3-.011.023.016.024-.016.269.01c.11.024.224.079.315-.043q.013-1.453.026-2.906c0-.163-.047-.287-.233-.305a5.572,5.572,0,0,0-1.384.024h-.265l-.019-.028-.02.027L45.4,51.56a.063.063,0,0,0-.108,0c-.158.044-.182.175-.18.307.012.937.029,1.874.045,2.811l.006.037Zm-7.83-33.775c-.108-.072-.211-.107-.288.041,0,.958,0,1.916-.02,2.874,0,.254.066.342.326.33.454-.021.909.006,1.364-.012a1.586,1.586,0,0,0,.346-3.122,7.3,7.3,0,0,0-1.728-.11m4.577,36.991a.526.526,0,0,1-.039-.139c0-1.934-.015-3.869.009-5.8.005-.39-.115-.458-.468-.448-.779.022-1.561.021-2.339-.02-.379-.02-.453.086-.453.454q.008,7-.029,14c0,.317.138.413.374.526A4.549,4.549,0,0,1,41.56,69.3a8.865,8.865,0,0,1,.129,4.468c-.05.253-.076.379.255.378q6.24-.012,12.481,0c.3,0,.393-.117.388-.406q-.02-1.268,0-2.536c0-.256-.092-.365-.33-.36a2.344,2.344,0,0,1-1.309-.443,3.033,3.033,0,0,1-1.6-2.657c0-2.227-.016-4.454.01-6.681a3.1,3.1,0,0,1,2.834-3c.3-.03.4-.1.394-.412q-.029-2.877-.014-5.755c0-.294-.115-.35-.377-.346-.8.011-1.594.027-2.387-.017-.418-.023-.51.1-.508.5.008,1.859-.025,3.718-.025,5.577,0,.275-.071.357-.346.351-.386-.009-.773.054-1.16.055q-3.974,0-7.947-.007c-.01-.065-.056-.069-.107-.063m-2.147-9.571c.108.024.251.079.305-.032s-.074-.192-.168-.254A12.712,12.712,0,0,0,34.049,44.6c-.368-.105-.571.058-.695.442-.834,2.587-1.689,5.168-2.542,7.749-.364,1.1-.751,2.2-1.108,3.3-.125.386-.222.39-.46.07q-2.338-3.148-4.7-6.279c-.366-.488-.366-.481-.732.008q-2.205,2.945-4.42,5.883c-.167.22-.27.647-.571.571-.178-.045-.289-.463-.378-.731q-.943-2.815-1.862-5.637c-.427-1.309-.836-2.624-1.269-3.931-.337-1.02-.352-1.027-1.339-.673a15.926,15.926,0,0,0-4.059,1.7,7.889,7.889,0,0,0-3.333,7.98c.318,1.895.819,3.769,1.282,5.643.651,2.638,1.208,5.3,1.8,7.951a6.767,6.767,0,0,0,2.783,4.436,7.342,7.342,0,0,0,4.307,1.053c3.916-.028,7.833-.007,11.75.022.476,0,.579-.158.561-.582-.063-1.458.062-2.919-.089-4.378a1.459,1.459,0,0,0-.993-1.4,3.69,3.69,0,0,0-1.3-.125c-2.519,0-5.038.018-7.557-.008a1.543,1.543,0,0,0-1.243.509c-.636.673-1.306,1.315-1.956,1.974-.173.175-.308.24-.516.02-.578-.615-1.174-1.214-1.773-1.809-.172-.171-.211-.28-.008-.471.592-.556,1.117-1.191,1.749-1.693a1.241,1.241,0,0,0,.39-1.532c-.65-2.221-1.15-4.48-1.712-6.724A8.072,8.072,0,0,0,12.8,54.841a7.257,7.257,0,0,0-1.909-1.718c-.157-.1-.379-.2-.189-.442a10.117,10.117,0,0,0,.879-1.616c.487-.947.479-.959,1.376-.372A9.033,9.033,0,0,1,16.8,55.846c.379,1.292.691,2.6.984,3.919.32,1.436.761,2.844,1.1,4.275.088.372.23.448.579.446,2.584-.016,5.168-.012,7.751-.014a4.761,4.761,0,0,1,3.3,1.161c.238.211.371.166.6-.026a4.452,4.452,0,0,1,3.891-1.035c.388.076.487-.015.486-.421-.01-5.1.005-10.21,0-15.315,0-.412.121-.53.516-.517,1.1.034,2.209.038,3.313.054l.034.016.035-.015h.409M13.462,96.685c1.463,0,2.925-.018,4.387.013a.627.627,0,0,0,.688-.446c1.483-3.369,2.948-6.746,4.483-10.091a9.285,9.285,0,0,0,1.167-5.182c-.039-.29.082-.4.384-.4.812.015,1.625.016,2.437-.006.336-.009.415.121.406.429-.019.682-.035,1.367,0,2.048A4.09,4.09,0,0,1,27,85.027c-.565,1.2-1.037,2.455-1.649,3.633a4.292,4.292,0,0,0-.386,2.715c.215,1.474.4,2.951.488,4.44.051.848.084.864.947.864,2.356,0,4.712-.014,7.068.015.453.005.582-.152.56-.549a20.176,20.176,0,0,1,.131-2.709c.082-1.055.128-2.116.256-3.169.108-.892.116-1.8.189-2.694.132-1.62.193-3.247.314-4.868.038-.514.052-1.033.11-1.541.128-1.12.155-2.247.28-3.367.041-.368-.1-.456-.464-.455q-8.555.026-17.111.022a13.561,13.561,0,0,1-3.4-.193.363.363,0,0,0-.489.324c-.445,2.031-1.09,4.008-1.63,6.014-.756,2.808-1.543,5.608-2.322,8.411-.394,1.418-.783,2.838-1.207,4.248-.152.5-.176.519.331.519q2.218,0,4.436,0M40.179,17.53a1.657,1.657,0,0,0-.016-.218,16.7,16.7,0,0,0-1.768-5.485,15.727,15.727,0,0,0-9.518-7.87,15.905,15.905,0,0,0-7.1-.547A16.878,16.878,0,0,0,17.188,4.8a16.392,16.392,0,0,0-4.241,2.99A16.712,16.712,0,0,0,9.1,13.715a14.62,14.62,0,0,0-.913,3.772c-.039.319-.04.543.418.4a5,5,0,0,1,1.448-.141c1.3-.013,2.6.043,3.9-.072a14.729,14.729,0,0,0,7.033-2.484,17.119,17.119,0,0,0,2.884-2.609c.231-.247.376-.341.644-.047.35.383.756.712,1.119,1.084a13.281,13.281,0,0,0,6.457,3.711,23.112,23.112,0,0,0,5.618.427,6.908,6.908,0,0,1,2.175.168c.33.106.3-.12.293-.393M33.846,24.7h.008c0-1.137,0-2.275,0-3.412,0-.249-.007-.37-.338-.427a21.126,21.126,0,0,1-3-.622A17.1,17.1,0,0,1,24.5,16.922c-.267-.233-.4-.188-.633.013a16.269,16.269,0,0,1-4.733,2.836,18.586,18.586,0,0,1-4.248,1.077c-.335.048-.363.178-.361.458.011,2.031.006,4.062,0,6.093a8.082,8.082,0,0,0,.822,3.983,10.062,10.062,0,0,0,1.607,2.306A7.125,7.125,0,0,0,19,35.116a3.334,3.334,0,0,1,1.961,3.23c0,.829,0,1.658,0,2.486a.748.748,0,0,0,.18.584Q22.574,42.844,24,44.28c.155.157.251.134.393-.012.92-.94,1.847-1.872,2.771-2.807a.964.964,0,0,0,.28-.734c-.009-.99-.038-1.981.013-2.972a2.936,2.936,0,0,1,1.557-2.5A9.8,9.8,0,0,0,32.037,32.9a8.228,8.228,0,0,0,1.8-4.885c.041-1.1.007-2.209.007-3.314M11.314,28.228a1.821,1.821,0,0,1,0-.292c.078-.462-.117-.574-.561-.534a5.557,5.557,0,0,1-2.163-.195c-.48-.15-.526.016-.531.437a8.2,8.2,0,0,1-3.4,6.706,3.248,3.248,0,0,0-.014,5.372,4.664,4.664,0,0,0,1.833.677c.952.246.951.243.553,1.124a4.1,4.1,0,0,0-.417,2.969c.085.28.147.619.424.73s.379-.242.563-.382a14.735,14.735,0,0,1,4.465-2.285Q14.7,41.7,17.344,40.89a.518.518,0,0,0,.423-.6c-.022-.568-.025-1.139,0-1.706a.687.687,0,0,0-.429-.732,9.371,9.371,0,0,1-1.061-.653,10.654,10.654,0,0,1-3.2-3.252,9.826,9.826,0,0,1-1.3-2.94,16.323,16.323,0,0,1-.462-2.779m26.654-.819c-.114,0-.358.009-.6,0-.193-.009-.326.032-.305.258a9.919,9.919,0,0,1-.09,1.006,9.489,9.489,0,0,1-.932,3.88,10.967,10.967,0,0,1-5.061,5.3.586.586,0,0,0-.363.65,6.274,6.274,0,0,1,.032,1.482c-.074.448.026.652.456.708.725.094,1.461.207,2.157.369a19.256,19.256,0,0,1,3.084.907,16.214,16.214,0,0,1,3.628,1.978c.4.3.791.613,1.185.923.153.12.3.234.411-.04a2.87,2.87,0,0,0,.253-1.592A7.665,7.665,0,0,0,41.1,40.95c-.13-.238-.075-.325.19-.383.423-.093.835-.234,1.252-.355a3.3,3.3,0,0,0,2.431-2.5c.383-1.526-.392-2.613-1.483-3.52a8.13,8.13,0,0,1-3.207-6.675c0-.308-.025-.45-.406-.316a5.08,5.08,0,0,1-1.907.2M34.824,74.142c.374,0,.747,0,1.121,0,.39,0,.78,0,1.169-.006a1.444,1.444,0,0,0,1.5-1.525c0-.6,0-1.2,0-1.8a1.254,1.254,0,0,0-1.145-1.417,2.969,2.969,0,0,1-2.122-1.168,1.587,1.587,0,0,0-.295-.253,1.527,1.527,0,0,0-1.883.1A2.8,2.8,0,0,0,32.26,69.9c-.05,1.3.019,2.6-.079,3.891-.022.283.08.36.353.355.763-.016,1.527-.005,2.29-.006m19.96-9.675h0c0,.94.011,1.881-.006,2.821-.005.286.061.428.37.416.389-.016.78.015,1.167-.016.827-.067,1.529-.368,1.642-1.4A24.382,24.382,0,0,0,58,62.848a1.462,1.462,0,0,0-1.255-1.532,11.342,11.342,0,0,0-1.79-.042c-.227-.005-.17.181-.17.322q0,1.435,0,2.87m-26.322-14.7c.095-.256.167-.435.227-.617.337-1.027.671-2.055,1.009-3.082.2-.6.409-1.2.591-1.8.054-.178.193-.461-.113-.527a.909.909,0,0,0-.915.16q-1.39,1.4-2.789,2.791c-.109.109-.2.206-.069.372.671.873,1.335,1.751,2.059,2.7M19.947,49.7l2.023-2.611c.139-.18.015-.3-.1-.415q-.6-.606-1.2-1.21c-.5-.506-1.007-1.009-1.508-1.517-.341-.346-.675-.1-.978.039s-.081.4-.019.592c.391,1.183.8,2.363,1.177,3.55a5.793,5.793,0,0,0,.6,1.573M11.311,22.679a9.823,9.823,0,0,1,.009-1.169c.068-.524-.191-.6-.617-.558-.355.031-.714,0-1.071.018A1.711,1.711,0,0,0,8,22.616a1.741,1.741,0,0,0,1.7,1.573c.517,0,1.214.188,1.5-.073.331-.3.058-1.007.1-1.437" transform="translate(0 0)"/>
        <path id="Path_825070" data-name="Path 825070" d="M181.179,16.428a15.737,15.737,0,0,1,2.317.136,21.574,21.574,0,0,1,2.115.533,10.346,10.346,0,0,1,2.695,1.2,13.567,13.567,0,0,1,4.8,5.257,14.6,14.6,0,0,1,1.363,4.994,12.243,12.243,0,0,1-.4,3.907,11.525,11.525,0,0,1-2.284,4.777,15.555,15.555,0,0,1-2.421,2.368,12.264,12.264,0,0,1-3.128,1.736,14.5,14.5,0,0,1-6.16.844,8.393,8.393,0,0,1-1.926-.442,13.019,13.019,0,0,1-8.3-7.158,11.362,11.362,0,0,1-1.1-5.456,8.917,8.917,0,0,1,.121-2.27,16.582,16.582,0,0,1,.621-2,12.881,12.881,0,0,1,1.384-2.671,17.31,17.31,0,0,1,2.805-2.973,13.214,13.214,0,0,1,5.453-2.563,13.456,13.456,0,0,1,1.762-.2c.1.114.2.092.291-.018M191.25,29.9l-.011-1.07c.009-.009.026-.022.024-.029a.448.448,0,0,0-.029-.068,9.666,9.666,0,0,0-.737-3.191,9.238,9.238,0,0,0-6.949-5.613A9.558,9.558,0,0,0,172.36,32.1a9.638,9.638,0,0,0,12.224,6.423A9.536,9.536,0,0,0,191.244,30c.012-.009.034-.021.033-.028a.41.41,0,0,0-.027-.074" transform="translate(-102.675 -9.997)"/>
        <path id="Path_825071" data-name="Path 825071" d="M197.858,128.673a12.865,12.865,0,1,1,.731-25.716c6.981.391,12.393,5.621,12.293,12.982-.1,7.6-5.887,12.646-13.025,12.733m.916-22.433c-.021-.049-.047-.09-.11-.06l-1.454,0c-.064-.034-.09.008-.112.056a3.4,3.4,0,0,0-1.149.122,9.755,9.755,0,0,0-7.606,9.282,9.161,9.161,0,0,0,.747,3.816,9.66,9.66,0,0,0,18.556-2.66,9.331,9.331,0,0,0-2.184-7.17,9.12,9.12,0,0,0-6.686-3.391" transform="translate(-112.655 -62.639)"/>
        <path id="Path_825072" data-name="Path 825072" d="M181.492,215.146a12.875,12.875,0,1,1,.361-25.747,12.852,12.852,0,0,1,12.621,13.038,12.844,12.844,0,0,1-12.982,12.709m-9.521-12.963a9.638,9.638,0,1,0,19.259-.454,9.636,9.636,0,0,0-19.259.454" transform="translate(-102.674 -115.248)"/>
        <path id="Path_825073" data-name="Path 825073" d="M167.864,82.35c.893,0,1.786.005,2.679-.007.319,0,.413.122.413.435q-.006,6,.016,11.991c0,.355-.083.461-.467.455q-2.8-.045-5.6-.009c-.384,0-.494-.209-.437-.465a12.9,12.9,0,0,0,.062-2.361c.006-.15-.077-.346.186-.365.054.047.1.047.127-.025l2.72,0c.036.089.1.061.133.013s.017-.111-.046-.144a1.481,1.481,0,0,0,.114-.748q-.005-3.773-.015-7.546a.472.472,0,0,0-.014-.585c.154-.188-.158-.394.023-.581.06.028.094.006.108-.056" transform="translate(-100.071 -50.107)"/>
        <path id="Path_825074" data-name="Path 825074" d="M164.649,157.652a3.1,3.1,0,0,0,0-.878l.105-.287c1.966,0,3.932,0,5.9-.019.33,0,.445.073.443.427q-.022,5.949-.007,11.9c0,.434-.133.593-.584.574-.811-.036-1.625-.013-2.437-.014l-.169-.109q0-3.189-.009-6.378c0-.177-.016-.355-.025-.532a.247.247,0,0,0,0-.39q0-.242.006-.484v-.106c0-.454,0-.909.013-1.362.01-.316-.149-.366-.424-.361-.811.013-1.623-.009-2.434,0-.279,0-.364-.1-.354-.373.016-.4-.01-.81-.018-1.216a.245.245,0,0,0,0-.39" transform="translate(-100.191 -95.214)"/>
        <path id="Path_825075" data-name="Path 825075" d="M160.472,131.627c1.217,0,2.434.007,3.651-.005.255,0,.343.068.339.328-.013.844,0,1.688-.007,2.532,0,.238-.022.42-.372.418-2.4-.019-4.8-.06-7.2.032-.391.015-.483-.1-.469-.478.03-.827.019-1.656,0-2.484-.005-.275.07-.351.355-.346,1.233.02,2.466.009,3.7.009v-.006" transform="translate(-95.18 -80.094)"/>
        <path id="Path_825076" data-name="Path 825076" d="M147.14,123.565c-.219-.052-.476.114-.664-.116.247-.108.486-.171.664.116" transform="translate(-89.134 -75.066)" fill="#646c77"/>
        <path id="Path_825077" data-name="Path 825077" d="M172.667,83.988a.472.472,0,0,1,.014.585.431.431,0,0,1-.014-.585" transform="translate(-105.006 -51.108)" fill="#646c77"/>
        <path id="Path_825078" data-name="Path 825078" d="M172.683,170.458a.247.247,0,0,1,0,.39.227.227,0,0,1,0-.39" transform="translate(-105.014 -103.727)" fill="#646c77"/>
        <path id="Path_825079" data-name="Path 825079" d="M164.472,159.493a.245.245,0,0,1,0,.39.222.222,0,0,1,0-.39" transform="translate(-100.014 -97.055)" fill="#646c77"/>
        <path id="Path_825080" data-name="Path 825080" d="M200.076,16.246c-.091.109-.187.132-.291.018.087-.183.185-.171.291-.018" transform="translate(-121.573 -9.814)" fill="#646c77"/>
        <path id="Path_825081" data-name="Path 825081" d="M164.592,156.517l-.106.287c-.221-.19-.04-.232.106-.287" transform="translate(-100.03 -95.244)" fill="#646c77"/>
        <path id="Path_825082" data-name="Path 825082" d="M172.478,106.667c.063.033.092.087.046.144s-.1.076-.133-.014a.112.112,0,0,1,.087-.131" transform="translate(-104.902 -64.909)" fill="#646c77"/>
        <path id="Path_825083" data-name="Path 825083" d="M172.948,189.106l.169.109c-.093.02-.17.016-.169-.109" transform="translate(-105.242 -115.075)" fill="#646c77"/>
        <path id="Path_825084" data-name="Path 825084" d="M165.248,107.01c-.03.072-.074.072-.127.025l.127-.025" transform="translate(-100.479 -65.118)" fill="#646c77"/>
        <path id="Path_825085" data-name="Path 825085" d="M172.749,168.951v.106l-.077-.071.077-.035" transform="translate(-105.074 -102.81)" fill="#646c77"/>
        <path id="Path_825086" data-name="Path 825086" d="M173,82.321c-.014.062-.048.084-.108.056.007-.075.035-.11.108-.056" transform="translate(-105.209 -50.078)" fill="#646c77"/>
        <path id="Path_825087" data-name="Path 825087" d="M49.355,117.644c-1.1-.016-2.209-.02-3.313-.054-.4-.013-.517.105-.516.517.01,5.1-.005,10.21,0,15.315,0,.406-.1.5-.486.422a4.451,4.451,0,0,0-3.891,1.035c-.226.192-.359.237-.6.026a4.763,4.763,0,0,0-3.3-1.161c-2.584,0-5.168,0-7.751.014-.348,0-.49-.074-.579-.446-.342-1.431-.782-2.84-1.1-4.275-.293-1.316-.606-2.627-.984-3.919a9.036,9.036,0,0,0-3.851-5.153c-.9-.587-.889-.575-1.376.372a10.116,10.116,0,0,1-.879,1.616c-.189.245.032.343.189.442a7.248,7.248,0,0,1,1.909,1.717,8.072,8.072,0,0,1,1.256,3.094c.562,2.244,1.062,4.5,1.712,6.724a1.241,1.241,0,0,1-.39,1.533c-.632.5-1.157,1.136-1.749,1.693-.2.191-.164.3.008.471.6.6,1.2,1.194,1.773,1.809.208.221.343.156.516-.02.651-.659,1.32-1.3,1.956-1.973a1.541,1.541,0,0,1,1.243-.509c2.519.025,5.038.007,7.557.007a3.7,3.7,0,0,1,1.3.125,1.459,1.459,0,0,1,.993,1.4c.151,1.459.026,2.919.089,4.377.018.424-.085.585-.561.582-3.917-.029-7.834-.05-11.75-.022a7.342,7.342,0,0,1-4.307-1.053,6.767,6.767,0,0,1-2.783-4.436c-.591-2.652-1.148-5.313-1.8-7.951-.463-1.874-.964-3.748-1.282-5.643a7.889,7.889,0,0,1,3.333-7.98,15.926,15.926,0,0,1,4.059-1.7c.987-.354,1-.347,1.339.673.433,1.307.841,2.622,1.269,3.931q.923,2.822,1.862,5.637c.089.267.2.686.378.73.3.076.4-.35.572-.57q2.223-2.932,4.42-5.884c.366-.489.366-.5.732-.008q2.354,3.136,4.7,6.279c.238.32.335.316.46-.07.357-1.1.744-2.2,1.108-3.3.853-2.581,1.708-5.162,2.542-7.749.124-.384.327-.547.695-.442a12.709,12.709,0,0,1,5.882,3.492l-.137.287h-.408c-.022-.04-.045-.043-.069,0" transform="translate(-10.039 -69.271)" fill="#b3dc7e"/>
        <path id="Path_825088" data-name="Path 825088" d="M26.829,216.608q-2.218,0-4.436,0c-.506,0-.482-.016-.331-.519.424-1.409.813-2.829,1.207-4.248.778-2.8,1.566-5.6,2.322-8.411.54-2.005,1.185-3.982,1.63-6.013a.363.363,0,0,1,.489-.325,13.558,13.558,0,0,0,3.395.193q8.556,0,17.112-.023c.359,0,.5.087.463.456-.125,1.119-.152,2.246-.28,3.367-.058.508-.072,1.026-.11,1.541-.12,1.622-.181,3.248-.314,4.868-.073.9-.081,1.8-.189,2.694-.128,1.054-.173,2.115-.256,3.169a20.305,20.305,0,0,0-.132,2.709c.023.4-.106.555-.56.549-2.356-.029-4.712-.016-7.068-.015-.862,0-.895-.015-.947-.864-.089-1.488-.274-2.965-.488-4.44a4.3,4.3,0,0,1,.386-2.715c.613-1.178,1.084-2.429,1.649-3.633a4.1,4.1,0,0,0,.407-1.976c-.032-.681-.016-1.365,0-2.048.009-.307-.07-.438-.406-.429-.812.023-1.625.021-2.437.006-.3-.005-.423.107-.384.4a9.286,9.286,0,0,1-1.167,5.182c-1.535,3.345-3,6.723-4.483,10.091a.626.626,0,0,1-.688.446c-1.461-.03-2.924-.012-4.387-.013" transform="translate(-13.367 -119.924)" fill="#d29f6b"/>
        <path id="Path_825089" data-name="Path 825089" d="M52.886,22.541c0,.274.036.5-.293.393a6.9,6.9,0,0,0-2.175-.168A23.131,23.131,0,0,1,44.8,22.34a13.278,13.278,0,0,1-6.457-3.711c-.363-.371-.77-.7-1.119-1.084-.268-.294-.414-.2-.644.047A17.132,17.132,0,0,1,33.7,20.2a14.731,14.731,0,0,1-7.033,2.484c-1.3.115-2.6.06-3.9.072a5,5,0,0,0-1.449.141c-.458.143-.457-.08-.418-.4a14.619,14.619,0,0,1,.913-3.772A16.713,16.713,0,0,1,25.655,12.8,16.386,16.386,0,0,1,29.9,9.814a16.885,16.885,0,0,1,4.587-1.392,15.908,15.908,0,0,1,7.1.547,15.727,15.727,0,0,1,9.518,7.87,16.7,16.7,0,0,1,1.767,5.485,1.686,1.686,0,0,1,.017.218" transform="translate(-12.708 -5.012)" fill="#646c77"/>
        <path id="Path_825090" data-name="Path 825090" d="M56.423,50.763c0,1.1.034,2.211-.008,3.314a8.23,8.23,0,0,1-1.8,4.886,9.8,9.8,0,0,1-3.024,2.353,2.935,2.935,0,0,0-1.557,2.5c-.051.991-.023,1.981-.013,2.972a.966.966,0,0,1-.28.734c-.924.935-1.851,1.867-2.77,2.807-.143.146-.238.17-.394.012q-1.42-1.439-2.856-2.863a.748.748,0,0,1-.18-.585c0-.829.007-1.658,0-2.486a3.335,3.335,0,0,0-1.961-3.23,7.121,7.121,0,0,1-2.046-1.427,10.07,10.07,0,0,1-1.607-2.306,8.085,8.085,0,0,1-.822-3.983c0-2.031.007-4.062,0-6.093,0-.28.026-.41.361-.458a18.588,18.588,0,0,0,4.248-1.077,16.249,16.249,0,0,0,4.733-2.835c.231-.2.366-.246.633-.013a17.1,17.1,0,0,0,6.017,3.32,21.1,21.1,0,0,0,3,.622c.33.057.339.178.338.427-.007,1.137,0,2.274,0,3.411h-.008m-9.372,9.13.112,0a6.8,6.8,0,0,0,5.656-3.71c.161-.287.128-.441-.169-.556a11.66,11.66,0,0,1-2.085-1.071c-.3-.195-.489-.111-.649.205a3.453,3.453,0,0,1-3.194,1.91,3.322,3.322,0,0,1-3.12-1.816c-.114-.205-.159-.488-.505-.329-.775.356-1.508.8-2.3,1.117-.162.064-.328.178-.17.47a7.345,7.345,0,0,0,1.73,2.157,6.457,6.457,0,0,0,4.7,1.626" transform="translate(-22.578 -26.059)" fill="#fee9a6"/>
        <path id="Path_825091" data-name="Path 825091" d="M102.082,138.106q3.973.005,7.947.007c.387,0,.774-.063,1.16-.055.276.006.346-.076.346-.351,0-1.859.033-3.718.025-5.577,0-.4.09-.525.509-.5.794.044,1.591.028,2.387.017.262,0,.379.052.378.346q-.011,2.877.014,5.754c0,.314-.091.382-.394.412a3.1,3.1,0,0,0-2.834,3c-.026,2.227-.008,4.454-.009,6.681a3.032,3.032,0,0,0,1.6,2.657,2.344,2.344,0,0,0,1.308.443c.238-.005.335.1.331.36-.016.845-.014,1.691,0,2.536,0,.289-.085.407-.388.406q-6.241-.01-12.481,0c-.331,0-.3-.125-.255-.379a8.865,8.865,0,0,0-.129-4.468,4.548,4.548,0,0,0-2.564-2.787c-.236-.113-.376-.209-.374-.526q.037-7,.029-14c0-.368.074-.474.453-.454.778.04,1.56.042,2.339.02.353-.01.473.058.468.448-.024,1.934-.012,3.869-.01,5.8a.542.542,0,0,0,.039.139c0,.075.038.1.108.063" transform="translate(-60.035 -80.097)" fill="#f8f9fb"/>
        <path id="Path_825092" data-name="Path 825092" d="M16.336,70.432a16.286,16.286,0,0,0,.462,2.779,9.8,9.8,0,0,0,1.3,2.94A10.653,10.653,0,0,0,21.3,79.4a9.377,9.377,0,0,0,1.061.653.688.688,0,0,1,.429.733c-.028.568-.025,1.138,0,1.706a.518.518,0,0,1-.422.6q-2.643.818-5.277,1.665a14.742,14.742,0,0,0-4.466,2.285c-.184.141-.291.491-.563.382s-.339-.45-.424-.73a4.107,4.107,0,0,1,.417-2.969c.4-.882.4-.878-.553-1.124a4.661,4.661,0,0,1-1.833-.677,3.248,3.248,0,0,1,.014-5.372,8.2,8.2,0,0,0,3.4-6.707c.005-.422.051-.588.532-.437a5.564,5.564,0,0,0,2.163.195c.444-.04.639.072.561.535a1.772,1.772,0,0,0,0,.292" transform="translate(-5.022 -42.205)" fill="#646c77"/>
        <path id="Path_825093" data-name="Path 825093" d="M85.549,69.616a5.088,5.088,0,0,0,1.907-.2c.381-.135.4.008.406.316A8.127,8.127,0,0,0,91.071,76.4c1.09.907,1.866,1.994,1.483,3.52a3.3,3.3,0,0,1-2.431,2.5c-.417.121-.829.262-1.252.355-.265.058-.32.144-.19.383a7.672,7.672,0,0,1,.723,2.282,2.867,2.867,0,0,1-.252,1.592c-.11.275-.258.161-.411.041-.393-.31-.786-.62-1.185-.923a16.188,16.188,0,0,0-3.628-1.978,19.261,19.261,0,0,0-3.084-.907c-.7-.162-1.432-.275-2.157-.369-.431-.056-.53-.26-.456-.707A6.252,6.252,0,0,0,78.2,80.7a.586.586,0,0,1,.363-.65,10.968,10.968,0,0,0,5.061-5.3,9.478,9.478,0,0,0,.932-3.88,9.814,9.814,0,0,0,.09-1.007c-.021-.226.112-.267.3-.258.243.011.487,0,.6,0" transform="translate(-47.582 -42.207)" fill="#646c77"/>
        <path id="Path_825094" data-name="Path 825094" d="M84.842,179.365c-.763,0-1.527-.01-2.291.005-.272.005-.374-.072-.353-.355.1-1.3.029-2.6.079-3.891a2.8,2.8,0,0,1,.914-1.833,1.528,1.528,0,0,1,1.883-.1,1.629,1.629,0,0,1,.295.254,2.968,2.968,0,0,0,2.122,1.168,1.255,1.255,0,0,1,1.145,1.417c-.005.6,0,1.2,0,1.8a1.444,1.444,0,0,1-1.5,1.525c-.39.007-.78.005-1.17.006H84.842" transform="translate(-50.018 -105.223)" fill="#fee9a6"/>
        <path id="Path_825095" data-name="Path 825095" d="M139.93,159.687q0-1.435,0-2.87c0-.141-.057-.327.17-.322a11.342,11.342,0,0,1,1.79.041,1.463,1.463,0,0,1,1.255,1.532,24.376,24.376,0,0,1-.04,3.435c-.113,1.035-.815,1.337-1.641,1.4-.387.031-.778,0-1.167.016-.309.013-.375-.129-.37-.415.017-.94.006-1.881.006-2.822h0" transform="translate(-85.146 -95.221)" fill="#fee9a6"/>
        <path id="Path_825096" data-name="Path 825096" d="M69.406,117.682c-.724-.952-1.388-1.831-2.059-2.7-.128-.166-.04-.262.069-.372q1.4-1.394,2.788-2.791a.909.909,0,0,1,.915-.16c.306.066.166.349.113.528-.182.6-.394,1.2-.591,1.8-.337,1.027-.671,2.055-1.009,3.082-.06.182-.132.36-.227.616" transform="translate(-40.943 -67.914)" fill="#b3dc7e"/>
        <path id="Path_825097" data-name="Path 825097" d="M47.967,117.727a5.806,5.806,0,0,1-.6-1.573c-.381-1.187-.785-2.367-1.177-3.55-.063-.189-.3-.446.019-.592s.637-.385.977-.039c.5.508,1.005,1.012,1.508,1.517q.6.6,1.2,1.21c.115.117.24.235.1.415l-2.023,2.611" transform="translate(-28.021 -68.031)" fill="#b3dc7e"/>
        <path id="Path_825098" data-name="Path 825098" d="M115.51,131.688l1.052.013.019.014.021-.013h.264a5.193,5.193,0,0,0,1.385-.024c.186.018.234.142.233.3q-.014,1.453-.025,2.906c-.106.005-.219-.037-.315.043l-.268-.011-.024-.03-.024.031-2.3.011a.086.086,0,0,0-.136-.026l-.085-.048v-.042l-.041-.008c-.015-.937-.032-1.874-.045-2.811,0-.132.022-.262.18-.306.037.035.074.041.109,0" transform="translate(-70.114 -80.128)" fill="#d29f6b"/>
        <path id="Path_825099" data-name="Path 825099" d="M23.746,55.234c-.044.43.229,1.14-.1,1.437-.29.26-.987.072-1.5.073a1.741,1.741,0,0,1-1.7-1.573,1.711,1.711,0,0,1,1.631-1.647c.357-.016.716.013,1.071-.018.426-.037.685.034.617.558a9.823,9.823,0,0,0-.009,1.169" transform="translate(-12.435 -32.555)" fill="#fee9a6"/>
        <path id="Path_825100" data-name="Path 825100" d="M94.964,53.527a7.3,7.3,0,0,1,1.728.11,1.587,1.587,0,0,1-.346,3.122c-.454.018-.91-.009-1.364.012-.26.012-.33-.076-.326-.33.018-.958.015-1.916.02-2.874l.288-.041" transform="translate(-57.6 -32.572)" fill="#fee9a6"/>
        <path id="Path_825101" data-name="Path 825101" d="M120.808,131.628a5.177,5.177,0,0,1-1.385.024,5.58,5.58,0,0,1,1.385-.024" transform="translate(-72.671 -80.079)" fill="#646c77"/>
        <path id="Path_825102" data-name="Path 825102" d="M101.649,123.123l.137-.287c.094.063.225.139.168.254s-.2.056-.305.032" transform="translate(-61.855 -74.748)" fill="#646c77"/>
        <path id="Path_825103" data-name="Path 825103" d="M122.687,139.911c.1-.08.209-.038.315-.043-.09.122-.2.067-.315.043" transform="translate(-74.657 -85.108)" fill="#646c77"/>
        <path id="Path_825104" data-name="Path 825104" d="M94.995,53.431l-.288.041c.077-.148.18-.113.288-.041" transform="translate(-57.631 -32.476)" fill="#646c77"/>
        <path id="Path_825105" data-name="Path 825105" d="M115.789,131.66c-.035.044-.072.039-.109,0a.064.064,0,0,1,.109,0" transform="translate(-70.394 -80.1)" fill="#646c77"/>
        <path id="Path_825106" data-name="Path 825106" d="M115.659,139.888a.086.086,0,0,1,.136.025c-.052.027-.1.032-.136-.025" transform="translate(-70.381 -85.111)" fill="#646c77"/>
        <path id="Path_825107" data-name="Path 825107" d="M100.429,123.516c.024-.041.047-.038.069,0l-.035.014Z" transform="translate(-61.113 -75.144)" fill="#646c77"/>
        <path id="Path_825108" data-name="Path 825108" d="M107.24,148.078c-.07.037-.1.012-.108-.063.052-.006.1,0,.108.063" transform="translate(-65.192 -90.069)" fill="#646c77"/>
        <path id="Path_825109" data-name="Path 825109" d="M121.879,139.915l.024-.031.024.031-.024.016Z" transform="translate(-74.166 -85.122)" fill="#646c77"/>
        <path id="Path_825110" data-name="Path 825110" d="M115.336,139.675l.041.008v.042l-.036-.013Z" transform="translate(-70.184 -84.995)" fill="#646c77"/>
        <path id="Path_825111" data-name="Path 825111" d="M118.687,131.7l-.021.013-.019-.014.021-.027Z" transform="translate(-72.199 -80.122)" fill="#646c77"/>
        <path id="Path_825112" data-name="Path 825112" d="M196.224,33.933l.011,1.07-.006.1a9.537,9.537,0,0,1-6.66,8.526,9.639,9.639,0,0,1-12.224-6.423,9.558,9.558,0,0,1,11.189-12.175,9.237,9.237,0,0,1,6.949,5.613,9.668,9.668,0,0,1,.737,3.191c0,.032,0,.064.005.1m-3.714-1.576c-.083-.1-.148-.192-.226-.271-.537-.541-1.088-1.071-1.613-1.624-.275-.29-.457-.287-.748.01-1.521,1.555-3.07,3.083-4.6,4.631-.242.245-.424.236-.649,0-.439-.456-.9-.89-1.329-1.357-.3-.324-.506-.414-.847-.017a15.446,15.446,0,0,1-1.584,1.582c-.238.207-.258.258-.031.483,1.27,1.255,2.536,2.516,3.759,3.816.292.311.433.235.657.012q3.5-3.5,6.991-6.993a3.025,3.025,0,0,0,.216-.274" transform="translate(-107.66 -15.1)" fill="#fee9a6"/>
        <path id="Path_825113" data-name="Path 825113" d="M226.241,50.942l.006-.1a.413.413,0,0,1,.027.074c0,.007-.021.018-.033.028" transform="translate(-137.672 -30.937)" fill="#646c77"/>
        <path id="Path_825114" data-name="Path 825114" d="M226.221,47.958c0-.032,0-.065-.005-.1a.429.429,0,0,1,.029.068c0,.007-.015.019-.024.029" transform="translate(-137.657 -29.124)" fill="#646c77"/>
        <path id="Path_825115" data-name="Path 825115" d="M202.2,111.226l1.454,0,.11.06a9.122,9.122,0,0,1,6.686,3.391,9.331,9.331,0,0,1,2.184,7.17,9.66,9.66,0,0,1-18.555,2.66,9.157,9.157,0,0,1-.747-3.816,9.754,9.754,0,0,1,7.606-9.282,3.384,3.384,0,0,1,1.149-.122l.112-.057m6.716,7.529c-.059-.069-.125-.159-.2-.238q-.753-.762-1.51-1.52c-.467-.468-.475-.475-.947,0-1.5,1.5-3.009,3-4.495,4.525-.258.263-.408.283-.654.011-.436-.481-.916-.92-1.347-1.406-.283-.319-.511-.321-.8-.026q-.9.918-1.835,1.811c-.137.131-.069.146.027.24q2,1.955,3.991,3.927c.177.176.289.29.532.045q3.527-3.566,7.078-7.108c.067-.067.161-.116.164-.258" transform="translate(-117.643 -67.681)" fill="#fee9a6"/>
        <path id="Path_825116" data-name="Path 825116" d="M215.813,111.213l-.112.057c.022-.049.047-.091.112-.057" transform="translate(-131.258 -67.668)" fill="#d29f6b"/>
        <path id="Path_825117" data-name="Path 825117" d="M219.811,111.267l-.11-.06c.064-.03.09.011.11.06" transform="translate(-133.692 -67.665)" fill="#d29f6b"/>
        <path id="Path_825118" data-name="Path 825118" d="M177.008,207.2a9.636,9.636,0,0,1,19.259-.454,9.638,9.638,0,1,1-19.259.454m8.05,5.458c.149-.006.223-.12.314-.211q3.479-3.483,6.964-6.961c.228-.227.242-.362.006-.585q-.814-.77-1.587-1.583c-.292-.305-.514-.292-.808.009-1.534,1.567-3.085,3.117-4.624,4.679-.188.191-.318.212-.513,0-.5-.531-1.025-1.042-1.54-1.561-.168-.169-.333-.322-.567-.081q-.919.941-1.848,1.872c-.114.115-.125.188,0,.313q1.97,1.957,3.929,3.926c.077.077.139.186.273.178" transform="translate(-107.71 -120.269)" fill="#fee9a6"/>
        <path id="Path_825119" data-name="Path 825119" d="M52.427,77.961a6.457,6.457,0,0,1-4.7-1.626A7.345,7.345,0,0,1,46,74.178c-.159-.292.008-.406.17-.47.8-.317,1.528-.76,2.3-1.117.346-.159.391.124.505.329a3.322,3.322,0,0,0,3.12,1.816,3.453,3.453,0,0,0,3.194-1.91c.16-.316.345-.4.649-.205a11.66,11.66,0,0,0,2.085,1.071c.3.114.33.269.169.556a6.8,6.8,0,0,1-5.656,3.71c-.039-.047-.077-.041-.113,0" transform="translate(-27.953 -44.128)"/>
        <path id="Path_825120" data-name="Path 825120" d="M62.516,86.366c.036-.045.074-.051.113,0l-.113,0" transform="translate(-38.042 -52.533)" fill="#646c77"/>
        <path id="Path_825121" data-name="Path 825121" d="M198.426,40.8a3.023,3.023,0,0,1-.216.274q-3.495,3.5-6.991,6.993c-.224.224-.365.3-.657-.012-1.223-1.3-2.489-2.561-3.759-3.816-.227-.225-.208-.275.031-.483a15.445,15.445,0,0,0,1.584-1.582c.341-.4.551-.307.847.017.427.467.889.9,1.329,1.357.225.234.407.243.649,0,1.529-1.548,3.078-3.076,4.6-4.631.29-.3.473-.3.748-.01.525.553,1.075,1.082,1.613,1.624.078.078.142.17.226.271" transform="translate(-113.576 -23.546)"/>
        <path id="Path_825122" data-name="Path 825122" d="M214.69,127.182c0,.142-.1.192-.164.258q-3.541,3.552-7.078,7.108c-.243.245-.355.131-.532-.045q-1.988-1.971-3.991-3.927c-.1-.094-.164-.109-.027-.24q.932-.89,1.835-1.811c.29-.3.519-.294.8.026.43.485.911.925,1.347,1.406.246.272.4.253.654-.011,1.486-1.521,2.991-3.022,4.495-4.525.472-.472.48-.465.947,0q.757.759,1.51,1.52c.078.079.144.169.2.238" transform="translate(-123.42 -76.108)"/>
        <path id="Path_825123" data-name="Path 825123" d="M190.906,221.147c-.133.008-.2-.1-.273-.178q-1.965-1.963-3.929-3.926c-.127-.126-.116-.2,0-.313q.928-.931,1.848-1.872c.235-.24.4-.088.567.081.515.519,1.037,1.03,1.54,1.561.2.207.326.186.513,0,1.539-1.562,3.09-3.112,4.624-4.679.294-.3.517-.315.808-.009q.773.811,1.587,1.583c.236.223.222.358-.006.585q-3.492,3.47-6.964,6.961c-.091.091-.165.2-.314.211" transform="translate(-113.558 -128.754)"/>
      </g>
    </g>
  </g>
</svg>
