<svg xmlns="http://www.w3.org/2000/svg" xmlns:xlink="http://www.w3.org/1999/xlink" width="142" height="142" viewBox="0 0 142 142">
  <defs>
    <clipPath id="clip-path">
      <rect id="Rectangle_378609" data-name="Rectangle 378609" width="104" height="108.19" fill="none"/>
    </clipPath>
  </defs>
  <g id="Group_1074927" data-name="Group 1074927" transform="translate(-729 -13864.3)">
    <circle id="Ellipse_5853" data-name="Ellipse 5853" cx="71" cy="71" r="71" transform="translate(729 13864.3)" fill="#fff"/>
    <g id="Group_1074932" data-name="Group 1074932" transform="translate(748 13881.3)">
      <g id="Group_1074931" data-name="Group 1074931" clip-path="url(#clip-path)">
        <path id="Path_825124" data-name="Path 825124" d="M7.96,15.61a1.682,1.682,0,0,1,.934-2.428A15.429,15.429,0,0,1,18.329,11.4a17.5,17.5,0,0,1,5.334,1.426,15.689,15.689,0,0,1,4.161,2.9A16.214,16.214,0,0,1,30.576,19a13.857,13.857,0,0,1,2.005,4.617c.047.256.174.552.549.186a9.4,9.4,0,0,1,2.891-1.87c.335-.144.4-.271.273-.629a16.383,16.383,0,0,1-.863-6.754,15.517,15.517,0,0,1,1.925-6.212,17.292,17.292,0,0,1,3-4.072A16.673,16.673,0,0,1,45.4.859,11.487,11.487,0,0,1,47.39.125c1.089-.256,1.9-.222,2.411,1.1,0,1.177-.339,1.6-1.566,1.95a13.394,13.394,0,0,0-9.627,11.664,12.2,12.2,0,0,0,.723,5.7,13.248,13.248,0,0,0,5.8,7,12.718,12.718,0,0,0,6.812,1.977,12.448,12.448,0,0,0,3.043-.4A13.5,13.5,0,0,0,65.428,16.2a13.333,13.333,0,0,0-.318-2.948,11.352,11.352,0,0,0-1.617-4.084A13.309,13.309,0,0,0,55.565,3.1,1.767,1.767,0,0,1,54.1,1.259a1.431,1.431,0,0,0,.214-.293c.342-.869.793-1.137,1.971-.852A9.028,9.028,0,0,1,58.735,1c.494.283,1.117.467,1.656.73a9.576,9.576,0,0,1,1.467,1.022,16.36,16.36,0,0,1,5.133,6.3,16.547,16.547,0,0,1,1.416,4.837,16.12,16.12,0,0,1-.388,6.233,8.569,8.569,0,0,1-.328,1.056.562.562,0,0,0,.367.818,9.846,9.846,0,0,1,2.809,1.83c.3.258.361.178.439-.131a17.009,17.009,0,0,1,1.619-3.94,15.587,15.587,0,0,1,1.692-2.44,17.891,17.891,0,0,1,2.855-2.752A15.231,15.231,0,0,1,82.376,12a16.3,16.3,0,0,1,4.721-.739c.161,0,.361.073.483-.12.08.178.106.184.344.078,1.042.143,2.09.254,3.124.44a13.924,13.924,0,0,1,1.868.58,20.071,20.071,0,0,1,2.672,1.249,1.134,1.134,0,0,1,.592.98,8.582,8.582,0,0,1-.023.891,1.718,1.718,0,0,1-2.346.692,10.814,10.814,0,0,0-3.049-1.2,14.12,14.12,0,0,0-6.061-.161,13.554,13.554,0,0,0-6.764,3.584,12.5,12.5,0,0,0-2.158,2.813,12.621,12.621,0,0,0-1.761,5.425,13.348,13.348,0,0,0,1.07,6.737,12.974,12.974,0,0,0,3.769,4.969,13.218,13.218,0,0,0,10.212,2.9,12.624,12.624,0,0,0,8.625-4.752A14.41,14.41,0,0,0,98.9,34.739a13.613,13.613,0,0,0,1.746-5.08,14.818,14.818,0,0,0-.1-4.283,12.855,12.855,0,0,0-1.824-4.76,1.4,1.4,0,0,1,.09-1.6c.125-.2.413-.287.415-.574a2.175,2.175,0,0,1,1.875.215c.445.356.58.918.884,1.368a9.075,9.075,0,0,1,1.027,2.236,22.356,22.356,0,0,1,.9,4.349,15.727,15.727,0,0,1-.986,6.853,14.685,14.685,0,0,1-4.849,6.989,17.511,17.511,0,0,1-4.972,2.974c-.081.03-.164.055-.247.081-.757.238-.758.239-.53,1.051a17.571,17.571,0,0,1,.677,4.223c.008.271.081.57-.2.773.322.259.07.74.439,1.019a14.906,14.906,0,0,1,1.792,1.735,14.39,14.39,0,0,1,2.077,3.116,13.382,13.382,0,0,1,1.364,4.5,13.107,13.107,0,0,1-.043,3.489,18.02,18.02,0,0,1-1.188,4.416,12.772,12.772,0,0,1-1.138,2.02,14.84,14.84,0,0,1-2.956,3.131c-.183.164-.146.342-.145.526a17.207,17.207,0,0,1-.745,5.569,13.5,13.5,0,0,1-2.931,5.145A16.6,16.6,0,0,1,83.727,88.1c-.514.222-1.068.347-1.6.524-.159.052-.289.09-.318.333a9.924,9.924,0,0,1-3.414,6.589,12.161,12.161,0,0,1-3.218,1.9c-.446.195-.382.51-.427.766a11.914,11.914,0,0,1-6.741,8.731,12.11,12.11,0,0,1-3.626,1.133,13.6,13.6,0,0,1-2.721.065,12.471,12.471,0,0,1-4.957-1.566,11.987,11.987,0,0,1-4.436-4.383c-.23-.367-.315-.289-.518.02a12.421,12.421,0,0,1-4.78,4.5,14.257,14.257,0,0,1-4.427,1.351,11.05,11.05,0,0,1-5.778-.751,11.493,11.493,0,0,1-3.794-2.422,14.157,14.157,0,0,1-2.92-4,11.113,11.113,0,0,1-.864-3.009c-.034-.2-.051-.322-.294-.407a10.482,10.482,0,0,1-6.317-6.461A4.8,4.8,0,0,1,22.2,89.1c.01-.291-.047-.418-.406-.511a14.219,14.219,0,0,1-5.786-3.053,15.209,15.209,0,0,1-3.124-3.829A13.628,13.628,0,0,1,11.2,77.044,20.21,20.21,0,0,1,11,73.5a.646.646,0,0,0-.237-.585A14.3,14.3,0,0,1,5.6,64.091a15.4,15.4,0,0,1-.178-3.7,13.949,13.949,0,0,1,1.3-4.7,20.4,20.4,0,0,1,1.7-2.869,11.407,11.407,0,0,1,1.774-1.812c.2-.185.3-.471.632-.532.184-.034.172-.274.177-.455a22.342,22.342,0,0,1,.1-2.993,12.158,12.158,0,0,1,.638-2.679c.164-.406.148-.64-.337-.793A17.238,17.238,0,0,1,5.73,40.379,14.675,14.675,0,0,1,2.8,36.949,17.294,17.294,0,0,1,.248,30.616a15.336,15.336,0,0,1-.16-4.389A16.728,16.728,0,0,1,1.8,20.363a11.151,11.151,0,0,1,.788-1.394,1.621,1.621,0,0,1,2.284-.341A1.67,1.67,0,0,1,5.1,20.921a15.112,15.112,0,0,0-1.581,3.856,14.189,14.189,0,0,0-.208,5.062,12.181,12.181,0,0,0,1.861,5.03,11.671,11.671,0,0,0,4.333,4.287,1.007,1.007,0,0,0,.15.142,12.763,12.763,0,0,0,8.927,1.8,13.16,13.16,0,0,0,8.154-4.426,13.346,13.346,0,0,0,3.27-8.3,12.676,12.676,0,0,0-1-5.678,6.174,6.174,0,0,0-1.077-1.969,5.061,5.061,0,0,0-.769-1.193,13.245,13.245,0,0,0-10.415-5.1,12.62,12.62,0,0,0-6.295,1.488,1.719,1.719,0,0,1-2.5-.309M74.734,84.278a6.9,6.9,0,0,0,1.7.766,7.486,7.486,0,0,0,4.169.6,10.775,10.775,0,0,0,8.646-7.513,10.432,10.432,0,0,0,.512-4.863,11.7,11.7,0,0,0-.931-3.38c-.07-.161-.13-.326-.21-.482a11.185,11.185,0,0,0-3.752-4.175,2.928,2.928,0,0,1-.948-.97A1.285,1.285,0,0,1,84,62.827a1.562,1.562,0,0,1,1.5-.7,3.585,3.585,0,0,1,1.869.988,14.294,14.294,0,0,1,4.644,6.111c.142.355.3.38.535.086a12.517,12.517,0,0,0,2.3-4.123,10.994,10.994,0,0,0,.508-4.658,11.6,11.6,0,0,0-1.986-5.249,9.481,9.481,0,0,0-2.505-2.632,10.858,10.858,0,0,0-5.592-2.1l-.112-.169-.076.153a11.825,11.825,0,0,0-6.124,1.134,11.7,11.7,0,0,0-2.4,1.734c-.9.691-1.284.68-1.981.27a1.455,1.455,0,0,1-.395-2.314,6.85,6.85,0,0,1,.836-.847,14.648,14.648,0,0,1,9.47-3.225c.5,0,.992.184,1.49.191a10.4,10.4,0,0,1,3.311.757c.147.051.262.247.458.094.177-.139.108-.328.085-.482a18.506,18.506,0,0,0-.629-2.84.7.7,0,0,0-.853-.6,15.472,15.472,0,0,1-7.51-1.319,16.777,16.777,0,0,1-7.379-6.265,14.858,14.858,0,0,1-2.419-6.173c-.037-.275-.171-.331-.384-.285a7.942,7.942,0,0,0-1.887.579,7.1,7.1,0,0,0-4.083,6.432,1.533,1.533,0,0,1-2.769.866,2.458,2.458,0,0,1-.315-1.978,9.944,9.944,0,0,1,2.019-5.074,10.062,10.062,0,0,1,5.851-3.782c.46-.1.32-.262.126-.471a9.432,9.432,0,0,0-3-2.208c-.324-.149-.484-.046-.636.223a16.614,16.614,0,0,1-3.179,3.662,15.4,15.4,0,0,1-4.921,2.952,8.859,8.859,0,0,1-1.4.5c-.81.186-1.625.322-2.443.449-.319.05-.448.178-.446.545.02,4.122.015,8.245.017,12.368a3.988,3.988,0,0,0,.01.9,4.765,4.765,0,0,0,3.259,3.741,8.435,8.435,0,0,0,1.592.269,1.269,1.269,0,0,1,1.188.953,1.552,1.552,0,0,1-.294,1.608,2.324,2.324,0,0,1-2.269.457,7.049,7.049,0,0,1-3.049-1.194c-.116-.079-.247-.182-.385-.089s-.073.255-.073.391c.006,2.678.051,5.357-.006,8.033a1.751,1.751,0,0,0,.927,1.718c.258.157.515.332.77.486a11.584,11.584,0,0,0,4.711,1.6,1.572,1.572,0,0,1,1.494,1.661,1.689,1.689,0,0,1-1.912,1.509,15.544,15.544,0,0,1-5.378-1.759,1.249,1.249,0,0,0-.582-.219c-.011.139-.029.261-.029.384.011,2.449,0,4.9.043,7.346A4.333,4.333,0,0,0,55.211,76.5a4.749,4.749,0,0,0,3.127,1.113,1.346,1.346,0,0,1,1.018.482,1.643,1.643,0,0,1,.272,1.767,1.507,1.507,0,0,1-1.522.921,7.65,7.65,0,0,1-4.1-1.275c-.238-.156-.424-.3-.422.174q.026,4.73.033,9.46c-.005,2.183.014,4.366-.023,6.548a9.015,9.015,0,0,0,1.5,5.114,8.884,8.884,0,0,0,9.042,4.064,8.794,8.794,0,0,0,7.23-6.167c.31-.882.316-.874-.563-1.141A10.118,10.118,0,0,1,63.5,89.824a4.576,4.576,0,0,0-.312-1.321c.006-.262,0-.525.019-.786a1.56,1.56,0,0,1,1.394-1.534c1.1-.029,1.659.4,1.793,1.377-.1.323.067.619.1.929a7.222,7.222,0,0,0,5.2,6.03,3.089,3.089,0,0,0,1.584.2,6.978,6.978,0,0,0,5.3-5.479c.068-.276,0-.39-.28-.426a13.515,13.515,0,0,1-5.623-2.061,2.158,2.158,0,0,1-.817-.993c0-.087.009-.175.01-.262a1.5,1.5,0,0,1,1.7-1.65,3.259,3.259,0,0,1,1.164.428M20.719,50.541l-.036-.026-.037.022a8.482,8.482,0,0,0-2.976.136,11.107,11.107,0,0,0-5.812,3.082,11.252,11.252,0,0,0-3.164,6.17,10.864,10.864,0,0,0,.122,4.209,11.763,11.763,0,0,0,1.249,3.259,10.43,10.43,0,0,0,1.643,2.2,3.111,3.111,0,0,0,.523-.951,10.026,10.026,0,0,1,1.736-2.957,12.865,12.865,0,0,1,3.768-3.3,1.526,1.526,0,0,1,2.225.476,1.543,1.543,0,0,1-.59,2.212,11.185,11.185,0,0,0-4.732,12.882,10.854,10.854,0,0,0,5.194,6.464A8.341,8.341,0,0,0,26.5,85.445a16.741,16.741,0,0,0,3.33-1.412,1.525,1.525,0,0,1,2.326,1.391,1.778,1.778,0,0,1-1.014,1.487,14.575,14.575,0,0,1-5.454,1.9c-.309.039-.345.189-.3.423a4.044,4.044,0,0,0,.482,1.412,3.994,3.994,0,0,0,.8,1.417c1.439,1.667,3,3.054,5.484,2.471a7.089,7.089,0,0,0,5.381-6.552,2.478,2.478,0,0,1,.256-1,1.583,1.583,0,0,1,1.849-.776A1.458,1.458,0,0,1,40.7,87.715a13.421,13.421,0,0,1-.08,1.408A9.412,9.412,0,0,1,38.7,93.786a10.12,10.12,0,0,1-5.761,3.844c-.257.064-.68.017-.5.568,1.286,3.89,3.881,6.291,7.995,6.71a8.63,8.63,0,0,0,8.138-3.612,9.318,9.318,0,0,0,1.834-5.709c.02-5.126,0-10.252,0-15.377,0-.159.005-.318-.008-.475-.027-.322-.193-.425-.445-.2a5.353,5.353,0,0,1-2.371,1.009,4.739,4.739,0,0,1-1.922.253,1.819,1.819,0,0,1-1.481-1.722,1.7,1.7,0,0,1,1.658-1.46,4.5,4.5,0,0,0,1.533-.32A4.781,4.781,0,0,0,50.41,72.6c.03-2.026.014-4.052,0-6.077,0-.3.167-.726-.129-.889-.331-.183-.618.193-.916.347a16.531,16.531,0,0,1-4.137,1.326,2.373,2.373,0,0,1-1.827-.046,1.824,1.824,0,0,1-.9-1.763,1.684,1.684,0,0,1,1.418-1.2,12.019,12.019,0,0,0,6.154-2.5.823.823,0,0,0,.368-.7c-.013-2.872-.016-5.744-.026-8.616,0-.134.069-.312-.059-.4-.168-.109-.284.076-.413.151a7.654,7.654,0,0,1-4.016,1.182,1.7,1.7,0,0,1-1.737-1.67,1.66,1.66,0,0,1,1.7-1.5,4.431,4.431,0,0,0,.578-.025A4.668,4.668,0,0,0,50.416,45.4c.033-.95.006-1.9.006-2.855,0-3.1-.014-6.2.021-9.3.007-.564-.22-.773-.7-.753A6.932,6.932,0,0,1,47.381,32,16.647,16.647,0,0,1,38,24.891a.4.4,0,0,0-.606-.167,8.574,8.574,0,0,0-2.725,1.956c-.568.616-.56.6.273.83a10.156,10.156,0,0,1,7.428,8.748,2.9,2.9,0,0,1-.145,1.813,1.655,1.655,0,0,1-1.832.743,2.051,2.051,0,0,1-1.17-1.793,6.759,6.759,0,0,0-2.537-5.157,7.057,7.057,0,0,0-3.365-1.489c-.217-.046-.308.039-.347.267-.081.457-.2.909-.308,1.361a15.857,15.857,0,0,1-3.58,6.73,15.887,15.887,0,0,1-6.72,4.658A16.462,16.462,0,0,1,17.6,44.419c-.72.031-1.443.007-2.166,0-.23,0-.44.025-.514.268a11.078,11.078,0,0,0-.754,3.681,1.392,1.392,0,0,0,.562-.129,12.822,12.822,0,0,1,5-.941,14.592,14.592,0,0,1,4.8.8A14.808,14.808,0,0,1,29.5,51.005a1.753,1.753,0,0,1,.644,1.527,1.538,1.538,0,0,1-2.093,1.276,5.79,5.79,0,0,1-1.094-.822,10.948,10.948,0,0,0-6.235-2.445" transform="translate(0 0)"/>
        <path id="Path_825125" data-name="Path 825125" d="M199.587,38.033c0,.287-.29.369-.415.574a1.4,1.4,0,0,0-.09,1.6,12.861,12.861,0,0,1,1.824,4.761,14.818,14.818,0,0,1,.1,4.283,13.6,13.6,0,0,1-1.745,5.08,14.464,14.464,0,0,1-1.211,1.631,12.625,12.625,0,0,1-8.625,4.752,13.221,13.221,0,0,1-10.212-2.9,12.972,12.972,0,0,1-3.769-4.969,13.347,13.347,0,0,1-1.07-6.737,13.66,13.66,0,0,1,3.919-8.238,13.556,13.556,0,0,1,6.765-3.584,14.121,14.121,0,0,1,6.061.161,10.819,10.819,0,0,1,3.049,1.2,1.718,1.718,0,0,0,2.346-.692c.531.861,1.454,1.326,2.1,2.077.3.347.493.822.971,1m-11.917.5c-1.092,0-2.184-.01-3.276,0a1.642,1.642,0,0,0-1.852,1.729c-.077,1.707-.055,3.417-.012,5.125a3.784,3.784,0,0,0,3.912,3.639c.9-.045,1.8,0,2.693.009.453,0,.665.211.661.682-.007.827.035,1.656.027,2.483-.008.869-.088.932-.94.931q-2.272,0-4.544-.006a1.922,1.922,0,0,0-1.473.57,1.492,1.492,0,0,0-.218,1.73,1.514,1.514,0,0,0,1.478.869c1.761,0,3.525.055,5.283-.014a3.534,3.534,0,0,0,3.521-3.406,34.107,34.107,0,0,0,.017-3.486,3.4,3.4,0,0,0-.717-1.989,3.794,3.794,0,0,0-3.118-1.555c-.933-.022-1.867-.026-2.8,0-.42.012-.574-.168-.58-.544-.014-.827-.035-1.655-.031-2.482.007-1.112.017-1.108,1.114-1.107,1.55,0,3.1.014,4.649-.015a1.5,1.5,0,0,0,1.474-1.317,1.541,1.541,0,0,0-.925-1.66,3.455,3.455,0,0,0-1.175-.19h-3.17" transform="translate(-100.357 -19.592)" fill="#6cf2be"/>
        <path id="Path_825126" data-name="Path 825126" d="M12.279,35.187a1.72,1.72,0,0,0,2.5.309,12.618,12.618,0,0,1,6.295-1.488,13.244,13.244,0,0,1,10.415,5.1,5.061,5.061,0,0,1,.769,1.193,3.656,3.656,0,0,0,.02,1.156,11.966,11.966,0,0,1-.046,5.582,14.562,14.562,0,0,1-2.549,5.85,17.869,17.869,0,0,1-2.8,2.843,16.2,16.2,0,0,1-2.357,1.642,23.258,23.258,0,0,1-2.9,1.105,10.3,10.3,0,0,1-2.961.527,13.154,13.154,0,0,1-4.237-.328.69.69,0,0,0-.6.053,11.681,11.681,0,0,1-4.333-4.287,12.187,12.187,0,0,1-1.861-5.03,14.189,14.189,0,0,1,.208-5.062A15.112,15.112,0,0,1,9.422,40.5a1.67,1.67,0,0,0-.233-2.292,16.534,16.534,0,0,1,3.09-3.018M22.19,47.4H22.2c0-.7,0-1.409,0-2.113,0-1.726,0-3.451-.018-5.176a1.567,1.567,0,0,0-2.891-.827,1.968,1.968,0,0,0-.276,1.1c.022,1.249-.388,1.939-1.359,2.274-.3.1-.639.115-.955.189a1.546,1.546,0,0,0,.336,3.072,3.828,3.828,0,0,0,1.541-.224c.345-.14.457-.1.454.308-.016,2.359-.007,4.719,0,7.078,0,.563-.03,1.13.024,1.689a1.571,1.571,0,0,0,1.7,1.506,1.591,1.591,0,0,0,1.436-1.693q0-3.591,0-7.182" transform="translate(-4.319 -19.577)" fill="#96e3f8"/>
        <path id="Path_825127" data-name="Path 825127" d="M106.39,2.682a1.768,1.768,0,0,0,1.464,1.84,13.3,13.3,0,0,1,7.927,6.067,1.332,1.332,0,0,0-.126,1.07,12.1,12.1,0,0,1-.015,5.251,14.619,14.619,0,0,1-1.5,4.12,13.18,13.18,0,0,1-2.774,3.737c-.283.275-.682.438-.941.73A8.307,8.307,0,0,1,108,27.223a14.582,14.582,0,0,1-5.531,1.722,13.3,13.3,0,0,1-4.235-.094.961.961,0,0,0-.814.1,13.249,13.249,0,0,1-5.8-7,12.2,12.2,0,0,1-.723-5.7A13.394,13.394,0,0,1,100.523,4.6c1.226-.353,1.562-.772,1.566-1.95a12.078,12.078,0,0,1,4.3.035M103.956,15.87l-.034-.03-.028.035a1.776,1.776,0,0,0-1.566.755,1.657,1.657,0,0,0,1.5,2.467c.6-.032,1.195.006,1.792,0,.352-.006.6.1.678.476v.012a18.667,18.667,0,0,1,.028,2.513.041.041,0,0,0,0,.065c-.043.354.188.819-.389.955l-.147.015c-.877.03-1.753.07-2.63.086-.772.014-.863-.075-.98-.827a1.6,1.6,0,0,0-1.49-1.307,1.666,1.666,0,0,0-1.569,1.157,3.717,3.717,0,0,0,2.885,4.044,21.18,21.18,0,0,0,3.99.075,3.529,3.529,0,0,0,1.726-.545,3.82,3.82,0,0,0,1.826-3.154.052.052,0,0,0,.008-.077l0-2.844a.055.055,0,0,0-.007-.081A4.781,4.781,0,0,0,109,17.78a.561.561,0,0,1,0-.553,5.9,5.9,0,0,0,.549-1.863.055.055,0,0,0,.006-.082c0-.185-.069-.379.073-.545.079-.056.078-.11,0-.164-.153-.186-.073-.406-.079-.61a13.542,13.542,0,0,0-.165-2.617,3.657,3.657,0,0,0-2.682-2.62,17.087,17.087,0,0,0-3.833-.156A3.7,3.7,0,0,0,99.434,10.7a2.218,2.218,0,0,0-.024,2.531,1.52,1.52,0,0,0,2.766-.857c0-.387.184-.563.526-.569,1.02-.018,2.04-.017,3.06-.011.25,0,.5.051.541.378.009.142.017.284.026.426a26.8,26.8,0,0,1,0,2.714c0,.26-.064.493-.4.506l-.022,0-.233.031-.09.014-1.634,0" transform="translate(-52.289 -1.423)" fill="#fc7f86"/>
        <path id="Path_825128" data-name="Path 825128" d="M206.756,26.286c-.238.106-.264.1-.344-.078.125-.017.268-.118.344.078" transform="translate(-118.834 -15.064)" fill="#fc7f86"/>
        <path id="Path_825129" data-name="Path 825129" d="M37.458,124.088a4.044,4.044,0,0,1-.482-1.412c-.046-.233-.011-.383.3-.423a14.572,14.572,0,0,0,5.454-1.9,1.778,1.778,0,0,0,1.014-1.487,1.524,1.524,0,0,0-2.326-1.39,16.764,16.764,0,0,1-3.33,1.412,8.341,8.341,0,0,1-6.664-1.025,10.857,10.857,0,0,1-5.195-6.464,11.184,11.184,0,0,1,4.733-12.882,1.543,1.543,0,0,0,.59-2.212,1.526,1.526,0,0,0-2.225-.476,12.873,12.873,0,0,0-3.768,3.3,10.018,10.018,0,0,0-1.736,2.956,3.106,3.106,0,0,1-.523.951,10.431,10.431,0,0,1-1.643-2.2,11.75,11.75,0,0,1-1.249-3.259,10.862,10.862,0,0,1-.122-4.209,11.245,11.245,0,0,1,3.163-6.17,11.106,11.106,0,0,1,5.813-3.083,8.47,8.47,0,0,1,2.975-.136l.036.014.037-.01a10.947,10.947,0,0,1,6.235,2.445,5.789,5.789,0,0,0,1.094.822,1.538,1.538,0,0,0,2.093-1.276,1.753,1.753,0,0,0-.644-1.527,14.808,14.808,0,0,0-4.967-2.908,14.594,14.594,0,0,0-4.8-.8,12.817,12.817,0,0,0-5,.94,1.389,1.389,0,0,1-.562.129,11.078,11.078,0,0,1,.754-3.681c.074-.244.284-.272.514-.268.722.011,1.445.036,2.166,0a16.477,16.477,0,0,0,4.759-1.029,15.879,15.879,0,0,0,6.72-4.658,15.852,15.852,0,0,0,3.579-6.73c.111-.452.228-.9.308-1.361.04-.228.131-.313.347-.267a7.062,7.062,0,0,1,3.365,1.489,6.76,6.76,0,0,1,2.537,5.157,2.052,2.052,0,0,0,1.17,1.793,1.655,1.655,0,0,0,1.832-.743,2.894,2.894,0,0,0,.145-1.813,10.157,10.157,0,0,0-7.428-8.748c-.834-.227-.841-.215-.273-.831a8.574,8.574,0,0,1,2.725-1.956.4.4,0,0,1,.606.167,16.644,16.644,0,0,0,9.382,7.112,6.923,6.923,0,0,0,2.366.482c.476-.02.7.189.7.753-.035,3.1-.02,6.2-.021,9.3,0,.952.027,1.9-.006,2.855a4.668,4.668,0,0,1-3.952,4.817,4.435,4.435,0,0,1-.578.025,1.661,1.661,0,0,0-1.7,1.5,1.7,1.7,0,0,0,1.737,1.67,7.658,7.658,0,0,0,4.016-1.183c.129-.074.245-.26.413-.151.128.084.059.261.059.4.011,2.872.014,5.744.027,8.616a.821.821,0,0,1-.368.7,12.019,12.019,0,0,1-6.154,2.5,1.684,1.684,0,0,0-1.418,1.2,1.824,1.824,0,0,0,.9,1.763,2.374,2.374,0,0,0,1.827.046,16.531,16.531,0,0,0,4.137-1.326c.2.363-.036.682-.14.991a49.979,49.979,0,0,1-3.634,8.345,37.618,37.618,0,0,1-2.541,4.019,32.3,32.3,0,0,1-5.005,5.538,30.837,30.837,0,0,1-5.117,3.6,23.22,23.22,0,0,1-7.062,2.162" transform="translate(-11.592 -33.447)" fill="#fc7f86"/>
        <path id="Path_825130" data-name="Path 825130" d="M139.078,121.024c-.134-.977-.693-1.406-1.793-1.376a1.56,1.56,0,0,0-1.394,1.534c-.015.262-.013.524-.019.786a3.315,3.315,0,0,0-.679.052,23.529,23.529,0,0,1-5.154.573c-1.244.075-2.5.012-3.744.01q-.015-4.73-.033-9.46c0-.47.183-.33.422-.174a7.646,7.646,0,0,0,4.1,1.275,1.508,1.508,0,0,0,1.522-.922,1.642,1.642,0,0,0-.272-1.766,1.346,1.346,0,0,0-1.017-.483,4.746,4.746,0,0,1-3.127-1.113,4.332,4.332,0,0,1-1.594-3.279c-.042-2.448-.033-4.9-.043-7.346,0-.122.018-.244.029-.384a1.257,1.257,0,0,1,.582.218,15.541,15.541,0,0,0,5.378,1.759,1.689,1.689,0,0,0,1.912-1.508,1.572,1.572,0,0,0-1.494-1.661,11.586,11.586,0,0,1-4.711-1.6c-.255-.154-.511-.329-.769-.486a1.75,1.75,0,0,1-.928-1.718c.056-2.677.011-5.355.006-8.033,0-.136-.062-.3.072-.391s.269.01.385.089a7.05,7.05,0,0,0,3.048,1.195,2.325,2.325,0,0,0,2.269-.458,1.551,1.551,0,0,0,.294-1.608,1.268,1.268,0,0,0-1.187-.953,8.464,8.464,0,0,1-1.592-.269,4.766,4.766,0,0,1-3.26-3.741,3.959,3.959,0,0,1-.009-.895c0-4.123,0-8.246-.017-12.368,0-.367.128-.5.446-.545.818-.127,1.633-.263,2.444-.449a8.815,8.815,0,0,0,1.4-.5,15.4,15.4,0,0,0,4.92-2.952,16.618,16.618,0,0,0,3.179-3.662c.152-.269.312-.372.636-.223a9.435,9.435,0,0,1,3,2.208c.193.209.333.37-.126.471a10.068,10.068,0,0,0-5.852,3.782,9.941,9.941,0,0,0-2.018,5.074,2.456,2.456,0,0,0,.315,1.978,1.533,1.533,0,0,0,2.769-.866,7.1,7.1,0,0,1,4.083-6.432,7.942,7.942,0,0,1,1.887-.579c.213-.046.346.01.384.285a14.853,14.853,0,0,0,2.42,6.173,16.772,16.772,0,0,0,7.379,6.265,15.466,15.466,0,0,0,7.51,1.319.7.7,0,0,1,.853.6,18.559,18.559,0,0,1,.629,2.84c.022.154.092.343-.085.482-.2.154-.311-.042-.458-.094a10.4,10.4,0,0,0-3.311-.757c-.5-.007-.994-.195-1.49-.19a14.646,14.646,0,0,0-9.47,3.225,6.872,6.872,0,0,0-.835.847,1.454,1.454,0,0,0,.395,2.314c.7.41,1.086.422,1.981-.269a11.7,11.7,0,0,1,2.4-1.735A11.823,11.823,0,0,1,157.765,84l.188.017a10.856,10.856,0,0,1,5.593,2.1,9.483,9.483,0,0,1,2.505,2.633c-.312-.006-.374.179-.357.446a11.843,11.843,0,0,1-.258,2.5,39.412,39.412,0,0,1-1.9,6.87,2.289,2.289,0,0,1-.561.995,16.169,16.169,0,0,0-2.918-2.978,3.587,3.587,0,0,0-1.868-.988,1.562,1.562,0,0,0-1.5.7,1.285,1.285,0,0,0-.084,1.439,2.919,2.919,0,0,0,.947.97,11.187,11.187,0,0,1,3.752,4.175c.079.155.14.32.209.481a1.191,1.191,0,0,0-.541.474,36.45,36.45,0,0,1-6.285,8.148,39.585,39.585,0,0,1-5.474,4.444,9.884,9.884,0,0,0-1.794,1.32,3.264,3.264,0,0,0-1.164-.428,1.5,1.5,0,0,0-1.7,1.65c0,.087-.006.174-.01.262a.793.793,0,0,0-.46.079,12.806,12.806,0,0,1-1.928.85,11.266,11.266,0,0,1-3.074.866" transform="translate(-72.679 -33.465)" fill="#fc7f86"/>
        <path id="Path_825131" data-name="Path 825131" d="M60.963,179.636a23.22,23.22,0,0,0,7.062-2.162,30.838,30.838,0,0,0,5.116-3.6,32.3,32.3,0,0,0,5.005-5.538,37.622,37.622,0,0,0,2.541-4.019,49.981,49.981,0,0,0,3.634-8.345c.1-.309.337-.628.14-.991.3-.153.585-.529.916-.346.3.163.126.586.129.888.014,2.026.031,4.052,0,6.077a4.78,4.78,0,0,1-3.033,4.688,4.5,4.5,0,0,1-1.533.32,1.7,1.7,0,0,0-1.658,1.46,1.819,1.819,0,0,0,1.481,1.722,4.732,4.732,0,0,0,1.922-.253,5.353,5.353,0,0,0,2.37-1.009c.252-.221.418-.118.445.2.013.157.008.317.008.475,0,5.126.017,10.252,0,15.377a9.315,9.315,0,0,1-1.834,5.709,8.63,8.63,0,0,1-8.138,3.612c-4.114-.418-6.709-2.82-7.995-6.709-.182-.552.241-.5.5-.569a10.119,10.119,0,0,0,5.761-3.844,9.413,9.413,0,0,0,1.913-4.662,13.551,13.551,0,0,0,.08-1.409,1.458,1.458,0,0,0-1.061-1.516,1.583,1.583,0,0,0-1.849.776,2.478,2.478,0,0,0-.256,1,7.089,7.089,0,0,1-5.381,6.553c-2.485.583-4.045-.8-5.484-2.471a4,4,0,0,1-.8-1.417" transform="translate(-35.097 -88.995)" fill="#f94853"/>
        <path id="Path_825132" data-name="Path 825132" d="M126.333,209.227c1.248,0,2.5.064,3.744-.011a23.526,23.526,0,0,0,5.153-.572,3.292,3.292,0,0,1,.679-.052,4.563,4.563,0,0,1,.312,1.321,10.117,10.117,0,0,0,7.293,7.732c.879.267.873.259.563,1.141a8.794,8.794,0,0,1-7.23,6.167,8.883,8.883,0,0,1-9.042-4.065,9.012,9.012,0,0,1-1.5-5.114c.036-2.182.018-4.366.023-6.548" transform="translate(-72.717 -120.089)" fill="#f94853"/>
        <path id="Path_825133" data-name="Path 825133" d="M176.137,179.116a9.869,9.869,0,0,1,1.794-1.32,39.611,39.611,0,0,0,5.474-4.444,36.452,36.452,0,0,0,6.285-8.148,1.194,1.194,0,0,1,.541-.474,11.713,11.713,0,0,1,.931,3.381,10.444,10.444,0,0,1-.512,4.863A10.777,10.777,0,0,1,182,180.486a7.487,7.487,0,0,1-4.169-.6,6.9,6.9,0,0,1-1.7-.766" transform="translate(-101.404 -94.837)" fill="#f94853"/>
        <path id="Path_825134" data-name="Path 825134" d="M106.376,39.969a.964.964,0,0,1,.814-.1,13.334,13.334,0,0,0,4.235.094,14.585,14.585,0,0,0,5.531-1.723,8.331,8.331,0,0,0,2.419-1.725c.258-.292.657-.455.941-.731a13.168,13.168,0,0,0,2.773-3.736,14.613,14.613,0,0,0,1.5-4.12,12.1,12.1,0,0,0,.016-5.251,1.33,1.33,0,0,1,.126-1.07,11.352,11.352,0,0,1,1.617,4.084,13.336,13.336,0,0,1,.318,2.948,13.5,13.5,0,0,1-10.438,12.913,12.451,12.451,0,0,1-3.043.4,12.714,12.714,0,0,1-6.812-1.977" transform="translate(-61.242 -12.438)" fill="#f94853"/>
        <path id="Path_825135" data-name="Path 825135" d="M22.408,67.276a.691.691,0,0,1,.6-.053,13.154,13.154,0,0,0,4.237.328,10.317,10.317,0,0,0,2.961-.527,23.367,23.367,0,0,0,2.9-1.1,16.22,16.22,0,0,0,2.357-1.643,17.851,17.851,0,0,0,2.8-2.843,14.557,14.557,0,0,0,2.549-5.85A11.966,11.966,0,0,0,40.855,50a3.666,3.666,0,0,1-.02-1.156,6.176,6.176,0,0,1,1.077,1.969,12.69,12.69,0,0,1,1,5.678,13.349,13.349,0,0,1-3.27,8.3,13.16,13.16,0,0,1-8.155,4.426,12.763,12.763,0,0,1-8.927-1.8.985.985,0,0,1-.15-.142" transform="translate(-12.901 -28.121)" fill="#6cf2be"/>
        <path id="Path_825136" data-name="Path 825136" d="M156.449,203.926a11.266,11.266,0,0,0,3.074-.866,12.808,12.808,0,0,0,1.928-.85.793.793,0,0,1,.46-.079,2.162,2.162,0,0,0,.817.993,13.527,13.527,0,0,0,5.623,2.061c.278.036.348.15.28.426a6.978,6.978,0,0,1-5.3,5.479,3.088,3.088,0,0,1-1.584-.2,7.221,7.221,0,0,1-5.2-6.03c-.031-.31-.2-.606-.1-.929" transform="translate(-90.051 -116.367)" fill="#f94853"/>
        <path id="Path_825137" data-name="Path 825137" d="M212.806,141.114a2.286,2.286,0,0,0,.561-.995,39.449,39.449,0,0,0,1.9-6.87,11.842,11.842,0,0,0,.258-2.5c-.017-.267.045-.452.357-.446a11.612,11.612,0,0,1,1.986,5.249,11,11,0,0,1-.508,4.658,12.525,12.525,0,0,1-2.3,4.123c-.238.294-.393.269-.535-.086a16.061,16.061,0,0,0-1.726-3.133" transform="translate(-122.515 -75.017)" fill="#f94853"/>
        <path id="Path_825138" data-name="Path 825138" d="M200.724,118.915l-.188-.016.076-.153.112.169" transform="translate(-115.451 -68.363)" fill="#f94853"/>
        <path id="Path_825139" data-name="Path 825139" d="M48.732,119.085l-.037.01-.036-.014.037-.022Z" transform="translate(-28.013 -68.543)" fill="#f94853"/>
        <path id="Path_825140" data-name="Path 825140" d="M198.733,44.64h3.17a3.455,3.455,0,0,1,1.175.19A1.541,1.541,0,0,1,204,46.49a1.5,1.5,0,0,1-1.474,1.317c-1.549.029-3.1.016-4.649.015-1.1,0-1.107,0-1.114,1.107,0,.827.016,1.654.031,2.482.006.375.16.556.58.544.932-.028,1.867-.024,2.8,0a3.794,3.794,0,0,1,3.118,1.555,3.4,3.4,0,0,1,.717,1.989,34.107,34.107,0,0,1-.017,3.486,3.534,3.534,0,0,1-3.521,3.406c-1.759.07-3.522.01-5.283.014a1.514,1.514,0,0,1-1.478-.869,1.492,1.492,0,0,1,.218-1.73,1.922,1.922,0,0,1,1.473-.57q2.272,0,4.544.006c.852,0,.932-.062.94-.931.008-.827-.034-1.656-.027-2.483,0-.471-.209-.679-.661-.682-.9-.006-1.8-.053-2.693-.009a3.784,3.784,0,0,1-3.912-3.639c-.043-1.709-.065-3.418.012-5.125a1.642,1.642,0,0,1,1.852-1.729c1.092-.013,2.184,0,3.276,0" transform="translate(-111.419 -25.698)"/>
        <path id="Path_825141" data-name="Path 825141" d="M32.924,53.606q0,3.591,0,7.182a1.591,1.591,0,0,1-1.436,1.693,1.571,1.571,0,0,1-1.7-1.506c-.054-.558-.023-1.126-.024-1.689,0-2.359-.011-4.719,0-7.078,0-.408-.109-.448-.454-.308a3.828,3.828,0,0,1-1.541.224,1.546,1.546,0,0,1-.336-3.072c.316-.074.651-.084.955-.189.971-.336,1.381-1.025,1.359-2.274a1.968,1.968,0,0,1,.276-1.1,1.567,1.567,0,0,1,2.891.827c.022,1.725.015,3.45.018,5.176,0,.7,0,1.408,0,2.113h-.014" transform="translate(-15.053 -25.778)"/>
        <path id="Path_825142" data-name="Path 825142" d="M117.42,27.8c-.076-.372-.326-.482-.678-.477-.6.01-1.2-.028-1.792,0a1.657,1.657,0,0,1-1.5-2.467,1.775,1.775,0,0,1,1.566-.755l.033.016.029-.021,1.634,0,.09-.014.232-.03.014.024.009-.026c.33-.014.39-.247.395-.506a26.663,26.663,0,0,0,0-2.713.537.537,0,0,0-.026-.427c-.039-.327-.291-.377-.541-.378-1.02-.006-2.04-.006-3.06.011-.342.006-.528.182-.526.569a1.52,1.52,0,0,1-2.766.857,2.218,2.218,0,0,1,.025-2.531,3.7,3.7,0,0,1,3.428-2.132,17.086,17.086,0,0,1,3.833.155,3.657,3.657,0,0,1,2.682,2.62,13.542,13.542,0,0,1,.165,2.617c.006.2-.074.423.078.609-.136.058-.136.113,0,.165-.143.165-.076.359-.073.545-.009.007-.028.015-.026.021a.384.384,0,0,0,.02.062,5.9,5.9,0,0,1-.549,1.863.562.562,0,0,0,0,.553,4.774,4.774,0,0,1,.549,1.875c-.009.008-.027.02-.025.024a.453.453,0,0,0,.032.058q0,1.422,0,2.844l-.031.036.023.041a3.818,3.818,0,0,1-1.826,3.153,3.519,3.519,0,0,1-1.726.545,21.181,21.181,0,0,1-3.99-.074,3.718,3.718,0,0,1-2.885-4.044,1.666,1.666,0,0,1,1.569-1.157,1.6,1.6,0,0,1,1.49,1.307c.117.753.208.842.98.828.877-.017,1.753-.056,2.629-.086a.1.1,0,0,0,.148-.015c.577-.136.346-.6.389-.955l.028-.032-.025-.033a18.6,18.6,0,0,0-.028-2.513l.028-.008Z" transform="translate(-63.408 -9.654)"/>
        <path id="Path_825143" data-name="Path 825143" d="M127.3,25.338a.536.536,0,0,1,.026.427c-.008-.143-.017-.285-.026-.427" transform="translate(-73.29 -14.587)" fill="#f94853"/>
        <path id="Path_825144" data-name="Path 825144" d="M134.991,31.157c-.139-.052-.14-.107,0-.165.081.054.082.109,0,.165" transform="translate(-77.655 -17.842)" fill="#f94853"/>
        <path id="Path_825145" data-name="Path 825145" d="M126.242,51.126a.1.1,0,0,1-.148.015l.148-.015" transform="translate(-72.594 -29.434)" fill="#f94853"/>
        <path id="Path_825146" data-name="Path 825146" d="M134.921,43.055a.427.427,0,0,1-.032-.057s.017-.016.025-.024a.055.055,0,0,1,.007.081" transform="translate(-77.657 -24.741)" fill="#f94853"/>
        <path id="Path_825147" data-name="Path 825147" d="M127.3,42.771l.028,0-.028.008v-.012" transform="translate(-73.288 -24.624)" fill="#f94853"/>
        <path id="Path_825148" data-name="Path 825148" d="M134.919,49.945,134.9,49.9l.032-.036a.053.053,0,0,1-.008.078" transform="translate(-77.661 -28.709)" fill="#f94853"/>
        <path id="Path_825149" data-name="Path 825149" d="M126.406,33.931l-.009.026-.013-.024.022,0" transform="translate(-72.761 -19.534)" fill="#f94853"/>
        <path id="Path_825150" data-name="Path 825150" d="M121.689,34.011l-.03.021-.032-.016.028-.035Z" transform="translate(-70.022 -19.563)" fill="#f94853"/>
        <path id="Path_825151" data-name="Path 825151" d="M127.342,48.722l.025.033-.028.032a.042.042,0,0,1,0-.065" transform="translate(-73.302 -28.05)" fill="#f94853"/>
        <path id="Path_825152" data-name="Path 825152" d="M134.917,32.747a.358.358,0,0,1-.02-.062c0-.006.017-.014.027-.021a.056.056,0,0,1-.006.083" transform="translate(-77.662 -18.805)" fill="#f94853"/>
        <path id="Path_825153" data-name="Path 825153" d="M125.714,34.009l-.09.014.09-.014" transform="translate(-72.323 -19.579)" fill="#f94853"/>
      </g>
    </g>
  </g>
</svg>
