<svg xmlns="http://www.w3.org/2000/svg" xmlns:xlink="http://www.w3.org/1999/xlink" width="147.449" height="154.576" viewBox="0 0 147.449 154.576">
  <defs>
    <clipPath id="clip-path">
      <ellipse id="Ellipse_5988" data-name="Ellipse 5988" cx="71.5" cy="73" rx="71.5" ry="73" transform="translate(295.292 1502.236)" fill="#fff" stroke="#707070" stroke-width="1"/>
    </clipPath>
  </defs>
  <g id="Group_1076206" data-name="Group 1076206" transform="translate(-294.842 -1524.999)">
    <g id="Group_1076205" data-name="Group 1076205" transform="translate(285 1508)">
      <g id="Group_1073322" data-name="Group 1073322" transform="translate(9.824 13)">
        <g id="Group_1074859" data-name="Group 1074859">
          <path id="Path_820877" data-name="Path 820877" d="M62.3,4.945c-.893.151-1.771.324-2.656.507a70.094,70.094,0,0,0-50.647,103.6,72.75,72.75,0,0,0,18.036,23.233q-.742,10.6-1.435,21.2c-.085,1.28-.1,2.564-.151,4.128.627-.416.973-.612,1.282-.855,5.786-4.512,11.6-9,17.336-13.566A72.959,72.959,0,1,0,62.3,4.945" transform="translate(0.003 0.964)" fill="#c1e29a"/>
        </g>
      </g>
    </g>
    <g id="Mask_Group_428" data-name="Mask Group 428" transform="translate(3.708 22.764)" clip-path="url(#clip-path)">
      <g id="Group_1074860" data-name="Group 1074860" transform="translate(328.067 1515.145)">
        <path id="Path_824425" data-name="Path 824425" d="M2422.346,805.833s-.5-5.209,2.1-5.031,3.29,1.428,3,2.429a28.5,28.5,0,0,1-2.82,4.313Z" transform="translate(-2359.837 -770.989)" fill="#ffb27d"/>
        <path id="Path_824426" data-name="Path 824426" d="M2276.967,847.363c-4.539.191-13.633-2.6-17.064-4.077a67.224,67.224,0,0,1-8.484-4.371q-.97-.59-1.848-1.171a43.072,43.072,0,0,1-9.072-7.634s11.6-10.507,16.284-7.756c5.492,3.229,14.96,13.661,16.559,12.59,1.8-1.206,6.826-15.991,6.826-15.991,3.308-.66,4.025,1.961,4.025,1.961s-.784,26.18-7.225,26.45" transform="translate(-2218.522 -784.828)" fill="#f99746"/>
        <path id="Path_824427" data-name="Path 824427" d="M2317.849,1407.066s-.476,5.763.688,6.362l14.885-.032s0-1.8-2.39-2.2-6.591-1.866-7.3-5.131-5.88,1-5.88,1" transform="translate(-2278.57 -1234.124)" fill="#233862"/>
        <path id="Path_824428" data-name="Path 824428" d="M2301.2,1056.065c-.073,3.768-.246,7.655-.585,11.148-1.608,16.576-2.173,36.6-2.4,40.464-.4,6.7-1.665,17.411-1.665,17.411s-2.508,2.493-7.4,1.3a181.766,181.766,0,0,1-4.954-31.662c-.014-.267-.029-.535-.041-.8-.1-2.147-.215-4.6-.327-7.249-.745-17.731-1.554-44.071-1.554-44.071l18.679-4.594s.429,8.658.246,18.052" transform="translate(-2250.997 -952.87)" fill="#2a4e96"/>
        <path id="Path_824429" data-name="Path 824429" d="M2301.2,1056.065c-4.734,8.554-13.756,24.313-17.371,30.613-.745-17.731-1.554-44.071-1.554-44.071l18.679-4.594s.429,8.658.246,18.052" transform="translate(-2250.997 -952.87)" fill="#233862"/>
        <path id="Path_824430" data-name="Path 824430" d="M2188.868,1102.5s-1.159,4.761-.969,5.82a21.451,21.451,0,0,0,2.028,5.531c.706.89.735-3.865,1.2-4.611s.215,1.775.592,1.981,1-1.91,1.282-2.661-1-3.362-1.121-5.234-3.015-.826-3.015-.826" transform="translate(-2177.622 -1002.086)" fill="#ffb27d"/>
        <path id="Path_824431" data-name="Path 824431" d="M2144.027,1382.377s-2.649,2.532-2.132,4.331,2.908,3,3.231,5.2,1.615,3.4,2.778,3.4h5.545s.856-1.547-1.211-2.014-2.847-3.051-2.718-5.449a44.285,44.285,0,0,0-.194-5.6l-4.394-1.066Z" transform="translate(-2141.828 -1215.985)" fill="#233862"/>
        <path id="Path_824432" data-name="Path 824432" d="M2196.521,1039.858s-17.485,39.183-26.79,56.375-12.213,21.99-12.213,21.99-5.331-2.2-5.815-3.7c0,0,3.558-33.19,9.79-41.281,3.521-4.572,7.656-18.292,7.851-23.089s4.279-16.249,4.279-16.249Z" transform="translate(-2149.503 -949.719)" fill="#2a4e96"/>
        <path id="Path_824433" data-name="Path 824433" d="M2244.132,874.859a30,30,0,0,1-15.368,8.356c-4.246.851-12.865,1.674-15-1.492-.5-.743-.506-1.844-.4-3.562.288-4.466,1.361-13.1-3.482-30.453a30.835,30.835,0,0,1-.931-4.638c-1.057-8.877,2.517-15.177,6.715-17.988,10.236-6.857,15.238-2.121,15.238-2.121s5.86,2.868,8.538,11.227c5.355,16.719,4.689,40.673,4.689,40.673" transform="translate(-2193.856 -786.759)" fill="#f99746"/>
        <path id="Path_824434" data-name="Path 824434" d="M2253.44,788.926s5.86,1.99,11.205-.311c0,0,1.031-.565.186-1.782a18.506,18.506,0,0,0,.085-1.924,29.337,29.337,0,0,0-.03-3.1l-3.938-2.687-3.736-2.575c.97,8.13-3.773,12.375-3.773,12.375" transform="translate(-2228.581 -752.398)" fill="#ffb27d"/>
        <path id="Path_824435" data-name="Path 824435" d="M2271.289,788.139s2.8,4.376,7.5,5.234c.065-1.984-.06-4.013-.06-4.013l-3.908-1.771Z" transform="translate(-2242.455 -760.861)" fill="#ed985f"/>
        <path id="Path_824436" data-name="Path 824436" d="M2271.537,741.721s-9.485,3.707-11.6-2.414-4.756-9.765,1.21-12.391,7.956-.731,9.142,1.132,3.656,12.55,1.243,13.672" transform="translate(-2231.732 -713.353)" fill="#ffb27d"/>
        <path id="Path_824437" data-name="Path 824437" d="M2239.185,714.347c-.109-.088-.331-.132-.792-.064a1.862,1.862,0,0,1,.806-.428,2.5,2.5,0,0,1,1.125-2.445,1.49,1.49,0,0,0-.469,1.173c1.009-1.624,3.535-3.176,11.165-4.11,10.055-1.23,8.044,6.084,6.911,7.141s-4.768-.446-7.118.247-2.123,4.4-2.84,5.064-.564-.279-1.758-.572-.939,1.632-.389,2.8-.649,3.114-.649,3.114l-1.845-1.4c-1.846-1.4-4.652-8.376-4.252-10.069.035-.15.07-.3.105-.453" transform="translate(-2216.885 -700.095)" fill="#2c3a64"/>
        <path id="Path_824438" data-name="Path 824438" d="M2214.02,948.439c.288-4.466,1.361-13.1-3.482-30.453a30.739,30.739,0,0,1-.931-4.638h0c3.6-1.243,10.154,1.521,10.154,1.521s1.541,22.937-5.742,33.57" transform="translate(-2194.51 -857.038)" fill="#ed7d2b"/>
        <path id="Path_824439" data-name="Path 824439" d="M2186.959,836.078a24.466,24.466,0,0,0-9.968,14.236c-2.082,8.054-5.3,20.035-5.688,23.782s3.927,25.682,3.927,25.682a2.7,2.7,0,0,0,2.1.152,3.463,3.463,0,0,0,2.091-1.31s1.031-14.62.765-21.523c-.111-2.868,12.677-21,19.578-23.341,2.711-.917-12.8-17.678-12.8-17.678" transform="translate(-2164.719 -798.039)" fill="#f99746"/>
        <path id="Path_824440" data-name="Path 824440" d="M2252.059,813.706s-1.24.635-3.645,3.986c0,0,4.479,5.883,10.944,5.115a23.594,23.594,0,0,1-.756-4.986s-5.4-.631-6.542-4.115" transform="translate(-2224.674 -780.887)" fill="#ed7d2b"/>
        <path id="Path_824441" data-name="Path 824441" d="M2294.154,823.13s3.453.944,4.282,3.544c0,0,.732-2.237.087-3.5a11.145,11.145,0,0,0-2.045-2.545s.471,1.6-2.323,2.5" transform="translate(-2260.227 -786.194)" fill="#ed7d2b"/>
        <path id="Path_824442" data-name="Path 824442" d="M2400.051,696.609a140.755,140.755,0,0,0-27.564,2.466L2370.944,695l-1.692-4.461s14.825-6.684,23.737-15.993Z" transform="translate(-2318.599 -674.191)" fill="#fff"/>
        <path id="Path_824443" data-name="Path 824443" d="M2474.915,673.154l7.347,22.715a2.068,2.068,0,0,0,1.287-2.648l-6.466-19.085a1.591,1.591,0,0,0-2.168-.982" transform="translate(-2400.728 -673.011)" fill="#f99746"/>
        <path id="Path_824444" data-name="Path 824444" d="M2405.955,760.548a140.747,140.747,0,0,0-27.564,2.466l-1.542-4.072c13.875-2.968,29.106,1.606,29.106,1.606" transform="translate(-2324.503 -738.13)" fill="#d7e1ff"/>
        <path id="Path_824445" data-name="Path 824445" d="M2369.22,743.22l-4,.737c.061,0-3.714.769-4.952-2.735a2.931,2.931,0,0,1-.237-.757c-.962-4.368,1.328-5.173,1.328-5.173l5.146-2.1,1.635,6.06v.022Z" transform="translate(-2311.249 -719.154)" fill="#f99746"/>
        <path id="Path_824446" data-name="Path 824446" d="M2370.87,763.137l-4,.737c.061,0-3.715.769-4.952-2.735,2.263-1.723,7.872-1.97,7.872-1.97v.022Z" transform="translate(-2312.899 -739.071)" fill="#ed7d2b"/>
        <path id="Path_824447" data-name="Path 824447" d="M2423.542,779.961h0a2.663,2.663,0,0,1-3.117-2.177l-2.53-13.256a2.781,2.781,0,0,1,2.078-3.264,2.664,2.664,0,0,1,3.117,2.177l2.53,13.256a2.78,2.78,0,0,1-2.078,3.264" transform="translate(-2356.369 -740.636)" fill="#d7e1ff"/>
        <path id="Path_824448" data-name="Path 824448" d="M2436.166,786.18s-1.956.816-1.6,1.719,2.846,2.143,3.239,1.43-.411-3.911-1.641-3.149" transform="translate(-2369.333 -759.692)" fill="#ffb27d"/>
        <path id="Path_824449" data-name="Path 824449" d="M2420.4,803.155A30.075,30.075,0,0,1,2420,800.1c-.023-.963-.289-1.691-.072-1.718s.336.141.424.45l.623,2.18-.171,1.853Z" transform="translate(-2357.924 -769.132)" fill="#ffb27d"/>
      </g>
    </g>
  </g>
</svg>
