<svg xmlns="http://www.w3.org/2000/svg" xmlns:xlink="http://www.w3.org/1999/xlink" width="193" height="193" viewBox="0 0 193 193">
  <defs>
    <clipPath id="clip-path">
      <rect id="Rectangle_378523" data-name="Rectangle 378523" width="193" height="193" fill="#fff" stroke="#707070" stroke-width="1"/>
    </clipPath>
    <clipPath id="clip-path-2">
      <rect id="Rectangle_378524" data-name="Rectangle 378524" width="176.667" height="157.913" fill="none"/>
    </clipPath>
  </defs>
  <g id="Mask_Group_430" data-name="Mask Group 430" clip-path="url(#clip-path)">
    <g id="Group_1074865" data-name="Group 1074865" transform="translate(8 18)">
      <g id="Group_1074864" data-name="Group 1074864" clip-path="url(#clip-path-2)">
        <path id="Path_824477" data-name="Path 824477" d="M148.877,214.714c-.332.3-.145.751-.334,1.117a2.865,2.865,0,0,1-2.88,1.439c-6.465.01-12.93-.013-19.4-.014q-25.6,0-51.2.006-33.576.006-67.15.051a8.069,8.069,0,0,1-5.861-2.287,6.312,6.312,0,0,1-1.987-4.439c-.084-3.7-.094-7.411.006-11.113a6.425,6.425,0,0,1,2.462-4.692,8.583,8.583,0,0,1,5.871-1.79q80.04.022,160.082.018c2.939,0,5.446.943,7.025,3.617a7.351,7.351,0,0,1,.928,2.923,79.53,79.53,0,0,1,.151,9.782,8.136,8.136,0,0,1-1.6,5.035,7.051,7.051,0,0,1-5.761,2.909c-3.7.04-7.411.022-11.116-.015a2.711,2.711,0,0,1-2.426-2.52c.31-1.817,1.258-2.61,3.231-2.619,3.42-.018,6.84,0,10.26-.007a2.035,2.035,0,0,0,2.28-2.131c.028-3.015.058-6.033-.031-9.047-.06-2.048-.876-2.749-2.819-2.75q-28.235-.015-56.47-.017c-.695,0-.934.159-.927.907.039,4.021.055,8.043-.01,12.064-.014.841.2.993.975.991,8.363-.024,16.726-.015,25.088-.015,2.788,0,5.575-.01,8.363,0a3.107,3.107,0,0,1,2.882,1.389c.238.381.05.865.369,1.2m-54.84-16.4-.006-.006c-.022-.107-.091-.1-.171-.071l-.366-.038a.123.123,0,0,0-.152,0q-5.989-.016-11.978-.026a1.954,1.954,0,0,0-.487.129l-.037-.027-.019.047c-.208.339-.437.667-.622,1.019-1.283,2.432-2.552,4.871-3.837,7.3-.944,1.787-1.906,3.566-2.9,5.421.21.021.343.047.478.047,4.163,0,8.327,0,12.49.018a.911.911,0,0,0,.9-.629c.695-1.35,1.427-2.681,2.117-4.033,1.523-2.981,3.212-5.877,4.607-8.924.1-.083.184-.166-.015-.23m-38.629,0-.006-.008c-.015-.115-.088-.1-.169-.076l-.366-.036a.123.123,0,0,0-.151,0c-3.76-.008-7.521.013-11.28-.042a1.789,1.789,0,0,0-1.864,1.108c-1.91,3.719-3.879,7.409-5.83,11.106-.287.545-.6,1.079-.928,1.68a3.681,3.681,0,0,0,.426.061c4.191,0,8.383,0,12.575.019.509,0,.689-.274.883-.648.939-1.8,1.913-3.589,2.839-5.4,1.29-2.52,2.736-4.961,3.879-7.556.1-.073.193-.147-.008-.21m-39.146,0c-.027-.084-.058-.162-.173-.119-1.319,0-2.639-.015-3.959-.014-1.55,0-3.1-.015-4.649.021A2.281,2.281,0,0,0,5.2,200.644c.062,3.1.035,6.2.016,9.295a2.141,2.141,0,0,0,1,1.843c.857.629,1.832.2,2.74.339a.969.969,0,0,0,1.13-.665c.628-1.285,1.331-2.533,2-3.8q2.254-4.3,4.5-8.6c.187-.359.461-.783-.318-.742m37.914,13.706a1.2,1.2,0,0,0,.275.083c4.251.007,8.5.006,12.753.023a.807.807,0,0,0,.772-.556q3.232-6.169,6.461-12.338c.507-.973.444-1.056-.624-1.056-3.791,0-7.582.013-11.373-.017a1.364,1.364,0,0,0-1.4.856c-1.169,2.3-2.385,4.574-3.591,6.855-1.08,2.041-2.169,4.078-3.271,6.15m-31.838.1v0c1.982,0,3.965-.022,5.946.013a1.068,1.068,0,0,0,1.125-.694c.633-1.284,1.331-2.538,2-3.806,1.5-2.869,3-5.741,4.509-8.606.334-.633.2-.865-.531-.862-3.935.016-7.87.008-11.8,0a1.035,1.035,0,0,0-1.035.591q-3.345,6.354-6.725,12.689c-.273.511-.218.685.4.677,2.039-.026,4.079-.01,6.118-.01m83.755-6.913h-.014c0-2.065-.019-4.13.012-6.195.009-.577-.132-.842-.752-.833-1.52.021-3.041.008-4.562-.01a.943.943,0,0,0-.947.577q-3.345,6.328-6.723,12.641c-.3.554-.127.743.491.741q5.9-.025,11.792,0c.567,0,.725-.171.716-.73-.031-2.064-.012-4.129-.012-6.194" transform="translate(0 -59.401)"/>
        <path id="Path_824478" data-name="Path 824478" d="M84.751,57.224c0-1.981-.049-3.964.015-5.944a5.048,5.048,0,0,1,1.781-3.471c1.236-1.178,2.84-1.32,4.449-1.449,2.593-.208,5.194-.336,7.776-.675a1.029,1.029,0,0,0,.939-.892,37.473,37.473,0,0,1,3.795-8.783.848.848,0,0,0-.189-1.112c-1.6-1.591-2.83-3.486-4.369-5.128A9.691,9.691,0,0,1,96.3,25.6a4.99,4.99,0,0,1,1.548-4.97c2.513-2.565,5.021-5.138,7.623-7.612,2.176-2.07,4.409-2.1,6.948-.612a25.976,25.976,0,0,1,3.64,2.943c1.258,1.083,2.52,2.161,3.761,3.262a.784.784,0,0,0,.946.108,51.679,51.679,0,0,1,9.367-3.874c.419-.129.5-.341.479-.662a23.7,23.7,0,0,1,.208-4.094,35.956,35.956,0,0,1,.673-6.044,5.333,5.333,0,0,1,5.45-4.032c3.363-.007,6.724-.024,10.085,0,2.351.02,4.364.722,5.457,3.026A9.833,9.833,0,0,1,153.2,6.48c.217,2.545.356,5.1.515,7.645a.914.914,0,0,0,.716.847,41.645,41.645,0,0,1,9.278,3.82.534.534,0,0,0,.734-.1c2.237-1.932,4.528-3.8,6.746-5.756a5.8,5.8,0,0,1,7.986.219c2.518,2.459,5.027,4.936,7.4,7.536,2.29,2.514,2.175,5.328-.17,7.956-1.815,2.034-3.406,4.259-5.351,6.183a.936.936,0,0,0-.151,1.246,37.981,37.981,0,0,1,3.716,9.123.8.8,0,0,0,.831.668q4.08.266,8.158.52a6.014,6.014,0,0,1,4.5,1.817,4.825,4.825,0,0,1,1.315,2.689,105.467,105.467,0,0,1,.142,12.278,5.483,5.483,0,0,1-5.477,5.113c-1.447-.012-2.9.451-4.349.441-1.4-.01-2.773.31-4.165.216-.515-.035-.735.111-.9.631a42.694,42.694,0,0,1-3.316,8.211c-.2.355-.294.75-.532,1.113-.47.715.334,1.1.672,1.47a73.645,73.645,0,0,1,5.639,6.68,5.388,5.388,0,0,1-.673,7.159c-2.42,2.455-4.89,4.861-7.3,7.324a6.235,6.235,0,0,1-3.631,1.812,5.258,5.258,0,0,1-4.087-1.28c-1.082-.9-2.219-1.755-3.273-2.671-.992-.86-1.968-1.77-2.927-2.684-1.017-.969-1.02-.952-2.224-.341a52.143,52.143,0,0,1-8.843,3.589c-.426.125-.433.454-.453.783-.119,1.925-.14,3.862-.379,5.772a21.633,21.633,0,0,1-.474,4.277,4.835,4.835,0,0,1-3.491,3.539c-.689.183-1.375.041-1.944.187-2.388.613-4.778.107-7.157.268-1.058.072-2.126.012-3.188.012a5.833,5.833,0,0,1-5.81-5.369c-.183-2.16-.283-4.333-.644-6.481a14.687,14.687,0,0,1-.027-2.318c0-.368-.093-.546-.543-.687a57.714,57.714,0,0,1-8.092-3.234c-.575-.282-1.112-1.049-1.7-.794a6.793,6.793,0,0,0-2.1,1.623,47.533,47.533,0,0,1-4.663,4.033,5.472,5.472,0,0,1-2.709,1.58c-1.372.152-2.648.4-4.03-.511a24.933,24.933,0,0,1-3.424-3.033c-1.871-1.782-3.752-3.561-5.507-5.455a5.2,5.2,0,0,1-.487-7.185c.831-1.189,1.942-2.14,2.777-3.314a34.061,34.061,0,0,1,3.378-3.869c.419-.433.142-.779-.042-1.15a51.988,51.988,0,0,1-3.424-7.91,2.2,2.2,0,0,1-.111-.4c-.09-.9-.482-1.186-1.467-1.255a52.746,52.746,0,0,1-6.057-.612c-1.031-.193-2.085-.009-3.144-.159a6.007,6.007,0,0,1-4.33-4.14c-.388-1.724-.1-3.472-.177-5.207-.026-.573,0-1.149,0-1.724Zm91.631,39.864q3.26-3.195,6.525-6.385c.411-.4.213-.667-.08-1.009q-3.365-3.923-6.7-7.868a3.465,3.465,0,0,1-.543-3.768,8.743,8.743,0,0,1,.47-1.013,41.982,41.982,0,0,0,4.089-9.911c.561-2.115,1.79-2.984,3.971-3.17,3.177-.271,6.361-.473,9.541-.71.368-.028.768-.037.768-.578q0-5.256,0-10.513c0-.244-.013-.428-.347-.46-.959-.091-1.913-.3-2.872-.323-2.415-.066-4.815-.3-7.217-.531a4.111,4.111,0,0,1-3.973-3.356,31.011,31.011,0,0,0-2.716-7.322c-.555-1.187-1.337-2.263-1.792-3.507a3.936,3.936,0,0,1,.539-3.716c.363-.545.906-.948,1.3-1.456,1.723-2.244,3.709-4.265,5.471-6.476.285-.359.3-.564,0-.86-.652-.644-1.341-1.257-1.936-1.95-1.44-1.679-3.165-3.065-4.7-4.65-.236-.249-.482-.487-.7-.748a.49.49,0,0,0-.8-.051c-2.431,2.005-4.881,3.988-7.168,6.159-.118.08-.237.157-.354.239-2.653,1.874-3.346,1.547-5.539.247a33.923,33.923,0,0,0-8.839-3.583c-2.169-.563-3.788-1.585-3.92-4.092A30.589,30.589,0,0,0,148.518,12a56.785,56.785,0,0,1-.434-5.76c-.059-.8-.4-1.066-1.09-1.066-2.181,0-4.362.014-6.543.022-1.117-.008-2.234,0-3.348-.034-.5-.016-.753.176-.792.661-.118,1.472-.26,2.943-.342,4.416a40.023,40.023,0,0,1-.795,7.461,6.857,6.857,0,0,1-3.639,2.079,50.33,50.33,0,0,0-10.07,4.369,2.6,2.6,0,0,1-2.184.174c-1.973-.743-3.3-2.323-4.865-3.584-1.056-.85-2.013-1.829-3.1-2.648-.491-.437-1-.856-1.468-1.315-.428-.418-.8-.215-1.108.095-2.3,2.3-4.575,4.626-6.894,6.907-.578.569-.588.953-.05,1.564,1.951,2.21,3.8,4.508,5.778,6.7,1.751,1.942,1.976,3.71.628,6a35.7,35.7,0,0,0-4.016,10.2,4.552,4.552,0,0,1-3.853,2.59c-2.2.2-4.407.382-6.611.571-1.038-.107-2.024.328-3.048.3-.588-.017-.733.217-.732.756q.009,4.949-.03,9.9a.753.753,0,0,0,.81.873c1.057.07,2.115.119,3.174.177,2.016.183,4.031.39,6.049.541,1.857.137,3.407.718,4.183,2.58a20.683,20.683,0,0,0,.568,2.232,55.055,55.055,0,0,0,3.754,8.474A4,4,0,0,1,108,82.206c-2.033,2.34-4.024,4.717-6.014,7.094-.882,1.054-.861,1.094.136,2.092q2.77,2.774,5.546,5.543c1.7,1.7,1.7,1.7,3.429.013a.265.265,0,0,0,.039-.076c.338-.263.687-.514,1.014-.791,1.75-1.485,3.491-2.98,5.241-4.465a3.823,3.823,0,0,1,4.521-.711c.847.428,1.7.848,2.543,1.283a37.514,37.514,0,0,0,7.733,3,5.114,5.114,0,0,1,2.74,1.676,6.177,6.177,0,0,1,.577,4.155.623.623,0,0,0,.1.475,5.36,5.36,0,0,1,.363,2.176c.144,1.8.338,3.593.48,5.391.036.453.226.589.648.579,1.174-.029,2.351-.035,3.525-.05,2.241.011,4.481.017,6.722.037.477,0,.653-.207.689-.667.227-3.042.509-6.08.7-9.123.169-2.684,1.146-3.97,3.755-4.712,1.157-.329,2.3-.684,3.435-1.1a58.757,58.757,0,0,0,6.766-3.172,3.56,3.56,0,0,1,4.035.458c.388.294.772.595,1.157.892a1.888,1.888,0,0,0,.217.261c1.909,1.638,3.835,3.255,5.724,4.913,1.32,1.159,1.384,1.177,2.521-.212a.385.385,0,0,0,.037-.078" transform="translate(-26.077 0)"/>
        <path id="Path_824479" data-name="Path 824479" d="M37.475,85.16c1.449,0,2.57,0,3.691,0,2.632.006,4.843.788,6.061,3.342a4.162,4.162,0,0,1,.451,1.8,21.044,21.044,0,0,0,.4,3.606,15.234,15.234,0,0,0,.237,2.259,1.166,1.166,0,0,0,.607.737q1.605.864,3.168,1.807a1.2,1.2,0,0,0,1.268.069c1.315-.643,2.631-1.307,3.959-1.891,2.1-.923,4.355-1.48,6.492.07a7.806,7.806,0,0,1,2.079,2.46q2.136,3.65,4.188,7.35a5.314,5.314,0,0,1-1.022,6.563c-1.6,1.418-3.4,2.545-5.112,3.8a1.426,1.426,0,0,0-.631,1.185c-.116,1.275.449,2.527.042,3.809-.161.505.364.723.684.961,1.362,1.011,2.712,2.044,4.127,2.978,2.864,1.89,3.325,5.106,1.689,7.979-1.409,2.474-2.855,4.928-4.311,7.375a5.7,5.7,0,0,1-7.263,2.17c-1.753-.86-3.61-1.506-5.392-2.307-.363-.164-.533-.008-.761.125-1.141.66-2.267,1.348-3.421,1.985a.6.6,0,0,0-.377.487c-.165,1-.242,2.008-.36,3.012-.224,1.9-.089,3.878-1.321,5.567a5.226,5.226,0,0,1-4.141,2.324,94.275,94.275,0,0,1-10.42-.024,5.253,5.253,0,0,1-4.407-4.42,46.605,46.605,0,0,1-.714-6.2.772.772,0,0,0-.431-.685q-1.755-1.027-3.541-2a1.244,1.244,0,0,0-1.141,0c-1.434.632-2.837,1.34-4.265,1.969a6.423,6.423,0,0,1-4.364.6,5.983,5.983,0,0,1-3.533-2.895c-1.423-2.516-2.894-5.006-4.342-7.508a5.478,5.478,0,0,1,1.916-7.636c1.472-.994,2.878-2.088,4.313-3.135a.741.741,0,0,0,.359-.8,10.489,10.489,0,0,1,0-3.962.73.73,0,0,0-.339-.8q-2.354-1.736-4.681-3.509a5.477,5.477,0,0,1-2.385-4.9,5.349,5.349,0,0,1,.711-2.219c1.508-2.808,3.029-5.617,4.731-8.309a5.025,5.025,0,0,1,3.757-2.36c1.586-.2,2.854.543,4.206,1.042,1.4.516,2.745,1.17,4.107,1.778A1.032,1.032,0,0,0,23.2,98.7a11.632,11.632,0,0,1,2.486-1.4,2.226,2.226,0,0,0,1.456-2.232c.138-1.714.288-3.429.507-5.133A5.385,5.385,0,0,1,32.415,85.3c1.8-.241,3.6-.024,5.06-.145M14.69,101.194c-.389-.012-.517.27-.658.512q-2.077,3.572-4.144,7.151c-.173.3-.289.6.029.846.706.558,1.416,1.112,2.15,1.633a44.512,44.512,0,0,1,4.233,3.1,2.057,2.057,0,0,1,.844,1.619,60.641,60.641,0,0,0,.021,7.1,3.159,3.159,0,0,1-1.661,3.12c-1.787,1.252-3.507,2.6-5.273,3.878a.837.837,0,0,0-.276,1.3c1.309,2.226,2.608,4.46,3.853,6.721a1.064,1.064,0,0,0,1.652.535c1.946-.919,3.918-1.78,5.889-2.644a2.872,2.872,0,0,1,3.108.019,24.291,24.291,0,0,0,5.821,3.3,2.386,2.386,0,0,1,1.531,2.025c.324,2.438.712,4.87.842,7.329.033.611.181.959.891.954q4.138-.032,8.275.009c.607.006.778-.24.832-.805.208-2.192.482-4.378.694-6.569a3.506,3.506,0,0,1,2.434-3.217,14.58,14.58,0,0,0,4.364-2.557,3.327,3.327,0,0,1,3.911-.478c1.939.912,3.926,1.723,5.859,2.648a1.083,1.083,0,0,0,1.656-.545c1.214-2.181,2.459-4.345,3.666-6.53a1.153,1.153,0,0,0-.35-1.683c-1.8-1.282-3.56-2.612-5.353-3.9a2.823,2.823,0,0,1-1.389-2.762c.085-.707.048-1.418.147-2.133a11.7,11.7,0,0,0-.019-3c-.3-2.489-.169-3.008,1.679-4.364,1.736-1.273,3.462-2.562,5.219-3.806.566-.4.62-.732.257-1.329-1.281-2.108-2.5-4.256-3.75-6.382-.755-1.279-.768-1.279-2.161-.671-1.991.869-3.973,1.759-5.968,2.62a2.424,2.424,0,0,1-2.473-.092,35.343,35.343,0,0,0-6.24-3.611,2.259,2.259,0,0,1-1.35-1.949c-.272-2.435-.582-4.866-.827-7.3-.06-.6-.236-.892-.869-.889q-4.051.02-8.1,0a.876.876,0,0,0-1,.907c-.228,2.166-.541,4.325-.7,6.5a3.306,3.306,0,0,1-2.184,3.184,20.565,20.565,0,0,0-5.205,2.955,2.644,2.644,0,0,1-2.844.279c-2.151-.925-4.245-1.984-6.453-2.778-.215-.078-.426-.166-.613-.24" transform="translate(-1.389 -26.211)"/>
        <path id="Path_824480" data-name="Path 824480" d="M198.323,217.016c-.319-.339-.131-.824-.369-1.2a3.107,3.107,0,0,0-2.882-1.389c-2.788-.015-5.575,0-8.363,0-8.363,0-16.725-.009-25.088.015-.77,0-.988-.151-.975-.992.065-4.02.05-8.042.01-12.063-.008-.748.232-.907.927-.907q28.235.023,56.47.017c1.942,0,2.758.7,2.819,2.751.089,3.014.059,6.031.03,9.047a2.035,2.035,0,0,1-2.28,2.131c-3.419,0-6.84-.011-10.259.006-1.972.01-2.921.8-3.231,2.62l-6.81-.027" transform="translate(-49.445 -61.704)" fill="#908190"/>
        <path id="Path_824481" data-name="Path 824481" d="M70.348,200.494l.366.036.169.076.006.008c0,.07,0,.14.008.21-1.144,2.6-2.59,5.036-3.879,7.556-.926,1.81-1.9,3.6-2.839,5.4-.2.374-.374.651-.883.648-4.192-.021-8.383-.015-12.575-.019a3.663,3.663,0,0,1-.426-.061c.332-.6.64-1.134.928-1.68,1.951-3.7,3.921-7.387,5.83-11.106a1.79,1.79,0,0,1,1.864-1.108c3.759.055,7.52.034,11.28.042.051.076.1.075.152,0" transform="translate(-15.48 -61.697)" fill="#fc7f86"/>
        <path id="Path_824482" data-name="Path 824482" d="M126.718,200.85c-1.4,3.047-3.084,5.943-4.607,8.925-.691,1.351-1.422,2.682-2.117,4.032a.91.91,0,0,1-.9.629c-4.164-.021-8.327-.014-12.491-.017-.134,0-.267-.026-.477-.048.993-1.856,1.955-3.634,2.9-5.421,1.285-2.432,2.554-4.871,3.836-7.3.186-.351.414-.68.622-1.019l.057-.02a1.947,1.947,0,0,1,.487-.129q5.989.005,11.978.026c.05.075.1.075.152,0l.366.037.171.071.006.006.015.23" transform="translate(-32.665 -61.706)" fill="#fc7f86"/>
        <path id="Path_824483" data-name="Path 824483" d="M78.266,214.319c1.1-2.071,2.192-4.108,3.271-6.15,1.206-2.281,2.422-4.555,3.591-6.855a1.363,1.363,0,0,1,1.4-.856c3.791.03,7.582.015,11.373.017,1.068,0,1.132.083.624,1.056q-3.219,6.175-6.46,12.338a.807.807,0,0,1-.772.556c-4.251-.017-8.5-.016-12.753-.023a1.19,1.19,0,0,1-.275-.083" transform="translate(-24.09 -61.699)" fill="#fd636e"/>
        <path id="Path_824484" data-name="Path 824484" d="M29.3,214.417c-2.039,0-4.079-.016-6.118.01-.62.008-.674-.166-.4-.677q3.38-6.336,6.726-12.689a1.035,1.035,0,0,1,1.034-.591c3.935,0,7.87.012,11.806,0,.726,0,.865.228.531.862-1.511,2.864-3.006,5.737-4.51,8.606-.665,1.269-1.362,2.522-2,3.806a1.067,1.067,0,0,1-1.124.694c-1.982-.035-3.964-.014-5.946-.014Z" transform="translate(-6.964 -61.702)" fill="#fd636e"/>
        <path id="Path_824485" data-name="Path 824485" d="M147.429,207.5c0,2.065-.019,4.13.012,6.194.008.559-.15.733-.716.73q-5.9-.031-11.792,0c-.618,0-.786-.187-.491-.741q3.366-6.318,6.723-12.641a.943.943,0,0,1,.947-.577c1.521.017,3.042.03,4.562.01.621-.009.761.257.752.833-.03,2.065-.012,4.13-.012,6.195Z" transform="translate(-41.337 -61.702)" fill="#fd636e"/>
        <path id="Path_824486" data-name="Path 824486" d="M18.571,200.62c.779-.041.5.384.317.742q-2.244,4.3-4.5,8.6c-.665,1.267-1.368,2.515-2,3.8a.968.968,0,0,1-1.129.665c-.91-.138-1.883.289-2.74-.339a2.141,2.141,0,0,1-1-1.843c.019-3.1.046-6.2-.016-9.295a2.281,2.281,0,0,1,2.285-2.441c1.549-.037,3.1-.021,4.649-.021,1.319,0,2.639.009,3.959.015l.173.118" transform="translate(-2.31 -61.708)" fill="#fc7f86"/>
        <path id="Path_824487" data-name="Path 824487" d="M23.415,200.623l-.173-.118c.114-.044.145.035.173.118" transform="translate(-7.154 -61.71)" fill="#fd636e"/>
        <path id="Path_824488" data-name="Path 824488" d="M79.2,200.5c-.051.075-.1.075-.152,0a.124.124,0,0,1,.152,0" transform="translate(-24.329 -61.705)" fill="#fd636e"/>
        <path id="Path_824489" data-name="Path 824489" d="M79.962,200.633l-.169-.077c.08-.028.153-.038.169.077" transform="translate(-24.56 -61.724)" fill="#fd636e"/>
        <path id="Path_824490" data-name="Path 824490" d="M116.814,200.653l-.057.021.019-.047Z" transform="translate(-35.937 -61.751)" fill="#fd636e"/>
        <path id="Path_824491" data-name="Path 824491" d="M135.766,200.633l-.171-.071c.08-.032.149-.036.171.071" transform="translate(-41.735 -61.725)" fill="#fd636e"/>
        <path id="Path_824492" data-name="Path 824492" d="M80.053,200.9c0-.07,0-.14-.008-.21.2.063.105.136.008.21" transform="translate(-24.637 -61.77)" fill="#fd636e"/>
        <path id="Path_824493" data-name="Path 824493" d="M135.867,200.913l-.015-.23c.2.064.113.147.015.23" transform="translate(-41.814 -61.769)" fill="#fd636e"/>
        <path id="Path_824494" data-name="Path 824494" d="M135,200.505c-.051.074-.1.075-.152,0a.122.122,0,0,1,.152,0" transform="translate(-41.505 -61.706)" fill="#fd636e"/>
        <path id="Path_824495" data-name="Path 824495" d="M144.453,7.5c2.18-.009,4.362-.023,6.542-.023.694,0,1.031.267,1.091,1.067a56.784,56.784,0,0,0,.433,5.76,30.578,30.578,0,0,1,.339,3.728c.132,2.507,1.751,3.53,3.921,4.093a33.914,33.914,0,0,1,8.839,3.583c2.193,1.3,2.887,1.627,5.538-.247.116-.082.237-.16.354-.239a2.229,2.229,0,0,0,3.072-.373c1.369-1.394,3.06-2.414,4.461-3.783.4-.389.584-.976,1.139-1.205,1.531,1.585,3.255,2.971,4.7,4.65.595.694,1.284,1.306,1.935,1.95.3.3.282.5,0,.86-1.762,2.211-3.746,4.231-5.47,6.476-.39.507-.932.911-1.3,1.456a3.933,3.933,0,0,0-.539,3.715c.455,1.244,1.236,2.32,1.792,3.507a31.023,31.023,0,0,1,2.716,7.322,4.113,4.113,0,0,0,3.974,3.357c2.4.231,4.8.464,7.217.53.959.026,1.912.233,2.871.323.335.031.348.215.348.459q0,5.257,0,10.514c0,.541-.4.55-.767.577-3.18.237-6.363.439-9.541.71-2.181.186-3.41,1.055-3.972,3.171a41.956,41.956,0,0,1-4.088,9.91,8.8,8.8,0,0,0-.47,1.013,3.464,3.464,0,0,0,.543,3.768q3.329,3.953,6.7,7.868c.294.342.491.61.08,1.009q-3.274,3.181-6.526,6.385a2.916,2.916,0,0,1-.5-.318c-1.745-1.67-3.633-3.172-5.5-4.7a1.654,1.654,0,0,0-2.5.132c-.385-.3-.768-.6-1.156-.892a3.561,3.561,0,0,0-4.035-.458,58.769,58.769,0,0,1-6.766,3.172c-1.131.419-2.277.775-3.435,1.1-2.61.741-3.586,2.027-3.755,4.712-.191,3.044-.473,6.081-.7,9.123-.034.46-.211.671-.688.667-2.241-.021-4.481-.026-6.722-.037a12.04,12.04,0,0,0-.165-1.438c-.037-2.623-.517-5.214-.561-7.839-.015-.881-.062-1.974-1.034-2.386a8.867,8.867,0,0,0-3.934-1.063,5.118,5.118,0,0,0-2.741-1.676,37.529,37.529,0,0,1-7.733-3c-.843-.435-1.7-.856-2.542-1.283a3.825,3.825,0,0,0-4.521.711c-1.749,1.486-3.491,2.981-5.241,4.466-.327.277-.676.528-1.014.791a.968.968,0,0,1-.307-.133c-1.517-1.484-3.084-2.924-4.524-4.479a2.786,2.786,0,0,1-.053-4.039c1.856-2.246,3.746-4.464,5.645-6.674,1.606-1.868,1.574-1.833.451-4.162a54.37,54.37,0,0,1-3.878-9.622,1.449,1.449,0,0,0-1.205-1.2,7.052,7.052,0,0,0-3.141-.046c-.776-1.862-2.326-2.442-4.183-2.58-2.018-.15-4.033-.358-6.049-.541a4.1,4.1,0,0,0,.172-1.262q-.016-4.287,0-8.575a4.52,4.52,0,0,0-.345-2.165c2.2-.189,4.409-.366,6.611-.571a4.553,4.553,0,0,0,3.854-2.589,3.051,3.051,0,0,0,1.436.19c2.324-.332,2.63-.094,3.219-2.509.108-.444.195-.9.342-1.326a47.442,47.442,0,0,1,3.582-8.07c.692-1.221.583-1.652-.306-2.7-1.841-2.179-3.682-4.36-5.5-6.559-.381-.46-.716-.962-1.075-1.441-.74-.986-.462-2.437.656-3.554,1.031-1.031,2.155-1.976,3.133-3.054a2.782,2.782,0,0,1,1.642-1.119c1.089.82,2.045,1.8,3.1,2.648,1.565,1.26,2.891,2.84,4.865,3.583a2.594,2.594,0,0,0,2.184-.174,50.376,50.376,0,0,1,10.07-4.369A6.866,6.866,0,0,0,139.177,20a6.7,6.7,0,0,0,3.144-.651c1.218-.363,1.353-.59,1.445-1.834.07-.95.158-1.9.224-2.849a66,66,0,0,0,.464-7.17M126.817,39.385c-.566.006-.918-.494-1.492-.568-1.6-.209-2.464.81-3.276,1.862a31.7,31.7,0,0,0-4.852,8.907,28.91,28.91,0,0,0-1.595,8.334,30.073,30.073,0,0,0,1.546,11.564,30.567,30.567,0,0,0,16.4,18.128,29.325,29.325,0,0,0,10.187,2.72,31.289,31.289,0,0,0,24.157-9,30.138,30.138,0,0,0,8.785-18.156,28.125,28.125,0,0,0,.053-6.233,34.372,34.372,0,0,0-1.2-6.249,30.233,30.233,0,0,0-9.445-14.285,30.571,30.571,0,0,0-18.96-7.4,29.212,29.212,0,0,0-7.885.751,27.7,27.7,0,0,0-5.873,2.024,2.994,2.994,0,0,0-1.3,1.289c-.463.8-.019,1.551-.04,2.322a29.3,29.3,0,0,0-5.212,3.985" transform="translate(-30.078 -2.3)" fill="#908190"/>
        <path id="Path_824496" data-name="Path 824496" d="M111.52,96.02a7.049,7.049,0,0,1,3.14.046,1.447,1.447,0,0,1,1.205,1.2,54.481,54.481,0,0,0,3.878,9.622c1.123,2.329,1.155,2.294-.451,4.163-1.9,2.209-3.79,4.427-5.645,6.674a2.786,2.786,0,0,0,.053,4.038c1.44,1.556,3.007,2.994,4.524,4.479a1,1,0,0,0,.307.133.27.27,0,0,1-.039.075c-1.728,1.686-1.729,1.686-3.429-.013q-2.774-2.77-5.546-5.543c-1-1-1.018-1.038-.136-2.092,1.989-2.377,3.981-4.755,6.014-7.094a4,4,0,0,0,.447-4.981,55.046,55.046,0,0,1-3.754-8.474,20.5,20.5,0,0,1-.568-2.232" transform="translate(-33.47 -29.502)" fill="#796c78"/>
        <path id="Path_824497" data-name="Path 824497" d="M118.732,25.445a2.791,2.791,0,0,0-1.642,1.119c-.978,1.078-2.1,2.023-3.133,3.053-1.117,1.118-1.4,2.568-.656,3.554.36.48.695.981,1.075,1.441,1.818,2.2,3.658,4.379,5.5,6.559.889,1.052,1,1.483.306,2.7a47.476,47.476,0,0,0-3.581,8.072c-.147.43-.235.882-.343,1.325-.59,2.416-.9,2.177-3.219,2.51a3.061,3.061,0,0,1-1.436-.191,35.713,35.713,0,0,1,4.016-10.2c1.348-2.291,1.123-4.059-.627-6-1.974-2.189-3.827-4.487-5.778-6.7-.539-.61-.529-.995.049-1.563,2.319-2.281,4.591-4.609,6.894-6.908.311-.31.68-.512,1.108-.094.469.458.977.878,1.468,1.315" transform="translate(-33.493 -7.354)" fill="#796c78"/>
        <path id="Path_824498" data-name="Path 824498" d="M157.257,139.937A8.846,8.846,0,0,1,161.191,141c.972.411,1.02,1.5,1.035,2.385.043,2.626.523,5.216.561,7.84a12.157,12.157,0,0,1,.165,1.438c-1.175.015-2.351.021-3.527.05-.422.01-.611-.126-.647-.579-.143-1.8-.336-3.593-.48-5.391a5.384,5.384,0,0,0-.364-2.176.626.626,0,0,1-.1-.475,6.177,6.177,0,0,0-.577-4.155" transform="translate(-48.402 -43.069)" fill="#796c78"/>
        <path id="Path_824499" data-name="Path 824499" d="M162.886,7.491a66,66,0,0,1-.464,7.171c-.066.948-.154,1.9-.224,2.848-.091,1.245-.226,1.472-1.445,1.834a6.7,6.7,0,0,1-3.144.651,40.088,40.088,0,0,0,.794-7.462c.083-1.474.225-2.944.343-4.416.039-.485.291-.677.791-.66,1.115.036,2.232.026,3.349.034" transform="translate(-48.511 -2.295)" fill="#796c78"/>
        <path id="Path_824500" data-name="Path 824500" d="M96.028,74.243a4.52,4.52,0,0,1,.346,2.165q-.021,4.287,0,8.575a4.081,4.081,0,0,1-.172,1.262c-1.058-.057-2.116-.107-3.173-.177a.755.755,0,0,1-.811-.874q.046-4.949.031-9.9c0-.539.144-.772.732-.755,1.024.029,2.011-.406,3.048-.3" transform="translate(-28.384 -22.846)" fill="#796c78"/>
        <path id="Path_824501" data-name="Path 824501" d="M204.861,132.919a1.654,1.654,0,0,1,2.495-.132c1.865,1.527,3.755,3.028,5.5,4.7a2.894,2.894,0,0,0,.5.318.35.35,0,0,1-.037.078c-1.137,1.389-1.2,1.371-2.521.212-1.889-1.659-3.815-3.276-5.724-4.914a1.887,1.887,0,0,1-.217-.261" transform="translate(-63.055 -40.716)" fill="#796c78"/>
        <path id="Path_824502" data-name="Path 824502" d="M212.993,24.928c-.555.229-.741.816-1.139,1.205-1.4,1.368-3.092,2.388-4.461,3.782a2.227,2.227,0,0,1-3.072.373c2.287-2.171,4.737-4.154,7.168-6.159a.49.49,0,0,1,.8.051c.222.26.467.5.7.748" transform="translate(-62.888 -7.37)" fill="#796c78"/>
        <path id="Path_824503" data-name="Path 824503" d="M17,103.52c.187.073.4.162.613.24,2.208.793,4.3,1.853,6.453,2.778a2.644,2.644,0,0,0,2.844-.279,20.549,20.549,0,0,1,5.2-2.955,3.306,3.306,0,0,0,2.184-3.184c.156-2.171.47-4.33.7-6.5a.876.876,0,0,1,1-.907q4.051.015,8.1,0c.633,0,.809.289.869.889.245,2.438.555,4.869.827,7.3a2.258,2.258,0,0,0,1.35,1.948,35.365,35.365,0,0,1,6.24,3.612,2.426,2.426,0,0,0,2.473.092c1.994-.861,3.977-1.751,5.968-2.62,1.393-.608,1.407-.608,2.161.671,1.254,2.126,2.468,4.274,3.75,6.382.363.6.308.928-.258,1.329-1.757,1.244-3.482,2.532-5.219,3.806-1.847,1.355-1.976,1.874-1.679,4.364a11.7,11.7,0,0,1,.019,3c-.1.715-.062,1.426-.147,2.133a2.82,2.82,0,0,0,1.388,2.761c1.793,1.289,3.556,2.619,5.353,3.9a1.153,1.153,0,0,1,.35,1.683c-1.207,2.185-2.452,4.348-3.666,6.53a1.083,1.083,0,0,1-1.656.545c-1.933-.925-3.92-1.736-5.859-2.648a3.326,3.326,0,0,0-3.911.478,14.58,14.58,0,0,1-4.364,2.557,3.506,3.506,0,0,0-2.434,3.216c-.211,2.192-.485,4.378-.694,6.57-.053.566-.225.811-.832.805q-4.138-.039-8.275-.009c-.71.006-.858-.343-.891-.954-.131-2.459-.518-4.891-.842-7.329a2.385,2.385,0,0,0-1.531-2.025,24.291,24.291,0,0,1-5.821-3.3,2.872,2.872,0,0,0-3.108-.019c-1.971.863-3.944,1.725-5.889,2.644a1.063,1.063,0,0,1-1.652-.535c-1.246-2.262-2.545-4.5-3.854-6.721a.837.837,0,0,1,.276-1.3c1.766-1.282,3.487-2.626,5.273-3.878a3.158,3.158,0,0,0,1.661-3.12,60.8,60.8,0,0,1-.021-7.1,2.058,2.058,0,0,0-.844-1.618,44.432,44.432,0,0,0-4.234-3.1c-.734-.521-1.444-1.075-2.15-1.633-.318-.251-.2-.549-.029-.846q2.075-3.574,4.144-7.151c.141-.241.269-.523.658-.511m18.1,28.416c0,2.441.625,3.144,3.061,3.613a10.7,10.7,0,0,0,4.5-.142,13.258,13.258,0,1,0-10.4-23.767,12.742,12.742,0,0,0-5.412,12.343c.259,2.391,1.027,3.116,3.3,3.174.081.415.469.613.669.948a10.117,10.117,0,0,0,3.125,3.255c.374.251.654.618,1.162.577" transform="translate(-3.703 -28.537)" fill="#796c78"/>
        <path id="Path_824504" data-name="Path 824504" d="M137.011,51.251a29.319,29.319,0,0,1,5.211-3.985.989.989,0,0,1,.307.14c1.258,1.254,2.023,1.438,3.605.744a26.02,26.02,0,0,1,8.9-2.082,25.11,25.11,0,0,1,7.847.812A25.523,25.523,0,0,1,181.9,70.755,24.83,24.83,0,0,1,177.911,85.2c-4.531,7.237-11.252,10.942-19.59,11.829a21.993,21.993,0,0,1-7.161-.464,25.54,25.54,0,0,1-20.122-21.9,22.8,22.8,0,0,1-.053-5.554A26.446,26.446,0,0,1,136.3,55.7c1.789-2.372,1.472-2.129.712-4.447m31.6,20.238c.123-6.665-5.8-12.164-12.041-12.161a12.242,12.242,0,1,0,12.041,12.161" transform="translate(-40.272 -14.166)" fill="#796c78"/>
        <path id="Path_824505" data-name="Path 824505" d="M134.749,48.95c.76,2.318,1.077,2.075-.712,4.447a26.436,26.436,0,0,0-5.313,13.415,22.8,22.8,0,0,0,.052,5.555,25.54,25.54,0,0,0,20.122,21.9,21.993,21.993,0,0,0,7.161.464c8.338-.887,15.059-4.592,19.59-11.829a25.387,25.387,0,0,0-.451-28.048,24.825,24.825,0,0,0-14.577-10.275,25.13,25.13,0,0,0-7.847-.811,26.013,26.013,0,0,0-8.9,2.082c-1.582.694-2.347.51-3.606-.745a.984.984,0,0,0-.306-.139c.021-.77-.423-1.526.04-2.322a2.994,2.994,0,0,1,1.3-1.289,27.7,27.7,0,0,1,5.873-2.024,29.213,29.213,0,0,1,7.885-.751,30.571,30.571,0,0,1,18.96,7.4,30.233,30.233,0,0,1,9.445,14.285,34.374,34.374,0,0,1,1.2,6.249,28.125,28.125,0,0,1-.053,6.233A30.138,30.138,0,0,1,175.826,90.9a31.289,31.289,0,0,1-24.157,9,29.325,29.325,0,0,1-10.187-2.72,30.567,30.567,0,0,1-16.4-18.128,30.073,30.073,0,0,1-1.546-11.564,28.91,28.91,0,0,1,1.595-8.334,31.705,31.705,0,0,1,4.852-8.907c.812-1.052,1.674-2.071,3.276-1.862.575.075.926.575,1.492.568" transform="translate(-38.01 -11.865)"/>
        <path id="Path_824506" data-name="Path 824506" d="M36.7,134.448c-2.27-.058-3.038-.784-3.3-3.174a12.743,12.743,0,0,1,5.411-12.343,13.258,13.258,0,1,1,10.4,23.767,10.7,10.7,0,0,1-4.5.142c-2.436-.469-3.055-1.172-3.061-3.613.46-.444.676-1.1,1.363-1.355a5.9,5.9,0,0,1,2.514-.023,8.085,8.085,0,0,0,7.438-3.213,7.872,7.872,0,0,0,1.13-7.775,8.134,8.134,0,0,0-7.784-5.246,8.25,8.25,0,0,0-7.678,5.7,5.386,5.386,0,0,0-.278,3.045c.5,2.183.026,3.158-1.66,4.085" transform="translate(-10.251 -35.829)"/>
        <path id="Path_824507" data-name="Path 824507" d="M174.542,77.4A12.218,12.218,0,1,1,162.5,65.243c6.244,0,12.164,5.5,12.04,12.161m-12.4,7.141c4.573-.017,7.331-2.837,7.184-7.7-.1-3.446-2.9-6.253-6.987-6.464-3.739-.194-7.326,3.452-7.142,7.479.152,3.336,3.674,7.072,6.945,6.682" transform="translate(-46.201 -20.081)"/>
      </g>
    </g>
  </g>
</svg>
