<svg xmlns="http://www.w3.org/2000/svg" xmlns:xlink="http://www.w3.org/1999/xlink" width="193" height="193" viewBox="0 0 193 193">
  <defs>
    <clipPath id="clip-path">
      <rect id="Rectangle_378526" data-name="Rectangle 378526" width="193" height="193" fill="#fff" stroke="#707070" stroke-width="1"/>
    </clipPath>
    <clipPath id="clip-path-2">
      <rect id="Rectangle_378527" data-name="Rectangle 378527" width="169" height="168.952" fill="none"/>
    </clipPath>
  </defs>
  <g id="Mask_Group_431" data-name="Mask Group 431" clip-path="url(#clip-path)">
    <g id="Group_1074867" data-name="Group 1074867" transform="translate(12 12)">
      <g id="Group_1074866" data-name="Group 1074866" clip-path="url(#clip-path-2)">
        <path id="Path_824508" data-name="Path 824508" d="M3.832,51.542c-.354-1.952.053-3.946-.328-5.9,1.173-.069,2.366-.876,2.451-1.779.074-.782.14-1.573.163-2.357.057-1.979.047-3.961-.01-5.941-.019-.681.137-.854.833-.853q23.025.035,46.051.025c.28,0,.715-.179.808.131a1.219,1.219,0,0,1-.3.858,43.85,43.85,0,0,0-3.783,6.43,1.455,1.455,0,0,1-1.512.926q-14.36-.049-28.719-.065a5.822,5.822,0,0,0-2,.291,2.461,2.461,0,0,0-1.6,2.586,2.6,2.6,0,0,0,2.255,2.016c.44.013.88.024,1.32.024q13.451,0,26.9-.006c.634,0,.869.032.59.806a43.275,43.275,0,0,0-1.33,4.61c-.14.586-.363.743-.929.742q-12.957-.039-25.912-.046a3.852,3.852,0,0,0-1.431.3,2.521,2.521,0,0,0-1.465,2.281,2.639,2.639,0,0,0,2.031,2.23,25.332,25.332,0,0,0,4.281.113c7.152.016,14.3,0,21.457.007.4,0,.978-.161.774.611a29.683,29.683,0,0,0-.446,4.607c-.078.747-.242.927-.965.925-8.06-.023-16.12-.011-24.181-.022a3.541,3.541,0,0,0-1.269.22,2.434,2.434,0,0,0-1.65,1.968A2.333,2.333,0,0,0,16.936,69.4a3.385,3.385,0,0,0,2.267.62Q30.922,70,42.641,70.01h1.695c-.967.481-.179.782-.164,1.149a16.971,16.971,0,0,0,.3,3.178c.619,2.621.955,5.3,1.769,7.883.464,1.472.9,2.971,1.459,4.392.468,1.2,1.035,2.388,1.56,3.583.319.729-.038.672-.54.676a17.274,17.274,0,0,0-3.916.179,2.617,2.617,0,0,0-1.792,1.871c-.034.7-.013,1.4-.013,2.1q0,32.967.013,65.936a46.613,46.613,0,0,0,.113,6.181,2.156,2.156,0,0,0,1.476,1.788,4.75,4.75,0,0,0,1.761.25q8.708,0,17.414-.006c.549,0,1.1-.02,1.648-.066a2.258,2.258,0,0,0,2.153-1.973,6.354,6.354,0,0,0,.121-1.379q-.014-26.575-.025-53.15c0-.2-.093-.48.133-.6s.4.117.574.231a39.852,39.852,0,0,0,5.487,3.211,1.3,1.3,0,0,1,.861,1.37q-.042,17.37-.026,34.742c.007,5.112-.076,10.224.042,15.337a2.408,2.408,0,0,0,2.232,2.3c4.811.014,9.621-.018,14.432-.011,1.537,0,3.074.016,4.612.058,2.246.062,3.363-.836,3.365-3.157q.014-20.55.005-41.1c0-.963.023-1.926,0-2.888-.009-.377.087-.491.486-.554a16.19,16.19,0,0,1,1.873-.151,14.277,14.277,0,0,0,2.111-.131c1.253-.237,1.359-.093,1.359,1.183q0,16.094-.007,32.188,0,2.145.005,4.291a2.689,2.689,0,0,0,2.278,2.933,25.323,25.323,0,0,1,0,5.9,2.251,2.251,0,0,0-2.184,2.094,46.468,46.468,0,0,0-.074,5.675c-.028.05-.055.1-.082.152-1.017.017-2.034.049-3.051.049q-47.286.009-94.572.011c-1.561,0-1.559,0-1.4-1.5a5.6,5.6,0,0,0,0-.578V59.845c0-1.871.017-3.742-.011-5.612a2.488,2.488,0,0,0-2.291-2.691m8.134,87.949h0c0,5.392-.027,10.783.009,16.174.026,3.794-.157,7.591.106,11.382a2.372,2.372,0,0,0,2.071,2.062,30.655,30.655,0,0,0,3.216.058q8.047.009,16.094,0c2.334,0,3.194-.9,3.2-3.074q.015-26,.007-52a6.208,6.208,0,0,0-.129-1.557,2.239,2.239,0,0,0-1.731-1.676,8.022,8.022,0,0,0-1.942-.184c-5.859-.013-11.719,0-17.578-.017a9.451,9.451,0,0,0-1.762.264c-.542.1-1.631,1.243-1.565,1.707a15.979,15.979,0,0,1,0,2.267q.025,12.3.01,24.592M27.69,80.967v-.011c3.024,0,6.049.014,9.072-.007a2.408,2.408,0,0,0,2.405-1.828,2.365,2.365,0,0,0-1.534-2.847,6.837,6.837,0,0,0-1.864-.218q-8.166-.025-16.331-.007a8.271,8.271,0,0,0-1.476.122,2.662,2.662,0,0,0-2.077,2.354,2.728,2.728,0,0,0,1.842,2.291,4.083,4.083,0,0,0,1.3.15q4.329,0,8.66,0" transform="translate(-1.183 -11.71)" fill="#d7d4ed"/>
        <path id="Path_824509" data-name="Path 824509" d="M106.317,150.141a2.688,2.688,0,0,1-2.278-2.933q-.007-2.145-.005-4.291,0-16.094.007-32.187c0-1.277-.106-1.42-1.359-1.183a14.261,14.261,0,0,1-2.11.13,16.167,16.167,0,0,0-1.873.151c-.4.064-.495.178-.486.555.022.962,0,1.925,0,2.888q0,20.55-.005,41.1c0,2.321-1.119,3.218-3.365,3.157-1.538-.042-3.075-.056-4.611-.058-4.811-.007-9.622.025-14.433.011a2.408,2.408,0,0,1-2.232-2.3c-.119-5.112-.036-10.225-.042-15.337q-.023-17.371.026-34.742a1.3,1.3,0,0,0-.861-1.37,39.718,39.718,0,0,1-5.487-3.211c-.172-.114-.344-.352-.574-.231s-.132.4-.132.6q.007,26.575.024,53.15a6.36,6.36,0,0,1-.121,1.38,2.258,2.258,0,0,1-2.153,1.973c-.547.046-1.1.065-1.648.066q-8.707.008-17.413.006a4.74,4.74,0,0,1-1.761-.25,2.153,2.153,0,0,1-1.475-1.787,46.508,46.508,0,0,1-.114-6.182q-.025-32.968-.013-65.936c0-.7-.021-1.4.013-2.1a2.615,2.615,0,0,1,1.793-1.871,17.229,17.229,0,0,1,3.916-.179c.5,0,.86.052.54-.676-.525-1.194-1.091-2.384-1.56-3.583-.555-1.42-.994-2.92-1.458-4.391-.815-2.583-1.151-5.263-1.77-7.884a16.915,16.915,0,0,1-.3-3.178c-.015-.368-.8-.668.164-1.149H41.463q-11.719,0-23.438.013a3.382,3.382,0,0,1-2.266-.619,2.334,2.334,0,0,1-1.018-2.119,2.435,2.435,0,0,1,1.65-1.968,3.529,3.529,0,0,1,1.269-.219c8.061.011,16.121,0,24.181.021.723,0,.887-.178.965-.925a29.674,29.674,0,0,1,.446-4.607c.2-.772-.369-.611-.773-.611-7.152,0-14.3.009-21.457-.007a25.4,25.4,0,0,1-4.281-.112,2.641,2.641,0,0,1-2.031-2.23,2.522,2.522,0,0,1,1.465-2.281,3.838,3.838,0,0,1,1.431-.3q12.957.021,25.912.045c.566,0,.789-.155.929-.741a43.074,43.074,0,0,1,1.329-4.61c.279-.774.044-.806-.59-.806q-13.452.016-26.9.006c-.44,0-.88-.012-1.32-.025a2.6,2.6,0,0,1-2.254-2.015A2.459,2.459,0,0,1,16.3,31.6a5.809,5.809,0,0,1,2-.291q14.36.028,28.719.064a1.455,1.455,0,0,0,1.512-.925,43.815,43.815,0,0,1,3.783-6.43,1.225,1.225,0,0,0,.3-.859c-.093-.309-.529-.13-.808-.13q-23.025-.014-46.051-.025c-.7,0-.853.172-.833.853.057,1.979.067,3.962.01,5.942-.023.783-.089,1.574-.163,2.357-.085.9-1.278,1.71-2.451,1.779a2.648,2.648,0,0,1-2.3-2.7C.015,27.859.035,24.476.014,21.093A2.764,2.764,0,0,1,3.1,18.065c17.409.023,34.818.007,52.226.054a3.291,3.291,0,0,0,2.809-1.23,35.927,35.927,0,0,1,5.138-4.841,61.007,61.007,0,0,1,8.192-5.423,55.079,55.079,0,0,1,11-4.5,58.017,58.017,0,0,1,9.7-1.882,53.881,53.881,0,0,1,8.952-.121,51.109,51.109,0,0,1,13.068,2.447,53.754,53.754,0,0,1,11.782,5.316A58.875,58.875,0,0,1,136.54,16.1a2.478,2.478,0,0,1-.031,3.62c-.3.072-.456.359-.751.479a2.5,2.5,0,0,1-2.743-.789,70.524,70.524,0,0,0-7.221-5.94,47.653,47.653,0,0,0-9.98-5.168,50.762,50.762,0,0,0-20.05-3.291,52.665,52.665,0,0,0-6.573.643,49.471,49.471,0,0,0-30.454,17.89,51.463,51.463,0,0,0-8.424,15.494A50.779,50.779,0,0,0,47.946,50.36a27.98,27.98,0,0,0-.085,7.262c.161.987.074,2.013.211,3a57.813,57.813,0,0,0,1.571,7.726A48.913,48.913,0,0,0,58.7,86.059,52.372,52.372,0,0,0,72.32,97.905a47.961,47.961,0,0,0,12.563,5.272,51.264,51.264,0,0,0,8.828,1.508,43.032,43.032,0,0,0,8.313.008,63.932,63.932,0,0,0,7.283-1.257A48.385,48.385,0,0,0,141.73,78.321a50.022,50.022,0,0,0,5.712-28.081,52.812,52.812,0,0,0-2.391-11.56,48.3,48.3,0,0,0-5.121-10.659c-1.013-1.6-1.006-2.386.062-3.852,1.667-.864,2.9-.539,3.814.933a48.656,48.656,0,0,1,5.322,10.875c.261.827.678,1.618.894,2.471a66.13,66.13,0,0,1,1.884,8.255,63.179,63.179,0,0,1,.621,10.655,53.559,53.559,0,0,1-1.088,8.329,69.267,69.267,0,0,1-2.2,7.93,48.725,48.725,0,0,1-5.285,10.72c-.688,1.079-1.4,2.145-2.169,3.17-.348.466-.36.729.068,1.155q8.211,8.183,16.386,16.4,4.139,4.146,8.288,8.281A7.351,7.351,0,0,1,169,118.755a7.447,7.447,0,0,1-4.151,6.691,8.154,8.154,0,0,1-4.8.682c-1.041-.06-1.926-.9-2.829-1.487a10.825,10.825,0,0,1-1.7-1.526q-11.989-11.988-23.964-23.989c-.484-.487-.744-.525-1.327-.094a55.113,55.113,0,0,1-12,6.721,57.629,57.629,0,0,1-8.207,2.511c-1,.243-1.089.6-1.088,1.434q.032,18.481.016,36.963a5.918,5.918,0,0,1-.307,1.895c-.377,1.136-1.349,1.36-2.332,1.584m-27.724,2.316c.046.1.109.125.194.039l.421.015a.321.321,0,0,0,.4,0l.233,0a.541.541,0,0,0,.618-.014l11.294-.011a.272.272,0,0,0,.395,0l.269.009a.31.31,0,0,0,.506-.04.334.334,0,0,0,.322-.388c-.009-.358-.006-.715-.006-1.073q0-20.133,0-40.266c0-1.128-.042-1.155-1.155-1.18a18.512,18.512,0,0,1-3.486-.392,64.112,64.112,0,0,1-9.264-2.487c-.768-.293-.886-.177-.886.639q-.008,22.2-.01,44.4c0,.251-.145.553.15.755m-31.779,0,0,.052.035-.036.574.03c.038.074.07.068.1-.007l13.271.013c.034.081.071.078.109,0l.4-.011.037.05.028-.059c.464-.392.229-.921.23-1.379q.022-26.982.025-53.964a1.845,1.845,0,0,0-.689-1.492,51.431,51.431,0,0,1-9.278-10.963,1.127,1.127,0,0,0-1.087-.58c-.935.021-1.874.076-2.8,0-.823-.064-1.061.156-1.06,1.023q.037,33.252.015,66.506a1.689,1.689,0,0,0,.093.81m115.151-31.22a2.257,2.257,0,0,0,1.991-2.7,3.873,3.873,0,0,0-1.357-2.289q-4.74-4.772-9.5-9.518-7.143-7.153-14.271-14.321c-.452-.456-.7-.429-1.111.019a29.926,29.926,0,0,1-2.27,2.268c-.579.511-.639.841-.046,1.419,2.874,2.8,5.709,5.649,8.549,8.488q7.763,7.758,15.513,15.527a3.145,3.145,0,0,0,2.507,1.106" transform="translate(-0.005 0)"/>
        <path id="Path_824510" data-name="Path 824510" d="M164.265,26.7c-1.068,1.467-1.075,2.255-.062,3.853a48.315,48.315,0,0,1,5.121,10.659,52.736,52.736,0,0,1,2.391,11.56A50.024,50.024,0,0,1,166,80.848a48.382,48.382,0,0,1-32.422,25.115,63.789,63.789,0,0,1-7.283,1.257,43.039,43.039,0,0,1-8.314-.008,51.264,51.264,0,0,1-8.828-1.508,47.969,47.969,0,0,1-12.563-5.272A52.392,52.392,0,0,1,82.973,88.586,48.9,48.9,0,0,1,73.916,70.88a57.832,57.832,0,0,1-1.571-7.726c-.137-.993-.05-2.018-.212-3a28.014,28.014,0,0,1,.085-7.263,50.816,50.816,0,0,1,2.367-11.321A51.469,51.469,0,0,1,83.01,26.071a49.033,49.033,0,0,1,10.248-9.617,50.574,50.574,0,0,1,20.206-8.272,52.4,52.4,0,0,1,6.574-.643,50.758,50.758,0,0,1,20.05,3.291A47.653,47.653,0,0,1,150.068,16a70.511,70.511,0,0,1,7.222,5.94,2.5,2.5,0,0,0,2.742.789c.294-.119.448-.406.751-.479.744.873,1.51,1.728,2.225,2.625.458.576.841,1.213,1.258,1.822m-42.021,75.642a35.757,35.757,0,0,0,7.633-.622,46.455,46.455,0,0,0,11.248-3.629,50.2,50.2,0,0,0,9.382-5.865c1.169-.906,2.157-2.027,3.243-3.023a40.075,40.075,0,0,0,5.815-6.982A38.062,38.062,0,0,0,163.807,74a55.088,55.088,0,0,0,1.943-5.913c.48-1.916.734-3.873,1.067-5.8a43.58,43.58,0,0,0,.1-5.636A36.522,36.522,0,0,0,166,47.827,42.506,42.506,0,0,0,161.863,36.4a45.672,45.672,0,0,0-6.169-8.872,42.263,42.263,0,0,0-5.635-5.359A46.74,46.74,0,0,0,137,14.965a44.72,44.72,0,0,0-18.027-2.459c-.929.086-1.866.1-2.791.211a42.745,42.745,0,0,0-15.036,4.8A46.62,46.62,0,0,0,86.454,29.8a42.963,42.963,0,0,0-8.41,17.525,45.043,45.043,0,0,0-.982,12.184,63.082,63.082,0,0,0,.911,7.24,42.322,42.322,0,0,0,2.12,7.095c.5,1.418,1.363,2.694,1.907,4.073.661,1.677,1.872,2.979,2.634,4.568.261.543.849.972,1.137,1.483,1.206,2.129,3,3.749,4.585,5.547a23.657,23.657,0,0,0,2.7,2.4,48.85,48.85,0,0,0,7.439,5.129,39.488,39.488,0,0,0,5.5,2.486,43.151,43.151,0,0,0,16.24,2.8" transform="translate(-24.278 -2.527)" fill="#4f526d"/>
        <path id="Path_824511" data-name="Path 824511" d="M2.649,60.129A2.488,2.488,0,0,1,4.94,62.82c.028,1.87.011,3.741.011,5.612v113.8a5.585,5.585,0,0,1,0,.577c-.158,1.507-.16,1.506,1.4,1.505q47.286,0,94.572-.011c1.017,0,2.034-.032,3.051-.049.12,0,.171-.038.082-.152a46.6,46.6,0,0,1,.074-5.675,2.344,2.344,0,0,1,4.674.236,60.854,60.854,0,0,1,.119,7.637c-.017,1.871-1.175,2.945-3.214,2.945q-51.488-.024-102.978-.016a2.724,2.724,0,0,1-2.71-2.65c0-.247-.008-.495-.008-.743q0-61.1,0-122.209a5.342,5.342,0,0,1,.072-1.467,2.408,2.408,0,0,1,2.563-2.035" transform="translate(0 -20.296)"/>
        <path id="Path_824512" data-name="Path 824512" d="M16.265,178.2q0-12.3-.01-24.592a16.179,16.179,0,0,0,0-2.267c-.066-.464,1.023-1.607,1.564-1.707a9.41,9.41,0,0,1,1.762-.264c5.859.015,11.719,0,17.578.017a8.031,8.031,0,0,1,1.943.184,2.24,2.24,0,0,1,1.731,1.676,6.27,6.27,0,0,1,.129,1.557q0,26-.007,52c0,2.174-.862,3.072-3.2,3.074q-8.047,0-16.094,0a30.645,30.645,0,0,1-3.216-.058,2.372,2.372,0,0,1-2.071-2.062c-.264-3.791-.08-7.588-.106-11.382-.036-5.391-.009-10.783-.009-16.174Zm18.977-23.776-13.764,0-.053-.033-.021.058-.284.089-.058,0v.058a22.839,22.839,0,0,1,.151,3.758q0,21.86-.021,43.719c0,.612.152.8.777.8,3.959-.036,7.918-.029,11.877-.047a8.317,8.317,0,0,1,1.114-.1c.963.135,1.029.107,1.029-.833q0-20.91-.007-41.821c0-1.65-.023-3.3-.009-4.949,0-.476-.125-.747-.645-.7l-.045-.032Z" transform="translate(-5.481 -50.42)"/>
        <path id="Path_824513" data-name="Path 824513" d="M34,102.038q-4.33,0-8.66,0a4.083,4.083,0,0,1-1.3-.15A2.728,2.728,0,0,1,22.194,99.6a2.662,2.662,0,0,1,2.077-2.354,8.272,8.272,0,0,1,1.476-.122q8.165-.01,16.331.007a6.836,6.836,0,0,1,1.864.218,2.365,2.365,0,0,1,1.534,2.847,2.408,2.408,0,0,1-2.405,1.828c-3.023.021-6.048.007-9.072.007Z" transform="translate(-7.491 -32.781)"/>
        <path id="Path_824514" data-name="Path 824514" d="M157.034,247.277c.089.114.038.152-.082.151l.082-.151" transform="translate(-52.979 -83.468)" fill="#4f526d"/>
        <path id="Path_824515" data-name="Path 824515" d="M85.1,195.355l-.4.011a.065.065,0,0,0-.111,0l-13.27-.013-.052-.026-.048.032-.573-.03-.032-.017a1.7,1.7,0,0,1-.093-.81q0-33.252-.015-66.505c0-.866.237-1.088,1.06-1.023.929.073,1.869.017,2.8,0a1.127,1.127,0,0,1,1.087.58,51.463,51.463,0,0,0,9.277,10.963,1.842,1.842,0,0,1,.69,1.492q-.023,26.982-.025,53.964c0,.457.233.986-.23,1.379l-.036-.023Z" transform="translate(-23.796 -42.856)" fill="#f98026"/>
        <path id="Path_824516" data-name="Path 824516" d="M132.367,206.771l-.268-.009a.236.236,0,0,0-.4,0l-11.294.011c-.215-.384-.421-.366-.618.013l-.233,0a.249.249,0,0,0-.405,0l-.42-.015c-.046-.1-.116-.095-.194-.039-.3-.2-.15-.5-.15-.755q0-22.2.01-44.395c0-.815.118-.932.886-.639a64.231,64.231,0,0,0,9.265,2.487,18.511,18.511,0,0,0,3.486.392c1.113.025,1.155.052,1.155,1.18q0,20.133,0,40.266c0,.358,0,.715.006,1.073a.334.334,0,0,1-.322.389.377.377,0,0,0-.506.04" transform="translate(-39.95 -54.278)" fill="#83ff71"/>
        <path id="Path_824517" data-name="Path 824517" d="M230.736,168.155a3.145,3.145,0,0,1-2.507-1.106q-7.754-7.767-15.513-15.527c-2.84-2.839-5.675-5.684-8.549-8.488-.592-.578-.533-.908.046-1.419a29.924,29.924,0,0,0,2.27-2.268c.409-.448.658-.476,1.111-.019q7.115,7.181,14.271,14.321,4.752,4.759,9.5,9.518a3.873,3.873,0,0,1,1.357,2.289,2.257,2.257,0,0,1-1.991,2.7" transform="translate(-68.775 -46.919)" fill="#4f526d"/>
        <path id="Path_824518" data-name="Path 824518" d="M120.524,230.063c.2-.379.4-.4.618-.014a.539.539,0,0,1-.618.014" transform="translate(-40.683 -77.558)" fill="#4f526d"/>
        <path id="Path_824519" data-name="Path 824519" d="M139.508,230.135a.377.377,0,0,1,.506-.04.31.31,0,0,1-.506.04" transform="translate(-47.091 -77.642)" fill="#4f526d"/>
        <path id="Path_824520" data-name="Path 824520" d="M119.561,230.168a.249.249,0,0,1,.405,0,.323.323,0,0,1-.405,0" transform="translate(-40.358 -77.657)" fill="#4f526d"/>
        <path id="Path_824521" data-name="Path 824521" d="M138.506,230.122a.236.236,0,0,1,.4,0,.273.273,0,0,1-.4,0" transform="translate(-46.752 -77.642)" fill="#4f526d"/>
        <path id="Path_824522" data-name="Path 824522" d="M91.756,230.2a.065.065,0,0,1,.11,0c-.039.076-.076.079-.11,0" transform="translate(-30.972 -77.695)" fill="#4f526d"/>
        <path id="Path_824523" data-name="Path 824523" d="M92.533,230.189l.03-.032.036.023-.029.059Z" transform="translate(-31.234 -77.689)" fill="#4f526d"/>
        <path id="Path_824524" data-name="Path 824524" d="M118.633,230.119c.079-.055.148-.064.195.039-.085.087-.148.064-.195-.039" transform="translate(-40.044 -77.663)" fill="#4f526d"/>
        <path id="Path_824525" data-name="Path 824525" d="M71.574,230.191l.048-.032.051.026c-.028.075-.062.081-.1.007" transform="translate(-24.16 -77.69)" fill="#4f526d"/>
        <path id="Path_824526" data-name="Path 824526" d="M70.659,230.138l.032.016-.035.036Z" transform="translate(-23.85 -77.683)" fill="#4f526d"/>
        <path id="Path_824527" data-name="Path 824527" d="M124.829,104.835a43.142,43.142,0,0,1-16.241-2.8,39.443,39.443,0,0,1-5.5-2.485,48.849,48.849,0,0,1-7.438-5.129,23.539,23.539,0,0,1-2.705-2.4c-1.582-1.8-3.379-3.418-4.584-5.547-.289-.51-.877-.939-1.137-1.483-.762-1.589-1.973-2.892-2.635-4.568-.543-1.379-1.4-2.654-1.906-4.073a42.386,42.386,0,0,1-2.121-7.095,63.229,63.229,0,0,1-.91-7.24,45.05,45.05,0,0,1,.982-12.185A42.956,42.956,0,0,1,89.039,32.3a46.605,46.605,0,0,1,14.7-12.286,42.736,42.736,0,0,1,15.036-4.8c.925-.114,1.861-.125,2.79-.211a44.724,44.724,0,0,1,18.028,2.459,46.752,46.752,0,0,1,13.055,7.206,42.276,42.276,0,0,1,5.635,5.36,45.678,45.678,0,0,1,6.168,8.872,42.476,42.476,0,0,1,4.138,11.425,36.457,36.457,0,0,1,.912,8.821,43.581,43.581,0,0,1-.1,5.636c-.333,1.931-.587,3.887-1.067,5.8a55.092,55.092,0,0,1-1.943,5.913,38.047,38.047,0,0,1-4.242,8.216,40.046,40.046,0,0,1-5.815,6.982c-1.086,1-2.074,2.117-3.243,3.023a50.2,50.2,0,0,1-9.382,5.865,46.46,46.46,0,0,1-11.248,3.629,35.8,35.8,0,0,1-7.632.622M164.56,61.553c.1-.044.131-.106.056-.2a37.692,37.692,0,0,0-.447-7.423,39.256,39.256,0,0,0-2.338-8.872,37.864,37.864,0,0,0-3.433-6.731,39.32,39.32,0,0,0-26.555-17.762,62.159,62.159,0,0,0-6.681-.741,29.748,29.748,0,0,0-5.382.293,37.314,37.314,0,0,0-8.187,1.824A40.264,40.264,0,0,0,95.176,32.588a35.51,35.51,0,0,0-4.015,5A41.986,41.986,0,0,0,86,48.849a36.7,36.7,0,0,0-1.468,8.4,41.25,41.25,0,0,0,.7,10.291A43.945,43.945,0,0,0,87.646,75.6,37.86,37.86,0,0,0,95.2,87.2a38.767,38.767,0,0,0,22.858,12.21,50.809,50.809,0,0,0,5.847.523,39.78,39.78,0,0,0,29.981-12.7,44.722,44.722,0,0,0,4.407-5.753,33.292,33.292,0,0,0,3.922-8.179c.289-.906.552-1.82.793-2.736a21.912,21.912,0,0,0,.782-2.509,39.3,39.3,0,0,0,.767-6.5" transform="translate(-26.863 -5.025)"/>
        <path id="Path_824528" data-name="Path 824528" d="M23.934,157,37.7,157c.036.1.064.1.086-.006.52-.047.649.224.645.7-.013,1.65.009,3.3.01,4.949q0,20.91.006,41.821c0,.94-.067.969-1.029.833a8.3,8.3,0,0,0-1.113.1c-3.959.018-7.919.012-11.878.047-.625.005-.778-.184-.777-.8q.03-21.86.021-43.719a22.9,22.9,0,0,0-.152-3.757l.066.007-.007-.064.284-.089.053.031Z" transform="translate(-7.938 -52.99)" fill="#ffbd53"/>
        <path id="Path_824529" data-name="Path 824529" d="M23.577,157.178l.007.063-.067-.006v-.059Z" transform="translate(-7.938 -53.055)" fill="#4f526d"/>
        <path id="Path_824530" data-name="Path 824530" d="M45.01,156.976c-.021.105-.05.109-.086.006l.04-.038Z" transform="translate(-15.164 -52.976)" fill="#4f526d"/>
        <path id="Path_824531" data-name="Path 824531" d="M24.109,156.991l-.021.056-.053-.031.021-.058Z" transform="translate(-8.113 -52.981)" fill="#4f526d"/>
        <path id="Path_824532" data-name="Path 824532" d="M167.052,64.05a39.3,39.3,0,0,1-.767,6.5,21.912,21.912,0,0,1-.782,2.509c-.241.916-.5,1.83-.793,2.736a33.292,33.292,0,0,1-3.922,8.179,44.722,44.722,0,0,1-4.407,5.753,39.78,39.78,0,0,1-29.981,12.7,50.809,50.809,0,0,1-5.847-.523A38.767,38.767,0,0,1,97.7,89.694a37.86,37.86,0,0,1-7.558-11.6,43.944,43.944,0,0,1-2.413-8.061,41.25,41.25,0,0,1-.7-10.291,36.7,36.7,0,0,1,1.468-8.4,41.985,41.985,0,0,1,5.165-11.26,35.51,35.51,0,0,1,4.015-5A40.264,40.264,0,0,1,114.083,24.44a37.314,37.314,0,0,1,8.187-1.824,29.748,29.748,0,0,1,5.382-.293,62.16,62.16,0,0,1,6.681.741,39.32,39.32,0,0,1,26.555,17.762,37.864,37.864,0,0,1,3.433,6.731,39.256,39.256,0,0,1,2.338,8.872,37.692,37.692,0,0,1,.447,7.423l-.056.2" transform="translate(-29.355 -7.522)" fill="#b4fcfe"/>
        <path id="Path_824533" data-name="Path 824533" d="M207.86,85.231l.056-.2c.076.093.042.155-.056.2" transform="translate(-70.163 -28.702)" fill="#4f526d"/>
      </g>
    </g>
  </g>
</svg>
