<svg xmlns="http://www.w3.org/2000/svg" xmlns:xlink="http://www.w3.org/1999/xlink" width="56" height="56" viewBox="0 0 56 56">
  <defs>
    <clipPath id="clip-path">
      <rect id="Rectangle_377731" data-name="Rectangle 377731" width="56" height="56" transform="translate(180.5 3330.811)" fill="#fff" stroke="#707070" stroke-width="1"/>
    </clipPath>
    <clipPath id="clip-path-2">
      <rect id="Rectangle_377407" data-name="Rectangle 377407" width="36.94" height="65.85" fill="none"/>
    </clipPath>
  </defs>
  <g id="Mask_Group_374" data-name="Mask Group 374" transform="translate(-180.5 -3330.811)" clip-path="url(#clip-path)">
    <g id="Group_1073497" data-name="Group 1073497" transform="translate(220.558 3320.877) rotate(39)">
      <g id="Group_1073032" data-name="Group 1073032" clip-path="url(#clip-path-2)">
        <path id="Union_39" data-name="Union 39" d="M17.074,51.3c.017-1.687-.011-3.375.008-5.062a1.076,1.076,0,0,1,.278-.686c2.2-2.2,4.427-4.376,6.646-6.56a1.55,1.55,0,0,0,.6-1.262,1.267,1.267,0,0,0-.71-1.089,1.216,1.216,0,0,0-1.331.067,3.916,3.916,0,0,0-.5.432q-2.274,2.241-4.546,4.486c-.108.109-.229.2-.421.369-.022-.21-.043-.318-.043-.427,0-2.524.013-5.049,0-7.574a1.129,1.129,0,0,1,.349-.9q3.294-3.214,6.565-6.452a1.627,1.627,0,0,0,.634-1.206,1.258,1.258,0,0,0-.72-1.175,1.239,1.239,0,0,0-1.406.13c-.272.221-.52.476-.77.722q-2.12,2.087-4.233,4.177c-.089.089-.194.166-.373.319a3.716,3.716,0,0,1-.052-.393q.017-5.418.035-10.834a3.823,3.823,0,0,0-.074-.7,1.329,1.329,0,0,0-2.6-.034,4.118,4.118,0,0,0-.087.828q-.005,4.844,0,9.69v1.459c-.181-.17-.272-.25-.358-.336-1.581-1.554-3.151-3.121-4.751-4.654a2.06,2.06,0,0,0-.988-.5,1.288,1.288,0,0,0-1.173,2.016,9.018,9.018,0,0,0,.833.9C9.947,29.09,12,31.1,14.038,33.141a1.2,1.2,0,0,1,.321.762c.028,2.495.022,4.99.022,7.485,0,.166-.032.333-.058.6-.16-.13-.25-.191-.326-.266q-2.364-2.341-4.727-4.681a1.538,1.538,0,0,0-1.2-.55A1.313,1.313,0,0,0,6.99,38.416a3.275,3.275,0,0,0,.562.67c2.159,2.139,4.332,4.265,6.479,6.414a1.2,1.2,0,0,1,.33.758c.017,1.674-.021,3.347-.013,5.02,0,.406-.11.49-.513.425-4.68-.755-7.988-3.479-10.487-7.328A21.816,21.816,0,0,1,.162,35.242,22.063,22.063,0,0,1,1.89,23.993,79.909,79.909,0,0,1,8.25,11.458C10.5,7.815,12.9,4.261,15.23.67c.142-.216.313-.412.511-.67.168.237.289.41.41.583a148.945,148.945,0,0,1,10.2,16.5,52.057,52.057,0,0,1,4.207,9.894A20.871,20.871,0,0,1,27.05,45.829a14.264,14.264,0,0,1-7.138,5.3c-.776.253-1.589.4-2.385.587a.733.733,0,0,1-.175.024C17.144,51.738,17.071,51.6,17.074,51.3Z" transform="translate(2.75 4.61)" fill="#c1e29a" stroke="rgba(0,0,0,0)" stroke-miterlimit="10" stroke-width="1"/>
        <path id="Path_819647" data-name="Path 819647" d="M28.276,55.683a22.042,22.042,0,0,0,7.6-11.519A24.623,24.623,0,0,0,36.94,37.1a22.787,22.787,0,0,0-1.357-7.18,70.768,70.768,0,0,0-5.578-12.171c-.695-1.241-1.38-2.491-2.139-3.691-.239-.378-2.194-3.866-2.246-3.811L18.533,0c-.193.245-.294.365-.387.491A162.437,162.437,0,0,0,7.955,15.956a76.282,76.282,0,0,0-6.617,14.01A21.626,21.626,0,0,0,0,36.926a29.152,29.152,0,0,0,.422,4.413A23.008,23.008,0,0,0,5.74,52.94a17.011,17.011,0,0,0,11.017,6.093c.273.034.336.164.333.407-.01.793-.017,1.586-.007,2.378.012.939.018,1.879.072,2.817a1.3,1.3,0,0,0,1.237,1.212,1.319,1.319,0,0,0,1.375-1.054,3.4,3.4,0,0,0,.075-.7c.007-1.527.012-3.054,0-4.581,0-.3.057-.447.389-.484a15.378,15.378,0,0,0,5.12-1.5c.192-.094,2.815-1.762,2.93-1.851m-8,.639c-.344.082-.456-.043-.453-.411.016-1.688-.011-3.376.008-5.064a1.078,1.078,0,0,1,.277-.685c2.2-2.2,4.428-4.376,6.646-6.561a1.548,1.548,0,0,0,.6-1.26,1.271,1.271,0,0,0-.709-1.09,1.218,1.218,0,0,0-1.333.068,3.921,3.921,0,0,0-.5.432q-2.275,2.242-4.546,4.487c-.109.107-.23.2-.421.368-.022-.21-.044-.318-.044-.426,0-2.525.013-5.049,0-7.574a1.123,1.123,0,0,1,.348-.9q3.295-3.214,6.566-6.453a1.63,1.63,0,0,0,.634-1.207,1.256,1.256,0,0,0-.72-1.172,1.236,1.236,0,0,0-1.406.128c-.273.221-.52.475-.771.722q-2.118,2.087-4.232,4.178c-.091.089-.194.166-.373.317a3.6,3.6,0,0,1-.052-.393q.017-5.417.035-10.833a3.778,3.778,0,0,0-.075-.7,1.329,1.329,0,0,0-2.595-.033,4.1,4.1,0,0,0-.088.828q0,4.845,0,9.689c0,.444,0,.888,0,1.458-.181-.168-.272-.25-.359-.335-1.58-1.555-3.15-3.121-4.751-4.654a2.043,2.043,0,0,0-.988-.5,1.144,1.144,0,0,0-1.237.654,1.159,1.159,0,0,0,.065,1.362,9.2,9.2,0,0,0,.835.9c2.047,2.024,4.1,4.036,6.138,6.073a1.2,1.2,0,0,1,.321.762c.027,2.495.022,4.989.022,7.485,0,.167-.031.334-.058.6-.161-.132-.251-.193-.326-.268q-2.364-2.338-4.726-4.68a1.539,1.539,0,0,0-1.2-.549,1.312,1.312,0,0,0-1.084,1.928,3.286,3.286,0,0,0,.561.671c2.16,2.138,4.332,4.265,6.481,6.414a1.206,1.206,0,0,1,.329.759c.018,1.673-.019,3.347-.013,5.019,0,.405-.11.49-.513.425C11.9,55.557,8.6,52.832,6.1,48.984a21.793,21.793,0,0,1-3.187-9.133A22.063,22.063,0,0,1,4.64,28.6,80.119,80.119,0,0,1,11,16.067c2.249-3.644,4.645-7.2,6.98-10.787.14-.216.312-.412.51-.671l.41.584A149.11,149.11,0,0,1,29.1,21.686a52.1,52.1,0,0,1,4.208,9.895A20.878,20.878,0,0,1,29.8,50.439a14.276,14.276,0,0,1-7.138,5.3c-.776.253-1.589.4-2.385.586" transform="translate(0 0)" fill="#264100"/>
      </g>
    </g>
  </g>
</svg>
